<svg xmlns="http://www.w3.org/2000/svg" width="350" height="50" viewBox="0 0 350 50">
  <g id="Group_49672" data-name="Group 49672" transform="translate(17232 9546.635)">
    <rect id="Rectangle_3509" data-name="Rectangle 3509" width="350" height="50" transform="translate(-17232 -9546.635)" fill="none"/>
    <g id="Group_49665" data-name="Group 49665" transform="translate(-17176 -9545.636)">
      <g id="Sportstar" transform="translate(0 0)">
        <path id="Path_3289" data-name="Path 3289" d="M0,0,1.758,3.986,0,7.971H2.755L4.514,3.986,2.755,0Z" transform="translate(0 0.664)" fill="#fff"/>
        <path id="Path_3290" data-name="Path 3290" d="M-1.227-2.78-2.985-6.766H-1.4L.356-2.78-1.4,1.205H-2.985Z" transform="translate(6.736 7.43)" fill="#fff"/>
        <path id="Path_3291" data-name="Path 3291" d="M0-23.6C.459-14.226,4.918-9.046,12.46-8.981c7.213.066,12.394-4.656,12.394-12.459,0-4.787-1.967-9.509-6.754-13.772l-4-3.606c-2.689-2.426-4.066-4.066-4.066-6.558,0-2.3.984-3.607,2.623-3.607,2.1,0,2.885,2.164,3.279,5.509L24.46-43.8c-.656-8.983-4.721-13.574-11.673-13.64S.787-52.72.722-44.72A16.639,16.639,0,0,0,6.754-31.736l4,3.607c2.886,2.492,4.394,4.656,4.394,7.213,0,2.3-1.115,3.541-2.82,3.541-2.3,0-3.41-2.36-3.934-6.623ZM27.476-9.767h9.378l-.066-4.787V-27.67h1.705c10.23,0,12.722-6.426,12.722-14.427v-.131c0-8-2.558-14.427-12.919-14.427H27.476l.065,4.787v37.313Zm9.312-25.706V-48.786h1.05c3.41,0,4.2,2.755,4.2,6.426v.394c0,3.542-.787,6.492-4.2,6.492ZM65.509-8.981c3.8,0,6.492-.983,8.328-2.819,2.492-2.426,3.738-6.361,3.738-15.411V-39.146c0-8.853-1.181-12.984-3.738-15.476-1.836-1.771-4.525-2.82-8.328-2.82s-6.426,1.049-8.328,2.82C54.624-52.13,53.509-48,53.509-39.146v11.935c0,9.05,1.181,12.985,3.672,15.411,1.9,1.836,4.525,2.819,8.328,2.819m0-8.459c-2.689,0-2.689-2.885-2.689-7.935V-41.113c0-4.984,0-7.87,2.689-7.87,2.754,0,2.754,2.885,2.754,7.87v15.738c0,5.05,0,7.935-2.754,7.935M92.461-28.457,96.33-9.767H106.1l-5.115-21.247c3.082-2.492,4.263-6.558,4.263-11.214v-.131c0-7.8-2.558-14.3-12.722-14.3H81.51l.065,4.787v37.313L81.51-9.767h9.378l-.066-4.787v-13.9ZM90.821-48.786H91.87c3.41,0,4.2,2.755,4.2,6.23v.2c0,3.41-.787,6.23-4.263,6.23h-.984Zm37.51.2v-8.066H105.707v8.066H112.4v34.034l-.065,4.787h9.378l-.066-4.787V-48.589Zm.983,24.985c.459,9.378,4.918,14.558,12.46,14.623,7.213.066,12.394-4.656,12.394-12.459,0-4.787-1.967-9.509-6.754-13.772l-4-3.606c-2.689-2.426-4.066-4.066-4.066-6.558,0-2.3.984-3.607,2.623-3.607,2.1,0,2.885,2.164,3.279,5.509l8.525-.328c-.656-8.983-4.722-13.574-11.673-13.64s-12,4.721-12.066,12.722a16.64,16.64,0,0,0,6.033,12.984l4,3.607c2.886,2.492,4.394,4.656,4.394,7.213,0,2.3-1.115,3.541-2.82,3.541-2.3,0-3.41-2.36-3.934-6.623Zm48.067-24.985v-8.066H154.758v8.066h6.688v34.034l-.065,4.787h9.378l-.066-4.787V-48.589Zm8.46,29.838H192.4l1.05,8.984h9.115l-7.082-46.887H182.825L175.808-9.767h8.984Zm2.36-19.476c.328-2.361.656-5.771.852-7.607h.262c.131,1.836.46,5.246.787,7.607l1.312,11.279h-4.591Zm27.477,9.771,3.868,18.69h9.771L224.2-31.014c3.082-2.492,4.263-6.558,4.263-11.214v-.131c0-7.8-2.557-14.3-12.722-14.3H204.727l.065,4.787v37.313l-.065,4.787H214.1l-.065-4.787v-13.9Zm-1.639-20.329h1.049c3.41,0,4.2,2.755,4.2,6.23v.2c0,3.41-.787,6.23-4.263,6.23h-.983Z" transform="translate(8.576 57.442)" fill="#fff"/>
        <path id="Path_3292" data-name="Path 3292" d="M0-33.805H237.894V-82.268H0Z" transform="translate(0 82.268)" fill="none"/>
      </g>
    </g>
  </g>
</svg>
