<svg xmlns="http://www.w3.org/2000/svg" width="190" height="108" viewBox="0 0 190 108">
  <g id="Group_49514" data-name="Group 49514" transform="translate(-541 -421)">
    <rect id="Rectangle_3370" data-name="Rectangle 3370" width="190" height="108" transform="translate(541 421)" fill="#fff"/>
    <g id="BusinessLine" transform="translate(517 113.643)">
      <g id="BL_epaper" data-name="BL epaper" transform="translate(38 351.358)">
        <g id="Group_3043" data-name="Group 3043" transform="translate(0)">
          <path id="Path_129" data-name="Path 129" d="M-13.637-22.274a3.339,3.339,0,0,1-3.335-3.335,3.339,3.339,0,0,1,3.335-3.336A3.339,3.339,0,0,1-10.3-25.609,3.339,3.339,0,0,1-13.637-22.274Zm0-6.4A3.071,3.071,0,0,0-16.7-25.609a3.071,3.071,0,0,0,3.068,3.068,3.071,3.071,0,0,0,3.068-3.068A3.071,3.071,0,0,0-13.637-28.677Z" transform="translate(172.486 42.953)"/>
          <path id="Path_130" data-name="Path 130" d="M-4.953-9.907a1.808,1.808,0,0,0,1.808-1.808,1.808,1.808,0,0,0-1.808-1.808,1.808,1.808,0,0,0-1.808,1.808A1.808,1.808,0,0,0-4.953-9.907" transform="translate(163.802 29.059)"/>
          <path id="Path_127" data-name="Path 127" d="M-25.758-65.717l-.089-.178-.355-.03c-1.037-.089-1.244-.178-1.244-.415v-19.25l-6.071,1.481-.03.118.652.178c1.036.267,1.214.5,1.214,2.28V-66.4c0,.355-.148.415-1.066.474l-.385.03-.118.178Zm4.649-14.719a2.42,2.42,0,0,0,2.517-2.429,2.386,2.386,0,0,0-2.517-2.428,2.4,2.4,0,0,0-2.517,2.428,2.439,2.439,0,0,0,2.517,2.429m4.087,14.719-.089-.178-.237-.03c-1.333-.178-1.54-.178-1.54-.415V-78.866l-6.071,1.688-.029.118.681.148c1.036.237,1.214.533,1.214,2.34V-66.4c0,.355-.326.385-1.244.474l-.355.03-.089.178Zm8.5,0-.059-.178-.444-.03c-1.036-.059-1.155-.178-1.155-.415v-9.477a3.769,3.769,0,0,1,2.1-.622c1.3,0,2.281.592,2.281,2.517V-66.4c0,.237.059.415-.978.474l-.533.03-.089.178H.274l-.089-.178-.267-.03c-1.392-.148-1.54-.237-1.54-.444v-7.967a5.463,5.463,0,0,0-.948-3.554,3.052,3.052,0,0,0-2.369-1.036c-1.925,0-3.761,1.54-5.213,2.725h-.029l.089-2.666-6.16,1.688-.029.118.681.148c1.037.237,1.214.533,1.214,2.34V-66.4c0,.355-.326.385-1.244.474l-.355.03-.089.178ZM5.338-74.6c.237-2.606,1.274-3.969,2.31-3.969,1.51,0,1.836,2.192,1.836,3.969Zm1.836,9.359c3.2,0,5.153-1.6,6.308-4.561l-.178-.089a3.664,3.664,0,0,1-3.584,2.31C7-67.582,5.279-69.833,5.279-73a6.117,6.117,0,0,1,.029-1.274c.859,0,2.814.059,4.62.089l3.376.059a3.646,3.646,0,0,0,.059-.563c0-1.807-1.51-4.294-5.3-4.294A7.075,7.075,0,0,0,.807-71.847a6.359,6.359,0,0,0,6.367,6.6" transform="translate(140.786 85.648)" fill="#1e78c1"/>
          <path id="Path_128" data-name="Path 128" d="M-30.067-66.3c-.977,0-2.162-1.155-3.021-2.665v-7.4a3.614,3.614,0,0,1,2.31-1.007c2.014,0,3.228,2.221,3.228,5.3,0,3.169-.889,5.775-2.517,5.775m-7.019.533,2.4-1.155h.029a11.688,11.688,0,0,0,4.294.918c3.288,0,7.374-2.251,7.374-7.138,0-3.643-2.369-6.367-5.331-6.367a6.188,6.188,0,0,0-4.65,2.754l-.118-.089v-9.507l-6.042,1.481-.03.118.681.178c1.036.267,1.214.5,1.214,2.281v16.526ZM-6.67-67.755l.03-.118-.74-.148c-.978-.207-1.155-.563-1.155-2.251v-8.914h-6.219l.089.178.414.03c1.333.089,1.54.089,1.54.415v9.447a3.341,3.341,0,0,1-1.866.622c-1.421,0-2.369-.622-2.34-2.488l.089-8.2h-6.308l.089.178.415.03c1.51.118,1.629.237,1.629.355l-.118,7.967a5,5,0,0,0,.948,3.554,2.707,2.707,0,0,0,2.192,1.1c1.955,0,3.731-1.392,5.242-2.754h.089l-.118,2.814Zm5.36,1.747c3.909,0,5.538-2.162,5.538-4.413,0-2.488-2.192-3.406-4.057-4.176C-1.517-75.307-3-75.84-3-77.2A1.946,1.946,0,0,1-.925-79.335a3.169,3.169,0,0,1,1.6.474l2.754,3.613.119-.059L3.4-79.365,2.037-79.1a9.917,9.917,0,0,0-2.9-.5c-3.08,0-5.153,1.688-5.153,4.354,0,2.28,1.777,3.2,3.969,4.087,1.659.681,3.08,1.274,3.08,2.725a2.047,2.047,0,0,1-2.251,2.162c-1.866,0-2.606-1.037-3.909-2.991l-.8-1.214-.118-.059.089,3.732a12.886,12.886,0,0,0,4.65.8M9.2-81.141a2.42,2.42,0,0,0,2.517-2.429A2.385,2.385,0,0,0,9.2-86,2.4,2.4,0,0,0,6.687-83.57,2.439,2.439,0,0,0,9.2-81.141m4.087,14.719L13.2-66.6l-.237-.029c-1.333-.178-1.54-.178-1.54-.415V-79.572L5.354-77.884l-.03.119.681.148c1.036.237,1.214.533,1.214,2.34V-67.1c0,.356-.326.385-1.244.474l-.355.029-.089.178Zm8.5,0-.059-.178-.444-.029c-1.037-.059-1.155-.178-1.155-.415v-9.477a3.77,3.77,0,0,1,2.1-.622c1.3,0,2.281.592,2.281,2.517V-67.1c0,.237.059.415-.977.474l-.533.029-.089.178h7.671L30.5-66.6l-.267-.029c-1.392-.148-1.54-.237-1.54-.444v-7.967a5.463,5.463,0,0,0-.948-3.554,3.051,3.051,0,0,0-2.369-1.036c-1.925,0-3.761,1.54-5.212,2.725h-.03l.089-2.665-6.16,1.688-.03.119.681.148c1.036.237,1.214.533,1.214,2.34V-67.1c0,.356-.326.385-1.244.474l-.355.029-.089.178Zm13.86-8.885c.237-2.606,1.274-3.969,2.31-3.969,1.511,0,1.836,2.192,1.836,3.969Zm1.836,9.359c3.2,0,5.153-1.6,6.308-4.561l-.178-.089a3.664,3.664,0,0,1-3.584,2.31c-2.725,0-4.442-2.251-4.442-5.42a6.1,6.1,0,0,1,.03-1.274c.859,0,2.813.059,4.62.089l3.376.059a3.619,3.619,0,0,0,.059-.563c0-1.807-1.51-4.294-5.3-4.294a7.075,7.075,0,0,0-7.256,7.137,6.359,6.359,0,0,0,6.368,6.6m12.35-.059c3.909,0,5.538-2.162,5.538-4.413,0-2.488-2.192-3.406-4.057-4.176-1.688-.711-3.169-1.244-3.169-2.606a1.946,1.946,0,0,1,2.073-2.132,3.169,3.169,0,0,1,1.6.474l2.754,3.613.119-.059-.148-4.057-1.362.267a9.917,9.917,0,0,0-2.9-.5c-3.08,0-5.153,1.688-5.153,4.354,0,2.28,1.777,3.2,3.969,4.087,1.659.681,3.08,1.274,3.08,2.725a2.047,2.047,0,0,1-2.251,2.162c-1.866,0-2.606-1.037-3.909-2.991l-.8-1.214-.118-.059.089,3.732a12.886,12.886,0,0,0,4.65.8m11.728,0c3.909,0,5.538-2.162,5.538-4.413,0-2.488-2.192-3.406-4.057-4.176-1.688-.711-3.169-1.244-3.169-2.606a1.946,1.946,0,0,1,2.073-2.132,3.17,3.17,0,0,1,1.6.474L66.3-75.248l.118-.059-.148-4.057-1.362.267a9.917,9.917,0,0,0-2.9-.5c-3.08,0-5.153,1.688-5.153,4.354,0,2.28,1.777,3.2,3.969,4.087,1.658.681,3.08,1.274,3.08,2.725a2.047,2.047,0,0,1-2.251,2.162c-1.866,0-2.606-1.037-3.909-2.991l-.8-1.214-.118-.059.089,3.732a12.886,12.886,0,0,0,4.65.8" transform="translate(39.159 86.354)"/>
          <path id="Path_131" data-name="Path 131" d="M0-68.067H161.207V-88.65H0Z" transform="translate(0 88.65)" fill="none"/>
          <path id="Path_1015" data-name="Path 1015" d="M38.077.265V.207l-.6.013-.7-.013V.265c.523.026.652.226.652.782V2.241c0,.723-.239,1.13-.943,1.13-.652,0-.827-.42-.827-1.078V.73c0-.394.129-.445.478-.465V.207L35.371.22,34.6.207V.265c.349.02.478.065.478.465V2.48c0,.826.678,1.02,1.3,1.02a1.058,1.058,0,0,0,1.182-1.2V1.047c0-.4.025-.679.355-.759ZM33.834,1.886l-.01.285c-.05.635-.286,1.054-.874,1.161a1.111,1.111,0,0,1-.265.02c-.323-.007-.446-.149-.446-.5V.349a1.442,1.442,0,0,1,.29-.032c.842,0,1.252.562,1.3,1.4l0,.171m.107,1.22.106-.091a1.57,1.57,0,0,0,.427-1.194c0-1.176-.846-1.615-1.821-1.615L31.968.22,31.173.207V.265c.355.02.478.065.478.471v2.2c0,.4-.129.446-.478.472v.052l.788-.013c.181,0,.362.013.542.019a2.6,2.6,0,0,0,.452-.013,2.053,2.053,0,0,0,.869-.263l.116-.079M31.006.265V.207L30.47.22,29.8.207V.265c.53.02.607.349.607.859v1.7L28.216.213H27.37V.272a.84.84,0,0,1,.284.045c.271.11.3.491.3.762v1.46c0,.42,0,.833-.471.865v.052c.181-.007.368-.02.549-.02.22,0,.433.013.646.02V3.4c-.5-.032-.594-.375-.594-.865V.949L30.2,3.494h.336V1.124c0-.376.011-.779.391-.85l.081-.009m-3.817,3.19V3.4c-.349-.026-.485-.071-.485-.472V.736c0-.4.129-.452.485-.471V.207L26.42.22,25.645.207V.265c.355.02.478.065.478.471v2.2c0,.4-.129.446-.478.472v.052l.775-.013.769.013m-1.834,0V3.4c-.342-.026-.484-.071-.484-.472V.736c0-.4.135-.452.484-.471V.207L24.573.22,23.811.207V.265c.355.02.472.065.472.471v.975l-.833.007h-.626V.736c0-.4.123-.452.478-.471V.207L22.532.22,21.758.207V.265c.355.02.478.065.478.471v2.2c0,.4-.129.446-.478.472v.052l.775-.013.769.013V3.4c-.349-.026-.478-.071-.478-.472V1.815l.71-.006.749.006V2.932c0,.4-.116.446-.472.472v.052l.762-.013.781.013m-4.34-.149.039-.011.039-.021.026.1c-.019,0-.026.013-.045.019l-.02-.052-.039-.038m-.078.11h-.058c.007-.052.026-.09.078-.09s.071.045.077.084l-.1.007m-.1-1.576h.006v.007m-.013.064L20.808,1.9c0-.013.006-.026.019-.026a.017.017,0,0,1,.02.019l-.005.014-.014,0m.007-.045-.026.013L20.8,1.847a.021.021,0,0,0,.019-.02h.007v.013l.013.026m-.065-.032-.006-.007.006-.013.013.013m-.026.058-.026-.013c0-.013.013-.02.026-.02s.013.007.013.02l-.013.013m.007-.084-.007.02.007.019a.045.045,0,0,0-.032.02V1.854l-.013-.032h.007l.026-.02h.013m-.052,1.589.024-.057a.061.061,0,0,1,.053-.027c.045,0,.051.071.051.1V3.41l-.129-.019M20.7,1.8,20.7,1.8l.006-.007.007.007m-.02-.032v.026l.007.026-.007-.006-.032.013.006-.013-.013-.02.024-.008m.01.072-.014.007-.02-.02.007-.013h.013c.013,0,.019.007.019.013l0,.012m-.04-.09-.007-.006.007-.007.006.007m-.029-.013,0,.019-.02.007a.04.04,0,0,0,0-.039l.02-.007h.013l-.016.02M20.6,3.416l.013-.013.065.013M20.6,1.783l.013-.007.013.02-.013.019a.021.021,0,0,1-.02-.019V1.789l.007-.006m0-.084-.007.013L20.589,1.7l.006-.007m.118,1.528.134.016a.4.4,0,0,0,.207-.045l.039.038a.332.332,0,0,1-.181.058c-.065,0-.31-.026-.33-.1l.007-.007.124.036m-.124.139-.013-.006c0-.026.013-.084.052-.084s.052.039.052.071l-.006.039-.039-.007c.006-.019.019-.032.019-.052l-.03.022-.035.017m-.02.1.02-.02a3.868,3.868,0,0,0,.472.052.209.209,0,0,0,.232-.194.137.137,0,0,0-.052-.11.178.178,0,0,1,.1.026.073.073,0,0,0,.019-.052.144.144,0,0,0-.039-.09.224.224,0,0,1,.123.194c0,.194-.207.258-.355.258a2.482,2.482,0,0,1-.316-.045l-.1-.012-.106-.007m-.026-1.731h.013c.013,0,.02,0,.02.013a.017.017,0,0,1-.02.02l-.013-.007V1.724l-.006-.1.045.058-.006.032-.014,0M20.5,3.4l.045-.058-.006.013.013.026m-.071-1.621.014.03.005.035c0,.013-.007.071-.019.071s-.013-.058-.013-.071l0-.035.011-.03m0,.521,0,.04-.013.065c-.013,0-.013-.058-.013-.071s0-.065.013-.065l.011.031m0-.915v.018l-.006.008c-.013.007-.026-.084-.026-.1l.007-.026c.006,0,.013.02.018.044l.008.059m0,.678.02.008.006.018a.031.031,0,0,1-.032.032.036.036,0,0,1-.026-.032l.011-.018.021-.008m.01-.5.009.02a.029.029,0,0,1-.032.026.027.027,0,0,1-.026-.026.024.024,0,0,1,.026-.026l.023.006m-.015.927.011.024a.034.034,0,0,1-.032.032c-.026,0-.039-.013-.039-.032s.013-.032.039-.032l.021.009m.005-.771-.03-.027a.159.159,0,0,1-.041-.1.183.183,0,0,1,.045-.11.138.138,0,0,0-.026.1l.014.078.038.064m-.007.252-.035.059-.01.064a.182.182,0,0,0,.026.116.192.192,0,0,1-.052-.116l.019-.066.052-.057m-.1.485.014-.019L20.4,2.4l-.02.039m.007-1.356.023.006.009.02a.029.029,0,0,1-.032.026.028.028,0,0,1-.026-.026l.008-.02.018-.006m0,.142-.053-.058a.143.143,0,0,1-.024-.077.19.19,0,0,1,.045-.1.216.216,0,0,0-.019.1l.014.076.038.066m-.013.575-.017.072-.041.057A.177.177,0,0,0,20.35,1.8a.241.241,0,0,0-.045-.129.165.165,0,0,1,.066.092l0,.037m-.02,1.408,0-.04-.023-.031H20.3a.371.371,0,0,1,.142-.213.38.38,0,0,1,.161.226h-.039l-.056-.081-.08-.061a.441.441,0,0,1,.032.155.239.239,0,0,1-.039.135L20.4,3.25l-.043-.04m-.049-.772.029-.009a.032.032,0,0,1,0,.065c-.026,0-.039-.013-.039-.032l.01-.023m0-.416-.013.052-.007-.045a.061.061,0,0,1,.013-.045l.007.039m.024-.71.015.034.006.037A.192.192,0,0,1,20.3,1.5a.252.252,0,0,0,.026-.116.17.17,0,0,0-.045-.123l.05.052m-.024.465.021.01.011.015a.042.042,0,0,1-.032.039c-.02,0-.026-.019-.026-.039l.008-.018.018-.008m-.026.607.029-.056.01-.066a.2.2,0,0,0-.032-.123.183.183,0,0,1,.058.116.149.149,0,0,1-.02.072l-.044.057m.026-.769-.005.038-.014.033-.013-.071.013-.077c.01,0,.014.018.017.036l0,.041m-.052.859.065-.1a.23.23,0,0,0,.045-.1c0-.071-.052-.135-.052-.213,0-.1.11-.155.11-.245s-.09-.136-.09-.226.065-.142.065-.226c0-.11-.142-.123-.142-.278,0-.058.045-.1.032-.162L20.3.975l-.019.11.006.048c.029.1.142.123.142.23,0,.084-.065.149-.065.226s.09.136.09.226-.1.155-.1.252c0,.071.045.136.045.207a.167.167,0,0,1-.052.11l-.09.09m-.007-1.182V1.259a.087.087,0,0,1,.013-.058l.007.032-.02.058m.032.058.021.012.011.026a.045.045,0,0,1-.032.026.034.034,0,0,1-.032-.032l.011-.021.021-.011m.045,1.892L20.31,3.3l-.038.048h-.026l-.032-.11M20.259.949l-.01.02-.015.006c-.019,0-.032-.007-.032-.026a.029.029,0,0,1,.032-.026l.015.008.01.018m.013,1.479-.015.027-.03.012a.037.037,0,0,1-.039-.039c0-.026.013-.045.039-.045l.03.013.015.032m.252.142.021-.249.011-.249-.006-.284a.031.031,0,0,0,.039.007l-.007.013a.043.043,0,0,0,.039.045l.032-.006-.006.006a.048.048,0,0,0,.045.045.036.036,0,0,0,.032-.02s.019.045.045.045l.032-.013a.041.041,0,0,0,.038.039c.032,0,.045-.019.045-.039s-.007-.038-.026-.038c.013-.007.026-.026.019-.032h.084l-.013.11v.007a.312.312,0,0,1-.142.077A.33.33,0,0,0,20.944,2l-.013.039a.219.219,0,0,1-.116.071.215.215,0,0,0,.1-.032l-.006.032a.271.271,0,0,1-.116.071.272.272,0,0,0,.1-.026l-.013.039a.6.6,0,0,1-.123.071.31.31,0,0,0,.11-.032l-.013.032-.1.058.084-.02-.038.09a1.023,1.023,0,0,1-.116.065l.1-.026a.444.444,0,0,0-.058.162l.013.077a.211.211,0,0,1-.084.084.339.339,0,0,0,.1-.052.686.686,0,0,0,.077.11.288.288,0,0,1-.09.065.164.164,0,0,0,.1-.045l.026.026a.164.164,0,0,1-.077.071.123.123,0,0,0,.09-.045l.026.026a.136.136,0,0,1-.084.065h.006a.127.127,0,0,0,.09-.039l.013.013a.152.152,0,0,1-.084.071.215.215,0,0,0,.1-.045l.039.071s-.039.065-.077.071a.163.163,0,0,0,.1-.039l.006.007c-.026.032-.052.065-.084.071a.18.18,0,0,0,.1-.039l.013.039a.324.324,0,0,1-.194.051.507.507,0,0,1-.232-.051.134.134,0,0,0-.02-.084h.032l.077-.007a.156.156,0,0,1-.162-.09l.052.007.058-.007a.247.247,0,0,1-.174-.058l.058.006.065-.006a.284.284,0,0,1-.207-.084.287.287,0,0,0,.1.02l.065-.006h-.026c-.213,0-.31-.207-.375-.381l.183.045.178.065m-.413-.73-.019-.006.026-.013.013.013M20.1,2.1l-.014-.011c0-.026.039-.032.052-.032s.045.007.045.02-.045.026-.058.026l-.024,0m.018-.153-.02.006a.029.029,0,0,1-.019-.026l.006-.006.019.008.014.018m.013.019.024,0,.014.017c0,.019-.038.032-.051.032s-.039-.006-.039-.026.01-.016.021-.02l.031-.006m.013.181.024.005.014.02c0,.019-.045.026-.058.026v.019c0,.007,0,.045-.026.045s-.019-.038-.019-.045c0-.034.011-.057.035-.066l.029,0m-.078-.536.006-.016a.079.079,0,0,1,.052-.016c.013,0,.039,0,.039.019s-.039.032-.058.032l-.024,0-.014-.014m.045.749.03.01.015.029c0,.019-.026.039-.045.039a.043.043,0,0,1-.045-.039l.013-.029.032-.01m-.052,1.014.181.007a.154.154,0,0,1-.078.019l-.052-.008-.052-.018m.052-1.885.027,0,.018.014c0,.026-.045.032-.058.032s-.045-.007-.045-.026.01-.016.022-.02l.036-.006m-.052.258h-.006c0-.02.013-.02.026-.026l-.013-.013c0-.02.045-.032.058-.032s.039.006.039.019c0,.032-.058.032-.077.032l-.006.014-.02.005m.02.284v.007l-.02,0-.006-.015V2.009l.018,0m-.018,1.319.027-.053a.079.079,0,0,1,.056-.024c.052,0,.065.045.065.084v.006l-.148-.013m.008-1.9-.014-.014c0-.02.045-.032.058-.032s.039.007.039.026-.045.026-.058.026l-.024,0m.024-.5-.019.018-.033.008c-.013,0-.039-.007-.039-.026s.045-.026.058-.026l.021.006.011.02m-.11.749V1.673c0-.013.007-.026.02-.026L20,1.654l-.008.021-.018.011m.013.4-.007.013-.013-.026.006-.013m.013.077L20,2.143a.055.055,0,0,1,.011.04c0,.013,0,.051-.026.051s-.02-.038-.02-.051l0-.028.015-.018m.019.187.03.012.015.026a.043.043,0,0,1-.045.039.034.034,0,0,1-.039-.039l.01-.026.029-.012M20,1.511l.012.027a.039.039,0,0,1-.039.045c-.032,0-.052-.013-.052-.045s.02-.039.052-.039L20,1.511M20.02.827,20,.868a.051.051,0,0,1-.039.017c-.039,0-.065-.019-.065-.058L19.91.788l.11.039m-.046,2.232-.09-.049a1.5,1.5,0,0,0,.162-.381.148.148,0,0,0-.019-.071l.142-.006.052.11-.032.007a.206.206,0,0,1-.1-.039.181.181,0,0,0,.148.058.589.589,0,0,0,.11.149h-.026a.384.384,0,0,1-.207-.058.4.4,0,0,0,.258.084l.045.045-.032.026a.448.448,0,0,1-.258-.058.487.487,0,0,0,.232.09l-.039.045h-.013a.552.552,0,0,1-.239-.065.521.521,0,0,0,.239.1l-.026.039h-.013a.418.418,0,0,1-.245-.071.4.4,0,0,0,.245.1l-.006.026a.687.687,0,0,1-.2-.04l-.094-.039m-.09-1.438.013.019c0,.013-.006.013-.013.02s-.013-.006-.013-.02l.013-.019m0,.51.012-.006c.013,0,.02.039.02.052s-.007.045-.02.045-.026-.039-.026-.045l.006-.031.008-.014m0-.045.007.013-.02.026L19.865,2.1l0-.007m0,.433.013-.11.278.045.013.084-.154-.005m-.156.76.032-.064c.014-.022.032-.039.052-.039.052,0,.071.077.071.116v.013L19.859,3.3m.032-.988.03.011a.043.043,0,0,1,.015.035c0,.019-.026.039-.045.039a.043.043,0,0,1-.045-.039l.013-.035.032-.011m-.013-.781-.005.025-.014.02c-.019,0-.026-.039-.026-.045s.006-.052.026-.052l.014.021.005.031m-.071,1.543V3.068a.067.067,0,0,1,.026-.052.816.816,0,0,0,.484.155v.02l-.006.026h-.058a.917.917,0,0,1-.356-.082l-.089-.06m.077-1.311.038.009a.116.116,0,0,1,.066.1.113.113,0,0,1-.1.11.107.107,0,0,1-.1-.11.112.112,0,0,1,.062-.1l.041-.009m-.1-.111,0,.02v.013l-.019-.026V1.647m.006.452h-.006V2.086a.029.029,0,0,1,.019-.026l.007.006-.005.021-.014.011m.007.032.012-.006c.019,0,.026.032.026.052s-.007.039-.026.039-.026-.032-.026-.039l.006-.031.008-.014m-.02.388.014-.058.005-.058.058.007-.013.116M19.8,1.007l.017-.023.019-.009c.058,0,.09.194.09.239s-.026.1-.09.1-.09-.045-.09-.1l.026-.134.029-.073m-.027,1.788-.014.008-.013-.026h.032m.023-.462.015.03c0,.019-.026.039-.045.039a.037.037,0,0,1-.039-.039.043.043,0,0,1,.039-.045l.03.015m-.042-1.243-.033.169a.109.109,0,0,0,.11.11c.077,0,.1-.052.1-.116s-.045-.3-.1-.3c-.014,0-.029.016-.042.041l-.035.094m.031,2.074.019.02a.181.181,0,0,1,.014.083v.045l-.068-.025c-.026-.01-.049-.023-.049-.04s.016-.034.035-.049l.049-.035M19.717,1.5l.032-.013c.026,0,.039.02.039.045s-.013.045-.039.045a.044.044,0,0,1-.045-.045l.013-.032m.025.374.023.008.01.012c0,.013-.039.045-.052.051l.058-.013.013.013-.02.058a.115.115,0,0,1,.052-.032c.019,0,.019.058.013.071.006-.007.032-.058.045-.058s.032.045.039.052V2.028s0-.052.013-.052a.153.153,0,0,1,.058.039l-.02-.065c0-.006,0-.013.013-.013l.058.013c-.013-.006-.052-.032-.052-.051s.058-.026.065-.026-.065-.007-.065-.026.039-.045.052-.052l-.058.006L19.975,1.8a.124.124,0,0,1,.02-.065.086.086,0,0,1-.058.039c-.019,0-.013-.058-.013-.071-.006.013-.026.058-.039.058s-.032-.045-.039-.058v.026c0,.02,0,.045-.019.045s-.039-.02-.052-.032a.087.087,0,0,1,.02.052c0,.013-.007.013-.02.013L19.717,1.8c.013.006.058.032.058.052s-.065.026-.071.026l.038.006m-.051-.161H19.7c.013-.007.02.006.02.019H19.71l-.019-.019m.017.3-.017.008h-.007l-.006-.006c0-.013.019-.02.032-.02l0,.018m.011.135,0,.028c0,.013-.006.045-.019.045s-.026-.032-.026-.045,0-.045.026-.045l.014.018m-.04.531V2.68h.032l-.032-.013V2.661l.039.007-.032-.02.007-.006h.026l-.026-.013.006-.007.032.007h.013c-.013,0-.032-.007-.032-.02V2.6l.045.006-.032-.019.039-.007c.065,0,.084.052.1.1a.254.254,0,0,1-.09.032l-.048-.011-.043-.021m-.013-.813.039-.021.044-.011c-.013-.013-.071-.039-.071-.058s.013-.013.019-.013l.084.019a.145.145,0,0,1-.039-.077l.006-.006V1.7c.02,0,.058.032.077.052L19.82,1.7l.006-.039c.032,0,.052.058.058.071.007-.007.032-.077.052-.077s.007.077.007.1c.019-.019.045-.052.071-.052l.006.02a.158.158,0,0,1-.026.071.125.125,0,0,1,.065-.019c.02,0,.026,0,.026.013a.086.086,0,0,1,.052-.02c.013,0,.039,0,.039.026s-.045.026-.052.026-.045-.006-.045-.019a.118.118,0,0,1-.065.045.161.161,0,0,1,.084.02l.045-.013c.013,0,.038.006.038.026s-.045.026-.058.026-.032,0-.039-.013a.185.185,0,0,1-.065.019c.013.006.065.039.065.058,0,0,0,.013-.026.013a.146.146,0,0,1-.071-.019.148.148,0,0,1,.039.077l-.013.013c-.026,0-.058-.032-.071-.052v.045c0,.007,0,.045-.007.045-.026,0-.045-.058-.052-.071-.006.013-.026.071-.051.071s-.007-.071-.007-.084a.137.137,0,0,1-.077.045l-.006-.013c0-.02.026-.052.039-.077l-.084.019-.013-.006h-.006c0-.02.058-.058.071-.065L19.7,1.894l-.037-.021m-.007.833.007-.007a.157.157,0,0,0,.206,0h.007v.007c0,.032-.09.058-.11.058a.182.182,0,0,1-.1-.039l.026.007-.032-.026M19.71.749l.041.017.017.041a.058.058,0,0,1-.058.058.064.064,0,0,1-.065-.058.056.056,0,0,1,.02-.041L19.71.749m-.025,1.569.012.027c0,.019-.019.045-.039.045a.055.055,0,0,1-.045-.045c0-.02.026-.039.045-.039l.027.012m0-.406-.005.015a.057.057,0,0,1-.04.011c-.013,0-.052-.006-.052-.026s.032-.026.045-.026l.031.008.021.018m-.006-.374-.017.011-.022,0a.07.07,0,0,1-.052-.013l-.006-.013.006-.013L19.62,1.5a.076.076,0,0,1,.052.022l.006.017m0,.187-.017.014-.022.005a.074.074,0,0,1-.052-.02v.032l-.006-.045.006-.006c.007-.013.026-.013.039-.013a.07.07,0,0,1,.046.017l.006.016m0,.29-.017.015-.022,0-.052-.013-.006-.013L19.587,2l.032-.007A.085.085,0,0,1,19.672,2l.006.015m-.091-.4L19.6,1.6l.016,0c.019,0,.058.007.058.026s-.039.02-.045.02l-.045-.007-.013-.019.013-.007m0-.374.031-.018.04-.008a.135.135,0,0,1,.065.026V1.2l-.039-.013-.052.013c-.026,0-.045-.013-.045-.039a.051.051,0,0,1,.052-.052.107.107,0,0,1,.1.052l.007-.045c-.026-.065-.1-.006-.1-.071,0-.013.02-.026.039-.026a.086.086,0,0,1,.071.052l.013-.026c-.013-.058-.078-.013-.078-.071A.028.028,0,0,1,19.71.949c.032,0,.052.026.071.052l.006-.026c-.013-.039-.052-.026-.052-.058L19.749.9c.032,0,.045.032.058.052.006-.013.013-.013.019-.013L19.82.885c0-.013.006-.026.019-.026s.019.007.019.026L19.846.93c.013.006.02.006.026.019C19.878.93,19.9.9,19.917.9L19.93.9l.006.019c0,.019-.039.013-.045.052l.006.032a.075.075,0,0,1,.065-.058c.013,0,.026.019.026.032,0,.032-.058.013-.078.058l.013.032c.02-.026.052-.058.084-.058a.042.042,0,0,1,.032.032c0,.045-.084.013-.1.065l.007.039a.112.112,0,0,1,.077-.039.058.058,0,0,1,.065.052.036.036,0,0,1-.032.039l-.078-.013-.026.006.007.045a.136.136,0,0,1,.065-.026.077.077,0,0,1,.077.071c0,.026-.013.039-.032.039s-.052-.039-.091-.039h-.032l-.007.026c.039,0,.1.026.1.058s-.045.065-.071.065-.032-.065-.071-.084l-.032.013a.061.061,0,0,1,.032.052.058.058,0,0,1-.058.058.053.053,0,0,1-.052-.058.054.054,0,0,1,.039-.058l-.032-.006c-.052.013-.045.084-.077.084s-.071-.039-.071-.058c0-.039.071-.065.1-.065l-.013-.026H19.7c-.052,0-.058.039-.1.039l-.02-.013a.036.036,0,0,1-.019-.032l.019-.038m0,.839h.02c.019,0,.058,0,.058.026s-.026.026-.039.026l-.039-.013a.029.029,0,0,1-.026-.02l.026-.02m0-.671.031.009c.011.006.021.014.021.023s-.039.02-.052.02-.045-.007-.045-.032l.018-.014.027,0m0-.381.018.007.008.012c0,.013-.019.019-.026.026h-.019c-.013,0-.052-.007-.052-.026s.013-.023.028-.024l.043,0m0-.1L19.6.938l0,.012-.013.026h-.026c-.013,0-.051-.007-.051-.032s.026-.019.038-.019l.039.007m0-.09L19.6.859l-.013.007-.032.006c-.02,0-.058-.006-.058-.026s.026-.019.038-.019l.026,0,.026.011m-.006,1.5-.013.03-.032.015c-.019,0-.038-.026-.038-.045a.041.041,0,0,1,.038-.039l.032.012.013.027m0-1.589-.014.02-.024.006c-.02,0-.058-.007-.058-.032s.032-.019.038-.019a.1.1,0,0,1,.052.014l.006.012m-.11,1.337,0,.038-.011.033c-.007,0-.007-.065-.007-.071s0-.071.007-.071l.011.033,0,.038m.01-.24.009.021a.03.03,0,0,1-.032.032.029.029,0,0,1-.026-.032c0-.013.013-.032.026-.032l.023.011m.106.008.013.006h-.013c-.019.007-.032.013-.032.032a.066.066,0,0,0,.032.051l.013.007h-.013c-.019.006-.039.019-.039.032a.075.075,0,0,0,.039.058l.007.006h-.007c-.019.007-.052.007-.052.039s.026.039.039.045c-.019.013-.045.026-.045.045a.039.039,0,0,0,.019.039.1.1,0,0,1,.039-.052l.026-.007.026.013c0,.026-.039.052-.052.065v.013l.02.006c.032,0,.039-.026.045-.045a.063.063,0,0,0,.052.045c.026,0,.039-.019.045-.045,0,.026.02.052.039.052s.045-.026.052-.052c.013.019.026.052.058.052s.039-.032.039-.052A.076.076,0,0,0,20,2.273a.067.067,0,0,0,.045-.032c.007.019.02.058.045.058a.048.048,0,0,0,.045-.039c.007.02.02.039.039.039a.043.043,0,0,0,.039-.045c0-.032-.039-.039-.065-.032.013-.026.071-.026.071-.058s-.039-.039-.071-.039c.019-.026.071-.026.071-.065s-.058-.032-.077-.032c.019,0,.071-.032.071-.058s-.052-.039-.071-.039c.019-.013.071-.032.071-.058s-.02-.039-.045-.039a.063.063,0,0,0,.045-.058c0-.026-.032-.039-.052-.039.013-.013.045-.032.045-.058s-.026-.032-.045-.032a.082.082,0,0,0,.045-.065c0-.019-.045-.032-.058-.039.019-.006.052-.026.052-.052s-.039-.039-.052-.039c.013-.013.052-.032.052-.065s-.039-.032-.052-.032a.074.074,0,0,0,.039-.058c0-.026-.045-.039-.065-.039a.086.086,0,0,0,.039-.058c0-.026-.039-.032-.052-.039a.063.063,0,0,0,.045-.052c0-.032-.045-.039-.071-.039.02-.013.045-.032.045-.058s-.045-.032-.065-.039c.019-.007.052-.039.052-.058s-.026-.032-.039-.032L20.1.853l.052.013a6.663,6.663,0,0,1,.1,1c0,.161,0,.336-.013.5a2.064,2.064,0,0,0-.53-.077h-.123l-.1.013a2.667,2.667,0,0,0,.038-.452V1.8a6.4,6.4,0,0,0-.11-1.1L19.5.7l-.036.015-.015.013-.006.017c0,.039.032.045.058.052-.019.006-.052.026-.052.045S19.5.9,19.523.9c-.019.007-.058.026-.058.045s.045.045.065.052c-.013.006-.045.019-.045.039s.038.052.058.052a.071.071,0,0,0-.045.052c0,.026.038.039.058.045-.02.007-.058.02-.058.052s.038.039.064.045c-.019.007-.051.026-.051.045s.038.052.051.058c-.013.006-.039.026-.039.045s.039.039.052.045c-.013.013-.052.032-.052.052s.039.045.058.052c-.02,0-.045.019-.045.038s.026.045.052.052l.007.007h-.007c-.026.006-.045.013-.045.039l.013.033.032.019h.007l-.007.007c-.019,0-.045.019-.045.032l.015.032.03.027-.006-.052.006-.007.039-.006c.013,0,.052.006.052.026s-.032.019-.039.019a.054.054,0,0,1-.052-.019V1.86m-.174,1.5,0-.02,0-.025a.788.788,0,0,1,.174-.007l.213.032.161.039a.628.628,0,0,0,.187.052h.013a.166.166,0,0,0,.187-.181.2.2,0,0,1,.039.09l-.007.065a.339.339,0,0,0,.123-.291.205.205,0,0,1,.052.129.249.249,0,0,1-.084.168l.1-.019.007.006-.057.055a.341.341,0,0,1-.214.068,1.423,1.423,0,0,1-.394-.1,1.369,1.369,0,0,0-.323-.071l-.032-.006-.076,0-.066.014m.058-1.6-.038.059-.014.064a.218.218,0,0,0,.032.11.146.146,0,0,1-.045-.116.133.133,0,0,1,.035-.094l.029-.023m.006-.368-.008.023-.018.009-.032-.013a.246.246,0,0,0,.058.116.158.158,0,0,1-.078-.136.128.128,0,0,1,.045-.1.167.167,0,0,0-.026.1c0-.013.013-.02.032-.02l.015.008.01.018m-.085.939.027-.009a.032.032,0,0,1,0,.065.036.036,0,0,1-.039-.032l.012-.023M19.4.859l.018.009.008.024A.028.028,0,0,1,19.4.917a.029.029,0,0,1-.032-.026l.009-.024L19.4.859m-.006,1.414.02.008.006.018v.007L19.413,2.3c-.019,0-.039.013-.039.026L19.362,2.3l.009-.018.024-.008m0-.081.041-.015a.229.229,0,0,0-.1.174l-.007-.058a.11.11,0,0,1,.03-.075l.033-.026M19.381,3l-.045.029a.125.125,0,0,1,.123-.11A.164.164,0,0,1,19.587,3a.138.138,0,0,1,.02.077.19.19,0,0,1-.02.091.417.417,0,0,1-.084.123l-.09.019a.079.079,0,0,0-.039-.065c.071-.019.155-.051.155-.129a.111.111,0,0,0-.1-.123L19.381,3M19.4,1.008,19.345.949a.148.148,0,0,1-.022-.077.144.144,0,0,1,.039-.1A.146.146,0,0,1,19.342.7V.685a.153.153,0,0,1,.032.084l-.006.02L19.362.782a.154.154,0,0,0-.019.077.234.234,0,0,0,.032.119l.026.03m-.013.607-.014.06-.038.05a.169.169,0,0,0,.032-.11.2.2,0,0,0-.045-.123l.047.052.018.071m-.043-.491.018.071a.161.161,0,0,1-.052.116.187.187,0,0,0,.032-.116.171.171,0,0,0-.045-.123l.047.052m-.021.458.018.009.008.023c0,.013-.013.032-.026.032s-.026-.02-.026-.032l.006-.021.02-.011m-.02.123.011.031,0,.04c0,.007,0,.065-.013.065l-.013-.065.013-.071m.007.645.029.008.01.018c0,.026-.013.032-.039.032a.03.03,0,0,1-.032-.032l.011-.018.021-.008M19.277,3.4l.017-.054a.047.047,0,0,1,.041-.03.055.055,0,0,1,.045.026.1.1,0,0,1-.047.036l-.057.022M19.3,1.421l0,.038-.009.033c-.013,0-.019-.065-.019-.071s.006-.071.019-.071l.009.033,0,.038m.017.568.015.071a.177.177,0,0,1-.045.116.2.2,0,0,0,.032-.116.177.177,0,0,0-.052-.123l.029.023.02.029m0-.815.009.021a.035.035,0,0,1-.032.032.042.042,0,0,1-.032-.032.041.041,0,0,1,.032-.032l.023.011M19.3,2.06l-.006.021-.02.011c-.013,0-.026-.019-.026-.032a.03.03,0,0,1,.026-.032l.02.009.006.023m.049-1.025.051.058a.134.134,0,0,1,.023.076c0,.084-.058.148-.058.22s.084.142.084.232-.1.155-.1.252c0,.071.058.129.058.206s-.1.142-.142.207c.026-.058.11-.148.11-.2,0-.077-.052-.136-.052-.213,0-.11.1-.162.1-.252s-.084-.135-.084-.232c0-.077.058-.135.058-.213,0-.116-.149-.123-.149-.284,0-.058.045-.1.032-.155a.059.059,0,0,1,.02.045c0,.039-.02.071-.02.11A.152.152,0,0,0,19.3.975l.051.06m-.126,1.651.007-.019a.178.178,0,0,0,.1-.194,1.024,1.024,0,0,0,.252.065l.162.013v.013a.124.124,0,0,0-.09.116.034.034,0,0,0-.02.026c0,.039.071.071.1.071,0,.02.007.039.026.039s.032-.019.032-.039c.032,0,.1-.032.1-.071a.028.028,0,0,0-.026-.026.123.123,0,0,0-.1-.116V2.557a1.443,1.443,0,0,0,.239,0V2.57l-.018.1c-.033.107-.1.224-.131.331l-.026-.013c-.039,0-.065.052-.065.084l.02.039c-.052.013-.116.065-.116.123,0,.032.026.045.045.058l-.136-.006h-.065l.065-.071a.224.224,0,0,0,.052-.142.179.179,0,0,0-.052-.135.19.19,0,0,0-.129-.052c-.1,0-.129.071-.129.155v.032a.1.1,0,0,1,.091-.052A.075.075,0,0,1,19.5,3.1c0,.065-.077.11-.123.129V3.223c0-.039-.077-.058-.11-.065a.679.679,0,0,1-.045-.278l0-.1.008-.1m0-1.885-.006.026a.141.141,0,0,1-.026-.084V.723l.023.039L19.226.8m0,1.446.007.02c0,.019-.013.1-.032.1s-.013-.013-.013-.02a.275.275,0,0,1,.024-.09l.014-.014m.007.141.012.021a.036.036,0,0,1-.039.032.031.031,0,0,1-.032-.032.035.035,0,0,1,.032-.032l.026.011m-.117,1.048.023-.036a.059.059,0,0,1,.042-.022.223.223,0,0,1,.071.032l-.135.026m-.078-2.053,0-.021-.023-.011-.007.006.013.045-.013.058.024-.034m.048-.664L19.045.749,18.98.64l.039.019m-.052,2.706h-.019l.006-.052c.1,0,.271-.013.323-.123.02.006.058.019.058.038,0,.083-.167.118-.281.13l-.088.006M18.974,1.3l-.006-.033c0-.01-.011-.019-.02-.019l-.013.007-.007.006c0,.013.026.026.026.052a.526.526,0,0,1-.026.1l.032-.05.013-.06m-.018,2.149-.034-.011c.013-.039.026-.039.071-.039a.076.076,0,0,1,.071.052H19l-.044,0m.037-2.7L18.942.73l-.084-.1.071.006M18.792.54l.01.021,0,.021-.013.006a.053.053,0,0,1-.045-.065l.013-.006.02.007.017.016m-.05.1.071-.013.077.1L18.826.73m-.09.019L18.651.672,18.7.646l.084.09M18.58.71l.039-.026L18.7.769l-.039.02m-.041-.3.028-.006a.084.084,0,0,1,.084.071.079.079,0,0,1-.084.071.073.073,0,0,1-.077-.071.068.068,0,0,1,.024-.05L18.616.49m.039,1.276.069-.043a.414.414,0,0,0,.1-.122.551.551,0,0,0-.071.058.654.654,0,0,1-.187.1l-.006-.032.013-.045c.09-.045.155-.2.2-.194h.013a.39.39,0,0,1,.174.22c.039-.077.116-.1.142-.187a1.34,1.34,0,0,0,.058-.278l.09-.129.013.362v.032l-.083.128a1.254,1.254,0,0,1-.323.337.551.551,0,0,1-.239.1c-.026,0-.058-.007-.058-.039a.1.1,0,0,1,.026-.052.349.349,0,0,0,.336-.239.494.494,0,0,1-.336.206H18.58V1.937a.079.079,0,0,1,.02-.058c.136-.013.245-.045.3-.174-.039.077-.232.135-.317.155a.043.043,0,0,1-.026-.032.065.065,0,0,1,.026-.045l.076-.017M18.587.833,18.522.762l.026-.026.077.071M18.6.465l-.015.02-.03.006c-.013,0-.045-.007-.045-.026s.032-.026.045-.026l.03.006.015.02m-.1.323.071.071c-.019.013-.032.032-.051.039L18.464.82,18.5.788M18.49.594l.05.014a.053.053,0,0,1,.021.043A.066.066,0,0,1,18.49.71a.064.064,0,0,1-.065-.058.053.053,0,0,1,.02-.043L18.49.594M18.483.93l-.052.032L18.4.859A.044.044,0,0,0,18.432.84l.052.09m-.09,2.441.005-.044-.005-.039a.4.4,0,0,0,.271.135c.058,0,.155-.019.155-.1a.123.123,0,0,0-.026-.077c.058,0,.129.026.129.1,0,.116-.135.168-.232.168a.346.346,0,0,1-.229-.082l-.068-.054m.026-2.65.014.014.005.021a.059.059,0,0,1-.117,0c0-.032.032-.045.058-.045l.039.011M18.4.975,18.354,1,18.315.9,18.36.879M18.322.465l.036.005c.037.009.074.034.074.072s-.065.077-.11.077-.1-.026-.1-.077a.079.079,0,0,1,.071-.073l.032,0m0,.542-.071.006-.032-.1L18.283.9m.026-.071,0,.02a.05.05,0,0,1-.047.025.044.044,0,0,1-.045-.045c0-.02.026-.039.045-.039L18.293.8l.016.027M18.287,3.05l-.075-.021a.079.079,0,0,1,.155.019v.013l-.08-.011M18.2.464,18.18.446c0-.02.032-.032.045-.032s.039.013.039.032-.026.026-.039.026L18.2.464m-.018,2.6.09.021.09.011c.032,0,.078-.007.078-.045a.245.245,0,0,0-.026-.084.044.044,0,0,0,.026-.045.137.137,0,0,0-.02-.077h-.045l.015-.06c.047-.122.172-.124.3-.147l.077-.019a2.609,2.609,0,0,0,.084.607h-.02a.244.244,0,0,0-.1.013c.039.013.071.032.071.071,0,.065-.1.084-.142.084-.129,0-.2-.09-.29-.168a.255.255,0,0,0-.162-.142l-.032-.02m.006-1.892-.013-.006.013-.013.02.013m-.071,2.312.057-.029a.063.063,0,0,0,.027-.049.059.059,0,0,0-.026-.052.118.118,0,0,0,.084-.123.15.15,0,0,0-.026-.09.239.239,0,0,1,.116.207c0,.092-.077.118-.155.129l-.077.007m.077-2.454h-.065L18.122.93,18.18.917m-.071.245.014-.023a.24.24,0,0,1,.089-.023l-.1.045m.065-.568V.614c-.006.039.039.071.077.071a.116.116,0,0,0,.058-.026c.007.052-.058.09-.1.09s-.1-.032-.1-.077a.074.074,0,0,1,.021-.051l.05-.026M18.16.872l-.014.02L18.122.9c-.019,0-.045-.006-.045-.026S18.1.84,18.122.84l.024.009.014.023M18.169.5l0,.022a.05.05,0,0,1-.052.045c-.026,0-.058-.019-.058-.045a.056.056,0,0,1,.058-.052l.036.014L18.169.5m.017.713.028-.013,0-.032c.038-.013.071-.039.064-.077V1.079c-.019.032-.064.02-.1.02-.052,0-.123.039-.123.1l.019-.013.032.013.026-.007.045.013m-.1-.271.019.09-.058.007L18.025.943m0,1.2L18.018,2.1l.032.065m-.039.807.013-.024a.087.087,0,0,1,.071-.027A.068.068,0,0,1,18.173,3v.026l-.162-.052M18,2.693l.029-.066c.163-.309.571-.317.559-.528l.052.006a.573.573,0,0,0,.284-.129,1.125,1.125,0,0,0,.342-.458,3.437,3.437,0,0,1-.155.988,1.013,1.013,0,0,1,.478-.11h.052l.11.006-.026.11-.136-.006-.252-.039-.007-.026v.032c0,.045-.058.168-.123.174l-.007.013a.318.318,0,0,1-.116.052.667.667,0,0,0,.11-.019l-.006.058-.116.039.116-.013-.007.039a.235.235,0,0,1-.1.045l.11-.006v.032a.492.492,0,0,1-.11.045l.11-.013v.032a.216.216,0,0,1-.11.052h.02a.259.259,0,0,0,.1-.02l.006.026a.267.267,0,0,1-.123.058.291.291,0,0,0,.129-.026,1.053,1.053,0,0,0,.058.123.4.4,0,0,1-.323.116.1.1,0,0,0-.084-.058c-.078-.226-.006-.472-.09-.723a1.183,1.183,0,0,1-.077-.284v.019a1.086,1.086,0,0,0,.058.317l-.013.006a.152.152,0,0,1-.045-.09V2.48a.169.169,0,0,0,.032.11l-.026.019a.184.184,0,0,1-.071-.129v.032a.2.2,0,0,0,.039.1h-.026L18.6,2.591a.164.164,0,0,1-.055-.117v.02a.186.186,0,0,0,.045.129.269.269,0,0,0-.123.032.158.158,0,0,1-.077-.135l-.006.026a.184.184,0,0,0,.058.123l-.019.013c-.058-.013-.084-.084-.1-.135A.2.2,0,0,0,18.4,2.7a.215.215,0,0,0-.039.142.651.651,0,0,1-.288-.081L18,2.693M17.989.572l.036-.01a.039.039,0,1,1,0,.077C18,.64,17.973.627,17.973.6l.016-.029M18,.866l.02.009L18.025.9c0,.007-.006.02-.026.02A.029.029,0,0,1,17.973.9l.008-.023L18,.866m.026-.149-.006.019c0,.045.039.058.077.058l.039-.006c-.006.039-.052.052-.084.052S17.96.827,17.96.782a.053.053,0,0,1,.02-.04l.044-.025M18,2.745l.046.035a.615.615,0,0,0,.352.094l.006.039c0,.026-.013.026-.039.026-.116,0-.387-.077-.42-.2,0-.013.007-.032.02-.032L18,2.745m-.016-1.8.026.09-.065.013L17.928.969m.058-.278-.01.023-.029.009c-.013,0-.039-.013-.039-.032s.026-.032.039-.032l.029.009.01.024M17.879.9,17.9.9a.024.024,0,0,1,.026.026A.028.028,0,0,1,17.9.949.029.029,0,0,1,17.87.924L17.879.9m-.015.86h-.006l.019-.006m-.019,1.117.024-.034.034-.024a.1.1,0,0,1,.065.084l-.013.052-.06-.034-.05-.043M17.883.736,17.9.744l.008.018a.024.024,0,0,1-.026.026c-.013,0-.032-.007-.032-.026l.011-.018.021-.008m-.013.4-.02-.013a.021.021,0,0,1,.02-.02c.006,0,.013.007.013.02l-.013.013m.019-.162.019.084-.051.019L17.837,1M17.832.815l.006.012c0,.019-.006.032-.026.032a.029.029,0,0,1-.026-.032.029.029,0,0,1,.026-.02l.02.007m0,.121.009.02c0,.02-.013.026-.032.026a.024.024,0,0,1-.026-.026A.023.023,0,0,1,17.805.93l.023.006m0,.156-.045.02-.02-.071.039-.026M17.741.879l.023,0L17.773.9a.031.031,0,0,1-.032.032A.03.03,0,0,1,17.715.9l.008-.014.018,0m0,.3.008.015c0,.013-.013.013-.026.013s-.013,0-.013-.013.006-.02.013-.02l.018,0m.008-.043-.031.014-.027.019-.006-.077.045-.032m.006-.045-.008.018-.018.008a.03.03,0,0,1-.032-.026.031.031,0,0,1,.032-.032l.018.009.008.024m-.1.194-.019-.02c.006-.032.006-.052.032-.065l.007.065-.02.02m-.031,2,.012-.032.039-.019a.69.69,0,0,1,.336-.11c.1,0,.252.039.252.168a.115.115,0,0,1-.116.116.348.348,0,0,1-.1-.026.1.1,0,0,0,.1-.1c0-.077-.09-.09-.149-.09a.57.57,0,0,0-.316.1l-.065.039-.013-.02.026-.026M17.6,1.317l-.051-.006a.242.242,0,0,1,.058-.09l-.007.1m-.013.271-.071-.006a2.18,2.18,0,0,0,.09-.22l.019.006a.03.03,0,0,0,.032-.019V1.272l-.02-.065.02-.006.045-.032L17.7,1.2c0,.019.026.039.045.039a.042.042,0,0,0,.006-.084l.1-.045-.006.013a.043.043,0,0,0,.039.045c.026,0,.038-.019.038-.045L17.9,1.092A4.731,4.731,0,0,0,18.412,1c.206-.1.174-.226.471-.252l.006.02A.03.03,0,0,1,18.871.8a.506.506,0,0,1,.142-.013.225.225,0,0,1,.22.213l-.007.071a.163.163,0,0,0-.084-.065C19.136.924,19.084.82,18.987.82c-.187,0-.071.2-.226.317.052-.013.09-.1.1-.149a.15.15,0,0,1,.1.09.153.153,0,0,0-.084-.129L18.89.917a.414.414,0,0,1,.11.1.457.457,0,0,0-.077-.129l.032-.02a.325.325,0,0,1,.084.1.544.544,0,0,0-.045-.11s.129.077.129.161a.1.1,0,0,1,.09.065.344.344,0,0,1-.084.142V1.24a1.073,1.073,0,0,1-.052.258c-.026.077-.09.123-.11.193C18.9,1.434,18.7,1.5,18.7,1.221a.491.491,0,0,1,.019-.135.447.447,0,0,0-.052.181.283.283,0,0,0,.045.142.317.317,0,0,1-.071.181l.006-.051V1.5l-.026.11c-.019.013-.032.032-.058.039l.019-.077-.045.09-.039.02.013-.071a.19.19,0,0,1-.039.071l-.032.006.006-.045V1.621a.132.132,0,0,1-.026.071L18.38,1.7l.013-.077L18.36,1.7l-.032-.007.019-.077-.039.077-.039-.006a.326.326,0,0,0,.02-.084.2.2,0,0,1-.039.084H18.2a.31.31,0,0,0,.032-.11.2.2,0,0,1-.058.11h-.019a.342.342,0,0,0-.22.123c0-.045.129-.175.129-.31l-.007-.039a.9.9,0,0,1-.4.123l-.071.006m-.123.117.1.027.1.018.181.013v.013l-.084.11a.143.143,0,0,1-.071-.032.13.13,0,0,0,.058.045l-.02.032a.109.109,0,0,1-.065-.02l.052.039-.02.026-.032-.013-.039-.013.039.026.026.013-.013.039h-.013a.085.085,0,0,1-.065-.019.136.136,0,0,0,.065.039h.006l-.006.032V2.06l-.007.026a.115.115,0,0,1-.065-.026.148.148,0,0,0,.065.045v.02a.152.152,0,0,1-.077,0,.127.127,0,0,0,.071.013v.026l.006.052a.223.223,0,0,1-.071.019H17.6a.056.056,0,0,0,.045-.006l.007.013.013.019-.052.052c.013-.006.032-.013.039-.026l.026-.013.032.013a.142.142,0,0,1-.045.058.116.116,0,0,0,.058-.052l.026.006.058-.013a.043.043,0,0,1,.026.032l-.006-.039.013-.007.026.026-.013-.039.013-.006.013.032-.007-.032.071-.058a.035.035,0,0,0,.02.026l-.02-.045c0-.019.013-.1.032-.11l.019.02c.007.065.039.116.11.116.013,0,.058,0,.058.013-.007.071-.181.11-.239.123h.052a.319.319,0,0,1-.258.149l-.065-.013c-.2-.045-.258-.239-.258-.433l.02-.17.044-.165M17.445,1.6l.068.017.078.008h.065a1,1,0,0,0,.329-.084l.02.045c0,.052-.058.1-.078.142h-.045l-.013-.032v.032h-.039l-.013-.039-.007.039h-.065l-.013-.039-.006.039h-.039l-.013-.045v.039h-.019l-.032-.007a.078.078,0,0,1-.013-.052.073.073,0,0,0,0,.052L17.573,1.7a.074.074,0,0,1-.02-.052.055.055,0,0,0,0,.045c-.045-.006-.207-.071-.213-.116l.049,0,.057.016m.043,1.694.026-.021.013-.026a.868.868,0,0,1-.284.1h.026a.662.662,0,0,0,.141-.02l.078-.03m-.08.081-.061.007a.406.406,0,0,1-.194-.045.528.528,0,0,0,.387-.245.108.108,0,0,1,.058.084.08.08,0,0,1-.026.052c-.007-.013-.026-.02-.039-.026a.071.071,0,0,1,.032.065c0,.042-.039.071-.086.089l-.072.02m.036-.342-.078.089a.385.385,0,0,1-.245.144l.019.006a.4.4,0,0,0,.293-.2l.011-.042m-.362.3V3.294a.216.216,0,0,0,.039-.065.4.4,0,0,0,.271-.387c.026.019.078.09.071.129a.324.324,0,0,0,.11-.065.431.431,0,0,1-.226.33l-.13.05-.135.04m.032-1.04-.083.046-.072.051a.109.109,0,0,0-.026-.071.457.457,0,0,1,.129-.026h.052m-.054-.137-.053.045a.321.321,0,0,0-.074.112l-.039-.045a.986.986,0,0,1,.116-.116.7.7,0,0,0-.129.1l.026-.071a.29.29,0,0,1,.175-.065h.039l-.06.037m-.012-.3-.074.123a2.314,2.314,0,0,0-.112.263l-.032-.019A1.651,1.651,0,0,1,16.92,2a1.214,1.214,0,0,0-.11.2l-.032-.013.084-.22s.161-.207.278-.232l-.092.111m-.315.594.028.035.037.03.026-.026-.048-.015m-.069-.134.084.026-.026.026M16.7,1.04l.006-.019.032.019m0,1.46L16.7,2.474c.006.026.039.045.065.065l.02-.026L16.738,2.5m-.037.2.084-.09a.757.757,0,0,1,.174-.019.273.273,0,0,1,.162.039h-.026a.491.491,0,0,0-.31.11l-.042-.024L16.7,2.7m-.013.588.013-.071a.361.361,0,0,0,.149.045c.11,0,.168-.1.213-.181a.173.173,0,0,1,.02.1.129.129,0,0,1-.045.1.147.147,0,0,1,.019.071l-.006.056-.02.037L17.021,3.4a.173.173,0,0,0-.123-.078l-.21-.035m.1-1.057.065.039a.165.165,0,0,1,.071.113.05.05,0,0,1-.052.045A.184.184,0,0,1,16.8,2.4l.071-.084H16.83a.148.148,0,0,1-.149-.077c.007-.026.026-.026.045-.026l.064.015M16.733,1.15,16.7,1.145l-.03-.014.007-.019a.09.09,0,0,1,.1-.026l.019-.032L16.746.995a.149.149,0,0,1,.078-.039.16.16,0,0,1,.026.078.116.116,0,0,1-.071.107l-.046.009m-.065.8V1.737a2.848,2.848,0,0,1,.291-.484,3.324,3.324,0,0,0-.291.426V1.557a1.125,1.125,0,0,1,.472-.478,2.719,2.719,0,0,0-.388.628l-.084.243m0,.194v-.11a2.257,2.257,0,0,1,.175-.355.787.787,0,0,1,.317-.316,3.553,3.553,0,0,0-.4.82l-.026-.007-.052.013a4.637,4.637,0,0,1,.291-.594l-.159.27-.145.279m.078.407-.078-.039.058.065M16.667.945l.066-.027L16.707.885A.148.148,0,0,0,16.63,1l.014-.033.023-.023m-.037,1.6.025.035.039.03.026-.026-.048-.017M16.694.872,16.668.84a.165.165,0,0,0-.077.116A.1.1,0,0,1,16.628.9l.066-.03M16.655.827,16.636.795a.144.144,0,0,0-.078.116.081.081,0,0,1,.034-.054l.063-.03m-.1-.013.06-.032L16.6.756a.148.148,0,0,0-.078.11l.036-.052m.022-.078L16.559.71a.148.148,0,0,0-.077.117A.12.12,0,0,1,16.517.77l.061-.033M16.546.691,16.52.672a.13.13,0,0,0-.077.11A.105.105,0,0,1,16.48.727l.066-.036m-.116,2.3-.018-.044a.124.124,0,0,0-.1-.079l-.019.006c0,.014.06.043.1.079l.038.037M16.4,2.4l-.038.029-.027.035-.071.007a.455.455,0,0,0,.084-.11l.065-.013.071.013L16.4,2.4m-.129.565.04.03.037.038c-.006-.039-.045-.116-.09-.116H16.21l.058.049m-.123-1.121.056-.008.06,0a.056.056,0,0,0,.045,0l.007.013-.168-.007M16.262.652,16.249.64l-.135.1.013.013m-.032,1.86.077-.057.072-.066.09-.007a.3.3,0,0,1,.22.071l-.1-.013a.775.775,0,0,0-.183.026l-.178.045M16.241.508,16.223.5a2.193,2.193,0,0,0-.168.174l.006.013c.013-.013.187-.135.187-.161L16.241.508m-.218,2.5h-.006c0,.026.058.045.077.058l.052.058a.131.131,0,0,0-.079-.109l-.044-.007m.045-1.763.019-.062a.064.064,0,0,1,.058-.028l.026.007a.214.214,0,0,0-.052.129.135.135,0,0,0-.1.071A.074.074,0,0,1,16,1.311a.05.05,0,0,1,.026-.042l.045-.023M16,1.957,16,1.944l.032.006a.072.072,0,0,0,.065-.077c.007-.013.02-.013.039-.013h.174v.051l-.1.007.1.019v.02H16m.1-1.472-.02-.006-.1.11L16,.6m.039.588-.01.03L16,1.234c-.019,0-.038-.026-.038-.045A.043.043,0,0,1,16,1.143l.029.013.01.032m.02,1.97-.013-.04a.127.127,0,0,0-.1-.076H15.92l.058.048.078.068m.1-2.964L16.147.179l-.014-.01A3.048,3.048,0,0,0,15.9.543l.013.006.122-.177.117-.178m-.33,1.9.007-.019a.345.345,0,0,0,.148-.1h.329l-.013.052-.11.013.11.013-.013.039h-.459M15.894.362,15.881.349,15.81.485,15.835.5m.24,2.893.089-.013a.358.358,0,0,0-.181-.045l-.1.007c.006.071-.065.116-.117.148l.2-.067.109-.03m-.189-.859-.1.013.065.006-.058.026a.3.3,0,0,0-.045-.077h.213l-.078.032M15.732.465V.459L15.8.3c0-.019-.02-.026-.032-.026s-.039.1-.039.116l-.02.071.02.007m-.039,1.75V2.17c.006-.02.013-.032.039-.032l.013.007c.013-.045.065-.02.071-.039h.458l-.013.032-.116.02.11.013-.026.045h-.536m-.007.523H15.68a.106.106,0,0,0,.013-.065l-.007-.039.045-.006a.773.773,0,0,0,.613-.743c0-.136-.09-.491-.271-.491l-.039.013a.124.124,0,0,1,.117-.091c0-.077.013-.135.1-.168l-.007.052c0,.232.194.336.194.685a.854.854,0,0,1-.71.846l-.045.006m.536-.51-.026.045-.123.013.1.013-.032.045H15.68l-.007-.02c0-.013.026-.026.026-.058V2.228h.523m-.51.88-.02-.029-.032-.012a.293.293,0,0,1,.052.194.191.191,0,0,0,.013-.084l-.013-.07M15.674,2.6l-.019-.02.019-.058L15.7,2.48l.032.032a.13.13,0,0,1,.039.071l-.039.007-.058.013M15.655.291h-.026l-.013.142.02.006m.026,2.235-.02.057a.061.061,0,0,1-.044.033c-.013,0-.013-.013-.02-.019a.143.143,0,0,0,.032-.077.167.167,0,0,0-.026-.065H15.6a.052.052,0,0,1,.043.023l.014.048M15.564,0l-.02.009-.006.024.013.413h.026l.007-.407,0-.026m0,1.378.006.011c0,.013-.007.02-.032.02a.017.017,0,0,1-.019-.02c0-.013.013-.013.026-.013l.02,0m-.012,1.729-.014-.045a.229.229,0,0,0-.019.091.877.877,0,0,0,.019.135.84.84,0,0,0,.02-.135l-.005-.045m.022-1.686.015.02c-.006.02-.019.02-.052.02s-.045-.013-.039-.026.02-.02.045-.02l.03.006m-.031,1.292-.021.023-.024.01-.026-.013a.1.1,0,0,0,.026-.071l-.006-.045c0-.013.013-.02.026-.02s.045.039.045.058l-.02.057M15.467,1.5l.018-.017a.38.38,0,0,1,.1,0c.02,0,.045.006.052.019s-.006.026-.026.026a.436.436,0,0,1-.127-.008L15.467,1.5m0-1.214h-.026l.026.148.019-.006m.065,1.111.09-.006a.048.048,0,0,1,.039.039.034.034,0,0,1-.039.038h-.174c-.02,0-.032,0-.032-.032s.013-.045.039-.045l.078.006M15.474,2.6,15.4,2.59h.1m-.123.588.013.084V3.255a.265.265,0,0,1,.045-.187c-.023,0-.037.018-.046.04l-.012.07M15.4,1.651l.052-.023a1.069,1.069,0,0,0,.207,0,.107.107,0,0,1,.071.045.161.161,0,0,1,.019.084l-.019.1a.494.494,0,0,1-.1.129c-.052.065-.052.187-.09.22a.148.148,0,0,1-.02-.071c0-.129.1-.194.1-.278,0-.013,0-.045-.02-.045a.017.017,0,0,0-.019.02l.006.045c0,.084-.11.181-.077.33a.122.122,0,0,1-.045-.071c-.02-.052-.013-.123-.039-.162a.369.369,0,0,1-.1-.193.15.15,0,0,1,.032-.1l.038-.032m-.023-.006-.042.035a.18.18,0,0,0-.032.116c0,.129.1.155.116.245.013.058.026.155.09.175l.026.032c.077-.051.071-.168.155-.258l.039-.058a.262.262,0,0,0,.039-.161.176.176,0,0,0-.039-.123.157.157,0,0,0-.058-.026.05.05,0,0,0,.02-.045c0-.026-.026-.039-.045-.045l.007-.026c0-.019-.032-.032-.052-.032l.013-.02a.028.028,0,0,0-.026-.026l.007-.019a.043.043,0,0,0-.045-.039c-.026,0-.045.02-.032.058-.013,0-.02.013-.02.026l.007.02c-.02.006-.039.006-.045.026V1.5l.007.026c-.032.007-.045.02-.045.052a.039.039,0,0,0,.019.039l-.062.024M15.363.36,15.342.3,15.319.272c-.013,0-.019.013-.019.026l.071.168.013-.007-.02-.1M15.215.349,15.2.362,15.261.5,15.28.485m0,.6.086-.024a.916.916,0,0,1,.182-.017,1.648,1.648,0,0,1,.181,0,.725.725,0,0,1,.226.077.079.079,0,0,0-.032.065l.007.032a.549.549,0,0,0-.2-.058l-.181-.02a.681.681,0,0,0-.323.077l.007-.032a.079.079,0,0,0-.032-.065l.081-.037m-.035,1.438L15.2,2.5h.284a.055.055,0,0,0,.045.013c.052,0,.006-.058.09-.045,0-.1.071-.02.064-.1h.439l-.039.039-.129.013.1.02-.071.045h-.258V2.474l-.045-.032-.058.129c-.084.007-.187,0-.271,0l-.052-.019.071-.006-.129-.02M15.2,1.189l-.012.03-.027.015a.043.043,0,0,1-.039-.045c0-.026.013-.045.039-.045l.027.013.012.032M15.067.833l.09-.116a.549.549,0,0,1,.394-.174.565.565,0,0,1,.181.032.617.617,0,0,1,.3.284,2.235,2.235,0,0,1-.3.039h-.181a1.77,1.77,0,0,1-.366-.033L15.067.833m.058,2.257.058-.048h-.02a.137.137,0,0,0-.116.116l.078-.068M15.08,2.4l-.025-.017-.02-.022H15.4c.007.013.032.039.032.058a.056.056,0,0,0,.032.058h-.3l-.065-.045.091-.013L15.08,2.4M15.022.478,15,.485,15.1.6l.019-.013m-.032.659.054.023a.049.049,0,0,1,.03.042.08.08,0,0,1-.026.052.136.136,0,0,0-.1-.071.212.212,0,0,0-.051-.129l.026-.007a.064.064,0,0,1,.068.057l0,.033m0,1.763H15.08a.132.132,0,0,0-.129.116c.019-.019.032-.045.058-.058l.068-.04.009-.018m0-2.661L15.009.224,14.964.168a.034.034,0,0,0-.02.026c0,.019.22.323.239.355L15.2.543,15.085.348m.24,1.88.013.026v.013l-.013.006.071.071h-.375L14.983,2.3l.1-.013-.123-.013c-.007-.019-.02-.026-.02-.045h.381M15.138,3.42l.2.067c-.051-.032-.123-.077-.116-.148l-.1-.007a.34.34,0,0,0-.181.045l.09.013.11.03m.157-1.26.024.055h-.387l-.026-.045.1-.013-.1-.02-.013-.032h.375m-.394-.4.032-.079c.041-.09.1-.2.187-.2.032,0,.052.026.084.039L15.157,1.4a.1.1,0,0,0,.045-.084l-.013-.032a.655.655,0,0,1,.362-.1l.181.019a.794.794,0,0,1,.239.077l-.013.039A.1.1,0,0,0,16,1.4L16,1.466c.026-.013.045-.039.077-.039.136,0,.22.278.232.381l-.013.006a.043.043,0,0,1-.038-.026v.026l-.065.007-.039-.007-.02.026H16.12a.059.059,0,0,0-.052.026l.006.013a.056.056,0,0,1-.039.045L16,1.918l-.077.071a.475.475,0,0,1-.11.065c-.013.007-.013.02-.02.039-.026.007-.052.007-.065.026-.039-.007-.052.019-.071.052a.235.235,0,0,1,.02.1c0,.019-.026.026-.026.058v.058l-.039.017a.056.056,0,0,0-.019.041c-.052,0-.039.019-.058.045l-.006.007a.1.1,0,0,1-.045-.02.059.059,0,0,1-.026-.052c0-.039-.071-.123-.1-.149l.006-.019c0-.039-.064-.123-.084-.155V2.073c0-.045-.032-.1-.032-.149,0-.013.019-.019.026-.026-.02-.026-.02-.1-.039-.1s-.02.032-.026.039c0,.026-.039.032-.058.032a.111.111,0,0,1-.1-.058c.026,0,.071,0,.071-.032a.017.017,0,0,0-.02-.02l-.039.013a.055.055,0,0,1-.032-.019c-.045-.045-.058-.02-.09-.039l-.006.006h-.02l-.052-.019m0,.039V1.731l.032.013m.342.239.02.09V2.1H14.88l-.013-.045.11-.019-.116-.013-.007-.039M14.867.5,14.86.5l-.013.019c0,.026.174.148.187.161l.013-.013L14.962.582,14.906.526,14.867.5m-.019,1.408V1.873h.206V1.86h-.206l.006-.032.116-.019L14.854,1.8l.007-.039h.148l.026.026h-.013c.026.065.058.11.129.11a.1.1,0,0,0,.078-.039l.013.032-.013.032.007.039h-.381l-.006-.032.1-.02-.1-.006M14.97.756l.013-.013-.135-.1-.013.013m.058,2.26h-.045c-.045,0-.091.077-.091.116l.034-.038.1-.078m-.039-1.492.03-.065a.366.366,0,0,0,.022-.206.153.153,0,0,1,.1.168.139.139,0,0,1,.123.091L15.086,1.4c-.181,0-.271.355-.271.491a.774.774,0,0,0,.652.749l.013.039a.185.185,0,0,1-.02.065.868.868,0,0,1-.749-.852.748.748,0,0,1,.079-.353l.063-.112m-.053,1L14.763,2.4l-.084-.039.065-.013.071.013a.456.456,0,0,0,.084.11l-.071-.007L14.8,2.425m.014.449-.02-.006c-.065,0-.1.064-.116.123a.284.284,0,0,1,.075-.07l.06-.046M14.695.727l.022.024.014.031a.143.143,0,0,0-.077-.11l-.02.02.06.036m-.086,1.831.048-.036a.362.362,0,0,1,.172-.035l.09.007a.9.9,0,0,0,.148.123,1.7,1.7,0,0,0-.362-.071l-.1.013M14.656.77,14.678.8l.014.032A.165.165,0,0,0,14.615.71L14.6.736l.06.033m0,.1L14.647.833a.189.189,0,0,0-.071-.077l-.02.026.06.032.037.052m.051,1.7.218.036.208.055a1.186,1.186,0,0,0,.33.116l.052.019.039-.013.045.02c.026,0,.039-.02.058-.026h.039l.039-.007a1.7,1.7,0,0,0,.3-.11,2.1,2.1,0,0,1,.42-.09.258.258,0,0,1,.155.045.258.258,0,0,0-.245-.142.245.245,0,0,1,.162-.1.145.145,0,0,0-.11-.039h-.052a.858.858,0,0,0,.116-.439.871.871,0,0,0-.149-.485.421.421,0,0,1-.051-.2l.013-.1-.09.039a.1.1,0,0,0-.058-.013c-.032,0-.065.006-.077.039-.032-.077-.265-.136-.336-.149a1.73,1.73,0,0,0-.181,0,.64.64,0,0,0-.394.1.085.085,0,0,0-.065.052.092.092,0,0,0-.078-.039.1.1,0,0,0-.058.013l-.09-.039.013.1a.418.418,0,0,1-.052.2.872.872,0,0,0-.149.485.858.858,0,0,0,.116.439h-.052a.159.159,0,0,0-.116.039.244.244,0,0,1,.168.1.274.274,0,0,0-.252.142l.081-.032.081-.013M14.582.857l.025.024.015.03a.168.168,0,0,0-.084-.116l-.02.032.064.03M14.545.9l.023.024.014.03A.148.148,0,0,0,14.505.84l-.026.032.066.03m.005,1.643-.046.022-.051.017.026.026.04-.03M14.544,1,14.537.965a.18.18,0,0,0-.071-.08L14.44.917a.146.146,0,0,1,.089.054l.014.03m-.11.039.026-.019.013.019m-.01,1.794L14.5,2.82l.073-.01.045-.032-.045-.006a.164.164,0,0,0-.136.084l.029-.021m-.016-.257.058-.065a.251.251,0,0,1-.084.039l.026.026m-.039-.194-.026-.026.077-.026m.02.142-.044.026-.053.012.032.026m.026-.1-.043.024-.048.015.032.026m.083-1.415.033.02V1.13l-.027.014-.031.005a.11.11,0,0,1-.11-.116A.155.155,0,0,1,14.35.956a.149.149,0,0,1,.078.039l-.045.058.02.032h.026l.038.006m-.186,1.37H14.3c.09,0,.245-.116.226-.22h.006V1.13a.213.213,0,0,0-.155-.2,2.272,2.272,0,0,1,.232-.259l.039-.013a.159.159,0,0,1,.1.052,1.374,1.374,0,0,0,.872.226l.11-.006a1.2,1.2,0,0,0,.691-.22.146.146,0,0,1,.1-.052l.039.013A3.09,3.09,0,0,1,16.8.93a.219.219,0,0,0-.162.2v.93l.006.194a.284.284,0,0,0,.233.207l-.187.239a.34.34,0,0,0-.135-.026c-.259,0-.5.252-.82.291l-.168.006c-.407,0-.646-.29-.943-.29l-.116.013-.226-.232m.168-.245.027,0,.018.023c-.039.077-.11.084-.187.077a.408.408,0,0,0,.071.084.184.184,0,0,1-.077.026.046.046,0,0,1-.052-.045c0-.058.069-.123.136-.152l.064-.015m-.252.749.038-.06a.626.626,0,0,1,.452-.205.459.459,0,0,1,.258.1,1.245,1.245,0,0,0,.678.2h.11a1.231,1.231,0,0,0,.51-.213.452.452,0,0,1,.239-.09c.161,0,.394.077.42.265a.711.711,0,0,0-.116-.02A.176.176,0,0,0,16.649,3a.376.376,0,0,0-.284-.168.466.466,0,0,1,.316.426l-.058-.007-.155.007a.231.231,0,0,1-.116-.02.314.314,0,0,0-.317-.278h-.006a.423.423,0,0,1,.3.387.617.617,0,0,0-.317-.09.377.377,0,0,0-.148.026V3.261a.33.33,0,0,0-.09-.22.348.348,0,0,1,.065.194.206.206,0,0,1-.1.181c-.077.058-.129.058-.181.148-.078-.148-.284-.116-.284-.329a.4.4,0,0,1,.058-.194.368.368,0,0,0-.084.245.4.4,0,0,0-.149-.026.6.6,0,0,0-.316.09.432.432,0,0,1,.3-.387H15.06a.307.307,0,0,0-.3.278.27.27,0,0,1-.123.02l-.149-.007-.065.007a.467.467,0,0,1,.317-.426A.387.387,0,0,0,14.453,3a.176.176,0,0,0-.135-.058l-.123.02m.02-.581-.072-.051-.077-.046h.045a.264.264,0,0,1,.123.026l-.019.071m-.005-.137-.043-.052a.515.515,0,0,0-.107-.082h.032a.263.263,0,0,1,.175.065l.026.071-.123-.1a.882.882,0,0,1,.1.116l-.032.045-.031-.059m.008.41-.086-.021-.085-.007a.328.328,0,0,1,.175-.039.686.686,0,0,1,.161.019l.077.09-.048.017-.043.022-.07-.047-.082-.034M14.3,1.279l.11.139.089.138v.123a2.745,2.745,0,0,0-.284-.426,2.458,2.458,0,0,1,.284.484V1.95l-.08-.24a2.657,2.657,0,0,0-.385-.631.528.528,0,0,1,.14.08l.127.12m-.042.617.047.073.09.22-.032.013a1.215,1.215,0,0,0-.11-.2,1.651,1.651,0,0,1,.09.213l-.039.019a1.254,1.254,0,0,0-.272-.5.352.352,0,0,1,.163.089l.062.07m.009-.31.063.093a2.235,2.235,0,0,1,.168.355v.11l-.138-.279-.152-.27c.1.194.207.394.284.594a.093.093,0,0,0-.071-.006,3.9,3.9,0,0,0-.413-.82.542.542,0,0,1,.186.134l.074.089m.147,1.695-.114.03-.119.015c-.116,0-.362-.032-.362-.187a.173.173,0,0,1,.032-.1l.006.032c.007-.148.077-.155.187-.194a.23.23,0,0,0-.09.162c0,.129.148.22.265.22l.047-.005.046-.014L14.4,3.2l.013.077.006.02v-.02h.02l.09.013a.914.914,0,0,1-.407.129L13.9,3.4l-.049,0-.049.014V3.41c.02-.052.084-.077.129-.1a.948.948,0,0,0,.265.045.358.358,0,0,0,.171-.041l.049-.037m-.7-.705.032,0L13.7,2.538l-.013.026m.051-.162-.026-.019-.032.084m.058.148-.051-.045-.013.02.03.02m.009.019L13.665,2.6l-.006.013c.006.013.032.013.045.013h.006m-.077-.265-.02.055-.025.055.071-.1m-.077-.187.011-.023,0-.028L13.588,2.1l.02.006.039-.006a.148.148,0,0,1-.039.078l-.026.012m.013.549.059.057a.19.19,0,0,0,.083.027.043.043,0,0,1-.026.039H13.7a.151.151,0,0,1-.123-.116l.013-.007M13.607.872V.859l-.052.013m0,1.065.008-.026,0-.026h.013l.032-.013.019.051c0,.013,0,.026-.013.032l-.058-.02m.058.659.026.03c.024.041.047.106.11.106a.073.073,0,0,0,.052-.02l.02-.013a.067.067,0,0,1,.026.052A.055.055,0,0,1,13.8,2.8l-.026.007a.248.248,0,0,1-.219-.155l.022-.039.036-.02M13.543.387l.006-.065L13.543.278a.1.1,0,0,1,.065.1V.413L13.543.387m0,.439L13.555.8l.027-.01L13.6.795m-.077,2.435L13.6,3.2l.074-.009a.415.415,0,0,1,.129.019v.006a.166.166,0,0,0,.058.058L13.8,3.268h-.013a.375.375,0,0,0-.168.039l-.1-.077m.06-1.357-.022.007a.081.081,0,0,0-.045-.065.069.069,0,0,0,.039-.045l.045.09-.017.012m0,.866-.031.005-.021.014c-.013-.013-.02-.02-.02-.032s.039-.026.039-.026l.032.039m0-.588-.005.017a.061.061,0,0,1-.046.022.041.041,0,0,1-.045-.045.143.143,0,0,1,.032-.071.1.1,0,0,1,.059.051l.006.027M13.518.737l.028-.014.029-.006a.073.073,0,0,1,.052.019C13.62.71,13.588.71,13.562.71a.1.1,0,0,0-.09.071l.047-.044m.075.114.04.008L13.62.82l.013-.039-.02.007L13.582.782a.056.056,0,0,0-.058.045.086.086,0,0,1-.052.019l.081,0h.041m-.1.6.014.018,0,.028H13.51l-.058-.013-.006-.032.032-.006m.04.991.064-.094-.026-.013a.729.729,0,0,1-.117.181l.078-.074m-.027-1h-.013l-.039.013-.006-.02.039-.026m-.026.1.038.021.014.031c0,.019-.013.026-.02.026-.026,0-.039-.032-.052-.045l.02-.032m0,.358.041-.016a.056.056,0,1,1,0,.11.058.058,0,0,1-.058-.058l.017-.036m0,.159.026-.04h.013a.114.114,0,0,0,.065-.026.127.127,0,0,1,.084.1c0,.02-.013.026-.032.026A.09.09,0,0,1,13.517,2v.039c-.013.026-.032.065-.071.065S13.4,2.1,13.4,2.06v-.02l.026-.009.02-.016m-.026-.595-.026-.007.039-.058.019.026m.032-.93-.1.1A.024.024,0,0,1,13.362.53c0-.023.021-.042.047-.056l.076-.022m-.02,1.518-.031.036-.04.016a.042.042,0,0,1-.039-.039.093.093,0,0,1,.032-.071l.02-.013.017.045.041.026m-.032-.5-.015.029-.03.01a.037.037,0,0,1-.038-.039.041.041,0,0,1,.038-.039l.03.012.015.027m.006.355-.023.027-.009.037-.039.013a.037.037,0,0,1-.039-.039.125.125,0,0,1,.02-.065l.043.025h.048m.117.445.055.024a.92.92,0,0,0,.191.028c.045.007.117.026.117.077,0,.11-.11.117-.117.265-.006.026-.039.039-.071.039s-.078-.058-.09-.1a.15.15,0,0,0,.039-.071l.026-.026h.039l-.09-.013a2.962,2.962,0,0,0-.29.065c-.026,0-.032-.013-.032-.032l.123-.12.1-.139m-.232-.685-.02-.013c0-.026.026-.045.032-.058l.039.02a.091.091,0,0,1-.034.046l-.018.005M13.338.443l.042-.021L13.42.413l-.1.117c-.019,0-.026-.007-.026-.02L13.3.473l.034-.031m-.017.6L13.3,1.034c-.013,0-.013.013-.013.019s0,.02.013.02.026-.007.026-.02l-.008-.012m.008.445V1.5c-.006.02-.019.02-.039.02s-.039,0-.039-.02.032-.026.045-.026l.032.007m.016.108.023-.018.006.026.013.006L13.38,1.6l-.005-.027V1.563l.013-.026h.032l.013.019-.009.036-.01.014.015-.008.01-.03.039.013a.031.031,0,0,0,.032-.032.082.082,0,0,0-.026-.045h.032v.032a.433.433,0,0,1-.065.207.322.322,0,0,1-.2-.226c.007.02.039.02.058.02a.035.035,0,0,0-.02.032.041.041,0,0,0,.032.032l.022-.008m-.014,1.622.042-.026.034-.031a.049.049,0,0,1,.039.045c0,.065-.116.065-.168.065h-.026l-.006-.019.085-.033M13.343.387l-.037.04-.027.044c-.006.013-.006.026-.026.026L13.239.472a.073.073,0,0,1,.037-.056l.066-.028M13.33,1.46v.013l-.039-.007c-.013,0-.045.013-.045.039l-.013-.077.1.032m-.044-.129L13.2,1.259a.179.179,0,0,0,.084-.045.06.06,0,0,0,.058.032c.02,0,.032-.026.032-.045a.118.118,0,0,1,.084.071.671.671,0,0,1-.084.116l-.09-.057m.072.389.047.032.055.024a.409.409,0,0,0,.1-.252.168.168,0,0,1,.026.1c0,.09-.045.2-.149.2a.147.147,0,0,1-.078-.039.537.537,0,0,1-.168-.387l.039.032a.387.387,0,0,0,.091.255l.04.038M13.346.933l.028.024L13.4.969a.052.052,0,0,0,.052-.026l-.019.007A.047.047,0,0,1,13.381.9l.013-.084c0-.032-.026-.065-.026-.091L13.4.659c.02-.032.071-.039.1-.058a.477.477,0,0,0,.11-.09h.052l.021.037.011.041a.048.048,0,0,0-.032.052.086.086,0,0,0,.019.052V.7a.416.416,0,0,0,.1.2c-.013.019-.045.019-.052.038L13.7.949c-.032,0-.006-.019-.026-.026l-.006.013c0,.026.032.019.051.013l-.006.039a.118.118,0,0,1-.1.032c.006.026.045.045.065.058a.03.03,0,0,0-.02.032c0,.026.026.045.026.065,0,.058-.175.058-.207.058l-.032-.006V1.214c0-.065-.026-.129-.1-.129h-.02a.13.13,0,0,1,.1.11H13.42c-.026.007-.045-.039-.045-.071-.026.019-.007.1-.039.1s-.058-.065-.058-.09a.062.062,0,0,0-.006.058l-.058.039-.006-.026a.13.13,0,0,1,.1-.123.146.146,0,0,1-.129-.136c0-.045.039-.052.071-.052l.056.011.038.025m-.2.378.039-.045a1.459,1.459,0,0,0,.181.149.087.087,0,0,0-.039.032l-.1-.061-.083-.075m.032.872-.008.03c-.014.027-.043.046-.043.08l-.006-.02.006-.026.027-.045.006-.026a.136.136,0,0,0-.026-.071l.035.029.01.049m.037.948.055-.023a.169.169,0,0,0,.077-.079h.013c.032,0,.064.006.064.045,0,.084-.181.155-.252.155-.039,0-.065-.013-.065-.051l.013-.045.039.006.056-.008m-.1-2.762L13.168.31l-.006.039a.2.2,0,0,0,.039.11c0,.039-.045.052-.071.058a.081.081,0,0,1-.039-.071L13.1.406l.018-.038m-.011.9-.02-.021a.205.205,0,0,1-.019-.1V.988l.022.142.017.142M13.026.795l.021-.026c.06-.051.186-.034.282-.135-.01.106-.125.112-.22.132l-.083.03m0,.1L13.1.854a.513.513,0,0,0,.236-.118c-.005.1-.123.113-.222.134L13.026.9M13.1.7,13.039.7h-.026c.084-.045.168-.065.252-.1a.393.393,0,0,1-.106.071L13.1.7M13.007.64l.036-.03a.65.65,0,0,1,.145-.054L13.1.61l-.1.03m.007,1.169.006.052-.013.1a.177.177,0,0,0,.058.136c-.064-.026-.077-.071-.077-.142l.026-.148m0-.537.031.077a.291.291,0,0,1,.045.137l-.006.026c-.02-.116-.123-.194-.123-.336a.484.484,0,0,1,.032-.162A.562.562,0,0,1,13,1.163l.014.108M12.972,3.3l-.017-.056-.006.026a.124.124,0,0,0,.045.09l.02-.02L12.972,3.3m.083-1.736.021.052.008.052v.013l-.052-.109a.78.78,0,0,1-.161-.337.329.329,0,0,1,.039-.175l-.013.1a.552.552,0,0,0,.094.3l.064.11M13.02,3.436l.074-.013.074-.032a.264.264,0,0,1-.123.026.116.116,0,0,1-.129-.129.106.106,0,0,1,.058-.1.18.18,0,0,0,.181.148.184.184,0,0,0,.1-.026.147.147,0,0,0,.116.1.3.3,0,0,1-.181.058l-.129-.006a.234.234,0,0,0-.168.058.116.116,0,0,1-.026-.058.091.091,0,0,1,.052-.077.088.088,0,0,0,.044.035l.059.01M12.884.846l.031.009.026.024.013.052V.943L12.878.937a.1.1,0,0,1-.052-.077l.058-.013m-.045,1.227v.039c0,.065.065.032.071.09-.032-.032-.091-.019-.091-.084l0-.025.015-.02m.005-.668.027.055c.045.077.162.2.162.29a1.169,1.169,0,0,0-.1-.149c-.071-.09-.136-.142-.136-.278a.365.365,0,0,1,.019-.116l.009.133.016.064m-.018-.378-.032-.006a.172.172,0,0,1,.142-.071.109.109,0,0,1-.073.072l-.037.006m-.032.775-.024-.011-.014-.021v.006c0,.026.013.045.032.045s.032-.02.045-.032l-.039.013m.065-.859-.035.009-.03.023A.12.12,0,0,1,12.742.93.085.085,0,0,1,12.8.892l.026.031.032.021m-.168.672L12.663,1.6l-.018-.021v.006c0,.026.007.052.032.052a.073.073,0,0,0,.052-.032l-.039.006m.045,1.35.055.009a.252.252,0,0,1,.125.1.337.337,0,0,0-.116-.019c-.077,0-.181.052-.181.142V3.21a.167.167,0,0,1,.078-.1c.02.007.071.026.071.045,0,.039-.1.058-.1.129,0,.09.135.1.207.09-.02.019-.039.039-.039.058h-.026a.253.253,0,0,1-.278-.245.236.236,0,0,1,.16-.221l.04-.005m-.017-1.653-.028.031-.077.046-.181-.077h.007c.065,0,.213-.039.239-.1l.052-.013c-.013.026,0,.045,0,.077l-.011.039m.766.859h.006l.032.045-.058.013.052.006-.006.02a.189.189,0,0,1-.084,0,.093.093,0,0,0,.071.032l-.007.007-.045.006L13.4,2.293a.135.135,0,0,0,.078.032l-.006.007h-.026a.181.181,0,0,1-.058,0l.065.032-.013.013H13.42l-.052-.006a.164.164,0,0,0,.058.032l-.026.026a.128.128,0,0,1-.071,0l.052.026-.026.026h-.065c.007.013.026.019.039.026-.019.013-.084.064-.11.064l-.052-.006-.052-.11-.013-.02v.02l-.039-.007a.086.086,0,0,0-.051.02l.019-.007.077.013.006.026a.388.388,0,0,0-.09.013h.019l.077.007.006.019-.084.013h.019l.078.013v.013a.129.129,0,0,0-.071.019L13.1,2.59l.039.006.007.02-.071.019.032-.006.052.006c.013.039.065.084.065.129l-.026.052a.687.687,0,0,0,.116.213.142.142,0,0,1-.116.084c-.045,0-.058-.026-.065-.065a.118.118,0,0,0,.045-.039l-.052.026-.006-.019.052-.045L13.116,3l-.006-.026a.086.086,0,0,0,.045-.039l-.052.026L13.1,2.945l.045-.045a.083.083,0,0,1-.065.026c-.013-.026-.045-.045-.064-.071a.09.09,0,0,0,.051-.039.106.106,0,0,1-.071.026c-.078,0-.045-.084-.071-.136s-.117-.174-.155-.174-.038-.007-.051-.032V2.474a.294.294,0,0,0-.052-.149.316.316,0,0,1,.026.155v.013l-.032.006a.089.089,0,0,1-.045-.077v.02a.1.1,0,0,0,.019.058l-.019.02a.2.2,0,0,1-.045-.058l.026.071-.039-.052.026.058-.006.007-.032-.052a.1.1,0,0,0,.02.058h-.007l-.032-.045.02.051-.013.013L12.5,2.512l.02.065-.058.013c-.045-.026-.1-.065-.1-.116l.013-.045.1-.083.084-.1h.019c.065,0,.136-.077.174-.116l.058.065c.019.006.071.019.071.038s-.084.026-.084.09c0,.039.052.071.09.077a.075.075,0,0,1-.039-.065c0-.052.123-.006.123-.084,0-.058-.09-.084-.09-.129a.139.139,0,0,1,.065-.1c0,.123.161.1.161.168,0,.032-.058.064-.058.116,0,.1.187.084.187.2l-.013.045a.082.082,0,0,0,.032-.071c0-.1-.117-.09-.117-.162,0-.039.084-.071.084-.142,0-.117-.155-.084-.155-.2s.084-.123.084-.252a.375.375,0,0,0-.039-.168c.02,0,.026-.026.026-.039a.237.237,0,0,0-.045-.11.331.331,0,0,1,.045-.1.158.158,0,0,0,.039.071v.039a.525.525,0,0,0,.11.336.132.132,0,0,0-.039.09.136.136,0,0,0,.045.09L13.291,2a.09.09,0,0,0,.065.077l-.006.026a.062.062,0,0,0,.048.06l.087.011-.076-.019c-.026-.01-.047-.026-.047-.052l.006-.039c-.019,0-.065-.032-.065-.058a.1.1,0,0,1,.026-.065.089.089,0,0,1-.045-.077.119.119,0,0,1,.032-.077l.013.013-.006.065c0,.032.006.051.045.051a.148.148,0,0,0-.039.077.059.059,0,0,0,.065.052l-.013.032a.059.059,0,0,0,.065.058l.032-.007.007.045M12.29,1.253l.065-.013a.088.088,0,0,0,.032.051l-.1-.038m-.013,1.666-.007-.006-.006-.02h.019m-.026-.549V2.177h.032v.148m.174-.917-.046.033-.051.019a.044.044,0,0,1-.039-.058l-.02.007c-.039,0-.084-.02-.084-.058l.007-.039.232.1.068.023.068.028a.16.16,0,0,0-.052.1.225.225,0,0,0,.129.181c.006.071-.02.168.09.168h.026c-.142-.045-.039-.135-.1-.2a.114.114,0,0,1-.11-.129.287.287,0,0,1,.032-.123.376.376,0,0,1,.258.31.472.472,0,0,1-.09.239.376.376,0,0,0,.1-.245.292.292,0,0,0-.045-.162c.071.032.142.077.142.162a.478.478,0,0,1-.02.1c-.045.09-.265.362-.368.362-.032,0-.039-.045-.039-.065l.007-.032a.063.063,0,0,0,.058-.026l.052.02a.075.075,0,0,0,.071-.058.074.074,0,0,1-.058.039.059.059,0,0,1-.045-.019.128.128,0,0,1-.078.039.064.064,0,0,1-.065-.058l.013-.039A.1.1,0,0,0,12.58,2a.068.068,0,0,0,.058.032.107.107,0,0,0,.077-.052.124.124,0,0,1-.065.032.1.1,0,0,1-.058-.026l.013-.02a.175.175,0,0,1-.1.052c-.039,0-.078-.019-.078-.065l.006-.039a.148.148,0,0,0,.071.02.075.075,0,0,0,.084-.09V1.828c0,.039-.02.084-.065.084a.145.145,0,0,1-.084-.038l.026-.026a.114.114,0,0,1-.071.039.193.193,0,0,1-.065-.09.23.23,0,0,1,.026-.071l.039.007c0,.026.013.065.045.065a.183.183,0,0,0,.11-.045.21.21,0,0,1-.084.026c-.039,0-.045-.013-.039-.045V1.724c.039-.013.045-.058.1-.058h-.02c-.045,0-.039.052-.11.052a.1.1,0,0,1-.09-.052c-.032-.006-.065-.026-.065-.052a.121.121,0,0,1,.02-.051l.032.006a.1.1,0,0,0,.1.071.169.169,0,0,0,.116-.058.186.186,0,0,1-.116.032.07.07,0,0,1-.065-.045l.084-.032-.077.006c-.039,0-.084-.006-.084-.052a.109.109,0,0,1,.019-.065h.039a.052.052,0,0,0,.058.045.1.1,0,0,0,.055-.023l.041-.042M12.27,2.474l.045-.013A.158.158,0,0,0,12.4,2.6l-.077.007-.052-.129m0,0,.013.067.032.062h-.058l-.024-.057-.014-.066m-.032.323V2.8h.026l-.026-.02h.039l-.019,0-.014-.014h.039L12.2,2.745l.007-.007h.039l-.032-.013.013-.013.045.013-.032-.019.039-.007c.052,0,.077.052.084.1a.191.191,0,0,1-.084.032l-.048-.011L12.186,2.8m-.019-.439V2.17l.039.006v.187m.014.479.058.012a.182.182,0,0,0,.1-.039h.006l.007.007c0,.032-.09.058-.116.058a.185.185,0,0,1-.1-.038l.026.006-.032-.032.052.027m-.011-.3.024.059L12.186,2.6a.345.345,0,0,1-.026-.116c.013.006.026,0,.039,0l.009.064m-.08-.064h.026l.013.116h-.039c-.013-.006-.013-.032-.013-.045l.013-.071m-.021-.73-.011.02c0,.045.071.058.1.065,0-.02-.071-.039-.071-.065s.09-.032.1-.039h-.045l-.053.007-.026.012m-.018.588V2.151l.039.007v.2m-.045-1.137.045.007.077-.02c.013.026.032.032.058.045a.235.235,0,0,1,.09.045l.2.09.194.071a.087.087,0,0,0,0,.058.51.51,0,0,0-.148-.09l-.517-.207m.032.375-.042.01a.039.039,0,0,0-.023.035c0,.032.039.065.065.084,0-.019-.039-.052-.039-.077s.071-.045.09-.045L12.116,1.6m-.043,1.642.035-.038.047-.087h.013c.026,0,.039.007.039.032s-.1.155-.142.155c-.019,0-.026-.02-.032-.039l.041-.024M12.019,2.3V2.119l.032.019v.181m-.026-.881-.018.014L12,1.473c0,.039.045.071.071.084a.164.164,0,0,1-.052-.084c0-.026.071-.039.09-.039l-.038-.007-.045.01m-.006-.185-.027.006-.012.02c0,.045.071.071.1.077-.013-.013-.077-.058-.077-.077l.052-.013-.039-.013m-.078.962V2.073l.039.026V2.26m.013-1.24.048.01.049,0,.065.052a.706.706,0,0,1-.168.039.09.09,0,0,1-.09-.077l.1-.019M11.9,2.155l-.015-.017v-.11l.026.026v.123m.084.5.019-.026-.136-.02-.09-.006.09.019M11.825.924l.021.018.031.008.058.006a.072.072,0,0,0,.045.058l-.1.007c-.065,0-.142-.007-.142-.084V.917l.09.006m.091,1.834.026-.026-.065-.007-.148-.019.148.039m-.045.071.019-.019-.142-.02M11.78,1.66l.039.017.057,0a.155.155,0,0,0,.078-.019.121.121,0,0,0,.09.032l.013-.006c-.045,0-.1-.02-.1-.077a.078.078,0,0,1,.019-.058c-.019-.013-.052-.039-.052-.058,0-.045.065-.077.065-.1s-.09-.077-.09-.148l.013-.052.278.11-.006.045a.08.08,0,0,0,.032.065l-.006.052a.105.105,0,0,0,.032.084.122.122,0,0,0-.02.065c0,.045.045.071.084.084l.019.02a.143.143,0,0,0-.032.071c0,.045.065.123.116.116l-.013.045a.08.08,0,0,0,.077.084l-.006.032a.086.086,0,0,0,.052.071v.006l.006.02-.1.013c-.051,0-.116-.013-.116-.078l.013-.052h-.052c-.052,0-.1-.006-.1-.065a.152.152,0,0,1-.078.013c-.013,0-.11-.026-.11-.052s.071-.051.09-.058c.019.058.09.071.135.071V1.925H12.18c-.065,0-.11-.013-.1-.084a.068.068,0,0,1-.058-.032.166.166,0,0,1-.123.039l-.026-.007a.067.067,0,0,1-.026-.071l-.065.019a.083.083,0,0,1-.09-.1l.042-.008.042-.018m-.007-.006-.058.021-.058.011a.054.054,0,0,1-.058-.058V1.615h.013a.6.6,0,0,0,.142-.038l-.006.026.005.031.02.021m-.16-.9.037.031V.788c0,.052.039.077.09.077L11.8.859,11.812.9c-.077-.013-.239-.045-.239-.155L11.586.71l.027.041m.083.709.018.02a.121.121,0,0,0,.072.019h.09l.039-.007.032.045-.006.064.006.052-.071-.007c-.039,0-.116-.013-.116-.065l.013-.026h-.006a.615.615,0,0,1-.129.026c-.032,0-.071,0-.071-.039l.007-.039L11.7,1.46m-.1.445,0,.012-.015.007a.02.02,0,0,1-.019-.019.017.017,0,0,1,.019-.019l.015,0,0,.014m0,.9h-.026a.182.182,0,0,1-.045.084l.048-.037L11.6,2.8m0-.086,0-.088h.006c.02.026,0,.1.058.1s.045-.09.045-.123l.065-.045h.026l.071.007.136.032c.052.013.1.013.116.071a1.12,1.12,0,0,1-.187.161l-.065.058H11.8l.071.019.013.026h-.007a.154.154,0,0,1-.078,0,.1.1,0,0,0,.071.02H11.9L11.941,3a.136.136,0,0,0-.026.071.142.142,0,0,1,.045-.058l.013.013a.136.136,0,0,0-.026.071l.045-.052h.019a.173.173,0,0,0-.032.071l.045-.052.1.039v.013l-.009.037c-.017.042-.056.093-.095.093a.126.126,0,0,1-.052-.019l-.026.032h-.006c-.02-.064-.007-.1-.065-.161a.842.842,0,0,0-.239-.155c-.032-.013-.123-.013-.123-.052a.839.839,0,0,1,.039-.116.041.041,0,0,0,.035-.016l.013-.038m.029.559.082.027.08.01a.179.179,0,0,0,.084-.02.1.1,0,0,0,.032-.052c.007.026.013.039.039.039s.032-.013.032-.019a.107.107,0,0,0,.045,0v.006a.041.041,0,0,0,.045.045.181.181,0,0,0,.135-.09l.045-.007.019.013s-.1.116-.142.116a.043.043,0,0,1-.032-.026.118.118,0,0,0,.032.077.686.686,0,0,0-.252-.058h-.019a.519.519,0,0,0-.258.071V3.4a.12.12,0,0,1,.045-.077.378.378,0,0,0-.155-.065l-.006-.064.069.046.078.039m.711-2.139.026.006a.322.322,0,0,0,.226-.1.385.385,0,0,1-.2.077.144.144,0,0,1-.11-.058.43.43,0,0,0,.142-.1.4.4,0,0,1-.194.084c-.032,0-.078.006-.1-.032A.977.977,0,0,0,12.3.937.665.665,0,0,1,12.058,1c-.032,0-.077-.013-.077-.052a.761.761,0,0,0,.187-.077.817.817,0,0,1-.232.058.087.087,0,0,1-.058-.013A.1.1,0,0,1,11.838.84l.039-.013.078-.039-.078.026a.365.365,0,0,1-.116.019c-.026,0-.065-.006-.065-.039V.788h.019a.509.509,0,0,0,.161-.045L11.9.723l-.026.013a.486.486,0,0,1-.161.039.112.112,0,0,1-.11-.084h.039a.329.329,0,0,0,.142-.026L11.7.672c-.078,0-.258-.032-.258-.142l.009-.038.029-.033.2.123.205.109.336.168c.149.058.5.149.588.271a.142.142,0,0,0-.065.058l-.065.013c-.019.058-.168.084-.22.084a.054.054,0,0,1-.058-.058l.032-.026h.019c.1,0,.2-.013.246-.116a.217.217,0,0,1-.207.1l-.058-.006a.21.21,0,0,1-.123.052.075.075,0,0,1-.065-.026l.1-.065-.1.044a.357.357,0,0,1-.109.02.08.08,0,0,1-.084-.077.431.431,0,0,0,.116-.045l.032.007.045-.007.049.036.054.022m-.872.813-.02.02c-.019,0-.026-.013-.026-.02s.006-.026.026-.026l.012.006.007.02m.052-.562.018.03a.153.153,0,0,0,.1.041l.052-.007V1.46l-.089.026-.1.012c-.026,0-.129,0-.129-.052a.122.122,0,0,1,.032-.065l.116.006m-.039,1.879.045.013a.2.2,0,0,0-.116.077l.045.013c.013.007.026.013.026.026a.036.036,0,0,1-.039.032.072.072,0,0,1-.071-.071.088.088,0,0,1,.068-.084l.042-.006M11.308,2l-.006.02-.02.005c-.013,0-.02-.006-.02-.026a.017.017,0,0,1,.02-.019l.02,0L11.308,2M11.3,1.97l-.044.014-.014.043c0,.026.02.045.058.045a.05.05,0,0,0,.052-.045.061.061,0,0,0-.016-.043L11.3,1.97m.053-.276.063,0-.077-.013c-.058,0-.149.045-.162.1a.181.181,0,0,1,.11-.071l.066-.011m-.189,0,.078-.039a.389.389,0,0,1,.174-.02.126.126,0,0,0-.084-.019.29.29,0,0,0-.239.136l.071-.058m-.026.316-.008.018-.017.008a.027.027,0,0,1,0-.052L11.132,2l.008.018m.026.336-.019-.006-.007.006c0,.02-.032.052-.058.065l.049-.025.035-.04m-.039-.368L11.092,2l-.016.032a.057.057,0,0,0,.051.058.063.063,0,0,0,.058-.058A.041.041,0,0,0,11.166,2l-.039-.013m-.036.4.02-.03.01-.036L11.1,2.306a.308.308,0,0,1-.065.11l.054-.037M11.065,1.7l.077-.052a.574.574,0,0,1,.148-.069.482.482,0,0,1,.168-.032l.071.013a.09.09,0,0,0,.045.052v.013a.069.069,0,0,0,.058.065l.09.168c.058.11.084.232.155.342a.383.383,0,0,0,.291.193.551.551,0,0,0,.355-.219.08.08,0,0,0,.039.071.932.932,0,0,1-.168.148.415.415,0,0,1-.226.065.362.362,0,0,1-.291-.149,2.348,2.348,0,0,1-.174-.362c-.032-.065-.1-.187-.175-.213a.223.223,0,0,1,.058.052h-.013c-.142,0-.271.09-.413.09a.165.165,0,0,1-.161-.1l.019-.032.047-.046m-.01.169.049.02.056.006c.142,0,.29-.09.433-.1l.045.071L11.6,1.854c-.149,0-.284.11-.433.11a.211.211,0,0,1-.193-.129L11,1.783l.02.05.037.034M11.069,1l.052.014a.225.225,0,0,0,.194.11.182.182,0,0,1-.129.039.224.224,0,0,1-.252-.226L10.94.9a.3.3,0,0,0,.081.072L11.069,1m-.026.551v.013l-.028.02-.043.005c-.02,0-.084-.013-.084-.045l.026-.006.048.006.082.007m-.011.15-.04.023a.231.231,0,0,1-.09.021c-.013,0-.039,0-.039-.02s.162-.039.194-.058l.007.007-.031.027m.011-.092-.013.016a.173.173,0,0,1-.077.016c-.02,0-.1-.006-.1-.039,0-.013.006-.026.019-.026l.065.019.053.011.057,0m0,.032.007.013a.533.533,0,0,1-.168.038c-.032,0-.039-.006-.039-.038l.013-.013a.155.155,0,0,0,.077.007l.11-.007m.82-.381-.075.018-.08.008a.163.163,0,0,1-.136-.052l.11-.045a.362.362,0,0,1-.149.032.221.221,0,0,1-.174-.1.422.422,0,0,0,.155-.039.525.525,0,0,1-.135.019.223.223,0,0,1-.213-.09h.007a.261.261,0,0,0,.155-.032A.376.376,0,0,1,11.2,1a.3.3,0,0,1-.232-.1h.187L11.05.886c-.137-.016-.33-.05-.33-.156l.02-.058L11.3.925l.573.244v.02l-.011.035,0,.036.04.057.037.033.022.014.017.024c0,.026-.078.058-.065.1l-.039.006h-.039a.129.129,0,0,1-.123-.052l.09-.032a.38.38,0,0,1-.148.026c-.045,0-.091-.013-.1-.058l.078-.039a.24.24,0,0,1-.117.026.148.148,0,0,1-.135-.065l.071-.039a.594.594,0,0,1-.148.026.111.111,0,0,1-.11-.084.21.21,0,0,0,.129-.077.246.246,0,0,0,.219.116.163.163,0,0,0,.149.064.206.206,0,0,0,.155.071l.067-.014.03-.012-.065.006a.184.184,0,0,1-.142-.052l.067-.018.062-.027M10.837,1.5l-.02.014-.006.024c-.071-.007-.2-.084-.2-.168,0-.026.032-.039.058-.026l.168.155m-.058.077-.02.038c-.065-.006-.271-.116-.271-.187a.048.048,0,0,1,.077-.039c.039.032.052.077.1.116l.11.071m-.3-.491.045.019a.6.6,0,0,1,.091.136h-.026a.054.054,0,0,0-.052.019.223.223,0,0,1-.077-.135l0-.024.017-.014m0-.045-.008.018-.018.008a.028.028,0,0,1-.026-.026.024.024,0,0,1,.026-.026l.018.006.008.02m.1.523.034.019a.57.57,0,0,0,.142.065.04.04,0,0,0,0,.039c-.058,0-.33-.084-.33-.148,0-.013.013-.071.032-.071l.121.1m-.062.069.135.06.1.026.019.032h-.039c-.071,0-.355-.026-.355-.129,0-.013.013-.039.026-.039l.11.05m-.1-.618-.012.029-.026.01a.037.037,0,0,1-.039-.039.042.042,0,0,1,.039-.039L10.4.988l.012.026m-.084.058.048.016.043.036c.045.039.039.1.065.148-.026,0-.052.032-.071.045-.052-.045-.129-.123-.129-.193l.013-.041.032-.011m.013.4L10.34,1.46a.084.084,0,0,1,.078-.084.084.084,0,0,1,.1-.071.062.062,0,0,1,.065-.045.126.126,0,0,1,.091.058l-.039.007L10.6,1.311c-.026,0-.045.032-.052.045h-.02c-.052,0-.064.039-.071.084,0,0-.071.071-.065.116-.026.007-.058.02-.058.052a.08.08,0,0,0,.026.052c-.02.013-.013.026-.013.045-.026-.013-.065-.02-.065-.052a.047.047,0,0,1,.02-.039.077.077,0,0,1-.02-.064.084.084,0,0,1,.033-.067l.026-.01m-.019-.465,0,.022a.057.057,0,0,1-.054.03.052.052,0,0,1,0-.1.056.056,0,0,1,.054.03l0,.022m-.1.124.026.022a2.12,2.12,0,0,1,.152.2c-.032,0-.052.026-.058.058-.065-.045-.207-.136-.207-.213a.066.066,0,0,1,.065-.071l.022.008m-.132,2.213.12-.062a.8.8,0,0,1,.338-.073.655.655,0,0,1,.426.155.4.4,0,0,0-.175-.026.821.821,0,0,0-.213.058l.1-.09h-.058a.877.877,0,0,0-.3.077l.077-.09a.486.486,0,0,0-.149.011l-.168.04m.123-2.305-.006.031a.074.074,0,0,1-.072.046.077.077,0,0,1,0-.155.074.074,0,0,1,.072.046l.006.031m.1.407-.025.014-.02.024c-.052-.026-.213-.1-.213-.162,0-.013.026-.084.052-.084s.056.045.1.094l.106.113m-.258-.058.2.116a.093.093,0,0,0-.006.071c-.071-.007-.213-.065-.213-.149l0-.024.014-.014m0-.284.038.014.014.044a.046.046,0,0,1-.052.045c-.032,0-.058-.019-.058-.045a.057.057,0,0,1,.017-.044l.041-.014m0,.121.009.021c0,.026-.013.045-.039.045a.039.039,0,0,1,.007-.077l.023.011m-.01.1-.008.018-.018.008A.03.03,0,0,1,10,1.317l.019-.019.024.008.009.018m1.285.1-.061-.013a.139.139,0,0,1-.12-.135l.013-.051a.132.132,0,0,0,.1.079l.045.005.024.028.034.023-.022.03-.017.035V1.44c0,.077.135.09.187.077v.026a.687.687,0,0,0-.2-.032,1.423,1.423,0,0,0-.232.026l-.013.032a.124.124,0,0,0,.032.065l-.013.013c-.026,0-.045-.039-.045-.065l.02-.045-.02.006a.284.284,0,0,1-.142-.045l-.013.026a.036.036,0,0,0-.039.032.039.039,0,0,0-.026.058.036.036,0,0,0-.02.032.047.047,0,0,0,.013.039c-.013,0-.019.013-.019.026a.043.043,0,0,0,.026.032v.019l-.007.007a.039.039,0,0,1-.038-.045.046.046,0,0,1-.02-.039.035.035,0,0,1,.02-.032l-.013-.026a.04.04,0,0,1,.026-.039L10.8,1.576c0-.013.013-.032.026-.032V1.537a.025.025,0,0,1,.032-.02c.007-.019.02-.019.032-.019a.856.856,0,0,1-.349-.42c-.013-.026-.045-.1-.084-.1h-.013a.116.116,0,0,0-.1-.026.108.108,0,0,0-.078-.032c-.019,0-.045.006-.052.019L10.133.917a.105.105,0,0,0-.11.11v.045a.07.07,0,0,0-.045.065l.013.065c-.007,0-.02.013-.02.032l.013.039-.006.039L10,1.389a.718.718,0,0,0,.71.4A1.1,1.1,0,0,0,11,1.75a1.4,1.4,0,0,0-.136.316.357.357,0,0,1-.142.239.637.637,0,0,1-.291.058c-.11.013-.252.078-.252.207,0,.09.065.11.065.162s-.148.1-.148.207c0,.077.1.148.155.174a.145.145,0,0,1-.065-.1c0-.116.278-.058.278-.22,0-.1-.129-.168-.129-.271l.006-.026c.09-.058.284-.019.42-.077a.37.37,0,0,0,.191-.187l.029-.09L11,2.086l0-.058c-.065.3-.181.407-.472.414l-.129.006a.131.131,0,0,0-.1.129l.032-.065v.013c0,.1.123.174.123.271,0,.129-.2.1-.258.168.039-.129.239-.058.239-.187a.059.059,0,0,0-.026-.052l.006.026a.065.065,0,0,1-.058.071l.006-.039c0-.1-.09-.149-.09-.213a.085.085,0,0,1,.019-.051.1.1,0,0,0-.045.071c0,.058.052.09.052.142s-.071.071-.11.1c.032-.032.084-.052.084-.1,0-.065-.065-.071-.065-.142,0-.123.129-.194.232-.207s.213.013.3-.058c.142-.1.161-.323.226-.484a.2.2,0,0,0,.213.142.729.729,0,0,0,.259-.065.043.043,0,0,0-.026.045.05.05,0,0,0,.045.052.051.051,0,0,0,.052-.052.052.052,0,0,0-.058-.052l.123-.038a.065.065,0,0,0-.026.045c0,.026.019.039.045.039a.043.043,0,0,0,.045-.039.054.054,0,0,0-.045-.045h.045a2.049,2.049,0,0,0,.239.491.382.382,0,0,0,.207.11l-.007.058.007.058a.89.89,0,0,1-.207-.058.09.09,0,0,1-.039-.071.155.155,0,0,1-.1.1l-.052.032.007.045c0,.019,0,.052-.02.058-.052,0-.013-.09-.065-.09s-.006.136-.052.136-.032-.116-.058-.116-.006.142-.052.142-.026-.116-.071-.116-.026.1-.065.1-.026-.1-.032-.123l-.058.007a.639.639,0,0,0,.342-.239h.013a.1.1,0,0,0,.084-.052.114.114,0,0,1-.065.026h-.026l.013-.019a.114.114,0,0,0,.084-.077.088.088,0,0,1-.071.045l.02-.084a.6.6,0,0,1-.4.381.463.463,0,0,0-.129.058.168.168,0,0,0-.058.1.172.172,0,0,1-.09.032h.084v.02a.216.216,0,0,1-.1.032.218.218,0,0,0,.09,0v.026a.143.143,0,0,1-.09.02.222.222,0,0,0,.09.006.26.26,0,0,0,.02.1v.006l.032-.006a.042.042,0,0,1,.039.032c0,.065-.168.149-.22.149-.026,0-.032-.006-.032-.026l.007-.032a.25.25,0,0,0,.153-.069l.021-.047-.025.039a.3.3,0,0,1-.15.058c-.007-.045-.032-.039-.065-.039s-.045-.007-.045-.032c0-.052.148-.284.148-.407,0-.045-.045-.058-.045-.09,0-.065.181-.065.181-.245a.281.281,0,0,0-.027-.124l-.024-.037.029.066.01.076c0,.2-.194.162-.194.265,0,.039.045.058.045.09,0,.116-.148.336-.148.407s.052.058.1.058l.006.006c.013,0,.013.013.02.026l-.007.039.01.033.035.019.06-.013a.37.37,0,0,0,.154-.1.042.042,0,0,1,.026.032c0,.045-.161.123-.213.123l-.02-.007-.006-.019v-.02l-.005.023.005.023a.687.687,0,0,0-.336-.09.853.853,0,0,0-.568.226,1.281,1.281,0,0,1,.375-.1.744.744,0,0,0-.09.123.929.929,0,0,1,.3-.1l.058-.013-.187.161a1.014,1.014,0,0,1,.381-.123,1.713,1.713,0,0,1,.187.019l-.026-.045a.47.47,0,0,0,.193.032.073.073,0,0,0,.039,0,.492.492,0,0,1-.071-.1l.013-.026c.026,0,.052.116.129.116l.032-.006-.149-.207a.069.069,0,0,0-.058-.032l.013-.052A.053.053,0,0,0,11.076,3l-.039.006V2.926c0-.142.026-.226.161-.271h.071c0,.032-.007.123.045.123s.045-.09.065-.11l.007.006c.006.039.013.11.064.11s.052-.071.052-.1c.007.026.02.077.045.09a.282.282,0,0,0-.058.116V2.9c0,.039.045.045.077.052a.656.656,0,0,1,.31.181.167.167,0,0,1,.026.1c0,.013-.013.032-.026.032a.146.146,0,0,1-.071.019.48.48,0,0,1-.375-.194.52.52,0,0,0,.032.168H11.45a.1.1,0,0,0-.116.1.109.109,0,0,0,.11.11.072.072,0,0,0,.077-.065.11.11,0,0,0-.039-.065.1.1,0,0,1,.065-.02l.052.007a.078.078,0,0,0-.039.077l.013.058a.548.548,0,0,1,.3-.1H11.9a.616.616,0,0,1,.245.045.3.3,0,0,0,.129.02l.135-.013-.123-.09.013-.013c.045,0,.084.065.123.077l.013-.02c0-.065-.142-.187-.207-.187l.007-.045c0-.039-.026-.058-.065-.058l-.045.013c-.039-.02-.226-.155-.226-.2l.1-.077a.489.489,0,0,0,.187-.194l.065.007V2.68a.126.126,0,0,0-.084.116l-.026.026c0,.032.071.065.1.071a.037.037,0,0,0,.039.039c.019,0,.026-.019.032-.039.026-.006.1-.038.1-.071A.028.028,0,0,0,12.38,2.8a.118.118,0,0,0-.1-.116V2.629c.09,0,.3-.02.342-.1h.065a.074.074,0,0,0,.071.039.4.4,0,0,1,.136.155c.026.065-.007.149.1.142a.544.544,0,0,1,.129.258v.006a.083.083,0,0,0-.026.065.075.075,0,0,0,.084.071l.045-.007.02.026v.013l-.078.013c-.065,0-.142-.032-.142-.1a.086.086,0,0,1,.013-.051h-.026a.122.122,0,0,0-.136.135l.02.077h-.052c-.039,0-.142-.013-.142-.065s.1-.071.1-.135c0-.032-.032-.052-.065-.065a.162.162,0,0,1,.1-.032.178.178,0,0,1,.116.045.243.243,0,0,0-.226-.168.26.26,0,0,0-.239.258.248.248,0,0,0,.278.252h.065v.006a.148.148,0,0,0,.078.116c.065-.09.206-.077.3-.077a.287.287,0,0,0,.194-.071l.129.013.058-.007a.463.463,0,0,1-.071-.1l.02-.026a.633.633,0,0,1,.09.1.031.031,0,0,0,.032-.032.066.066,0,0,0-.032-.052.308.308,0,0,1,.168-.039l.1.013-.1.039a.227.227,0,0,0-.058.149v.052a.435.435,0,0,1,.058-.09.261.261,0,0,1,.1-.02l.22.02.132-.016.132-.035a.2.2,0,0,0,.11.026.418.418,0,0,0,.123-.026h-.007c-.039,0-.1-.026-.1-.065a.043.043,0,0,1,.026-.039l.071.006a.3.3,0,0,0,.135-.032l-.019.187a.528.528,0,0,1,.387-.161.3.3,0,0,1,.136.026c.058.181.252.161.3.258.032-.058.123-.077.181-.116a.252.252,0,0,0,.116-.142A.366.366,0,0,1,15.99,3.3a.5.5,0,0,1,.381.161.945.945,0,0,0-.013-.187.321.321,0,0,0,.129.032.5.5,0,0,0,.135-.026.114.114,0,0,1,.026.077.092.092,0,0,1-.11.1l.084.006c.077,0,.194-.013.187-.116.077,0,.181.026.181.116a.271.271,0,0,1-.026.1.223.223,0,0,0,.117-.22l.058-.007a.509.509,0,0,0,.239.065c.071,0,.194-.026.213-.11l.065-.013h.013a.07.07,0,0,1,.084.084.119.119,0,0,0,.032-.077.092.092,0,0,0-.058-.084.652.652,0,0,1,.252-.052c.045,0,.1.007.1.065s-.116.058-.162.052a.238.238,0,0,0,.252.09l.013.045c0,.058-.1.071-.149.077a.442.442,0,0,0,.129.013c.064,0,.207-.019.226-.1a.357.357,0,0,0,.3.155.216.216,0,0,0,.2-.084.226.226,0,0,0,.129.032c.077,0,.336-.045.381-.116l.181.007a1.072,1.072,0,0,1,.271.058,1.378,1.378,0,0,0,.452.116.34.34,0,0,0,.245-.09,3.787,3.787,0,0,0,.53.09c.174,0,.394-.077.394-.29,0-.149-.11-.213-.245-.232a.146.146,0,0,1,.1.136.463.463,0,0,0-.136-.013h-.09c.071.019.148.064.148.148,0,.11-.084.155-.181.155l-.123-.007c.065,0,.207-.013.207-.1a.164.164,0,0,0-.039-.09l.007-.026a.127.127,0,0,0-.065-.084l-.013.007-.02-.045a.642.642,0,0,0-.084-.181c-.058-.1-.181-.213-.181-.323a1.82,1.82,0,0,1,.148-.387l.039-.155a.974.974,0,0,0,.02-.187L20.963,1.8v.026a.728.728,0,0,1-.426-.226l-.02-.142c.09.09.259.3.394.3h.019a1.393,1.393,0,0,1-.42-.31c-.013-.142-.045-.284-.065-.433a1.265,1.265,0,0,1,.471.433,1.42,1.42,0,0,1,.226.794v.09c0,.11.09.168.09.258,0,.026-.013.032-.032.032-.039-.123-.09-.116-.1-.278l-.006.045c0,.136.084.2.084.258,0,.02-.007.026-.026.026-.052-.116-.11-.116-.11-.271,0-.09.019-.181.019-.271a.6.6,0,0,0-.055-.261L20.963,1.8l.04.072a.6.6,0,0,1,.044.238c0,.1-.026.181-.026.278,0,.181.135.265.135.381a.2.2,0,0,1-.032.084l.019.006a.323.323,0,0,0,.142-.239c0-.1-.071-.135-.11-.22a.659.659,0,0,1-.006-.226.745.745,0,0,0-.02-.168,1.423,1.423,0,0,0-.271-.672A2.086,2.086,0,0,0,19.587.7a3.739,3.739,0,0,0-.536-.039A.434.434,0,0,0,18.871.6.337.337,0,0,0,18.58.413a.32.32,0,0,0-.135.032A.439.439,0,0,0,18.238.4a.367.367,0,0,0-.291.194c-.1.142-.219.194-.29.361a.882.882,0,0,0-.045.22c-.032.026-.11.1-.11.142s.045.032.065.039a.728.728,0,0,0-.071.22c-.052,0-.11-.039-.162-.039-.02,0-.039.006-.039.032,0,.052.11.11.149.123a1.133,1.133,0,0,0-.078.355c0,.207.065.413.291.465l.065.007a.352.352,0,0,0,.284-.162c.058-.032.194-.058.194-.142,0-.052-.071-.045-.1-.045h-.032c-.007-.032-.039-.136-.078-.136-.058,0-.065.1-.065.142a.308.308,0,0,1-.168.09c-.065,0-.078-.052-.078-.1a.6.6,0,0,1,.232-.4l-.013.077.013.032c.026,0,.142-.162.259-.162.071,0,.135.02.207.02a.438.438,0,0,0,.155-.026v.019a.073.073,0,0,0,.019.052.1.1,0,0,0-.026.058c0,.013.013.026.026.039l-.013.038a.051.051,0,0,0,.019.045.15.15,0,0,0-.019.071.067.067,0,0,0,.045.065c-.064.232-.536.232-.594.588l-.006-.02c-.032.007-.065.026-.065.065l.013.045c-.039.013-.1.045-.1.1,0,.077.155.129.213.148l-.052-.007a.514.514,0,0,0-.336.123l-.032.026V3.152a.092.092,0,0,0-.064-.091.473.473,0,0,0,.045-.187L17.6,2.829a.282.282,0,0,1-.116.1.561.561,0,0,0-.129-.194l.007.077a.4.4,0,0,1-.123.31.508.508,0,0,1-.116.09V3.191A.364.364,0,0,0,17.056,3c-.032.116-.1.232-.239.232A.234.234,0,0,1,16.7,3.2V3.191a.379.379,0,0,0-.032-.149.3.3,0,0,1,.175-.071.129.129,0,0,1,.071.013l.006-.045a.239.239,0,0,0-.11-.187.578.578,0,0,1,.31-.071l.161.006a.444.444,0,0,0-.323-.116.637.637,0,0,0-.155.02l.1-.135c.026-.007.026-.02.045-.039a.551.551,0,0,1,.2-.11H17.2a.355.355,0,0,0-.142-.039l-.09.013a.385.385,0,0,1,.207-.168.235.235,0,0,0-.1-.02.256.256,0,0,0-.155.045,1.02,1.02,0,0,1,.271-.426h-.032a.4.4,0,0,0-.265.162,3.542,3.542,0,0,1,.316-.549.857.857,0,0,0-.491.523A2.6,2.6,0,0,1,17.2,1.04a.97.97,0,0,0-.53.472V1.169l.065.013a.141.141,0,0,0,.142-.148.2.2,0,0,0-.065-.142c-.071-.077-.142-.168-.22-.239A.135.135,0,0,0,16.52.627.177.177,0,0,0,16.4.691a.822.822,0,0,1-.232.129l-.1.026a.643.643,0,0,0-.342-.31A.565.565,0,0,0,15.551.5a.617.617,0,0,0-.53.323L15,.82A.748.748,0,0,1,14.77.691a.176.176,0,0,0-.123-.065.116.116,0,0,0-.058.026c-.084.071-.149.162-.226.239a.2.2,0,0,0-.065.142.141.141,0,0,0,.142.148l.058-.013v.342a.929.929,0,0,0-.53-.472,2.383,2.383,0,0,1,.478.807.892.892,0,0,0-.491-.523,3.085,3.085,0,0,1,.31.549.334.334,0,0,0-.291-.162.965.965,0,0,1,.271.426.257.257,0,0,0-.155-.045.235.235,0,0,0-.1.02.454.454,0,0,1,.213.168l-.1-.013a.355.355,0,0,0-.142.039.375.375,0,0,1,.252.11.069.069,0,0,0,.045.039l.1.135a.646.646,0,0,0-.161-.02.469.469,0,0,0-.329.116l.148-.013a.669.669,0,0,1,.317.071.324.324,0,0,0-.155.239.127.127,0,0,1,.071-.013.3.3,0,0,1,.174.071l-.032.142a.394.394,0,0,1-.155.039c-.1,0-.265-.052-.265-.181a.241.241,0,0,1,.1-.187l-.064-.007a.168.168,0,0,0-.168.174l-.052.071-.013.058.007.045a.269.269,0,0,0-.123-.032A.727.727,0,0,0,13.5,3.2a.2.2,0,0,0-.084-.051.127.127,0,0,0,.026-.078c0-.058-.065-.065-.11-.058l-.1-.2a.061.061,0,0,0,.013-.045c0-.071-.052-.1-.071-.162l.071.007c.148,0,.271-.1.426-.1v.02l-.065.058h-.006a.083.083,0,0,0-.065.071l.013.02c-.026,0-.065.013-.065.039s.026.026.032.045a.161.161,0,0,0-.084.142.264.264,0,0,0,.026.123.306.306,0,0,0,.136-.1.81.81,0,0,1-.032.116.227.227,0,0,0,.148-.181.052.052,0,0,0,.032-.032h.032l.019-.006a.071.071,0,0,0,.065-.071.09.09,0,0,0-.045-.077V2.667c0-.065.129-.148.129-.265,0-.084-.084-.1-.149-.11a1.745,1.745,0,0,1-.245-.039l.026-.032a.144.144,0,0,0,.084-.123.247.247,0,0,0-.039-.116.122.122,0,0,0,.02-.052.123.123,0,0,0-.032-.065.119.119,0,0,0-.058-.11.3.3,0,0,0,.039-.149.364.364,0,0,0-.155-.284l.077-.084c.039-.007.187.006.187-.071L13.685,1.1c.051-.006.051-.032.051-.077l.013-.019L13.743.982V.975c0-.039.052-.032.052-.065a.675.675,0,0,0-.084-.142A.388.388,0,0,1,13.7.62a.144.144,0,0,0-.039-.11V.485a.066.066,0,0,0-.032-.052c0-.077-.013-.161-.11-.174l.007.026-.02.09a.449.449,0,0,0-.155-.032.456.456,0,0,0-.162.032L13.188.336A.127.127,0,0,1,13.2.265a.217.217,0,0,0-.136.194.394.394,0,0,0-.142.368c-.007-.013-.032-.02-.045-.02a.146.146,0,0,0-.09.039L12.8.872a.117.117,0,0,0-.1.058.121.121,0,0,0,.077.052l-.026.058.1.026-.032.058h-.006a1.287,1.287,0,0,0-.5-.258,2.478,2.478,0,0,1-.433-.22L11.47.4A.188.188,0,0,0,11.4.53c0,.084.1.142.168.155l-.019.084c0,.09.084.129.155.142V.93c0,.09.084.116.161.11a.062.062,0,0,0,.013.045.143.143,0,0,0,.136.045c0,.032.007.058.032.071l-.168-.071C11.5.969,11.115.82,10.74.646a.2.2,0,0,0-.039.1c0,.11.155.136.232.149l-.006.077a.21.21,0,0,0,.226.226.171.171,0,0,0-.019.077c0,.083.069.125.139.141l.068.008M9.5,2.545H9.442c-.142.542-.349.8-.885.8-.568,0-.678-.084-.678-.717V1.841H8.17c.387,0,.633.084.665.549h.052l-.013-.626L8.886,1.2H8.835c-.032.42-.342.53-.685.53H7.879V.317h.207c.342,0,.84.013,1.053.368a1.408,1.408,0,0,1,.142.439h.052C9.319.93,9.319.749,9.319.556L9.332.168A13.6,13.6,0,0,1,7.711.22l-.9-.013V.265c.355.02.478.065.478.471v2.2c0,.4-.129.446-.478.472v.052c.336-.013.678-.013,1.014-.013a14.523,14.523,0,0,1,1.589.052l.035-.475L9.5,2.545m-2.984.91V3.4c-.349-.026-.485-.071-.485-.472V.736c0-.4.129-.452.485-.471V.207L5.735.22,4.966.207V.265c.361.02.478.065.478.471v.975L4.6,1.718H3.978V.736c0-.4.129-.452.484-.471V.207L3.688.22,2.919.207V.265c.355.02.478.065.478.471v2.2c0,.4-.129.446-.478.472v.052l.769-.013.775.013V3.4c-.349-.026-.484-.071-.484-.472V1.815l.71-.006.755.006V2.932c0,.4-.116.446-.478.472v.052l.768-.013.782.013M2.745,1.195,2.738.549,2.745.175a4.594,4.594,0,0,1-.51.032L1.621.213H1.13L.5.207A4.335,4.335,0,0,1,0,.175L.007.549,0,1.195H.045C.155.659.252.31.962.31h.1l.013.937V2.932c0,.355-.129.439-.543.472v.052l.84-.013.833.013V3.4c-.407-.032-.549-.116-.549-.472V1.247L1.673.31h.116c.646,0,.807.381.9.885h.051" transform="translate(7.233 0.787)"/>
        </g>
      </g>
    </g>
  </g>
</svg>
