<svg xmlns="http://www.w3.org/2000/svg" width="162.842" height="38.246" viewBox="0 0 162.842 38.246">
  <g id="BusinessLine_epaper" data-name="BusinessLine epaper" transform="translate(0 0)">
    <g id="BL_epaper" data-name="BL epaper" transform="translate(0 0)">
      <g id="Group_3043" data-name="Group 3043" transform="translate(0)">
        <path id="Path_129" data-name="Path 129" d="M-13.623-22.247A3.353,3.353,0,0,1-16.972-25.6a3.353,3.353,0,0,1,3.349-3.349A3.353,3.353,0,0,1-10.274-25.6,3.353,3.353,0,0,1-13.623-22.247Zm0-6.429A3.084,3.084,0,0,0-16.7-25.6a3.084,3.084,0,0,0,3.08,3.08,3.084,3.084,0,0,0,3.08-3.08A3.084,3.084,0,0,0-13.623-28.676Z" transform="translate(173.116 43.01)"/>
        <path id="Path_130" data-name="Path 130" d="M-4.946-9.892A1.815,1.815,0,0,0-3.13-11.707a1.815,1.815,0,0,0-1.815-1.816,1.815,1.815,0,0,0-1.815,1.816A1.815,1.815,0,0,0-4.946-9.892" transform="translate(164.439 29.122)"/>
        <path id="Path_127" data-name="Path 127" d="M-25.726-65.636l-.089-.178-.357-.03c-1.041-.089-1.249-.178-1.249-.416V-85.589l-6.1,1.487-.03.119.654.179c1.041.268,1.219.505,1.219,2.29v15.2c0,.357-.149.416-1.071.476l-.387.03-.119.178Zm4.668-14.779a2.43,2.43,0,0,0,2.528-2.439,2.4,2.4,0,0,0-2.528-2.438,2.413,2.413,0,0,0-2.528,2.438,2.449,2.449,0,0,0,2.528,2.439m4.1,14.779-.089-.178-.238-.03c-1.338-.178-1.546-.178-1.546-.416V-78.839l-6.1,1.7-.03.119.684.149c1.041.238,1.219.535,1.219,2.349v8.207c0,.357-.327.387-1.249.476l-.357.03-.089.178Zm8.534,0-.059-.178-.446-.03c-1.041-.059-1.16-.178-1.16-.416v-9.516A3.784,3.784,0,0,1-7.974-76.4c1.308,0,2.29.595,2.29,2.528v7.553c0,.238.059.416-.981.476l-.535.03-.089.178h7.7l-.089-.178-.268-.03c-1.4-.149-1.546-.238-1.546-.446v-8a5.485,5.485,0,0,0-.952-3.568A3.064,3.064,0,0,0-4.822-78.9c-1.933,0-3.777,1.546-5.234,2.736h-.03L-10-78.839l-6.185,1.7-.03.119.684.149c1.041.238,1.219.535,1.219,2.349v8.207c0,.357-.327.387-1.249.476l-.357.03-.089.178ZM5.5-74.557c.238-2.617,1.279-3.985,2.319-3.985,1.516,0,1.844,2.2,1.844,3.985Zm1.844,9.4c3.212,0,5.174-1.606,6.334-4.579l-.178-.089a3.679,3.679,0,0,1-3.6,2.319c-2.736,0-4.46-2.26-4.46-5.442a6.142,6.142,0,0,1,.03-1.279c.862,0,2.825.059,4.639.089l3.39.059a3.661,3.661,0,0,0,.059-.565c0-1.814-1.516-4.312-5.323-4.312A7.1,7.1,0,0,0,.946-71.791,6.385,6.385,0,0,0,7.34-65.16" transform="translate(141.221 85.649)" fill="#1e78c1"/>
        <path id="Path_128" data-name="Path 128" d="M-30.03-66.223c-.981,0-2.171-1.16-3.033-2.676v-7.434a3.629,3.629,0,0,1,2.319-1.011c2.022,0,3.241,2.23,3.241,5.323,0,3.182-.892,5.8-2.528,5.8m-7.047.535,2.409-1.16h.03a11.735,11.735,0,0,0,4.312.922c3.3,0,7.4-2.26,7.4-7.167,0-3.658-2.379-6.393-5.352-6.393a6.213,6.213,0,0,0-4.669,2.766l-.119-.089v-9.545l-6.066,1.487-.03.119.684.178c1.041.268,1.219.506,1.219,2.29v16.593ZM-6.538-67.68l.03-.119-.743-.149c-.981-.208-1.16-.565-1.16-2.26v-8.951h-6.245l.089.178.416.03c1.338.089,1.546.089,1.546.416v9.486a3.355,3.355,0,0,1-1.873.625c-1.427,0-2.379-.625-2.349-2.5l.089-8.237h-6.334l.089.178.416.03c1.516.119,1.635.238,1.635.357l-.119,8a5.021,5.021,0,0,0,.952,3.568,2.718,2.718,0,0,0,2.2,1.1c1.962,0,3.747-1.4,5.263-2.766h.089l-.119,2.825Zm5.382,1.755c3.925,0,5.561-2.171,5.561-4.431,0-2.5-2.2-3.42-4.074-4.193-1.695-.714-3.182-1.249-3.182-2.617A1.954,1.954,0,0,1-.77-79.307a3.182,3.182,0,0,1,1.606.476L3.6-75.2l.119-.059-.149-4.074L2.2-79.069A9.956,9.956,0,0,0-.71-79.574c-3.093,0-5.174,1.7-5.174,4.371,0,2.29,1.784,3.212,3.985,4.1,1.665.684,3.093,1.279,3.093,2.736a2.055,2.055,0,0,1-2.26,2.171c-1.873,0-2.617-1.041-3.925-3l-.8-1.219-.119-.059.089,3.747a12.938,12.938,0,0,0,4.669.8M9.4-81.12a2.43,2.43,0,0,0,2.528-2.438A2.4,2.4,0,0,0,9.4-86a2.413,2.413,0,0,0-2.528,2.438A2.448,2.448,0,0,0,9.4-81.12m4.1,14.779-.089-.179-.238-.03c-1.338-.178-1.546-.178-1.546-.416V-79.544l-6.1,1.695-.03.119.684.149c1.041.238,1.219.535,1.219,2.349v8.207c0,.357-.327.387-1.249.476l-.357.03-.089.179Zm8.534,0-.059-.179-.446-.03c-1.041-.059-1.16-.178-1.16-.416v-9.516a3.785,3.785,0,0,1,2.111-.625c1.309,0,2.29.595,2.29,2.528v7.553c0,.238.059.416-.981.476l-.535.03-.089.179h7.7l-.089-.179-.268-.03c-1.4-.149-1.546-.238-1.546-.446v-8a5.485,5.485,0,0,0-.952-3.568A3.063,3.063,0,0,0,25.636-79.6c-1.933,0-3.776,1.546-5.233,2.736h-.03l.089-2.676L14.277-77.85l-.03.119.684.149c1.041.238,1.219.535,1.219,2.349v8.207c0,.357-.327.387-1.249.476l-.357.03-.089.179Zm13.916-8.921c.238-2.617,1.279-3.985,2.319-3.985,1.517,0,1.844,2.2,1.844,3.985Zm1.844,9.4c3.211,0,5.174-1.606,6.334-4.58l-.178-.089a3.679,3.679,0,0,1-3.6,2.319c-2.736,0-4.46-2.26-4.46-5.442a6.126,6.126,0,0,1,.03-1.279c.862,0,2.825.059,4.639.089l3.39.06a3.635,3.635,0,0,0,.059-.565c0-1.814-1.516-4.312-5.323-4.312A7.1,7.1,0,0,0,31.4-72.5,6.385,6.385,0,0,0,37.8-65.866m12.4-.059c3.925,0,5.561-2.171,5.561-4.431,0-2.5-2.2-3.42-4.074-4.193C49.989-75.262,48.5-75.8,48.5-77.166a1.954,1.954,0,0,1,2.082-2.141,3.182,3.182,0,0,1,1.606.476L54.955-75.2l.119-.059-.149-4.074-1.368.268a9.957,9.957,0,0,0-2.914-.506c-3.092,0-5.174,1.7-5.174,4.371,0,2.29,1.784,3.212,3.985,4.1,1.665.684,3.093,1.279,3.093,2.736a2.055,2.055,0,0,1-2.26,2.171c-1.873,0-2.617-1.041-3.925-3l-.8-1.219-.119-.059.089,3.747a12.938,12.938,0,0,0,4.669.8m11.776,0c3.925,0,5.561-2.171,5.561-4.431,0-2.5-2.2-3.42-4.074-4.193-1.695-.714-3.182-1.249-3.182-2.617a1.954,1.954,0,0,1,2.082-2.141,3.183,3.183,0,0,1,1.606.476L66.731-75.2l.119-.059L66.7-79.336l-1.368.268a9.956,9.956,0,0,0-2.914-.506c-3.093,0-5.174,1.7-5.174,4.371,0,2.29,1.784,3.212,3.985,4.1,1.665.684,3.092,1.279,3.092,2.736a2.055,2.055,0,0,1-2.26,2.171c-1.873,0-2.617-1.041-3.925-3l-.8-1.219-.119-.059.089,3.747a12.939,12.939,0,0,0,4.669.8" transform="translate(39.159 86.354)"/>
        <path id="Path_131" data-name="Path 131" d="M0-67.983H161.86V-88.65H0Z" transform="translate(0 88.65)" fill="none"/>
        <path id="Path_1015" data-name="Path 1015" d="M38.232.266V.208l-.6.013L36.922.208V.266c.525.026.655.227.655.785v1.2c0,.726-.24,1.135-.947,1.135-.655,0-.83-.421-.83-1.083V.733c0-.4.129-.447.48-.467V.208l-.765.013L34.737.208V.266c.35.02.48.065.48.467V2.49c0,.83.681,1.024,1.31,1.024a1.062,1.062,0,0,0,1.187-1.206V1.051c0-.4.025-.682.357-.762Zm-4.26,1.628-.01.286c-.05.638-.288,1.058-.878,1.166a1.116,1.116,0,0,1-.266.02c-.324-.007-.448-.149-.448-.506V.35a1.448,1.448,0,0,1,.292-.032c.845,0,1.257.564,1.305,1.4l0,.172m.107,1.225.106-.091a1.576,1.576,0,0,0,.429-1.2c0-1.18-.849-1.621-1.829-1.621L32.1.221,31.3.208V.266c.357.02.48.065.48.473v2.2c0,.4-.13.448-.48.474v.052l.791-.013c.181,0,.363.013.544.019a2.609,2.609,0,0,0,.454-.013,2.061,2.061,0,0,0,.872-.264l.116-.08M31.131.266V.208l-.538.013L29.919.208V.266c.532.02.61.35.61.863V2.84L28.33.214h-.85V.273a.844.844,0,0,1,.285.045c.272.11.3.493.3.765V2.548c0,.421,0,.836-.473.869v.052c.181-.007.369-.02.551-.02.22,0,.435.013.648.02V3.417c-.506-.033-.6-.376-.6-.869V.953l2.127,2.555h.337V1.129c0-.377.011-.783.392-.853l.081-.009M27.3,3.469V3.417c-.35-.026-.486-.071-.486-.474V.739c0-.4.13-.454.486-.473V.208l-.772.013L25.749.208V.266c.356.02.48.065.48.473v2.2c0,.4-.13.448-.48.474v.052l.778-.013.772.013m-1.842,0V3.417c-.344-.026-.486-.071-.486-.474V.739c0-.4.136-.454.486-.473V.208l-.784.013L23.908.208V.266c.357.02.474.065.474.473v.979l-.837.007h-.629V.739c0-.4.123-.454.48-.473V.208l-.772.013L21.846.208V.266c.356.02.48.065.48.473v2.2c0,.4-.13.448-.48.474v.052l.778-.013.772.013V3.417c-.35-.026-.48-.071-.48-.474V1.822l.713-.006.752.006V2.944c0,.4-.117.448-.474.474v.052l.765-.013.784.013M21.1,3.32l.039-.011.039-.021.026.1c-.019,0-.026.013-.045.019l-.02-.053L21.1,3.32m-.078.11h-.059c.007-.052.026-.091.078-.091s.071.045.078.084l-.1.007m-.1-1.582h.006v.007m-.013.065-.019-.013c0-.013.006-.026.019-.026a.017.017,0,0,1,.02.019l-.005.015-.015,0m.007-.045-.026.013-.013-.032a.021.021,0,0,0,.019-.02h.007v.013l.013.026m-.065-.032-.006-.007.006-.013.013.013m-.026.059-.026-.013c0-.013.013-.02.026-.02s.013.007.013.02l-.013.013m.007-.084-.007.02.007.019a.045.045,0,0,0-.033.02V1.861L20.8,1.829h.007l.026-.02h.013M20.8,3.4l.024-.057a.061.061,0,0,1,.053-.028c.045,0,.052.071.052.1v.006L20.8,3.4m-.007-1.6L20.782,1.8l.006-.007L20.8,1.8m-.02-.033V1.8l.007.026-.007-.006-.032.013.006-.013-.013-.02.024-.008m.01.072-.015.007-.02-.02.007-.013h.013c.013,0,.019.007.019.013l0,.012m-.04-.09-.007-.006.007-.007.006.007m-.029-.013,0,.019-.02.007a.04.04,0,0,0,0-.039l.02-.007h.013l-.016.02M20.685,3.43l.013-.013.065.013m-.078-1.64.013-.007.013.02-.013.019a.021.021,0,0,1-.02-.019V1.8l.007-.006m0-.084-.007.013-.006-.013.006-.007M20.8,3.233l.134.016a.405.405,0,0,0,.207-.045l.039.039A.333.333,0,0,1,21,3.3c-.065,0-.311-.026-.331-.1l.007-.007.125.036m-.125.139-.013-.006c0-.026.013-.084.052-.084s.052.039.052.071l-.006.039-.039-.007c.006-.019.019-.032.019-.052l-.03.022-.035.017m-.02.1.02-.02a3.884,3.884,0,0,0,.474.052.209.209,0,0,0,.233-.195.138.138,0,0,0-.052-.11.179.179,0,0,1,.1.026.073.073,0,0,0,.019-.052.145.145,0,0,0-.039-.091.225.225,0,0,1,.123.195c0,.195-.208.259-.357.259a2.492,2.492,0,0,1-.318-.046l-.1-.012-.106-.007m-.026-1.738h.013c.013,0,.02,0,.02.013a.017.017,0,0,1-.02.02l-.013-.007V1.731l-.006-.1.045.058-.006.033-.014,0m-.064,1.691.045-.058-.006.013.013.026m-.071-1.627.014.03.005.035c0,.013-.007.071-.019.071s-.013-.058-.013-.071l0-.035.011-.03m0,.523,0,.04-.013.065c-.013,0-.013-.059-.013-.071s0-.065.013-.065l.011.031m0-.919v.018l-.006.008c-.013.007-.026-.084-.026-.1l.007-.026c.006,0,.013.02.018.045l.008.059m0,.681.02.008.006.018a.031.031,0,0,1-.032.033.036.036,0,0,1-.026-.033l.011-.018.021-.008m.01-.5.009.02a.029.029,0,0,1-.032.026.028.028,0,0,1-.026-.026.024.024,0,0,1,.026-.026l.023.006m-.015.93.011.024a.035.035,0,0,1-.032.032c-.026,0-.039-.013-.039-.032s.013-.033.039-.033l.021.009m.005-.774-.03-.028a.16.16,0,0,1-.041-.1.183.183,0,0,1,.046-.11.139.139,0,0,0-.026.1l.014.079.038.064m-.007.253-.035.059-.01.064a.183.183,0,0,0,.026.117.192.192,0,0,1-.052-.117l.019-.066.053-.057m-.1.486.014-.019.019-.014-.02.039m.007-1.362.023.006.009.02a.03.03,0,0,1-.032.026.028.028,0,0,1-.026-.026l.008-.02.018-.006m0,.143-.053-.059a.143.143,0,0,1-.024-.078.191.191,0,0,1,.045-.1.217.217,0,0,0-.019.1l.014.076.038.067m-.013.577-.017.072-.041.058a.178.178,0,0,0,.033-.13.242.242,0,0,0-.046-.13.165.165,0,0,1,.067.092l0,.038m-.02,1.414,0-.04-.023-.031h-.026a.372.372,0,0,1,.143-.214.382.382,0,0,1,.162.227h-.039L20.6,3.083l-.08-.062a.443.443,0,0,1,.033.156.24.24,0,0,1-.039.136l-.028-.05-.043-.04m-.049-.776.029-.009a.033.033,0,0,1,0,.065c-.026,0-.039-.013-.039-.033l.01-.023m0-.418-.013.052-.007-.046a.061.061,0,0,1,.013-.045l.007.039m.024-.713.015.034.006.038a.192.192,0,0,1-.052.117.253.253,0,0,0,.026-.117.17.17,0,0,0-.046-.123l.05.052m-.024.467.021.01.011.015a.042.042,0,0,1-.033.039c-.02,0-.026-.019-.026-.039l.008-.018.018-.008m-.026.61.029-.057.01-.067a.205.205,0,0,0-.033-.123.183.183,0,0,1,.059.117.15.15,0,0,1-.02.072l-.045.058m.026-.772-.005.038-.015.033-.013-.071.013-.077c.01,0,.015.018.017.036l0,.041m-.052.863.065-.1a.231.231,0,0,0,.046-.1c0-.071-.052-.136-.052-.214,0-.1.11-.156.11-.246s-.091-.136-.091-.227.065-.142.065-.227c0-.11-.143-.123-.143-.279,0-.059.045-.1.032-.162l.013.052-.019.11.006.048c.029.1.143.123.143.231,0,.084-.065.149-.065.227s.091.136.091.227-.1.156-.1.253c0,.071.045.136.045.207a.167.167,0,0,1-.052.11l-.091.091M20.328,1.3V1.265a.087.087,0,0,1,.013-.058l.007.032-.02.058m.033.059.021.012.011.027a.046.046,0,0,1-.033.026.035.035,0,0,1-.033-.032l.011-.021.021-.011m.046,1.9-.014.063-.038.048h-.026l-.032-.11m.045-2.3-.01.02-.015.006c-.019,0-.032-.007-.032-.026a.03.03,0,0,1,.032-.026l.015.008.01.018m.013,1.485-.016.027-.03.012a.038.038,0,0,1-.039-.039c0-.026.013-.045.039-.045l.03.013.016.032m.253.143.021-.25.011-.25L20.633,1.8a.031.031,0,0,0,.039.007l-.007.013a.043.043,0,0,0,.039.045l.033-.006-.006.006a.049.049,0,0,0,.045.046.036.036,0,0,0,.033-.02s.019.045.045.045l.033-.013a.042.042,0,0,0,.039.039c.033,0,.046-.019.046-.039s-.007-.039-.026-.039c.013-.007.026-.026.019-.033h.084l-.013.11v.007a.314.314,0,0,1-.143.078A.331.331,0,0,0,21.028,2l-.013.039a.22.22,0,0,1-.117.071.216.216,0,0,0,.1-.032L21,2.114a.272.272,0,0,1-.117.071.273.273,0,0,0,.1-.026L20.97,2.2a.6.6,0,0,1-.123.071.311.311,0,0,0,.11-.032l-.013.032-.1.059.084-.02-.039.091a1.027,1.027,0,0,1-.117.065l.1-.026a.446.446,0,0,0-.058.162l.013.078a.212.212,0,0,1-.084.084.341.341,0,0,0,.1-.052.689.689,0,0,0,.078.11.289.289,0,0,1-.09.065.164.164,0,0,0,.1-.046l.026.026a.165.165,0,0,1-.078.071.123.123,0,0,0,.09-.046l.026.026a.136.136,0,0,1-.084.065h.006A.128.128,0,0,0,21,2.944l.013.013a.152.152,0,0,1-.084.071.215.215,0,0,0,.1-.046l.039.071s-.039.065-.078.071a.164.164,0,0,0,.1-.039l.006.007c-.026.032-.052.065-.084.071a.181.181,0,0,0,.1-.039l.013.039a.325.325,0,0,1-.195.052.509.509,0,0,1-.233-.052.134.134,0,0,0-.02-.084h.033l.078-.007a.157.157,0,0,1-.162-.091l.052.007.059-.007a.248.248,0,0,1-.175-.058l.058.006.065-.006a.285.285,0,0,1-.207-.084.288.288,0,0,0,.1.02l.065-.006H20.62c-.214,0-.311-.208-.376-.383l.184.045.179.065m-.415-.733-.019-.006.026-.013.013.013m-.031.264-.015-.011c0-.026.039-.033.052-.033s.045.007.045.02-.045.026-.058.026l-.024,0m.018-.154-.02.006a.029.029,0,0,1-.019-.026l.006-.006.019.008.014.018m.013.019.024,0,.015.017c0,.019-.039.032-.052.032S20.16,2.017,20.16,2s.01-.016.021-.02l.031-.006m.013.182.024.005.015.021c0,.019-.045.026-.058.026v.019c0,.007,0,.045-.026.045s-.019-.039-.019-.045c0-.034.011-.057.035-.066l.029,0m-.078-.538.006-.016a.079.079,0,0,1,.052-.016c.013,0,.039,0,.039.019s-.039.032-.058.032l-.024,0-.015-.015m.045.752.03.01.015.029c0,.019-.026.039-.046.039a.043.043,0,0,1-.045-.039l.013-.029.032-.01M20.14,3.385l.182.007a.154.154,0,0,1-.078.019L20.192,3.4l-.052-.018m.052-1.893.028,0,.018.015c0,.026-.046.033-.059.033s-.045-.007-.045-.026.01-.016.022-.02l.036-.006m-.052.259h-.006c0-.02.013-.02.026-.026l-.013-.013c0-.02.045-.033.058-.033s.039.006.039.019c0,.033-.058.033-.078.033l-.006.015-.02.005m.02.285v.007l-.02,0-.006-.015V2.017l.018,0m-.018,1.324.028-.053a.079.079,0,0,1,.057-.024c.052,0,.065.046.065.084v.006l-.149-.013m.008-1.9-.015-.015c0-.02.046-.033.059-.033s.039.007.039.026-.046.026-.059.026l-.024,0m.024-.5-.019.018-.033.008c-.013,0-.039-.007-.039-.026s.046-.026.059-.026l.021.006.011.02m-.11.752V1.68c0-.013.007-.026.02-.026l.007.007-.008.021-.018.011m.013.4-.007.013-.013-.026.006-.013m.013.078.015.005a.056.056,0,0,1,.011.04c0,.013,0,.052-.026.052s-.02-.039-.02-.052l0-.028.015-.018m.019.188.03.012.015.027a.043.043,0,0,1-.046.039.034.034,0,0,1-.039-.039l.01-.027.029-.012m-.006-.818.012.027a.04.04,0,0,1-.039.045c-.032,0-.052-.013-.052-.045s.02-.039.052-.039l.027.012M20.1.83l-.019.041a.052.052,0,0,1-.039.017c-.039,0-.065-.019-.065-.058l.013-.039L20.1.83m-.046,2.241-.09-.05a1.509,1.509,0,0,0,.162-.382.148.148,0,0,0-.019-.071l.142-.006.052.11-.032.007a.207.207,0,0,1-.1-.039.181.181,0,0,0,.149.058.592.592,0,0,0,.11.149h-.026a.385.385,0,0,1-.207-.059.4.4,0,0,0,.259.084l.045.045-.032.026a.45.45,0,0,1-.259-.058.489.489,0,0,0,.233.091l-.039.045h-.013a.554.554,0,0,1-.24-.065.523.523,0,0,0,.24.1l-.026.039h-.013a.42.42,0,0,1-.246-.071.4.4,0,0,0,.246.1l-.006.026a.69.69,0,0,1-.2-.04l-.094-.04m-.09-1.444.013.019c0,.013-.006.013-.013.02s-.013-.006-.013-.02l.013-.019m0,.512.012-.006c.013,0,.02.039.02.052s-.007.046-.02.046-.026-.039-.026-.046l.006-.031.008-.015m0-.045.007.013-.02.026-.006-.026,0-.007m0,.435.013-.11.279.046.013.084L20.1,2.55m-.157.764.033-.064c.015-.022.032-.04.052-.04.052,0,.071.078.071.117V3.34l-.156-.026m.033-.992.03.011a.043.043,0,0,1,.016.035c0,.019-.026.039-.045.039a.044.044,0,0,1-.046-.039l.013-.035.033-.011m-.013-.784-.005.025-.015.02c-.019,0-.026-.039-.026-.046s.006-.052.026-.052l.015.021.005.031m-.071,1.55V3.08a.067.067,0,0,1,.026-.052.819.819,0,0,0,.486.156V3.2l-.006.026h-.059a.92.92,0,0,1-.357-.082l-.09-.061m.077-1.316L20,1.779a.117.117,0,0,1,.066.1.113.113,0,0,1-.1.11.108.108,0,0,1-.1-.11.112.112,0,0,1,.063-.1l.041-.009m-.1-.111,0,.02v.013l-.019-.026V1.654m.006.454h-.006V2.095a.029.029,0,0,1,.019-.026l.007.006L19.87,2.1l-.015.011m.007.032.012-.006c.019,0,.026.033.026.052s-.007.039-.026.039-.026-.032-.026-.039l.006-.031.008-.015m-.02.389.015-.059.005-.059.058.007-.013.117m-.023-1.524L19.9.988,19.92.979c.058,0,.091.195.091.24s-.026.1-.091.1-.091-.045-.091-.1l.026-.135.029-.073m-.027,1.8-.015.008-.013-.026h.033m.023-.464.016.03c0,.019-.026.039-.046.039a.037.037,0,0,1-.039-.039.043.043,0,0,1,.039-.046l.03.015m-.042-1.248-.033.17a.109.109,0,0,0,.11.11c.078,0,.1-.052.1-.117s-.046-.3-.1-.3c-.015,0-.029.016-.042.041l-.035.094m.032,2.082.019.02a.181.181,0,0,1,.014.084v.045l-.068-.025c-.026-.01-.049-.023-.049-.04s.016-.034.035-.049l.05-.035M19.8,1.511l.032-.013c.026,0,.039.02.039.046s-.013.045-.039.045a.044.044,0,0,1-.045-.045l.013-.033m.025.375.023.008.01.012c0,.013-.039.045-.052.052l.059-.013.013.013-.02.059a.115.115,0,0,1,.052-.033c.019,0,.019.059.013.071.006-.007.032-.059.045-.059s.033.046.039.052V2.036s0-.052.013-.052a.153.153,0,0,1,.059.039l-.02-.065c0-.006,0-.013.013-.013l.058.013c-.013-.006-.052-.032-.052-.052s.059-.026.065-.026-.065-.007-.065-.026.039-.046.052-.052l-.058.006L20.056,1.8a.125.125,0,0,1,.02-.065.087.087,0,0,1-.059.039C20,1.777,20,1.718,20,1.706c-.006.013-.026.059-.039.059s-.032-.046-.039-.059v.026c0,.02,0,.046-.019.046s-.039-.02-.052-.033a.087.087,0,0,1,.02.052c0,.013-.007.013-.02.013L19.8,1.8c.013.006.058.032.058.052s-.065.026-.071.026l.038.006m-.051-.161h.006c.013-.007.02.006.02.019H19.79l-.019-.019m.017.3-.017.008h-.007l-.006-.006c0-.013.019-.02.032-.02l0,.018m.011.136,0,.028c0,.013-.006.045-.019.045s-.026-.032-.026-.045,0-.046.026-.046l.015.018m-.04.533V2.691h.032l-.032-.013V2.672l.039.007-.033-.02.007-.006H19.8l-.026-.013.006-.007.033.007h.013c-.013,0-.033-.007-.033-.02V2.613l.046.006L19.8,2.6l.039-.007c.065,0,.084.052.1.1a.255.255,0,0,1-.09.033L19.8,2.719,19.758,2.7m-.013-.817.04-.021.045-.011c-.013-.013-.071-.039-.071-.058s.013-.013.019-.013l.084.019a.145.145,0,0,1-.039-.078l.006-.006V1.706c.02,0,.059.033.078.052L19.9,1.706l.006-.039c.032,0,.052.059.058.071.007-.007.033-.078.052-.078s.007.078.007.1c.019-.019.046-.052.071-.052l.006.02a.159.159,0,0,1-.026.071.126.126,0,0,1,.065-.019c.02,0,.026,0,.026.013a.086.086,0,0,1,.052-.02c.013,0,.039,0,.039.026s-.045.026-.052.026-.045-.006-.045-.019a.119.119,0,0,1-.065.045.162.162,0,0,1,.084.02l.046-.013c.013,0,.039.006.039.026s-.045.026-.058.026-.032,0-.039-.013a.186.186,0,0,1-.065.019c.013.006.065.039.065.058,0,0,0,.013-.026.013a.147.147,0,0,1-.071-.019.149.149,0,0,1,.039.078l-.013.013c-.026,0-.059-.033-.071-.052v.045c0,.007,0,.046-.007.046-.026,0-.045-.059-.052-.071-.006.013-.026.071-.052.071s-.007-.071-.007-.084a.137.137,0,0,1-.078.046l-.006-.013c0-.02.026-.052.039-.078l-.084.019-.013-.006h-.006c0-.02.058-.059.071-.065L19.782,1.9l-.037-.021m-.007.836.007-.007a.157.157,0,0,0,.207,0h.007v.007c0,.032-.091.058-.11.058a.183.183,0,0,1-.1-.039l.026.007-.033-.026M19.79.752l.041.017.017.041a.058.058,0,0,1-.059.059.064.064,0,0,1-.065-.059.056.056,0,0,1,.02-.041L19.79.752m-.025,1.575.012.027c0,.019-.019.045-.039.045a.055.055,0,0,1-.046-.045c0-.02.026-.039.046-.039l.027.012m0-.408-.005.015a.057.057,0,0,1-.04.011c-.013,0-.052-.006-.052-.026s.033-.026.046-.026l.031.008.021.018m-.006-.376-.017.011-.022,0a.07.07,0,0,1-.052-.013l-.006-.013.006-.013L19.7,1.5a.077.077,0,0,1,.052.022l.006.017m0,.188-.017.015-.022.005a.074.074,0,0,1-.052-.02v.033l-.006-.046.006-.006c.007-.013.026-.013.039-.013a.071.071,0,0,1,.046.017l.006.016m0,.292-.017.015-.022,0-.052-.013-.006-.013L19.667,2,19.7,2a.086.086,0,0,1,.052.011l.006.015m-.091-.4.016-.011.016,0c.019,0,.059.007.059.026s-.039.02-.046.02l-.046-.007-.013-.019.013-.007m0-.376.031-.018.04-.008a.136.136,0,0,1,.065.026V1.206l-.039-.013-.052.013c-.026,0-.046-.013-.046-.039a.051.051,0,0,1,.052-.052.108.108,0,0,1,.1.052l.007-.046c-.026-.065-.1-.006-.1-.071,0-.013.02-.026.039-.026a.086.086,0,0,1,.071.052l.013-.026c-.013-.059-.078-.013-.078-.071A.028.028,0,0,1,19.79.953c.033,0,.052.026.071.052l.006-.026c-.013-.039-.052-.026-.052-.058L19.829.9c.033,0,.046.033.059.052C19.894.94,19.9.94,19.907.94L19.9.889c0-.013.006-.026.019-.026s.019.007.019.026l-.013.046c.013.006.02.006.026.019C19.959.934,19.978.9,20,.9l.013.007.006.019c0,.019-.039.013-.045.052l.006.033a.075.075,0,0,1,.065-.059c.013,0,.026.019.026.033,0,.032-.059.013-.078.058L20,1.077c.02-.026.052-.059.084-.059a.042.042,0,0,1,.033.033c0,.045-.084.013-.1.065l.007.039a.112.112,0,0,1,.078-.039.059.059,0,0,1,.065.052.036.036,0,0,1-.032.039l-.078-.013L20.03,1.2l.007.046a.137.137,0,0,1,.065-.026.078.078,0,0,1,.078.071c0,.026-.013.039-.032.039s-.052-.039-.091-.039h-.032l-.007.026c.039,0,.1.026.1.058s-.045.065-.071.065-.032-.065-.071-.084l-.033.013a.062.062,0,0,1,.033.052.058.058,0,0,1-.058.059.053.053,0,0,1-.052-.059.054.054,0,0,1,.039-.059l-.033-.006c-.052.013-.045.084-.078.084s-.071-.039-.071-.059c0-.039.071-.065.1-.065l-.013-.026h-.026c-.052,0-.059.039-.1.039l-.02-.013a.036.036,0,0,1-.019-.033l.019-.039m0,.843h.02c.019,0,.059,0,.059.026s-.026.026-.039.026l-.039-.013a.029.029,0,0,1-.026-.02l.026-.02m0-.674.031.009c.011.006.021.014.021.023s-.039.02-.052.02-.045-.007-.045-.033l.018-.015.028,0m0-.383.018.007.008.012c0,.013-.019.019-.026.026h-.019c-.013,0-.052-.007-.052-.026s.013-.023.028-.024l.043,0m0-.1.009.007,0,.012-.013.026h-.026c-.013,0-.052-.007-.052-.033s.026-.019.039-.019l.039.007m0-.091.013.019-.013.007-.032.006c-.02,0-.058-.006-.058-.026S19.6.83,19.615.83l.026,0,.026.011M19.66,2.354l-.013.03-.033.015c-.019,0-.039-.026-.039-.045a.042.042,0,0,1,.039-.039l.033.012.013.027m0-1.6-.015.02-.024.006c-.02,0-.058-.007-.058-.033S19.6.733,19.6.733a.1.1,0,0,1,.052.014l.006.012M19.55,2.1l0,.038-.011.033c-.007,0-.007-.065-.007-.071s0-.071.007-.071l.011.033,0,.038m.01-.241.009.021a.031.031,0,0,1-.032.032.03.03,0,0,1-.026-.032c0-.013.013-.033.026-.033l.023.011m.106.008.013.006h-.013c-.019.007-.032.013-.032.033a.066.066,0,0,0,.032.052l.013.007h-.013c-.019.006-.039.019-.039.032a.075.075,0,0,0,.039.059l.007.006h-.007c-.019.007-.052.007-.052.039s.026.039.039.046c-.019.013-.045.026-.045.046a.039.039,0,0,0,.019.039.1.1,0,0,1,.039-.052l.026-.007.026.013c0,.026-.039.052-.052.065v.013l.02.006c.032,0,.039-.026.045-.045a.063.063,0,0,0,.052.045c.026,0,.039-.019.045-.045,0,.026.02.052.039.052s.046-.026.052-.052c.013.019.026.052.058.052s.039-.033.039-.052a.076.076,0,0,0,.065.058.067.067,0,0,0,.045-.032c.007.019.02.058.046.058a.048.048,0,0,0,.045-.039c.007.02.02.039.039.039a.043.043,0,0,0,.039-.045c0-.032-.039-.039-.065-.032.013-.026.071-.026.071-.059s-.039-.039-.071-.039c.019-.026.071-.026.071-.065s-.058-.033-.077-.033c.019,0,.071-.032.071-.058s-.052-.039-.071-.039c.019-.013.071-.032.071-.058s-.02-.039-.046-.039a.063.063,0,0,0,.046-.059c0-.026-.033-.039-.052-.039.013-.013.045-.032.045-.059s-.026-.032-.045-.032a.082.082,0,0,0,.045-.065c0-.019-.045-.032-.058-.039.019-.006.052-.026.052-.052s-.039-.039-.052-.039c.013-.013.052-.032.052-.065s-.039-.033-.052-.033A.075.075,0,0,0,20.27,1.3c0-.026-.045-.039-.065-.039a.086.086,0,0,0,.039-.058c0-.026-.039-.033-.052-.039a.063.063,0,0,0,.046-.052c0-.033-.046-.039-.071-.039.02-.013.046-.033.046-.059s-.046-.032-.065-.039C20.166.973,20.2.94,20.2.921S20.173.889,20.16.889l.019-.032.052.013a6.69,6.69,0,0,1,.1,1c0,.162,0,.337-.013.5A2.073,2.073,0,0,0,19.79,2.3h-.123l-.1.013a2.678,2.678,0,0,0,.039-.454V1.809A6.43,6.43,0,0,0,19.492.7l.091.007-.036.015-.015.013-.006.017c0,.039.032.046.058.052-.019.006-.052.026-.052.045S19.576.9,19.6.9c-.019.007-.058.026-.058.045s.046.046.065.052c-.013.006-.045.019-.045.039s.039.052.058.052a.072.072,0,0,0-.045.052c0,.026.039.039.058.045-.02.007-.058.02-.058.052s.039.039.065.045c-.019.007-.052.026-.052.046s.039.052.052.059c-.013.006-.039.026-.039.045s.039.039.052.046c-.013.013-.052.032-.052.052s.039.045.059.052c-.02,0-.046.019-.046.039s.026.046.052.052l.007.007h-.007c-.026.006-.045.013-.045.039l.013.033.032.019h.007l-.007.007c-.019,0-.045.019-.045.032l.015.032.03.027-.006-.052.006-.007.039-.006c.013,0,.052.006.052.026s-.033.019-.039.019a.054.054,0,0,1-.052-.019v.039m-.175,1.5,0-.02,0-.025a.791.791,0,0,1,.175-.007l.214.033.162.039a.63.63,0,0,0,.188.052h.013a.166.166,0,0,0,.188-.182.2.2,0,0,1,.039.091l-.007.065a.341.341,0,0,0,.123-.292.206.206,0,0,1,.052.13.25.25,0,0,1-.084.169l.1-.019.007.006-.057.055a.342.342,0,0,1-.215.068,1.429,1.429,0,0,1-.4-.1,1.375,1.375,0,0,0-.324-.071l-.032-.006-.076,0-.066.015m.059-1.608-.038.059-.014.064a.219.219,0,0,0,.032.11.147.147,0,0,1-.045-.116.134.134,0,0,1,.035-.094l.029-.023m.006-.37-.008.023-.018.009L19.5,1.414a.247.247,0,0,0,.058.117.158.158,0,0,1-.078-.136.129.129,0,0,1,.046-.1.168.168,0,0,0-.026.1c0-.013.013-.02.032-.02l.015.008.01.018m-.085.943.027-.009a.032.032,0,0,1,0,.065.036.036,0,0,1-.039-.033l.012-.023M19.479.863,19.5.871,19.5.9a.028.028,0,0,1-.026.026A.03.03,0,0,1,19.447.9l.009-.024.023-.009m-.006,1.42.02.008.006.018v.007l-.007-.007c-.019,0-.039.013-.039.026l-.013-.026.009-.018.024-.008m0-.082.041-.015a.23.23,0,0,0-.1.175L19.414,2.3a.11.11,0,0,1,.03-.075l.033-.026m-.017.811-.046.029a.126.126,0,0,1,.123-.11.164.164,0,0,1,.129.078.139.139,0,0,1,.02.078.191.191,0,0,1-.02.091.418.418,0,0,1-.084.123l-.091.019a.079.079,0,0,0-.039-.065c.071-.019.156-.052.156-.13A.112.112,0,0,0,19.5,3l-.045.01m.019-2L19.423.953A.149.149,0,0,1,19.4.876a.144.144,0,0,1,.039-.1.147.147,0,0,1-.019-.071V.687a.154.154,0,0,1,.032.084l-.006.02L19.44.785a.154.154,0,0,0-.019.078.235.235,0,0,0,.033.12l.026.03m-.013.609-.014.06-.038.05a.17.17,0,0,0,.033-.11A.205.205,0,0,0,19.4,1.5l.047.052.018.071m-.044-.492.018.071a.162.162,0,0,1-.052.117.188.188,0,0,0,.033-.117.172.172,0,0,0-.046-.123l.047.052m-.021.46.018.009.008.023c0,.013-.013.033-.026.033s-.026-.02-.026-.033l.006-.021.02-.011m-.02.123.011.031,0,.04c0,.007,0,.065-.013.065l-.013-.065.013-.071m.007.648.029.008.01.018c0,.026-.013.033-.039.033a.031.031,0,0,1-.033-.033l.011-.018.021-.008m-.033,1.05.017-.054a.047.047,0,0,1,.041-.03.055.055,0,0,1,.046.026.1.1,0,0,1-.047.036l-.057.022m.026-1.984,0,.038-.009.033c-.013,0-.019-.065-.019-.071s.006-.071.019-.071l.009.033,0,.038M19.4,2l.015.071a.177.177,0,0,1-.046.117.2.2,0,0,0,.033-.117.178.178,0,0,0-.052-.123l.029.023L19.4,2m0-.819.009.021a.035.035,0,0,1-.032.033.042.042,0,0,1-.033-.033.042.042,0,0,1,.033-.032l.023.011m-.017.89-.006.021-.02.011c-.013,0-.026-.019-.026-.032a.03.03,0,0,1,.026-.033l.02.009.006.023m.049-1.029.051.058a.135.135,0,0,1,.023.076c0,.084-.058.149-.058.22s.084.143.084.233-.1.156-.1.253c0,.071.059.129.059.207s-.1.143-.143.207c.026-.058.11-.149.11-.2,0-.078-.052-.136-.052-.214,0-.11.1-.162.1-.253s-.084-.136-.084-.233c0-.078.059-.136.059-.214,0-.117-.149-.123-.149-.285,0-.059.045-.1.032-.156a.059.059,0,0,1,.02.046c0,.039-.02.071-.02.11a.153.153,0,0,0,.023.084l.051.061M19.3,2.7l.007-.019a.179.179,0,0,0,.1-.195,1.029,1.029,0,0,0,.253.065l.162.013v.013a.125.125,0,0,0-.091.117.035.035,0,0,0-.02.026c0,.039.071.071.1.071,0,.02.007.039.026.039s.033-.019.033-.039c.032,0,.1-.032.1-.071a.028.028,0,0,0-.026-.026.124.124,0,0,0-.1-.117V2.568a1.448,1.448,0,0,0,.24,0v.013l-.018.1c-.033.107-.1.225-.132.332L19.92,3c-.039,0-.065.052-.065.084l.02.039c-.052.013-.117.065-.117.123,0,.032.026.045.045.058L19.667,3.3H19.6l.065-.071a.225.225,0,0,0,.052-.143.18.18,0,0,0-.052-.136.191.191,0,0,0-.129-.052c-.1,0-.13.071-.13.156v.032a.1.1,0,0,1,.091-.052.075.075,0,0,1,.078.078c0,.065-.078.11-.123.13V3.236c0-.039-.078-.058-.11-.065a.682.682,0,0,1-.045-.279l0-.1.008-.1M19.3.8,19.3.83a.142.142,0,0,1-.026-.084V.726l.023.039L19.3.8m0,1.452.007.02c0,.019-.013.1-.033.1s-.013-.013-.013-.02a.276.276,0,0,1,.024-.09l.014-.014m.007.141.012.021a.037.037,0,0,1-.039.033.031.031,0,0,1-.032-.033.035.035,0,0,1,.032-.033l.027.011M19.194,3.45l.023-.036a.059.059,0,0,1,.042-.022.223.223,0,0,1,.071.032l-.136.026m-.078-2.062,0-.021-.023-.011-.007.006.013.046-.013.059.024-.034m.048-.666L19.122.752l-.065-.11L19.1.661m-.052,2.717h-.019l.006-.052c.1,0,.272-.013.324-.123.02.006.059.019.059.039,0,.083-.168.118-.282.13l-.088.006M19.051,1.3l-.006-.033c0-.01-.011-.019-.02-.019l-.013.007-.007.006c0,.013.026.026.026.052a.529.529,0,0,1-.026.1l.033-.05.013-.06m-.018,2.158L19,3.45c.013-.039.026-.039.071-.039a.076.076,0,0,1,.071.052h-.065l-.044,0M19.07.746,19.018.733l-.084-.1.071.006M18.868.542l.01.021,0,.021L18.863.59a.054.054,0,0,1-.046-.065L18.83.519l.02.007.017.016m-.05.1.071-.013.077.1L18.9.733m-.091.019L18.727.674l.052-.026.084.091M18.655.713l.039-.026.078.084-.039.02m-.041-.3L18.72.486A.085.085,0,0,1,18.8.558a.079.079,0,0,1-.084.071.073.073,0,0,1-.078-.071.069.069,0,0,1,.024-.05l.025-.015m.04,1.281.069-.043a.416.416,0,0,0,.1-.122.554.554,0,0,0-.071.059.657.657,0,0,1-.188.1l-.006-.032.013-.046c.091-.046.156-.2.2-.195h.013a.391.391,0,0,1,.175.22c.039-.078.117-.1.143-.188a1.346,1.346,0,0,0,.059-.279l.09-.13.013.363v.033l-.084.128a1.259,1.259,0,0,1-.325.338.553.553,0,0,1-.24.1c-.026,0-.058-.007-.058-.039a.1.1,0,0,1,.026-.052A.351.351,0,0,0,19,1.751a.5.5,0,0,1-.337.207h-.007V1.945a.079.079,0,0,1,.02-.058c.136-.013.246-.045.3-.175-.039.078-.233.136-.318.156a.044.044,0,0,1-.026-.033.066.066,0,0,1,.026-.045l.076-.017M18.662.837,18.6.765l.026-.026L18.7.811M18.675.467l-.016.02-.03.006c-.013,0-.045-.007-.045-.026s.033-.026.045-.026l.03.006.016.021m-.1.324.071.071C18.623.876,18.61.9,18.591.9L18.539.824l.032-.032M18.565.6l.05.015a.053.053,0,0,1,.021.044.066.066,0,0,1-.071.058A.064.064,0,0,1,18.5.655a.054.054,0,0,1,.02-.044L18.565.6m-.007.337-.052.032-.032-.1a.044.044,0,0,0,.032-.019l.052.091m-.091,2.451.005-.045-.005-.04a.4.4,0,0,0,.272.136c.059,0,.156-.019.156-.1a.124.124,0,0,0-.026-.078c.059,0,.13.026.13.1,0,.117-.136.169-.233.169a.347.347,0,0,1-.23-.082l-.069-.054M18.493.724l.014.014.005.021a.059.059,0,0,1-.117,0c0-.033.033-.046.059-.046l.039.011m-.019.255-.046.026L18.39.9l.045-.019M18.4.467l.036.005c.038.009.074.034.074.073s-.065.077-.11.077-.1-.026-.1-.077a.079.079,0,0,1,.071-.074l.033,0m0,.545-.071.006-.032-.1L18.357.9M18.383.83l0,.021a.051.051,0,0,1-.047.025A.044.044,0,0,1,18.286.83c0-.02.026-.039.045-.039L18.367.8l.016.027m-.022,2.232-.075-.021a.079.079,0,0,1,.156.019v.013l-.08-.011m-.09-2.6L18.254.448c0-.02.032-.033.045-.033s.039.013.039.033-.026.026-.039.026L18.271.466m-.018,2.608.09.021.091.011c.033,0,.078-.007.078-.046a.246.246,0,0,0-.026-.084.044.044,0,0,0,.026-.046.137.137,0,0,0-.02-.077h-.045l.015-.06c.047-.122.172-.125.3-.148l.078-.019a2.62,2.62,0,0,0,.084.61h-.02a.245.245,0,0,0-.1.013c.039.013.071.032.071.071,0,.065-.1.084-.143.084-.13,0-.2-.091-.292-.169a.256.256,0,0,0-.162-.143l-.032-.02m.006-1.9-.013-.006.013-.013.02.013m-.071,2.321.057-.029a.063.063,0,0,0,.028-.049.06.06,0,0,0-.026-.052.119.119,0,0,0,.084-.123.15.15,0,0,0-.026-.091.24.24,0,0,1,.117.207c0,.092-.077.119-.156.129l-.077.007m.078-2.464h-.065L18.195.934l.059-.013m-.071.246.015-.023a.241.241,0,0,1,.089-.023l-.1.046M18.247.6V.616c-.006.039.039.071.078.071a.116.116,0,0,0,.058-.026c.007.052-.058.091-.1.091s-.1-.032-.1-.078A.074.074,0,0,1,18.2.623L18.247.6m-.013.279L18.219.9,18.195.9C18.176.9,18.15.9,18.15.876s.026-.032.045-.032l.024.009.015.023M18.242.5l0,.022a.05.05,0,0,1-.052.045c-.026,0-.058-.019-.058-.045a.057.057,0,0,1,.058-.052l.036.014L18.242.5m.017.715.028-.013,0-.032c.039-.013.071-.039.065-.078V1.083c-.019.033-.065.02-.1.02-.052,0-.123.039-.123.1l.019-.013.033.013.026-.007.045.013m-.1-.272.019.091-.058.007L18.1.947m0,1.2-.006-.04.033.065m-.039.81.013-.024a.087.087,0,0,1,.071-.028.069.069,0,0,1,.078.078v.026l-.162-.052M18.072,2.7l.029-.066c.164-.31.573-.318.561-.53l.052.006A.576.576,0,0,0,19,1.984a1.129,1.129,0,0,0,.344-.46,3.451,3.451,0,0,1-.155.992,1.017,1.017,0,0,1,.48-.11h.052l.11.006-.026.11-.136-.006-.253-.039-.007-.026v.032c0,.046-.058.169-.123.175l-.007.013a.319.319,0,0,1-.116.052.669.669,0,0,0,.11-.019l-.006.058-.117.039.117-.013-.007.039a.236.236,0,0,1-.1.046l.11-.006V2.9a.494.494,0,0,1-.11.045l.11-.013v.033a.217.217,0,0,1-.11.052h.02a.26.26,0,0,0,.1-.02l.006.026a.269.269,0,0,1-.123.059.292.292,0,0,0,.13-.026,1.058,1.058,0,0,0,.058.123.4.4,0,0,1-.324.116.1.1,0,0,0-.084-.058c-.078-.227-.006-.474-.091-.726a1.188,1.188,0,0,1-.078-.285v.019a1.091,1.091,0,0,0,.059.318l-.013.006a.152.152,0,0,1-.046-.09V2.49a.17.17,0,0,0,.033.11l-.026.019A.185.185,0,0,1,18.7,2.49v.032a.2.2,0,0,0,.039.1h-.026L18.678,2.6a.164.164,0,0,1-.055-.118V2.5a.187.187,0,0,0,.045.129.27.27,0,0,0-.123.033.158.158,0,0,1-.078-.136l-.006.026a.185.185,0,0,0,.058.123l-.019.013c-.059-.013-.084-.084-.1-.136a.2.2,0,0,0,.071.155.216.216,0,0,0-.039.143.654.654,0,0,1-.289-.081L18.072,2.7m-.01-2.13L18.1.564a.039.039,0,1,1,0,.078c-.026,0-.052-.013-.052-.039l.016-.029m.01.3.02.009L18.1.9c0,.007-.006.02-.026.02A.029.029,0,0,1,18.046.9l.008-.023.018-.009M18.1.72l-.006.019c0,.046.039.059.078.059l.039-.006c-.006.039-.052.052-.084.052S18.033.83,18.033.785a.053.053,0,0,1,.02-.04L18.1.72m-.023,2.037.046.035a.617.617,0,0,0,.353.094l.006.039c0,.026-.013.026-.039.026-.117,0-.389-.078-.422-.2,0-.013.007-.032.02-.032l.035.04m-.016-1.8.026.091-.065.013L18,.973m.058-.279-.01.023L18.02.726c-.013,0-.039-.013-.039-.032s.026-.033.039-.033l.029.009.01.024m-.108.213L17.975.9A.024.024,0,0,1,18,.927a.028.028,0,0,1-.026.026.03.03,0,0,1-.032-.026l.009-.02m-.016.863h-.006l.019-.006m-.019,1.122.024-.034.034-.024a.1.1,0,0,1,.065.084l-.013.052-.06-.034-.05-.044M17.955.739l.018.008.008.018a.024.024,0,0,1-.026.026c-.013,0-.033-.007-.033-.026l.011-.018.021-.008m-.013.4-.02-.013a.021.021,0,0,1,.02-.02c.006,0,.013.007.013.02l-.013.013m.019-.162.019.084-.052.019-.02-.078M17.9.818,17.91.83c0,.019-.006.032-.026.032A.03.03,0,0,1,17.858.83a.029.029,0,0,1,.026-.02l.02.007m0,.122.009.02c0,.02-.013.026-.032.026A.024.024,0,0,1,17.851.96a.024.024,0,0,1,.026-.026L17.9.94m0,.156-.045.02-.02-.071.039-.026M17.813.882l.023,0L17.845.9a.031.031,0,0,1-.032.033A.03.03,0,0,1,17.786.9l.008-.015.018,0m0,.3.008.015c0,.013-.013.013-.026.013s-.013,0-.013-.013.006-.02.013-.02l.018,0m.008-.044-.032.014-.027.019-.006-.078.046-.033m.006-.045L17.8,1.03l-.018.008a.03.03,0,0,1-.033-.026A.031.031,0,0,1,17.78.979L17.8.988l.008.024m-.1.195-.019-.02c.006-.032.006-.052.032-.065l.007.065-.02.02m-.032,2.009.012-.032.039-.019a.693.693,0,0,1,.337-.11c.1,0,.253.039.253.169a.116.116,0,0,1-.116.117.35.35,0,0,1-.1-.026.1.1,0,0,0,.1-.1c0-.078-.091-.091-.149-.091a.572.572,0,0,0-.318.1l-.065.039-.013-.02.027-.027M17.67,1.323l-.052-.006a.243.243,0,0,1,.058-.091l-.007.1m-.013.272-.071-.006a2.188,2.188,0,0,0,.091-.22l.019.006a.03.03,0,0,0,.033-.019V1.278l-.02-.065.02-.006.045-.033-.006.033c0,.019.026.039.046.039a.042.042,0,0,0,.006-.084l.1-.045-.006.013a.043.043,0,0,0,.039.045c.026,0,.039-.019.039-.045L17.968,1.1a4.75,4.75,0,0,0,.519-.091c.207-.1.175-.227.473-.253l.006.02A.03.03,0,0,1,18.947.8.508.508,0,0,1,19.09.791a.226.226,0,0,1,.22.214l-.007.071a.164.164,0,0,0-.084-.065c-.006-.084-.058-.188-.156-.188-.188,0-.071.2-.227.318.052-.013.091-.1.1-.149a.151.151,0,0,1,.1.091.154.154,0,0,0-.084-.13l.013-.032a.416.416,0,0,1,.11.1A.459.459,0,0,0,19,.9l.032-.02a.326.326,0,0,1,.084.1.546.546,0,0,0-.046-.11s.13.077.13.162a.1.1,0,0,1,.09.065.345.345,0,0,1-.084.143v.007a1.077,1.077,0,0,1-.052.259c-.026.078-.091.123-.11.194-.065-.259-.272-.188-.272-.473a.493.493,0,0,1,.019-.136.449.449,0,0,0-.052.181.284.284,0,0,0,.046.143.318.318,0,0,1-.071.181l.006-.052V1.511l-.026.11c-.019.013-.032.033-.058.039l.019-.078-.045.09-.039.02.013-.071a.191.191,0,0,1-.039.071l-.032.006.006-.045V1.628a.132.132,0,0,1-.026.071l-.039.007.013-.078-.033.078L18.4,1.7l.019-.078-.039.078-.039-.006a.328.328,0,0,0,.02-.084.2.2,0,0,1-.039.084h-.052a.311.311,0,0,0,.032-.11.2.2,0,0,1-.058.11h-.019a.344.344,0,0,0-.221.123c0-.046.13-.175.13-.311l-.007-.039a.908.908,0,0,1-.4.123l-.071.006m-.123.117.1.028.1.018.182.013v.013l-.084.11a.144.144,0,0,1-.071-.033.131.131,0,0,0,.059.046l-.02.032a.109.109,0,0,1-.065-.02l.052.039-.02.026-.032-.013-.039-.013.039.026L17.754,2l-.013.039h-.013a.085.085,0,0,1-.065-.019.136.136,0,0,0,.065.039h.006l-.006.032V2.069l-.007.026a.116.116,0,0,1-.065-.026.149.149,0,0,0,.065.045v.02a.153.153,0,0,1-.077,0,.127.127,0,0,0,.071.013v.026l.006.052a.223.223,0,0,1-.071.019h.026a.056.056,0,0,0,.045-.006l.007.013.013.019-.052.052c.013-.006.032-.013.039-.026l.026-.013.032.013a.143.143,0,0,1-.045.059A.116.116,0,0,0,17.8,2.3l.026.006.058-.013a.044.044,0,0,1,.026.033L17.9,2.289l.013-.007.026.026-.013-.039.013-.006.013.032-.007-.032L18.02,2.2a.036.036,0,0,0,.02.026l-.02-.046c0-.019.013-.1.033-.11l.019.02c.007.065.039.117.11.117.013,0,.059,0,.059.013-.007.071-.182.11-.24.123h.052a.32.32,0,0,1-.259.149l-.065-.013c-.2-.046-.259-.24-.259-.435l.02-.171.045-.166M17.516,1.6l.069.017.079.008h.065a1,1,0,0,0,.331-.084l.02.045c0,.052-.059.1-.078.143h-.045L17.942,1.7v.033H17.9l-.013-.039-.007.039h-.065l-.013-.039-.006.039H17.76l-.013-.046v.039h-.019L17.7,1.718a.078.078,0,0,1-.013-.052.073.073,0,0,0,0,.052l-.039-.013a.074.074,0,0,1-.02-.052.056.056,0,0,0,0,.045c-.045-.006-.207-.071-.214-.116l.049,0,.057.016m.043,1.7.027-.022.013-.027a.872.872,0,0,1-.285.1h.026a.665.665,0,0,0,.142-.02l.078-.03m-.08.082-.062.007a.407.407,0,0,1-.195-.046.53.53,0,0,0,.389-.246.109.109,0,0,1,.058.084.081.081,0,0,1-.026.052c-.007-.013-.026-.02-.039-.026a.072.072,0,0,1,.032.065c0,.042-.039.071-.086.09l-.073.02m.036-.344-.078.089a.387.387,0,0,1-.246.144l.019.006a.407.407,0,0,0,.294-.2l.011-.042m-.363.3V3.307a.217.217,0,0,0,.039-.065.4.4,0,0,0,.272-.389c.026.019.078.09.071.129a.325.325,0,0,0,.11-.065.433.433,0,0,1-.227.331l-.131.05-.135.04M17.183,2.3l-.083.046-.073.051A.109.109,0,0,0,17,2.321a.459.459,0,0,1,.13-.026h.052m-.054-.137-.053.045A.322.322,0,0,0,17,2.315l-.039-.046a.99.99,0,0,1,.117-.116.705.705,0,0,0-.13.1l.026-.071a.291.291,0,0,1,.175-.065h.039l-.06.038m-.012-.3-.074.124a2.322,2.322,0,0,0-.113.264L16.9,2.224a1.657,1.657,0,0,1,.091-.214,1.219,1.219,0,0,0-.11.2L16.846,2.2l.084-.22s.162-.207.279-.233l-.092.111m-.317.6.028.035.037.03.026-.026-.048-.015m-.069-.134.084.026-.026.026m-.065-1.349.006-.019.033.019m0,1.466-.037-.027c.006.026.039.046.065.065l.02-.026-.047-.012m-.037.2.084-.091a.76.76,0,0,1,.175-.019.274.274,0,0,1,.162.039h-.026a.493.493,0,0,0-.311.11l-.042-.024-.042-.015m-.013.59.013-.071a.363.363,0,0,0,.149.046c.11,0,.168-.1.214-.182a.174.174,0,0,1,.02.1.129.129,0,0,1-.046.1.148.148,0,0,1,.019.071l-.006.057-.02.037-.008-.045a.173.173,0,0,0-.124-.078L16.755,3.3m.1-1.061.065.04A.165.165,0,0,1,17,2.393a.05.05,0,0,1-.052.045.184.184,0,0,1-.078-.026l.071-.084H16.9a.149.149,0,0,1-.149-.078c.007-.026.026-.026.046-.026l.064.015M16.8,1.155l-.035-.005-.03-.015.007-.019a.09.09,0,0,1,.1-.026l.019-.033L16.814,1A.149.149,0,0,1,16.892.96a.161.161,0,0,1,.026.078.116.116,0,0,1-.071.108l-.046.009m-.065.8V1.744a2.859,2.859,0,0,1,.292-.486,3.338,3.338,0,0,0-.292.428V1.563a1.129,1.129,0,0,1,.474-.48,2.73,2.73,0,0,0-.389.631l-.084.244m0,.195v-.11a2.266,2.266,0,0,1,.175-.357.79.79,0,0,1,.318-.318,3.567,3.567,0,0,0-.4.824L16.8,2.185l-.052.013a4.655,4.655,0,0,1,.292-.6l-.16.271-.145.281m.078.408-.078-.039.059.065M16.734.949,16.8.921,16.775.889a.149.149,0,0,0-.078.117l.014-.033.023-.023M16.7,2.555l.025.035.04.03.026-.026-.048-.017m.022-1.7L16.736.843a.165.165,0,0,0-.077.116A.1.1,0,0,1,16.7.906l.066-.03M16.723.83,16.7.8a.144.144,0,0,0-.078.117A.081.081,0,0,1,16.66.86l.063-.03m-.1-.013.061-.033L16.665.759a.149.149,0,0,0-.078.11l.036-.052m.022-.078-.02-.026a.149.149,0,0,0-.078.117.12.12,0,0,1,.036-.058l.061-.034M16.613.694l-.026-.02a.13.13,0,0,0-.078.11A.106.106,0,0,1,16.546.73l.066-.036M16.5,3l-.018-.044a.125.125,0,0,0-.105-.079l-.019.006c0,.015.061.044.1.079L16.5,3m-.033-.6-.038.029-.027.035-.071.007a.456.456,0,0,0,.084-.11l.065-.013.071.013-.084.04m-.13.567.04.03.038.038c-.006-.039-.045-.117-.09-.117h-.046l.058.049m-.123-1.125.056-.008.061,0a.056.056,0,0,0,.045,0l.007.013-.169-.007M16.328.655,16.315.642l-.136.1.013.013m-.033,1.867.077-.057.072-.066L16.4,2.5a.3.3,0,0,1,.221.071l-.1-.013a.778.778,0,0,0-.184.026l-.179.045M16.306.51,16.289.5a2.2,2.2,0,0,0-.169.175l.006.013c.013-.013.188-.136.188-.162L16.306.51m-.219,2.511h-.006c0,.026.058.046.078.059l.052.058a.132.132,0,0,0-.079-.109l-.044-.007m.046-1.77.019-.062a.065.065,0,0,1,.059-.028l.026.007a.215.215,0,0,0-.052.129.135.135,0,0,0-.1.071.074.074,0,0,1-.02-.052.05.05,0,0,1,.026-.042l.046-.023m-.071.713.007-.013.032.006a.072.072,0,0,0,.065-.077c.007-.013.02-.013.039-.013h.175v.052l-.1.007.1.019v.02h-.311m.1-1.478L16.139.48l-.1.11L16.061.6m.039.59-.01.03-.029.015c-.019,0-.039-.026-.039-.045a.043.043,0,0,1,.039-.046l.029.013.01.033m.02,1.978-.013-.04a.128.128,0,0,0-.1-.077h-.019l.058.048.078.068m.1-2.976L16.212.179,16.2.169a3.06,3.06,0,0,0-.233.376l.013.006L16.1.373l.118-.178M15.887,2.1l.007-.019a.347.347,0,0,0,.149-.1h.331l-.013.052-.11.013.11.013-.013.039h-.461M15.958.363,15.945.35l-.071.136L15.9.5m.241,2.9.09-.013a.36.36,0,0,0-.182-.046l-.1.007c.006.071-.065.117-.117.149l.2-.067.109-.03m-.189-.862-.1.013.065.006-.059.026a.305.305,0,0,0-.046-.078h.214l-.078.032M15.8.467V.461L15.867.3c0-.019-.02-.026-.033-.026s-.039.1-.039.116l-.02.071.02.007m-.039,1.757V2.179c.006-.02.013-.033.039-.033l.013.007c.013-.046.065-.02.071-.039h.46l-.013.033-.117.02.11.013-.026.045h-.538m-.007.525h-.006a.106.106,0,0,0,.013-.065l-.007-.039.046-.006a.776.776,0,0,0,.616-.746c0-.136-.09-.493-.272-.493l-.039.013a.125.125,0,0,1,.117-.091c0-.077.013-.136.1-.168l-.007.052c0,.233.195.337.195.687a.857.857,0,0,1-.713.849l-.046.006m.538-.512-.026.045-.123.013.1.013-.033.046h-.467l-.007-.02c0-.013.026-.026.026-.058V2.237h.525m-.512.883-.02-.029-.032-.012a.294.294,0,0,1,.052.195.192.192,0,0,0,.013-.084l-.013-.07m-.039-.507-.019-.02.019-.058.026-.045.033.032a.131.131,0,0,1,.039.071L15.8,2.6l-.059.013M15.718.292h-.026l-.013.143.02.006m.026,2.244-.02.058a.061.061,0,0,1-.044.033c-.013,0-.013-.013-.02-.019a.143.143,0,0,0,.033-.078.167.167,0,0,0-.026-.065h.019a.053.053,0,0,1,.044.023l.015.048M15.627,0l-.02.009L15.6.033l.013.415h.026l.007-.409,0-.027m0,1.384.006.011c0,.013-.007.02-.033.02a.017.017,0,0,1-.019-.02c0-.013.013-.013.026-.013l.02,0m-.012,1.736-.015-.046a.23.23,0,0,0-.019.091.88.88,0,0,0,.019.136.843.843,0,0,0,.02-.136l-.005-.046m.022-1.693.015.02c-.006.02-.019.02-.052.02s-.045-.013-.039-.026.02-.02.046-.02l.03.006m-.031,1.3-.021.023-.024.01-.026-.013a.1.1,0,0,0,.026-.071l-.006-.045c0-.013.013-.02.026-.02s.045.039.045.059l-.02.058m-.09-1.225.018-.017a.382.382,0,0,1,.1,0c.02,0,.046.006.052.019s-.006.026-.026.026a.438.438,0,0,1-.127-.008l-.022-.018m0-1.219H15.5l.026.149.019-.006m.065,1.115.091-.006a.048.048,0,0,1,.039.039.034.034,0,0,1-.039.039H15.53c-.02,0-.033,0-.033-.032s.013-.045.039-.045l.078.006m-.078,1.063L15.465,2.6h.1m-.123.59.013.084V3.268A.266.266,0,0,1,15.5,3.08c-.023,0-.037.018-.046.04l-.012.07m.026-1.533.052-.023a1.073,1.073,0,0,0,.208,0,.107.107,0,0,1,.071.046.162.162,0,0,1,.019.084l-.019.1A.5.5,0,0,1,15.7,2c-.052.065-.052.188-.091.221a.149.149,0,0,1-.02-.071c0-.13.1-.195.1-.279,0-.013,0-.046-.02-.046a.017.017,0,0,0-.019.02l.006.045c0,.084-.11.182-.078.331a.122.122,0,0,1-.045-.071c-.02-.052-.013-.123-.039-.162a.37.37,0,0,1-.1-.194.15.15,0,0,1,.032-.1l.039-.033m-.023-.006-.042.035a.181.181,0,0,0-.032.117c0,.129.1.155.117.246.013.059.026.156.091.175l.026.032c.078-.052.071-.169.156-.259l.039-.058a.263.263,0,0,0,.039-.162.176.176,0,0,0-.039-.123.157.157,0,0,0-.059-.026.051.051,0,0,0,.02-.045c0-.026-.026-.039-.046-.046l.007-.026c0-.019-.032-.032-.052-.032l.013-.02a.028.028,0,0,0-.026-.026l.007-.019a.044.044,0,0,0-.046-.039c-.026,0-.045.02-.032.059-.013,0-.02.013-.02.026l.007.02c-.02.006-.039.006-.046.026v.006l.007.026c-.033.007-.046.02-.046.052a.039.039,0,0,0,.019.039l-.062.024M15.425.362,15.4.3,15.381.273c-.013,0-.019.013-.019.026l.071.169.013-.007-.02-.1M15.277.35l-.013.013L15.323.5l.019-.013m0,.605.087-.024a.92.92,0,0,1,.183-.017,1.654,1.654,0,0,1,.182,0,.727.727,0,0,1,.227.078.08.08,0,0,0-.033.065L16,1.226a.551.551,0,0,0-.2-.058l-.182-.02a.684.684,0,0,0-.324.078l.007-.032a.08.08,0,0,0-.033-.065l.081-.037M15.31,2.536l-.046-.026h.285a.055.055,0,0,0,.046.013c.052,0,.006-.058.091-.045,0-.1.071-.02.065-.1h.441l-.039.039-.129.013.1.02-.071.046H15.8V2.484l-.046-.032-.058.129c-.084.007-.188,0-.272,0l-.052-.019.071-.006-.129-.02m-.046-1.342-.012.03-.027.015a.043.043,0,0,1-.039-.045c0-.026.013-.046.039-.046l.027.013.012.033M15.128.837,15.219.72a.551.551,0,0,1,.4-.175A.568.568,0,0,1,15.8.577a.62.62,0,0,1,.3.285A2.244,2.244,0,0,1,15.8.9h-.182a1.778,1.778,0,0,1-.368-.033L15.128.837M15.186,3.1l.059-.048h-.02a.137.137,0,0,0-.117.117l.078-.068m-.046-.69L15.116,2.4l-.02-.022h.369c.007.013.033.039.033.059a.057.057,0,0,0,.033.059h-.3l-.065-.046.091-.013-.117-.02M15.083.48l-.02.006.1.117L15.18.59m-.032.661.054.023a.049.049,0,0,1,.03.042.08.08,0,0,1-.026.052.136.136,0,0,0-.1-.071.212.212,0,0,0-.052-.129l.026-.007a.064.064,0,0,1,.069.058l0,.033m0,1.77h-.007a.133.133,0,0,0-.129.117c.019-.019.032-.045.058-.058l.068-.04.009-.018m0-2.672L15.07.225,15.024.169A.035.035,0,0,0,15,.195c0,.019.22.324.24.356l.013-.006-.112-.2m.241,1.888.013.026v.013l-.013.006.071.071h-.376l-.039-.046.1-.013-.123-.013c-.007-.019-.02-.026-.02-.045h.382m-.188,1.2.2.067c-.052-.032-.123-.078-.116-.149l-.1-.007A.341.341,0,0,0,15,3.391l.09.013.111.03m.157-1.265.024.055h-.389l-.026-.045.1-.013-.1-.02-.013-.033h.376m-.4-.4.033-.079c.041-.09.105-.2.188-.2.032,0,.052.026.084.039L15.219,1.4a.1.1,0,0,0,.045-.084l-.013-.033a.658.658,0,0,1,.363-.1L15.8,1.2a.8.8,0,0,1,.24.078l-.013.039a.1.1,0,0,0,.045.084l-.007.071c.026-.013.046-.039.078-.039.136,0,.22.279.233.383l-.013.006a.043.043,0,0,1-.039-.026v.026l-.065.007-.039-.007-.02.026h-.013a.059.059,0,0,0-.052.026l.006.013a.056.056,0,0,1-.039.045l-.032-.006L15.99,2a.477.477,0,0,1-.11.065c-.013.007-.013.02-.02.039-.026.007-.052.007-.065.026-.039-.007-.052.019-.071.052a.236.236,0,0,1,.02.1c0,.019-.026.026-.026.058v.059l-.039.017a.056.056,0,0,0-.019.041c-.052,0-.039.019-.059.045l-.006.007a.1.1,0,0,1-.046-.02.059.059,0,0,1-.026-.052c0-.039-.071-.123-.1-.149l.006-.019c0-.039-.065-.123-.084-.156V2.082c0-.046-.032-.1-.032-.149,0-.013.019-.019.026-.026-.02-.026-.02-.1-.039-.1s-.02.033-.026.039c0,.026-.039.033-.059.033a.112.112,0,0,1-.1-.059c.026,0,.071,0,.071-.032a.017.017,0,0,0-.02-.02l-.039.013a.055.055,0,0,1-.032-.019c-.045-.046-.058-.02-.091-.039L15,1.731h-.02l-.052-.019m0,.039V1.738l.033.013m.344.24.02.091v.026H14.94l-.013-.046.11-.019-.117-.013-.007-.039M14.927.5l-.006.007-.013.019c0,.026.175.149.188.162l.013-.013-.086-.09L14.966.528,14.927.5m-.019,1.414V1.881h.207V1.868h-.207l.006-.033.117-.019-.117-.007.007-.039h.149L15.1,1.8h-.013c.026.065.058.11.13.11a.1.1,0,0,0,.078-.039L15.3,1.9l-.013.032.007.039h-.383l-.006-.032.1-.02-.1-.006M15.031.759l.013-.013-.136-.1-.013.013m.058,2.27h-.045c-.046,0-.091.078-.091.117L14.851,3l.1-.078m-.039-1.5.03-.065a.368.368,0,0,0,.022-.207.154.154,0,0,1,.1.168.139.139,0,0,1,.123.091L15.147,1.4c-.182,0-.272.356-.272.493a.777.777,0,0,0,.655.752l.013.039a.186.186,0,0,1-.02.065.871.871,0,0,1-.752-.856.751.751,0,0,1,.079-.355l.064-.112m-.053,1.008-.038-.029-.084-.04.065-.013.071.013a.458.458,0,0,0,.084.11l-.071-.007-.027-.035m.014.45-.02-.006c-.065,0-.1.065-.117.123a.285.285,0,0,1,.076-.071l.061-.046M14.754.73l.022.024.014.031a.143.143,0,0,0-.077-.11l-.02.02.061.036m-.087,1.838.048-.036a.363.363,0,0,1,.172-.035l.091.007a.905.905,0,0,0,.149.123,1.708,1.708,0,0,0-.363-.071l-.1.013m.048-1.8L14.737.8l.014.032a.165.165,0,0,0-.077-.117l-.02.026.061.034m0,.1L14.706.836a.19.19,0,0,0-.071-.077l-.02.026.061.033.037.052m.052,1.705.219.036.209.055a1.191,1.191,0,0,0,.331.117l.052.019.039-.013.046.02c.026,0,.039-.02.058-.026h.039l.039-.007a1.709,1.709,0,0,0,.3-.11,2.107,2.107,0,0,1,.422-.091.259.259,0,0,1,.156.045.259.259,0,0,0-.246-.142.246.246,0,0,1,.162-.1.146.146,0,0,0-.11-.039h-.052a.861.861,0,0,0,.117-.441.875.875,0,0,0-.149-.486.423.423,0,0,1-.052-.2l.013-.1-.09.039a.1.1,0,0,0-.059-.013c-.032,0-.065.006-.078.039-.033-.078-.266-.136-.337-.149a1.737,1.737,0,0,0-.182,0,.643.643,0,0,0-.4.1.085.085,0,0,0-.065.052.092.092,0,0,0-.078-.039.1.1,0,0,0-.058.013L14.927,1.1l.013.1a.42.42,0,0,1-.052.2.876.876,0,0,0-.149.486.861.861,0,0,0,.117.441H14.8a.16.16,0,0,0-.116.039.245.245,0,0,1,.168.1.275.275,0,0,0-.253.142l.081-.032.081-.013M14.641.86l.025.024.015.03A.169.169,0,0,0,14.6.8l-.02.033.064.03M14.6.906l.023.024.015.03a.149.149,0,0,0-.078-.116l-.026.032.066.03m.005,1.65-.046.022-.051.017.026.026.04-.03M14.6,1.005,14.6.969a.181.181,0,0,0-.071-.08L14.5.921a.147.147,0,0,1,.089.054l.015.03m-.11.039.026-.019.013.019m-.01,1.8.034-.014.073-.01.046-.033-.046-.006a.164.164,0,0,0-.136.084l.029-.021m-.016-.258.059-.065a.252.252,0,0,1-.084.039l.026.026m-.039-.195-.026-.026.078-.026m.02.143-.044.027-.053.012.033.026m.026-.1-.043.024-.048.015.032.026M14.524,1.1l.034.02v.019l-.027.015-.031.005a.111.111,0,0,1-.11-.117A.156.156,0,0,1,14.408.96.149.149,0,0,1,14.486,1l-.046.058.02.033h.026l.038.006m-.187,1.375h.019c.091,0,.246-.117.227-.22h.006V1.135a.214.214,0,0,0-.156-.2,2.281,2.281,0,0,1,.233-.26l.039-.013a.16.16,0,0,1,.1.052,1.38,1.38,0,0,0,.876.227L15.8.934a1.205,1.205,0,0,0,.694-.221.146.146,0,0,1,.1-.052l.039.013a3.1,3.1,0,0,1,.24.26.22.22,0,0,0-.162.2v.934l.006.195a.285.285,0,0,0,.234.207l-.188.24a.342.342,0,0,0-.136-.026c-.26,0-.506.253-.824.292l-.169.006c-.408,0-.648-.292-.947-.292l-.117.013-.227-.233m.168-.246.028,0,.018.023c-.039.078-.11.084-.188.078a.41.41,0,0,0,.071.084.184.184,0,0,1-.078.026.046.046,0,0,1-.052-.045c0-.058.069-.124.137-.153l.064-.015m-.253.752.039-.06a.628.628,0,0,1,.454-.206.461.461,0,0,1,.259.1,1.25,1.25,0,0,0,.681.2h.11a1.236,1.236,0,0,0,.512-.214.454.454,0,0,1,.24-.091c.162,0,.4.078.422.266a.714.714,0,0,0-.117-.02.176.176,0,0,0-.136.059.377.377,0,0,0-.285-.169.468.468,0,0,1,.318.428l-.058-.007-.156.007a.232.232,0,0,1-.117-.02.316.316,0,0,0-.318-.279h-.006a.425.425,0,0,1,.3.389.619.619,0,0,0-.318-.091.378.378,0,0,0-.149.026V3.275a.332.332,0,0,0-.091-.22.349.349,0,0,1,.065.195.207.207,0,0,1-.1.182c-.078.058-.13.058-.182.149-.078-.149-.285-.117-.285-.331a.4.4,0,0,1,.058-.195A.37.37,0,0,0,15.3,3.3a.4.4,0,0,0-.149-.026.6.6,0,0,0-.318.091.434.434,0,0,1,.3-.389h-.013a.308.308,0,0,0-.3.279.271.271,0,0,1-.123.02l-.149-.007-.065.007a.469.469,0,0,1,.318-.428.389.389,0,0,0-.285.169.177.177,0,0,0-.136-.059l-.123.02m.02-.584L14.2,2.342,14.123,2.3h.045a.265.265,0,0,1,.123.026l-.019.071m-.005-.137L14.224,2.2a.517.517,0,0,0-.108-.083h.033a.264.264,0,0,1,.175.065l.026.071-.123-.1a.886.886,0,0,1,.1.116l-.032.046-.031-.059m.008.412-.086-.021L14.1,2.639a.329.329,0,0,1,.175-.039.689.689,0,0,1,.162.019l.078.091-.048.017-.043.022L14.357,2.7l-.082-.034m.083-1.384.11.14.09.139v.123a2.757,2.757,0,0,0-.285-.428,2.468,2.468,0,0,1,.285.486v.214l-.08-.241a2.668,2.668,0,0,0-.387-.634.53.53,0,0,1,.14.081l.127.121m-.042.62.047.074.09.22-.032.013a1.219,1.219,0,0,0-.11-.2,1.658,1.658,0,0,1,.091.214l-.039.019a1.259,1.259,0,0,0-.273-.5.353.353,0,0,1,.163.09l.062.07m.009-.312.064.093a2.244,2.244,0,0,1,.169.357v.11l-.139-.281L14.265,1.6c.1.195.208.4.285.6a.093.093,0,0,0-.071-.006,3.92,3.92,0,0,0-.415-.824.544.544,0,0,1,.186.134l.074.09m.148,1.7-.114.03-.119.016c-.117,0-.363-.033-.363-.188a.174.174,0,0,1,.033-.1l.006.032c.007-.149.078-.156.188-.195a.23.23,0,0,0-.09.162c0,.13.149.22.266.22l.047-.005.046-.014.088-.039.013.078.006.02v-.02h.02l.091.013a.917.917,0,0,1-.409.13l-.227-.019-.049,0-.049.015V3.424c.02-.052.084-.078.13-.1a.952.952,0,0,0,.266.045.359.359,0,0,0,.171-.041l.049-.037m-.706-.708.032,0-.045-.039-.013.026m.052-.162-.026-.019-.032.084m.058.149-.052-.046-.013.02.03.02m.009.019-.045-.026-.006.013c.006.013.032.013.045.013h.006m-.078-.266-.021.055-.025.055.071-.1M13.637,2.2l.011-.023,0-.028-.007-.039.02.006.039-.006a.148.148,0,0,1-.039.078l-.026.012m.013.551.059.057a.19.19,0,0,0,.083.028.043.043,0,0,1-.026.039H13.76a.152.152,0,0,1-.123-.117l.013-.007M13.663.876V.863l-.052.013m0,1.07.008-.026,0-.026h.013l.033-.013.019.052c0,.013,0,.026-.013.033l-.058-.02m.058.661.026.03c.024.041.047.107.11.107a.073.073,0,0,0,.052-.02l.02-.013a.067.067,0,0,1,.026.052.055.055,0,0,1-.046.052l-.026.007a.249.249,0,0,1-.22-.156l.022-.039.036-.02M13.6.389,13.6.324,13.6.279a.105.105,0,0,1,.065.1V.415L13.6.389m0,.441L13.61.8l.027-.01L13.656.8m-.078,2.444.075-.029.075-.009a.417.417,0,0,1,.129.019v.006a.167.167,0,0,0,.059.059l-.059-.007h-.013a.377.377,0,0,0-.168.039l-.1-.078m.061-1.362-.022.007a.081.081,0,0,0-.046-.065.069.069,0,0,0,.039-.045l.045.091-.017.012m0,.87-.031.005-.021.015c-.013-.013-.02-.02-.02-.033s.039-.026.039-.026l.032.039m0-.59-.005.017a.061.061,0,0,1-.047.022.041.041,0,0,1-.046-.045.144.144,0,0,1,.033-.071.1.1,0,0,1,.059.051l.006.027M13.573.74,13.6.726,13.63.72a.073.073,0,0,1,.052.019c-.006-.026-.039-.026-.065-.026a.1.1,0,0,0-.091.071L13.573.74m.076.114.04.008L13.676.824l.013-.039-.02.007L13.637.785a.056.056,0,0,0-.059.046.086.086,0,0,1-.052.019l.081,0h.041m-.1.6.015.018,0,.028h-.006l-.059-.013L13.5,1.459l.032-.006m.04,1,.064-.094-.026-.013a.732.732,0,0,1-.117.182l.079-.075M13.546,1.44h-.013l-.039.013-.006-.02.039-.026m-.026.1.038.021.014.031c0,.019-.013.026-.02.026-.026,0-.039-.033-.052-.046L13.5,1.5m0,.36.041-.016a.056.056,0,1,1,0,.11.058.058,0,0,1-.059-.058l.017-.036m0,.16.026-.04h.013a.115.115,0,0,0,.065-.026.128.128,0,0,1,.084.1c0,.02-.013.026-.033.026a.091.091,0,0,1-.084-.078v.039c-.013.026-.032.065-.071.065s-.046-.006-.046-.045v-.02l.026-.009.02-.016m-.026-.6-.026-.007.039-.059.019.026m.033-.934-.1.1a.024.024,0,0,1-.026-.026c0-.023.021-.042.047-.056l.076-.022m-.02,1.524-.031.036-.04.016a.042.042,0,0,1-.039-.039.094.094,0,0,1,.032-.071l.02-.013.017.045.041.026m-.032-.5-.016.029-.03.01a.037.037,0,0,1-.039-.039.042.042,0,0,1,.039-.039l.03.012.016.027m.006.356-.023.028-.009.037-.039.013a.037.037,0,0,1-.039-.039.125.125,0,0,1,.02-.065l.043.025h.048m.117.447.055.024a.924.924,0,0,0,.191.028c.046.007.117.026.117.078,0,.11-.11.117-.117.266-.006.026-.039.039-.071.039s-.078-.059-.091-.1a.151.151,0,0,0,.039-.071l.026-.026H13.8l-.091-.013a2.974,2.974,0,0,0-.292.065c-.026,0-.033-.013-.033-.032l.123-.12.1-.139M13.377,1.6l-.02-.013c0-.026.026-.046.033-.059l.039.02a.091.091,0,0,1-.034.046l-.018.005M13.392.444l.042-.022.04-.008-.1.117c-.019,0-.026-.007-.026-.02l.014-.037.034-.031m-.017.6-.018-.007c-.013,0-.013.013-.013.019s0,.02.013.02.026-.007.026-.02l-.008-.012m.008.447v.019c-.006.02-.019.02-.039.02s-.039,0-.039-.02.033-.026.046-.026l.032.007M13.4,1.6l.023-.018.006.027.013.006L13.435,1.6l-.005-.028V1.57l.013-.026h.033l.013.019-.009.036-.01.015.015-.008.01-.03.039.013a.031.031,0,0,0,.033-.032.083.083,0,0,0-.026-.046h.032v.033a.435.435,0,0,1-.065.207.324.324,0,0,1-.2-.227c.007.02.039.02.059.02a.035.035,0,0,0-.02.032.042.042,0,0,0,.033.032L13.4,1.6m-.015,1.628.042-.026.034-.031a.049.049,0,0,1,.039.045c0,.065-.117.065-.169.065h-.026L13.3,3.262l.086-.033M13.4.389l-.037.04-.028.045c-.006.013-.006.026-.026.026L13.293.474A.073.073,0,0,1,13.33.417L13.4.389m-.013,1.077v.013l-.039-.007c-.013,0-.045.013-.045.039l-.013-.078.1.033m-.045-.129-.085-.072a.179.179,0,0,0,.084-.045.061.061,0,0,0,.058.032c.02,0,.033-.026.033-.045a.118.118,0,0,1,.084.071.674.674,0,0,1-.084.117l-.09-.058m.072.391.047.032.055.024a.411.411,0,0,0,.1-.253.169.169,0,0,1,.026.1c0,.091-.046.2-.149.2a.148.148,0,0,1-.078-.039.54.54,0,0,1-.169-.389l.039.032a.389.389,0,0,0,.091.256l.04.039M13.4.937l.028.024.027.011a.052.052,0,0,0,.052-.026l-.019.007A.048.048,0,0,1,13.436.9l.013-.084c0-.033-.026-.065-.026-.091l.032-.065c.02-.032.071-.039.1-.058a.479.479,0,0,0,.11-.091h.052l.021.037.011.041a.048.048,0,0,0-.032.052.087.087,0,0,0,.019.052V.707a.418.418,0,0,0,.1.2c-.013.019-.045.019-.052.039L13.76.953c-.032,0-.006-.019-.026-.026L13.727.94c0,.026.032.019.052.013l-.006.039a.119.119,0,0,1-.1.033c.006.026.045.045.065.058a.03.03,0,0,0-.02.033c0,.026.026.045.026.065,0,.058-.175.058-.208.058l-.033-.006V1.219c0-.065-.026-.13-.1-.13h-.02a.131.131,0,0,1,.1.11h-.013c-.026.007-.045-.039-.045-.071-.026.019-.007.1-.039.1s-.059-.065-.059-.091a.062.062,0,0,0-.006.058l-.059.039-.006-.026a.13.13,0,0,1,.1-.123.146.146,0,0,1-.13-.136c0-.045.039-.052.071-.052l.056.011L13.4.937m-.2.379.039-.046a1.465,1.465,0,0,0,.182.149.087.087,0,0,0-.039.033l-.1-.061L13.2,1.316m.032.876-.008.03c-.015.027-.044.046-.044.08l-.006-.02.006-.026.027-.045.006-.026a.137.137,0,0,0-.026-.071l.035.029.01.049m.037.951.055-.023a.17.17,0,0,0,.077-.079h.013c.032,0,.065.006.065.045,0,.084-.181.156-.253.156-.039,0-.065-.013-.065-.052l.013-.046.039.006.056-.008M13.168.37l.053-.059L13.215.35a.2.2,0,0,0,.039.11c0,.039-.046.052-.071.059a.082.082,0,0,1-.039-.071l.007-.04L13.168.37m-.011.908-.02-.021a.206.206,0,0,1-.019-.1V.992l.022.143.017.143M13.079.8,13.1.771c.06-.051.187-.034.283-.136-.01.107-.125.112-.221.132L13.079.8m0,.1.074-.044A.515.515,0,0,0,13.39.739c-.005.1-.123.113-.223.134L13.079.9M13.15.7l-.058.009h-.026c.084-.046.168-.065.253-.1a.4.4,0,0,1-.106.071L13.15.7M13.059.642,13.1.612a.653.653,0,0,1,.146-.054l-.084.054-.1.03m.007,1.174.006.052-.013.1a.178.178,0,0,0,.058.136c-.065-.026-.077-.071-.077-.143l.026-.149m0-.54.031.077a.292.292,0,0,1,.045.138l-.006.026c-.02-.117-.123-.195-.123-.337a.486.486,0,0,1,.032-.162.564.564,0,0,1,.007.149l.014.109m-.042,2.041-.017-.056L13,3.288a.124.124,0,0,0,.045.091l.02-.02-.041-.041m.083-1.743.021.052.008.053v.013l-.053-.109a.783.783,0,0,1-.162-.338.33.33,0,0,1,.039-.175l-.013.1a.554.554,0,0,0,.094.3l.065.11M13.072,3.45l.074-.013.075-.032a.265.265,0,0,1-.123.026.116.116,0,0,1-.13-.13.107.107,0,0,1,.059-.1.181.181,0,0,0,.181.149.184.184,0,0,0,.1-.026.147.147,0,0,0,.117.1.3.3,0,0,1-.182.058l-.13-.006a.234.234,0,0,0-.169.058.116.116,0,0,1-.026-.058.091.091,0,0,1,.052-.078.088.088,0,0,0,.045.035l.059.01M12.936.85l.032.009.027.024.013.052V.947L12.93.94a.1.1,0,0,1-.052-.078L12.936.85m-.046,1.232v.039c0,.065.065.033.071.091-.033-.032-.091-.019-.091-.084l0-.025.015-.02m.005-.671.027.055c.046.078.162.2.162.292a1.174,1.174,0,0,0-.1-.149c-.071-.09-.136-.142-.136-.279a.367.367,0,0,1,.019-.117l.009.134.016.064m-.018-.38-.033-.006a.173.173,0,0,1,.143-.071.11.11,0,0,1-.073.072l-.037.006m-.033.778L12.821,1.8l-.015-.021v.006c0,.026.013.046.033.046s.032-.02.045-.033l-.039.013M12.91.947l-.035.009-.03.023a.121.121,0,0,1-.052-.045A.086.086,0,0,1,12.852.9l.027.031.032.021m-.168.674-.028-.011L12.7,1.589V1.6c0,.026.007.052.033.052a.073.073,0,0,0,.052-.032l-.039.006m.045,1.355.056.009a.253.253,0,0,1,.126.1.338.338,0,0,0-.117-.019c-.078,0-.182.052-.182.143v.013a.168.168,0,0,1,.078-.1c.02.007.071.026.071.046,0,.039-.1.058-.1.13,0,.091.136.1.207.091-.02.019-.039.039-.039.058h-.026a.254.254,0,0,1-.279-.246.237.237,0,0,1,.161-.222l.04-.005m-.017-1.66-.028.031-.078.046-.182-.078h.007c.065,0,.214-.039.24-.1l.052-.013c-.013.026,0,.046,0,.078l-.011.039m.77.862h.006l.033.045-.059.013.052.006-.006.02a.19.19,0,0,1-.084,0,.094.094,0,0,0,.071.032l-.007.007-.045.006L13.455,2.3a.136.136,0,0,0,.078.032l-.006.007H13.5a.182.182,0,0,1-.059,0l.065.032-.013.013h-.019l-.052-.006a.165.165,0,0,0,.058.032l-.026.026a.129.129,0,0,1-.071,0l.052.026-.026.026h-.065c.007.013.026.019.039.026-.019.013-.084.065-.11.065l-.052-.006-.052-.11-.013-.02v.02l-.039-.007a.086.086,0,0,0-.052.02l.019-.007.078.013.006.026a.389.389,0,0,0-.09.013H13.1l.078.007.006.019-.084.013h.019l.078.013v.013a.13.13,0,0,0-.071.019l.032-.006.039.006.007.02-.071.019.033-.006.052.006c.013.039.065.084.065.13l-.026.052a.69.69,0,0,0,.117.214.143.143,0,0,1-.117.084c-.046,0-.059-.026-.065-.065a.118.118,0,0,0,.045-.039l-.052.026-.006-.019.052-.046-.059.026-.006-.026a.086.086,0,0,0,.045-.039l-.052.026-.006-.013.045-.045a.084.084,0,0,1-.065.026c-.013-.026-.045-.046-.065-.071a.09.09,0,0,0,.052-.039.107.107,0,0,1-.071.026c-.078,0-.045-.084-.071-.136s-.117-.175-.156-.175-.039-.007-.052-.033V2.484a.3.3,0,0,0-.052-.149.317.317,0,0,1,.026.156V2.5l-.033.006a.09.09,0,0,1-.045-.078v.02a.1.1,0,0,0,.019.058l-.019.02a.2.2,0,0,1-.046-.059l.026.071-.039-.052.026.058-.006.007L12.593,2.5a.1.1,0,0,0,.02.058h-.007l-.033-.045.02.052-.013.013-.033-.058.02.065-.059.013c-.045-.026-.1-.065-.1-.117l.013-.046.1-.083.084-.1h.019c.065,0,.136-.077.175-.116l.059.065c.019.006.071.019.071.039s-.084.026-.084.091c0,.039.052.071.091.078a.076.076,0,0,1-.039-.065c0-.052.123-.006.123-.084,0-.058-.091-.084-.091-.13a.139.139,0,0,1,.065-.1c0,.123.162.1.162.169,0,.032-.058.065-.058.116,0,.1.188.084.188.2l-.013.045a.082.082,0,0,0,.033-.071c0-.1-.117-.091-.117-.162,0-.039.084-.071.084-.142,0-.117-.156-.084-.156-.2s.084-.123.084-.253a.377.377,0,0,0-.039-.169c.02,0,.026-.026.026-.039a.238.238,0,0,0-.045-.11.332.332,0,0,1,.045-.1.159.159,0,0,0,.039.071v.039a.527.527,0,0,0,.11.337.132.132,0,0,0-.039.091.136.136,0,0,0,.046.091L13.345,2a.09.09,0,0,0,.065.078l-.006.026a.063.063,0,0,0,.048.06l.088.011-.076-.019c-.026-.01-.047-.027-.047-.053l.006-.039c-.019,0-.065-.033-.065-.059a.1.1,0,0,1,.026-.065.09.09,0,0,1-.045-.077.12.12,0,0,1,.032-.078l.013.013-.006.065c0,.032.006.052.045.052A.149.149,0,0,0,13.384,2a.059.059,0,0,0,.065.052l-.013.033a.06.06,0,0,0,.065.059l.032-.007.007.046m-1.2-.921.065-.013a.089.089,0,0,0,.032.052l-.1-.039m-.013,1.673-.007-.006-.006-.02h.019m-.026-.551V2.185h.033v.149m.175-.92-.046.033-.051.019a.044.044,0,0,1-.039-.059l-.02.007c-.039,0-.084-.02-.084-.059l.007-.039.233.1.068.023.068.028a.16.16,0,0,0-.052.1.226.226,0,0,0,.13.182c.006.071-.02.168.09.168h.026c-.142-.045-.039-.136-.1-.2a.115.115,0,0,1-.11-.13.288.288,0,0,1,.033-.123.378.378,0,0,1,.259.311.474.474,0,0,1-.091.24.378.378,0,0,0,.1-.246.293.293,0,0,0-.046-.162c.071.033.143.078.143.162a.48.48,0,0,1-.02.1c-.045.091-.266.363-.369.363-.033,0-.039-.045-.039-.065l.007-.032a.063.063,0,0,0,.059-.026l.052.02a.076.076,0,0,0,.071-.059.074.074,0,0,1-.058.039.059.059,0,0,1-.046-.019.128.128,0,0,1-.078.039.064.064,0,0,1-.065-.059l.013-.039A.1.1,0,0,0,12.631,2a.069.069,0,0,0,.059.032.107.107,0,0,0,.078-.052.124.124,0,0,1-.065.033.1.1,0,0,1-.059-.026l.013-.02a.176.176,0,0,1-.1.052c-.039,0-.078-.019-.078-.065l.006-.039a.149.149,0,0,0,.071.02.075.075,0,0,0,.084-.091V1.835c0,.039-.02.084-.065.084a.145.145,0,0,1-.084-.039l.026-.026a.114.114,0,0,1-.071.039.194.194,0,0,1-.065-.091.231.231,0,0,1,.026-.071l.039.007c0,.026.013.065.045.065a.183.183,0,0,0,.11-.046.211.211,0,0,1-.084.026c-.039,0-.046-.013-.039-.045V1.731c.039-.013.045-.059.1-.059h-.02c-.045,0-.039.052-.11.052a.1.1,0,0,1-.091-.052c-.032-.006-.065-.026-.065-.052a.121.121,0,0,1,.02-.052l.032.006a.1.1,0,0,0,.1.071.17.17,0,0,0,.116-.058.187.187,0,0,1-.116.032.07.07,0,0,1-.065-.045l.084-.032-.078.006c-.039,0-.084-.006-.084-.052a.11.11,0,0,1,.019-.065h.039a.052.052,0,0,0,.059.046.1.1,0,0,0,.056-.023l.041-.042m-.195,1.07.046-.013a.158.158,0,0,0,.084.136l-.078.007-.052-.13m0,0,.013.067.033.062h-.059l-.024-.057-.015-.066m-.033.324V2.808h.026l-.026-.02h.039l-.019,0-.014-.015h.039l-.033-.013.007-.007h.039l-.033-.013.013-.013.046.013-.032-.019.039-.007c.052,0,.078.052.084.1a.191.191,0,0,1-.084.033l-.048-.011-.043-.021m-.019-.441V2.179l.039.006v.188m.014.481.058.012a.183.183,0,0,0,.1-.039h.006l.007.007c0,.033-.091.058-.117.058a.186.186,0,0,1-.1-.039l.026.006-.032-.033.053.027m-.011-.3.024.059-.046-.007a.346.346,0,0,1-.026-.116c.013.006.026,0,.039,0l.009.064m-.08-.064H12.2l.013.116h-.039c-.013-.006-.013-.032-.013-.045l.013-.071m-.021-.733-.011.02c0,.045.071.058.1.065,0-.02-.071-.039-.071-.065s.091-.033.1-.039h-.046l-.053.007-.027.012m-.018.59V2.159l.039.007v.2m-.045-1.141.045.007.078-.02c.013.026.033.033.059.046A.236.236,0,0,1,12.4,1.3l.2.091.195.071a.087.087,0,0,0,0,.058.513.513,0,0,0-.149-.091l-.519-.207m.032.376-.042.01a.04.04,0,0,0-.023.035c0,.033.039.065.065.084,0-.019-.039-.052-.039-.078s.071-.046.091-.046L12.165,1.6M12.122,3.25l.035-.038.047-.087h.013c.026,0,.039.007.039.033s-.1.156-.143.156c-.019,0-.026-.02-.032-.039l.041-.024m-.054-.942V2.127l.032.019v.182m-.026-.884-.018.014-.008.021c0,.039.046.071.071.084a.165.165,0,0,1-.052-.084c0-.026.071-.039.09-.039l-.039-.007-.046.01m-.006-.185-.027.006-.012.02c0,.046.071.071.1.078-.013-.013-.078-.058-.078-.078l.052-.013-.039-.013m-.078.966V2.082l.039.026V2.27m.013-1.245.048.01.049,0,.065.052a.709.709,0,0,1-.169.039.091.091,0,0,1-.091-.078l.1-.019m-.1,1.139-.015-.017v-.11l.026.026v.123m.084.506.019-.026-.136-.02-.091-.006.091.019M11.873.927l.021.018.031.008.059.006a.072.072,0,0,0,.046.059l-.1.007c-.065,0-.142-.007-.142-.084V.921l.09.006m.091,1.842.026-.026-.065-.007-.149-.019.149.039m-.045.071.019-.019-.142-.02m.071-1.122.04.017.058,0A.156.156,0,0,0,12,1.667a.121.121,0,0,0,.091.032l.013-.006c-.046,0-.1-.02-.1-.078a.079.079,0,0,1,.019-.058C12,1.544,11.97,1.518,11.97,1.5c0-.045.065-.078.065-.1s-.091-.078-.091-.149l.013-.052.279.11-.006.045a.081.081,0,0,0,.032.065l-.006.052a.106.106,0,0,0,.033.084.122.122,0,0,0-.02.065c0,.046.046.071.084.084l.019.02a.144.144,0,0,0-.032.071c0,.045.065.123.117.117l-.013.045a.08.08,0,0,0,.077.084l-.006.033a.087.087,0,0,0,.052.071v.006l.006.02-.1.013c-.052,0-.116-.013-.116-.078l.013-.052h-.052c-.052,0-.1-.006-.1-.065A.152.152,0,0,1,12.139,2c-.013,0-.11-.026-.11-.052s.071-.052.091-.058c.019.058.09.071.136.071V1.932h-.026c-.065,0-.11-.013-.1-.084a.069.069,0,0,1-.059-.032.167.167,0,0,1-.123.039l-.026-.007a.068.068,0,0,1-.026-.071l-.065.019a.084.084,0,0,1-.09-.1l.042-.008.042-.018m-.007-.006-.058.021-.058.011a.055.055,0,0,1-.059-.059V1.621h.013a.6.6,0,0,0,.143-.039l-.006.026.005.031.02.021M11.66.754,11.7.785V.791c0,.052.039.078.091.078l.058-.007.013.046C11.782.9,11.62.863,11.62.752l.013-.039.028.041m.083.712.018.02a.121.121,0,0,0,.073.019h.091l.039-.007L12,1.544l-.006.065L12,1.66l-.071-.007c-.039,0-.116-.013-.116-.065l.013-.026h-.006a.618.618,0,0,1-.13.026c-.032,0-.071,0-.071-.039l.007-.039.123-.045m-.1.447,0,.012-.015.007a.021.021,0,0,1-.019-.019.017.017,0,0,1,.019-.019l.015,0,0,.015m0,.9H11.62a.183.183,0,0,1-.046.084l.048-.037.024-.047m0-.087,0-.088h.006c.02.026,0,.1.059.1s.045-.091.045-.123l.065-.046h.026l.071.007.136.032c.052.013.1.013.117.071a1.125,1.125,0,0,1-.188.162l-.065.059h-.078l.071.019.013.026h-.007a.154.154,0,0,1-.078,0,.1.1,0,0,0,.071.02h.026l.046.045a.137.137,0,0,0-.026.071.143.143,0,0,1,.045-.059l.013.013A.137.137,0,0,0,12,3.106l.046-.052h.019a.174.174,0,0,0-.032.071l.045-.052.1.039v.013l-.009.037c-.017.042-.056.093-.095.093a.127.127,0,0,1-.052-.019L12,3.268H11.99c-.02-.065-.007-.1-.065-.162a.846.846,0,0,0-.24-.156c-.032-.013-.123-.013-.123-.052a.842.842,0,0,1,.039-.117.041.041,0,0,0,.035-.016l.013-.039m.029.562.082.027.081.01a.179.179,0,0,0,.084-.02.1.1,0,0,0,.033-.052c.007.026.013.039.039.039s.033-.013.033-.019a.108.108,0,0,0,.045,0v.006a.041.041,0,0,0,.046.046.182.182,0,0,0,.136-.091l.046-.007.019.013s-.1.117-.143.117a.044.044,0,0,1-.033-.026.119.119,0,0,0,.033.078.689.689,0,0,0-.253-.058h-.019a.521.521,0,0,0-.259.071V3.411a.121.121,0,0,1,.046-.078.379.379,0,0,0-.156-.065L11.529,3.2l.07.046.079.039m.714-2.148.026.006a.324.324,0,0,0,.227-.1.386.386,0,0,1-.2.078.145.145,0,0,1-.11-.058.432.432,0,0,0,.143-.1.4.4,0,0,1-.195.084c-.033,0-.078.006-.1-.033A.981.981,0,0,0,12.353.94a.667.667,0,0,1-.246.065c-.033,0-.078-.013-.078-.052a.764.764,0,0,0,.188-.078.821.821,0,0,1-.233.059.088.088,0,0,1-.059-.013.1.1,0,0,1-.039-.078L11.925.83,12,.791l-.078.026a.367.367,0,0,1-.116.019c-.026,0-.065-.006-.065-.039V.791h.019a.511.511,0,0,0,.162-.046l.026-.02-.026.013a.488.488,0,0,1-.162.039.113.113,0,0,1-.11-.084h.039a.33.33,0,0,0,.142-.026l-.09.006c-.078,0-.259-.032-.259-.142l.009-.038.029-.034.2.124.206.109.337.169c.149.059.5.149.59.272a.142.142,0,0,0-.065.059l-.065.013c-.019.058-.169.084-.22.084a.054.054,0,0,1-.058-.058l.032-.026H12.5c.1,0,.2-.013.247-.117a.218.218,0,0,1-.208.1l-.058-.006a.211.211,0,0,1-.123.052.076.076,0,0,1-.065-.026l.1-.065-.1.045a.358.358,0,0,1-.109.02.08.08,0,0,1-.084-.078.433.433,0,0,0,.116-.046l.033.007.046-.007.049.036.054.022m-.876.817-.02.02c-.019,0-.026-.013-.026-.02s.006-.026.026-.026l.012.006.007.02m.052-.564.018.03a.153.153,0,0,0,.1.041l.052-.007v.007l-.089.027-.1.012c-.026,0-.129,0-.129-.052a.123.123,0,0,1,.032-.065l.117.006m-.039,1.887.045.013a.2.2,0,0,0-.116.078l.045.013c.013.007.026.013.026.026a.036.036,0,0,1-.039.033.072.072,0,0,1-.071-.071.088.088,0,0,1,.068-.085l.042-.006M11.354,2.01l-.006.021-.02.005c-.013,0-.02-.006-.02-.026a.017.017,0,0,1,.02-.019l.02,0,.006.015m-.007-.032-.044.015-.015.044c0,.026.02.046.059.046a.05.05,0,0,0,.052-.046.061.061,0,0,0-.016-.044l-.036-.015M11.4,1.7l.063,0-.078-.013c-.058,0-.149.046-.162.1a.181.181,0,0,1,.11-.071L11.4,1.7m-.189,0,.078-.039a.391.391,0,0,1,.174-.02.127.127,0,0,0-.084-.019.291.291,0,0,0-.24.136l.071-.059m-.026.318-.008.018-.017.008a.027.027,0,0,1,0-.052l.017.008.008.018m.026.337-.019-.006-.007.006c0,.02-.032.052-.058.065l.049-.025.035-.04m-.039-.369L11.137,2l-.016.032a.057.057,0,0,0,.052.059.063.063,0,0,0,.059-.059A.041.041,0,0,0,11.211,2l-.039-.013m-.036.4.02-.03.01-.036-.019-.006a.31.31,0,0,1-.065.11l.054-.037M11.109,1.7l.077-.053a.576.576,0,0,1,.148-.07A.484.484,0,0,1,11.5,1.55l.071.013a.09.09,0,0,0,.046.052v.013a.069.069,0,0,0,.059.065l.091.169c.058.11.084.233.155.344a.384.384,0,0,0,.292.194.553.553,0,0,0,.356-.22.081.081,0,0,0,.039.071.936.936,0,0,1-.169.149.417.417,0,0,1-.227.065.363.363,0,0,1-.292-.149,2.357,2.357,0,0,1-.175-.363c-.032-.065-.1-.188-.175-.214a.224.224,0,0,1,.059.052H11.62c-.143,0-.272.091-.415.091a.166.166,0,0,1-.162-.1l.019-.032.047-.046m-.01.17.049.02L11.2,1.9c.143,0,.292-.091.435-.1l.045.071-.039-.007c-.149,0-.285.11-.435.11a.212.212,0,0,1-.194-.129l.026-.052.02.05.037.034M11.114,1l.052.015a.226.226,0,0,0,.195.11.183.183,0,0,1-.13.039A.225.225,0,0,1,10.978.94l.007-.032a.3.3,0,0,0,.081.072L11.114,1m-.026.553V1.57l-.028.02-.043.005c-.02,0-.084-.013-.084-.045l.026-.006.048.006.082.007m-.011.151-.04.023a.232.232,0,0,1-.091.021c-.013,0-.039,0-.039-.02s.162-.039.195-.059l.007.007-.031.028m.011-.092-.013.016A.173.173,0,0,1,11,1.647c-.02,0-.1-.006-.1-.039,0-.013.006-.026.019-.026l.065.019.053.011.058,0m0,.032.007.013a.535.535,0,0,1-.169.039c-.032,0-.039-.006-.039-.039l.013-.013a.156.156,0,0,0,.078.007l.11-.007m.823-.382-.075.018-.08.008a.164.164,0,0,1-.136-.052l.11-.045a.363.363,0,0,1-.149.032.222.222,0,0,1-.175-.1.424.424,0,0,0,.155-.039.528.528,0,0,1-.136.019.224.224,0,0,1-.214-.091h.007a.262.262,0,0,0,.156-.032.378.378,0,0,1-.123.019.3.3,0,0,1-.233-.1H11.2L11.095.89c-.138-.016-.331-.05-.331-.157l.02-.059.566.255.575.245v.02l-.011.035,0,.036.04.058.038.033.022.015.017.024c0,.026-.078.059-.065.1l-.039.006h-.039a.129.129,0,0,1-.123-.052l.091-.032a.382.382,0,0,1-.149.026c-.046,0-.091-.013-.1-.059l.078-.039a.241.241,0,0,1-.117.026.148.148,0,0,1-.136-.065l.071-.039a.6.6,0,0,1-.149.026.111.111,0,0,1-.11-.084.211.211,0,0,0,.13-.078.247.247,0,0,0,.22.117.164.164,0,0,0,.149.065.206.206,0,0,0,.156.071l.067-.014.03-.012-.065.006a.185.185,0,0,1-.142-.052l.067-.018.062-.028m-1.031.24-.02.015-.006.024c-.071-.007-.2-.084-.2-.169,0-.026.033-.039.059-.026l.169.156m-.058.078-.02.039c-.065-.006-.272-.116-.272-.188a.048.048,0,0,1,.078-.039c.039.033.052.078.1.117l.11.071m-.3-.493.045.019a.6.6,0,0,1,.091.137h-.026a.054.054,0,0,0-.052.019.224.224,0,0,1-.077-.136l0-.024.017-.015m0-.046-.008.018-.018.008a.028.028,0,0,1-.026-.026.024.024,0,0,1,.026-.026l.018.006.008.02m.1.525.034.019a.572.572,0,0,0,.143.065.04.04,0,0,0,0,.039c-.059,0-.331-.084-.331-.149,0-.013.013-.071.033-.071l.121.1m-.062.07.136.06.1.026.019.032h-.039c-.071,0-.356-.026-.356-.13,0-.013.013-.039.026-.039l.111.05m-.1-.621-.012.029-.027.01a.037.037,0,0,1-.039-.039A.042.042,0,0,1,10.42.979l.027.012.012.027m-.084.059.048.016.043.036c.046.039.039.1.065.149-.026,0-.052.032-.071.045-.052-.045-.13-.123-.13-.194l.013-.041.033-.011m.013.4-.006-.013a.085.085,0,0,1,.078-.084.084.084,0,0,1,.1-.071.063.063,0,0,1,.065-.045.126.126,0,0,1,.091.058l-.039.007-.033-.013c-.026,0-.046.032-.052.045h-.02c-.052,0-.065.039-.071.084,0,0-.071.071-.065.117-.026.007-.058.02-.058.052a.08.08,0,0,0,.026.052c-.02.013-.013.026-.013.046-.026-.013-.065-.02-.065-.052a.047.047,0,0,1,.02-.039.077.077,0,0,1-.02-.065.084.084,0,0,1,.033-.068l.026-.01m-.019-.467,0,.022a.057.057,0,0,1-.054.03.052.052,0,0,1,0-.1.057.057,0,0,1,.054.03l0,.022m-.1.125.027.022a2.129,2.129,0,0,1,.152.2c-.033,0-.052.026-.059.059-.065-.046-.207-.136-.207-.214a.067.067,0,0,1,.065-.071l.022.008m-.132,2.222.121-.062a.8.8,0,0,1,.339-.074.657.657,0,0,1,.428.156.4.4,0,0,0-.175-.026.824.824,0,0,0-.214.058l.1-.091H10.68a.881.881,0,0,0-.3.078l.078-.091a.488.488,0,0,0-.149.011l-.168.04m.123-2.315-.006.031a.074.074,0,0,1-.072.046.078.078,0,0,1,0-.156.074.074,0,0,1,.072.046l.006.031m.1.409-.025.015-.02.024c-.052-.026-.214-.1-.214-.162,0-.013.026-.084.052-.084s.057.045.1.094l.106.114M10.1,1.394l.2.117a.093.093,0,0,0-.006.071c-.071-.007-.214-.065-.214-.149l0-.024.015-.015m0-.285.038.015.014.044a.046.046,0,0,1-.052.045c-.032,0-.058-.019-.058-.045a.057.057,0,0,1,.017-.044l.041-.015m0,.121.009.021c0,.026-.013.045-.039.045a.039.039,0,0,1,.007-.077l.023.011m-.01.1-.008.018-.018.008a.03.03,0,0,1-.026-.033l.019-.019.024.008.009.018m1.29.1-.061-.013a.139.139,0,0,1-.12-.136l.013-.052a.133.133,0,0,0,.1.079l.045.005.024.028.034.023L11.4,1.4l-.017.035v.013c0,.078.136.091.188.078V1.55a.69.69,0,0,0-.2-.032,1.429,1.429,0,0,0-.233.026l-.013.032a.124.124,0,0,0,.033.065l-.013.013c-.026,0-.046-.039-.046-.065l.02-.045-.02.006a.285.285,0,0,1-.143-.045l-.013.026a.036.036,0,0,0-.039.032.039.039,0,0,0-.026.058.036.036,0,0,0-.02.033.048.048,0,0,0,.013.039c-.013,0-.019.013-.019.026a.044.044,0,0,0,.026.033V1.77l-.007.007a.039.039,0,0,1-.039-.046.046.046,0,0,1-.02-.039.035.035,0,0,1,.02-.032l-.013-.026a.04.04,0,0,1,.026-.039l-.006-.013c0-.013.013-.033.026-.033V1.544a.025.025,0,0,1,.032-.02c.007-.019.02-.019.033-.019a.86.86,0,0,1-.35-.422c-.013-.026-.046-.1-.084-.1h-.013a.116.116,0,0,0-.1-.026A.109.109,0,0,0,10.3.921c-.019,0-.045.006-.052.019L10.174.921a.106.106,0,0,0-.11.11v.046a.07.07,0,0,0-.045.065l.013.065c-.007,0-.02.013-.02.032l.013.039-.006.039.019.078a.721.721,0,0,0,.713.4,1.105,1.105,0,0,0,.3-.039,1.4,1.4,0,0,0-.136.318.358.358,0,0,1-.142.24.64.64,0,0,1-.292.058c-.11.013-.253.078-.253.207,0,.091.065.11.065.162s-.149.1-.149.207c0,.078.1.149.156.175a.146.146,0,0,1-.065-.1c0-.117.279-.059.279-.22,0-.1-.13-.169-.13-.272l.006-.026c.091-.058.285-.019.422-.078A.371.371,0,0,0,11,2.244l.029-.091.011-.059,0-.059c-.065.3-.182.409-.474.415l-.13.006a.131.131,0,0,0-.1.13l.033-.065v.013c0,.1.123.175.123.272,0,.13-.2.1-.259.169.039-.13.24-.059.24-.188a.06.06,0,0,0-.026-.052l.006.026a.066.066,0,0,1-.058.071l.006-.039c0-.1-.091-.149-.091-.214a.085.085,0,0,1,.019-.052.1.1,0,0,0-.045.071c0,.058.052.091.052.143s-.071.071-.11.1c.033-.032.084-.052.084-.1,0-.065-.065-.071-.065-.143,0-.123.13-.195.233-.207s.214.013.3-.059c.142-.1.162-.324.227-.486a.2.2,0,0,0,.214.143.732.732,0,0,0,.26-.065.043.043,0,0,0-.026.045.05.05,0,0,0,.045.052.051.051,0,0,0,.052-.052.053.053,0,0,0-.059-.052l.123-.039a.066.066,0,0,0-.026.045c0,.026.019.039.046.039a.043.043,0,0,0,.045-.039.054.054,0,0,0-.045-.045h.045a2.057,2.057,0,0,0,.24.492.384.384,0,0,0,.208.11l-.007.059.007.058a.894.894,0,0,1-.208-.058.09.09,0,0,1-.039-.071.155.155,0,0,1-.1.1l-.052.032.007.046c0,.019,0,.052-.02.058-.052,0-.013-.091-.065-.091s-.006.136-.052.136-.033-.117-.059-.117-.006.143-.052.143-.026-.117-.071-.117-.026.1-.065.1-.026-.1-.032-.123l-.059.007a.642.642,0,0,0,.344-.24h.013a.1.1,0,0,0,.084-.052.115.115,0,0,1-.065.026H11.62l.013-.019a.114.114,0,0,0,.084-.078.088.088,0,0,1-.071.045l.02-.084a.607.607,0,0,1-.4.382.464.464,0,0,0-.129.059.169.169,0,0,0-.059.1.172.172,0,0,1-.091.032h.084v.02a.217.217,0,0,1-.1.033.219.219,0,0,0,.091,0V2.9a.144.144,0,0,1-.091.02.223.223,0,0,0,.091.006.261.261,0,0,0,.02.1v.006l.032-.006a.042.042,0,0,1,.039.032c0,.065-.169.149-.22.149-.026,0-.033-.006-.033-.026l.007-.033a.251.251,0,0,0,.154-.069l.021-.047-.025.039a.3.3,0,0,1-.151.059c-.007-.046-.033-.039-.065-.039s-.045-.007-.045-.033c0-.052.149-.285.149-.408,0-.046-.046-.059-.046-.091,0-.065.182-.065.182-.246a.282.282,0,0,0-.028-.125l-.024-.037.029.066.01.076c0,.2-.195.162-.195.266,0,.039.046.058.046.091,0,.117-.149.337-.149.408s.052.059.1.059l.006.006c.013,0,.013.013.02.026l-.007.039.01.033.035.019.06-.013a.371.371,0,0,0,.154-.1.042.042,0,0,1,.026.033c0,.045-.162.123-.214.123l-.02-.007-.006-.019v-.02l-.005.023.005.023A.69.69,0,0,0,10.6,3.2a.857.857,0,0,0-.571.227,1.286,1.286,0,0,1,.376-.1.747.747,0,0,0-.091.123.932.932,0,0,1,.3-.1l.059-.013-.188.162a1.018,1.018,0,0,1,.382-.123,1.72,1.72,0,0,1,.188.019l-.026-.045a.472.472,0,0,0,.194.032.073.073,0,0,0,.039,0,.494.494,0,0,1-.071-.1l.013-.026c.026,0,.052.117.13.117l.033-.006-.149-.207a.069.069,0,0,0-.058-.033l.013-.052a.053.053,0,0,0-.052-.058l-.039.006V2.938c0-.143.026-.227.162-.272h.071c0,.032-.007.123.045.123s.046-.091.065-.11l.007.006c.006.039.013.11.065.11s.052-.071.052-.1c.007.026.02.078.046.091a.283.283,0,0,0-.059.117v.013c0,.039.046.045.078.052a.659.659,0,0,1,.311.182.168.168,0,0,1,.026.1c0,.013-.013.033-.026.033a.147.147,0,0,1-.071.019.482.482,0,0,1-.376-.195.522.522,0,0,0,.032.169H11.5a.1.1,0,0,0-.116.1.109.109,0,0,0,.11.11.073.073,0,0,0,.078-.065.11.11,0,0,0-.039-.065.1.1,0,0,1,.065-.02l.052.007a.079.079,0,0,0-.039.078l.013.058a.551.551,0,0,1,.3-.1h.026a.618.618,0,0,1,.246.045.3.3,0,0,0,.13.02l.136-.013L12.34,3.34l.013-.013c.045,0,.084.065.123.078l.013-.02c0-.065-.143-.188-.207-.188l.007-.046c0-.039-.026-.058-.065-.058l-.045.013c-.039-.02-.227-.156-.227-.2l.1-.078a.491.491,0,0,0,.188-.195l.065.007v.052a.127.127,0,0,0-.084.117l-.026.026c0,.033.071.065.1.071a.037.037,0,0,0,.039.039c.019,0,.026-.019.032-.039.026-.006.1-.039.1-.071a.028.028,0,0,0-.026-.026.119.119,0,0,0-.1-.117V2.639c.091,0,.3-.02.344-.1h.065a.074.074,0,0,0,.071.039.4.4,0,0,1,.136.156c.026.065-.007.149.1.143a.546.546,0,0,1,.13.259v.006a.084.084,0,0,0-.026.065.075.075,0,0,0,.084.071l.046-.007.02.026v.013l-.078.013c-.065,0-.142-.032-.142-.1a.087.087,0,0,1,.013-.052h-.026a.123.123,0,0,0-.136.136l.02.078H12.9c-.039,0-.142-.013-.142-.065s.1-.071.1-.136c0-.033-.033-.052-.065-.065a.163.163,0,0,1,.1-.032.178.178,0,0,1,.117.045.244.244,0,0,0-.227-.169.262.262,0,0,0-.24.259.249.249,0,0,0,.279.253h.065v.006a.149.149,0,0,0,.078.117c.065-.091.207-.078.3-.078a.288.288,0,0,0,.195-.071l.13.013.059-.007a.465.465,0,0,1-.071-.1l.02-.026a.636.636,0,0,1,.091.1.031.031,0,0,0,.032-.033.067.067,0,0,0-.032-.052.309.309,0,0,1,.168-.039l.1.013-.1.039a.228.228,0,0,0-.058.149V3.56a.437.437,0,0,1,.058-.091.262.262,0,0,1,.1-.02l.22.02.133-.016.133-.035a.2.2,0,0,0,.11.026.42.42,0,0,0,.123-.026h-.007c-.039,0-.1-.026-.1-.065a.043.043,0,0,1,.026-.039l.071.006a.3.3,0,0,0,.136-.032l-.019.188a.53.53,0,0,1,.389-.162.3.3,0,0,1,.136.026c.058.182.253.162.3.259.033-.059.123-.078.182-.117a.253.253,0,0,0,.117-.143.368.368,0,0,1,.143-.026.5.5,0,0,1,.382.162.949.949,0,0,0-.013-.188.323.323,0,0,0,.13.032.5.5,0,0,0,.136-.026.114.114,0,0,1,.026.078.093.093,0,0,1-.11.1l.084.006c.078,0,.195-.013.188-.117.078,0,.181.026.181.117a.273.273,0,0,1-.026.1.224.224,0,0,0,.117-.22l.058-.007a.511.511,0,0,0,.24.065c.071,0,.195-.026.214-.11l.065-.013h.013a.071.071,0,0,1,.084.084.12.12,0,0,0,.032-.078A.092.092,0,0,0,17.8,3.21a.655.655,0,0,1,.253-.052c.045,0,.1.007.1.065s-.117.058-.162.052a.239.239,0,0,0,.253.091l.013.045c0,.059-.1.071-.149.078a.443.443,0,0,0,.13.013c.065,0,.208-.019.227-.1a.358.358,0,0,0,.3.156.217.217,0,0,0,.2-.084.227.227,0,0,0,.13.032c.078,0,.337-.045.383-.117l.181.007a1.076,1.076,0,0,1,.272.058,1.383,1.383,0,0,0,.454.117.342.342,0,0,0,.246-.091,3.8,3.8,0,0,0,.532.091c.175,0,.4-.078.4-.292,0-.149-.11-.214-.246-.233a.146.146,0,0,1,.1.136.465.465,0,0,0-.136-.013h-.091c.071.019.149.065.149.149,0,.11-.084.156-.181.156l-.123-.007c.065,0,.207-.013.207-.1a.165.165,0,0,0-.039-.091l.007-.026a.127.127,0,0,0-.065-.084l-.013.007-.02-.046a.644.644,0,0,0-.084-.182c-.058-.1-.181-.214-.181-.324A1.827,1.827,0,0,1,21,2.224l.039-.156a.978.978,0,0,0,.02-.188l-.007-.071v.026a.73.73,0,0,1-.428-.227l-.02-.142c.091.091.26.3.4.3h.019a1.4,1.4,0,0,1-.421-.311c-.013-.143-.045-.285-.065-.435A1.27,1.27,0,0,1,21,1.453a1.426,1.426,0,0,1,.227.8v.091c0,.11.091.169.091.259,0,.026-.013.032-.033.032-.039-.123-.09-.116-.1-.279l-.006.045c0,.136.084.2.084.259,0,.02-.007.026-.026.026-.052-.117-.11-.117-.11-.272,0-.091.019-.181.019-.272a.6.6,0,0,0-.055-.262l-.049-.069.04.072a.607.607,0,0,1,.044.239c0,.1-.026.182-.026.279,0,.182.136.266.136.383a.2.2,0,0,1-.032.084l.019.006a.324.324,0,0,0,.143-.24c0-.1-.071-.136-.11-.22a.662.662,0,0,1-.006-.227.748.748,0,0,0-.02-.169,1.429,1.429,0,0,0-.272-.674,2.094,2.094,0,0,0-1.3-.635,3.754,3.754,0,0,0-.538-.039A.436.436,0,0,0,18.947.6a.339.339,0,0,0-.292-.188.321.321,0,0,0-.136.033A.441.441,0,0,0,18.312.4.368.368,0,0,0,18.02.6c-.1.142-.22.195-.292.363a.885.885,0,0,0-.046.221c-.032.026-.11.1-.11.142s.046.033.065.039a.731.731,0,0,0-.071.221c-.052,0-.11-.039-.162-.039-.02,0-.039.006-.039.032,0,.052.11.11.149.123a1.137,1.137,0,0,0-.078.357c0,.207.065.415.292.467l.065.007a.354.354,0,0,0,.285-.162c.059-.033.195-.059.195-.143,0-.052-.071-.045-.1-.045h-.032c-.007-.033-.039-.136-.078-.136-.058,0-.065.1-.065.143a.309.309,0,0,1-.168.091c-.065,0-.078-.052-.078-.1a.6.6,0,0,1,.233-.4l-.013.078.013.033c.026,0,.143-.162.26-.162.071,0,.136.02.208.02a.439.439,0,0,0,.156-.026v.019a.073.073,0,0,0,.019.052.1.1,0,0,0-.026.059c0,.013.013.026.026.039l-.013.039a.051.051,0,0,0,.019.046.151.151,0,0,0-.019.071.068.068,0,0,0,.045.065c-.065.233-.538.233-.6.59l-.006-.02c-.033.007-.065.026-.065.065L18,2.782c-.039.013-.1.045-.1.1,0,.077.155.129.214.149l-.052-.007a.516.516,0,0,0-.337.123l-.033.026V3.165a.092.092,0,0,0-.065-.091.475.475,0,0,0,.045-.188L17.67,2.84a.283.283,0,0,1-.116.1.564.564,0,0,0-.13-.195l.007.078a.4.4,0,0,1-.123.311.51.51,0,0,1-.117.091V3.2a.365.365,0,0,0-.065-.195c-.032.117-.1.233-.24.233a.235.235,0,0,1-.117-.026V3.2a.381.381,0,0,0-.033-.149.3.3,0,0,1,.175-.071A.129.129,0,0,1,16.983,3l.006-.045a.24.24,0,0,0-.11-.188.58.58,0,0,1,.311-.071l.162.006a.445.445,0,0,0-.324-.117.64.64,0,0,0-.156.02l.1-.136c.026-.007.026-.02.045-.039a.553.553,0,0,1,.2-.11h.052a.356.356,0,0,0-.143-.039l-.091.013a.386.386,0,0,1,.207-.169.236.236,0,0,0-.1-.02A.257.257,0,0,0,17,2.146a1.025,1.025,0,0,1,.272-.428h-.033a.4.4,0,0,0-.266.162,3.556,3.556,0,0,1,.318-.551.86.86,0,0,0-.493.525,2.607,2.607,0,0,1,.474-.811.974.974,0,0,0-.532.474V1.174l.065.013a.142.142,0,0,0,.143-.149A.2.2,0,0,0,16.879.9c-.071-.078-.143-.169-.22-.24a.136.136,0,0,0-.071-.026.178.178,0,0,0-.117.065.826.826,0,0,1-.233.13l-.1.026A.645.645,0,0,0,15.8.538a.568.568,0,0,0-.182-.032.62.62,0,0,0-.532.324l-.02-.007a.751.751,0,0,1-.233-.13.177.177,0,0,0-.123-.065.116.116,0,0,0-.058.026c-.084.071-.149.162-.227.24a.2.2,0,0,0-.065.143.141.141,0,0,0,.143.149l.059-.013v.344a.932.932,0,0,0-.532-.474,2.393,2.393,0,0,1,.48.811.9.9,0,0,0-.492-.525,3.1,3.1,0,0,1,.311.551.335.335,0,0,0-.292-.162.969.969,0,0,1,.272.428.258.258,0,0,0-.156-.046.236.236,0,0,0-.1.02.456.456,0,0,1,.214.169l-.1-.013a.356.356,0,0,0-.142.039.377.377,0,0,1,.253.11.069.069,0,0,0,.046.039l.1.136a.649.649,0,0,0-.162-.02.471.471,0,0,0-.331.117l.149-.013a.672.672,0,0,1,.318.071.325.325,0,0,0-.156.24.127.127,0,0,1,.071-.013.3.3,0,0,1,.175.071L14.46,3.2a.4.4,0,0,1-.156.039c-.1,0-.266-.052-.266-.182a.242.242,0,0,1,.1-.188l-.065-.007a.169.169,0,0,0-.169.175l-.052.071-.013.059.007.045a.27.27,0,0,0-.123-.032.73.73,0,0,0-.169.039.2.2,0,0,0-.084-.052.127.127,0,0,0,.026-.078c0-.058-.065-.065-.11-.058l-.1-.2a.061.061,0,0,0,.013-.045c0-.071-.052-.1-.071-.162l.071.007c.149,0,.272-.1.428-.1v.02l-.065.058h-.006a.083.083,0,0,0-.065.071l.013.02c-.026,0-.065.013-.065.039s.026.026.033.045a.162.162,0,0,0-.084.143.265.265,0,0,0,.026.123.307.307,0,0,0,.136-.1.813.813,0,0,1-.032.117.228.228,0,0,0,.149-.182A.052.052,0,0,0,13.8,2.84h.033l.019-.006a.071.071,0,0,0,.065-.071.09.09,0,0,0-.046-.078V2.678c0-.065.13-.149.13-.266,0-.084-.084-.1-.149-.11a1.751,1.751,0,0,1-.246-.039l.026-.032a.144.144,0,0,0,.084-.123.248.248,0,0,0-.039-.117.123.123,0,0,0,.02-.052.123.123,0,0,0-.033-.065.12.12,0,0,0-.058-.11.3.3,0,0,0,.039-.149.366.366,0,0,0-.156-.285l.078-.084c.039-.007.188.006.188-.071l-.019-.065c.052-.006.052-.032.052-.078l.013-.019L13.8.986V.979c0-.039.052-.033.052-.065a.678.678,0,0,0-.084-.143A.39.39,0,0,1,13.76.622a.144.144,0,0,0-.039-.11V.486a.067.067,0,0,0-.032-.052c0-.078-.013-.162-.11-.175l.007.026-.02.09A.451.451,0,0,0,13.41.344a.458.458,0,0,0-.162.032L13.241.337a.128.128,0,0,1,.013-.071.218.218,0,0,0-.136.195.4.4,0,0,0-.142.37c-.007-.013-.033-.02-.046-.02a.146.146,0,0,0-.091.039l.013.026a.117.117,0,0,0-.1.059.122.122,0,0,0,.078.052l-.026.058.1.026-.033.059h-.006a1.292,1.292,0,0,0-.506-.259,2.488,2.488,0,0,1-.435-.221L11.516.4a.189.189,0,0,0-.071.13c0,.084.1.142.168.155l-.019.084c0,.091.084.13.156.143v.02c0,.091.084.117.162.11a.062.062,0,0,0,.013.046.143.143,0,0,0,.136.045c0,.033.007.059.033.071l-.169-.071C11.548.973,11.16.824,10.784.648a.2.2,0,0,0-.039.1c0,.11.155.136.233.149l-.006.078a.211.211,0,0,0,.227.227.172.172,0,0,0-.019.077c0,.083.069.125.139.141l.068.008M9.539,2.555H9.48c-.143.544-.35.8-.889.8-.571,0-.681-.084-.681-.72V1.848H8.2c.389,0,.635.084.668.551h.052L8.909,1.77l.013-.564H8.871c-.032.421-.344.532-.687.532H7.911V.318h.207c.344,0,.843.013,1.057.369a1.414,1.414,0,0,1,.142.441H9.37C9.357.934,9.357.752,9.357.558L9.37.169A13.653,13.653,0,0,1,7.742.221l-.9-.013V.266c.356.02.48.065.48.473v2.2c0,.4-.129.448-.48.474v.052c.337-.013.681-.013,1.018-.013a14.582,14.582,0,0,1,1.6.052l.035-.477.05-.476m-3,.914V3.417c-.35-.026-.486-.071-.486-.474V.739c0-.4.13-.454.486-.473V.208L5.758.221,4.987.208V.266c.363.02.48.065.48.473v.979l-.843.007H3.994V.739c0-.4.13-.454.486-.473V.208L3.7.221,2.931.208V.266c.357.02.48.065.48.473v2.2c0,.4-.13.448-.48.474v.052L3.7,3.456l.778.013V3.417c-.35-.026-.486-.071-.486-.474V1.822l.713-.006.759.006V2.944c0,.4-.117.448-.48.474v.052l.771-.013.785.013M2.756,1.2,2.749.551,2.756.175a4.613,4.613,0,0,1-.512.033L1.628.214H1.135L.506.208A4.352,4.352,0,0,1,0,.175L.007.551,0,1.2H.046C.156.661.253.311.966.311h.1l.013.94V2.944c0,.357-.13.441-.545.474v.052l.843-.013.836.013V3.417c-.409-.033-.551-.117-.551-.474V1.252L1.68.311H1.8c.648,0,.811.383.908.889h.052" transform="translate(7.262 0.79)"/>
      </g>
    </g>
    <path id="Path_8145" data-name="Path 8145" d="M57.927-.512a3.4,3.4,0,0,1-2.479-.934,3.319,3.319,0,0,1-.956-2.488v-.179a4.181,4.181,0,0,1,.4-1.865,2.957,2.957,0,0,1,1.142-1.266,3.2,3.2,0,0,1,1.685-.445,2.872,2.872,0,0,1,2.236.9,3.639,3.639,0,0,1,.816,2.539V-3.5H56.366a1.717,1.717,0,0,0,.54,1.087A1.634,1.634,0,0,0,58.049-2a2,2,0,0,0,1.669-.774l.908,1.017A2.775,2.775,0,0,1,59.5-.842,3.693,3.693,0,0,1,57.927-.512ZM57.716-6.2a1.155,1.155,0,0,0-.892.373,1.93,1.93,0,0,0-.438,1.067h2.571v-.148a1.376,1.376,0,0,0-.333-.954A1.192,1.192,0,0,0,57.716-6.2ZM64.9-3.921V-.64H62.98V-9.953h3.633a4.2,4.2,0,0,1,1.845.384,2.828,2.828,0,0,1,1.225,1.091,3.041,3.041,0,0,1,.429,1.609,2.674,2.674,0,0,1-.937,2.159,3.9,3.9,0,0,1-2.594.79Zm0-1.554h1.714a1.686,1.686,0,0,0,1.161-.358,1.3,1.3,0,0,0,.4-1.023,1.536,1.536,0,0,0-.4-1.107A1.505,1.505,0,0,0,66.658-8.4H64.9ZM75.248-.64a2.053,2.053,0,0,1-.185-.62,2.237,2.237,0,0,1-1.746.748A2.457,2.457,0,0,1,71.631-1.1a1.893,1.893,0,0,1-.668-1.484,1.956,1.956,0,0,1,.816-1.689,4.024,4.024,0,0,1,2.357-.595h.851v-.4a1.141,1.141,0,0,0-.246-.768.969.969,0,0,0-.777-.288,1.1,1.1,0,0,0-.732.224.761.761,0,0,0-.265.614H71.116A1.857,1.857,0,0,1,71.487-6.6a2.452,2.452,0,0,1,1.049-.8,3.823,3.823,0,0,1,1.522-.291,3.02,3.02,0,0,1,2.031.643,2.249,2.249,0,0,1,.752,1.807v3a3.308,3.308,0,0,0,.275,1.49V-.64ZM73.719-1.926a1.592,1.592,0,0,0,.755-.182,1.2,1.2,0,0,0,.512-.489v-1.19h-.691q-1.388,0-1.478.959l-.006.109a.74.74,0,0,0,.243.569A.944.944,0,0,0,73.719-1.926ZM84.49-4.036a4.151,4.151,0,0,1-.726,2.562,2.328,2.328,0,0,1-1.96.963,2.156,2.156,0,0,1-1.7-.729V2.021H78.26V-7.561h1.714l.064.678a2.173,2.173,0,0,1,1.753-.806,2.343,2.343,0,0,1,1.989.947,4.263,4.263,0,0,1,.71,2.61Zm-1.849-.134a2.724,2.724,0,0,0-.342-1.49,1.115,1.115,0,0,0-.995-.525,1.21,1.21,0,0,0-1.2.665v2.834A1.231,1.231,0,0,0,81.318-2Q82.642-2,82.642-4.171ZM88.821-.512a3.4,3.4,0,0,1-2.479-.934,3.319,3.319,0,0,1-.956-2.488v-.179a4.181,4.181,0,0,1,.4-1.865,2.957,2.957,0,0,1,1.142-1.266,3.2,3.2,0,0,1,1.685-.445,2.872,2.872,0,0,1,2.235.9,3.639,3.639,0,0,1,.816,2.539V-3.5H87.26a1.717,1.717,0,0,0,.54,1.087A1.634,1.634,0,0,0,88.942-2a2,2,0,0,0,1.669-.774l.908,1.017a2.775,2.775,0,0,1-1.126.918A3.693,3.693,0,0,1,88.821-.512ZM88.61-6.2a1.155,1.155,0,0,0-.892.373,1.929,1.929,0,0,0-.438,1.067h2.571v-.148a1.376,1.376,0,0,0-.333-.954A1.192,1.192,0,0,0,88.61-6.2Zm8,.371a5.022,5.022,0,0,0-.665-.051,1.354,1.354,0,0,0-1.375.71V-.64H92.716V-7.561h1.746l.051.825a1.713,1.713,0,0,1,1.542-.953,1.937,1.937,0,0,1,.576.083Z" transform="translate(5.604 36.225)"/>
  </g>
</svg>
