<svg xmlns="http://www.w3.org/2000/svg" width="190" height="108" viewBox="0 0 190 108">
  <g id="Group_49694" data-name="Group 49694" transform="translate(-1409.379 -455.846)">
    <rect id="Rectangle_3368" data-name="Rectangle 3368" width="190" height="108" transform="translate(1409.379 455.846)" fill="#fff"/>
    <g id="TH_CW_logo" transform="translate(1421.389 500.827)">
      <rect id="Rectangle_3512" data-name="Rectangle 3512" width="14.511" height="14.823" rx="2.54" transform="translate(21.759 2.593)" fill="#231f20"/>
      <path id="Path_24366" data-name="Path 24366" d="M117.308,22.627H104.333a.854.854,0,0,1-.843-.861V8.511a.854.854,0,0,1,.843-.861h12.975a.854.854,0,0,1,.843.861V21.769A.854.854,0,0,1,117.308,22.627ZM104.333,7.8a.718.718,0,0,0-.693.718V21.769a.718.718,0,0,0,.693.718h12.975a.718.718,0,0,0,.693-.718V8.511a.718.718,0,0,0-.693-.718Z" transform="translate(-67.295 -5.136)" fill="#231f20"/>
      <rect id="Rectangle_3513" data-name="Rectangle 3513" width="14.511" height="14.823" rx="2.54" transform="translate(50.78 2.593)" fill="#231f20"/>
      <path id="Path_24367" data-name="Path 24367" d="M198.184,22.627H185.213a.854.854,0,0,1-.843-.861V8.511a.854.854,0,0,1,.843-.861h12.971a.858.858,0,0,1,.847.861V21.769a.858.858,0,0,1-.847.858ZM185.213,7.8a.718.718,0,0,0-.692.718V21.769a.718.718,0,0,0,.692.718h12.971a.718.718,0,0,0,.693-.718V8.511a.718.718,0,0,0-.693-.718Z" transform="translate(-119.154 -5.136)" fill="#231f20"/>
      <rect id="Rectangle_3514" data-name="Rectangle 3514" width="14.511" height="14.823" rx="2.54" transform="translate(79.798 2.593)" fill="#231f20"/>
      <path id="Path_24368" data-name="Path 24368" d="M80.221,17.365a14.625,14.625,0,0,0-2.512-.359,2.485,2.485,0,0,0-2.777,2.551,2.562,2.562,0,0,0,.718,1.905,2.648,2.648,0,0,0,1.938.718,14.353,14.353,0,0,0,2.627-.359l.359,1.93a11.36,11.36,0,0,1-3.115.5,4.776,4.776,0,0,1-3.47-1.288,4.557,4.557,0,0,1-1.306-3.394,4.5,4.5,0,0,1,1.306-3.362,4.761,4.761,0,0,1,3.47-1.288,12.049,12.049,0,0,1,3.129.431Z" transform="translate(-47.539 -9.796)" fill="#fff"/>
      <path id="Path_24369" data-name="Path 24369" d="M117.423,21.705h-.89v2.566H114.42V15.329c1.17-.05,2.314-.079,3.43-.079,2.25,0,3.588,1.134,3.588,3.183a3.032,3.032,0,0,1-1.482,2.709l2.049,3.129h-2.512l-1.572-2.566Zm.466-1.866a1.338,1.338,0,0,0,1.435-1.381c0-.865-.517-1.3-1.536-1.3h-1.267v2.666Z" transform="translate(-74.304 -10.009)" fill="#231f20"/>
      <path id="Path_24370" data-name="Path 24370" d="M156.564,14.922a4.435,4.435,0,0,1,3.323,1.288,4.571,4.571,0,0,1,1.281,3.376,4.586,4.586,0,0,1-1.281,3.38,4.449,4.449,0,0,1-3.3,1.288,4.507,4.507,0,0,1-3.319-1.288,4.636,4.636,0,0,1-1.27-3.38,4.621,4.621,0,0,1,1.267-3.376A4.492,4.492,0,0,1,156.564,14.922Zm0,7.295a2.214,2.214,0,0,0,1.722-.718,2.7,2.7,0,0,0,.678-1.905,2.662,2.662,0,0,0-.678-1.891,2.214,2.214,0,0,0-1.722-.718,2.253,2.253,0,0,0-1.733.718,2.706,2.706,0,0,0-.667,1.891,2.741,2.741,0,0,0,.667,1.905,2.253,2.253,0,0,0,1.733.718Z" transform="translate(-98.392 -9.797)" fill="#fff"/>
      <path id="Path_24371" data-name="Path 24371" d="M200.539,17.628a10.334,10.334,0,0,0-2.993-.592c-.793,0-1.195.266-1.195.789,0,.3.2.513.617.657a9.95,9.95,0,0,0,1.281.316,5.493,5.493,0,0,1,2.2.933,2.1,2.1,0,0,1,.718,1.773c0,1.855-1.371,2.871-3.57,2.871a10.406,10.406,0,0,1-3.807-.779l.477-1.956a9.645,9.645,0,0,0,3.229.761c.919,0,1.381-.237,1.381-.761a.635.635,0,0,0-.287-.542,1.342,1.342,0,0,0-.466-.222,5.31,5.31,0,0,0-.6-.172c-.136-.036-.542-.1-.693-.144a4.977,4.977,0,0,1-2.153-.908,2.2,2.2,0,0,1-.624-1.715,2.512,2.512,0,0,1,.933-2.067,3.918,3.918,0,0,1,2.551-.761,9.875,9.875,0,0,1,3.455.6Z" transform="translate(-125.194 -9.915)" fill="#231f20"/>
      <path id="Path_24372" data-name="Path 24372" d="M241.886,17.628a10.334,10.334,0,0,0-2.993-.592c-.789,0-1.195.266-1.195.789,0,.3.2.513.617.657a10.125,10.125,0,0,0,1.281.316,5.472,5.472,0,0,1,2.2.933,2.1,2.1,0,0,1,.718,1.773c0,1.855-1.367,2.871-3.567,2.871a10.406,10.406,0,0,1-3.807-.779l.477-1.956a9.627,9.627,0,0,0,3.229.761c.919,0,1.381-.237,1.381-.761a.635.635,0,0,0-.287-.542,1.342,1.342,0,0,0-.466-.222,5.311,5.311,0,0,0-.6-.172c-.136-.036-.538-.1-.689-.144a4.937,4.937,0,0,1-2.153-.908,2.189,2.189,0,0,1-.628-1.715,2.512,2.512,0,0,1,.929-2.067,3.918,3.918,0,0,1,2.551-.761,9.875,9.875,0,0,1,3.455.6Z" transform="translate(-151.707 -9.915)" fill="#fff"/>
      <rect id="Rectangle_3515" data-name="Rectangle 3515" width="14.511" height="14.823" rx="2.54" transform="translate(108.787 2.575)" fill="#231f20"/>
      <path id="Path_24373" data-name="Path 24373" d="M359.854,22.577H346.829a.825.825,0,0,1-.829-.84V8.436a.825.825,0,0,1,.818-.836h13.025a.825.825,0,0,1,.818.836v13.3a.825.825,0,0,1-.807.84ZM346.829,7.744a.675.675,0,0,0-.667.682V21.737a.675.675,0,0,0,.667.682h13.025a.675.675,0,0,0,.667-.682V8.436a.675.675,0,0,0-.667-.693Z" transform="translate(-222.789 -5.104)" fill="#231f20"/>
      <rect id="Rectangle_3516" data-name="Rectangle 3516" width="14.511" height="14.823" rx="2.45" transform="translate(137.808 2.575)" fill="#231f20"/>
      <path id="Path_24374" data-name="Path 24374" d="M440.724,22.577H427.753a.854.854,0,0,1-.843-.861V8.461a.854.854,0,0,1,.843-.861h12.971a.858.858,0,0,1,.847.861V21.716a.858.858,0,0,1-.847.861ZM427.753,7.744a.718.718,0,0,0-.693.718V21.716a.718.718,0,0,0,.693.718h12.971a.718.718,0,0,0,.7-.718V8.461a.718.718,0,0,0-.7-.718Z" transform="translate(-274.667 -5.104)" fill="#231f20"/>
      <path id="Path_24375" data-name="Path 24375" d="M318.158,16.234a4.439,4.439,0,0,1,3.308,1.288,4.571,4.571,0,0,1,1.281,3.376,4.582,4.582,0,0,1-1.281,3.38,4.9,4.9,0,0,1-6.624,0,4.618,4.618,0,0,1-1.27-3.38,4.607,4.607,0,0,1,1.27-3.376A4.478,4.478,0,0,1,318.158,16.234Zm0,7.295a2.2,2.2,0,0,0,1.722-.718,2.7,2.7,0,0,0,.678-1.905,2.662,2.662,0,0,0-.678-1.887,2.2,2.2,0,0,0-1.722-.718,2.253,2.253,0,0,0-1.733.718,2.72,2.72,0,0,0-.664,1.891,2.756,2.756,0,0,0,.664,1.905A2.253,2.253,0,0,0,318.158,23.528Z" transform="translate(-201.994 -10.638)" fill="#fff"/>
      <path id="Path_24376" data-name="Path 24376" d="M278.968,22.577H266a.858.858,0,0,1-.847-.861V8.461A.858.858,0,0,1,266,7.6h12.971a.854.854,0,0,1,.84.861V21.716A.854.854,0,0,1,278.968,22.577ZM266,7.744a.718.718,0,0,0-.693.718V21.716a.718.718,0,0,0,.693.718h12.971a.718.718,0,0,0,.693-.718V8.461a.718.718,0,0,0-.693-.718Z" transform="translate(-170.949 -5.104)" fill="#231f20"/>
      <path id="Path_24377" data-name="Path 24377" d="M276.347,25.7,274.6,20.428l-1.758,5.26h-2.06l-2.7-8.938h2.25l1.582,5.472,1.794-5.468h1.747l1.794,5.468,1.586-5.468h2.25L278.41,25.7Z" transform="translate(-172.828 -10.971)" fill="#231f20"/>
      <path id="Path_24378" data-name="Path 24378" d="M359.813,23.022h-.89v2.566H356.81V16.649c1.17-.054,2.311-.079,3.43-.079,2.25,0,3.588,1.13,3.588,3.179a3.028,3.028,0,0,1-1.475,2.716l2.06,3.122H361.9l-1.572-2.566Zm.466-1.866a1.335,1.335,0,0,0,1.435-1.381c0-.865-.513-1.3-1.532-1.3h-1.259v2.67Z" transform="translate(-229.72 -10.856)" fill="#231f20"/>
      <path id="Path_24379" data-name="Path 24379" d="M404.1,17.717a4.4,4.4,0,0,1,1.281,3.312,4.568,4.568,0,0,1-1.245,3.351,4.331,4.331,0,0,1-3.2,1.252c-1.019,0-2.153-.039-3.394-.1V16.587c1.245-.068,2.3-.108,3.179-.108a4.607,4.607,0,0,1,3.384,1.238Zm-1.546,5.2a2.756,2.756,0,0,0,.639-1.891,2.591,2.591,0,0,0-.664-1.855,2.221,2.221,0,0,0-1.708-.718c-.517,0-.893,0-1.159.029V23.62c.291,0,.743.025,1.335.025A1.97,1.97,0,0,0,402.556,22.92Z" transform="translate(-255.836 -10.794)" fill="#fff"/>
      <path id="Path_24380" data-name="Path 24380" d="M439.965,25.573h-2.454V22.214H434.35V19.742h3.161V16.38h2.454v3.362h3.161v2.472h-3.161Z" transform="translate(-279.438 -10.734)" fill="#d1a01f"/>
      <path id="Path_24381" data-name="Path 24381" d="M5.371,6.089a1.31,1.31,0,0,1,.4.283v.065a1.076,1.076,0,0,0-.52-.334.124.124,0,0,1-.126-.09V5.989a.585.585,0,0,1,.1-.226c-.05,0-.065-.1-.079-.161,0,.065,0,.2-.09.2s-.1-.136-.1-.2h0c-.043.022-.022.187-.111.187s-.072-.165-.072-.23H4.642c-.23.09-.28.244-.28.513v.154a.147.147,0,0,1,.057,0,.1.1,0,0,1,.111.072.19.19,0,0,1-.029.09.122.122,0,0,1,.1.065l.248.384a.133.133,0,0,1-.05,0c-.126,0-.169-.212-.212-.212s-.032.043-.032.05a1.288,1.288,0,0,0,.118.179.158.158,0,0,1-.057,0,1.109,1.109,0,0,1-.327-.05.405.405,0,0,1,.054.075,2.06,2.06,0,0,0-.319-.043,1.7,1.7,0,0,0-.632.219c.1-.079.219-.2.309-.283l-.1.018A1.708,1.708,0,0,0,3.1,7a.98.98,0,0,1,.147-.226,1.938,1.938,0,0,0-.614.169,1.371,1.371,0,0,1,.944-.413.954.954,0,0,1,.553.169.222.222,0,0,1,0-.1c-.05,0-.072-.032-.072-.09a.179.179,0,0,1,0-.065.5.5,0,0,0-.022-.057H4.014c-.072,0-.161,0-.161-.1A6.092,6.092,0,0,0,4.1,5.537c0-.065-.065-.1-.065-.172,0-.187.316-.111.316-.484a.531.531,0,0,0-.061-.251.718.718,0,0,1-.359.5c-.215.111-.553.032-.693.136a.14.14,0,0,0,0,.057c0,.187.2.3.2.5,0,.283-.456.187-.456.4a.3.3,0,0,0,.111.187.434.434,0,0,1-.258-.327c0-.2.251-.266.251-.38s-.118-.129-.118-.291c0-.237.233-.359.413-.391s.359,0,.492-.1a.718.718,0,0,0,.237-.438A2.25,2.25,0,0,1,4.348,3.9a1.747,1.747,0,0,1-.535.072,1.173,1.173,0,0,1-1.181-.718A.639.639,0,0,1,2.6,3.1a.083.083,0,0,1,.022-.057.19.19,0,0,1-.029-.09.065.065,0,0,1,.036-.057A.283.283,0,0,1,2.6,2.781a.118.118,0,0,1,.09-.115.391.391,0,0,1,0-.09.183.183,0,0,1,.183-.194A.226.226,0,0,1,3,2.422a.122.122,0,0,1,.1-.057.165.165,0,0,1,.133.065.169.169,0,0,1,.169.057h.022c.057,0,.111.129.133.176a1.543,1.543,0,0,0,.574.764c-.029,0-.043,0-.05.047s-.061,0-.061.043h0a.05.05,0,0,0-.043.05.047.047,0,0,0,0,.032.072.072,0,0,0-.036.065.19.19,0,0,0,0,.057.068.068,0,0,0-.029.054.1.1,0,0,0,.036.065A.068.068,0,0,0,4,3.929H4v-.05a.061.061,0,0,1-.032-.054A.054.054,0,0,1,4,3.775a.075.075,0,0,1-.025-.057.061.061,0,0,1,.039-.065.072.072,0,0,1,.043-.111.057.057,0,0,1,.057-.057l.061-.043a.538.538,0,0,0,.24.075h.022a.151.151,0,0,0-.029.079c0,.043.029.115.075.115L4.5,3.678a.215.215,0,0,1-.043-.122.061.061,0,0,1,0-.047,1.579,1.579,0,0,1,.391-.05,1.026,1.026,0,0,1,.337.057.079.079,0,0,1,0-.057c-.083.032-.291.014-.291-.14h0c-.154,0-.359-.072-.359-.269a.5.5,0,0,1,.022-.144.388.388,0,0,1-.38-.438.488.488,0,0,1,.022-.136c-.126-.025-.38-.068-.38-.269a.359.359,0,0,1,.061-.179c.628.309,1.263.592,1.895.883v.075c-.639-.283-1.267-.6-1.884-.926a.194.194,0,0,0-.039.115c0,.258.567.276.718.3h-.3a.474.474,0,0,0,.384.187.431.431,0,0,0,.2-.039.42.42,0,0,1-.251.065h0a.359.359,0,0,0,.359.169,1.012,1.012,0,0,0,.23-.032,1.227,1.227,0,0,1-.258.057.337.337,0,0,0,.294.179.538.538,0,0,0,.251-.057.4.4,0,0,1-.183.072.212.212,0,0,0,.212.108.782.782,0,0,0,.273-.05.266.266,0,0,1,0-.129V3a.542.542,0,0,1-.23.075.323.323,0,0,0,.244.1h0a.158.158,0,0,1-.057,0,.359.359,0,0,1-.251-.122.251.251,0,0,1-.273-.093.38.38,0,0,1-.359-.194.323.323,0,0,1-.2.14.187.187,0,0,0,.183.161.754.754,0,0,0,.23-.05.359.359,0,0,1-.118.057.255.255,0,0,0,.23.129.319.319,0,0,0,.2-.057.276.276,0,0,1-.133.083.176.176,0,0,0,.179.1.542.542,0,0,0,.248-.054.549.549,0,0,1-.14.065c.032.079.126.09.194.09H5.78a.987.987,0,0,1-.147,0,.172.172,0,0,1-.161-.079,1.543,1.543,0,0,1-.19.09.154.154,0,0,0-.018.065c0,.079.068.079.126.079s.258-.072.2-.039h0a.108.108,0,0,0,0,.047c0,.09.118.115.183.122v.043H5.751a.287.287,0,0,1-.144-.025.431.431,0,0,1-.14.047c0,.115.043.187.147.187a.305.305,0,0,0,.111-.022.122.122,0,0,0,.043.118v.642a6.344,6.344,0,0,1-.258-.624c-.05-.1-.1-.2-.161-.3a.111.111,0,0,1-.079-.1V3.639a.126.126,0,0,1-.075-.09.291.291,0,0,0-.126-.025,1.041,1.041,0,0,0-.28.05,1.256,1.256,0,0,0-.456.316.085.085,0,0,1-.022.057.276.276,0,0,0,.266.176c.233,0,.456-.176.685-.169h.022a.757.757,0,0,0-.1-.09c.133.039.244.269.294.391a3.635,3.635,0,0,0,.287.664v.1a3.588,3.588,0,0,1-.391-.908.617.617,0,0,0-.093,0,.088.088,0,0,1,.079.072.075.075,0,1,1-.147,0,.079.079,0,0,1,.054-.072,1.579,1.579,0,0,0-.222.065.09.09,0,0,1,.111.09.083.083,0,0,1-.09.086A.079.079,0,0,1,4.99,4.27a.111.111,0,0,1,.043-.083,1.123,1.123,0,0,1-.427.122.359.359,0,0,1-.359-.251c-.1.283-.147.718-.359.883-.147.122-.33.075-.506.1s-.391.154-.391.359c0,.14.111.165.111.269s-.083.122-.14.179c.065-.05.19-.075.19-.179s-.1-.154-.1-.251a.165.165,0,0,1,.075-.129.19.19,0,0,0-.029.09c0,.111.154.208.154.388a.28.28,0,0,1,0,.075.126.126,0,0,0,.093-.133V5.659a.122.122,0,0,1,.032.09c0,.233-.327.1-.391.359.1-.136.434-.09.434-.316s-.222-.309-.208-.5V5.271a.248.248,0,0,0-.057.115.226.226,0,0,1,.176-.226.614.614,0,0,1,.215-.025c.477,0,.678-.219.789-.746a.771.771,0,0,1-.025.2.6.6,0,0,1,.09.3c0,.334-.3.323-.3.445,0,.057.072.09.072.172a5.953,5.953,0,0,1-.24.746c0,.047.029.057.065.057s.1-.018.111.072c.09,0,.266-.072.287-.179h0a.5.5,0,0,1-.036-.179.3.3,0,0,1-.14,0,.287.287,0,0,0,.14-.032v-.05a.556.556,0,0,1-.154,0,.251.251,0,0,0,.154-.065V5.845a.456.456,0,0,1-.14,0,.388.388,0,0,0,.154-.057.359.359,0,0,1,.1-.194.718.718,0,0,1,.2-.108,1.023,1.023,0,0,0,.671-.7.976.976,0,0,1-.036.161.154.154,0,0,0,.126-.09A.172.172,0,0,1,5.3,5v.039h.036c.036,0,.072-.032.1-.054a.165.165,0,0,1-.133.1H5.274a1.076,1.076,0,0,1-.567.449h0a.423.423,0,0,0,.1,0c0,.039,0,.219.05.219s.032-.2.111-.2.029.212.111.212.029-.258.09-.258.029.226.093.226,0-.258.09-.258.022.176.1.169.036-.065.036-.1V5.458c0-.032.065-.057.083-.065A.266.266,0,0,0,5.733,5.2a.183.183,0,0,0,.065.136v.057a.675.675,0,0,0-.118,0H5.608a.994.994,0,0,0-.1.079c0,.068,0,.219-.072.219s-.061-.129-.1-.169h0c0,.083,0,.258-.09.258a1.539,1.539,0,0,0-.065.212C5.166,6.057,5.321,6.064,5.371,6.089ZM2.647,2.978a.062.062,0,1,0,.122,0,.061.061,0,0,0-.057-.065A.068.068,0,0,0,2.647,2.978Zm.043.09a.041.041,0,1,0,0,.083.036.036,0,0,0,.047-.039c0-.025,0-.043-.036-.043ZM2.655,2.81a.09.09,0,1,0,.179,0,.1.1,0,0,0-.1-.1.1.1,0,0,0-.083.1Zm.441.642c-.075-.025-.3-.219-.359-.219s-.029.047-.029.065c0,.169.237.266.359.283A.161.161,0,0,1,3.1,3.452ZM2.737,2.6a.14.14,0,0,0,.126.147.144.144,0,1,0,0-.287A.14.14,0,0,0,2.737,2.6Zm.431.736a2.871,2.871,0,0,0-.337-.359c-.036,0-.075.115-.075.154,0,.115.258.237.359.283A.111.111,0,0,1,3.168,3.337Zm.391,3.229a1.324,1.324,0,0,0-.764.262,1.378,1.378,0,0,1,.527-.108L3.2,6.908a1.651,1.651,0,0,1,.5-.129.438.438,0,0,1,.1,0l-.169.129a1.188,1.188,0,0,1,.359-.1.886.886,0,0,1,.294.039,1.008,1.008,0,0,0-.721-.276ZM2.978,2.745a.118.118,0,0,0-.111.129c0,.147.244.316.359.391a.14.14,0,0,1,.1-.108C3.265,3.086,3.067,2.745,2.978,2.745Zm.029-.212a.089.089,0,1,0,.176,0,.09.09,0,1,0-.176,0Zm.244,1.2a.147.147,0,0,1-.036-.1.1.1,0,0,1,.093-.1c0-.075,0-.212.1-.2h0c0-.083.036-.161.118-.161h.029a.112.112,0,0,1,.09-.083.072.072,0,0,1,.057.025A.2.2,0,0,1,3.76,3.1c-.032-.039-.1-.1-.147-.1a.126.126,0,0,0-.111.083.147.147,0,0,0-.179.129c-.065,0-.115.079-.115.144a.09.09,0,0,0,0,.043c-.068,0-.1.072-.1.147a.126.126,0,0,0,.036.1.122.122,0,0,0-.036.079c0,.057.065.083.111.1C3.222,3.775,3.222,3.761,3.25,3.736Zm.1-.99c-.039-.039-.09-.1-.147-.1a.079.079,0,0,0-.075.09A.646.646,0,0,0,3.34,3.1a.233.233,0,0,1,.115-.083C3.412,2.925,3.419,2.828,3.347,2.745Zm-.14-.194a.068.068,0,0,0,.065.072.074.074,0,0,0,0-.147.068.068,0,0,0-.065.075ZM3.86,3.9h.068A.108.108,0,0,1,3.9,3.832,1.435,1.435,0,0,1,3.727,3.8c-.079-.025-.38-.2-.413-.2s-.043.043-.043.065C3.272,3.847,3.76,3.9,3.86,3.9ZM3.347,2.6a.043.043,0,1,0,.043-.043A.043.043,0,0,0,3.347,2.6ZM3.9,3.71A1.17,1.17,0,0,1,3.656,3.6,2.465,2.465,0,0,1,3.4,3.388c-.036,0-.057.1-.057.129,0,.1.456.251.553.258A.1.1,0,0,1,3.9,3.71ZM3.455,2.673c-.036,0-.036.054-.036.079A.384.384,0,0,0,3.552,3a.086.086,0,0,1,.061-.036h.043C3.62,2.882,3.537,2.673,3.455,2.673Zm.474.908c-.061-.039-.111-.083-.169-.122s-.1-.154-.179-.226-.126,0-.126.065c0,.136.359.33.452.359ZM3.76,3.144a.072.072,0,0,0-.1.057c0,.151.212.291.33.3a.073.073,0,0,1,.054-.072,3.229,3.229,0,0,1-.28-.291Zm.359.649a.675.675,0,0,0,.294-.075V3.693a.61.61,0,0,1-.183.018.316.316,0,0,1-.161-.032s-.022.018-.022.036.022.079.057.079Zm-.05-.165c0,.057.147.065.176.065s.14,0,.154-.065a.786.786,0,0,1-.183,0,.836.836,0,0,0-.1-.032.05.05,0,0,0-.057.032ZM4.1,6.452a.136.136,0,0,0,0,.057c0,.032,0,.05.043.05.1,0,.359-.165.359-.269a.065.065,0,0,0-.061-.072.183.183,0,0,0-.05,0c-.032.136-.215.219-.3.233Zm.316-2.7h0c-.05.039-.323.072-.323.115s.036.032.057.032A.359.359,0,0,0,4.413,3.75Zm-.287-.226c0,.057.1.083.14.083a.118.118,0,0,0,.118-.057V3.531A.718.718,0,0,1,4.172,3.5.039.039,0,0,0,4.126,3.524ZM4.531,6.47A.075.075,0,0,0,4.5,6.412a.527.527,0,0,1-.359.187.1.1,0,0,0,0,.039.079.079,0,0,0,0,.043.054.054,0,0,0,.032,0C4.244,6.7,4.531,6.549,4.531,6.47Zm.09-3.642a.276.276,0,0,0,.212-.083.359.359,0,0,1-.323-.2.47.47,0,0,1-.3-.194.2.2,0,0,0,0,.065.388.388,0,0,0,.413.416ZM4.258,4.037a.359.359,0,0,0,.334.237c.248,0,.463-.2.718-.2a.136.136,0,0,1,.065,0A.782.782,0,0,0,5.3,3.944a6.369,6.369,0,0,1-.718.187.251.251,0,0,1-.273-.2Zm.251.876a.237.237,0,0,1-.147.194A.405.405,0,0,0,4.474,4.9Zm.1-.51a.1.1,0,0,1-.09.1.093.093,0,0,1-.086-.1.1.1,0,0,1,.093-.083.1.1,0,0,1,.083.1Zm-.029.585a.187.187,0,0,1-.133.111.215.215,0,0,0,.079-.108ZM4.531,4.4c0-.025,0-.043-.036-.043s-.036.018-.036.043a.036.036,0,0,0,.072,0Zm.327-.718a.359.359,0,0,1,.154,0,.628.628,0,0,0-.538.212.463.463,0,0,1,.391-.212Zm.072-.47a.384.384,0,0,1-.1-.1.226.226,0,0,1-.24-.147.237.237,0,0,0-.022.1c0,.2.161.244.309.262a.273.273,0,0,1,.057-.126Zm-.039.553a.2.2,0,0,1,.133.039.413.413,0,0,0-.4.147A.3.3,0,0,1,4.89,3.761Zm0,.635a.1.1,0,0,1-.09.1.1.1,0,0,1-.093-.1.1.1,0,0,1,.1-.1A.093.093,0,0,1,4.89,4.4Zm-.075-.032c0-.025,0-.047-.036-.047a.047.047,0,0,0-.043.047.039.039,0,0,0,.047.032.036.036,0,0,0,.036-.029Zm.922,2.444h.029v.047a.947.947,0,0,0-.506.179.2.2,0,0,1-.025-.1.158.158,0,0,1,.061-.14.154.154,0,0,0-.083,0,.151.151,0,0,0-.111.039.154.154,0,0,1,.068.1.136.136,0,0,1-.126.133.2.2,0,0,1-.183-.212.187.187,0,0,1,.2-.187h0a.9.9,0,0,1-.057-.309.786.786,0,0,0,.624.359A.33.33,0,0,0,5.751,6.7v.047a.215.215,0,0,1-.14.043.915.915,0,0,1-.5-.237.384.384,0,0,0,.018.115.5.5,0,0,1,.255.122.19.19,0,0,0-.086.136v.025a.861.861,0,0,1,.441-.136ZM5.191,6.7a.359.359,0,0,0-.09,0,.172.172,0,0,0-.183.161A.136.136,0,0,0,5.044,7a.061.061,0,0,0,.061-.093.057.057,0,0,0-.036-.054L5,6.836A.309.309,0,0,1,5.2,6.7ZM5.152,3.441a.682.682,0,0,0,.309-.09h0a.258.258,0,0,1-.075,0,.215.215,0,0,1-.2-.129.405.405,0,0,1-.194,0,.287.287,0,0,0-.05.129C4.929,3.427,5.1,3.441,5.152,3.441Zm.617-.876v.115A.19.19,0,0,1,5.74,2.6c-.126,0-.273-.032-.266-.2V2.354A.276.276,0,0,1,5.217,2.1a.4.4,0,0,1,.036-.154c-.115-.032-.28-.122-.28-.276a.384.384,0,0,1,.118-.244c.222.154.441.319.678.456v.083A5.317,5.317,0,0,1,5.1,1.525a.194.194,0,0,0-.065.129c0,.194.3.258.434.258a1.112,1.112,0,0,0,.154,0,.585.585,0,0,1-.237.05.136.136,0,0,1-.065,0,.187.187,0,0,0,.169.154.682.682,0,0,0,.28-.065h0a.513.513,0,0,1-.273.09H5.468c0,.065.057.072.111.072a.6.6,0,0,0,.19-.039V2.2l-.057.047a.172.172,0,0,0,.057.14v.065a.129.129,0,0,1-.086-.057,1.012,1.012,0,0,1-.151,0s0,0,0,.032C5.525,2.551,5.665,2.566,5.769,2.566Zm-.757,1.69a.05.05,0,0,0,.043.047s.036-.025.036-.047a.047.047,0,0,0-.036-.043.05.05,0,0,0-.043.043Zm.237,1.575h.036a.226.226,0,0,1-.1.154A.291.291,0,0,0,5.249,5.831Zm0-1.679a.036.036,0,0,0-.032.032.034.034,0,0,0,.068,0,.036.036,0,0,0-.014-.036Zm.388-1.794a.2.2,0,0,1,0-.09.492.492,0,0,1-.1,0c-.083,0-.151-.043-.14-.14h0A.273.273,0,0,1,5.278,2a.24.24,0,0,0,0,.079c-.007.165.248.237.38.269Zm-.33,1.32a.086.086,0,0,0,.1.09.664.664,0,0,0,.2-.039.154.154,0,0,1-.05-.108.118.118,0,0,1,0-.047.624.624,0,0,1-.237.072H5.3Zm.183,2.11.23.025L5.7,5.853Zm.28-.1v.039l-.251-.072Zm0-.161v.022L5.608,5.5Zm0,.452v.039a.359.359,0,0,1-.126-.032.8.8,0,0,0,.126-.007Zm0,.09V6.1h0a.226.226,0,0,1-.126-.032A.413.413,0,0,0,5.769,6.071Zm3.19.617h0v.039a.484.484,0,0,0-.273.075.122.122,0,0,1,.039.1.086.086,0,0,1-.039.065,1.356,1.356,0,0,0-.154-.194L8.5,6.8c.036.065.075.129.111.187a.38.38,0,0,1-.09,0,.843.843,0,0,1-.212-.018.466.466,0,0,1-.319.14c-.169,0-.405-.043-.513.136a.276.276,0,0,1-.126-.212V7.015a.718.718,0,0,1-.118,0,.434.434,0,0,1-.449-.47.449.449,0,0,1,.405-.47.4.4,0,0,1,.359.291.316.316,0,0,0-.183-.072.3.3,0,0,0-.169.057.151.151,0,0,1,.093.122c0,.122-.147.136-.147.24s.161.133.237.133h.072A.5.5,0,0,1,7.427,6.7c0-.165.083-.244.222-.244h.043a.19.19,0,0,0-.029.09c0,.129.14.194.244.194a.309.309,0,0,0,.126-.032V6.685A.266.266,0,0,1,8,6.638a.334.334,0,0,1-.083,0,.122.122,0,0,1-.126-.09.226.226,0,0,1,.043-.122h0a1.026,1.026,0,0,0-.2-.477c-.172,0-.126-.14-.172-.262A.7.7,0,0,0,7.237,5.4a.126.126,0,0,1-.111-.072h-.1c-.072.161-.427.187-.574.187v.1c.1,0,.147.115.161.212a.05.05,0,0,1,.047.047.417.417,0,0,1-.172.14c0,.032,0,.072-.057.072s-.043-.039-.043-.072-.165-.065-.165-.129a.086.086,0,0,1,.032-.057A.244.244,0,0,1,6.4,5.616v-.1a.377.377,0,0,1-.111,0,.9.9,0,0,1-.309.359c-.022.018-.161.115-.161.147a2.6,2.6,0,0,0,.359.359.158.158,0,0,1,.083-.022.1.1,0,0,1,.111.1.14.14,0,0,1-.018.072c.1,0,.359.237.359.359a.057.057,0,0,1-.025.011c-.068-.025-.133-.144-.2-.144H6.462c.068.057.133.115.2.161a.682.682,0,0,1-.222.032.52.52,0,0,1-.222-.039.962.962,0,0,0-.4-.083H5.769V6.789a1.245,1.245,0,0,1,.42.1.179.179,0,0,1-.057-.136c0,.025.036.047.057.047s.237-.154.237-.219h-.1c-.05.072-.14.172-.226.172a.072.072,0,0,1-.075-.083V6.656a.093.093,0,0,1-.075,0c0,.018-.036.043-.057.043s-.05-.032-.065-.075a.172.172,0,0,1-.054.09V6.667A.466.466,0,0,0,5.83,6.6a.876.876,0,0,0-.054-.179V6.359c.1.1.075.161.111.283h0s.022-.039.029-.057.054.039.09.039a.384.384,0,0,0,.169-.251h0A.664.664,0,0,1,6.013,6.3a.3.3,0,0,0-.075.108.309.309,0,0,1,.047-.129H5.956a.4.4,0,0,0-.068.1.2.2,0,0,1,.036-.129L5.9,6.226a.237.237,0,0,0-.072.1A.233.233,0,0,1,5.866,6.2c-.022-.032-.05-.057-.075-.09H5.762V6.082h0a.111.111,0,0,1,0-.025V6a.811.811,0,0,1,.111-.1A1.988,1.988,0,0,0,6.182,5.6C6.16,5.5,6.071,5.49,6,5.472s-.161-.047-.237-.065V5.35a1.46,1.46,0,0,0,.359.108.28.28,0,0,1,0-.108.51.51,0,0,1,0-.1.649.649,0,0,1-.359-.2v-.1a.581.581,0,0,0,.481.276.649.649,0,0,0,.38-.122A2.2,2.2,0,0,0,6.9,4.816c-.043,0-.057-.083-.065-.136a.861.861,0,0,1-.588.405.606.606,0,0,1-.481-.359v-.66a.075.075,0,0,0,.047.018.33.33,0,0,0,.2-.072.111.111,0,0,0,.1.047c-.032.14.05.161.154.154h.061v.043c-.079,0-.2,0-.219-.115-.039,0-.158.047-.158.1s.165.09.194.09a.294.294,0,0,0,.118-.025c0,.115.079.133.169.133H6.5a.391.391,0,0,0,0,.09c0,.122.1.147.194.147a.52.52,0,0,0,.169-.025V4.6a.115.115,0,0,1-.083-.122.169.169,0,0,1,0-.057.14.14,0,0,1-.133-.161.283.283,0,0,1,.018-.079c-.075,0-.187-.133-.187-.212a.255.255,0,0,1,.054-.129A.127.127,0,0,1,6.494,3.8c-.007-.014-.169-.086-.169-.165a.237.237,0,0,1,.032-.115.226.226,0,0,1-.032-.161.359.359,0,0,1,0-.09.151.151,0,0,1-.05-.129.269.269,0,0,1,0-.075c-.154-.065-.3-.136-.456-.208a.291.291,0,0,0-.032.1c0,.129.165.2.165.258s-.118.122-.118.2.05.086.086.111a.161.161,0,0,0-.036.1c0,.115.1.154.183.165H6.031a.19.19,0,0,1-.14-.057.416.416,0,0,1-.133.025V3.718h.126a.276.276,0,0,1-.022-.108.768.768,0,0,1,0-.115.136.136,0,0,1-.05-.086h0c-.022-.065.093-.129.093-.176s-.036-.057-.05-.068a.269.269,0,0,1-.111.036h0a.316.316,0,0,0,.1,0,.334.334,0,0,1-.1-.129.631.631,0,0,1,0-.2h0V2.76l.28.14a.219.219,0,0,1-.057-.14.212.212,0,0,1-.222-.079V2.566a1.184,1.184,0,0,0,.169,0,.144.144,0,0,1-.072-.115.219.219,0,0,1-.1,0V2.372a.2.2,0,0,0,.1,0,.9.9,0,0,0,.359-.1.829.829,0,0,1-.312.147c0,.072.083.1.14.1a1.076,1.076,0,0,0,.405-.122,1.227,1.227,0,0,1-.28.147.19.19,0,0,0,.161.065.743.743,0,0,0,.37-.151.94.94,0,0,1-.237.179.215.215,0,0,0,.176.108A.632.632,0,0,0,6.964,2.6a.513.513,0,0,1-.359.194.09.09,0,0,1-.043,0,.807.807,0,0,1-.176.1.118.118,0,0,0,.108.057.334.334,0,0,0,.215-.09.248.248,0,0,0,.09,0,.359.359,0,0,0,.359-.179.377.377,0,0,1-.405.212H6.684l-.068.047a.118.118,0,0,0,.1.115c.09,0,.327-.05.359-.161l.111-.032a.2.2,0,0,1,.108-.1c-.136-.24-.725-.395-.972-.524a4.639,4.639,0,0,1-.56-.3V1.884a4.306,4.306,0,0,0,.718.4,2.225,2.225,0,0,1,.85.477A.822.822,0,0,0,7.4,2.641.5.5,0,0,1,7.222,2.6a.624.624,0,0,1,.05-.1.258.258,0,0,1-.133-.1A.169.169,0,0,1,7.3,2.3a.151.151,0,0,1,0-.057.233.233,0,0,1,.147-.065.161.161,0,0,1,.083.025.743.743,0,0,1,.23-.678.384.384,0,0,1,.226-.359.312.312,0,0,0-.022.115v.083a.822.822,0,0,1,.28-.05.524.524,0,0,1,.251.05.492.492,0,0,0,.036-.172V1.152c.154.025.176.179.176.323a.108.108,0,0,1,.061.09.122.122,0,0,1,0,.05.276.276,0,0,1,.065.2.718.718,0,0,0,0,.276,1.2,1.2,0,0,1,.14.251c0,.065-.093.043-.093.115v.036a.072.072,0,0,1,.022.039.047.047,0,0,1-.029.039c0,.083,0,.133-.083.147a.606.606,0,0,1,.036.122c0,.136-.248.1-.323.115l-.118.161a.718.718,0,0,1,.258.52.549.549,0,0,1-.065.266.28.28,0,0,1,.093.2.2.2,0,0,1,.054.122.118.118,0,0,1-.039.09.4.4,0,0,1,.061.208.258.258,0,0,1-.133.237l-.036.065a3.039,3.039,0,0,0,.4.072v.057a1.346,1.346,0,0,1-.42-.1,1.794,1.794,0,0,1-.359.47c0,.032,0,.057.05.057a5.023,5.023,0,0,1,.5-.115.5.5,0,0,1,.14.025H8.826l-.036.05a.262.262,0,0,1-.075.136c.032.065.083.179.158.179a.122.122,0,0,0,.115-.09v.1a.147.147,0,0,1-.079.025c-.14,0-.169-.2-.23-.244s-.086.065-.1.115a.416.416,0,0,0,.359.273.108.108,0,0,0,.05,0v.043a.054.054,0,0,1-.036,0H8.905a.187.187,0,0,1-.054.065c-.057.154-.1.266-.255.323a1.633,1.633,0,0,0,.057-.2h0a.488.488,0,0,1-.23.187.581.581,0,0,1-.036-.222.291.291,0,0,1,.14-.266c-.022-.025-.057-.05-.057-.083s.065-.065.093-.072,0-.025,0-.039a.14.14,0,0,1,.111-.122h0a.639.639,0,0,0,.1-.115V5.293c-.258,0-.463.194-.718.194H7.951c.029.1.126.161.126.283a.136.136,0,0,1-.029.09,2.121,2.121,0,0,0,.169.359c.072-.018.183,0,.183.1a.258.258,0,0,1-.05.14.527.527,0,0,1,.129.093,1.076,1.076,0,0,1,.287-.065.456.456,0,0,1,.2.054.233.233,0,0,1,0-.072.3.3,0,0,1,.022-.115V6.57a.463.463,0,0,0-.2-.039.545.545,0,0,0-.251.065,2.038,2.038,0,0,0,.147.154A.671.671,0,0,1,8.959,6.689ZM5.816,2.024l-.047.032h0Zm.086.108a.718.718,0,0,1-.133.079V2.178A.872.872,0,0,0,5.9,2.121Zm.065,3.477-.194-.057V5.53L6,5.562Zm-.126.14H5.773V5.709h.1Zm0-1.3c0-.018-.039-.032-.054-.05v.2c0,.025.039.057.054.079Zm.126-1.712a.8.8,0,0,0,.266-.075.154.154,0,0,1-.1-.1.23.23,0,0,1-.169,0A1.338,1.338,0,0,1,5.8,2.6.165.165,0,0,0,5.966,2.738ZM5.934,4.532l-.057-.039v.262a.359.359,0,0,1,.057.072Zm.179-1.346c-.054,0-.172-.065-.172-.136a.061.061,0,0,1,.068-.057.208.208,0,0,1,.065,0s-.093,0-.093.043.1.115.129.147Zm-.1.212a.359.359,0,0,0,.083.154c-.054-.025-.126-.09-.126-.154s.072-.09.126-.09a.1.1,0,0,1,.065,0c-.032.011-.151.029-.151.086ZM6.06,4.608l-.05-.025v.323l.05.032ZM6.038,6.674c0,.032,0,.075.05.075a.565.565,0,0,0,.237-.294c0-.075-.029-.057-.065-.057H6.232a.477.477,0,0,1-.2.273ZM6.2,2.9a.771.771,0,0,0,.359-.115A.251.251,0,0,1,6.4,2.659a.441.441,0,0,1-.09,0H6.25a.527.527,0,0,1-.194.09.144.144,0,0,0,.14.144Zm-.136.782c0-.065.054-.079.1-.079a.4.4,0,0,1,.1,0c-.029,0-.154,0-.154.075s.065.111.065.144A.24.24,0,0,1,6.063,3.678Zm.915-.359a1.252,1.252,0,0,1,.244.161.172.172,0,0,1,0-.1c-.111-.043-.215-.09-.327-.129a2.832,2.832,0,0,1-.33-.165A1.471,1.471,0,0,0,6.419,3a.183.183,0,0,1-.093-.1.423.423,0,0,1-.133.032.244.244,0,0,1-.072,0C6.4,3.054,6.684,3.183,6.978,3.319ZM6.189,4.665l-.065-.022V5c.022,0,.043.025.065.025Zm.1-.786a.222.222,0,0,1,.072,0s-.176.032-.176.065.118.083.126.115c-.05,0-.169-.039-.169-.115s.111-.079.147-.079ZM6.257,5.472a.972.972,0,0,1-.029-.212.1.1,0,0,1-.047,0,.463.463,0,0,0-.022.129.183.183,0,0,0,.022.09Zm.1,0a.56.56,0,0,1-.05-.219H6.243a.5.5,0,0,0,.043.212Zm.083.456a.388.388,0,0,1-.183-.065h0a.269.269,0,0,0,.05.043.047.047,0,0,1-.036,0,.23.23,0,0,0,.169.075c.043,0,.183-.043.183-.1h0a.337.337,0,0,1-.183.032ZM6.325,4.676a.179.179,0,0,1-.057,0v.359h.057Zm.111.958a.072.072,0,0,0-.057.025.108.108,0,0,0,.05.022.147.147,0,0,1-.075,0v.025a.158.158,0,0,0,.061.025H6.393a.1.1,0,0,1-.054,0h0l.043.025h0a.057.057,0,0,1-.036,0h0a.172.172,0,0,0,.05.032.1.1,0,0,1-.057,0v.025l-.014.018a.108.108,0,0,1-.05,0h0a.3.3,0,0,0,.161.057.2.2,0,0,0,.133-.057c0-.093-.047-.2-.144-.2ZM6.354,3.158c0,.075.083.108.14.108h.039c0,.047,0,.111.065.111s.126-.072.154-.1L6.361,3.1a.1.1,0,0,0-.018.057Zm.093,2.314H6.5a.531.531,0,0,1-.079-.233.309.309,0,0,0-.075,0,.466.466,0,0,0,.061.219Zm.441-.811c0,.05,0,.122.061.122.176,0,.538-.5.61-.664A.531.531,0,0,0,7.6,3.94c0-.169-.122-.244-.24-.309a.563.563,0,0,1,.086.309.718.718,0,0,1-.169.438.861.861,0,0,0,.147-.431.664.664,0,0,0-.427-.567.585.585,0,0,0-.057.226.215.215,0,0,0,.19.23c.111.122-.065.283.169.359H7.258c-.183,0-.147-.169-.161-.309a.4.4,0,0,1-.208-.323.337.337,0,0,1,.083-.2,2.027,2.027,0,0,0-.222-.079c-.029.047-.1.122-.161.122a.093.093,0,0,1-.1-.083H6.426a.377.377,0,0,0-.029.122c0,.079.072.1.14.1a.481.481,0,0,0,.126-.018.359.359,0,0,1-.14.057c.022.05.057.1.108.1A.327.327,0,0,0,6.824,3.6a.3.3,0,0,1-.194.1.176.176,0,0,1-.169-.129H6.419a.19.19,0,0,0-.029.09c0,.057.057.09.1.1a.169.169,0,0,0,.158.1c.108,0,.093-.1.176-.1h.029c-.09,0-.1.09-.176.115h0c0,.05,0,.083.065.083a.244.244,0,0,0,.147-.05.283.283,0,0,1-.183.083c-.05,0-.075-.075-.083-.115a.122.122,0,0,1-.05,0A.294.294,0,0,0,6.523,4c0,.039.079.169.118.169s.072-.039.1-.065l-.036.039a.183.183,0,0,0,.14.065c.075,0,.1-.079.111-.144h0a.144.144,0,0,1-.147.172A.147.147,0,0,1,6.7,4.195a.334.334,0,0,0,0,.083.115.115,0,0,0,.126.115A.244.244,0,0,0,7,4.3a.391.391,0,0,0-.022.039.133.133,0,0,0,.1.047.129.129,0,0,0,.1-.065.154.154,0,0,1-.133.079.147.147,0,0,1-.093-.047.187.187,0,0,1-.133.054.151.151,0,0,0-.022.075.1.1,0,0,0,.108.1.183.183,0,0,0,.133-.057.129.129,0,0,0,.075.032c.043,0,.072-.039.1-.072-.032.047-.068.1-.126.1a.147.147,0,0,1-.083-.025.158.158,0,0,1-.1.039.342.342,0,0,0-.014.061ZM6.462,4.7H6.4V5a.219.219,0,0,1,.057-.032Zm0,1.306H6.419v.032h0c.029,0,.029-.029.036-.043Zm.179-.538a.359.359,0,0,1-.151-.258l-.065.025a.954.954,0,0,0,.09.24A.757.757,0,0,0,6.641,5.472ZM6.462,3.007l.154.072a.169.169,0,0,1-.043-.118.312.312,0,0,1-.111.029ZM7.929,6.161a.449.449,0,0,1-.083.083v.025a.2.2,0,0,0,.083-.043.3.3,0,0,1-.075.075.109.109,0,0,0,.111.122c.072,0,.154-.09.194-.161a1.435,1.435,0,0,1-.179-.431.147.147,0,0,0,.039-.09c0-.083-.09-.161-.111-.237H7.775a.2.2,0,0,1,.118-.032V5.433H7.768a.258.258,0,0,1,.115-.039V5.375a.538.538,0,0,0-.122-.011H7.721a.416.416,0,0,1,.14-.032V5.307a.488.488,0,0,0-.126-.025H7.7a.294.294,0,0,1,.147-.032.258.258,0,0,1,0-.039.6.6,0,0,0-.126-.025H7.678a.233.233,0,0,1,.1-.022h.057v0h0c.022.065.061.129.083.194a.427.427,0,0,0,.093.018c.047,0,.151-.09.187-.122a.176.176,0,0,1-.075-.05.635.635,0,0,0,.118,0l.036-.047A.319.319,0,0,1,8.2,5.1a.359.359,0,0,0,.126,0l.029-.05A.2.2,0,0,1,8.259,5h.126V4.97a.273.273,0,0,1-.1-.057.327.327,0,0,0,.1,0h.036A.2.2,0,0,1,8.3,4.855a.2.2,0,0,0,.065,0,.244.244,0,0,0,.075,0h0a.212.212,0,0,1-.118-.05.506.506,0,0,0,.147,0v-.05a.423.423,0,0,1-.1,0,.556.556,0,0,0,.1,0h0a.093.093,0,0,1-.057-.072c-.083,0-.237,0-.237-.129V4.5a.165.165,0,0,1-.111-.136.2.2,0,0,1,.022-.1A.222.222,0,0,1,8.022,4.1a.273.273,0,0,1,.1-.183.969.969,0,0,1-.176-.6V3.233a.506.506,0,0,1-.068-.122.6.6,0,0,0-.072.161.441.441,0,0,1,.065.212c0,.032,0,.065-.036.072a.771.771,0,0,1,.068.309c0,.237-.133.269-.133.456s.251.161.251.359c0,.129-.133.176-.133.258s.183.122.183.3a.2.2,0,0,1-.043.129.452.452,0,0,0,0-.1c0-.2-.312-.165-.312-.359,0-.083.1-.14.1-.212s-.28-.072-.28-.291a.24.24,0,0,0-.1.161c0,.09.158.129.158.244s-.215.057-.215.154a.222.222,0,0,0,.065.129c-.057-.025-.154-.072-.154-.161s.147-.129.147-.165-.093-.054-.115-.065a.251.251,0,0,1-.1-.122c-.068.075-.194.212-.294.212H6.9a1.166,1.166,0,0,1-.316.334.283.283,0,0,0,0,.083.273.273,0,0,0,.154.219.258.258,0,0,0,.1-.032L6.8,5.293l.05.1h.022a.61.61,0,0,1-.036-.115.3.3,0,0,0,.057.1h0a.3.3,0,0,1-.036-.1.438.438,0,0,0,.054.1h0a.542.542,0,0,1-.039-.115.262.262,0,0,0,.061.1h0a.405.405,0,0,1-.05-.129.563.563,0,0,0,.065.111.079.079,0,0,0,.036-.039.2.2,0,0,1-.029-.1V5.156a.154.154,0,0,0,.083.144.1.1,0,0,0,.043,0V5.275a.936.936,0,0,0-.043-.283.574.574,0,0,1,.079.269.122.122,0,0,1,0,.054.083.083,0,0,0,.09.057c.065,0,.244.251.266.327s0,.244.118.244A.2.2,0,0,0,7.7,5.9a.158.158,0,0,1-.09.065.685.685,0,0,1,.118.133.251.251,0,0,0,.1-.043.262.262,0,0,1-.079.075V6.15l.1-.039-.083.072a.1.1,0,0,0,0,.043.51.51,0,0,0,.161-.083ZM6.713,3.111H6.684l.309.14c.083-.043.183-.108.183-.219a.266.266,0,0,1,0-.14.38.38,0,0,0-.09.032c-.025.1-.269.176-.373.169Zm.621,3.9h.036a.176.176,0,0,1,.065-.1c-.111.018-.337,0-.337-.169s.161-.161.161-.237-.09-.072-.118-.079a.266.266,0,0,0-.126.169h0a.276.276,0,0,1,.3-.262.578.578,0,0,1,.194.032.38.38,0,0,0-.3-.194.405.405,0,0,0-.359.405.438.438,0,0,0,.484.416Zm-.14-3.362a.1.1,0,0,1-.09.065c-.036,0-.05-.054-.05-.086V3.588a.09.09,0,0,0,.065.065.133.133,0,0,0,.075-.025Zm.1-1.159A.266.266,0,0,1,7.4,2.419a.262.262,0,0,1-.09-.1.165.165,0,0,0-.1.065.14.14,0,0,0,.083.083Zm0,1.557c-.036,0-.05-.039-.05-.079V3.929a.073.073,0,0,0,.065.057.09.09,0,0,0,.061-.025.075.075,0,0,1-.09.075Zm.075-1.453a.2.2,0,0,0,.183-.144.291.291,0,0,0-.244.129.154.154,0,0,0,.047,0Zm-.047.553a.779.779,0,0,0,.23.5,2.666,2.666,0,0,1,.154.276c0-.161-.19-.391-.266-.527a.915.915,0,0,1-.086-.463.635.635,0,0,0-.047.2Zm.126-.9a.237.237,0,0,0-.1.032.28.28,0,0,0,.079.147.8.8,0,0,1,.133,0V2.39A.269.269,0,0,1,7.531,2.3.078.078,0,0,0,7.448,2.243ZM7.369,4.572a.187.187,0,0,1,0-.065.1.1,0,0,0-.029.075c0,.129.093.1.14.154-.007-.108-.111-.061-.111-.176Zm.588,2.512a.5.5,0,0,0,.294-.1.283.283,0,0,1-.19-.187.463.463,0,0,1-.161.039.319.319,0,0,1-.312-.262.2.2,0,0,0-.093.172.215.215,0,0,0,.226.237.51.51,0,0,0,.194-.043.409.409,0,0,1-.244.075A.19.19,0,0,1,7.5,6.929a.212.212,0,0,0-.083.147.151.151,0,0,0,.043.1.4.4,0,0,1,.28-.1ZM7.782,3.815V3.771c0-.251-.316-.47-.316-.933a1.338,1.338,0,0,1,0-.169.736.736,0,0,0-.068.316c.022.255.309.538.384.807ZM7.656,6.847l-.029.032a.2.2,0,0,1-.075-.154.122.122,0,0,1,0-.054.226.226,0,0,0,.1.154Zm-.083-4c0,.262.179.4.208.617a.147.147,0,0,0,0-.057c0-.194-.147-.266-.147-.592a1.755,1.755,0,0,0,0-.276.843.843,0,0,0-.061.309Zm.047,1.435a.244.244,0,0,0,.133.258.359.359,0,0,1-.1-.251v-.2a.147.147,0,0,0,0-.079c.007.093-.036.179-.036.28Zm.036-2.429A.513.513,0,0,0,7.951,1.7c-.083.029-.251.079-.294.158Zm.427-.072a3.645,3.645,0,0,0-.42.187H7.7a.6.6,0,0,0,.384-.183Zm.118.251c-.147.187-.359.147-.524.294.169-.086.51-.039.524-.291Zm-.517.115c.147-.115.481-.05.5-.3-.179.215-.427.151-.5.3Zm.075.359v.3a.334.334,0,0,0,.072.226A4.993,4.993,0,0,1,7.761,2.5Zm.036-1a.147.147,0,0,0,.057.129.109.109,0,0,0,.118-.1.445.445,0,0,1-.065-.2.283.283,0,0,1,0-.072A.312.312,0,0,0,7.8,1.5Zm.126,5.113c.126,0,.427-.133.427-.294,0-.065-.061-.079-.1-.079H8.223a.359.359,0,0,1-.316.2.2.2,0,0,1-.061,0,.144.144,0,0,0-.022.079.093.093,0,0,0,.1.086Zm0-1.941c0,.072-.068.115-.068.187V4.9c0-.09.1-.115.1-.2a.151.151,0,0,0-.09-.14.176.176,0,0,1,.047.115Zm.359-1.4a.958.958,0,0,1-.3-.276h0c-.022.025-.036.057-.057.083a.8.8,0,0,0,.309.251.1.1,0,0,1,.029-.065Zm.2-1.493c-.054.025-.133.043-.161.108a1.109,1.109,0,0,1-.054.111c-.022.039.039.108.039.165s-.025.1-.025.154a.086.086,0,0,0,.09.1.057.057,0,0,0,.036,0,.122.122,0,0,1-.079.05c-.083,0-.1-.136-.251-.136-.061,0-.126.022-.126.1a.255.255,0,0,0,.215.251.23.23,0,0,0-.179.226V2.95a.144.144,0,0,0,.1-.065.222.222,0,0,1,0-.1c0,.05.05.154.1.154s.022-.147.057-.172c0,.05.029.122.083.122h0a.248.248,0,0,0-.154-.2H8.2c.126,0,.169.129.169.24v.025h.061c.05,0,.337,0,.337-.1,0-.039-.036-.065-.036-.122a.057.057,0,0,1,.029-.057c-.036-.022-.1-.047-.111-.1a.208.208,0,0,0,.19-.075V2.429c-.022,0-.072.022-.072,0V2.386c.029,0,0,.043.043.043h.039c.018,0,.057-.039.079-.072A.754.754,0,0,1,8.772,2v-.05a.133.133,0,0,1-.036-.09.1.1,0,0,1,.05-.1.244.244,0,0,0-.05-.136h-.09a1.109,1.109,0,0,1-.169.169Zm.129,1.884a.337.337,0,0,0-.047-.187.865.865,0,0,1-.154.474.667.667,0,0,1-.388-.649.118.118,0,0,1-.061-.05,1,1,0,0,0,.273.718.2.2,0,0,0,.133.072C8.532,4.037,8.607,3.832,8.607,3.678Zm-.2-.646a.172.172,0,0,0-.133-.115c0,.025-.029.079-.065.079a.165.165,0,0,1-.09-.083A.212.212,0,0,1,7.987,3a1.349,1.349,0,0,0,.3.237c.032-.075.075-.14.118-.219Zm-.273.359a.158.158,0,0,1,.054,0V3.362a1.134,1.134,0,0,1-.154-.043,1.077,1.077,0,0,0,0,.147.114.114,0,0,1,.086-.079ZM8.04,1.554c0,.018,0,.05.029.05s.029-.032.029-.05a.33.33,0,0,1,.118-.144c-.068,0-.176.061-.176.14ZM8.4,6.577A.075.075,0,0,0,8.335,6.5a.556.556,0,0,1-.273.165.065.065,0,0,0,0,.039h.057c.061-.018.266-.025.266-.158ZM8.518,3.47h-.05a.122.122,0,0,1,.029.079c0,.032,0,.057-.05.057a.083.083,0,0,1-.061-.025c0,.043-.022.1-.065.1s-.054-.047-.054-.079a.093.093,0,0,1-.072.039.054.054,0,0,1-.075-.075A.1.1,0,0,1,8.152,3.5a.1.1,0,0,1-.1-.025.617.617,0,0,0,.337.416A.832.832,0,0,0,8.5,3.506a.14.14,0,0,0,0-.054Zm-.441,0c0,.022.036.032.057.032a.09.09,0,0,0,.075-.032V3.427H8.155c-.036-.025-.093-.018-.093.025Zm.2,1.023a.19.19,0,0,0,0,.065c0,.1.14.111.208.129a.359.359,0,0,1,0-.083.187.187,0,0,1-.061,0,.1.1,0,0,1-.1-.1.169.169,0,0,1,0-.057.1.1,0,0,1-.093-.1.3.3,0,0,1,.057-.129c-.057,0-.079-.043-.079-.1a.359.359,0,0,1,.022-.122L8.2,3.965a.255.255,0,0,0-.061.147.154.154,0,0,0,.083.136.219.219,0,0,0-.047.122c-.029.047.039.086.083.1ZM8.148,2.6a.036.036,0,0,1,.039.039c0,.018,0,.032-.039.032a.032.032,0,0,1-.029-.05C8.119,2.6,8.119,2.6,8.148,2.6Zm0-.958a.029.029,0,0,0,.032.032s.154-.194.176-.219c-.09-.011-.237.068-.237.169Zm0,1.948s.025.032.039.032a.207.207,0,0,0,.086-.1.068.068,0,0,1-.057-.039.11.11,0,0,0-.075.09Zm.23.445a.251.251,0,0,1-.154-.043.251.251,0,0,0-.029.108c0,.039.022.072.057.072a.086.086,0,0,0,.068-.025.136.136,0,0,1,.057-.111Zm-.022-.649a.068.068,0,1,0-.028.072.068.068,0,0,0,.028-.072Zm-.036.779H8.281a.337.337,0,0,0-.05.133.075.075,0,0,0,.068.072.133.133,0,0,0,.115-.09.151.151,0,0,1-.093-.108ZM8.238,1.654c0,.025.029.032.043.032s.14-.147.172-.169h0v.007h0c-.068,0-.215.05-.215.14Zm.029,1.9c0,.032,0,.075.047.075s.043-.065.043-.1a.24.24,0,0,1-.022-.043.1.1,0,0,1-.047.018.194.194,0,0,0-.022.039Zm.1-.38-.065.1a.09.09,0,0,1,.043,0A.617.617,0,0,1,8.4,3.2a.161.161,0,0,1-.036-.014Zm.19,1.076a.14.14,0,0,1-.1.054H8.432c-.025.05-.068.115-.118.122s0,.025,0,.032c0,.065.029.09.079.09s.1-.065.118-.122V4.353c.022.083.065.147.147.147.029,0,.057,0,.057-.05a.276.276,0,0,0-.161-.194Zm-.133-1-.065.072a.043.043,0,0,1,.022.032.212.212,0,0,1,.068-.032h.032Zm0,.319a.036.036,0,0,0,.036-.032.144.144,0,0,0-.075-.115.187.187,0,0,1-.036.065c.018.039.047.09.086.09Zm.022.7a.1.1,0,0,0,.093-.1.1.1,0,1,0-.093.1Zm.118.7.036.022A1.076,1.076,0,0,1,8.36,5.3a1.991,1.991,0,0,0,.212-.33ZM8.478,3.344H8.449a.14.14,0,0,0-.054,0V3.4a.169.169,0,0,0,.09.025h.022a.434.434,0,0,0-.029-.083ZM8.424,2.121c.032-.065.09-.129.158-.129a.111.111,0,0,1,.108.047A.115.115,0,0,0,8.6,2.006c-.072,0-.126.065-.183.115Zm0,.111a.133.133,0,0,0,.1-.032.086.086,0,0,1,.09-.079.169.169,0,0,1,.057,0H8.7a.646.646,0,0,0-.036.065l.036.09a.852.852,0,0,0-.283-.032Zm.111,2.476c.039,0,.09-.032.09-.072a.176.176,0,0,0-.1-.147.248.248,0,0,0-.05.14c.007.047.007.079.061.079Zm.039-.771a.359.359,0,0,1-.075.09.144.144,0,0,1,.09.108L8.647,4.1a1.144,1.144,0,0,0-.075-.165ZM8.5,5.691a.075.075,0,0,0,.036.047A.213.213,0,0,0,8.618,5.7l-.043-.065c-.022.007-.079.032-.079.057Zm.057-4.406a.359.359,0,0,1,0,.115.291.291,0,0,1,.111.054V1.382A.212.212,0,0,0,8.557,1.2a.359.359,0,0,1,0,.09Zm.061.85a.079.079,0,0,0-.075.057l.1-.047a.032.032,0,0,0-.032-.011ZM8.69,4.22a.165.165,0,0,0-.029-.086.136.136,0,0,1-.057,0h0a.115.115,0,0,1-.025.09.359.359,0,0,1,.1.039c0,.007.011-.025.011-.043ZM8.575,2.29a.169.169,0,0,1,.079,0H8.575Zm.14,2.239a.079.079,0,0,1-.061.018H8.618a.158.158,0,0,1,0,.065.215.215,0,0,1-.022.1c.075-.007.115-.115.115-.179Zm-.09,1.188h0a.233.233,0,0,0,.212.2h0a.115.115,0,0,0,.039-.065.456.456,0,0,1-.255-.14ZM8.7,5.024a.147.147,0,0,0,.039.025l-.126.172a1.177,1.177,0,0,0,.083-.2Zm.133.488h0a.129.129,0,0,1-.072-.032V5.454A.14.14,0,0,0,8.837,5.512Zm.036-.039a.14.14,0,0,1-.111-.047l.022-.032a.194.194,0,0,0,.09.079Zm-.036-.405h.039a.639.639,0,0,1-.1.129Zm.061.359h0a.111.111,0,0,1-.09-.025.118.118,0,0,0,0-.047.284.284,0,0,0,.079.061Zm.086,1.55v.072A.287.287,0,0,0,8.9,7.2a.359.359,0,0,1,0-.09.38.38,0,0,1,.093-.266v.129ZM9.178,5.11c0-.1-.118-.129-.194-.14V4.912c.111.018.244.032.244.187,0,.219-.219.359-.212.5h0a.172.172,0,0,1,.079.144.126.126,0,0,1-.111.133V5.831a.083.083,0,0,0,.075-.09.147.147,0,0,0-.036-.1S9,5.67,8.984,5.67c-.025-.362.183-.362.183-.556ZM12.2,6.976v.09c-.1.065-.244.1-.294.208-.09-.176-.413-.144-.5-.477a.574.574,0,0,0-.23-.039.822.822,0,0,0-.646.3,1.848,1.848,0,0,1,.029-.359.506.506,0,0,1-.215.057.588.588,0,0,1-.133-.018.147.147,0,0,0-.036.075c0,.072.1.122.154.122h0a.359.359,0,0,1-.212.057.316.316,0,0,1-.187-.057,1.137,1.137,0,0,1-.434.108C9.375,7.04,9.26,7,9.135,7a.273.273,0,0,0-.172.047V6.976a.388.388,0,0,1,.165-.032c.126,0,.248.039.359.039a1.349,1.349,0,0,0,.671-.244.876.876,0,0,0-.14-.025.065.065,0,0,0-.043,0v0a.474.474,0,0,1-.359.136,1.385,1.385,0,0,1-.42-.079.327.327,0,0,0-.222.176V6.836a.449.449,0,0,1,.165-.083.5.5,0,0,0-.165-.025V6.689a.359.359,0,0,1,.1,0,.567.567,0,0,1-.1-.111v-.23a.761.761,0,0,1,.09-.129.3.3,0,0,1,.28-.323.251.251,0,0,1,.111.025.4.4,0,0,0-.169.33c0,.237.258.327.434.327a.6.6,0,0,0,.258-.065.9.9,0,0,1,.057-.269.52.52,0,0,0-.3-.122.251.251,0,0,0-.111.025.556.556,0,0,1,.266-.438,1.119,1.119,0,0,0-.538-.122H9.106a.718.718,0,0,1,.545-.208,1,1,0,0,1,.273.032L9.748,5.16a.122.122,0,0,1-.072-.068.61.61,0,0,0-.423-.208.481.481,0,0,1,.237-.065.646.646,0,0,1,.161.022.718.718,0,0,0-.359-.309.413.413,0,0,1,.161-.039.434.434,0,0,1,.258.09A1.905,1.905,0,0,0,9.257,3.8a.614.614,0,0,1,.492.283,6.143,6.143,0,0,0-.517-.969,1.537,1.537,0,0,1,.818.958A4.88,4.88,0,0,0,9.264,2.6a1.658,1.658,0,0,1,.876.876V2.835a.244.244,0,0,1-.1.025A.258.258,0,0,1,9.8,2.6a.452.452,0,0,1,.115-.28c.126-.136.244-.3.377-.438a.126.126,0,0,1,.1-.047.309.309,0,0,1,.2.111,1.015,1.015,0,0,0,.391.237h.036a1.023,1.023,0,0,1,.879-.592.972.972,0,0,1,.294.057v.083a.718.718,0,0,0-.294-.057.937.937,0,0,0-.822.567,2.688,2.688,0,0,0,.811.115h.294v.029a1,1,0,0,1-.179,0,2.083,2.083,0,0,1-1.435-.4.258.258,0,0,0-.169-.108.108.108,0,0,0-.068.036c-.086.086-.309.359-.4.459a.388.388,0,0,1,.266.384v1.7h0V4.78h0c.029.187-.226.413-.384.4H9.8l.359.431a.718.718,0,0,1,.19-.025c.5,0,.893.542,1.572.542A1.794,1.794,0,0,0,12.2,6.1V6.19a1.51,1.51,0,0,1-.179,0,1.923,1.923,0,0,1-1.145-.359.693.693,0,0,0-.42-.179.929.929,0,0,0-.818.474.771.771,0,0,1,.2-.025.262.262,0,0,1,.226.1.6.6,0,0,1,.474-.309.858.858,0,0,0-.531.779.237.237,0,0,1,.1,0h.251a.413.413,0,0,0,.2-.039.563.563,0,0,1,.517-.51H11.1a.743.743,0,0,0-.5.718.911.911,0,0,1,.517-.172.718.718,0,0,1,.258.05.614.614,0,0,1,.147-.449.825.825,0,0,0-.1.359c0,.38.341.341.474.606.079-.183.172-.176.294-.273ZM9.619,6.8A1.026,1.026,0,0,0,10,6.714a.973.973,0,0,1,0-.144.61.61,0,0,1-.312.111.438.438,0,0,1-.434-.395.459.459,0,0,1,.154-.309c-.183.072-.316.079-.309.359h0V6.258a.24.24,0,0,0-.065.169c-.032.3.38.359.571.359ZM10.01,4.7a.154.154,0,0,1,.126,0,10.269,10.269,0,0,0-.474-1.076,9.092,9.092,0,0,1,.488,1.015v-.2a3.882,3.882,0,0,0-.28-.657A1.3,1.3,0,0,0,9.332,3.2,6.767,6.767,0,0,1,10,4.694Zm.14-.423V3.872a4.632,4.632,0,0,0-.474-.883,5.415,5.415,0,0,1,.474.771V3.542a1.973,1.973,0,0,0-.775-.879,4.345,4.345,0,0,1,.764,1.607Zm-.316.52.05-.043a2.53,2.53,0,0,0-.147-.388,2.322,2.322,0,0,1,.183.359L9.974,4.7c-.047-.129-.09-.269-.14-.405h0a.829.829,0,0,0-.459-.431,2.544,2.544,0,0,1,.449.922Zm.079.9a.4.4,0,0,1,.147-.057l-.1-.176a1.148,1.148,0,0,0-.291-.032.449.449,0,0,0-.28.072.789.789,0,0,1,.527.194ZM9.7,4.912a.459.459,0,0,1,.05-.075,1.59,1.59,0,0,0-.176-.208,1.328,1.328,0,0,1,.2.176l-.043-.129a.434.434,0,0,0-.287-.115.108.108,0,0,0-.057,0,.718.718,0,0,1,.319.352Zm0,0a.621.621,0,0,0-.215-.039.269.269,0,0,0-.072,0,.879.879,0,0,1,.248.172A.316.316,0,0,1,9.7,4.927Zm.1.212a.248.248,0,0,0,.111-.011c-.036-.05-.072-.108-.108-.165a.258.258,0,0,0,.309-.136.068.068,0,0,0-.075-.05.4.4,0,0,0-.33.309.075.075,0,0,0,.09.068Zm.244-2.347a.151.151,0,0,0,.1-.032V2.727a.165.165,0,0,0-.111-.054.108.108,0,0,0-.05,0L9.939,2.6l.083-.108a.266.266,0,0,0-.108-.05.248.248,0,0,0-.043.14.19.19,0,0,0,.172.208ZM9.935,5.289,9.9,5.239a.431.431,0,0,0,.147-.072.52.52,0,0,1-.115.118Zm.14-.316-.14.039.054.047a.28.28,0,0,0,.083-.09ZM10,5.354,9.96,5.3a.262.262,0,0,0,.147-.079.642.642,0,0,1-.115.126Zm.05.057-.029-.043a.52.52,0,0,0,.14-.072.359.359,0,0,1-.115.111Zm0-2.81h.068l-.025-.032Zm.226,3.161a.115.115,0,0,1,.072.025l-.072.043a.359.359,0,0,0-.23.09.273.273,0,0,1,.23-.158Zm-.036-3.229a.226.226,0,0,0-.179-.154l.036-.057a.269.269,0,0,1,.129.2Zm-.158,2.9a1.076,1.076,0,0,0,.158-.079c0,.039-.083.1-.111.122Zm.194-2.993a.248.248,0,0,0-.176-.161l.05-.039a.3.3,0,0,1,.126.2Zm-.147,2.271Zm.2-2.35a.226.226,0,0,0-.169-.165l.036-.047a.244.244,0,0,1,.14.212Zm1.851,2.253c-.029,0-.054,0-.068.043s0,.054,0,.086h.054V4.78h-.054a.222.222,0,0,1,0,.068c0,.054-.043.079-.043.1v.039h.083v.025h-.075c0,.161-.1,0-.111.194-.133,0-.05.09-.147.09a.115.115,0,0,1-.072-.025H11.3l.09.05.208.032-.118.018.079.032h.466l.093-.237a.484.484,0,0,1,.068.057v.065a.208.208,0,0,0-.047-.05.3.3,0,0,0-.043.083.319.319,0,0,1-.043.1.1.1,0,0,1,.036.043l.1-.025v.065H12.12a.269.269,0,0,1,0,.075A.28.28,0,0,1,12.1,5.7h.075v.057a.233.233,0,0,1-.068,0h-.057a.161.161,0,0,1-.1.05.075.075,0,0,1-.065-.043.118.118,0,0,1-.068.032.179.179,0,0,1-.093-.039,1.55,1.55,0,0,1-.553-.212,3.452,3.452,0,0,0-.718-.154.484.484,0,0,0-.262.075.459.459,0,0,1,.438-.262.459.459,0,0,0-.291-.179.3.3,0,0,1,.194-.072.359.359,0,0,1,.086,0,1.834,1.834,0,0,1-.19-.811,1.668,1.668,0,0,1,.244-.883.811.811,0,0,0,.09-.359.843.843,0,0,0-.025-.194.42.42,0,0,1,.147.065.334.334,0,0,1,.1,0,.136.136,0,0,1,.126.065.161.161,0,0,1,.1-.09,1.145,1.145,0,0,1,.664-.187,1.64,1.64,0,0,1,.294,0V2.6a1.64,1.64,0,0,0-.294,0,1.123,1.123,0,0,0-.592.154.129.129,0,0,1,.061.115.14.14,0,0,1,0,.057,1.105,1.105,0,0,1,.538-.14,1.658,1.658,0,0,1,.294.025v.065a1.191,1.191,0,0,0-.294-.032,1.051,1.051,0,0,0-.606.194.19.19,0,0,1,0,.065.208.208,0,0,1-.065.147.915.915,0,0,1,0,.14.194.194,0,0,0-.108-.072c-.176,0-.316.359-.359.51.025,0,.061.043.083.043a.032.032,0,0,0,.029,0h0c.054.032.09,0,.154.065s.032.043.054.043.043-.025.065-.025.029,0,.029.032-.072.065-.108.065a.165.165,0,0,0,.154.1c.029,0,.093,0,.1-.057s0-.065.029-.065.05.122.072.165-.036.032-.036.054c0,.09.057.179.057.269v.05a.994.994,0,0,1,.14.283s0,.025,0,.032a.642.642,0,0,1,.165.276.108.108,0,0,0,.043.09c.022,0,.05.039.072.039h0c.039-.05.018-.09.1-.09,0-.09.043-.083.1-.1V4.952c0-.032.043-.065.043-.1a.807.807,0,0,0-.029-.187c.022-.05.057-.1.111-.083ZM10.387,2.282a.23.23,0,0,0-.161-.161l.036-.05a.28.28,0,0,1,.136.212Zm.065-.083a.251.251,0,0,0-.169-.161l.036-.047a.294.294,0,0,1,.144.208Zm.639,3.272a1.155,1.155,0,0,1-.251-.226,1.13,1.13,0,0,0-.154-.018.456.456,0,0,0-.359.14.477.477,0,0,1,.154-.025,2.282,2.282,0,0,1,.61.129Zm-.567-3.351a.24.24,0,0,0-.161-.161l.036-.05a.3.3,0,0,1,.126.212Zm-.09,4.047c.029-.1.09-.219.2-.219a.072.072,0,0,1,.039,0C10.649,6,10.491,6.079,10.434,6.168Zm.244-.965H10.8a1.5,1.5,0,0,1-.133-.2.649.649,0,0,0-.111-.018A.6.6,0,0,0,10.441,5,.413.413,0,0,1,10.678,5.2Zm1.1.4a.283.283,0,0,0,0-.083A1.367,1.367,0,0,1,10.7,4.155c0-.258.14-.908.441-.908a.208.208,0,0,1,.075,0,.19.19,0,0,0-.226-.136c0-.154-.022-.262-.161-.319a.847.847,0,0,1-.1.506,1.615,1.615,0,0,0-.237.85,1.536,1.536,0,0,0,1.249,1.557A.2.2,0,0,0,11.776,5.6Zm-1.055.431H10.8c-.039.057-.154.1-.237.212C10.574,6.168,10.631,6.032,10.721,6.032Zm.208-3.947-.23-.2.022-.032.23.194Zm-.208-.427a.039.039,0,0,1,0-.032h.022c.047,0,.266.294.287.319v.022c-.022-.039-.309-.276-.309-.316Zm0,2.271v.065l.194.025-.2.022v.068h.341V4.13h-.341v.057l.169.025-.169.025V4.3h.635a.233.233,0,0,1,0-.068.144.144,0,0,1,.029-.065L11.349,4.1a.151.151,0,0,1-.133.065c-.118,0-.179-.083-.222-.2h.029a.319.319,0,0,0-.032-.047Zm.635.4h-.628a.413.413,0,0,0,0,.079l.194.025-.187.025.025.079h.632V4.5a1.277,1.277,0,0,0-.022-.176Zm-.606-.463V3.89H10.8Zm.657.689h-.624l.022.057.176.032-.161.025a.175.175,0,0,0,.036.079h.657c-.014-.079-.068-.118-.1-.194Zm.126,2.512a3.018,3.018,0,0,0-.671-.158.632.632,0,0,1,.3-.086,1.511,1.511,0,0,1,.179,0,.345.345,0,0,0,.19.255Zm0-2.3h-.664l.047.075.2.025-.161.022a.628.628,0,0,0,.057.09h.628a.718.718,0,0,0-.118-.136h.022V4.819a.161.161,0,0,0-.022-.039Zm-.657-3.728A.05.05,0,0,1,10.915,1a5.917,5.917,0,0,1,.388.682h-.022A7.162,7.162,0,0,1,10.875,1.041Zm.115,5.275a.9.9,0,0,0-.1.1.23.23,0,0,1,.215-.212h0C11.119,6.251,11.015,6.29,10.99,6.315Zm0-3.506a.09.09,0,0,0-.043,0,.384.384,0,0,1,.079.237.262.262,0,0,1,.179.136.161.161,0,0,0,.036-.1c0-.072-.083-.1-.133-.115C11.112,2.892,11.1,2.81,10.99,2.81Zm0-1.249.169.2-.029.025-.14-.2Zm.7,3.588c0-.025-.043-.083-.057-.115h-.6l.075.09.19.025-.147.025a1.044,1.044,0,0,0,.111.086h.488a.122.122,0,0,1-.039-.129Zm-.456,1.134h.029a2.473,2.473,0,0,0-.219.208c.018-.111.1-.226.2-.226Zm-.068-3.4a.072.072,0,0,0,.068.079.075.075,0,0,0,.065-.079c0-.039-.029-.083-.065-.083a.075.075,0,0,0-.057.065ZM11.4,1.619l-.111-.251h.039l.1.255Zm.054-.359A.039.039,0,0,1,11.5,1.22c.043,0,.1.323.1.359h-.025a2.393,2.393,0,0,1-.111-.352Zm.567,3.115a.858.858,0,0,0,.154-.24V4.27a.423.423,0,0,1-.068.09c-.133.169-.126.38-.251.477a.065.065,0,0,1-.036-.065c-.111-.025-.14-.2-.161-.3-.036-.187-.19-.222-.19-.463a.28.28,0,0,1,.237-.334c-.029,0-.036-.039-.036-.072a.1.1,0,0,1,.075-.1.054.054,0,0,1,0-.032V3.434a.075.075,0,0,1,.072-.039.1.1,0,0,1,0-.043.057.057,0,0,1,.036-.054.069.069,0,1,1,.133-.032s0,.022,0,.032a.054.054,0,0,1,.029.054.09.09,0,0,1,0,.043c.029,0,.075,0,.075.057a.1.1,0,0,1,0,.039.09.09,0,0,1,.079.09.1.1,0,0,1-.036.079.172.172,0,0,1,.1.057V3.75a.194.194,0,0,0-.165-.072,1.938,1.938,0,0,1-.359,0,.28.28,0,0,0-.19.291.718.718,0,0,0,.147.359,1.1,1.1,0,0,1,.068.294.168.168,0,0,0,.079.129c-.043-.276.126-.445.126-.592v-.1a.039.039,0,0,1,.036-.032c.029,0,.029.065.029.079,0,.165-.154.276-.154.52a.208.208,0,0,0,.032.122c.065-.075.072-.294.154-.409Zm-.434,2.153c0-.065.022-.2.1-.2a.653.653,0,0,0-.086.359V6.71a1.392,1.392,0,0,1,0-.2Zm.05-1.076.118.022a.061.061,0,0,1,.036-.022Zm.111-1.794h.316c.036,0,.057-.039.057-.079a.09.09,0,0,0-.065-.075c0,.018-.118.018-.14.018a.517.517,0,0,1-.133-.018.086.086,0,0,0-.083.083c-.018.054,0,.093.057.093Zm0-2.174-.043-.262h.032l.036.273Zm0,1.973c.022.057.161.039.24.039s.047,0,.047-.047-.054-.043-.083-.043-.187-.018-.2.054Zm.176,2.124c0-.039-.022-.1-.075-.1a.047.047,0,0,0-.043.025.323.323,0,0,1,.022.1.3.3,0,0,1-.043.129.111.111,0,0,0,.043,0c.05.022.1-.093.1-.144Zm-.036-2.2c.05,0,.072,0,.079-.036s-.039-.029-.068-.029-.061,0-.075.025.007.043.068.043Zm-.039,3.107a.3.3,0,0,1,.039-.165.42.42,0,0,1,.029.165,1.539,1.539,0,0,1-.029.251,1.582,1.582,0,0,1-.036-.248Zm0-3.229c0,.025,0,.032.039.032s.036,0,.043-.032,0-.032-.043-.032-.029,0-.029.025Zm.032-1.751c0-.251-.025-.513-.025-.764,0-.032,0-.047.039-.047s.036.032.036.072v.739Zm.183,4.083c0-.057-.036-.133-.1-.133h-.036a.208.208,0,0,1,.036.122.291.291,0,0,1-.043.14.036.036,0,0,0,.029.032C12.027,5.756,12.066,5.659,12.066,5.594Zm-.039-4.108h-.032l.032-.273h.036Zm.039,4.822c.083,0,.1.136.1.2a1.392,1.392,0,0,1,0,.172.664.664,0,0,0-.1-.373ZM12.178,1.4v.144h-.029Zm.118-.172c0,.025-.1.269-.118.309V1.4c0-.025.043-.212.072-.212a.043.043,0,0,1,.057.039Zm3.093,5.346V6.7a.423.423,0,0,0-.111.018c-.022.154-.233.208-.359.208a.779.779,0,0,1-.391-.118h-.1a.4.4,0,0,1-.2.405.334.334,0,0,0,.043-.165c0-.176-.169-.219-.3-.219,0,.187-.176.219-.309.219a.89.89,0,0,1-.14,0,.173.173,0,0,0,.183-.194.176.176,0,0,0-.043-.129c-.075,0-.147.039-.222.039a.538.538,0,0,1-.222-.057,1.59,1.59,0,0,1,.032.359.825.825,0,0,0-.642-.3.535.535,0,0,0-.23.039.488.488,0,0,1-.2.269v-.09a.4.4,0,0,0,.169-.341.865.865,0,0,0-.1-.359.642.642,0,0,1,.176.4.057.057,0,0,1,0,.032.75.75,0,0,1,.258-.05.922.922,0,0,1,.524.172.746.746,0,0,0-.5-.718h.018c.287,0,.449.219.513.51a.449.449,0,0,0,.2.039H13.7a.28.28,0,0,1,.108,0,.861.861,0,0,0-.531-.779.624.624,0,0,1,.474.309.251.251,0,0,1,.222-.1.761.761,0,0,1,.2.025c-.05-.334-.434-.474-.7-.474a.689.689,0,0,0-.438.187,1.851,1.851,0,0,1-.847.359V6.118c.531-.065.937-.527,1.371-.527a.671.671,0,0,1,.219.039l.319-.438a.474.474,0,0,1-.384-.359V2.77a.4.4,0,0,1,.266-.384C13.9,2.3,13.659,2,13.588,1.927a.115.115,0,0,0-.086-.043c-.065,0-.115.057-.161.108a1.862,1.862,0,0,1-1.152.395V2.333a2.806,2.806,0,0,0,.517-.09,1.048,1.048,0,0,0-.517-.51V1.665a1.145,1.145,0,0,1,.6.578,1.263,1.263,0,0,0,.154-.047,1.037,1.037,0,0,0,.384-.237.294.294,0,0,1,.179-.122.14.14,0,0,1,.111.047c.133.14.244.3.359.438a.42.42,0,0,1,.118.262.258.258,0,0,1-.244.276.276.276,0,0,1-.1-.025v.632a1.7,1.7,0,0,1,.893-.865,4.794,4.794,0,0,0-.775,1.475,1.518,1.518,0,0,1,.818-.958,5.63,5.63,0,0,0-.524,1,.649.649,0,0,1,.423-.283h.047a1.873,1.873,0,0,0-.459.779.456.456,0,0,1,.266-.09.427.427,0,0,1,.161.039.685.685,0,0,0-.359.309.624.624,0,0,1,.161-.022.427.427,0,0,1,.23.065h-.047a.847.847,0,0,0-.359.2c-.032.036-.039.057-.075.068l-.176.251a.865.865,0,0,1,.258-.032.764.764,0,0,1,.538.208h-.258a.937.937,0,0,0-.531.129.452.452,0,0,1,.183.359.323.323,0,0,1,0,.083.251.251,0,0,0-.118-.025.52.52,0,0,0-.294.122.764.764,0,0,1,.054.283v.025a.413.413,0,0,0,.2.05c.23,0,.359-.222.4-.441a.779.779,0,0,1,.111.359v.039a.718.718,0,0,0,.19-.154.782.782,0,0,0,.215-.574V5.709a1.313,1.313,0,0,1,.208.359.614.614,0,0,0,.2-.187V5.96a.958.958,0,0,1-.065.359.154.154,0,0,1,.1.154v.022l.057-.054v.039l-.057.039a.276.276,0,0,1-.068.108V6.66ZM12.676,5.551a1.593,1.593,0,0,1-.5.2V5.7a1.543,1.543,0,0,0,1.2-1.55c0-.642-.341-.829-.341-1.249a.56.56,0,0,1,0-.108c-.14.068-.161.165-.169.319a.194.194,0,0,0-.194.154.179.179,0,0,1,.075,0c.3,0,.441.649.441.908A1.381,1.381,0,0,1,12.17,5.53V5.465l.072-.025a.746.746,0,0,0-.072-.129V5.246h.42l.111-.1-.129-.036h.212l.068-.083h-.664V5.006h.685a.628.628,0,0,0,.057-.09l-.147-.036.19-.025a.857.857,0,0,0,.047-.075h-.832V4.755h.832c0-.022.029-.054.043-.079l-.176-.025.19-.032.022-.057h-.771c0,.032-.09,0-.118.075h-.022V4.59c.029-.043.072-.043.118-.05s0-.047.029-.065a.646.646,0,0,0,.176-.115,1.177,1.177,0,0,0,.111-.122h.065a.086.086,0,0,0,.075-.079s0-.025,0-.032a.113.113,0,0,1,.09-.05h0l.036-.039a.158.158,0,0,0,.057,0,.528.528,0,0,0,.111,0V3.969s.029.043.061.043a.032.032,0,0,0,.029,0c0-.2-.154-.693-.362-.693a.2.2,0,0,0-.14.083.431.431,0,0,1,0-.14.187.187,0,0,1-.065-.154.126.126,0,0,1,0-.065,1.076,1.076,0,0,0-.405-.154V2.81a1.292,1.292,0,0,1,.337.115.136.136,0,0,1,0-.057.147.147,0,0,1,.068-.122,1.356,1.356,0,0,0-.391-.144V2.559c.126,0,.517.122.56.258a.147.147,0,0,1,.133-.065.219.219,0,0,1,.1,0,.42.42,0,0,1,.158-.047.843.843,0,0,0-.025.194.811.811,0,0,0,.09.359,1.669,1.669,0,0,1,.244.883,1.794,1.794,0,0,1-.2.811.4.4,0,0,1,.09,0,.283.283,0,0,1,.19.072.466.466,0,0,0-.28.179.466.466,0,0,1,.42.269.431.431,0,0,0-.262-.075,3.42,3.42,0,0,0-.721.154Zm-.416-1.6a.6.6,0,0,1-.072.291V4.1c0-.057.036-.133.036-.2a.312.312,0,0,0-.036-.154V3.718a.3.3,0,0,1,.072.23Zm.319,1.32h-.359a.513.513,0,0,1,.075.147.653.653,0,0,1,.1-.039l-.118-.018a.553.553,0,0,0,.3-.09ZM12.615,6.8a.621.621,0,0,1,.3.086,3.229,3.229,0,0,0-.671.187c.083-.047.208-.136.2-.258a1.184,1.184,0,0,1,.169-.014Zm-.251-5.2h-.036l.1-.269h.029Zm.779,2.709H12.6a.7.7,0,0,1-.251.187v.025h.757l.018-.065-.179-.032.2-.029ZM12.49,1.7h0a5.415,5.415,0,0,1,.384-.682.043.043,0,0,1,.036.039C12.9,1.08,12.511,1.665,12.49,1.7Zm0,4.578a.032.032,0,0,1,.029,0,.233.233,0,0,1,.194.219,2.013,2.013,0,0,0-.208-.219Zm.147-3.315a.079.079,0,0,0,.068-.079.083.083,0,0,0-.068-.083c-.036,0-.065.043-.065.083A.075.075,0,0,0,12.637,2.961Zm.147-1.374-.169.2-.022-.025.19-.2Zm.359,2.569V4.1h-.294a.086.086,0,0,0-.061,0,.133.133,0,0,1-.118.147.065.065,0,0,1-.036,0L12.6,4.27h.538V4.231l-.169-.025.176-.032Zm-.219-1.338a.09.09,0,0,0-.043,0c-.1,0-.111.083-.118.169-.05,0-.133.043-.133.115a.161.161,0,0,0,.036.1.244.244,0,0,1,.179-.136.384.384,0,0,1,.079-.244Zm-.14,3.5c-.029-.025-.126-.065-.126-.108h0a.23.23,0,0,1,.215.212.667.667,0,0,0-.09-.1Zm-.057-4.388a2.243,2.243,0,0,1,.287-.319c.022,0,.036,0,.036.043a1.873,1.873,0,0,1-.309.3Zm.057,3.545a2.293,2.293,0,0,1,.606-.129.492.492,0,0,1,.161.025.474.474,0,0,0-.359-.14,1.13,1.13,0,0,0-.154.018,1.353,1.353,0,0,1-.255.226Zm.036-3.441.23-.194V1.87l-.219.194Zm.323,2.006a.09.09,0,0,1-.075,0,.718.718,0,0,0-.19.022h.273Zm-.161,1.981h.072c.075,0,.14.136.154.212-.065-.093-.179-.14-.215-.2Zm.086-.822h.126c.029-.1.147-.154.23-.194a.449.449,0,0,0-.1-.018A.649.649,0,0,0,13.207,5a1.546,1.546,0,0,1-.129.208Zm.039.746a.043.043,0,0,1,.029,0c.111,0,.169.122.2.219-.054-.083-.2-.161-.222-.2Zm.262-3.836a.28.28,0,0,1,.133-.2l.039.05a.226.226,0,0,0-.161.161Zm.187-.129.036.047a.237.237,0,0,0-.161.161.283.283,0,0,1,.136-.194Zm.065.079.039.05a.258.258,0,0,0-.172.161.312.312,0,0,1,.144-.2Zm.061.083.043.047a.248.248,0,0,0-.176.165.273.273,0,0,1,.144-.2Zm.065.079.036.05a.226.226,0,0,0-.169.161.258.258,0,0,1,.144-.187Zm.061.083.043.057a.208.208,0,0,0-.176.154.251.251,0,0,1,.144-.2Zm-.133,3.036a.567.567,0,0,0,.154.079l-.047.043a.22.22,0,0,1-.1-.108Zm.065-.057a.359.359,0,0,0,.14.072l-.036.043a.538.538,0,0,1-.093-.1Zm0-1.023a4.532,4.532,0,0,1,.782-1.607,1.991,1.991,0,0,0-.782.879v.219a4.873,4.873,0,0,1,.481-.771,5.1,5.1,0,0,0-.481.883Zm0,.359a10.634,10.634,0,0,1,.5-1.015,11.056,11.056,0,0,0-.474,1.076.147.147,0,0,1,.075,0h.05a6.434,6.434,0,0,1,.693-1.485,1.281,1.281,0,0,0-.531.578,3.918,3.918,0,0,0-.287.657Zm0-1.869a.129.129,0,0,0,.1.032.19.19,0,0,0,.208-.176.312.312,0,0,0-.036-.14.287.287,0,0,0-.133.065l.09.108-.047.065a.133.133,0,0,0-.154.047ZM14.1,5.124a.075.075,0,0,0,.079-.083.4.4,0,0,0-.316-.287.079.079,0,0,0-.083.05.244.244,0,0,0,.251.147.158.158,0,0,0,.068,0,1.938,1.938,0,0,1-.118.165.3.3,0,0,0,.126.022Zm.294,1.7a.24.24,0,0,0-.036-.14.237.237,0,0,0,.086-.194.4.4,0,0,0-.036-.161c-.083.154-.183.323-.359.323a.452.452,0,0,1-.248-.09.933.933,0,0,1-.018.14c.158.05.585.032.571.291v.025a.359.359,0,0,0,.047-.179ZM13.8,5.221a.222.222,0,0,0,.147.079l-.039.05A.33.33,0,0,1,13.8,5.221Zm.147.5a.718.718,0,0,1,.513-.2h.047a.427.427,0,0,0-.28-.072,1.048,1.048,0,0,0-.28.032l-.147.161A.52.52,0,0,1,13.95,5.716ZM13.81,2.6h.05l-.05-.039Zm.154,2.418c-.047-.018-.1-.025-.14-.039a.423.423,0,0,0,.093.086Zm-.1.154a.466.466,0,0,0,.147.072l-.043.05a.492.492,0,0,1-.1-.133Zm.222-.861h0c-.054.136-.1.276-.151.405l.054.025a2.361,2.361,0,0,1,.19-.359,2.566,2.566,0,0,0-.154.37l.061.043a2.329,2.329,0,0,1,.456-.919.789.789,0,0,0-.456.423Zm.359.258a.409.409,0,0,0-.28.115l-.043.129a.883.883,0,0,1,.2-.176,1.177,1.177,0,0,0-.176.208c0,.025.036.05.05.075a.718.718,0,0,1,.312-.341.158.158,0,0,0-.075-.022ZM14.42,4.9a.621.621,0,0,0-.215.039.276.276,0,0,1,.039.14.879.879,0,0,1,.248-.172.222.222,0,0,0-.079-.018Zm.463,1.737a.782.782,0,0,0,.377-.61.359.359,0,0,1-.183.122c.022-.065-.068-.194-.1-.244a.736.736,0,0,1-.463.718.359.359,0,0,1-.068.122V6.8a1.712,1.712,0,0,0,.434-.176Zm-.337.057h-.029c.323-.1.323-.172.538-.438a.639.639,0,0,1-.517.427Zm.718-.083a.194.194,0,0,0,.029-.1.233.233,0,0,0-.086-.154.883.883,0,0,1-.628.445.682.682,0,0,0,.323.079c.1,0,.359-.057.359-.219a.111.111,0,0,0-.05-.1.093.093,0,0,1,.057.039Zm-.09.039c0,.14-.359.187-.427.179h-.036a1.478,1.478,0,0,0,.466-.19Zm.222-1.4V5.3c-.359-.09-.484-.47-.484-.85a1.866,1.866,0,0,1,.133-.642c-.068-.032-.244-.14-.244-.237a.054.054,0,0,1,.057-.057c.083,0,.176.068.266.083a1.661,1.661,0,0,1,.126-.413c-.029,0-.1,0-.1-.065a.67.67,0,0,1,.179-.269,1.342,1.342,0,0,1,.072-.405v.434h-.029c0,.025.029.115.029.129v.165a.057.057,0,0,1-.05.025.079.079,0,0,1-.047,0,3.082,3.082,0,0,1-.14.4.675.675,0,0,0,.118,0H15.4v.079h-.111c-.183,0-.323-.108-.405-.1h-.022c.022.1.287.2.359.226a.19.19,0,0,1,0-.09.251.251,0,0,0,.029.1.646.646,0,0,1,.068.018.129.129,0,0,1,0-.09.19.19,0,0,0,.029.09h.05V3.9a1.076,1.076,0,0,1-.316-.09,2.257,2.257,0,0,0-.118.635c.007.348.1.7.441.793Zm-.1-2.135V2.925a.47.47,0,0,0-.086.161.126.126,0,0,0,.086.025Zm.1,1.41v.251a.359.359,0,0,1-.09,0h-.029a.312.312,0,0,0,.111-.05.359.359,0,0,1,0-.09V4.6a.413.413,0,0,1-.118-.032h.118V4.529a.169.169,0,0,1-.1-.072A.262.262,0,0,0,15.393,4.521Zm-.1-.147a.176.176,0,0,0,.1.043V4.45a.309.309,0,0,1-.1-.075Zm.1.488v.032c-.022,0-.043.025-.065.032a.161.161,0,0,0,.065-.065Zm-.057-2.013.022.032L15.4,2.86V2.727a.151.151,0,0,0-.057.122Zm0,1.414A.154.154,0,0,1,15.4,4.3h0Zm3.269-2.289v.269a.144.144,0,0,0-.072-.025c-.022,0-.075,0-.075.043s.068.047.1.047a.122.122,0,0,0,.05,0v.115a.118.118,0,0,0-.057,0c-.022,0-.065,0-.065.039s.057.057.086.057h.036v.047c-.022,0-.115,0-.115.032s.065.057.086.057h.029v.3a.1.1,0,0,0-.022.057.129.129,0,0,0,.022.072v.172s-.072,0-.072.039.05.05.072.05v.38a.108.108,0,0,1-.079-.09.09.09,0,0,1,.065-.079c-.022-.018-.079-.05-.079-.09s.05-.075.079-.09c-.029,0-.093-.05-.093-.09s.043-.072.072-.09a.116.116,0,0,1-.086-.1c0-.047.05-.072.079-.083-.029,0-.1-.047-.1-.09s.061-.079.09-.1c-.029,0-.1-.032-.1-.079s.047-.075.075-.09-.1-.057-.1-.09.054-.072.075-.083-.1-.039-.1-.09.057-.072.09-.079c-.032,0-.1-.05-.1-.1a.1.1,0,0,1,.079-.083.111.111,0,0,1-.108-.1c0-.057.065-.072.1-.083a.972.972,0,0,0-.147,0A14.324,14.324,0,0,1,18.5,4v.09a4.169,4.169,0,0,1-.061.818h.169V5.1a1.593,1.593,0,0,0-.793.2,6.731,6.731,0,0,0,.258-1.819,1.938,1.938,0,0,1-.563.843.926.926,0,0,1-.477.237.169.169,0,0,1-.09-.018c.022.431-.75.416-.972,1.105a.815.815,0,0,0,.6.269.474.474,0,0,1,.065-.262.359.359,0,0,1-.118-.291.3.3,0,0,0,.161.251l.032-.025a.3.3,0,0,1-.1-.226V5.336a.309.309,0,0,0,.14.233.718.718,0,0,1,.2-.057.316.316,0,0,1-.079-.233V5.253a.273.273,0,0,0,.154.244h.054a.416.416,0,0,1-.065-.2.108.108,0,0,1,0-.043.3.3,0,0,0,.118.23l.036-.032a.4.4,0,0,1-.057-.2V5.221a.319.319,0,0,0,.072.179V5.368a2.185,2.185,0,0,1-.093-.578V4.755a1.855,1.855,0,0,0,.133.535c.14.463.029.911.147,1.324a.158.158,0,0,1,.14.1c.176,0,.441-.022.538-.208a1.051,1.051,0,0,1-.09-.23.628.628,0,0,1-.215.05.549.549,0,0,0,.2-.108V6.176a.33.33,0,0,1-.147.014h-.047a.359.359,0,0,0,.194-.09V6.036a.631.631,0,0,1-.179.032h0a.56.56,0,0,0,.187-.09V5.914l-.187.025a1.467,1.467,0,0,0,.187-.083V5.784a.832.832,0,0,1-.187.025,1.076,1.076,0,0,0,.187-.083.456.456,0,0,0,0-.1.718.718,0,0,1-.179.039,1.285,1.285,0,0,0,.2-.1V5.54c.1,0,.2-.237.2-.323a.133.133,0,0,0,0-.057V5.2s.28.057.42.072v.068a1.6,1.6,0,0,1-.42-.122.359.359,0,0,1-.169.359V5.6a1.435,1.435,0,0,0-.022.359,1.213,1.213,0,0,0,.083.517c.05,0,.176.043.176.115v.025c.079-.05.2-.129.2-.251a.126.126,0,0,0-.126-.14.2.2,0,0,0-.154.1V6.265c0-.165.061-.287.222-.287a.287.287,0,0,1,.2.083V6.19a.255.255,0,0,0-.2-.129.212.212,0,0,0-.208.2.222.222,0,0,1,.151-.068.2.2,0,0,1,.176.219c0,.147-.154.2-.258.237a.222.222,0,0,1,.065.129.427.427,0,0,1,.147-.039,1.012,1.012,0,0,0,.133-.226v.1a.933.933,0,0,1-.108.129.542.542,0,0,1,.108,0v.047a1.823,1.823,0,0,0-.28,0,.126.126,0,0,1,0,.09.919.919,0,0,1,.237-.025h.057V6.9h-.3c-.072.129-.506.208-.632.208a.459.459,0,0,1-.208-.039.388.388,0,0,1-.337.147.635.635,0,0,1-.517-.312c-.022.154-.258.194-.359.194a1.077,1.077,0,0,1-.212-.032c.072,0,.24-.032.24-.147a.28.28,0,0,0,0-.079.38.38,0,0,1-.42-.165c.075.018.266.032.266-.1s-.1-.122-.176-.122a.929.929,0,0,0-.413.108.147.147,0,0,1,.1.144.19.19,0,0,1-.061.14c0-.108-.043-.154-.133-.147h-.022V6.581a.98.98,0,0,1,.531-.187c.1,0,.244.032.244.179a.19.19,0,0,1-.154.179.359.359,0,0,0,.161.039.19.19,0,0,0,.19-.212c0-.233-.251-.3-.413-.3a1.076,1.076,0,0,0-.56.194V6.437a.811.811,0,0,1,.56-.212h.083c-.1-.032-.359-.122-.359-.269,0-.09.1-.147.161-.179a.273.273,0,0,1-.022-.09c0-.065.054-.1.111-.111v.032c.09-.642.876-.642.98-1.076a.144.144,0,0,1-.072-.122A.2.2,0,0,1,16.9,4.3a.129.129,0,0,1-.029-.083.391.391,0,0,1,0-.09.083.083,0,0,1-.036-.072.266.266,0,0,1,.036-.1.14.14,0,0,1-.036-.09c0-.018,0-.032,0-.05a.6.6,0,0,1-.258.057c-.118,0-.237-.039-.359-.039-.2,0-.384.3-.42.3s-.036-.039-.036-.065a.528.528,0,0,1,.036-.144h0a1.216,1.216,0,0,0-.384.736c0,.1.032.2.126.2a.42.42,0,0,0,.28-.179c0-.065,0-.244.1-.244s.126.179.147.237a.09.09,0,0,0,.043,0c.061,0,.179,0,.179.09s-.23.194-.327.251a.578.578,0,0,1-.47.3.592.592,0,0,1-.111,0V5.253a.585.585,0,0,0,.118.018A.538.538,0,0,0,15.927,5h-.09c.1-.032.391-.115.4-.237,0-.022-.072-.022-.093-.022-.118,0-.179-.09-.179-.212l-.036-.025c-.036,0-.043.161-.043.187a.409.409,0,0,0,.022.09.158.158,0,0,1-.036-.057l-.1.108V4.9l-.022-.05h-.022a.309.309,0,0,1,0,.065.453.453,0,0,1-.032-.047h-.029a.19.19,0,0,1,0,.065.144.144,0,0,0-.043-.054.244.244,0,0,1-.1.022h-.029a.319.319,0,0,1-.1.09.327.327,0,0,0,.068-.1.057.057,0,0,1-.047-.032l-.043.039V4.862l.022-.032A.035.035,0,0,0,15.36,4.8a2.713,2.713,0,0,1,0-.359h0V4.407h0c0-.025.022-.05.029-.075L15.346,4.3h.061l.029-.054a.176.176,0,0,1-.09-.057h0a.169.169,0,0,0,.1.043l.036-.057a.169.169,0,0,1-.09-.083.2.2,0,0,0,.1.057l.154-.2V3.915A1.64,1.64,0,0,1,15.36,3.9V3.832h.029V3.761a.84.84,0,0,0,.032.086h.057a.233.233,0,0,1,0-.065l.022.075h.154V3.782l.022.075h.061V3.793a.233.233,0,0,0,0,.065h.079c.039-.083.126-.172.126-.262a.118.118,0,0,0-.043-.09,1.475,1.475,0,0,1-.538.154V3.6a1.686,1.686,0,0,0,.664-.219.169.169,0,0,1,0,.057c0,.251-.215.481-.215.578.1-.108.222-.244.359-.237h.043a.531.531,0,0,0,.161-.194.764.764,0,0,1-.05.194H16.4a.592.592,0,0,0,.068-.161.431.431,0,0,1-.039.172H16.5a.459.459,0,0,0,.057-.161.6.6,0,0,1-.022.161h.047a.323.323,0,0,0,.043-.108.423.423,0,0,1-.022.14h.072a.359.359,0,0,0,.057-.14V3.71a.183.183,0,0,1,0,.09h.05a.893.893,0,0,0,.072-.144.954.954,0,0,1-.036.136l.075-.025a1.622,1.622,0,0,0,.065-.169,1.177,1.177,0,0,1-.029.147.585.585,0,0,0,.1-.083.92.92,0,0,1,.036-.194v.054a.456.456,0,0,1,0,.1.667.667,0,0,0,.126-.334A.481.481,0,0,1,17.09,3a.815.815,0,0,1,.075-.316,1.414,1.414,0,0,0-.029.244c0,.52.359.388.456.868.022-.129.133-.226.169-.359a1.59,1.59,0,0,0,.093-.481h0a.628.628,0,0,0,.133-.251.172.172,0,0,0-.147-.129c0-.147-.068-.291-.215-.291h0q.054.1.1.194a1.848,1.848,0,0,0-.154-.179l-.054.032a.718.718,0,0,1,.126.244.8.8,0,0,0-.19-.208.172.172,0,0,0-.029.057.28.28,0,0,1,.133.233A.226.226,0,0,0,17.4,2.5a.377.377,0,0,1-.172.276c.251-.219.068-.585.359-.585.154,0,.244.187.258.334a.258.258,0,0,1,.133.129A.405.405,0,0,0,18,2.526a.4.4,0,0,0-.359-.4,1.076,1.076,0,0,0-.244.025s.043-.025.043-.05a.093.093,0,0,0,.011-.047c-.5.047-.441.283-.789.47-.219.122-.567.065-.854.169a.061.061,0,0,1,.043.065.068.068,0,0,1-.065.075.072.072,0,0,1-.068-.075V2.72c-.057.025-.115.05-.176.083a.083.083,0,0,1,.068.079.079.079,0,0,1-.075.083.083.083,0,0,1-.072-.083.065.065,0,0,1,0-.039l-.083.039V2.437c.111-.316.323-.4.488-.664a.56.56,0,0,1,.865-.248.434.434,0,0,1,.219-.057.549.549,0,0,1,.5.359.718.718,0,0,1,.3.108,6.555,6.555,0,0,1,.865.039Zm-3.129.6c.022,0,.05,0,.05-.039a.047.047,0,0,0-.05-.047.05.05,0,0,0-.054.047C15.428,2.559,15.461,2.573,15.482,2.573Zm.065.187-.029-.136c-.022.025-.05.039-.075.065l.018.129A.258.258,0,0,1,15.547,2.76Zm0,.108a.032.032,0,1,0-.065,0,.032.032,0,1,0,.065,0Zm.043-.527c0-.025-.022-.039-.05-.039a.039.039,0,0,0-.043.039.047.047,0,1,0,.093,0Zm.083.359-.018-.147-.079.05.032.136a.624.624,0,0,0,.065-.05Zm.029-.244a.043.043,0,0,0-.047-.057.047.047,0,0,0-.05.047.05.05,0,0,0,.05.05.047.047,0,0,0,.047-.05Zm-.086-.233A.048.048,0,0,0,15.7,2.2a.047.047,0,0,0-.05-.029.043.043,0,0,0-.039.043Zm.212.431L15.791,2.5a.38.38,0,0,0-.09.039l.039.136Zm-.1-.553a.05.05,0,0,0,.054.047.054.054,0,0,0,.05-.047.052.052,0,0,0-.1-.011Zm.061.657a.032.032,0,0,0-.029-.032.036.036,0,0,0-.032.032.039.039,0,0,0,.032.032.036.036,0,0,0,.029-.043Zm0,1.17h-.029Zm.161,2.092a.172.172,0,0,0-.1-.154.179.179,0,0,0-.093.115.786.786,0,0,0,.183.136.452.452,0,0,0,0-.108Zm-.09-3.638a.05.05,0,1,0-.05.05A.05.05,0,0,0,15.855,2.379Zm-.029-.431a.061.061,0,1,0,.063-.057.061.061,0,0,0-.063.057Zm.154.653-.036-.161-.1.025.039.161Zm-.065,3.061c-.022,0-.029.022-.029.039.043.237.5.38.718.38.036,0,.065,0,.065-.057a.2.2,0,0,0-.022-.065.836.836,0,0,1-.732-.3Zm.14-3.42a.144.144,0,0,0,.14-.1.144.144,0,0,1-.068,0c-.05,0-.133-.032-.133-.108V2.006a.136.136,0,0,0-.093.115C15.909,2.2,16.013,2.243,16.056,2.243ZM15.924,1.8A.072.072,0,0,0,16,1.87a.075.075,0,0,0,.083-.072.083.083,0,0,0-.161-.011Zm.043.488a.05.05,0,0,0-.043.047.047.047,0,0,0,.043.05.05.05,0,0,0,.047-.061.054.054,0,0,0-.047-.047Zm.3,3.9a.129.129,0,0,0-.147-.147.14.14,0,0,0-.133.1c.09.039.179.065.273.1A.251.251,0,0,1,16.268,6.19Zm-.212-1.536A.377.377,0,0,0,16,4.55a.118.118,0,0,0,.061.1Zm.1-2.085L16.114,2.4l-.1.018.036.183a.65.65,0,0,0,.111-.036Zm-.083.316a.2.2,0,0,1,.2-.176.259.259,0,0,0,.179-.043h0a.161.161,0,0,1-.118.144c0,.05,0,.09-.05.09a.129.129,0,0,1-.083-.032H16.16a.151.151,0,0,1-.054,0,.054.054,0,0,1-.029.014Zm0-1.256a.086.086,0,0,0,.09.09.093.093,0,0,0,.093-.09.09.09,0,0,0-.093-.083.086.086,0,0,0-.083.079Zm.09.718a.061.061,0,0,0,.065-.057.065.065,0,0,0-.057-.047c-.029,0-.075.025-.075.057s.047.039.075.039Zm.133-.283a.176.176,0,0,0,.183-.154.158.158,0,0,1-.1.039.144.144,0,0,1-.14-.129V1.787a.147.147,0,0,0-.118.129.161.161,0,0,0,.187.14Zm-.154.771c.05-.05.115-.05.169-.09-.047,0-.147.007-.161.083Zm.169-.269-.047-.187h-.1l.043.179Zm.258,4.259a.449.449,0,0,0-.187-.38.337.337,0,0,1,.039.154.237.237,0,0,1-.14.244.111.111,0,0,1,.05.079c0,.075-.09.122-.14.147.176-.014.384-.025.384-.251Zm-.266-4.008h-.022a.036.036,0,0,0-.025,0,.025.025,0,0,0,.025.025.025.025,0,0,0,.022-.025ZM16.275,1.5c0,.032.047.039.068.039s.065,0,.065-.039-.036-.05-.065-.05S16.275,1.464,16.275,1.5Zm.319,4.4h.072a.287.287,0,0,1,.039.136.115.115,0,0,1-.054.1.359.359,0,0,1,.054.147c0,.072-.075.079-.133.079a.944.944,0,0,1-.3-.065c.018.018.039.032.054.05A.438.438,0,0,1,16.6,6.6c.147.136.266.309.47.309.083,0,.244-.032.244-.154,0-.065-.057-.1-.118-.129a.5.5,0,0,1,.154-.032h.039a4.655,4.655,0,0,1-.14-1.105.574.574,0,0,0-.133.043C16.874,5.569,16.638,5.562,16.595,5.9Zm-.273-3.692a.083.083,0,0,0,.079.079.079.079,0,1,0,0-.154.083.083,0,0,0-.079.075ZM16.587,6.3h0a.144.144,0,0,0-.14-.14.136.136,0,0,0-.126.108,1.518,1.518,0,0,0,.266.032Zm-.075-4.772c-.072,0-.176.05-.176.147s.1.144.176.144.176-.047.176-.144a.165.165,0,0,0-.176-.147Zm0,1-.057-.187a.258.258,0,0,0-.1,0l.043.187a.553.553,0,0,0,.1.011Zm.14-.047-.065-.187-.083.032.065.187a.466.466,0,0,0,.068-.022Zm-.029-.506a.1.1,0,0,0-.1.1.1.1,0,0,0,.2,0,.1.1,0,0,0-.111-.086Zm.9,4.83c0-.129-.115-.172-.212-.172a.319.319,0,0,1,.043.14c0,.154-.161.187-.266.187a.653.653,0,0,1-.449-.251.359.359,0,0,1,0,.154.718.718,0,0,0,.5.251.324.324,0,0,0,.366-.3ZM16.8,2.376l-.115-.133a.129.129,0,0,1-.057.039l.057.187a.416.416,0,0,0,.1-.083Zm-.122-.492a.108.108,0,0,0,.111.108.111.111,0,0,0,.111-.108.115.115,0,0,0-.111-.111A.111.111,0,0,0,16.681,1.884Zm.23.359-.118-.122-.061.065.1.161A.342.342,0,0,0,16.91,2.243Zm-.083-.718c0,.039.047.05.068.05s.072,0,.072-.05-.043-.05-.072-.05S16.828,1.5,16.828,1.525Zm.179.632-.118-.136-.05.057.115.129a.234.234,0,0,0,.054-.039ZM17.4,4.31a2.533,2.533,0,0,0,.678-.843V3.4a6.154,6.154,0,0,0-.025-.675,1.884,1.884,0,0,1-.14.251,3.154,3.154,0,0,1-.1.506c-.054.154-.179.2-.23.359a.822.822,0,0,0-.294-.413h-.022c-.083,0-.194.283-.359.359a.47.47,0,0,0-.022.1.075.075,0,0,0,0,.043A.84.84,0,0,0,17.2,3.75a.847.847,0,0,1,.111-.115c-.072.154-.244.341-.413.341a.151.151,0,0,0-.036.072.079.079,0,0,0,.043.068c.133-.043.466-.147.531-.287a.535.535,0,0,1-.492.319.194.194,0,0,0-.047.1v.025h0a.718.718,0,0,0,.56-.359.567.567,0,0,1-.553.431.169.169,0,0,0-.05.1c0,.057.057.065.1.065A.786.786,0,0,0,17.4,4.3ZM17.04,1.593a.126.126,0,0,0-.133.118.129.129,0,0,0,.133.122.122.122,0,1,0,0-.24Zm.083.51-.133-.154L16.921,2l.133.136a.294.294,0,0,1,.079-.039Zm.147-.057-.122-.161a.488.488,0,0,0-.09.039l.14.147Zm0-.276h.022a.093.093,0,0,0-.075-.122h-.022a.093.093,0,0,0,.086.115Zm.183.251-.147-.176-.1.022.14.165c.05-.007.086-.018.108-.018Zm.161.032L17.5,1.859a.553.553,0,0,0-.108,0l.133.187ZM17.5,7c.018.022.1.022.126.022a.56.56,0,0,0,.111,0,.136.136,0,0,0-.126-.083c-.054-.029-.068-.029-.1.054Zm.1-3.929a.4.4,0,0,1-.072.2.857.857,0,0,0,.036-.187c0-.032-.036-.065-.036-.09h0C17.589,2.978,17.6,3.036,17.6,3.068Zm-.043,3.789h.029c.126,0,.61-.039.61-.24,0-.036-.065-.068-.086-.075-.09.2-.359.23-.545.23A.4.4,0,0,1,17.553,6.857Zm.212-4.779a.538.538,0,0,1-.093-.194H17.6l.111.194ZM17.7,3.222a.269.269,0,0,1-.054.154.287.287,0,0,0,.025-.122c0-.032-.025-.047-.025-.072a.018.018,0,0,1,.018,0C17.693,3.165,17.7,3.2,17.7,3.222Zm.359,3.717a.233.233,0,0,0-.115-.065c-.054,0-.09.072-.1.122.065-.018.14-.032.212-.057Zm0-1.826A.061.061,0,0,0,18,5.049a.065.065,0,0,0-.061.065A.061.061,0,0,0,18,5.171a.057.057,0,0,0,.043-.057ZM17.972,5v.039a1.466,1.466,0,0,0,.057-.194V4.8a1.318,1.318,0,0,0-.072.2Zm.043-2.842a.273.273,0,0,0-.036-.147v.032a.244.244,0,0,0,.036.147Zm.075,2.72c.079-.115.233-.23.233-.359s-.086-.251-.086-.384.176-.283.176-.463-.154-.266-.154-.42.1-.251.1-.4c0-.237-.244-.269-.244-.527,0-.065.022-.129.022-.194a.183.183,0,0,0-.022-.09c.022.115-.061.187-.061.283,0,.291.251.316.251.527,0,.136-.1.258-.1.4s.147.276.147.42-.187.255-.187.441.09.258.09.391-.136.273-.179.373Zm.022-.359a.057.057,0,1,0-.057-.057A.057.057,0,0,0,18.112,4.521Zm0-1.64a.024.024,0,1,0-.022,0Zm.029.538c.022,0,.022-.115.022-.133s0-.122-.022-.122-.029.115-.029.122-.014.133.007.133Zm.025,1.044a.359.359,0,0,1-.05.212.323.323,0,0,0,.086-.212.3.3,0,0,0-.108-.226A.423.423,0,0,1,18.166,4.464Zm.047.592a.057.057,0,0,0-.054-.065.061.061,0,0,0-.057.065.054.054,0,0,0,.065.057.057.057,0,0,0,.05-.057Zm0,1.715c-.072,0-.086.086-.093.151a.416.416,0,0,0,.169-.1.079.079,0,0,0-.09-.047Zm-.047-2.824c0-.018,0-.133-.029-.133s-.022.115-.022.133,0,.129.022.129S18.166,3.954,18.166,3.947Zm0-.244a.057.057,0,0,0,.047-.057.054.054,0,0,0-.047-.05.05.05,0,0,0-.05.05.054.054,0,0,0,.05.057Zm.068-.829a.3.3,0,0,0-.111-.219.4.4,0,0,1,.072.226.384.384,0,0,1-.05.2.309.309,0,0,0,.1-.212Zm0,.771a.384.384,0,0,1-.047.212.3.3,0,0,0,.083-.212.266.266,0,0,0-.1-.219.312.312,0,0,1,.079.219Zm0-1.543a.312.312,0,0,0-.061.187.323.323,0,0,0,.126.244.449.449,0,0,1-.1-.269.38.38,0,0,1,.032-.151h0V2.1a.319.319,0,0,0-.036-.147.036.036,0,0,0,0,.032.248.248,0,0,0,.039.122Zm-.047,2.8a.147.147,0,0,0,.025.09.42.42,0,0,1,.147-.316.248.248,0,0,0-.169.226Zm.075.057a.054.054,0,0,1,.05-.047.025.025,0,0,1,.022,0h0a.054.054,0,0,0-.05-.057.057.057,0,0,0-.05.057.054.054,0,0,0,.032.047ZM18.3,2.264a.054.054,0,0,0-.05.057.05.05,0,0,0,.043.05.054.054,0,0,0,.054-.05.057.057,0,0,0-.043-.057ZM18.389,5a.056.056,0,1,0-.111,0,.057.057,0,1,0,.111,0Zm-.061-1.794a.359.359,0,0,1,.047-.169.258.258,0,0,0-.075.187.323.323,0,0,0,.126.244.5.5,0,0,1-.09-.219.065.065,0,0,0,.047.032c.022,0,.043-.032.043-.057a.054.054,0,0,0-.043-.057.061.061,0,0,0-.05.054Zm0,.911A.33.33,0,0,1,18.41,3.9a.276.276,0,0,0-.111.219.294.294,0,0,0,.083.208.4.4,0,0,1-.043-.194Zm.068-.057a.143.143,0,1,1,.011.014Zm0,.445s0-.129-.022-.129,0,.115,0,.129v.129a.752.752,0,0,0,.047-.115ZM18.486,2s-.068,0-.068.039.068.057.1.057.065,0,.065-.043-.054-.025-.054-.025Zm-.047,2.967a.072.072,0,0,0,.068.075.074.074,0,0,0,0-.147.072.072,0,0,0-.043.1Zm.147-.535v.05a.029.029,0,0,0-.029.032.054.054,0,0,0,.029.039v.09a.23.23,0,0,0-.065.1.1.1,0,0,1-.022-.065c0-.039.036-.065.072-.083a.126.126,0,0,1-.065-.1.3.3,0,0,1,.1-.036Zm0-.718v.172a.115.115,0,0,1-.072-.09.086.086,0,0,1,.1-.043Zm0,.179v.172c-.022-.025-.072-.068-.072-.108s.075-.018.1-.025Zm0,.359v.075h0V4.4a.14.14,0,0,1-.057-.1.075.075,0,0,1,.083-.022Zm0-.161v.147a.161.161,0,0,1-.05-.09.065.065,0,0,1,.075-.029Zm0-1.891V1.945a3.351,3.351,0,0,1,2.153,1.17A2.716,2.716,0,0,1,21.2,4.346a1.679,1.679,0,0,1,.025.3,1.285,1.285,0,0,0,0,.423c.057.154.176.219.176.395a.639.639,0,0,1-.23.449L21.137,5.9a.316.316,0,0,0,.05-.161c0-.212-.226-.359-.226-.689,0-.172.05-.334.05-.5a1.015,1.015,0,0,0-.14-.571.718.718,0,0,1,0,.122,2.2,2.2,0,0,1-.036.359,1.321,1.321,0,0,1-.068.273,4.4,4.4,0,0,0-.24.718c0,.212.2.416.3.585a2.77,2.77,0,0,1,.147.334A.3.3,0,0,0,21,6.445h0c.043.025.118.108.118.154a.122.122,0,0,1,0,.057.309.309,0,0,1,.072.161c0,.165-.24.187-.359.187a1.224,1.224,0,0,0,.2.018.276.276,0,0,0,.3-.283.291.291,0,0,0-.251-.269,1.123,1.123,0,0,1,.154,0,.739.739,0,0,1,.23.032.269.269,0,0,0-.165-.251c.23.039.413.144.413.427,0,.391-.359.527-.66.527a6.007,6.007,0,0,1-.879-.154.56.56,0,0,1-.413.154A2.357,2.357,0,0,1,19.009,7a1.769,1.769,0,0,0-.452-.108V6.832a2.185,2.185,0,0,1,.545.122,2.027,2.027,0,0,0,.649.2.542.542,0,0,0,.517-.244h-.022a1.076,1.076,0,0,1-.154.032.449.449,0,0,0,.14-.3.38.38,0,0,0-.086-.233.653.653,0,0,1-.208.527.75.75,0,0,0,0-.129.212.212,0,0,0-.065-.165h0a.294.294,0,0,1-.319.33h0a1.109,1.109,0,0,1-.316-.1L18.966,6.8a3.021,3.021,0,0,0-.359-.05V6.7h.237c-.036-.025-.079-.047-.079-.1a.291.291,0,0,1,.19-.237c-.022,0-.029-.032-.029-.065s.043-.154.1-.154a.061.061,0,0,1,.054.025,4.564,4.564,0,0,0,.244-.786V5.357a3.685,3.685,0,0,1-.4,0h0a.233.233,0,0,1,.161.212.05.05,0,0,1,.043.047c0,.075-.118.122-.169.14s0,.072-.05.072-.054-.039-.054-.072-.161-.065-.161-.129a.068.068,0,0,1,.036-.057.212.212,0,0,1,.147-.2V5.343a1.715,1.715,0,0,1-.273-.032V5.243a1.873,1.873,0,0,0,.237.032,1.109,1.109,0,0,0,.029-.219,1.561,1.561,0,0,0-.183,0h-.083V4.862h.208a2.957,2.957,0,0,1,.883.147c.022-.309.022-.617.022-.919a12.53,12.53,0,0,0-.169-1.834l-.083-.014a.165.165,0,0,1-.039.065.061.061,0,0,1,.068.057c0,.039-.054.09-.083.115s.1.022.1.065a.161.161,0,0,1-.065.1c.036,0,.108,0,.108.065a.14.14,0,0,1-.072.108c.029,0,.086.022.086.065a.161.161,0,0,1-.065.1c.029,0,.1.018.1.065a.144.144,0,0,1-.068.115c.036,0,.083.025.083.065a.133.133,0,0,1-.083.1c.029,0,.09.043.09.083s-.054.079-.09.1c.036,0,.1.025.1.072a.161.161,0,0,1-.075.115c.032,0,.075.018.075.057a.151.151,0,0,1-.083.1.083.083,0,0,1,.09.075.122.122,0,0,1-.057.1c.039,0,.083,0,.083.065s-.083.1-.118.115c.029,0,.118.032.118.072s-.1.1-.126.115c.036,0,.126,0,.126.047s-.072.083-.118.122c.054,0,.118,0,.118.065s-.1.065-.111.115c.039,0,.111,0,.111.057a.086.086,0,0,1-.072.079c-.032,0-.054-.039-.061-.072a.085.085,0,0,1-.072.083c-.036,0-.075-.075-.083-.115a.09.09,0,0,1-.083.057c-.05,0-.079-.057-.093-.108,0,.043-.039.1-.075.1s-.072-.057-.086-.09a.1.1,0,0,1-.083.09.093.093,0,0,1-.093-.079.081.081,0,0,1-.072.079c-.036,0-.075-.057-.09-.1,0,.039-.029.1-.065.1a.136.136,0,0,1-.047,0V4.808c.032-.025.083-.072.083-.115a.036.036,0,0,0-.036-.032.154.154,0,0,0-.047,0v-.09a.212.212,0,0,0,.061,0c.022,0,.072,0,.072-.039s-.065-.05-.093-.05h-.039v-.05h0V4.4a.111.111,0,0,0,.083.025c.022,0,.075,0,.075-.043s-.068-.047-.1-.047a.083.083,0,0,0-.061.025V4.281h0V4.134h0v-.1a.1.1,0,0,0,.09.039s.068,0,.068-.039-.061-.047-.09-.047a.083.083,0,0,0-.068.022V3.929h0V3.847a.115.115,0,0,0,.09.032s.068,0,.068-.032-.061-.054-.09-.054a.118.118,0,0,0-.068.022V3.75h0V3.678a.111.111,0,0,0,.083.032s.065,0,.065-.039-.057-.057-.086-.057a.122.122,0,0,0-.061.018V3.506a.115.115,0,0,0,.083.036c.022,0,.075,0,.075-.043s-.068-.057-.1-.057a.122.122,0,0,0-.061.025v-.1c.025,0,.09,0,.09-.032s-.057-.057-.09-.057V3.1a.05.05,0,0,0,.039.018c.072,0,.079-.072.154-.072a.09.09,0,0,1,.043,0,.083.083,0,0,0,.029.039c-.05,0-.169.039-.169.115a.165.165,0,0,0,.111.111c.057,0,.043-.129.14-.154H19a.108.108,0,0,0,.029.2.1.1,0,0,0,.09-.108.118.118,0,0,0-.05-.1.118.118,0,0,0,.057,0c.061.043.09.154.126.154a.151.151,0,0,0,.111-.118c0-.068-.1-.1-.147-.1h0l.022-.047a.065.065,0,0,1,.036,0c.075,0,.1.072.161.072s.054-.032.054-.072a.133.133,0,0,0-.126-.133.165.165,0,0,0-.115.047V2.878H19.4c.043,0,.075,0,.075-.065a.108.108,0,0,0-.111-.1.212.212,0,0,0-.133.072V2.717c.036-.079.176-.025.176-.1a.057.057,0,0,0-.057-.065c-.061,0-.1.065-.144.1V2.587c.032-.083.126-.039.126-.1s-.022-.057-.043-.057a.2.2,0,0,0-.1.1V2.483c0-.075.083-.068.083-.108a.047.047,0,0,0,0-.032h-.025c-.036,0-.065.057-.072.09s-.029-.032-.043-.032a.391.391,0,0,0,0-.09c0-.025,0-.043-.032-.043s-.029.025-.029.05a.334.334,0,0,0,0,.083.065.065,0,0,0-.036.032c-.022-.043-.043-.09-.09-.09a.032.032,0,0,0-.029.032c0,.065.061.025.09.1a.5.5,0,0,0-.022.057c-.022-.05-.054-.09-.1-.09a.05.05,0,0,0-.05.05c0,.086.115,0,.133.111v.057a.161.161,0,0,0-.133-.1.065.065,0,0,0-.065.057c0,.1.14,0,.183.122l-.022.072a.169.169,0,0,0-.147-.083.093.093,0,0,0-.1.09V2.648s.047,0,.047-.032a.057.057,0,0,0-.047-.05v-.1a.032.032,0,0,0,.032-.032c0-.032,0-.032-.032-.039V2.282l-.039-.039Zm0,.746V2.817c0,.05.039.065.075.065h.1a.111.111,0,0,1,.065.032.147.147,0,0,0,0,.057.179.179,0,0,0-.111-.043.161.161,0,0,0-.1.032Zm.09,1.274c.022,0,.075,0,.075-.039s-.061-.05-.09-.05-.075,0-.075.043.093.075.115.075Zm0,2.085a.449.449,0,0,1-.1.262v-.1a.38.38,0,0,0,.047-.165.276.276,0,0,0-.047-.154v-.1a.359.359,0,0,1,.129.287Zm.1-1.338a.075.075,0,0,0-.075-.072.074.074,0,0,0,0,.147.075.075,0,0,0,.108-.047ZM18.69,2.139a.1.1,0,1,0,.1-.1.1.1,0,0,0-.1.1Zm.2,3.538a.4.4,0,0,1-.187-.065h0a.283.283,0,0,0,.054.043.065.065,0,0,1-.039,0,.237.237,0,0,0,.172.075c.043,0,.19-.039.19-.1h0a.337.337,0,0,1-.158.072Zm.61-1.794a.108.108,0,0,0-.09.039c0-.025,0-.025-.036-.025a.359.359,0,0,0-.118.032.255.255,0,0,0,.054-.136s0-.025,0-.025a.837.837,0,0,0-.118.09V3.689a1.307,1.307,0,0,0-.09.144c0-.032-.043-.136-.083-.136S19,3.761,19,3.768a.38.38,0,0,0,0,.09c-.029-.025-.086-.09-.126-.09h0v.025a.334.334,0,0,0,.061.136A.423.423,0,0,0,18.8,3.9H18.78l.108.111c.022.022-.14.025-.14.057s.118.057.133.057-.1.09-.1.115H18.8a.377.377,0,0,0,.133-.032c0,.043-.061.108-.061.147v.018A1.39,1.39,0,0,0,19,4.288c.029-.025,0,.161,0,.161a.976.976,0,0,0,.083-.147c0,.032.05.147.09.147s0-.079,0-.09V4.281c.022.032.072.1.118.1s.022,0,.022-.032a.255.255,0,0,0-.061-.129.556.556,0,0,0,.111.022H19.4a.774.774,0,0,0-.1-.115.359.359,0,0,0,.108-.032.075.075,0,0,0,.068.025c.022,0,.1-.018.1-.05s-.047-.039-.068-.039a.151.151,0,0,0-.072,0A1.051,1.051,0,0,0,19.3,3.99a.323.323,0,0,0,.1-.086c0,.032.047.039.068.039s.1,0,.1-.057-.007.036-.029.036Zm-.718.858c.029,0,.036-.065.036-.086s0-.09-.036-.09-.036.065-.036.09S18.747,4.74,18.783,4.74Zm.111.642a.1.1,0,0,0-.068.025l.054.032a.208.208,0,0,1-.075,0h0c.022,0,.036.025.057.025h-.014a.065.065,0,0,1-.043,0h0a.327.327,0,0,0,.05.025h-.022a.079.079,0,0,1-.036,0h0s.036.032.05.032a.158.158,0,0,1-.057,0v.022l.05.025a.122.122,0,0,1-.05,0h0a.255.255,0,0,0,.154.057.251.251,0,0,0,.14-.057c-.036-.039-.075-.147-.169-.147ZM18.776,4.4h0c.022,0,.036,0,.043-.039h0S18.776,4.374,18.776,4.4Zm.05-.513h0a.039.039,0,0,0-.043-.039h0c.007.014.022.036.043.036Zm.434.1c0,.022,0,.022.022.022a.2.2,0,0,0,.1-.022.149.149,0,0,0-.083.1c0,.039.1.039.111.039s-.111,0-.111.05.061.083.083.1a.23.23,0,0,0-.1-.025c-.022,0-.029,0-.029.018a.359.359,0,0,0,.043.122c-.022-.025-.072-.075-.108-.075a.388.388,0,0,0-.018.1v.025s-.043-.1-.065-.1-.057.09-.065.108,0-.133-.025-.133-.065.043-.086.065a.3.3,0,0,0,.036-.1c0-.025,0-.025-.029-.025a.215.215,0,0,0-.1.025.151.151,0,0,0,.083-.1c0-.032-.1-.05-.118-.05s.118,0,.118-.047-.068-.083-.09-.1a.359.359,0,0,0,.09.022c.022,0,.036,0,.036-.032a.19.19,0,0,0-.029-.09c.022,0,.057.05.086.05s.032-.05.032-.072V3.807c0,.018.036.108.065.108s.057-.083.057-.108,0,.129.025.129.079-.047.093-.065a.3.3,0,0,0-.029.108Zm-.449-.477a.075.075,0,1,0,.147,0,.083.083,0,0,0-.075-.086.079.079,0,0,0-.072.086Zm.2,3.143a.3.3,0,0,0-.05-.2c-.036.032-.14.1-.14.154s.14.108.19.122Zm.025-3.473a.2.2,0,0,1-.187-.215c0-.09.083-.553.176-.553s.187.449.187.535-.054.233-.176.233Zm-.111,1.88a.072.072,0,1,0-.072-.072.072.072,0,0,0,.072.072ZM18.884,2.9c0,.115.047.187.158.187s.147-.079.147-.187-.061-.438-.158-.438-.147.377-.147.449Zm.054,2.871h-.054a.05.05,0,0,0,.025.039s.029-.011.029-.025Zm.1-.682h-.1a.969.969,0,0,1-.029.208H19a.692.692,0,0,0,.039-.187Zm-.126-.585h0c.022,0,.036-.022.036-.047h0a.043.043,0,0,0-.036.061Zm.043.237c.029,0,.036-.057.036-.083s0-.09-.036-.09-.036.065-.036.09S18.923,4.744,18.959,4.744Zm0-1.008a.036.036,0,0,0-.036-.039v.018s0,.047.029.047h0Zm.323.359a.176.176,0,1,0-.176.2.187.187,0,0,0,.176-.169Zm-.3,2.192h0a1.173,1.173,0,0,0,.743.262h.1a.039.039,0,0,0,.022-.039.09.09,0,0,0,0-.039,1.213,1.213,0,0,1-.8-.276.1.1,0,0,0-.065.122Zm.043-2.824c0,.025,0,.09.039.09s.043-.065.043-.09,0-.09-.043-.09-.039.093-.039.118Zm.025,1.518a.068.068,0,0,0,.072.065.065.065,0,0,0,.068-.065.075.075,0,0,0-.068-.083.079.079,0,0,0-.072.111Zm.545.359a.474.474,0,0,1-.032-.154c-.154-.032-.309-.065-.456-.09a1.734,1.734,0,0,1-.036.212,3.174,3.174,0,0,0,.531.05Zm-.266,1.4c0-.065-.039-.212-.111-.212s-.126.133-.147.2a2.612,2.612,0,0,0,.258.039Zm-.244-2.214v.032a.039.039,0,0,0,.022-.039.029.029,0,0,0,0-.025.135.135,0,0,0-.022.05Zm0-.843a.043.043,0,0,0,.022.032.065.065,0,0,0,0-.032.075.075,0,0,0,0-.043.05.05,0,0,0-.014.061Zm.072.972c0-.025,0-.09-.036-.09s-.036.065-.036.09,0,.09.036.09.043-.047.043-.072Zm-.05,1.532a1.191,1.191,0,0,0,.635.237v-.05a.682.682,0,0,1-.405-.176.624.624,0,0,0,.4.122h.029a.181.181,0,0,1,.036-.075,1,1,0,0,1-.391-.169.786.786,0,0,0,.405.111h0c.025-.032.047-.054.068-.086a.664.664,0,0,1-.384-.165.6.6,0,0,0,.427.108L19.967,6,19.9,5.924a.685.685,0,0,1-.434-.161.563.563,0,0,0,.359.1h.039a1.629,1.629,0,0,1-.187-.269.258.258,0,0,1-.233-.1.276.276,0,0,0,.161.057h.043c-.029-.075-.05-.14-.072-.212l-.244.025a.359.359,0,0,1,.029.122,3.229,3.229,0,0,1-.244.721Zm.029-3.979a.093.093,0,0,0,.1.1.115.115,0,0,0,.111-.108c-.061-.022-.118-.047-.187-.065a.151.151,0,0,0-.022.075Zm.047,1.306a.075.075,0,0,0,.072.079.079.079,0,0,0,.075-.079.083.083,0,0,0-.086-.09C19.21,3.427,19.182,3.466,19.182,3.517Zm.061.972a.061.061,0,0,0,.029.05V4.514c0-.018,0-.039-.029-.039Zm.083.2c0-.025,0-.09-.047-.09s-.036.065-.036.09,0,.086.036.086.05-.065.05-.086Zm-.083.341a.068.068,0,0,0,.068.072.074.074,0,0,0,0-.147.072.072,0,0,0-.068.075ZM19.3,3.728h0c-.022,0-.036.018-.036.043h0s.039-.029.039-.043Zm.083-1.374c-.022,0-.1.018-.1.05s.054.039.075.039.09,0,.09-.047-.043-.043-.065-.043Zm.09.886c-.022,0-.1,0-.1.057s.043.039.065.039.1-.018.1-.057-.039-.039-.061-.039Zm-.047,1.184h0c0-.032,0-.05-.043-.05h0c0,.022.018.05.047.05Zm.1,2.232a.172.172,0,0,0-.147.136,2.117,2.117,0,0,0,.258.032h0c0-.079-.039-.169-.108-.169Zm-.043-3.229c-.029,0-.1.018-.1.057s.05.039.075.039.086,0,.086-.054a.055.055,0,0,0-.061-.061Zm.022.359c-.029,0-.1,0-.1.054v.025a.047.047,0,0,0-.036.05h0c.029,0,.043-.018.043-.05s.133,0,.133-.047-.018-.057-.039-.057ZM19.7,6.908a2.153,2.153,0,0,1-.3-.022.359.359,0,0,0,.176.047A.28.28,0,0,0,19.7,6.908ZM19.5,3.6c-.022,0-.09,0-.09.047s.047.043.068.043.086-.018.086-.057-.043-.05-.065-.05Zm-.09,1.5a.083.083,0,0,0,.075.075.072.072,0,0,0,.065-.075.068.068,0,0,0-.065-.072.079.079,0,0,0-.075.054Zm0-.861c0,.025.032.043.047.043a.039.039,0,0,0-.047-.043s.014-.025.014-.018Zm.1.068c-.029,0-.1,0-.1.054s.047.032.068.032.1,0,.1-.047a.055.055,0,0,0-.054-.057Zm0,.359c-.072,0-.111.039-.111.118,0,.025,0,.09.039.09s.043-.065.043-.09V4.762c.029,0,.1-.018.1-.057s-.025-.075-.047-.075Zm0-.172c-.022,0-.1.018-.1.05s.054.039.068.039.1-.018.1-.05-.025-.075-.047-.075Zm-.022-.456a.032.032,0,0,0-.029.025.036.036,0,0,0,.029,0,.039.039,0,0,0,.036-.022.043.043,0,0,0-.036,0Zm1.414.032a.413.413,0,0,1-.133,0,.054.054,0,0,1-.029.057.079.079,0,0,1,.043.072.075.075,0,0,1-.072.075.068.068,0,0,1-.075-.065.079.079,0,0,1-.05.022.072.072,0,0,1-.075-.079h0a.068.068,0,0,1-.057.032.079.079,0,0,1-.075-.075h0a.054.054,0,0,1-.036,0,.075.075,0,0,1-.065-.079V3.98a.054.054,0,0,1-.061,0c0,.172,0,.359,0,.52,0,.309-.029.61-.057.919a2.626,2.626,0,0,0-.606-.2c.111.327.28.718.635.7h.036a.492.492,0,0,1-.1,0,.449.449,0,0,1-.176-.032.427.427,0,0,0,.359.154.6.6,0,0,1-.111,0,.441.441,0,0,1-.1,0,.4.4,0,0,0,.294.1.2.2,0,0,1-.1.018h-.083a.244.244,0,0,0,.266.154.556.556,0,0,1-.126.018h-.029a.563.563,0,0,1,.029.161.944.944,0,0,0,.391.09.5.5,0,0,0,.316-.1.151.151,0,0,0-.022-.065.359.359,0,0,1-.161.072.359.359,0,0,0,.14-.129V6.337a.23.23,0,0,1-.165.083.248.248,0,0,0,.133-.129c-.022-.05-.05-.09-.072-.14a.262.262,0,0,1-.161.09.287.287,0,0,0,.133-.129V6.079a.2.2,0,0,1-.158.072h0a.194.194,0,0,0,.14-.115l-.036-.047a.222.222,0,0,1-.154.072.266.266,0,0,0,.133-.111l-.043-.057a.312.312,0,0,1-.179.079.237.237,0,0,0,.1-.14,1.116,1.116,0,0,1-.115-.2.416.416,0,0,1-.172.1.413.413,0,0,0,.147-.147.972.972,0,0,1,0-.144.754.754,0,0,1,.09-.3.811.811,0,0,1-.169.05,1.471,1.471,0,0,0,.2-.122c.022-.057.043-.108.068-.165a.671.671,0,0,1-.147.032.786.786,0,0,0,.176-.1l.022-.057a.628.628,0,0,1-.183.05.754.754,0,0,0,.2-.122l.022-.072a.359.359,0,0,1-.169.039.427.427,0,0,0,.19-.122l.018-.057a.7.7,0,0,1-.179.057.617.617,0,0,0,.2-.129V4.349a.5.5,0,0,1-.215.072.614.614,0,0,0,.23-.147h0c0-.086,0-.14.011-.215ZM19.616,5.146a.068.068,0,0,0,.065.072.072.072,0,1,0,0-.144.068.068,0,0,0-.079.065Zm.022-2.709a.054.054,0,0,0,.05.057.057.057,0,0,0,.047-.057.054.054,0,0,0-.047-.05.05.05,0,0,0-.05.043Zm.2,4.2h-.183c.022.065.036.133.057.2h.039a.323.323,0,0,0,.086-.212ZM19.709,3a.222.222,0,0,0,0,.065.237.237,0,0,0,.039-.1V2.9a.187.187,0,0,0-.039.1Zm.09-.527a.158.158,0,0,0-.022-.083c.022.108-.061.187-.061.287,0,.3.244.316.244.517s-.1.262-.1.416.151.266.151.413-.179.269-.179.456.083.251.083.388-.14.269-.187.359c.083-.108.237-.219.237-.359s-.079-.244-.079-.359.176-.283.176-.463-.147-.269-.147-.423.1-.251.1-.405c0-.233-.237-.258-.237-.517C19.777,2.6,19.8,2.534,19.8,2.469Zm-.036.811a.054.054,0,0,0,.05-.057c0-.022-.022-.057-.043-.057a.057.057,0,0,0,0,.115Zm.022.5c.022,0,.022-.115.022-.129s0-.129-.022-.129-.029.111-.029.129S19.763,3.775,19.784,3.775Zm.029.283A.054.054,0,0,0,19.856,4a.047.047,0,1,0-.093,0,.057.057,0,0,0,.05.057Zm.068-.836A.3.3,0,0,0,19.77,3a.359.359,0,0,1,.079.219.438.438,0,0,1-.05.219.319.319,0,0,0,.083-.212Zm-.047,1.615a.449.449,0,0,1-.065.219.319.319,0,0,0,.1-.226.3.3,0,0,0-.1-.219.409.409,0,0,1,.057.226Zm-.057-.42a.255.255,0,0,0,0,.072.391.391,0,0,0,0-.09.258.258,0,0,0,0-.079.237.237,0,0,0,0,.1Zm.079.718A.061.061,0,0,0,19.8,5.2a.065.065,0,0,0,.057.065.068.068,0,0,0,.068-.065.065.065,0,0,0-.068-.061Zm.032-1.145a.405.405,0,0,1-.054.237.359.359,0,0,0,.09-.23.283.283,0,0,0-.118-.24.359.359,0,0,1,.083.237Zm.359,2.483a.072.072,0,0,1,.039,0h.032a.66.66,0,0,0-.273-.413.746.746,0,0,0-.237.388h.043a.19.19,0,0,1,.054.136.384.384,0,0,1,.118.172.624.624,0,0,0,.057-.251.944.944,0,0,0-.05-.287.513.513,0,0,1,.215.258ZM19.828,2.7a.3.3,0,0,0,.126.237.4.4,0,0,1-.086-.251A.359.359,0,0,1,19.9,2.5.291.291,0,0,0,19.828,2.7Zm.075.025a.054.054,0,0,0,.05.057.057.057,0,0,0,.054-.057.05.05,0,0,0-.047-.047.047.047,0,0,0-.057.047Zm.029,2.451a.359.359,0,0,0,.043-.083c-.022,0-.05.05-.057.057Zm.043-.682a.319.319,0,0,0,.083.212.38.38,0,0,1-.043-.2.359.359,0,0,1,.072-.226.28.28,0,0,0-.126.219Zm.039-.94a.3.3,0,0,1,.043-.179A.291.291,0,0,0,20.1,3.8a.4.4,0,0,1-.086-.251ZM20.057,5.2a.072.072,0,0,0-.068.065.065.065,0,0,0,.068.065.061.061,0,0,0,.057-.065.065.065,0,0,0-.057-.065Zm.072-1.64c0-.032,0-.057-.043-.057a.054.054,0,0,0-.05.057.05.05,0,0,0,.05.05.047.047,0,0,0,.043-.05Zm.775.431a.983.983,0,0,1,.176.617c0,.161-.036.323-.036.5,0,.283.1.283.183.5.032,0,.054,0,.054-.05,0-.115-.147-.226-.147-.47a.38.38,0,0,1,0-.09c0,.291.093.283.169.5.029,0,.05,0,.05-.047,0-.165-.154-.269-.154-.47V4.79a2.871,2.871,0,0,0-.359-1.435,2.393,2.393,0,0,0-.789-.8c.036.269.079.538.111.8a2.117,2.117,0,0,0,.7.56h-.039c-.226,0-.506-.359-.66-.542l.029.266a1.181,1.181,0,0,0,.718.405Zm-.854-.94c0,.032.022.2.043.194a.133.133,0,0,0,0-.05c0-.032-.022-.2-.05-.194a.122.122,0,0,0,.007.05Zm.1,1.435a.054.054,0,0,0-.047-.05.05.05,0,0,0-.05.05.054.054,0,0,0,.05.057.057.057,0,0,0,.047-.057Zm-.068.585s.022-.122.022-.133,0-.129-.022-.129-.022.115-.022.129S20.057,5.067,20.079,5.067Zm.022-.911c.022,0,.022-.111.022-.129s0-.122-.022-.122-.022.115-.022.122.007.129.022.129Zm.118,2.727a.118.118,0,0,1,0-.047V6.811a.7.7,0,0,1-.083.1A.269.269,0,0,0,20.219,6.882Zm.061-3.115a.66.66,0,0,1-.083-.09v.169a.075.075,0,0,1,.043,0h0a.05.05,0,0,1,.039-.079Zm-.047.072-.022.018V3.9h.022a.032.032,0,0,0,.029-.032.036.036,0,0,0-.029-.025Zm.832,3.254a6.336,6.336,0,0,1-.779-.1l-.039.032a1.364,1.364,0,0,1,.359.032,2.831,2.831,0,0,0,.517.09c.255,0,.6-.133.6-.463a.431.431,0,0,0-.215-.359.258.258,0,0,1,.068.161.176.176,0,0,1-.029.1.258.258,0,0,0-.179-.065.283.283,0,0,1,.09.212.359.359,0,0,1-.395.359Zm-.359-.463a1.31,1.31,0,0,1-.427-.1h0c.039.129.445.172.545.172a.524.524,0,0,0,.3-.09.222.222,0,0,0-.093-.061.617.617,0,0,1-.323.083Zm-.42.219a1.217,1.217,0,0,0,.1-.072.531.531,0,0,1-.036.1h.068V6.8c0-.025-.025-.129-.083-.129s-.083.1-.083.147Zm0-3.043h0v.018Zm0,.147h0a.043.043,0,0,1,0,.018A.036.036,0,0,0,20.316,4a.029.029,0,0,0,.029-.032.032.032,0,0,0-.025-.025Zm0,2.978-.022.032a.757.757,0,0,1,.126,0Zm.043-3.075h0a.043.043,0,0,1-.036,0,.122.122,0,0,1,0,.072h.036a.065.065,0,0,1,.036-.072Zm0,.057Zm.068.054a.054.054,0,0,1,0-.032h0a.054.054,0,0,1-.054.039.133.133,0,0,1,0,.05h0a.1.1,0,0,1,.047,0h0a.05.05,0,0,1,.057-.057Zm-.054.09h0c0,.018,0,.025.032.025s.036,0,.036-.025a.036.036,0,0,0-.036-.032h-.025Zm.09-.065Zm.215,2.953h0c0-.057-.018-.179-.083-.179s-.111.09-.133.154Zm-.083-2.91V3.994h0a.041.041,0,0,1-.043.039h0a.108.108,0,0,1,.029.065h0a.065.065,0,0,1,.054-.036A.043.043,0,0,1,20.567,4.037Zm0,.057a.036.036,0,0,0-.032.032.031.031,0,1,0,.061,0,.036.036,0,0,0-.036-.043Zm.036-.039Zm.072,0V4.037a.079.079,0,0,1-.036.05.061.061,0,0,1,.022.05l.018-.029v-.05Zm0,.075a.032.032,0,0,0-.029.032s.022.022.029.022.039,0,.039-.022-.014-.029-.036-.029Zm.025-.068h0V4.08Zm.154,2.892a1.345,1.345,0,0,0,.169-.018.139.139,0,0,0-.126-.147c-.075,0-.126.065-.147.154a.359.359,0,0,0,.111.014Zm.266-.255-.133.05a.283.283,0,0,1,.1.161.258.258,0,0,0,.068-.039.667.667,0,0,0-.029-.169Z" transform="translate(-2.6 -0.68)" fill="#231f20"/>
      <path id="Path_24382" data-name="Path 24382" d="M11.33,24.744c-.283-1.564-.736-2.752-2.548-2.752H8.441c-.025.926-.036,2.1-.036,2.921v5.228c0,1.076.413,1.371,1.55,1.46v.183s-1.859-.039-2.343-.039-2.35.039-2.35.039v-.169c1.159-.09,1.529-.359,1.529-1.46V24.913c0-.822,0-1.851-.036-2.921H6.468c-2.009,0-2.282,1.076-2.6,2.752H3.73V21.59a13.527,13.527,0,0,0,1.435.079c.391,0,1.242.025,1.751.025H8.3c.484,0,1.364-.025,1.74-.025a11.044,11.044,0,0,0,1.435-.079c-.022.359-.022.757-.022,1.159,0,.51,0,1.59.022,2Z" transform="translate(-3.331 -14.074)" fill="#231f20"/>
      <path id="Path_24383" data-name="Path 24383" d="M36.8,31.925c-.718-.025-1.468-.039-2.2-.039s-1.435,0-2.153.039v-.169c1-.079,1.338-.222,1.338-1.46v-3.47c-.718-.025-1.41-.025-2.121-.025s-1.324.025-2.013.025v3.455c0,1.238.38,1.381,1.364,1.46v.183c-.718-.025-1.457-.039-2.178-.039s-1.435,0-2.178.039v-.169c.994-.079,1.349-.222,1.349-1.46V23.478c0-1.263-.359-1.407-1.349-1.46v-.194c.718.025,1.435.05,2.178.05s1.435-.025,2.178-.05v.194c-1,.039-1.364.219-1.364,1.446v3.05H33.8v-3.05c0-1.263-.334-1.407-1.338-1.46V21.81c.718.025,1.435.05,2.153.05s1.468-.025,2.2-.05V22c-.994.054-1.363.222-1.363,1.46v6.817c0,1.238.391,1.381,1.363,1.46Z" transform="translate(-18.033 -14.215)" fill="#231f20"/>
    </g>
  </g>
</svg>
