<svg xmlns="http://www.w3.org/2000/svg" width="190" height="108" viewBox="0 0 190 108">
  <g id="Group_49513" data-name="Group 49513" transform="translate(-750 -421)">
    <rect id="Rectangle_3367" data-name="Rectangle 3367" width="190" height="108" transform="translate(750 421)" fill="#fff"/>
    <g id="Frontline" transform="translate(776 466)">
      <path id="Path_831" data-name="Path 831" d="M-569.332,35.212a1.965,1.965,0,0,0-.05-.49.46.46,0,0,0-.226-.289,1.524,1.524,0,0,0-.515-.151q-.339-.05-.917-.1v-.252H-558l.126,4.246h-.251a11,11,0,0,0-.5-1.533,4.5,4.5,0,0,0-.779-1.269,3.707,3.707,0,0,0-1.13-.867,3.336,3.336,0,0,0-1.507-.326h-3.643V42.9h2.311a2.394,2.394,0,0,0,1.8-.741,3.786,3.786,0,0,0,.891-2.248h.252v6.23h-.252a3.786,3.786,0,0,0-.891-2.248,2.4,2.4,0,0,0-1.8-.741h-2.311v7.084a1.945,1.945,0,0,0,.051.49.456.456,0,0,0,.226.289,1.515,1.515,0,0,0,.515.151c.226.033.531.067.917.1v.251h-7.059v-.251q.577-.05.917-.1a1.517,1.517,0,0,0,.515-.151.46.46,0,0,0,.226-.289,1.968,1.968,0,0,0,.05-.49Z" transform="translate(571.04 -33.68)" fill="#b7080d"/>
      <path id="Path_832" data-name="Path 832" d="M-518.262,33.931a8.283,8.283,0,0,1,2.512.352,5.329,5.329,0,0,1,1.859.992,4.353,4.353,0,0,1,1.156,1.52,4.542,4.542,0,0,1,.4,1.909,4.35,4.35,0,0,1-.365,1.746,4.032,4.032,0,0,1-1.143,1.494,6.2,6.2,0,0,1-1.972,1.068,9.712,9.712,0,0,1-2.877.465,11.305,11.305,0,0,1,2.249.578A7,7,0,0,1-515,44.8a3.487,3.487,0,0,1,.854.817,7.682,7.682,0,0,1,.5.8l1.733,3.09a4.186,4.186,0,0,0,.992,1.306,2.367,2.367,0,0,0,1.042.452v.251h-4.873q-.4-.6-.829-1.356a13.352,13.352,0,0,1-.729-1.482l-1.331-2.738q-.377-.753-.8-1.444a2.854,2.854,0,0,0-1-1.017h-1.407v6.757a1.942,1.942,0,0,0,.051.49.456.456,0,0,0,.226.289,1.518,1.518,0,0,0,.515.151q.339.05.917.1v.251H-526.2v-.251q.578-.05.917-.1a1.521,1.521,0,0,0,.515-.151.459.459,0,0,0,.226-.289,1.942,1.942,0,0,0,.051-.49V35.212a1.938,1.938,0,0,0-.051-.49.46.46,0,0,0-.226-.289,1.528,1.528,0,0,0-.515-.151q-.339-.05-.917-.1v-.252Zm-2.587.252v9.043h1.231a3.8,3.8,0,0,0,1.721-.339,2.614,2.614,0,0,0,1.042-.93,3.888,3.888,0,0,0,.528-1.394,9.554,9.554,0,0,0,.151-1.758,9.607,9.607,0,0,0-.151-1.7,5.06,5.06,0,0,0-.49-1.482,2.9,2.9,0,0,0-.917-1.042,2.449,2.449,0,0,0-1.432-.4Z" transform="translate(541.021 -33.68)" fill="#b7080d"/>
      <path id="Path_833" data-name="Path 833" d="M-468.214,51.257a9.033,9.033,0,0,1-3.441-.666,8.633,8.633,0,0,1-2.851-1.871,9.162,9.162,0,0,1-1.947-2.864,8.957,8.957,0,0,1-.728-3.642,8.963,8.963,0,0,1,.728-3.643,9.174,9.174,0,0,1,1.947-2.864,8.648,8.648,0,0,1,2.851-1.871,9.027,9.027,0,0,1,3.441-.666,9.026,9.026,0,0,1,3.441.666,8.654,8.654,0,0,1,2.851,1.871,9.19,9.19,0,0,1,1.947,2.864,8.961,8.961,0,0,1,.728,3.643,8.955,8.955,0,0,1-.728,3.642,9.179,9.179,0,0,1-1.947,2.864,8.639,8.639,0,0,1-2.851,1.871A9.032,9.032,0,0,1-468.214,51.257Zm0-17.835a3.717,3.717,0,0,0-2.21.679,5.368,5.368,0,0,0-1.6,1.859,10.272,10.272,0,0,0-.98,2.788,16.773,16.773,0,0,0-.339,3.467A16.766,16.766,0,0,0-473,45.681a10.264,10.264,0,0,0,.98,2.788,5.365,5.365,0,0,0,1.6,1.859,3.714,3.714,0,0,0,2.21.678,3.734,3.734,0,0,0,2.2-.678,5.312,5.312,0,0,0,1.608-1.859,10.287,10.287,0,0,0,.98-2.788,16.809,16.809,0,0,0,.339-3.467,16.817,16.817,0,0,0-.339-3.467,10.3,10.3,0,0,0-.98-2.788,5.315,5.315,0,0,0-1.608-1.859A3.737,3.737,0,0,0-468.214,33.422Z" transform="translate(508.205 -33.171)" fill="#b7080d"/>
      <path id="Path_834" data-name="Path 834" d="M-407.537,51.641l-11.731-15.775V50.234a.867.867,0,0,0,.126.49.81.81,0,0,0,.465.289,4.92,4.92,0,0,0,.942.151q.6.05,1.557.1v.251h-5.753v-.251q.754-.05,1.219-.1a3.051,3.051,0,0,0,.728-.151.652.652,0,0,0,.364-.289,1.042,1.042,0,0,0,.1-.49V36.116a2.789,2.789,0,0,0-.075-.628,1.345,1.345,0,0,0-.327-.6,1.917,1.917,0,0,0-.729-.465,4.319,4.319,0,0,0-1.281-.238v-.252h5.652l8.742,12.007V35.212a.868.868,0,0,0-.126-.49.811.811,0,0,0-.464-.289,4.949,4.949,0,0,0-.942-.151q-.6-.05-1.557-.1v-.252h5.753v.252q-.754.05-1.219.1a3.055,3.055,0,0,0-.728.151.652.652,0,0,0-.364.289,1.036,1.036,0,0,0-.1.49V51.641Z" transform="translate(471.216 -33.68)" fill="#b7080d"/>
      <path id="Path_835" data-name="Path 835" d="M-367.084,33.931h13.59l.126,4.246h-.252a5.932,5.932,0,0,0-1.369-2.927,3.158,3.158,0,0,0-2.4-1.067h-1.08V50.234a1.93,1.93,0,0,0,.051.49.457.457,0,0,0,.226.289,1.518,1.518,0,0,0,.515.151q.339.05.917.1v.251h-7.058v-.251q.578-.05.917-.1a1.52,1.52,0,0,0,.515-.151.459.459,0,0,0,.226-.289,1.944,1.944,0,0,0,.051-.49V34.183h-1.081a3.157,3.157,0,0,0-2.4,1.067,5.932,5.932,0,0,0-1.369,2.927h-.251Z" transform="translate(434.582 -33.68)" fill="#b7080d"/>
      <path id="Path_836" data-name="Path 836" d="M-318.992,35.212a1.956,1.956,0,0,0-.051-.49.46.46,0,0,0-.226-.289,1.526,1.526,0,0,0-.515-.151q-.339-.05-.917-.1v-.252h7.059v.252q-.578.05-.917.1a1.523,1.523,0,0,0-.515.151.457.457,0,0,0-.226.289,1.926,1.926,0,0,0-.051.49V51.264h3.291a3.639,3.639,0,0,0,2.764-1.08,7.126,7.126,0,0,0,1.582-2.914h.251l-.251,4.245H-320.7v-.251q.578-.05.917-.1a1.519,1.519,0,0,0,.515-.151.46.46,0,0,0,.226-.289,1.96,1.96,0,0,0,.051-.49Z" transform="translate(403.445 -33.68)" fill="#b7080d"/>
      <path id="Path_837" data-name="Path 837" d="M-274.911,35.212a1.953,1.953,0,0,0-.051-.49.46.46,0,0,0-.226-.289,1.525,1.525,0,0,0-.515-.151q-.339-.05-.917-.1v-.252h7.059v.252q-.578.05-.917.1a1.524,1.524,0,0,0-.515.151.456.456,0,0,0-.226.289,1.924,1.924,0,0,0-.051.49V50.234a1.928,1.928,0,0,0,.051.49.456.456,0,0,0,.226.289,1.517,1.517,0,0,0,.515.151q.339.05.917.1v.251h-7.059v-.251q.578-.05.917-.1a1.518,1.518,0,0,0,.515-.151.459.459,0,0,0,.226-.289,1.956,1.956,0,0,0,.051-.49Z" transform="translate(373.934 -33.68)" fill="#b7080d"/>
      <path id="Path_838" data-name="Path 838" d="M-236.159,51.641-247.89,35.866V50.234a.867.867,0,0,0,.126.49.808.808,0,0,0,.465.289,4.92,4.92,0,0,0,.942.151q.6.05,1.557.1v.251h-5.753v-.251q.754-.05,1.219-.1a3.051,3.051,0,0,0,.728-.151.651.651,0,0,0,.364-.289,1.038,1.038,0,0,0,.1-.49V36.116a2.789,2.789,0,0,0-.075-.628,1.344,1.344,0,0,0-.327-.6,1.916,1.916,0,0,0-.728-.465,4.319,4.319,0,0,0-1.281-.238v-.252h5.652l8.742,12.007V35.212a.867.867,0,0,0-.126-.49.811.811,0,0,0-.464-.289,4.95,4.95,0,0,0-.942-.151q-.6-.05-1.557-.1v-.252h5.753v.252q-.754.05-1.219.1a3.055,3.055,0,0,0-.728.151.652.652,0,0,0-.364.289,1.032,1.032,0,0,0-.1.49V51.641Z" transform="translate(356.483 -33.68)" fill="#b7080d"/>
      <path id="Path_839" data-name="Path 839" d="M-181.378,38.177h-.251a11.006,11.006,0,0,0-.5-1.533,4.5,4.5,0,0,0-.779-1.269,3.7,3.7,0,0,0-1.13-.867,3.336,3.336,0,0,0-1.507-.326h-3.643V42.4h2.311a2.394,2.394,0,0,0,1.8-.741,3.786,3.786,0,0,0,.892-2.248h.251v6.23h-.251a3.788,3.788,0,0,0-.892-2.248,2.4,2.4,0,0,0-1.8-.741h-2.311v8.616h3.542a3.638,3.638,0,0,0,2.763-1.08A7.126,7.126,0,0,0-181.3,47.27h.251l-.251,4.245h-13.238v-.251q.578-.05.917-.1a1.519,1.519,0,0,0,.515-.151.459.459,0,0,0,.226-.289,1.961,1.961,0,0,0,.05-.49V35.212a1.957,1.957,0,0,0-.05-.49.46.46,0,0,0-.226-.289,1.526,1.526,0,0,0-.515-.151q-.339-.05-.917-.1v-.252H-181.5Z" transform="translate(318.984 -33.68)" fill="#b7080d"/>
    </g>
  </g>
</svg>
