<svg xmlns="http://www.w3.org/2000/svg" xmlns:xlink="http://www.w3.org/1999/xlink" width="190" height="109" viewBox="0 0 190 109">
  <defs>
    <clipPath id="clip-path">
      <rect id="Rectangle_3312" data-name="Rectangle 3312" width="184" height="63" transform="translate(0.109 -0.235)" fill="#fff" stroke="#707070" stroke-width="1"/>
    </clipPath>
  </defs>
  <g id="Group_49700" data-name="Group 49700" transform="translate(-541 -778)">
    <rect id="Rectangle_3354" data-name="Rectangle 3354" width="190" height="109" transform="translate(541 778)" fill="#fff"/>
    <g id="Mask_Group_3167" data-name="Mask Group 3167" transform="translate(543.892 801.234)" clip-path="url(#clip-path)">
      <g id="Layer_2" data-name="Layer 2" transform="translate(10.358 11.965)">
        <g id="Layer_1" data-name="Layer 1" transform="translate(0 0)">
          <path id="Path_24117" data-name="Path 24117" d="M0,34.412V3.627C0,1.728,1.067,0,3.169,0H22.205a.779.779,0,0,1,.849.779V8.883h-11.9c-.592,0-1.152.226-1.152,1.324,0,8.276,0,16-.039,24.253,0,.553-.311.709-.724.709H.724c-.623,0-.724-.3-.724-.779" transform="translate(0 0.004)" fill-rule="evenodd"/>
          <path id="Path_24118" data-name="Path 24118" d="M18.951,15.036,27.2,12V36.915c0,.514,0,.6-.42.779l-7.007,3.8a.779.779,0,0,1-1.137-.592V28.288a.156.156,0,0,1,.093-.156l3.3-1.394a.125.125,0,0,0,.093-.14V24.613c0-.047,0-.07-.093-.039L18.857,25.9c-.156.062-.249,0-.249-.14V15.636a.584.584,0,0,1,.343-.623" transform="translate(-4.119 -2.654)" fill-rule="evenodd"/>
          <path id="Path_24119" data-name="Path 24119" d="M40.777,31.368H38.62V19.432h2.032V20.8a3.55,3.55,0,0,1,1.215-1.176,3.325,3.325,0,0,1,1.6-.4v2.242a2.881,2.881,0,0,0-2.071.856,3.722,3.722,0,0,0-.623,2.39Z" transform="translate(-8.551 -4.255)" fill-rule="evenodd"/>
          <path id="Path_24120" data-name="Path 24120" d="M49.427,25.337a4.189,4.189,0,0,0,1.129,3.005,3.753,3.753,0,0,0,2.834,1.191,3.667,3.667,0,0,0,2.787-1.191A4.243,4.243,0,0,0,57.3,25.337a4.181,4.181,0,0,0-1.121-3,3.893,3.893,0,0,0-5.621,0,4.212,4.212,0,0,0-1.129,3.005m-2.227,0a6.626,6.626,0,0,1,.428-2.375A6.01,6.01,0,0,1,48.9,20.993a6.306,6.306,0,0,1,2.04-1.472A5.5,5.5,0,0,1,53.273,19a6.011,6.011,0,0,1,4.43,1.845,6.408,6.408,0,0,1,1.347,2.048,6,6,0,0,1,.467,2.336,6.8,6.8,0,0,1-.436,2.336A6.4,6.4,0,0,1,55.8,31.107a5.769,5.769,0,0,1-2.414.514,5.847,5.847,0,0,1-4.415-1.869,6.54,6.54,0,0,1-1.308-2.04,6.361,6.361,0,0,1-.467-2.351Z" transform="translate(-10.451 -4.204)" fill-rule="evenodd"/>
          <path id="Path_24121" data-name="Path 24121" d="M67.969,25.333a4.2,4.2,0,0,0,1.137,3.005,3.753,3.753,0,0,0,2.826,1.191,3.644,3.644,0,0,0,2.787-1.191,4.243,4.243,0,0,0,1.121-3.005,4.181,4.181,0,0,0-1.121-3,3.893,3.893,0,0,0-5.614,0,4.22,4.22,0,0,0-1.137,3.005m-2.219,0a6.462,6.462,0,0,1,.428-2.375,6.112,6.112,0,0,1,1.261-1.978A6.33,6.33,0,0,1,69.472,19.5a5.5,5.5,0,0,1,2.336-.522,6.042,6.042,0,0,1,4.43,1.845,6.54,6.54,0,0,1,1.386,2.063,6,6,0,0,1,.467,2.336,6.633,6.633,0,0,1-.467,2.336,5.94,5.94,0,0,1-1.23,2.024,6.229,6.229,0,0,1-2.04,1.557,5.8,5.8,0,0,1-2.421.514,6.228,6.228,0,0,1-2.421-.467A6.081,6.081,0,0,1,67.5,29.779a6.54,6.54,0,0,1-1.308-2.04,6.361,6.361,0,0,1-.444-2.382Z" transform="translate(-14.558 -4.199)" fill-rule="evenodd"/>
          <path id="Path_24122" data-name="Path 24122" d="M87.678,30.266H85.584V20.2H84.12V18.33h1.355v-.382A3.511,3.511,0,0,1,86.5,15.193a4.36,4.36,0,0,1,3.044-.927v1.978H89.36A1.822,1.822,0,0,0,88,16.68a2.1,2.1,0,0,0-.413,1.456v.179h1.962v1.869H87.678Z" transform="translate(-18.626 -3.153)" fill-rule="evenodd"/>
          <path id="Path_24123" data-name="Path 24123" d="M153.758,30.266H151.6V20.2h-1.4V18.33h1.355v-.382a3.543,3.543,0,0,1,1.02-2.756,4.391,4.391,0,0,1,3.052-.927v1.978h-.187a1.845,1.845,0,0,0-1.37.436,2.1,2.1,0,0,0-.413,1.456v.179h1.97v1.869h-1.869Z" transform="translate(-33.257 -3.153)" fill-rule="evenodd"/>
          <rect id="Rectangle_3309" data-name="Rectangle 3309" width="2.133" height="15.813" transform="translate(124.908 11.308)"/>
          <path id="Path_24124" data-name="Path 24124" d="M169.029,25.337a4.2,4.2,0,0,0,1.137,3.005,3.753,3.753,0,0,0,2.826,1.191,3.644,3.644,0,0,0,2.787-1.191,4.251,4.251,0,0,0,1.129-3.005,4.189,4.189,0,0,0-1.129-3,3.893,3.893,0,0,0-5.614,0,4.22,4.22,0,0,0-1.137,3.005m-2.219,0a6.462,6.462,0,0,1,.428-2.375,6.112,6.112,0,0,1,1.277-1.962,6.329,6.329,0,0,1,2.032-1.487A5.5,5.5,0,0,1,172.883,19a6.042,6.042,0,0,1,4.43,1.845,6.541,6.541,0,0,1,1.324,2.048,6,6,0,0,1,.467,2.336,6.8,6.8,0,0,1-.436,2.39,6.081,6.081,0,0,1-1.238,2.024,6.228,6.228,0,0,1-2.04,1.557,5.8,5.8,0,0,1-2.421.514,6.229,6.229,0,0,1-2.421-.467,6.081,6.081,0,0,1-1.985-1.4,6.54,6.54,0,0,1-1.308-2.04,6.361,6.361,0,0,1-.444-2.445Z" transform="translate(-36.935 -4.204)" fill-rule="evenodd"/>
          <path id="Path_24125" data-name="Path 24125" d="M187.577,25.333a4.2,4.2,0,0,0,1.137,3.005,3.737,3.737,0,0,0,2.826,1.191,3.659,3.659,0,0,0,2.787-1.191,4.243,4.243,0,0,0,1.121-3.005,4.181,4.181,0,0,0-1.121-3,3.893,3.893,0,0,0-5.614,0,4.22,4.22,0,0,0-1.137,3.005m-2.227,0a6.47,6.47,0,0,1,.436-2.375,5.987,5.987,0,0,1,1.261-1.978,6.33,6.33,0,0,1,2.032-1.487,5.45,5.45,0,0,1,2.336-.522,6.174,6.174,0,0,1,2.414.467,6.291,6.291,0,0,1,2.017,1.378,6.384,6.384,0,0,1,1.355,2.063,5.871,5.871,0,0,1,.475,2.336,6.633,6.633,0,0,1-.444,2.39A6.065,6.065,0,0,1,196,29.639a6.228,6.228,0,0,1-2.048,1.557,5.769,5.769,0,0,1-2.414.514,6.229,6.229,0,0,1-2.421-.467,6,6,0,0,1-1.985-1.4,6.532,6.532,0,0,1-1.783-4.422Z" transform="translate(-41.04 -4.199)" fill-rule="evenodd"/>
          <path id="Path_24126" data-name="Path 24126" d="M206.977,31.368H204.82V19.432h2.024V20.8a3.566,3.566,0,0,1,1.23-1.176,3.294,3.294,0,0,1,1.557-.4v2.242a2.85,2.85,0,0,0-2.063.856,3.675,3.675,0,0,0-.623,2.39Z" transform="translate(-45.351 -4.255)" fill-rule="evenodd"/>
          <path id="Path_24127" data-name="Path 24127" d="M95.806,25.293a4.165,4.165,0,0,0,1.215,3.068,3.893,3.893,0,0,0,2.935,1.23,3.815,3.815,0,0,0,2.78-1.23,3.986,3.986,0,0,0,1.207-2.873,4.212,4.212,0,0,0-1.2-3.021,3.831,3.831,0,0,0-2.85-1.254,4.08,4.08,0,0,0-4.088,4.119m8.027,6.042v-1.5a5.668,5.668,0,0,1-1.837,1.3,5.45,5.45,0,0,1-2.164.436,6.011,6.011,0,0,1-4.469-1.8,6.127,6.127,0,0,1-1.783-4.5,6.485,6.485,0,0,1,.444-2.4,6.018,6.018,0,0,1,1.269-1.985,5.754,5.754,0,0,1,1.97-1.394A6.182,6.182,0,0,1,99.7,19.08a5.645,5.645,0,0,1,2.258.436,5.528,5.528,0,0,1,1.876,1.316V19.4h2.18V31.335Z" transform="translate(-20.72 -4.221)" fill-rule="evenodd"/>
          <path id="Path_24128" data-name="Path 24128" d="M116.149,31.365H114V19.43h2.063v1.355A4.29,4.29,0,0,1,117.55,19.6a4.337,4.337,0,0,1,1.845-.374,4.609,4.609,0,0,1,3.589,1.378,5.66,5.66,0,0,1,1.254,3.955v6.8h-2.157V25.028a4.672,4.672,0,0,0-.7-2.818,3.068,3.068,0,0,0-4.516.164,6.735,6.735,0,0,0-.716,3.574Z" transform="translate(-25.242 -4.252)" fill-rule="evenodd"/>
          <path id="Path_24129" data-name="Path 24129" d="M133.072,24.283a4.165,4.165,0,0,0,1.2,3.036,3.893,3.893,0,0,0,2.92,1.23,3.815,3.815,0,0,0,2.811-1.2,3.986,3.986,0,0,0,1.207-2.873,4.212,4.212,0,0,0-1.2-3.021,3.831,3.831,0,0,0-2.818-1.292,4.08,4.08,0,0,0-4.088,4.119m7.98,6.042V28.861a5.668,5.668,0,0,1-1.837,1.3,5.45,5.45,0,0,1-2.164.436,6.011,6.011,0,0,1-4.469-1.8,6.128,6.128,0,0,1-1.783-4.5,6.486,6.486,0,0,1,.444-2.39,6.018,6.018,0,0,1,1.269-1.985,5.832,5.832,0,0,1,1.97-1.394,6.182,6.182,0,0,1,2.437-.452,5.629,5.629,0,0,1,2.25.436,5.714,5.714,0,0,1,1.908,1.316V14.52h2.157V30.325Z" transform="translate(-28.968 -3.212)" fill-rule="evenodd"/>
          <rect id="Rectangle_3310" data-name="Rectangle 3310" width="1.222" height="1.222" transform="translate(142.441 10.623)"/>
          <path id="Path_24130" data-name="Path 24130" d="M188.487,8.43a2.655,2.655,0,0,0-1.028.2,2.818,2.818,0,0,0-.88.576,2.562,2.562,0,0,0-.607.919,3.2,3.2,0,0,0-.2,1.207,2.585,2.585,0,0,0,.374,1.176,2.78,2.78,0,0,0,1,1.012,2.639,2.639,0,0,0,1.479.35,2.725,2.725,0,0,0,1.487-.561,2.336,2.336,0,0,0,.9-1.277h-1.386a1.253,1.253,0,0,1-1.129.631,1.557,1.557,0,0,1-1-.389,1.464,1.464,0,0,1-.506-1.012,1.635,1.635,0,0,1,.327-1.113,1.222,1.222,0,0,1,1.043-.5,1.892,1.892,0,0,1,.716.125,1.051,1.051,0,0,1,.553.537h1.386a2.437,2.437,0,0,0-.452-.864,2.6,2.6,0,0,0-.88-.716,2.484,2.484,0,0,0-1.2-.288" transform="translate(-41.133 -1.863)" fill-rule="evenodd"/>
          <path id="Path_24131" data-name="Path 24131" d="M194,9.339a2.85,2.85,0,0,0-.693,1.8,2.741,2.741,0,0,0,.779,1.931,2.561,2.561,0,0,0,1.915.779,2.593,2.593,0,0,0,1.355-.374,2.78,2.78,0,0,0,1-1,2.686,2.686,0,0,0,.366-1.363,2.523,2.523,0,0,0-.374-1.324,2.9,2.9,0,0,0-1-1,2.546,2.546,0,0,0-1.324-.374A2.935,2.935,0,0,0,194,9.339m.919.779a1.417,1.417,0,0,1,1.059-.459,1.5,1.5,0,0,1,.779.2,1.479,1.479,0,0,1,.529.545,1.627,1.627,0,0,1,.195.779,1.5,1.5,0,0,1-.4,1.059,1.557,1.557,0,0,1-1.067.452,1.511,1.511,0,0,1-1.036-.467,1.557,1.557,0,0,1-.436-1.043,1.861,1.861,0,0,1,.382-1.074Z" transform="translate(-42.803 -1.861)" fill-rule="evenodd"/>
          <path id="Path_24132" data-name="Path 24132" d="M201.18,8.611v5.107H202.4V10.877a1.261,1.261,0,0,1,.288-.9.872.872,0,0,1,.685-.311,1,1,0,0,1,.709.3,1.106,1.106,0,0,1,.311.779V13.68h1.222V10.861a1.207,1.207,0,0,1,.319-.888,1.012,1.012,0,0,1,.732-.327.849.849,0,0,1,.779.491,1.37,1.37,0,0,1,.125.6v2.982h1.253v-3.2a2.086,2.086,0,0,0-.3-1.113,1.962,1.962,0,0,0-.779-.716,2.336,2.336,0,0,0-1.954,0,1.767,1.767,0,0,0-.693.592,1.558,1.558,0,0,0-.654-.592,1.962,1.962,0,0,0-.872-.2,1.814,1.814,0,0,0-.779.171,1.121,1.121,0,0,0-.514.491V8.611Z" transform="translate(-44.545 -1.873)" fill-rule="evenodd"/>
          <path id="Path_24133" data-name="Path 24133" d="M38.885,40.676l.1-.522H39.6c.047-.179.086-.358.125-.529a1.814,1.814,0,0,1,.171-.452.872.872,0,0,1,.311-.319,1,1,0,0,1,.553-.125h.249a1.207,1.207,0,0,1,.241.047l-.093.5h-.28a.592.592,0,0,0-.335.078.607.607,0,0,0-.187.21,1.394,1.394,0,0,0-.093.288,1.249,1.249,0,0,1-.078.327h.685l-.093.522h-.7l-.654,3.068H38.83l.662-3.068Z" transform="translate(-8.598 -8.572)"/>
          <path id="Path_24134" data-name="Path 24134" d="M42.53,40.538l-.179.779h0a2.032,2.032,0,0,1,.529-.615,1.3,1.3,0,0,1,.779-.241h.21l-.14.631h-.343a.9.9,0,0,0-.171,0,1.152,1.152,0,0,0-.436.218,1.643,1.643,0,0,0-.327.366,1.5,1.5,0,0,0-.187.4c-.047.156-.086.3-.117.436l-.335,1.557H41.23l.779-3.589Z" transform="translate(-9.129 -8.955)"/>
          <path id="Path_24135" data-name="Path 24135" d="M44.362,41.856a2.211,2.211,0,0,1,.4-.716,1.908,1.908,0,0,1,.631-.506,1.853,1.853,0,0,1,.841-.187,1.339,1.339,0,0,1,1.495,1.487,2.585,2.585,0,0,1-.132.849,2.164,2.164,0,0,1-.389.724,1.876,1.876,0,0,1-.623.506,1.806,1.806,0,0,1-.841.187,1.861,1.861,0,0,1-.638-.109,1.44,1.44,0,0,1-.475-.311,1.4,1.4,0,0,1-.3-.475,1.643,1.643,0,0,1-.1-.6,2.616,2.616,0,0,1,.132-.849Zm.709,1.557a.942.942,0,0,0,.732.273,1.02,1.02,0,0,0,.584-.163,1.627,1.627,0,0,0,.413-.42,1.877,1.877,0,0,0,.257-.553,1.9,1.9,0,0,0,.086-.568,1.308,1.308,0,0,0-.055-.389.779.779,0,0,0-.171-.327.841.841,0,0,0-.3-.218,1.121,1.121,0,0,0-.42-.078,1.043,1.043,0,0,0-.6.171,1.472,1.472,0,0,0-.428.42,1.713,1.713,0,0,0-.257.553,2.063,2.063,0,0,0-.093.584A1,1,0,0,0,45.071,43.413Z" transform="translate(-9.793 -8.95)"/>
          <path id="Path_24136" data-name="Path 24136" d="M50.459,40.533l-.132.537h0a1.666,1.666,0,0,1,.553-.459,1.5,1.5,0,0,1,.693-.171,1.082,1.082,0,0,1,.584.148.7.7,0,0,1,.319.5,1.557,1.557,0,0,1,.537-.467,1.479,1.479,0,0,1,.693-.179,1.557,1.557,0,0,1,.374.047,1.074,1.074,0,0,1,.319.14.639.639,0,0,1,.226.249.779.779,0,0,1,.086.374,2.172,2.172,0,0,1,0,.358,1.537,1.537,0,0,1-.07.358l-.452,2.149H53.6l.506-2.273v-.389a.459.459,0,0,0-.156-.35.576.576,0,0,0-.4-.14A.973.973,0,0,0,53.3,41l-.249.109a1.557,1.557,0,0,0-.218.156l-.187.187a1.106,1.106,0,0,0-.21.374,3.565,3.565,0,0,0-.117.436l-.4,1.853h-.561l.428-2.048a2.868,2.868,0,0,1,.078-.389,1.41,1.41,0,0,0,0-.241.475.475,0,0,0-.125-.35.506.506,0,0,0-.374-.125.958.958,0,0,0-.483.14,1.829,1.829,0,0,0-.4.319,1.051,1.051,0,0,0-.257.366,2.562,2.562,0,0,0-.125.444l-.4,1.884H49.12l.779-3.589Z" transform="translate(-10.876 -8.951)"/>
          <path id="Path_24137" data-name="Path 24137" d="M59.3,39.361V38.8h3.963v.561H61.612v4.4h-.662v-4.4Z" transform="translate(-13.13 -8.588)"/>
          <path id="Path_24138" data-name="Path 24138" d="M65.8,38.8v2.133H68.37V38.8h.662v4.96H68.37V41.486H65.8V43.76h-.7V38.8Z" transform="translate(-14.414 -8.588)"/>
          <path id="Path_24139" data-name="Path 24139" d="M74.966,38.8v.561H72.2v1.557h2.577v.553H72.2v1.721h2.811v.553H71.54V38.8Z" transform="translate(-15.84 -8.588)"/>
          <path id="Path_24140" data-name="Path 24140" d="M80.132,38.8v2.133h2.616V38.8H83.4v4.96h-.654V41.486H80.132V43.76H79.47V38.8Z" transform="translate(-17.596 -8.588)"/>
          <path id="Path_24141" data-name="Path 24141" d="M86.623,38.8v4.96H86V38.8Z" transform="translate(-19.042 -8.588)"/>
          <path id="Path_24142" data-name="Path 24142" d="M88.916,38.8l2.608,4.049h0V38.8h.631v4.96h-.724l-2.608-3.979h0V43.76H88.2V38.8Z" transform="translate(-19.529 -8.588)"/>
          <path id="Path_24143" data-name="Path 24143" d="M96.375,38.8a2.46,2.46,0,0,1,1.76.584,2.336,2.336,0,0,1,.623,1.783,3.97,3.97,0,0,1-.14,1.106,2.079,2.079,0,0,1-.436.779,1.791,1.791,0,0,1-.779.506,2.951,2.951,0,0,1-1.067.171H94.67V38.8Zm.055,4.407H96.7a1.557,1.557,0,0,0,.358-.086,1.721,1.721,0,0,0,.374-.195,1.222,1.222,0,0,0,.327-.335,1.9,1.9,0,0,0,.28-.522,2.9,2.9,0,0,0,.093-.779,3.5,3.5,0,0,0-.086-.779,1.557,1.557,0,0,0-.288-.6,1.285,1.285,0,0,0-.506-.374,2.063,2.063,0,0,0-.779-.125H95.332V43.26Z" transform="translate(-20.962 -8.586)"/>
          <path id="Path_24144" data-name="Path 24144" d="M104.4,43.394a2.048,2.048,0,0,1-1.448.483,2.242,2.242,0,0,1-1.495-.459,1.8,1.8,0,0,1-.537-1.448V38.8h.654v3.169a1.37,1.37,0,0,0,.358,1.012,1.417,1.417,0,0,0,1.02.343,1.3,1.3,0,0,0,.965-.343,1.425,1.425,0,0,0,.327-1.012V38.8h.631v3.169a1.861,1.861,0,0,1-.475,1.425Z" transform="translate(-22.344 -8.588)"/>
          <path id="Path_24145" data-name="Path 24145" d="M112.791,43.676a2.437,2.437,0,0,1-.864.171,2.281,2.281,0,0,1-1-.21,2.172,2.172,0,0,1-.74-.553,2.211,2.211,0,0,1-.467-.779,2.756,2.756,0,0,1-.163-.942,3.729,3.729,0,0,1,.148-1.028,2.546,2.546,0,0,1,.452-.864,2.172,2.172,0,0,1,.732-.584,2.281,2.281,0,0,1,1.036-.218,2.951,2.951,0,0,1,.779.093,1.924,1.924,0,0,1,.638.3,1.557,1.557,0,0,1,.475.514,2.024,2.024,0,0,1,.265.74h-.662a1.269,1.269,0,0,0-.179-.483,1.378,1.378,0,0,0-.327-.343,1.425,1.425,0,0,0-.444-.195,1.915,1.915,0,0,0-.522-.07,1.557,1.557,0,0,0-.779.187,1.479,1.479,0,0,0-.529.475,2.087,2.087,0,0,0-.3.67,2.927,2.927,0,0,0-.1.779,2.67,2.67,0,0,0,.109.779,2.2,2.2,0,0,0,.327.631,1.635,1.635,0,0,0,.537.436,1.557,1.557,0,0,0,.732.163,1.736,1.736,0,0,0,.685-.125,1.456,1.456,0,0,0,.506-.343,1.557,1.557,0,0,0,.3-.514,1.744,1.744,0,0,0,.093-.638h-1.557v-.553h2.172v2.608h-.42l-.171-.615a1.7,1.7,0,0,1-.771.514Z" transform="translate(-24.259 -8.559)"/>
          <path id="Path_24146" data-name="Path 24146" d="M118.986,38.8a1.627,1.627,0,0,1,1.106.35,1.191,1.191,0,0,1,.4.95,1.557,1.557,0,0,1-.2.779,1.09,1.09,0,0,1-.654.467h0a1.028,1.028,0,0,1,.35.14.779.779,0,0,1,.21.234,1.308,1.308,0,0,1,.125.3.771.771,0,0,0,.055.343v.374a2.776,2.776,0,0,0,0,.366,1.222,1.222,0,0,0,.078.343.872.872,0,0,0,.163.288h-.779a.374.374,0,0,1-.093-.21,1.559,1.559,0,0,1,0-.288v-.358a1.946,1.946,0,0,0-.039-.366l-.07-.343a.888.888,0,0,0-.132-.288.817.817,0,0,0-.234-.195.942.942,0,0,0-.389-.07h-1.565v2.118h-.662V38.8Zm.132,2.25a1.02,1.02,0,0,0,.366-.132.7.7,0,0,0,.249-.273.919.919,0,0,0,.093-.444.779.779,0,0,0-.88-.841h-1.635v1.728h1.37a2.522,2.522,0,0,0,.436-.039Z" transform="translate(-25.829 -8.587)"/>
          <path id="Path_24147" data-name="Path 24147" d="M122.555,40.27a2.289,2.289,0,0,1,.444-.825,2.118,2.118,0,0,1,.779-.576,2.554,2.554,0,0,1,2.063,0,2.118,2.118,0,0,1,.779.576,2.429,2.429,0,0,1,.452.825,3.3,3.3,0,0,1,0,1.954,2.468,2.468,0,0,1-.452.833,2.094,2.094,0,0,1-.779.568,2.554,2.554,0,0,1-2.063,0,2.094,2.094,0,0,1-.779-.568,2.335,2.335,0,0,1-.444-.833A3.114,3.114,0,0,1,122.555,40.27Zm.607,1.721a1.939,1.939,0,0,0,.3.654,1.557,1.557,0,0,0,.537.467,1.767,1.767,0,0,0,1.557,0,1.557,1.557,0,0,0,.537-.467,1.939,1.939,0,0,0,.3-.654,2.756,2.756,0,0,0,0-1.479,1.908,1.908,0,0,0-.3-.662,1.557,1.557,0,0,0-.537-.467,1.767,1.767,0,0,0-1.557,0,1.557,1.557,0,0,0-.537.467,1.907,1.907,0,0,0-.3.662A2.756,2.756,0,0,0,123.163,41.99Z" transform="translate(-27.101 -8.555)"/>
          <path id="Path_24148" data-name="Path 24148" d="M133.008,43.394a2.048,2.048,0,0,1-1.448.483,2.242,2.242,0,0,1-1.495-.459,1.8,1.8,0,0,1-.537-1.448V38.8h.654v3.169a1.37,1.37,0,0,0,.358,1.012,1.417,1.417,0,0,0,1.02.343,1.3,1.3,0,0,0,.965-.343,1.425,1.425,0,0,0,.327-1.012V38.8h.662v3.169A1.861,1.861,0,0,1,133.008,43.394Z" transform="translate(-28.678 -8.588)"/>
          <path id="Path_24149" data-name="Path 24149" d="M138.164,38.8a1.557,1.557,0,0,1,1.137.389,1.448,1.448,0,0,1,.382,1.074,1.487,1.487,0,0,1-.382,1.09,1.557,1.557,0,0,1-1.137.382h-1.518v2.024H136V38.8Zm-.226,2.375a1.176,1.176,0,0,0,.825-.226.888.888,0,0,0,.257-.685.872.872,0,0,0-.257-.677,1.215,1.215,0,0,0-.825-.226h-1.292v1.814Z" transform="translate(-30.113 -8.587)"/>
        </g>
      </g>
    </g>
  </g>
</svg>
