<svg xmlns="http://www.w3.org/2000/svg" width="389.936" height="36.707" viewBox="0 0 389.936 36.707">
  <g id="The_Hindu" data-name="The Hindu" transform="translate(0 0)">
    <path id="Path_8138" data-name="Path 8138" d="M389.936,2.713V2.12l-6.149.132-7.21-.132v.594c5.355.265,6.681,2.316,6.681,8V22.951c0,7.407-2.449,11.572-9.656,11.572-6.681,0-8.465-4.3-8.465-11.043v-16c0-4.036,1.319-4.562,4.894-4.762V2.12l-7.807.132-7.933-.132v.594c3.571.2,4.891.661,4.891,4.762V25.4c0,8.462,6.946,10.446,13.359,10.446,7.543,0,12.1-3.7,12.1-12.3V10.717c0-4.11.255-6.952,3.639-7.775Zm-43.453,16.6-.107,2.92c-.513,6.5-2.933,10.791-8.952,11.891a11.383,11.383,0,0,1-2.71.2c-3.307-.068-4.565-1.523-4.565-5.159V3.571a14.765,14.765,0,0,1,2.975-.329c8.62,0,12.821,5.755,13.311,14.321l.048,1.752m1.094,12.492,1.084-.929c2.752-2.636,4.371-6.572,4.371-12.224,0-12.04-8.662-16.534-18.65-16.534l-7.01.132-8.136-.132v.594c3.639.2,4.9.661,4.9,4.826V30.025c0,4.1-1.326,4.565-4.9,4.829v.529l8.072-.132c1.849,0,3.7.132,5.552.2a26.607,26.607,0,0,0,4.633-.132,21.023,21.023,0,0,0,8.9-2.7l1.187-.813M317.519,2.713V2.12l-5.491.132L305.15,2.12v.594c5.423.2,6.217,3.571,6.217,8.8V28.967L288.949,2.184h-8.665v.6a8.6,8.6,0,0,1,2.91.461c2.778,1.123,3.042,5.026,3.042,7.8V25.993c0,4.3,0,8.53-4.826,8.862v.529c1.849-.068,3.768-.2,5.62-.2,2.249,0,4.433.132,6.614.2v-.529c-5.159-.332-6.085-3.836-6.085-8.862V9.724l21.693,26.057h3.439V11.511c0-3.846.116-7.981,4-8.7l.829-.1M278.431,35.384v-.529c-3.571-.265-4.962-.729-4.962-4.829V7.539c0-4.1,1.326-4.626,4.962-4.826V2.12l-7.872.132-7.933-.132v.594c3.636.2,4.894.661,4.894,4.826V30.025c0,4.1-1.326,4.565-4.894,4.829v.529l7.933-.132,7.872.132m-18.783,0v-.529c-3.507-.265-4.959-.729-4.959-4.829V7.539c0-4.1,1.387-4.626,4.959-4.826V2.12l-8,.132-7.807-.132v.594c3.639.2,4.83.661,4.83,4.826v9.988l-8.533.068h-6.414V7.539c0-4.1,1.258-4.626,4.894-4.826V2.12l-7.872.132-7.933-.132v.594c3.636.2,4.891.661,4.891,4.826V30.025c0,4.1-1.323,4.565-4.891,4.829v.529l7.933-.132,7.872.132v-.529c-3.571-.265-4.894-.729-4.894-4.829V18.586L241,18.521l7.672.065v11.44c0,4.1-1.19,4.565-4.83,4.829v.529l7.807-.132,8,.132m-44.443-1.523.4-.116.4-.213.265,1.058c-.2,0-.265.132-.461.2l-.2-.536-.4-.39m-.794,1.126h-.6c.068-.529.265-.926.8-.926.461,0,.726.461.794.858l-.994.068M213.354,18.85h.065v.068m-.132.658-.2-.129c0-.132.065-.265.2-.265a.175.175,0,0,1,.2.2l-.052.148-.148.048m.068-.461-.265.132-.132-.329a.21.21,0,0,0,.2-.2h.068v.132l.132.265m-.661-.329-.065-.068.065-.132.132.132m-.265.6-.265-.132c0-.132.132-.2.265-.2.068,0,.132.068.132.2l-.132.132m.068-.861-.068.2.068.2a.457.457,0,0,0-.332.2v-.068l-.132-.329h.068l.265-.2h.132M212.1,34.723l.248-.581a.623.623,0,0,1,.545-.281c.461,0,.526.729.526.994v.065l-1.319-.2m-.068-16.269-.064-.065.064-.068.068.068m-.2-.332v.265l.068.265-.068-.065-.329.132.065-.132-.132-.2.248-.084m.1.739-.148.074-.2-.2.068-.132h.132c.132,0,.2.068.2.132l-.048.126m-.413-.919-.068-.065.068-.068.064.068m-.3-.132.035.2-.2.068a.408.408,0,0,0,0-.4l.2-.068h.132l-.168.2m-.229,17.127.132-.132.661.132m-.794-16.731.132-.068.132.2-.132.2a.213.213,0,0,1-.2-.2v-.068l.068-.065m0-.861-.068.132-.065-.132.065-.068m1.21,15.643,1.371.165a4.135,4.135,0,0,0,2.116-.461l.4.394a3.4,3.4,0,0,1-1.852.6c-.661,0-3.175-.265-3.375-.99l.068-.068,1.274.365m-1.274,1.42-.132-.065c0-.265.132-.861.529-.861s.529.4.529.729l-.064.4-.4-.068c.065-.2.2-.329.2-.529l-.306.226-.355.171m-.2.994.2-.2a39.61,39.61,0,0,0,4.83.529,2.135,2.135,0,0,0,2.381-1.984,1.405,1.405,0,0,0-.532-1.123,1.826,1.826,0,0,1,1.061.265.747.747,0,0,0,.2-.529,1.476,1.476,0,0,0-.4-.926,2.294,2.294,0,0,1,1.258,1.984c0,1.984-2.12,2.645-3.639,2.645a25.416,25.416,0,0,1-3.239-.465l-1.036-.123-1.084-.074m-.265-17.724h.132c.132,0,.2,0,.2.132a.178.178,0,0,1-.2.2l-.132-.068V17.66l-.064-1.058.461.594-.065.332-.142.016m-.652,17.244.461-.594-.064.132.132.265m-.726-16.6.145.3.052.358c0,.132-.068.726-.2.726s-.132-.594-.132-.726l.016-.358.116-.3m-.016,5.339.016.413-.132.661c-.132,0-.132-.6-.132-.729,0-.065,0-.661.132-.661l.116.316m.016-9.375-.01.184-.058.081c-.132.068-.265-.861-.265-1.058l.068-.265c.064-.032.132.2.181.455l.084.6m0,6.943.2.084.058.181a.312.312,0,0,1-.329.332.365.365,0,0,1-.265-.332l.116-.181.216-.084m.106-5.1.09.206a.3.3,0,0,1-.329.261.282.282,0,0,1-.265-.261.241.241,0,0,1,.265-.265l.239.058m-.158,9.488.116.242a.353.353,0,0,1-.329.329c-.265,0-.4-.132-.4-.329s.132-.332.4-.332l.213.09m.052-7.894-.31-.281a1.629,1.629,0,0,1-.419-1.042,1.869,1.869,0,0,1,.465-1.123,1.415,1.415,0,0,0-.265.99l.139.8.39.652m-.068,2.578-.355.607-.106.652a1.867,1.867,0,0,0,.265,1.19,1.961,1.961,0,0,1-.529-1.19l.19-.677.536-.581m-1.058,4.962.142-.19.19-.142-.2.4m.068-13.888.239.058.09.206a.3.3,0,0,1-.329.265.285.285,0,0,1-.265-.265l.084-.206.181-.058m0,1.455-.545-.6a1.462,1.462,0,0,1-.248-.794,1.947,1.947,0,0,1,.461-1.058,2.217,2.217,0,0,0-.2.994l.139.774.39.681m-.132,5.884-.174.736-.423.587a1.811,1.811,0,0,0,.332-1.323,2.468,2.468,0,0,0-.465-1.323,1.687,1.687,0,0,1,.681.939l.048.384m-.2,14.418-.032-.413-.232-.316h-.265a3.8,3.8,0,0,1,1.455-2.181,3.891,3.891,0,0,1,1.652,2.316h-.4l-.571-.829-.816-.629a4.513,4.513,0,0,1,.332,1.59,2.446,2.446,0,0,1-.4,1.387l-.29-.513-.439-.413m-.5-7.91.3-.094a.332.332,0,0,1,0,.665c-.265,0-.4-.132-.4-.332l.1-.239m-.032-4.258-.132.529-.068-.465a.626.626,0,0,1,.132-.461l.068.4m.248-7.275.158.345.058.384a1.963,1.963,0,0,1-.532,1.19,2.578,2.578,0,0,0,.268-1.19,1.739,1.739,0,0,0-.465-1.258l.513.529m-.248,4.762.216.106.116.158a.429.429,0,0,1-.332.4c-.2,0-.265-.2-.265-.4l.084-.184.181-.081m-.265,6.217.3-.577.1-.681a2.092,2.092,0,0,0-.332-1.255,1.87,1.87,0,0,1,.6,1.19,1.528,1.528,0,0,1-.206.736l-.455.587m.265-7.872-.052.39-.148.339-.132-.729.132-.79c.1,0,.148.181.174.371l.026.419m-.529,8.8.661-1.026a2.359,2.359,0,0,0,.465-1.026c0-.726-.529-1.387-.529-2.181,0-1.058,1.123-1.587,1.123-2.513,0-.858-.926-1.39-.926-2.316,0-.858.661-1.452.661-2.313,0-1.123-1.455-1.255-1.455-2.842,0-.6.461-1.058.329-1.655l.132.529-.2,1.126.065.487c.294,1.016,1.458,1.255,1.458,2.355,0,.861-.661,1.523-.661,2.313s.926,1.39.926,2.316c0,.99-1.058,1.587-1.058,2.578,0,.729.461,1.39.461,2.116a1.709,1.709,0,0,1-.529,1.126l-.926.926m-.068-12.1V12.9a.887.887,0,0,1,.132-.594l.068.329-.2.594m.332.6.216.126.116.271a.465.465,0,0,1-.332.265.353.353,0,0,1-.332-.329l.116-.216.216-.116m.465,19.376-.142.639-.39.487h-.265L207,33.2m.461-23.476-.106.206-.158.058c-.2,0-.329-.068-.329-.265a.3.3,0,0,1,.329-.265l.158.084.106.181m.132,15.143-.158.274-.3.126a.383.383,0,0,1-.4-.4c0-.265.132-.461.4-.461l.3.132.158.329m2.581,1.455.213-2.545.116-2.545-.064-2.91a.314.314,0,0,0,.4.068l-.068.132a.442.442,0,0,0,.4.461l.332-.065-.064.065a.5.5,0,0,0,.461.465.369.369,0,0,0,.332-.2s.2.461.461.461l.332-.132a.424.424,0,0,0,.394.4c.332,0,.465-.2.465-.4s-.068-.394-.264-.394c.132-.068.264-.265.2-.332h.861l-.132,1.123v.068a3.2,3.2,0,0,1-1.455.794,3.378,3.378,0,0,0,1.387-.4l-.132.4a2.242,2.242,0,0,1-1.19.726,2.2,2.2,0,0,0,1.058-.329l-.065.329a2.774,2.774,0,0,1-1.19.729,2.78,2.78,0,0,0,1.058-.265l-.132.4a6.132,6.132,0,0,1-1.255.726,3.171,3.171,0,0,0,1.123-.329l-.132.329-1.058.6.858-.2-.394.926a10.48,10.48,0,0,1-1.19.665l.99-.268a4.544,4.544,0,0,0-.594,1.655l.132.794a2.161,2.161,0,0,1-.861.858,3.475,3.475,0,0,0,.994-.529,7.037,7.037,0,0,0,.79,1.126,2.949,2.949,0,0,1-.923.661,1.676,1.676,0,0,0,1.055-.465l.265.268a1.681,1.681,0,0,1-.79.726,1.258,1.258,0,0,0,.923-.465l.265.265a1.389,1.389,0,0,1-.858.661h.065a1.3,1.3,0,0,0,.926-.4l.132.132a1.552,1.552,0,0,1-.858.729,2.2,2.2,0,0,0,1.058-.465l.4.729s-.4.661-.794.726a1.667,1.667,0,0,0,.994-.4l.065.068c-.265.329-.529.661-.861.729a1.843,1.843,0,0,0,.994-.4l.132.4a3.314,3.314,0,0,1-1.984.526,5.192,5.192,0,0,1-2.381-.526,1.368,1.368,0,0,0-.2-.861h.332l.794-.068a1.6,1.6,0,0,1-1.655-.926l.529.068.6-.068a2.527,2.527,0,0,1-1.784-.594l.594.065.661-.065a2.905,2.905,0,0,1-2.116-.861,2.94,2.94,0,0,0,1.058.2l.661-.065h-.265c-2.181,0-3.175-2.12-3.836-3.9l1.878.461,1.826.661m-4.233-7.472-.2-.065.265-.132.132.132m-.316,2.694-.148-.116c0-.265.4-.332.529-.332.2,0,.461.068.461.2,0,.265-.461.265-.594.265l-.248-.016m.184-1.571-.2.065a.3.3,0,0,1-.2-.265l.065-.065.19.084.142.181m.132.2.245.026.148.174c0,.2-.394.329-.526.329s-.4-.065-.4-.265c0-.1.1-.165.216-.206l.313-.058m.132,1.855.245.055.148.21c0,.2-.461.265-.594.265v.2c0,.068,0,.461-.265.461-.132,0-.2-.394-.2-.461,0-.348.11-.584.361-.677l.3-.048m-.794-5.491.064-.165a.806.806,0,0,1,.529-.165c.132,0,.4,0,.4.2s-.4.329-.594.329l-.248-.048-.148-.148m.461,7.672.306.1.158.3c0,.2-.265.4-.465.4a.442.442,0,0,1-.461-.4l.132-.3.329-.1m-.529,10.382,1.852.068a1.574,1.574,0,0,1-.794.2l-.529-.081-.529-.184m.529-19.308.281.048.184.148c0,.265-.465.332-.6.332s-.461-.068-.461-.265c0-.1.1-.168.223-.206l.371-.058m-.529,2.645h-.065c0-.2.132-.2.264-.265l-.132-.132c0-.2.461-.332.594-.332s.4.065.4.2c0,.332-.594.332-.794.332l-.058.148-.206.052m.2,2.907v.068l-.206-.048-.058-.152V20.57l.181.048m-.181,13.508.281-.545a.809.809,0,0,1,.577-.248c.529,0,.661.465.661.861v.065l-1.519-.132m.081-19.424-.148-.148c0-.2.465-.332.6-.332s.4.068.4.265-.465.265-.6.265l-.248-.048m.248-5.11-.19.181-.339.084c-.132,0-.4-.068-.4-.265s.465-.265.6-.265l.213.058.116.206m-1.126,7.672v-.132c0-.132.068-.265.2-.265l.068.068-.084.213-.184.116m.136,4.1-.068.132-.132-.265.065-.132m.136.794.152.055a.568.568,0,0,1,.113.41c0,.132,0,.526-.265.526-.136,0-.2-.394-.2-.526l.048-.284.152-.181m.2,1.916.307.126.158.271a.438.438,0,0,1-.465.4.351.351,0,0,1-.4-.4l.1-.271.3-.126m-.058-8.34.126.274a.4.4,0,0,1-.4.461c-.329,0-.529-.132-.529-.461,0-.2.2-.4.529-.4l.274.123m.19-7-.2.419a.526.526,0,0,1-.4.174c-.4,0-.661-.2-.661-.594l.132-.4,1.126.4m-.471,22.857-.919-.507a15.392,15.392,0,0,0,1.655-3.9,1.511,1.511,0,0,0-.2-.729l1.452-.065.529,1.123-.329.068a2.106,2.106,0,0,1-.99-.4,1.85,1.85,0,0,0,1.52.594,6.036,6.036,0,0,0,1.126,1.523h-.265a3.928,3.928,0,0,1-2.116-.6,4.088,4.088,0,0,0,2.645.861l.461.461-.329.265a4.591,4.591,0,0,1-2.645-.594,4.987,4.987,0,0,0,2.381.926l-.4.461H208a5.653,5.653,0,0,1-2.449-.661,5.338,5.338,0,0,0,2.449.994l-.268.4H207.6a4.28,4.28,0,0,1-2.51-.729,4.065,4.065,0,0,0,2.51,1.058l-.065.265a7.034,7.034,0,0,1-2.026-.413l-.958-.4M203.63,16.6l.132.2c0,.136-.064.136-.132.2-.065-.065-.132-.065-.132-.2l.132-.2m.006,5.223.126-.065c.132,0,.2.4.2.529,0,.068-.068.465-.2.465-.2,0-.265-.4-.265-.465l.058-.316.081-.148m-.006-.461.068.132-.2.265-.065-.265.048-.068m-.048,4.433.132-1.126,2.845.465.129.861-1.578-.052m-1.6,7.788.332-.655c.148-.223.329-.4.529-.4.529,0,.729.794.729,1.19v.132l-1.59-.265m.332-10.12.3.11a.441.441,0,0,1,.158.355c0,.2-.265.4-.461.4a.445.445,0,0,1-.465-.4l.132-.355.332-.11m-.132-8-.052.258-.148.206c-.2,0-.261-.4-.261-.465,0-.132.065-.529.261-.529l.148.216.052.313m-.726,15.8v-.065a.687.687,0,0,1,.265-.529,8.355,8.355,0,0,0,4.959,1.587v.2l-.065.261h-.6a9.388,9.388,0,0,1-3.646-.836l-.916-.619m.79-13.424.39.09a1.192,1.192,0,0,1,.671,1.036,1.152,1.152,0,0,1-1.061,1.123,1.1,1.1,0,0,1-1.055-1.123,1.145,1.145,0,0,1,.639-1.036l.416-.09m-1.016-1.132.026.206v.132l-.2-.265v-.132m.065,4.629h-.065v-.132a.3.3,0,0,1,.2-.265l.068.065-.052.216-.148.116m.074.329.126-.065c.2,0,.265.332.265.529,0,.068-.068.4-.265.4s-.265-.329-.265-.4l.058-.316.081-.148m-.206,3.971.148-.6.052-.6.594.068-.132,1.19M202.8,10.314l.177-.236.19-.09c.594,0,.926,1.984.926,2.449,0,.594-.265,1.055-.926,1.055s-.926-.461-.926-1.055l.265-1.374.294-.748m-.277,18.308-.148.081-.132-.265h.332m.239-4.736.158.306c0,.2-.265.4-.465.4a.382.382,0,0,1-.4-.4.438.438,0,0,1,.4-.465l.306.158m-.429-12.73-.339,1.729a1.115,1.115,0,0,0,1.123,1.123c.794,0,1.058-.529,1.058-1.19,0-.529-.465-3.042-1.058-3.042-.148,0-.294.165-.426.419l-.358.961m.323,21.238.19.2a1.852,1.852,0,0,1,.139.855v.461l-.694-.255c-.265-.106-.5-.239-.5-.406s.165-.345.355-.5l.507-.355m-.794-16.8.329-.132c.265,0,.4.2.4.465s-.132.461-.4.461a.449.449,0,0,1-.461-.461l.132-.332m.255,3.829.235.081.1.126c0,.129-.4.461-.529.526l.6-.132.132.132-.2.6a1.175,1.175,0,0,1,.529-.332c.2,0,.2.6.132.729.065-.068.329-.6.461-.6s.332.465.4.529v-.132s0-.529.132-.529a1.566,1.566,0,0,1,.6.4l-.2-.661c0-.065,0-.132.136-.132l.594.132c-.132-.065-.529-.329-.529-.526s.6-.265.661-.265c-.065,0-.661-.068-.661-.265s.4-.465.529-.529l-.594.065-.136-.065a1.27,1.27,0,0,1,.2-.661.886.886,0,0,1-.6.4c-.2,0-.132-.6-.132-.729-.065.132-.265.6-.4.6-.2,0-.329-.465-.4-.6v.265c0,.2,0,.465-.2.465s-.4-.2-.529-.332a.889.889,0,0,1,.2.529c0,.132-.068.132-.2.132l-.594-.065c.132.065.594.329.594.529s-.661.265-.726.265l.387.058m-.519-1.645h.065c.132-.068.2.065.2.2h-.068l-.2-.2m.171,3.091-.171.081h-.068l-.064-.065c0-.132.2-.2.329-.2l-.026.184m.11,1.387.048.284c0,.132-.064.461-.2.461-.265,0-.265-.329-.265-.461s0-.465.265-.465l.148.181m-.413,5.439v-.065h.329l-.329-.132v-.068l.4.068-.332-.2.068-.065h.265l-.265-.132.065-.068.332.068h.132c-.132,0-.332-.068-.332-.2v-.065l.465.065-.332-.2.4-.068c.661,0,.858.529.99,1.058a2.6,2.6,0,0,1-.923.332l-.487-.116-.439-.216m-.132-8.33.4-.216.455-.116c-.132-.132-.726-.4-.726-.594,0-.132.132-.132.2-.132l.861.2a1.482,1.482,0,0,1-.4-.794l.064-.065V17.4c.2,0,.6.332.794.529l-.064-.529.064-.4c.329,0,.529.6.594.729.068-.068.332-.794.529-.794.132,0,.068.794.068.99.2-.2.465-.529.729-.529l.065.2a1.622,1.622,0,0,1-.265.726,1.282,1.282,0,0,1,.661-.2c.2,0,.265,0,.265.132a.882.882,0,0,1,.529-.2c.132,0,.4,0,.4.265,0,.132-.461.265-.529.265-.132,0-.461-.065-.461-.2a1.21,1.21,0,0,1-.661.461,1.648,1.648,0,0,1,.858.2l.465-.132c.132,0,.394.065.394.265s-.461.265-.594.265-.329,0-.4-.132a1.9,1.9,0,0,1-.661.2c.132.065.661.4.661.594,0,0,0,.132-.265.132a1.5,1.5,0,0,1-.726-.2,1.516,1.516,0,0,1,.4.794l-.132.132c-.265,0-.6-.332-.729-.529V20.9c0,.068,0,.465-.068.465-.265,0-.461-.6-.529-.729-.065.132-.265.729-.526.729-.2,0-.068-.729-.068-.861a1.4,1.4,0,0,1-.794.465l-.064-.132c0-.2.264-.529.4-.794l-.861.2-.132-.065h-.064c0-.2.594-.6.726-.661l-.477-.116-.381-.213m-.068,8.53.068-.068a1.6,1.6,0,0,0,2.113,0h.068v.068c0,.329-.926.594-1.123.594a1.863,1.863,0,0,1-1.058-.4l.265.068-.332-.265m.529-20.041.423.174.174.423a.593.593,0,0,1-.6.6.654.654,0,0,1-.661-.6.569.569,0,0,1,.206-.423l.455-.174m-.255,16.063.123.274c0,.2-.2.461-.4.461a.562.562,0,0,1-.465-.461c0-.2.265-.4.465-.4l.274.123m-.01-4.158-.055.155a.585.585,0,0,1-.41.11c-.132,0-.529-.065-.529-.265s.332-.261.465-.261l.313.081.216.181m-.064-3.833-.174.116-.226.016a.715.715,0,0,1-.529-.132l-.064-.132.064-.132.332-.132a.782.782,0,0,1,.532.223l.065.174m0,1.916-.174.148-.226.052a.755.755,0,0,1-.529-.2v.332l-.064-.465.064-.065c.068-.135.265-.135.4-.135a.719.719,0,0,1,.468.171l.065.161m0,2.974-.174.152-.226.048-.529-.132-.064-.132.064-.132.332-.068a.874.874,0,0,1,.532.113l.065.152m-.929-4.1.165-.116.168-.016c.2,0,.6.068.6.265s-.4.2-.465.2l-.465-.068-.132-.2.132-.068m0-3.833.316-.184.413-.081a1.384,1.384,0,0,1,.661.265v-.4l-.4-.132-.529.132c-.265,0-.465-.132-.465-.4a.521.521,0,0,1,.529-.529,1.1,1.1,0,0,1,.994.529l.068-.465c-.265-.661-1.061-.065-1.061-.726,0-.132.2-.265.4-.265a.878.878,0,0,1,.726.529l.132-.265c-.132-.6-.794-.132-.794-.729a.284.284,0,0,1,.264-.265c.332,0,.529.265.729.529l.064-.265c-.132-.4-.529-.265-.529-.594l.132-.2c.332,0,.465.332.6.529.065-.132.132-.132.2-.132l-.064-.529c0-.132.064-.265.2-.265s.2.068.2.265l-.132.465c.132.065.2.065.265.2.068-.2.265-.529.465-.529l.132.068.065.2c0,.2-.4.132-.461.529l.064.332a.767.767,0,0,1,.661-.6c.132,0,.268.2.268.332,0,.329-.6.132-.8.594l.132.332c.2-.265.529-.6.861-.6a.429.429,0,0,1,.332.332c0,.461-.861.132-1.061.661l.068.4a1.143,1.143,0,0,1,.794-.4.6.6,0,0,1,.661.529.371.371,0,0,1-.329.4l-.8-.132-.265.065.068.465a1.4,1.4,0,0,1,.661-.265.793.793,0,0,1,.794.726c0,.265-.132.4-.329.4-.332,0-.529-.4-.929-.4h-.329l-.068.265c.4,0,.994.265.994.594,0,.268-.461.665-.729.665s-.329-.665-.726-.861l-.332.132a.629.629,0,0,1,.332.529.593.593,0,0,1-.594.6.54.54,0,0,1-.529-.6.553.553,0,0,1,.4-.6l-.332-.065c-.529.132-.461.861-.794.861-.264,0-.729-.4-.729-.6,0-.4.729-.661,1.061-.661l-.132-.265h-.265c-.532,0-.6.4-.994.4l-.2-.132a.366.366,0,0,1-.2-.332l.2-.394m0,8.594h.2c.2,0,.6,0,.6.265,0,.135-.268.268-.4.268l-.4-.132a.3.3,0,0,1-.264-.2l.264-.2m0-6.875.313.09c.116.058.216.139.216.239,0,.2-.4.2-.529.2-.2,0-.461-.068-.461-.332l.181-.148.281-.048m0-3.9.181.074.084.126c0,.132-.2.2-.265.265h-.2c-.132,0-.529-.068-.529-.265,0-.168.132-.232.29-.248l.435.048m0-.99.09.074.042.123-.132.265h-.264c-.132,0-.526-.068-.526-.332,0-.129.261-.2.394-.2l.4.068m0-.926.132.2-.132.068-.329.065c-.2,0-.594-.065-.594-.265s.261-.2.394-.2l.265.016.264.116m-.064,15.408-.132.306-.332.155c-.2,0-.394-.265-.394-.461a.424.424,0,0,1,.394-.4l.332.123.132.274m0-16.269-.148.206L200.127,8c-.2,0-.594-.068-.594-.332,0-.132.329-.2.394-.2a.968.968,0,0,1,.532.139l.065.126M199.4,21.428l-.016.39-.116.339c-.068,0-.068-.661-.068-.729s0-.726.068-.726l.116.339.016.387m.106-2.462.09.216a.312.312,0,0,1-.329.329.3.3,0,0,1-.265-.329c0-.132.132-.332.265-.332l.239.116m1.081.084.132.065h-.132c-.2.068-.329.132-.329.332a.674.674,0,0,0,.329.526l.132.068h-.132c-.2.065-.4.2-.4.329a.767.767,0,0,0,.4.6l.068.065h-.068c-.2.068-.529.068-.529.4,0,.2.265.4.4.465-.2.132-.461.265-.461.465a.4.4,0,0,0,.2.4,1.04,1.04,0,0,1,.4-.529l.265-.068.265.132c0,.265-.4.529-.529.661v.132l.2.065c.329,0,.4-.265.461-.461a.648.648,0,0,0,.532.461c.265,0,.4-.2.461-.461,0,.265.2.529.4.529.332,0,.465-.265.529-.529.132.2.265.529.594.529.2,0,.4-.332.4-.529a.778.778,0,0,0,.665.594.684.684,0,0,0,.461-.329c.068.2.2.594.465.594a.49.49,0,0,0,.461-.4c.068.2.2.4.4.4a.437.437,0,0,0,.4-.461c0-.329-.4-.4-.661-.329.132-.265.726-.265.726-.6,0-.461-.4-.4-.726-.4.2-.265.726-.265.726-.661,0-.332-.594-.332-.79-.332.2,0,.726-.329.726-.594,0-.2-.529-.4-.726-.4.2-.132.726-.329.726-.594,0-.332-.2-.4-.465-.4a.64.64,0,0,0,.465-.6c0-.265-.332-.4-.529-.4.132-.132.461-.329.461-.6s-.265-.329-.461-.329a.841.841,0,0,0,.461-.661c0-.2-.461-.329-.594-.4.2-.065.529-.265.529-.529s-.4-.4-.529-.4c.132-.132.529-.329.529-.661,0-.2-.4-.332-.529-.332a.761.761,0,0,0,.4-.594c0-.265-.461-.4-.661-.4a.876.876,0,0,0,.4-.594c0-.265-.4-.332-.529-.4a.642.642,0,0,0,.465-.529c0-.332-.465-.4-.729-.4.2-.132.465-.332.465-.6,0-.2-.465-.329-.661-.4.2-.068.529-.4.529-.594s-.265-.332-.4-.332l.2-.329.529.132A68.239,68.239,0,0,1,207.4,19.115c0,1.652,0,3.439-.132,5.091a21.141,21.141,0,0,0-5.423-.794h-1.258l-1.055.132a27.313,27.313,0,0,0,.394-4.626v-.465A65.589,65.589,0,0,0,198.8,7.143l.926.068-.371.155L199.2,7.5l-.065.174c0,.4.329.465.594.532-.2.065-.529.265-.529.461,0,.265.465.529.726.529-.2.068-.594.265-.594.461,0,.332.465.465.661.532-.132.065-.461.2-.461.4s.394.529.594.529a.729.729,0,0,0-.461.529c0,.265.394.4.594.461-.2.068-.594.2-.594.529,0,.2.394.4.658.461-.2.068-.526.265-.526.465,0,.265.394.529.526.6-.132.065-.4.265-.4.461s.4.4.529.465c-.132.132-.529.329-.529.529s.4.461.6.529c-.2,0-.465.2-.465.394,0,.265.265.465.529.529l.068.068h-.068c-.264.065-.461.132-.461.4l.132.339.329.19h.068l-.068.068c-.2,0-.461.2-.461.329l.158.323.3.274-.064-.529.064-.068.4-.065c.132,0,.532.065.532.265s-.332.2-.4.2a.552.552,0,0,1-.529-.2v.4M198.8,34.39l.026-.206-.026-.255a8.071,8.071,0,0,1,1.784-.068l2.184.332,1.652.4a6.427,6.427,0,0,0,1.92.529h.132a1.7,1.7,0,0,0,1.92-1.852,2.038,2.038,0,0,1,.4.926l-.068.661a3.475,3.475,0,0,0,1.255-2.978,2.1,2.1,0,0,1,.529,1.323,2.546,2.546,0,0,1-.858,1.72l.99-.2.068.065-.584.561a3.49,3.49,0,0,1-2.194.7c-1.455,0-2.646-.661-4.036-1.058a14.019,14.019,0,0,0-3.307-.729l-.329-.065-.777.048-.678.148m.6-16.4-.39.6-.139.655a2.233,2.233,0,0,0,.329,1.123,1.5,1.5,0,0,1-.461-1.187,1.363,1.363,0,0,1,.361-.958l.3-.232m.065-3.771-.084.239-.181.094-.329-.132a2.522,2.522,0,0,0,.594,1.19,1.616,1.616,0,0,1-.794-1.39,1.312,1.312,0,0,1,.465-1.058,1.712,1.712,0,0,0-.265.994c0-.135.132-.2.329-.2l.158.084.106.181m-.868,9.614.274-.09a.331.331,0,0,1,0,.661.369.369,0,0,1-.4-.332l.123-.239M198.672,8.8l.181.09.084.242a.284.284,0,0,1-.265.265.3.3,0,0,1-.329-.265l.09-.242.239-.09m-.065,14.482.206.084.058.181v.068l-.068-.068c-.2,0-.4.132-.4.265l-.132-.265.09-.181.242-.084m.045-.832.416-.158a2.347,2.347,0,0,0-.99,1.784l-.068-.594a1.123,1.123,0,0,1,.306-.768l.335-.265m-.177,8.275-.465.3a1.282,1.282,0,0,1,1.258-1.126,1.677,1.677,0,0,1,1.319.794,1.417,1.417,0,0,1,.2.794,1.942,1.942,0,0,1-.2.929,4.263,4.263,0,0,1-.858,1.255l-.926.2a.807.807,0,0,0-.4-.661c.729-.2,1.587-.526,1.587-1.323a1.138,1.138,0,0,0-1.058-1.255l-.461.1m.2-20.4-.571-.6a1.519,1.519,0,0,1-.223-.794,1.471,1.471,0,0,1,.4-.994,1.5,1.5,0,0,1-.2-.726v-.2a1.571,1.571,0,0,1,.329.861l-.065.2L198.275,8a1.574,1.574,0,0,0-.2.794,2.392,2.392,0,0,0,.332,1.219l.261.3m-.132,6.214-.139.613-.39.513a1.734,1.734,0,0,0,.332-1.126,2.092,2.092,0,0,0-.465-1.255l.481.529.181.726m-.445-5.023.181.726a1.65,1.65,0,0,1-.529,1.19,1.916,1.916,0,0,0,.332-1.19,1.75,1.75,0,0,0-.465-1.255l.481.529m-.216,4.694.181.09.084.239c0,.132-.132.332-.265.332-.2,0-.265-.2-.265-.332l.058-.213.206-.116m-.2,1.258.116.313.016.413c0,.068,0,.661-.132.661l-.132-.661.132-.726m.068,6.61.3.084.1.181c0,.265-.132.332-.4.332a.311.311,0,0,1-.332-.332l.116-.181.216-.084m-.332,10.714.174-.552a.481.481,0,0,1,.423-.306.56.56,0,0,1,.465.265,1.064,1.064,0,0,1-.481.371l-.581.223m.265-20.234-.042.387-.09.339c-.132,0-.2-.661-.2-.726s.065-.729.2-.729l.09.339.042.39m.174,5.817.158.729a1.808,1.808,0,0,1-.465,1.19,2.043,2.043,0,0,0,.332-1.19,1.818,1.818,0,0,0-.529-1.258l.3.236.206.294m0-8.349.09.216a.355.355,0,0,1-.329.332.429.429,0,0,1-.332-.332.425.425,0,0,1,.332-.329l.239.113m-.174,9.078-.058.216-.206.113c-.132,0-.265-.2-.265-.329a.3.3,0,0,1,.265-.332l.206.094.058.239m.5-10.5.523.594a1.371,1.371,0,0,1,.239.777c0,.861-.594,1.52-.594,2.249,0,.861.858,1.455.858,2.381,0,1.058-1.058,1.587-1.058,2.581,0,.726.6,1.319.6,2.113,0,.861-.994,1.458-1.458,2.116.265-.594,1.126-1.52,1.126-2.049,0-.794-.529-1.39-.529-2.181,0-1.126.994-1.655.994-2.581,0-.858-.861-1.387-.861-2.381,0-.794.6-1.387.6-2.181,0-1.19-1.523-1.258-1.523-2.91,0-.6.461-1.058.329-1.59a.6.6,0,0,1,.2.465c0,.4-.2.729-.2,1.126a1.558,1.558,0,0,0,.239.852l.523.619m-1.29,16.911.068-.2a1.824,1.824,0,0,0,1.058-1.984,10.491,10.491,0,0,0,2.578.661l1.655.132v.132a1.274,1.274,0,0,0-.926,1.19.352.352,0,0,0-.2.265c0,.4.729.726.994.726,0,.2.068.4.265.4.265,0,.332-.2.332-.4.329,0,1.055-.329,1.055-.726a.284.284,0,0,0-.265-.265,1.264,1.264,0,0,0-.99-1.19V26.19a14.771,14.771,0,0,0,2.449,0v.132l-.181,1.045c-.336,1.094-1.045,2.3-1.342,3.387l-.265-.132c-.4,0-.661.529-.661.858l.2.4c-.529.132-1.19.665-1.19,1.258,0,.329.265.461.461.594l-1.391-.065h-.661l.661-.729a2.3,2.3,0,0,0,.529-1.455,1.836,1.836,0,0,0-.529-1.387,1.95,1.95,0,0,0-1.319-.529c-.994,0-1.326.726-1.326,1.587v.329a1.066,1.066,0,0,1,.929-.529.766.766,0,0,1,.794.794c0,.665-.794,1.126-1.258,1.323V33c0-.4-.794-.594-1.126-.661a6.956,6.956,0,0,1-.461-2.845l-.016-.99.081-.994m0-19.308-.065.265a1.448,1.448,0,0,1-.265-.861v-.2l.239.4.09.4m0,14.811.068.2c0,.2-.132,1.058-.332,1.058-.129,0-.129-.132-.129-.2a2.814,2.814,0,0,1,.248-.919l.145-.139m.074,1.439.126.216a.374.374,0,0,1-.4.332.314.314,0,0,1-.329-.332.355.355,0,0,1,.329-.332l.271.116m-1.2,10.73.232-.371a.606.606,0,0,1,.429-.223,2.279,2.279,0,0,1,.726.329l-1.387.265m-.794-21.028-.032-.216-.232-.116-.068.065.135.465-.135.6.242-.348m.487-6.8-.329-.132-.665-1.123.4.2m-.532,27.712h-.2l.065-.529c1.061,0,2.778-.132,3.307-1.255.2.065.6.2.6.394,0,.845-1.71,1.2-2.874,1.329l-.9.061m.068-21.163-.058-.339c-.042-.106-.11-.19-.207-.19l-.132.068-.068.065c0,.132.265.265.265.529a5.4,5.4,0,0,1-.265.994l.332-.513.132-.613M194.123,35.3l-.345-.116c.132-.4.265-.4.726-.4a.776.776,0,0,1,.729.529h-.661l-.448-.016M194.5,7.607l-.529-.132-.858-1.058.726.065m-1.4-.955.1.216-.019.213-.132.065a.546.546,0,0,1-.465-.661l.132-.065.2.068.177.165m-.513,1.023.729-.132.79.99-.658.068m-.926.2L191,6.878l.529-.265.861.926m-2.12-.265.4-.265.8.861-.4.2m-.423-3.052.29-.058a.863.863,0,0,1,.861.729.809.809,0,0,1-.861.726.748.748,0,0,1-.794-.726.7.7,0,0,1,.248-.513l.255-.158m.4,13.066.707-.436a4.244,4.244,0,0,0,1.036-1.249,5.649,5.649,0,0,0-.729.6,6.7,6.7,0,0,1-1.92,1.058l-.065-.329.132-.465c.926-.465,1.587-2.049,2.052-1.984h.132a3.992,3.992,0,0,1,1.784,2.249c.4-.794,1.19-.994,1.455-1.916a13.726,13.726,0,0,0,.6-2.845l.923-1.323.132,3.7v.332l-.855,1.31a12.838,12.838,0,0,1-3.31,3.449,5.638,5.638,0,0,1-2.449.994c-.265,0-.594-.068-.594-.4a.973.973,0,0,1,.265-.529,3.577,3.577,0,0,0,3.439-2.445,5.055,5.055,0,0,1-3.439,2.113h-.068v-.132a.8.8,0,0,1,.2-.594c1.39-.132,2.513-.461,3.042-1.784-.4.794-2.381,1.387-3.242,1.587a.444.444,0,0,1-.265-.332.669.669,0,0,1,.265-.461l.774-.171m-.707-9.553-.661-.729.265-.265.794.729m-.265-3.5-.158.206-.306.058c-.129,0-.461-.068-.461-.265s.332-.268.461-.268l.306.058.158.21m-1.058,3.307.726.726c-.2.132-.329.332-.526.4l-.529-.794.329-.329m-.064-1.984.513.148a.542.542,0,0,1,.213.445.672.672,0,0,1-.726.594.651.651,0,0,1-.661-.594.546.546,0,0,1,.206-.445l.455-.148m-.068,3.439-.529.329L188.422,8.8a.446.446,0,0,0,.329-.2l.529.926m-.926,25,.052-.455-.052-.4a4.042,4.042,0,0,0,2.778,1.387c.6,0,1.587-.2,1.587-1.058a1.261,1.261,0,0,0-.265-.794c.6,0,1.323.265,1.323.994,0,1.19-1.387,1.72-2.381,1.72a3.542,3.542,0,0,1-2.342-.839l-.7-.552m.265-27.138.145.142.055.213a.6.6,0,0,1-1.194,0c0-.332.332-.465.6-.465l.4.11m-.2,2.6-.465.265-.4-1.058.461-.2m-.4-4.233.371.052c.384.1.755.345.755.742,0,.529-.661.79-1.126.79-.4,0-1.055-.261-1.055-.79a.808.808,0,0,1,.723-.752l.332-.042m0,5.555-.726.065-.329-1.058.658-.132m.265-.726-.045.21a.515.515,0,0,1-.484.252.448.448,0,0,1-.461-.461c0-.2.265-.4.461-.4l.365.123.164.274m-.223,22.767-.768-.216a.807.807,0,0,1,1.587.2v.132l-.819-.113m-.916-26.486-.181-.184c0-.2.329-.332.461-.332s.4.132.4.332c0,.132-.265.265-.4.265l-.281-.081m-.181,26.6.923.216.926.116c.332,0,.8-.068.8-.465a2.506,2.506,0,0,0-.265-.858.447.447,0,0,0,.265-.465,1.4,1.4,0,0,0-.2-.79h-.461l.152-.613c.477-1.245,1.758-1.274,3.087-1.507l.794-.2c.332,1.652.068,4.826.861,6.217h-.2a2.5,2.5,0,0,0-.99.132c.4.132.726.329.726.726,0,.661-.99.861-1.455.861-1.323,0-2.049-.926-2.974-1.72a2.616,2.616,0,0,0-1.655-1.455l-.329-.2m.065-19.376-.132-.065.132-.132.2.132m-.729,23.673.581-.3a.647.647,0,0,0,.281-.5.607.607,0,0,0-.265-.529A1.213,1.213,0,0,0,187.164,33a1.533,1.533,0,0,0-.265-.926,2.449,2.449,0,0,1,1.19,2.116c0,.942-.784,1.213-1.59,1.319l-.79.068m.794-25.128h-.661l-.265-.926.6-.132m-.729,2.513.148-.232a2.462,2.462,0,0,1,.91-.232l-1.058.465m.661-5.82v.2c-.064.4.4.726.794.726a1.184,1.184,0,0,0,.594-.265c.068.529-.594.926-1.055.926s-1.058-.329-1.058-.794a.754.754,0,0,1,.213-.519l.513-.271m-.132,2.842-.148.206-.248.058c-.2,0-.461-.065-.461-.265s.265-.329.461-.329l.248.09.148.239m.087-3.858.045.223a.51.51,0,0,1-.529.461c-.265,0-.594-.2-.594-.461a.576.576,0,0,1,.594-.529l.365.142.119.165m.177,7.3.29-.132.042-.329c.394-.132.726-.4.658-.794v-.068c-.2.332-.658.2-.99.2-.529,0-1.255.4-1.255,1.058l.2-.132.332.132.265-.068.461.132m-.99-2.778.2.926-.594.068-.268-.929m0,12.243-.064-.4.332.661m-.4,8.265.135-.248a.888.888,0,0,1,.726-.281.7.7,0,0,1,.794.794v.265l-1.655-.529m-.132-2.842.3-.674c1.668-3.162,5.846-3.242,5.723-5.41l.529.065a5.872,5.872,0,0,0,2.91-1.323,11.518,11.518,0,0,0,3.5-4.694,35.2,35.2,0,0,1-1.584,10.12,10.375,10.375,0,0,1,4.891-1.126h.529l1.126.065-.265,1.126-1.391-.065-2.578-.4L197.943,25v.329c0,.465-.594,1.72-1.255,1.784l-.068.132a3.252,3.252,0,0,1-1.187.529,6.825,6.825,0,0,0,1.123-.2l-.065.594-1.19.4,1.19-.132-.068.4a2.4,2.4,0,0,1-1.058.465l1.126-.065v.329a5.035,5.035,0,0,1-1.126.461l1.126-.132v.332a2.216,2.216,0,0,1-1.126.529h.2a2.648,2.648,0,0,0,.99-.2l.065.265a2.739,2.739,0,0,1-1.255.6,2.978,2.978,0,0,0,1.323-.265,10.781,10.781,0,0,0,.594,1.258c-.661.99-2.245,1.187-3.307,1.187a1.014,1.014,0,0,0-.858-.594c-.794-2.316-.064-4.829-.926-7.407a12.113,12.113,0,0,1-.794-2.91v.2a11.125,11.125,0,0,0,.6,3.242l-.132.065a1.556,1.556,0,0,1-.465-.923V25.4a1.731,1.731,0,0,0,.332,1.123l-.265.2a1.885,1.885,0,0,1-.729-1.319v.329a2.057,2.057,0,0,0,.4,1.058h-.265l-.368-.255a1.678,1.678,0,0,1-.558-1.2v.2a1.9,1.9,0,0,0,.461,1.319,2.755,2.755,0,0,0-1.255.332,1.615,1.615,0,0,1-.794-1.387l-.065.265a1.887,1.887,0,0,0,.594,1.255l-.2.132c-.6-.132-.861-.861-.994-1.387a2,2,0,0,0,.729,1.584,2.2,2.2,0,0,0-.4,1.458,6.667,6.667,0,0,1-2.949-.829l-.755-.694m-.1-21.725.365-.1a.4.4,0,1,1,0,.794c-.265,0-.529-.132-.529-.4l.165-.3m.1,3.01.206.09.058.239c0,.068-.064.2-.265.2a.294.294,0,0,1-.265-.2l.084-.239.181-.09m.265-1.523-.064.2c0,.465.4.6.794.6l.4-.065c-.064.4-.529.529-.858.529s-.929-.132-.929-.6a.542.542,0,0,1,.206-.406l.455-.255m-.232,20.773.471.358a6.3,6.3,0,0,0,3.6.958l.064.4c0,.265-.132.265-.4.265-1.19,0-3.968-.794-4.3-2.052,0-.132.068-.329.2-.329l.361.4m-.165-18.392.265.926-.661.132-.2-.861m.594-2.842-.1.239-.3.09c-.132,0-.4-.132-.4-.329s.265-.332.4-.332l.3.09.1.242m-1.1,2.174.239-.058a.243.243,0,0,1,.265.265.284.284,0,0,1-.265.265A.3.3,0,0,1,183,9.459l.09-.206m-.158,8.8h-.065l.2-.065m-.2,11.44.248-.348.345-.248a1.01,1.01,0,0,1,.661.861l-.132.529-.613-.348-.51-.445m.264-21.892.181.084.081.181a.242.242,0,0,1-.261.268C183,8.072,182.8,8,182.8,7.8l.116-.181.216-.084m-.132,4.1-.2-.132a.213.213,0,0,1,.2-.2c.064,0,.132.068.132.2l-.132.132m.2-1.655.2.861-.526.2-.2-.794m-.058-1.91.058.126c0,.2-.064.329-.265.329a.3.3,0,0,1-.265-.329.294.294,0,0,1,.265-.2l.206.074m-.032,1.242.09.2c0,.2-.132.268-.329.268a.244.244,0,0,1-.265-.268.241.241,0,0,1,.265-.261l.239.058m-.042,1.594-.461.2-.2-.729.4-.265M181.676,9l.239.048.09.148a.312.312,0,0,1-.329.332.305.305,0,0,1-.268-.332l.084-.148L181.676,9m-.019,3.023.084.152c0,.132-.132.132-.265.132-.068,0-.132,0-.132-.132s.064-.2.132-.2l.181.048m.084-.445-.323.142-.274.19-.064-.794.465-.332m.065-.461-.084.181-.181.084a.3.3,0,0,1-.332-.265.313.313,0,0,1,.332-.332l.181.09.084.242m-.994,1.984-.2-.2c.064-.329.064-.529.329-.661l.068.661-.2.2M180.292,32.8l.126-.323.4-.2a7.063,7.063,0,0,1,3.439-1.126c1.058,0,2.578.4,2.578,1.72a1.183,1.183,0,0,1-1.187,1.19,3.568,3.568,0,0,1-1.061-.265,1.068,1.068,0,0,0,.994-.994c0-.794-.926-.926-1.523-.926a5.834,5.834,0,0,0-3.239.994l-.661.4-.132-.2.271-.271m-.074-19.305-.526-.065a2.482,2.482,0,0,1,.594-.926l-.068.99m-.132,2.778-.726-.065a22.288,22.288,0,0,0,.926-2.249l.2.065a.307.307,0,0,0,.332-.2V13.03l-.2-.661.2-.065.461-.332-.064.332c0,.2.264.4.465.4a.432.432,0,0,0,.064-.861l1.058-.461-.064.132a.439.439,0,0,0,.4.461c.261,0,.394-.2.394-.461l-.261-.332c1.784-.529,3.9-.265,5.291-.926,2.113-.99,1.784-2.316,4.826-2.581l.065.2a.307.307,0,0,1-.2.332,5.183,5.183,0,0,1,1.455-.132,2.307,2.307,0,0,1,2.249,2.181l-.068.729a1.668,1.668,0,0,0-.858-.661c-.065-.861-.594-1.92-1.587-1.92-1.916,0-.729,2.052-2.313,3.242.529-.132.926-.994,1.058-1.523a1.541,1.541,0,0,1,.99.926,1.566,1.566,0,0,0-.861-1.323l.132-.329a4.24,4.24,0,0,1,1.126,1.058,4.675,4.675,0,0,0-.794-1.323l.329-.2a3.326,3.326,0,0,1,.861,1.058,5.574,5.574,0,0,0-.465-1.123s1.326.79,1.326,1.652a.991.991,0,0,1,.923.661,3.521,3.521,0,0,1-.858,1.455V12.7a10.99,10.99,0,0,1-.529,2.645c-.265.794-.926,1.255-1.126,1.981-.661-2.642-2.774-1.916-2.774-4.826a5.02,5.02,0,0,1,.2-1.387,4.58,4.58,0,0,0-.529,1.849,2.893,2.893,0,0,0,.465,1.458,3.243,3.243,0,0,1-.729,1.849l.065-.526v-.332l-.265,1.123c-.2.132-.329.332-.594.4l.2-.794-.461.923-.4.2.132-.729a1.945,1.945,0,0,1-.4.729l-.329.065.065-.461V16.6a1.35,1.35,0,0,1-.265.726l-.4.068.132-.794-.332.794-.329-.068.2-.794-.4.794-.4-.065a3.339,3.339,0,0,0,.2-.861,2.087,2.087,0,0,1-.4.861h-.529a3.172,3.172,0,0,0,.329-1.123,2.061,2.061,0,0,1-.594,1.123h-.2a3.5,3.5,0,0,0-2.252,1.258c0-.465,1.326-1.787,1.326-3.175l-.068-.4a9.258,9.258,0,0,1-4.1,1.255l-.729.065m-1.255,1.194.99.281.994.181,1.852.132v.132l-.858,1.126a1.469,1.469,0,0,1-.729-.332,1.332,1.332,0,0,0,.6.465l-.2.329a1.115,1.115,0,0,1-.661-.2l.529.4-.2.265-.329-.132-.4-.132.4.265.265.132-.132.4h-.132a.87.87,0,0,1-.661-.2,1.39,1.39,0,0,0,.661.4h.064l-.064.329v-.2l-.068.265a1.179,1.179,0,0,1-.661-.265,1.517,1.517,0,0,0,.661.461v.2a1.556,1.556,0,0,1-.79,0,1.3,1.3,0,0,0,.726.132v.265l.065.529a2.279,2.279,0,0,1-.726.2h.265a.576.576,0,0,0,.461-.065l.068.132.132.2-.529.529c.132-.065.329-.132.4-.265l.265-.132.329.132a1.457,1.457,0,0,1-.461.6,1.183,1.183,0,0,0,.6-.529l.265.065.594-.132a.444.444,0,0,1,.265.332l-.064-.4.132-.068.265.265-.132-.4.132-.065.132.329-.068-.329.726-.594a.362.362,0,0,0,.2.265l-.2-.465c0-.2.132-1.058.332-1.126l.2.2c.068.661.4,1.19,1.126,1.19.132,0,.6,0,.6.132-.068.726-1.855,1.123-2.449,1.255h.529a3.263,3.263,0,0,1-2.645,1.523l-.661-.132c-2.049-.465-2.645-2.449-2.645-4.433l.207-1.742.455-1.694m-.181-1.116.7.174.8.081h.661a10.187,10.187,0,0,0,3.371-.858l.2.461c0,.529-.6,1.058-.794,1.455h-.461L183,17.327v.332h-.4l-.132-.4-.068.4h-.661l-.132-.4-.065.4h-.4l-.132-.465v.4h-.2l-.332-.068a.8.8,0,0,1-.132-.529.747.747,0,0,0,0,.529l-.394-.132a.755.755,0,0,1-.2-.529.568.568,0,0,0,0,.461c-.461-.065-2.116-.726-2.184-1.187l.5.042.581.165m.439,17.344.271-.219.132-.271a8.89,8.89,0,0,1-2.91.994h.265a6.777,6.777,0,0,0,1.445-.2l.8-.3m-.819.832-.629.068a4.155,4.155,0,0,1-1.984-.465,5.41,5.41,0,0,0,3.968-2.513,1.109,1.109,0,0,1,.594.861.824.824,0,0,1-.261.529c-.068-.132-.265-.2-.4-.265a.73.73,0,0,1,.329.661c0,.429-.4.726-.878.916l-.742.206m.365-3.5-.8.91a3.947,3.947,0,0,1-2.51,1.471l.2.065a4.147,4.147,0,0,0,3-2.016l.11-.429m-3.7,3.042v-.332a2.214,2.214,0,0,0,.4-.661c1.52-.265,2.975-2.513,2.774-3.965.268.2.8.923.729,1.319a3.317,3.317,0,0,0,1.126-.661,4.416,4.416,0,0,1-2.316,3.375l-1.332.513-1.378.413m.329-10.649-.845.471-.742.523a1.114,1.114,0,0,0-.265-.729,4.677,4.677,0,0,1,1.323-.265h.529m-.548-1.4-.542.458a3.285,3.285,0,0,0-.761,1.142l-.4-.465a10.091,10.091,0,0,1,1.19-1.187,7.2,7.2,0,0,0-1.323,1.055l.265-.726a2.967,2.967,0,0,1,1.787-.661h.4l-.616.384m-.126-3.087-.755,1.265a23.684,23.684,0,0,0-1.149,2.694l-.332-.2a16.9,16.9,0,0,1,.926-2.184,12.431,12.431,0,0,0-1.123,2.052l-.332-.132.861-2.249s1.652-2.116,2.842-2.381l-.939,1.132M171.356,25l.284.355.381.306.265-.265-.49-.152m-.7-1.371.861.265-.265.265m-.661-13.756.065-.2.332.2M171.408,25.6l-.381-.271c.065.265.4.465.661.661l.2-.265-.481-.126m-.381,2.042.861-.926a7.754,7.754,0,0,1,1.784-.2,2.793,2.793,0,0,1,1.655.4h-.265a5.03,5.03,0,0,0-3.175,1.123l-.432-.245-.429-.152m-.132,6.02.132-.729a3.7,3.7,0,0,0,1.523.465c1.123,0,1.716-.99,2.181-1.852a1.776,1.776,0,0,1,.2.994,1.32,1.32,0,0,1-.465,1.055,1.511,1.511,0,0,1,.2.729l-.064.577-.206.374-.084-.458a1.769,1.769,0,0,0-1.265-.8l-2.149-.355m1.052-10.82.668.4a1.686,1.686,0,0,1,.729,1.158.51.51,0,0,1-.529.461,1.88,1.88,0,0,1-.794-.265l.726-.858h-.4a1.516,1.516,0,0,1-1.523-.794c.068-.265.265-.265.465-.265l.655.158m-.59-11.069L171,11.724l-.307-.148.068-.2a.921.921,0,0,1,.994-.265l.2-.332-.465-.594a1.522,1.522,0,0,1,.8-.4,1.638,1.638,0,0,1,.265.8,1.186,1.186,0,0,1-.726,1.1l-.468.094m-.661,8.2V17.792a29.161,29.161,0,0,1,2.978-4.959,34.044,34.044,0,0,0-2.978,4.362V15.94c1.126-1.784,2.778-4.165,4.83-4.894a27.847,27.847,0,0,0-3.971,6.436l-.858,2.491m0,1.987V20.834a23.11,23.11,0,0,1,1.787-3.639,8.055,8.055,0,0,1,3.242-3.239,36.386,36.386,0,0,0-4.1,8.4l-.268-.068-.529.132a47.493,47.493,0,0,1,2.978-6.084L172.176,19.1l-1.481,2.862m.794,4.165-.794-.4.6.661m-.613-16.715.678-.281-.265-.332a1.52,1.52,0,0,0-.794,1.19l.145-.339.235-.239M170.3,26.061l.258.355.4.3.265-.265-.487-.171m.223-17.353-.265-.329a1.688,1.688,0,0,0-.79,1.187,1.041,1.041,0,0,1,.377-.552l.678-.306m-.4-.461-.2-.332a1.474,1.474,0,0,0-.794,1.19.83.83,0,0,1,.348-.552l.642-.306m-1.016-.132L170.166,8l-.2-.265a1.52,1.52,0,0,0-.794,1.126l.371-.529m.226-.8-.2-.265a1.52,1.52,0,0,0-.794,1.194,1.224,1.224,0,0,1,.371-.587l.623-.342m-.332-.461-.265-.2A1.327,1.327,0,0,0,168.382,8a1.078,1.078,0,0,1,.381-.561l.677-.365m-1.19,23.544-.187-.448a1.272,1.272,0,0,0-1.071-.807l-.2.065c.048.148.619.445,1.068.81l.387.381m-.332-6.078-.387.294-.274.361-.726.068a4.655,4.655,0,0,0,.858-1.126l.661-.132.729.132-.861.4m-1.323,5.781.41.3.384.39c-.064-.4-.461-1.19-.923-1.19H166l.594.5M165.339,18.85l.571-.084.619.019a.574.574,0,0,0,.461,0l.068.132-1.72-.068m1.19-12.169-.132-.132L165.01,7.607l.132.132m-.332,19.047.784-.581.739-.674.923-.068a3.1,3.1,0,0,1,2.252.726l-.994-.129a7.939,7.939,0,0,0-1.878.265l-1.826.461m1.5-21.583-.181-.11a22.453,22.453,0,0,0-1.72,1.784l.065.132c.132-.132,1.92-1.387,1.92-1.652l-.084-.155m-2.232,25.615h-.064c0,.265.594.465.794.6l.529.594a1.345,1.345,0,0,0-.81-1.116l-.448-.074m.465-18.053.2-.636a.658.658,0,0,1,.6-.29l.264.068a2.189,2.189,0,0,0-.529,1.319,1.38,1.38,0,0,0-1.058.729.755.755,0,0,1-.2-.529.511.511,0,0,1,.265-.429l.465-.232m-.729,7.275.068-.132.329.065a.737.737,0,0,0,.661-.79c.068-.132.2-.132.4-.132h1.784v.526L166,19.644l.99.2v.2h-3.175m.994-15.079-.2-.065-.99,1.123.2.132m.4,6.02-.1.3-.3.158c-.2,0-.394-.265-.394-.461a.443.443,0,0,1,.394-.465l.3.132.1.332m.2,20.17-.132-.41a1.306,1.306,0,0,0-1.058-.781h-.2l.594.494.794.7m.994-30.355-.052-.158-.148-.106c-.264,0-2.249,3.636-2.381,3.836l.132.065,1.249-1.816,1.2-1.82m-3.375,19.441.068-.2a3.536,3.536,0,0,0,1.52-.994h3.371l-.132.529-1.123.132,1.123.132-.129.4h-4.7M162.762,3.7l-.132-.132-.729,1.39.265.132m2.462,29.625.913-.129a3.669,3.669,0,0,0-1.855-.465l-1.055.068c.065.726-.661,1.19-1.194,1.52l2.078-.687,1.113-.306m-1.932-8.794-.99.135.661.065-.6.265a3.112,3.112,0,0,0-.465-.794h2.184l-.794.329m-1.587-21.16V4.7l.729-1.655c0-.2-.2-.261-.332-.261-.2,0-.4,1.055-.4,1.187l-.2.729.2.068m-.4,17.921v-.461c.064-.2.132-.332.4-.332l.132.068c.132-.465.661-.2.729-.4h4.694l-.132.332-1.19.2,1.126.132-.264.461H160.71m-.068,5.355h-.064a1.085,1.085,0,0,0,.132-.661l-.068-.4.465-.065a7.917,7.917,0,0,0,6.281-7.6c0-1.39-.923-5.026-2.778-5.026l-.4.132a1.274,1.274,0,0,1,1.194-.929c0-.79.132-1.387,1.058-1.716l-.068.529c0,2.381,1.984,3.439,1.984,7.01a8.743,8.743,0,0,1-7.275,8.662l-.465.065m5.491-5.223-.265.461-1.258.132,1.061.132-.332.465h-4.762l-.068-.2c0-.132.265-.265.265-.594v-.4h5.359m-5.226,9.011-.2-.294-.326-.119a3,3,0,0,1,.529,1.984,1.954,1.954,0,0,0,.132-.858l-.132-.713m-.4-5.175-.2-.2.2-.594.265-.461.332.329a1.332,1.332,0,0,1,.4.726l-.4.068-.6.132m-.2-23.676h-.265l-.132,1.455.2.065m.261,22.883-.206.587a.626.626,0,0,1-.452.339c-.132,0-.132-.132-.2-.2a1.463,1.463,0,0,0,.332-.794,1.708,1.708,0,0,0-.265-.661h.2a.537.537,0,0,1,.445.239l.148.487M159.387,0l-.206.09-.058.242.132,4.233h.265L159.587.4l-.026-.271m-.032,14.111.058.116c0,.132-.068.2-.332.2a.175.175,0,0,1-.2-.2c0-.132.132-.132.264-.132l.206.016M159.4,31.945l-.148-.465a2.347,2.347,0,0,0-.2.929,8.98,8.98,0,0,0,.2,1.387,8.6,8.6,0,0,0,.2-1.387l-.052-.465m.223-17.269.158.206c-.065.2-.2.2-.529.2-.4,0-.461-.132-.4-.265.068-.2.2-.2.465-.2l.3.058M159.313,27.9l-.213.239-.242.1-.265-.132a.994.994,0,0,0,.265-.729l-.065-.461c0-.132.132-.2.265-.2.264,0,.461.4.461.6l-.206.587M158.4,15.411l.187-.171a3.9,3.9,0,0,1,1.068-.026c.2,0,.465.065.529.2,0,.265-.065.265-.265.265a4.468,4.468,0,0,1-1.3-.084l-.219-.181m0-12.433h-.268L158.4,4.5l.2-.065m.661,11.375.926-.065a.489.489,0,0,1,.4.4.35.35,0,0,1-.4.394H158.4c-.2,0-.332,0-.332-.329,0-.265.132-.461.4-.461l.794.065m-.794,10.846-.729-.132h.994m-1.258,6.02.132.858v-.068a2.71,2.71,0,0,1,.465-1.916c-.232,0-.381.181-.474.413l-.123.713m.261-15.637.532-.239a10.945,10.945,0,0,0,2.116,0,1.1,1.1,0,0,1,.729.465,1.653,1.653,0,0,1,.2.861l-.2,1.058a5.054,5.054,0,0,1-.99,1.319c-.529.661-.529,1.92-.926,2.252a1.516,1.516,0,0,1-.2-.729c0-1.323.994-1.984.994-2.842,0-.132,0-.465-.2-.465a.175.175,0,0,0-.2.2l.065.461c0,.858-1.123,1.852-.794,3.375a1.245,1.245,0,0,1-.461-.729c-.2-.529-.135-1.258-.4-1.655a3.777,3.777,0,0,1-.99-1.981,1.535,1.535,0,0,1,.329-1.019l.394-.332m-.235-.061-.429.355a1.844,1.844,0,0,0-.323,1.19c0,1.319.99,1.584,1.19,2.51.132.6.265,1.59.926,1.787l.265.329c.794-.526.729-1.72,1.587-2.645l.4-.594a2.685,2.685,0,0,0,.4-1.652,1.8,1.8,0,0,0-.4-1.258,1.6,1.6,0,0,0-.6-.265.516.516,0,0,0,.2-.461c0-.265-.265-.4-.465-.465l.068-.265c0-.2-.329-.329-.529-.329l.132-.2a.284.284,0,0,0-.265-.265l.068-.2a.445.445,0,0,0-.465-.4c-.265,0-.461.2-.329.6-.132,0-.2.132-.2.265l.068.2c-.2.065-.4.065-.465.265v.065l.068.265c-.332.068-.465.2-.465.529a.4.4,0,0,0,.2.4l-.636.242m-.165-13.153-.213-.629-.242-.281c-.132,0-.2.132-.2.261l.726,1.723.132-.068-.206-1.007m-1.513-.119-.132.132.6,1.39.2-.132m.032,6.172.884-.245a9.383,9.383,0,0,1,1.861-.171,16.873,16.873,0,0,1,1.852,0,7.42,7.42,0,0,1,2.316.794.811.811,0,0,0-.332.661l.068.329a5.623,5.623,0,0,0-2.052-.594l-1.852-.2a6.973,6.973,0,0,0-3.307.794l.068-.329a.811.811,0,0,0-.332-.661l.826-.377m-.361,14.727-.465-.265h2.91a.56.56,0,0,0,.465.132c.529,0,.065-.594.926-.461,0-1.061.726-.2.658-1.061h4.5l-.4.4-1.32.132,1.055.2-.726.465h-2.645v-.068L160.642,25l-.594,1.319c-.858.068-1.92,0-2.778,0l-.529-.2.726-.065-1.319-.2m-.465-13.688-.123.3-.274.158a.437.437,0,0,1-.4-.461c0-.265.132-.465.4-.465l.274.132.123.332m-1.39-3.639.926-1.19a5.619,5.619,0,0,1,4.036-1.784,5.788,5.788,0,0,1,1.852.329,6.321,6.321,0,0,1,3.107,2.91,22.892,22.892,0,0,1-3.107.4h-1.852a18.131,18.131,0,0,1-3.749-.336l-1.213-.326m.6,23.112.6-.494h-.2a1.4,1.4,0,0,0-1.19,1.19l.794-.7m-.465-7.043-.255-.171-.206-.226h3.768c.068.132.332.4.332.6a.577.577,0,0,0,.332.6h-3.042l-.665-.465.929-.132-1.194-.2M153.832,4.9l-.2.065.994,1.19.2-.132m-.329,6.746.555.232a.5.5,0,0,1,.306.429.82.82,0,0,1-.265.529,1.391,1.391,0,0,0-1.061-.729,2.166,2.166,0,0,0-.526-1.319l.261-.068a.654.654,0,0,1,.7.587l.029.339m0,18.053h-.068a1.354,1.354,0,0,0-1.32,1.19c.2-.2.329-.461.594-.594l.7-.41.1-.187m-.016-27.254L153.7,2.294l-.465-.571a.352.352,0,0,0-.2.265c0,.2,2.249,3.307,2.449,3.636l.132-.065-1.142-1.994m2.462,19.253.132.265v.132l-.132.065.729.729h-3.836l-.4-.465,1.058-.132-1.255-.132c-.068-.2-.2-.265-.2-.461h3.9m-1.916,12.208,2.049.687c-.526-.329-1.255-.794-1.187-1.52l-1.061-.068a3.482,3.482,0,0,0-1.849.465l.919.129,1.129.306m1.6-12.9.248.561h-3.968l-.265-.461.99-.132-1.055-.2-.132-.332h3.836m-4.036-4.1.332-.81c.416-.919,1.074-2.036,1.916-2.036.329,0,.529.265.861.4l-.132-.726a1.036,1.036,0,0,0,.461-.861l-.132-.332a6.707,6.707,0,0,1,3.7-1.055l1.852.2a8.136,8.136,0,0,1,2.445.794l-.129.4a1.036,1.036,0,0,0,.461.861l-.068.726c.265-.132.465-.4.794-.4,1.39,0,2.249,2.845,2.381,3.9l-.132.065a.442.442,0,0,1-.394-.265v.265l-.661.068-.4-.068-.2.265h-.132a.6.6,0,0,0-.529.265l.064.132a.575.575,0,0,1-.4.461l-.329-.065-.794.726a4.862,4.862,0,0,1-1.123.661c-.132.068-.132.2-.2.4-.265.068-.529.068-.661.268-.4-.068-.529.2-.729.529a2.4,2.4,0,0,1,.2.99c0,.2-.265.265-.265.594v.6l-.4.174a.572.572,0,0,0-.2.423c-.529,0-.4.2-.6.461l-.065.068a.972.972,0,0,1-.465-.2.6.6,0,0,1-.265-.529c0-.4-.729-1.258-1.058-1.523l.065-.2c0-.4-.658-1.255-.858-1.587v-.265c0-.465-.329-.994-.329-1.523,0-.132.2-.2.265-.261-.2-.265-.2-.994-.4-.994s-.2.332-.265.4c0,.265-.4.332-.6.332a1.141,1.141,0,0,1-.994-.6c.265,0,.729,0,.729-.329a.178.178,0,0,0-.2-.2l-.4.132a.559.559,0,0,1-.329-.2c-.461-.465-.594-.2-.926-.4l-.065.065h-.2l-.529-.2m0,.4v-.132l.332.132m3.5,2.445.2.926V21.5h-3.9l-.132-.465,1.126-.2-1.19-.132-.068-.4m.132-15.211-.065.068-.132.2c0,.265,1.784,1.52,1.916,1.652l.132-.132-.878-.916-.574-.577-.4-.29m-.2,14.418v-.329h2.113V19.05h-2.113l.065-.332,1.19-.2-1.19-.068.068-.4h1.52l.265.265h-.132c.265.661.594,1.126,1.323,1.126a1.031,1.031,0,0,0,.794-.4l.132.329-.132.329.068.4h-3.9l-.065-.329,1.058-.2-1.058-.065M153.3,7.739l.132-.132-1.387-1.058-.132.132m.594,23.147h-.461c-.465,0-.929.794-.929,1.19l.348-.39,1.042-.8m-.4-15.276.306-.668a3.749,3.749,0,0,0,.223-2.11,1.572,1.572,0,0,1,1.058,1.716,1.421,1.421,0,0,1,1.255.929l-.461-.132c-1.852,0-2.778,3.636-2.778,5.026a7.928,7.928,0,0,0,6.681,7.668l.132.4a1.9,1.9,0,0,1-.2.661,8.886,8.886,0,0,1-7.672-8.727,7.665,7.665,0,0,1,.806-3.62l.648-1.142m-.539,10.285-.387-.294-.861-.4.661-.132.729.132a4.671,4.671,0,0,0,.861,1.126l-.729-.068-.274-.361m.142,4.594-.2-.065c-.661,0-1.058.658-1.19,1.255a2.91,2.91,0,0,1,.771-.719l.619-.471M150.483,7.443l.226.248.145.313a1.46,1.46,0,0,0-.79-1.126l-.2.2.619.365M149.6,26.19l.49-.365a3.705,3.705,0,0,1,1.758-.361l.926.068a9.235,9.235,0,0,0,1.52,1.255,17.426,17.426,0,0,0-3.7-.726l-.99.129m.487-18.308.226.265.145.323a1.687,1.687,0,0,0-.79-1.194l-.2.265.619.342m-.023.984L150,8.53a1.939,1.939,0,0,0-.726-.79l-.2.265.619.332.374.529m.526,17.392,2.232.365,2.132.561a12.149,12.149,0,0,0,3.375,1.19l.529.2.4-.132.465.2c.265,0,.4-.2.594-.265h.4l.4-.068a17.427,17.427,0,0,0,3.107-1.123,21.493,21.493,0,0,1,4.3-.926,2.646,2.646,0,0,1,1.587.461,2.645,2.645,0,0,0-2.513-1.452,2.513,2.513,0,0,1,1.655-1.061,1.489,1.489,0,0,0-1.126-.4h-.529a8.784,8.784,0,0,0,1.19-4.494,8.923,8.923,0,0,0-1.523-4.962,4.315,4.315,0,0,1-.526-2.049l.129-1.058-.923.4a.988.988,0,0,0-.6-.132c-.329,0-.661.065-.794.4-.332-.794-2.71-1.39-3.439-1.523a17.715,17.715,0,0,0-1.852,0c-1.258,0-3.042.132-4.033.994a.871.871,0,0,0-.665.529.939.939,0,0,0-.794-.4.983.983,0,0,0-.594.132l-.926-.4.132,1.058a4.281,4.281,0,0,1-.529,2.049,8.931,8.931,0,0,0-1.523,4.962,8.785,8.785,0,0,0,1.19,4.494h-.529a1.628,1.628,0,0,0-1.187.4,2.5,2.5,0,0,1,1.716,1.061,2.809,2.809,0,0,0-2.578,1.452l.826-.329.826-.132M149.325,8.775l.252.242.155.31a1.723,1.723,0,0,0-.858-1.19l-.2.332.652.306m-.371.461.232.242.148.31a1.52,1.52,0,0,0-.794-1.187l-.265.329.678.306m.052,16.824-.474.223-.519.171.265.265.413-.3m.248-16.163-.068-.371a1.844,1.844,0,0,0-.726-.819l-.265.332a1.5,1.5,0,0,1,.91.548l.148.31m-1.126.4.265-.2.132.2m-.1,18.373.352-.145.745-.106.465-.332-.465-.065a1.676,1.676,0,0,0-1.39.861l.294-.213m-.161-2.633.6-.661a2.574,2.574,0,0,1-.861.4l.265.265m-.4-1.984-.265-.265.794-.265m.2,1.455-.448.271-.545.126.332.265m.265-.99-.439.245-.487.152.329.265m.852-14.492.342.206v.2l-.277.148-.319.052a1.13,1.13,0,0,1-1.123-1.19,1.587,1.587,0,0,1,.2-.8,1.524,1.524,0,0,1,.794.4l-.465.594.2.332h.264l.387.058M146.228,25.2h.2c.926,0,2.513-1.19,2.316-2.249h.065V11.575a2.179,2.179,0,0,0-1.587-2.049A23.26,23.26,0,0,1,149.6,6.878l.4-.132a1.633,1.633,0,0,1,1.058.529c2.052,1.987,6.281,2.316,8.93,2.316l1.123-.065c2.116-.132,5.423-.661,7.075-2.252a1.491,1.491,0,0,1,.994-.529l.4.132a31.655,31.655,0,0,1,2.449,2.649,2.241,2.241,0,0,0-1.655,2.049V21.1l.064,1.984a2.91,2.91,0,0,0,2.384,2.116l-1.92,2.445a3.485,3.485,0,0,0-1.387-.265c-2.649,0-5.162,2.581-8.4,2.978l-1.72.065c-4.165,0-6.614-2.974-9.656-2.974l-1.19.132L146.228,25.2m1.716-2.513.281.032.184.232c-.4.794-1.126.858-1.916.794a4.175,4.175,0,0,0,.726.858,1.88,1.88,0,0,1-.794.265.471.471,0,0,1-.529-.461c0-.594.707-1.265,1.394-1.561l.655-.158m-2.578,7.672.394-.61a6.409,6.409,0,0,1,4.633-2.1,4.7,4.7,0,0,1,2.645,1.058,12.75,12.75,0,0,0,6.946,2.052h1.123a12.61,12.61,0,0,0,5.226-2.184,4.632,4.632,0,0,1,2.445-.926c1.652,0,4.036.794,4.3,2.713a7.282,7.282,0,0,0-1.19-.2,1.8,1.8,0,0,0-1.39.6,3.848,3.848,0,0,0-2.91-1.72c1.92.461,3.107,2.513,3.239,4.365l-.594-.068-1.587.068a2.368,2.368,0,0,1-1.19-.2c-.465-1.72-1.387-2.842-3.242-2.842h-.065a4.331,4.331,0,0,1,3.042,3.968,6.316,6.316,0,0,0-3.242-.926,3.859,3.859,0,0,0-1.519.265V33.4a3.383,3.383,0,0,0-.926-2.249,3.564,3.564,0,0,1,.661,1.984,2.111,2.111,0,0,1-1.058,1.852c-.794.594-1.323.594-1.852,1.519-.794-1.519-2.91-1.19-2.91-3.371a4.113,4.113,0,0,1,.594-1.984,3.769,3.769,0,0,0-.858,2.513,4.066,4.066,0,0,0-1.523-.265,6.142,6.142,0,0,0-3.239.926c.2-1.72,1.258-3.571,3.042-3.968h-.132c-1.72,0-2.713,1.123-3.11,2.842a2.761,2.761,0,0,1-1.255.2l-1.523-.068-.661.068c.132-1.852,1.326-3.9,3.242-4.365a3.967,3.967,0,0,0-2.91,1.72,1.8,1.8,0,0,0-1.387-.6l-1.258.2m.2-5.952-.739-.523-.784-.471h.461a2.706,2.706,0,0,1,1.258.265l-.2.729m-.055-1.4-.436-.536a5.268,5.268,0,0,0-1.1-.842h.332a2.692,2.692,0,0,1,1.787.661l.265.726L145.1,21.96a9.037,9.037,0,0,1,1.058,1.187l-.329.465-.319-.607m.084,4.2-.881-.216-.871-.074a3.359,3.359,0,0,1,1.787-.4,7.027,7.027,0,0,1,1.652.2l.794.926-.487.174-.439.223-.719-.481-.836-.352m.845-14.111,1.123,1.426.913,1.416V17.2a28.118,28.118,0,0,0-2.91-4.362,25.178,25.178,0,0,1,2.91,4.959v2.181l-.819-2.462a27.211,27.211,0,0,0-3.946-6.465,5.406,5.406,0,0,1,1.432.823l1.3,1.229m-.429,6.323.481.752.923,2.249-.329.132a12.43,12.43,0,0,0-1.123-2.052,16.9,16.9,0,0,1,.926,2.184l-.4.2a12.837,12.837,0,0,0-2.781-5.091,3.6,3.6,0,0,1,1.665.916l.636.713m.1-3.178.648.952a22.89,22.89,0,0,1,1.719,3.639V21.96L147.06,19.1,145.5,16.337c.994,1.984,2.116,4.033,2.91,6.084a.953.953,0,0,0-.729-.065,39.979,39.979,0,0,0-4.229-8.4,5.553,5.553,0,0,1,1.9,1.371l.758.916M147.615,33.6l-1.165.306-1.216.158c-1.19,0-3.7-.332-3.7-1.92a1.77,1.77,0,0,1,.332-.99l.065.329c.068-1.52.794-1.587,1.916-1.984a2.35,2.35,0,0,0-.923,1.655c0,1.323,1.519,2.249,2.71,2.249l.484-.055.468-.145.9-.4.132.794.065.2v-.2h.2l.926.132a9.356,9.356,0,0,1-4.168,1.323l-2.313-.2-.5.048-.5.148v-.132c.2-.529.861-.794,1.326-.99a9.707,9.707,0,0,0,2.71.461,3.665,3.665,0,0,0,1.749-.416l.5-.377m-7.2-7.223.323.016-.461-.4-.132.265m.526-1.655-.265-.2-.329.861m.594,1.52-.526-.465-.132.2.3.206m.09.19-.461-.265-.064.132c.064.132.329.132.461.132h.065m-.79-2.713-.21.565-.255.561.729-.994m-.794-1.916.116-.239.016-.29-.068-.4.2.065.4-.065a1.512,1.512,0,0,1-.4.8l-.261.126m.132,5.62.6.581a1.943,1.943,0,0,0,.848.281.443.443,0,0,1-.265.4h-.065a1.546,1.546,0,0,1-1.255-1.19l.132-.068M139.35,8.93V8.8l-.529.132m0,10.911.081-.265-.016-.261h.132l.332-.132.2.526c0,.132,0,.265-.132.332l-.594-.2m.594,6.746.265.3c.242.416.477,1.087,1.123,1.087a.75.75,0,0,0,.529-.2l.2-.132a.688.688,0,0,1,.265.529.561.561,0,0,1-.465.529l-.265.068a2.535,2.535,0,0,1-2.245-1.587l.223-.4.371-.2m-.726-22.618.065-.661-.065-.461A1.073,1.073,0,0,1,139.35,3.9v.329l-.661-.265m0,4.5.123-.3.274-.1.2.065m-.794,24.931.761-.3.761-.1a4.251,4.251,0,0,1,1.32.2v.065a1.7,1.7,0,0,0,.6.6l-.6-.068H141.2a3.84,3.84,0,0,0-1.716.4l-.994-.794m.619-13.895-.223.074a.83.83,0,0,0-.465-.661.706.706,0,0,0,.4-.461l.461.926-.174.123m.042,8.869-.316.052-.213.148c-.132-.132-.2-.2-.2-.332s.4-.265.4-.265l.329.4m0-6.017-.055.174a.624.624,0,0,1-.474.223.418.418,0,0,1-.465-.461,1.469,1.469,0,0,1,.332-.729,1.068,1.068,0,0,1,.6.519l.058.274m-.713-14.476.284-.148.3-.058a.747.747,0,0,1,.529.2c-.064-.265-.4-.265-.661-.265a.992.992,0,0,0-.926.729l.477-.455m.771,1.165.406.084-.132-.4.132-.4-.2.068L139.085,8a.569.569,0,0,0-.6.465.877.877,0,0,1-.529.2l.826.042.423.006m-.984,6.168.148.181.048.284h-.065l-.6-.132-.064-.332.329-.065m.406,10.149.655-.958-.265-.132a7.462,7.462,0,0,1-1.194,1.852l.8-.761m-.274-10.282h-.132l-.4.132-.065-.2.4-.265m-.265.994.387.213.142.316c0,.2-.132.265-.2.265-.265,0-.4-.332-.529-.465l.2-.329m-.026,3.668.423-.165a.569.569,0,1,1,0,1.123.593.593,0,0,1-.6-.594l.174-.365m.026,1.629.265-.406h.132a1.17,1.17,0,0,0,.661-.265,1.3,1.3,0,0,1,.861,1.058c0,.2-.132.265-.332.265a.923.923,0,0,1-.861-.794v.4c-.132.265-.329.661-.726.661-.332,0-.465-.065-.465-.461v-.2l.261-.094.2-.161m-.265-6.091-.265-.068.4-.6.2.268m.332-9.527L137.1,5.691a.242.242,0,0,1-.261-.265c0-.232.213-.432.477-.571l.777-.226m-.2,15.543-.313.365-.413.165a.429.429,0,0,1-.4-.4.955.955,0,0,1,.329-.729l.2-.129.174.461.419.265m-.329-5.091-.158.3-.307.1a.38.38,0,0,1-.394-.4.424.424,0,0,1,.394-.4l.307.123.158.274m.065,3.636-.239.281-.09.381-.4.132a.38.38,0,0,1-.4-.4,1.279,1.279,0,0,1,.2-.661l.436.255.487.01m1.194,4.562.558.242a9.419,9.419,0,0,0,1.952.287c.465.068,1.194.265,1.194.794,0,1.126-1.126,1.194-1.194,2.713-.065.265-.4.4-.726.4-.461,0-.794-.6-.926-.994a1.535,1.535,0,0,0,.4-.726l.265-.265h.4l-.926-.132c-1.123,0-2.316.661-2.975.661-.265,0-.332-.132-.332-.329l1.255-1.226,1.061-1.423m-2.381-7.01-.2-.129c0-.265.265-.465.332-.6l.4.2a.932.932,0,0,1-.345.471l-.184.055m.155-11.737.432-.219.4-.081-1.058,1.194c-.2,0-.265-.068-.265-.2l.142-.377.345-.316m-.174,6.126-.181-.074c-.132,0-.132.132-.132.2,0,.132,0,.2.132.2s.265-.068.265-.2l-.084-.123m.084,4.555v.2c-.065.2-.2.2-.4.2-.132,0-.4,0-.4-.2s.332-.265.465-.265l.329.068m.165,1.107.232-.181.065.271.135.065-.077-.123-.055-.281v-.065l.129-.265h.332l.132.2-.09.371-.1.148.155-.081.1-.306.4.132a.312.312,0,0,0,.332-.329.844.844,0,0,0-.265-.465h.329v.332a4.437,4.437,0,0,1-.661,2.116,3.3,3.3,0,0,1-2.049-2.316c.068.2.4.2.6.2a.361.361,0,0,0-.2.329.425.425,0,0,0,.332.329l.229-.081m-.148,16.608.426-.268.352-.319a.5.5,0,0,1,.4.461c0,.661-1.19.661-1.72.661h-.265l-.065-.2.874-.339m.116-28.961-.381.406-.281.455c-.065.132-.065.265-.265.265l-.132-.265a.744.744,0,0,1,.381-.577l.677-.284M136.5,14.95v.132l-.4-.068c-.132,0-.461.132-.461.4l-.132-.794.99.332m-.455-1.316-.868-.736a1.829,1.829,0,0,0,.861-.461.617.617,0,0,0,.594.329c.2,0,.332-.265.332-.461a1.205,1.205,0,0,1,.858.726,6.867,6.867,0,0,1-.858,1.19l-.919-.587m.736,3.987.484.326.558.242a4.189,4.189,0,0,0,.994-2.578,1.726,1.726,0,0,1,.265.99c0,.926-.465,2.052-1.523,2.052a1.508,1.508,0,0,1-.794-.4c-1.19-.861-1.587-2.581-1.72-3.968l.4.329a3.967,3.967,0,0,0,.929,2.61l.41.394m-.116-8.062.287.248.274.113a.534.534,0,0,0,.529-.265l-.2.068a.485.485,0,0,1-.529-.529l.132-.858c0-.332-.265-.665-.265-.929l.329-.661c.2-.329.729-.4.994-.594a4.89,4.89,0,0,0,1.126-.926h.529l.213.374.116.419a.494.494,0,0,0-.329.529.884.884,0,0,0,.2.529V7.21a4.261,4.261,0,0,0,.99,2.052c-.132.2-.461.2-.529.394l-.2.068c-.329,0-.065-.2-.265-.265l-.065.132c0,.265.329.2.526.132l-.064.4a1.21,1.21,0,0,1-.99.332c.064.265.461.461.661.594a.309.309,0,0,0-.2.332c0,.265.265.461.265.661,0,.594-1.787.594-2.116.594l-.332-.065v-.132c0-.661-.265-1.323-1.055-1.323h-.2a1.335,1.335,0,0,1,1.058,1.123h-.132c-.265.068-.461-.4-.461-.726-.265.2-.068,1.058-.4,1.058s-.6-.661-.6-.926a.635.635,0,0,0-.065.594l-.6.4-.065-.265a1.33,1.33,0,0,1,1.058-1.255,1.491,1.491,0,0,1-1.326-1.39c0-.461.4-.529.729-.529l.571.113.387.252m-2.016,3.868.4-.465a14.939,14.939,0,0,0,1.852,1.523.887.887,0,0,0-.4.332l-1-.623-.852-.768m.329,8.93-.084.3c-.148.274-.445.471-.445.819l-.065-.2.061-.265.274-.458.061-.268a1.4,1.4,0,0,0-.265-.729l.355.3.106.5m.374,9.7.561-.232a1.732,1.732,0,0,0,.787-.81h.132c.329,0,.658.065.658.461,0,.861-1.849,1.587-2.578,1.587-.4,0-.661-.132-.661-.526l.132-.465.4.065.571-.081M134.3,3.771l.545-.6-.064.4a2.083,2.083,0,0,0,.4,1.126c0,.4-.465.529-.729.6a.832.832,0,0,1-.4-.729l.068-.4.181-.39m-.116,9.259-.2-.213a2.1,2.1,0,0,1-.2-.978V10.12l.223,1.455.174,1.455m-.79-4.894.219-.268c.616-.519,1.9-.345,2.887-1.387-.1,1.09-1.278,1.142-2.252,1.349l-.855.306m0,1.058.755-.445a5.254,5.254,0,0,0,2.42-1.21c-.052,1.042-1.255,1.155-2.271,1.368l-.9.287m.726-2.074-.594.09h-.265c.858-.465,1.716-.661,2.578-1.058a4.028,4.028,0,0,1-1.084.729l-.636.239m-.926-.571.365-.31a6.658,6.658,0,0,1,1.487-.548l-.852.552-1,.306m.068,11.972.065.529-.132,1.055a1.812,1.812,0,0,0,.594,1.39c-.658-.265-.79-.729-.79-1.455l.265-1.519m.01-5.5.319.79a2.982,2.982,0,0,1,.461,1.407l-.065.265c-.2-1.19-1.255-1.987-1.255-3.439a4.952,4.952,0,0,1,.329-1.655,5.757,5.757,0,0,1,.068,1.523l.142,1.11m-.432,20.821-.174-.571-.065.265a1.267,1.267,0,0,0,.461.926l.2-.2-.423-.419m.848-17.776.216.532.084.536v.132l-.536-1.113c-.681-1.132-1.649-2.31-1.649-3.449a3.368,3.368,0,0,1,.4-1.787l-.132.994a5.654,5.654,0,0,0,.958,3.033l.658,1.123m-.361,19.121.758-.132.761-.329a2.7,2.7,0,0,1-1.255.265,1.186,1.186,0,0,1-1.323-1.323,1.089,1.089,0,0,1,.6-.99,1.844,1.844,0,0,0,1.849,1.52,1.879,1.879,0,0,0,.994-.265,1.5,1.5,0,0,0,1.19,1.058,3.092,3.092,0,0,1-1.852.594l-1.323-.065a2.391,2.391,0,0,0-1.72.594,1.183,1.183,0,0,1-.265-.594.932.932,0,0,1,.529-.794.9.9,0,0,0,.455.355l.6.106M131.942,8.665l.323.09.271.242.132.529v.129l-.794-.065a.978.978,0,0,1-.529-.794l.6-.132m-.465,12.566v.4c0,.661.661.332.729.926-.332-.329-.929-.2-.929-.858l.048-.258.152-.206m.052-6.843.277.561c.465.794,1.655,2.049,1.655,2.974a11.973,11.973,0,0,0-.99-1.523c-.729-.923-1.39-1.452-1.39-2.842a3.741,3.741,0,0,1,.2-1.19l.09,1.365.161.655m-.184-3.871-.332-.065a1.759,1.759,0,0,1,1.458-.729,1.119,1.119,0,0,1-.745.736l-.381.058m-.332,7.936-.248-.116-.148-.213v.065c0,.265.132.465.332.465.132,0,.329-.2.461-.332l-.4.132m.661-8.8-.355.094-.306.239a1.233,1.233,0,0,1-.529-.461.875.875,0,0,1,.6-.4l.271.313.323.213m-1.716,6.878-.284-.113-.181-.216v.065c0,.265.068.529.332.529a.749.749,0,0,0,.529-.329l-.4.065m.461,13.824.568.09a2.579,2.579,0,0,1,1.284,1.032,3.452,3.452,0,0,0-1.19-.2c-.794,0-1.852.529-1.852,1.455v.132a1.71,1.71,0,0,1,.794-.994c.2.068.726.265.726.465,0,.4-.99.594-.99,1.323,0,.926,1.387.99,2.116.926-.2.2-.4.4-.4.594h-.265a2.593,2.593,0,0,1-2.845-2.51,2.414,2.414,0,0,1,1.642-2.265l.41-.052m-.177-16.927-.284.319-.794.471-1.855-.794h.068c.661,0,2.184-.4,2.449-1.058l.529-.132c-.132.265,0,.465,0,.794l-.113.4m7.849,8.794h.064l.332.461-.6.132.529.065-.065.2a1.934,1.934,0,0,1-.861,0,.955.955,0,0,0,.729.329l-.068.068-.461.065-.465-.065a1.382,1.382,0,0,0,.794.329l-.065.068h-.265a1.852,1.852,0,0,1-.6,0l.661.329-.132.132h-.2l-.529-.065a1.683,1.683,0,0,0,.594.329l-.265.265a1.316,1.316,0,0,1-.726,0l.529.268-.265.265h-.661c.068.132.265.2.4.265-.2.132-.858.658-1.123.658l-.532-.065-.529-1.123-.132-.2v.2l-.4-.068a.881.881,0,0,0-.526.2l.2-.068.794.132.064.265a3.972,3.972,0,0,0-.923.132h.2l.794.068.065.2-.858.132h.2l.794.132v.132a1.323,1.323,0,0,0-.726.2l.329-.065.4.065.068.2-.729.2.332-.065.529.065c.132.4.661.861.661,1.323l-.264.529a7.032,7.032,0,0,0,1.19,2.184,1.455,1.455,0,0,1-1.19.858c-.465,0-.6-.265-.661-.661a1.207,1.207,0,0,0,.461-.4l-.529.265-.065-.2.529-.465-.6.265-.064-.265a.878.878,0,0,0,.461-.4l-.529.265-.065-.132.461-.461a.853.853,0,0,1-.661.265c-.132-.265-.461-.465-.658-.726a.918.918,0,0,0,.526-.4,1.088,1.088,0,0,1-.726.268c-.794,0-.461-.861-.726-1.39-.132-.4-1.194-1.784-1.59-1.784-.329,0-.394-.068-.526-.332v-.265a3.008,3.008,0,0,0-.529-1.523,3.236,3.236,0,0,1,.265,1.59v.132l-.332.065a.914.914,0,0,1-.461-.794V25a1.041,1.041,0,0,0,.2.594l-.2.2a2.023,2.023,0,0,1-.465-.6l.265.729-.4-.529.265.594-.065.068-.332-.529a1.04,1.04,0,0,0,.2.594h-.068l-.332-.461.2.526-.132.132-.332-.594.2.661-.6.132c-.461-.265-.99-.661-.99-1.19l.132-.465,1.058-.848.861-1h.2c.661,0,1.39-.79,1.784-1.187l.6.661c.2.065.729.2.729.394s-.861.265-.861.926c0,.4.529.729.926.794a.771.771,0,0,1-.4-.661c0-.529,1.258-.065,1.258-.858,0-.594-.926-.858-.926-1.323a1.42,1.42,0,0,1,.661-.994c0,1.258,1.652,1.061,1.652,1.723,0,.329-.594.658-.594,1.187,0,1.058,1.916.861,1.916,2.052l-.132.461a.839.839,0,0,0,.332-.726c0-.994-1.194-.926-1.194-1.655,0-.4.861-.726.861-1.452,0-1.194-1.587-.861-1.587-2.052,0-1.123.858-1.255.858-2.578a3.843,3.843,0,0,0-.4-1.72c.2,0,.265-.265.265-.4a2.428,2.428,0,0,0-.461-1.126,3.389,3.389,0,0,1,.461-.994,1.62,1.62,0,0,0,.4.729v.4a5.375,5.375,0,0,0,1.126,3.439,1.35,1.35,0,0,0-.4.926,1.388,1.388,0,0,0,.465.926l-.068.529a.922.922,0,0,0,.661.794l-.065.265a.638.638,0,0,0,.494.613l.894.116-.777-.194c-.265-.106-.477-.271-.477-.536l.065-.4c-.2,0-.661-.332-.661-.6a1.01,1.01,0,0,1,.265-.661.913.913,0,0,1-.461-.79,1.223,1.223,0,0,1,.329-.794l.132.132-.065.661c0,.329.065.526.461.526a1.521,1.521,0,0,0-.4.794.6.6,0,0,0,.661.529l-.132.332a.608.608,0,0,0,.661.6l.329-.068.068.465m-12.234-9.391.661-.132a.9.9,0,0,0,.329.526l-.99-.394m-.132,17.06-.068-.065-.065-.2h.2m-.265-5.62v-1.72h.332v1.52m1.784-9.388-.471.339-.519.19a.447.447,0,0,1-.4-.6l-.2.068c-.4,0-.861-.2-.861-.6l.068-.4,2.381.994.694.239.7.29a1.637,1.637,0,0,0-.532,1.058,2.3,2.3,0,0,0,1.326,1.852c.064.726-.2,1.716.923,1.716h.265c-1.452-.461-.4-1.387-1.055-2.049a1.17,1.17,0,0,1-1.126-1.323,2.939,2.939,0,0,1,.332-1.255c1.255.529,2.642,1.652,2.642,3.175a4.836,4.836,0,0,1-.926,2.445,3.854,3.854,0,0,0,.994-2.513,2.99,2.99,0,0,0-.465-1.655c.729.332,1.458.794,1.458,1.655a4.892,4.892,0,0,1-.2,1.058c-.461.926-2.71,3.7-3.768,3.7-.332,0-.4-.461-.4-.661l.068-.329a.646.646,0,0,0,.6-.268l.529.2a.773.773,0,0,0,.726-.6.754.754,0,0,1-.594.4.6.6,0,0,1-.465-.2,1.31,1.31,0,0,1-.794.4.652.652,0,0,1-.661-.6l.132-.4a1.045,1.045,0,0,0,.794-.329.7.7,0,0,0,.6.329,1.093,1.093,0,0,0,.794-.529,1.268,1.268,0,0,1-.661.332.994.994,0,0,1-.6-.265l.132-.2a1.8,1.8,0,0,1-1.058.529c-.4,0-.794-.2-.794-.661l.065-.4a1.516,1.516,0,0,0,.729.2.765.765,0,0,0,.861-.926v-.132c0,.4-.2.858-.665.858a1.482,1.482,0,0,1-.858-.394l.265-.265a1.165,1.165,0,0,1-.726.4,1.98,1.98,0,0,1-.661-.926,2.353,2.353,0,0,1,.265-.729l.4.068c0,.265.132.661.461.661a1.87,1.87,0,0,0,1.123-.465,2.148,2.148,0,0,1-.858.265c-.4,0-.465-.132-.4-.461V17.66c.4-.132.461-.6,1.058-.6h-.2c-.461,0-.4.532-1.123.532a1.057,1.057,0,0,1-.926-.532c-.329-.065-.661-.265-.661-.529a1.236,1.236,0,0,1,.2-.526l.329.065a1,1,0,0,0,.994.726A1.734,1.734,0,0,0,128.1,16.2a1.91,1.91,0,0,1-1.187.329.716.716,0,0,1-.661-.461l.858-.329-.794.065c-.4,0-.858-.065-.858-.529a1.12,1.12,0,0,1,.2-.661h.4a.529.529,0,0,0,.6.465.973.973,0,0,0,.568-.232l.423-.429m-1.984,10.911.465-.132a1.615,1.615,0,0,0,.858,1.387l-.794.068-.529-1.323m0,0,.132.687.332.636h-.6l-.248-.581-.148-.674m-.332,3.3v-.065h.265l-.265-.2h.4L125,28.39l-.139-.148h.4l-.332-.132.068-.068h.4l-.332-.132.132-.132.465.132-.329-.2.4-.068c.529,0,.794.529.858,1.058a1.952,1.952,0,0,1-.858.332l-.49-.116L124.8,28.7m-.2-4.5V22.225l.4.065v1.916m.139,4.9.59.126a1.866,1.866,0,0,0,1.058-.4h.065l.068.068c0,.332-.926.594-1.19.594a1.894,1.894,0,0,1-1.061-.394l.265.065-.329-.332.536.274m-.116-3.058.242.6-.465-.068a3.53,3.53,0,0,1-.265-1.187c.132.065.265,0,.4,0l.09.652M124.2,25.4h.265l.132,1.187h-.4c-.132-.065-.132-.329-.132-.461l.132-.726m-.216-7.478-.116.2c0,.461.729.594,1.058.661,0-.2-.726-.4-.726-.661,0-.132.926-.332,1.058-.4H124.8l-.539.074-.271.119m-.181,6.02V22.025l.4.068v2.049m-.461-11.64.461.068.794-.2c.132.265.332.332.6.465a2.4,2.4,0,0,1,.926.461l2.049.926,1.984.729a.887.887,0,0,0,0,.594,5.227,5.227,0,0,0-1.519-.926L123.742,12.5m.329,3.836-.429.106a.4.4,0,0,0-.232.355c0,.332.4.665.661.861,0-.2-.4-.529-.4-.794,0-.4.726-.465.926-.465l-.529-.065m-.439,16.815.355-.387.481-.887h.132c.265,0,.4.068.4.332,0,.4-1.058,1.587-1.455,1.587-.2,0-.265-.2-.329-.4l.419-.248m-.552-9.607V21.7l.329.2v1.852m-.265-9.02-.187.145-.077.213c0,.4.465.726.729.858a1.683,1.683,0,0,1-.529-.858c0-.265.726-.4.923-.4l-.394-.068-.465.106m-.064-1.891-.274.058-.123.2c0,.465.726.729,1.058.794-.132-.132-.794-.594-.794-.794l.529-.132-.4-.129m-.794,9.853V21.231l.4.265v1.652m.132-12.695.494.106.5-.042.661.529a7.228,7.228,0,0,1-1.72.4.926.926,0,0,1-.926-.794l.994-.2m-.971,11.614-.155-.174V20.767l.265.265v1.258m.861,5.159.2-.265-1.39-.2-.926-.065.926.2m-.529-17.657.216.181.313.084.6.065a.732.732,0,0,0,.465.6l-1.061.068c-.661,0-1.452-.068-1.452-.861v-.2l.923.065m.929,18.782.265-.265-.665-.068-1.519-.2,1.519.4m-.461.726.2-.2-1.452-.2M120.632,17l.4.174.587.023a1.587,1.587,0,0,0,.8-.2,1.234,1.234,0,0,0,.926.329l.132-.065c-.465,0-1.058-.2-1.058-.794a.8.8,0,0,1,.2-.594c-.2-.132-.529-.4-.529-.6,0-.461.661-.794.661-1.058,0-.4-.926-.794-.926-1.519l.132-.529,2.842,1.123-.065.461a.823.823,0,0,0,.329.665L125,14.95a1.08,1.08,0,0,0,.332.858,1.249,1.249,0,0,0-.2.661c0,.465.465.726.861.858l.2.2a1.465,1.465,0,0,0-.329.729c0,.461.661,1.255,1.19,1.19l-.132.461a.818.818,0,0,0,.79.858l-.065.332a.882.882,0,0,0,.529.729v.065l.065.2-1.058.132c-.526,0-1.187-.132-1.187-.8l.132-.529h-.529c-.532,0-.994-.065-.994-.661a1.554,1.554,0,0,1-.794.132c-.132,0-1.123-.265-1.123-.529s.726-.526.926-.594c.2.594.923.726,1.387.726v-.265h-.265c-.661,0-1.123-.132-.99-.858a.7.7,0,0,1-.6-.329,1.7,1.7,0,0,1-1.258.4l-.265-.068a.69.69,0,0,1-.265-.726l-.661.2a.853.853,0,0,1-.923-1.058l.429-.084.429-.181m-.068-.065-.594.213-.594.116a.557.557,0,0,1-.6-.6v-.132h.132a6.1,6.1,0,0,0,1.455-.394l-.065.261.055.316.206.216m-1.636-9.243.381.313v.068c0,.529.4.794.926.794l.594-.068.132.465c-.79-.132-2.445-.465-2.445-1.59l.132-.4.281.416m.845,7.259.181.2a1.238,1.238,0,0,0,.742.2h.926l.4-.068.329.465-.065.658.065.532-.729-.068c-.4,0-1.187-.132-1.187-.661l.129-.265H120.5a6.3,6.3,0,0,1-1.323.265c-.329,0-.729,0-.729-.4l.068-.4,1.258-.461m-.994,4.562-.048.123-.152.074a.209.209,0,0,1-.2-.2.173.173,0,0,1,.2-.2l.152.048.048.148m0,9.191h-.265a1.867,1.867,0,0,1-.465.861l.487-.381.242-.481m.026-.884.042-.9h.065c.2.265,0,.99.6.99.529,0,.461-.926.461-1.255l.661-.465h.265l.726.068,1.39.329c.529.132,1.058.132,1.19.729a11.473,11.473,0,0,1-1.916,1.652l-.665.6h-.794l.729.2.132.265h-.068a1.575,1.575,0,0,1-.794,0,1.022,1.022,0,0,0,.729.2h.265l.465.461a1.4,1.4,0,0,0-.265.729,1.456,1.456,0,0,1,.461-.6l.132.132a1.4,1.4,0,0,0-.265.729l.465-.529h.2a1.776,1.776,0,0,0-.329.726l.461-.529,1.058.4v.132l-.09.374c-.174.429-.571.948-.968.948a1.293,1.293,0,0,1-.529-.2l-.265.329h-.065c-.2-.658-.068-1.055-.665-1.652a8.626,8.626,0,0,0-2.445-1.587c-.329-.132-1.258-.132-1.258-.529a8.586,8.586,0,0,1,.4-1.19.42.42,0,0,0,.355-.161l.136-.394m.3,5.73.839.277.823.1a1.829,1.829,0,0,0,.858-.2,1.056,1.056,0,0,0,.332-.529c.068.265.132.4.4.4.132,0,.332-.132.332-.2a1.1,1.1,0,0,0,.461,0v.065a.419.419,0,0,0,.465.465A1.852,1.852,0,0,0,125,33l.465-.068.2.132s-1.058,1.19-1.455,1.19a.444.444,0,0,1-.332-.265,1.211,1.211,0,0,0,.332.794,7.023,7.023,0,0,0-2.581-.594h-.2a5.317,5.317,0,0,0-2.645.726v-.132a1.23,1.23,0,0,1,.465-.794,3.866,3.866,0,0,0-1.591-.661l-.064-.658.71.474.8.4m7.285-21.905.265.065a3.3,3.3,0,0,0,2.313-1.058,3.939,3.939,0,0,1-2.049.794,1.477,1.477,0,0,1-1.126-.594,4.408,4.408,0,0,0,1.455-.994,4.127,4.127,0,0,1-1.984.861c-.332,0-.794.065-.994-.332a10,10,0,0,0,1.723-.794,6.806,6.806,0,0,1-2.513.661c-.332,0-.794-.132-.794-.529A7.788,7.788,0,0,0,124.6,8.93a8.369,8.369,0,0,1-2.381.6.9.9,0,0,1-.6-.132,1.036,1.036,0,0,1-.4-.794l.4-.132.8-.4-.8.265a3.738,3.738,0,0,1-1.187.2c-.265,0-.661-.065-.661-.4V8.072h.2a5.213,5.213,0,0,0,1.652-.465l.265-.2-.265.132a4.98,4.98,0,0,1-1.652.4,1.149,1.149,0,0,1-1.123-.858h.4a3.364,3.364,0,0,0,1.452-.265l-.923.065c-.794,0-2.645-.329-2.645-1.452l.1-.387.3-.342,2,1.265,2.1,1.116,3.439,1.72c1.523.6,5.094,1.523,6.02,2.778a1.451,1.451,0,0,0-.661.6l-.661.132c-.2.594-1.72.858-2.249.858a.553.553,0,0,1-.594-.594l.329-.265h.2c1.058,0,2.052-.132,2.516-1.19a2.223,2.223,0,0,1-2.12.99l-.594-.065a2.15,2.15,0,0,1-1.255.529.771.771,0,0,1-.661-.265l1.058-.661-1.068.455a3.654,3.654,0,0,1-1.116.206.815.815,0,0,1-.858-.794,4.418,4.418,0,0,0,1.187-.465l.332.068.465-.068.5.371.555.226m-8.93,8.33-.2.2c-.2,0-.261-.132-.261-.2,0-.2.065-.265.261-.265l.126.058.074.206m.529-5.752.184.31a1.565,1.565,0,0,0,1.007.419l.529-.068v.068l-.91.271-1.01.126c-.265,0-1.319,0-1.319-.529a1.252,1.252,0,0,1,.329-.661l1.19.065m-.4,19.244.461.132a2.021,2.021,0,0,0-1.187.794l.461.132c.132.068.265.132.265.265a.371.371,0,0,1-.4.332.734.734,0,0,1-.726-.729.9.9,0,0,1,.7-.865l.426-.061M115.805,20.5l-.058.21-.206.055c-.132,0-.2-.065-.2-.265a.175.175,0,0,1,.2-.2l.206.048.058.148m-.068-.329-.448.148-.148.445c0,.265.2.465.6.465a.512.512,0,0,0,.529-.465.623.623,0,0,0-.165-.445l-.365-.148m.545-2.823.645-.023-.794-.132c-.594,0-1.523.465-1.655.994a1.85,1.85,0,0,1,1.126-.729l.678-.11m-1.932.045.8-.4a3.983,3.983,0,0,1,1.778-.2,1.291,1.291,0,0,0-.858-.2,2.969,2.969,0,0,0-2.449,1.39l.729-.6m-.268,3.239-.084.184-.177.081a.275.275,0,0,1,0-.529l.177.084.084.181m.265,3.439-.2-.065-.068.065c0,.2-.329.529-.594.661l.5-.255.355-.406m-.4-3.768-.361.132-.165.329a.583.583,0,0,0,.526.6.641.641,0,0,0,.6-.6.42.42,0,0,0-.2-.329l-.4-.132m-.371,4.052.2-.31.106-.371-.2-.065a3.157,3.157,0,0,1-.661,1.123l.552-.377m-.271-6.972.784-.536a5.877,5.877,0,0,1,1.513-.71,4.939,4.939,0,0,1,1.72-.332l.726.132a.92.92,0,0,0,.465.529V16.6a.7.7,0,0,0,.6.661l.926,1.72c.594,1.123.858,2.381,1.584,3.507A3.918,3.918,0,0,0,124.6,24.47c1.455,0,2.71-1.255,3.636-2.245a.823.823,0,0,0,.4.726,9.543,9.543,0,0,1-1.72,1.519,4.254,4.254,0,0,1-2.316.665,3.7,3.7,0,0,1-2.978-1.523,24.042,24.042,0,0,1-1.784-3.7c-.329-.661-.99-1.916-1.787-2.181a2.285,2.285,0,0,1,.6.529h-.132c-1.455,0-2.778.926-4.233.926a1.69,1.69,0,0,1-1.652-.994l.2-.329.481-.474m-.1,1.729.5.2.574.065c1.455,0,2.974-.926,4.433-1.058l.461.729-.4-.068c-1.523,0-2.91,1.123-4.433,1.123a2.164,2.164,0,0,1-1.981-1.319l.265-.529.2.51.374.348m.145-8.878.532.148a2.306,2.306,0,0,0,1.984,1.126,1.866,1.866,0,0,1-1.323.4,2.3,2.3,0,0,1-2.581-2.316l.068-.329a3.086,3.086,0,0,0,.826.736l.494.239m-.261,5.639v.132l-.287.206-.439.055c-.2,0-.861-.129-.861-.461l.265-.065.487.065.836.068m-.116,1.536-.413.232a2.362,2.362,0,0,1-.926.216c-.132,0-.4,0-.4-.2s1.655-.4,1.984-.6l.068.068-.316.281m.116-.942-.136.165a1.768,1.768,0,0,1-.79.165c-.2,0-1.058-.065-1.058-.4,0-.132.065-.261.2-.261l.661.2.539.116.587.016m0,.329.068.136a5.46,5.46,0,0,1-1.723.394c-.329,0-.4-.065-.4-.394l.132-.136a1.592,1.592,0,0,0,.794.068l1.126-.068m8.4-3.9-.768.184-.816.081a1.67,1.67,0,0,1-1.39-.529l1.126-.461a3.707,3.707,0,0,1-1.523.329,2.26,2.26,0,0,1-1.784-.99,4.325,4.325,0,0,0,1.584-.4,5.381,5.381,0,0,1-1.387.2,2.287,2.287,0,0,1-2.184-.926h.068A2.67,2.67,0,0,0,116,10.056a3.854,3.854,0,0,1-1.258.2,3.078,3.078,0,0,1-2.378-1.058h1.916l-1.123-.119c-1.4-.161-3.375-.51-3.375-1.6l.2-.6,5.768,2.6,5.868,2.5v.2l-.116.361-.016.365.413.587.384.339.223.148.174.248c0,.265-.8.6-.661.994l-.4.065h-.4a1.32,1.32,0,0,1-1.255-.529l.926-.329a3.9,3.9,0,0,1-1.52.265c-.465,0-.929-.132-1.061-.6l.8-.4a2.456,2.456,0,0,1-1.194.265,1.513,1.513,0,0,1-1.387-.661l.726-.4a6.084,6.084,0,0,1-1.52.265,1.134,1.134,0,0,1-1.126-.858,2.148,2.148,0,0,0,1.326-.794,2.515,2.515,0,0,0,2.245,1.19,1.671,1.671,0,0,0,1.523.658,2.106,2.106,0,0,0,1.587.729l.684-.142.31-.123-.665.065a1.885,1.885,0,0,1-1.452-.529l.684-.181.636-.281m-10.514,2.449-.206.148-.058.248c-.726-.068-2.052-.861-2.052-1.723,0-.265.332-.4.6-.265l1.72,1.59m-.594.794-.2.394c-.661-.065-2.778-1.187-2.778-1.916a.493.493,0,0,1,.794-.4c.4.332.529.794,1.058,1.19l1.126.729m-3.11-5.026.458.19a6.154,6.154,0,0,1,.929,1.4h-.265a.552.552,0,0,0-.529.2,2.28,2.28,0,0,1-.79-1.387l.023-.248.174-.148m0-.465-.084.184-.181.081a.284.284,0,0,1-.265-.265.243.243,0,0,1,.265-.265l.181.058.084.206m1.039,5.359.348.2a5.837,5.837,0,0,0,1.458.661.413.413,0,0,0,0,.4c-.6,0-3.375-.861-3.375-1.52,0-.132.132-.729.332-.729l1.236.994m-.636.71,1.384.61,1.058.268.2.329h-.4c-.726,0-3.636-.265-3.636-1.323,0-.132.132-.4.265-.4l1.129.513m-1-6.333-.126.3-.271.1a.38.38,0,0,1-.4-.4.427.427,0,0,1,.4-.4l.271.126.126.271m-.861.6.487.165.439.365c.465.4.4.99.661,1.519-.265,0-.529.329-.726.461-.529-.461-1.326-1.255-1.326-1.981l.132-.416.332-.113m.132,4.1-.065-.132a.863.863,0,0,1,.794-.861.857.857,0,0,1,1.055-.729.638.638,0,0,1,.661-.461,1.287,1.287,0,0,1,.929.594l-.4.068-.332-.132c-.265,0-.465.329-.529.461h-.2c-.529,0-.658.4-.726.861,0,0-.726.729-.661,1.19-.265.068-.594.2-.594.529a.82.82,0,0,0,.265.529c-.2.132-.132.265-.132.465-.265-.135-.665-.2-.665-.529a.477.477,0,0,1,.2-.4.787.787,0,0,1-.2-.658.86.86,0,0,1,.336-.69l.261-.1m-.2-4.762-.048.223a.58.58,0,0,1-.548.306.531.531,0,0,1,0-1.061.577.577,0,0,1,.548.31l.048.223m-1.032,1.271.271.223a21.714,21.714,0,0,1,1.555,2.01c-.332,0-.529.265-.6.6-.661-.465-2.116-1.39-2.116-2.184a.678.678,0,0,1,.661-.726l.226.081m-1.349,22.667,1.232-.636a8.182,8.182,0,0,1,3.462-.752,6.7,6.7,0,0,1,4.365,1.587,4.063,4.063,0,0,0-1.787-.265,8.408,8.408,0,0,0-2.181.594l1.058-.926h-.594a8.98,8.98,0,0,0-3.11.794l.794-.926a4.98,4.98,0,0,0-1.523.116l-1.716.413m1.255-23.609-.061.319a.759.759,0,0,1-.732.474.794.794,0,1,1,0-1.587.759.759,0,0,1,.732.474l.061.319m1.058,4.168-.258.148-.206.248c-.529-.265-2.181-.994-2.181-1.655,0-.132.265-.858.529-.858.132,0,.577.461,1.032.958l1.084,1.158m-2.645-.6,2.049,1.19a.953.953,0,0,0-.065.729c-.729-.068-2.181-.661-2.181-1.523l.048-.248.148-.148m0-2.91.387.148.142.448a.47.47,0,0,1-.529.461c-.329,0-.594-.2-.594-.461a.58.58,0,0,1,.174-.448l.419-.148m.042,1.239.09.216c0,.265-.132.461-.4.461a.4.4,0,0,1,.068-.79l.239.113m-.106,1.01-.084.184-.181.081a.3.3,0,0,1-.265-.332l.2-.2.242.084.09.181m13.159,1.058-.626-.135a1.42,1.42,0,0,1-1.226-1.387l.132-.526a1.352,1.352,0,0,0,1.061.807l.461.052.245.29.348.239-.223.306-.174.355v.132c0,.794,1.387.926,1.916.794v.265A7.036,7.036,0,0,0,116,15.479a14.575,14.575,0,0,0-2.381.265l-.132.329a1.268,1.268,0,0,0,.332.661l-.132.132c-.265,0-.465-.4-.465-.661l.2-.461-.2.065a2.909,2.909,0,0,1-1.455-.461l-.132.265a.369.369,0,0,0-.4.329.4.4,0,0,0-.265.594.369.369,0,0,0-.2.332.486.486,0,0,0,.132.4c-.132,0-.2.132-.2.265a.444.444,0,0,0,.265.332v.2l-.068.068a.4.4,0,0,1-.394-.465.471.471,0,0,1-.2-.4.361.361,0,0,1,.2-.329l-.132-.268a.412.412,0,0,1,.261-.4l-.065-.129c0-.132.132-.332.265-.332v-.065a.253.253,0,0,1,.329-.2c.068-.2.2-.2.332-.2a8.771,8.771,0,0,1-3.571-4.3c-.132-.265-.465-1.058-.858-1.058h-.132a1.187,1.187,0,0,0-1.058-.265,1.108,1.108,0,0,0-.8-.329c-.2,0-.461.065-.529.2l-.79-.2a1.076,1.076,0,0,0-1.126,1.123v.465a.716.716,0,0,0-.461.661l.132.661c-.068,0-.2.132-.2.329l.132.4-.065.4.2.794c1.058,2.974,4.433,4.1,7.275,4.1a11.274,11.274,0,0,0,3.042-.4,14.286,14.286,0,0,0-1.39,3.239,3.652,3.652,0,0,1-1.452,2.449c-.861.594-1.987.461-2.978.594-1.123.132-2.581.8-2.581,2.116,0,.926.661,1.126.661,1.655,0,.661-1.52.99-1.52,2.116,0,.794.99,1.519,1.587,1.784a1.49,1.49,0,0,1-.661-.99c0-1.19,2.845-.6,2.845-2.249,0-1.058-1.323-1.72-1.323-2.778l.065-.265c.926-.594,2.91-.2,4.3-.794a3.785,3.785,0,0,0,1.952-1.916l.3-.926.116-.6.016-.6c-.665,3.042-1.855,4.168-4.83,4.236l-1.323.065a1.339,1.339,0,0,0-1.058,1.323l.332-.661v.132c0,1.058,1.255,1.784,1.255,2.778,0,1.323-2.052.99-2.645,1.72.4-1.323,2.449-.6,2.449-1.92a.607.607,0,0,0-.265-.529l.064.265a.668.668,0,0,1-.594.729l.065-.4c0-.994-.926-1.523-.926-2.184a.869.869,0,0,1,.2-.526.994.994,0,0,0-.461.726c0,.594.529.926.529,1.455,0,.594-.729.726-1.126.99.332-.329.861-.529.861-.99,0-.661-.661-.729-.661-1.455,0-1.255,1.323-1.984,2.381-2.116,1.058-.2,2.184.132,3.11-.6,1.452-.99,1.652-3.307,2.313-4.959a2.073,2.073,0,0,0,2.181,1.455,7.464,7.464,0,0,0,2.649-.661.439.439,0,0,0-.265.461.51.51,0,0,0,.461.529.523.523,0,0,0,.529-.529.536.536,0,0,0-.6-.529l1.258-.394a.669.669,0,0,0-.265.461c0,.265.2.4.465.4a.437.437,0,0,0,.461-.4.554.554,0,0,0-.461-.461h.461c.861,1.584,1.126,3.636,2.445,5.023a3.914,3.914,0,0,0,2.12,1.126l-.068.6.068.594a9.115,9.115,0,0,1-2.12-.594.919.919,0,0,1-.4-.729,1.586,1.586,0,0,1-.99,1.058l-.529.329.068.465c0,.2,0,.529-.2.594-.529,0-.132-.926-.661-.926s-.065,1.39-.529,1.39c-.4,0-.332-1.19-.6-1.19-.4,0-.065,1.455-.529,1.455-.526,0-.261-1.19-.726-1.19s-.265,1.058-.661,1.058c-.329,0-.265-.994-.329-1.258l-.6.068a6.548,6.548,0,0,0,3.5-2.449h.132a1.027,1.027,0,0,0,.861-.529,1.17,1.17,0,0,1-.661.265h-.265l.132-.2a1.164,1.164,0,0,0,.861-.794.9.9,0,0,1-.729.461l.2-.858a6.188,6.188,0,0,1-4.1,3.9,4.737,4.737,0,0,0-1.319.6,1.721,1.721,0,0,0-.6,1.058,1.757,1.757,0,0,1-.926.329h.861v.2a2.21,2.21,0,0,1-.994.332,2.232,2.232,0,0,0,.926,0v.261a1.464,1.464,0,0,1-.926.2,2.272,2.272,0,0,0,.926.065,2.664,2.664,0,0,0,.2.994v.065l.329-.065a.426.426,0,0,1,.4.329c0,.661-1.72,1.523-2.249,1.523-.265,0-.332-.065-.332-.265l.068-.332a2.559,2.559,0,0,0,1.571-.707l.216-.484-.252.4a3.082,3.082,0,0,1-1.536.6c-.068-.465-.332-.4-.661-.4-.2,0-.461-.068-.461-.332,0-.529,1.52-2.91,1.52-4.165,0-.465-.465-.6-.465-.926,0-.661,1.855-.661,1.855-2.513a2.879,2.879,0,0,0-.281-1.274l-.248-.377.3.677.1.774c0,2.052-1.987,1.655-1.987,2.713,0,.4.465.594.465.926,0,1.19-1.52,3.439-1.52,4.165,0,.661.529.6.99.6l.065.065c.132,0,.132.132.2.265l-.068.4.106.336.358.19.61-.129a3.784,3.784,0,0,0,1.574-.994.43.43,0,0,1,.261.332c0,.461-1.652,1.255-2.181,1.255l-.2-.068-.065-.2v-.2l-.052.232.052.232a7.038,7.038,0,0,0-3.439-.926,8.738,8.738,0,0,0-5.82,2.313,13.116,13.116,0,0,1,3.836-.99,7.625,7.625,0,0,0-.926,1.255,9.509,9.509,0,0,1,3.107-.99l.6-.132-1.916,1.652a10.385,10.385,0,0,1,3.9-1.255,17.542,17.542,0,0,1,1.92.2l-.265-.461a4.813,4.813,0,0,0,1.981.329.743.743,0,0,0,.4,0,5.043,5.043,0,0,1-.726-1.058l.132-.265c.265,0,.529,1.19,1.323,1.19l.332-.065-1.523-2.116a.7.7,0,0,0-.594-.332l.129-.529a.538.538,0,0,0-.526-.594l-.4.065v-.858c0-1.455.265-2.316,1.652-2.778h.729c0,.329-.068,1.255.461,1.255.6,0,.465-.926.661-1.123l.068.065c.065.4.132,1.126.658,1.126.4,0,.529-.729.529-1.058.068.265.2.794.465.926a2.884,2.884,0,0,0-.6,1.19V29.7c0,.4.465.461.794.529a6.72,6.72,0,0,1,3.174,1.852,1.708,1.708,0,0,1,.265.99c0,.132-.132.332-.265.332a1.5,1.5,0,0,1-.726.2,4.918,4.918,0,0,1-3.836-1.984,5.321,5.321,0,0,0,.329,1.72h-.132a1.04,1.04,0,0,0-1.187,1.058,1.114,1.114,0,0,0,1.123,1.126.741.741,0,0,0,.794-.661,1.125,1.125,0,0,0-.4-.661.988.988,0,0,1,.661-.2l.529.068a.8.8,0,0,0-.4.794l.132.594a5.615,5.615,0,0,1,3.107-.99h.265a6.3,6.3,0,0,1,2.513.461,3.067,3.067,0,0,0,1.326.2l1.387-.132-1.255-.926.132-.132c.461,0,.858.661,1.255.794l.132-.2c0-.661-1.455-1.916-2.116-1.916l.068-.465c0-.4-.268-.594-.665-.594l-.461.132c-.4-.2-2.316-1.587-2.316-2.052l.994-.794a5.009,5.009,0,0,0,1.916-1.984l.665.068v.529a1.291,1.291,0,0,0-.861,1.19l-.265.265c0,.332.726.661.994.726a.38.38,0,0,0,.4.4c.2,0,.265-.2.329-.4.265-.065.994-.394.994-.726a.284.284,0,0,0-.265-.265,1.212,1.212,0,0,0-.994-1.19v-.529c.926,0,3.042-.2,3.507-1.058h.661a.759.759,0,0,0,.726.4,4.049,4.049,0,0,1,1.39,1.587c.265.661-.068,1.523.99,1.455a5.572,5.572,0,0,1,1.323,2.645v.065a.853.853,0,0,0-.265.665.769.769,0,0,0,.858.726l.465-.068.2.265v.132l-.8.132c-.661,0-1.452-.329-1.452-1.058a.883.883,0,0,1,.132-.526h-.265a1.254,1.254,0,0,0-1.391,1.387l.2.794h-.532c-.4,0-1.452-.132-1.452-.661,0-.6.99-.729.99-1.387,0-.332-.332-.532-.661-.665a1.658,1.658,0,0,1,1.058-.329,1.82,1.82,0,0,1,1.19.461,2.485,2.485,0,0,0-2.313-1.72,2.667,2.667,0,0,0-2.449,2.645,2.541,2.541,0,0,0,2.842,2.581h.661v.065a1.516,1.516,0,0,0,.8,1.19c.661-.926,2.113-.794,3.107-.794a2.934,2.934,0,0,0,1.984-.726l1.323.132.6-.068a4.742,4.742,0,0,1-.729-.99l.2-.265a6.488,6.488,0,0,1,.926,1.058.312.312,0,0,0,.329-.332.679.679,0,0,0-.329-.529,3.149,3.149,0,0,1,1.716-.4l.994.132-.994.4a2.329,2.329,0,0,0-.594,1.523v.529a4.451,4.451,0,0,1,.594-.926,2.677,2.677,0,0,1,.994-.2l2.249.2,1.355-.168,1.355-.361a2.046,2.046,0,0,0,1.126.265,4.28,4.28,0,0,0,1.258-.265H149.6c-.4,0-.99-.265-.99-.661a.443.443,0,0,1,.265-.4l.726.065a3.088,3.088,0,0,0,1.387-.329l-.2,1.916a5.407,5.407,0,0,1,3.968-1.652,3.053,3.053,0,0,1,1.39.265c.594,1.852,2.578,1.652,3.107,2.645.332-.6,1.255-.794,1.852-1.19a2.58,2.58,0,0,0,1.19-1.455,3.75,3.75,0,0,1,1.455-.265,5.145,5.145,0,0,1,3.9,1.652,9.676,9.676,0,0,0-.132-1.916,3.291,3.291,0,0,0,1.326.329,5.14,5.14,0,0,0,1.387-.265,1.165,1.165,0,0,1,.265.794.946.946,0,0,1-1.123.994l.858.065c.794,0,1.984-.132,1.92-1.19.794,0,1.849.265,1.849,1.19a2.781,2.781,0,0,1-.264.994,2.283,2.283,0,0,0,1.194-2.249l.594-.068a5.211,5.211,0,0,0,2.445.661c.729,0,1.987-.265,2.184-1.123l.661-.132h.132a.721.721,0,0,1,.861.858,1.223,1.223,0,0,0,.329-.794.94.94,0,0,0-.594-.858,6.678,6.678,0,0,1,2.578-.529c.461,0,1.058.068,1.058.661,0,.661-1.19.594-1.655.529a2.437,2.437,0,0,0,2.581.926l.132.461c0,.6-1.058.729-1.523.794a4.522,4.522,0,0,0,1.326.132c.658,0,2.116-.2,2.313-1.058a3.653,3.653,0,0,0,3.11,1.587,2.21,2.21,0,0,0,2.049-.858,2.319,2.319,0,0,0,1.323.329c.794,0,3.439-.461,3.9-1.19l1.849.068a10.973,10.973,0,0,1,2.778.594A14.107,14.107,0,0,0,208,36.374a3.484,3.484,0,0,0,2.51-.926c1.787.265,3.639.926,5.426.926s4.033-.794,4.033-2.974c0-1.523-1.123-2.184-2.513-2.381a1.49,1.49,0,0,1,.994,1.39,4.742,4.742,0,0,0-1.39-.132h-.926c.726.2,1.52.658,1.52,1.52,0,1.123-.858,1.587-1.849,1.587l-1.258-.068c.661,0,2.116-.132,2.116-1.058a1.678,1.678,0,0,0-.4-.926l.068-.265a1.3,1.3,0,0,0-.661-.858l-.132.068-.2-.465a6.57,6.57,0,0,0-.861-1.852c-.594-.994-1.849-2.184-1.849-3.307,0-.99,1.123-2.845,1.52-3.968l.4-1.587a9.978,9.978,0,0,0,.2-1.916l-.068-.729v.265a7.451,7.451,0,0,1-4.365-2.316l-.2-1.452c.926.926,2.649,3.042,4.036,3.042h.2c-1.387-.4-3.239-2.184-4.3-3.174-.132-1.458-.461-2.91-.661-4.433a12.95,12.95,0,0,1,4.826,4.433,14.541,14.541,0,0,1,2.316,8.133v.926c0,1.126.926,1.72.926,2.645,0,.265-.132.329-.332.329-.4-1.255-.923-1.187-.99-2.842l-.065.461c0,1.39.858,2.052.858,2.645,0,.2-.068.265-.265.265-.529-1.19-1.123-1.19-1.123-2.778,0-.926.2-1.849.2-2.774a6.117,6.117,0,0,0-.558-2.671l-.5-.7.413.739a6.193,6.193,0,0,1,.448,2.436c0,.994-.265,1.852-.265,2.842,0,1.852,1.387,2.713,1.387,3.9a2.017,2.017,0,0,1-.329.861l.2.065a3.307,3.307,0,0,0,1.455-2.449c0-1.055-.729-1.387-1.126-2.249a6.752,6.752,0,0,1-.065-2.313,7.628,7.628,0,0,0-.2-1.72,14.573,14.573,0,0,0-2.778-6.878c-3.174-3.771-8.462-5.82-13.227-6.481a38.291,38.291,0,0,0-5.488-.4,4.444,4.444,0,0,0-1.852-.661,3.453,3.453,0,0,0-2.978-1.92,3.276,3.276,0,0,0-1.387.332,4.5,4.5,0,0,0-2.116-.465,3.757,3.757,0,0,0-2.978,1.987c-.99,1.452-2.245,1.984-2.975,3.7a9.028,9.028,0,0,0-.465,2.252c-.329.265-1.123.99-1.123,1.452,0,.332.465.332.661.4a7.453,7.453,0,0,0-.726,2.252c-.529,0-1.126-.4-1.655-.4-.2,0-.4.065-.4.329,0,.529,1.126,1.123,1.523,1.255a11.6,11.6,0,0,0-.8,3.639c0,2.116.665,4.233,2.978,4.762l.661.068a3.607,3.607,0,0,0,2.91-1.655c.6-.332,1.984-.6,1.984-1.455,0-.529-.726-.461-1.058-.461h-.329c-.068-.332-.4-1.39-.8-1.39-.594,0-.661,1.058-.661,1.455a3.152,3.152,0,0,1-1.716.926c-.665,0-.8-.529-.8-1.058,0-1.587,1.258-3.107,2.381-4.1l-.129.794.129.332c.265,0,1.458-1.655,2.649-1.655.726,0,1.387.2,2.116.2a4.482,4.482,0,0,0,1.587-.265v.2a.747.747,0,0,0,.2.529.993.993,0,0,0-.265.6c0,.132.132.265.265.4l-.132.394a.525.525,0,0,0,.2.465,1.536,1.536,0,0,0-.2.726.689.689,0,0,0,.461.661c-.658,2.381-5.488,2.381-6.085,6.02l-.065-.2c-.332.068-.661.265-.661.661l.132.465c-.4.132-.99.461-.99.994,0,.79,1.584,1.319,2.181,1.519l-.529-.068a5.261,5.261,0,0,0-3.439,1.258l-.332.265v-.065a.938.938,0,0,0-.658-.929,4.848,4.848,0,0,0,.461-1.916l-.068-.465a2.888,2.888,0,0,1-1.187.994,5.749,5.749,0,0,0-1.326-1.984l.068.794a4.057,4.057,0,0,1-1.255,3.174,5.2,5.2,0,0,1-1.19.926v-.2a3.723,3.723,0,0,0-.665-1.987c-.329,1.19-1.058,2.381-2.445,2.381a2.4,2.4,0,0,1-1.19-.265v-.129a3.884,3.884,0,0,0-.332-1.523,3.062,3.062,0,0,1,1.787-.729,1.316,1.316,0,0,1,.729.132l.065-.461a2.446,2.446,0,0,0-1.123-1.92,5.92,5.92,0,0,1,3.174-.726l1.652.065a4.542,4.542,0,0,0-3.307-1.19,6.525,6.525,0,0,0-1.587.2l1.058-1.387c.265-.068.265-.2.461-.4a5.644,5.644,0,0,1,2.052-1.123h.529a3.636,3.636,0,0,0-1.455-.4l-.926.132a3.94,3.94,0,0,1,2.116-1.72,2.4,2.4,0,0,0-.99-.2,2.62,2.62,0,0,0-1.587.465,10.451,10.451,0,0,1,2.778-4.365h-.332a4.1,4.1,0,0,0-2.71,1.655,36.267,36.267,0,0,1,3.239-5.623c-2.513.661-4.033,3.175-5.026,5.359a26.588,26.588,0,0,1,4.83-8.269c-2.449.6-4.1,2.778-5.426,4.829V11.972l.661.132a1.444,1.444,0,0,0,1.458-1.52,2,2,0,0,0-.661-1.455c-.729-.794-1.458-1.723-2.249-2.449a1.387,1.387,0,0,0-.729-.265,1.815,1.815,0,0,0-1.19.661A8.423,8.423,0,0,1,165.6,8.4l-.994.265a6.581,6.581,0,0,0-3.5-3.174,5.788,5.788,0,0,0-1.852-.329,6.318,6.318,0,0,0-5.423,3.307l-.2-.068a7.662,7.662,0,0,1-2.381-1.323A1.8,1.8,0,0,0,150,6.417a1.184,1.184,0,0,0-.594.265c-.861.726-1.523,1.655-2.316,2.449a2,2,0,0,0-.661,1.455,1.441,1.441,0,0,0,1.455,1.52l.6-.132v3.507c-1.258-2.052-2.91-4.233-5.423-4.829a24.407,24.407,0,0,1,4.891,8.269c-1.055-2.184-2.578-4.7-5.023-5.359a31.594,31.594,0,0,1,3.174,5.623,3.416,3.416,0,0,0-2.978-1.655,9.882,9.882,0,0,1,2.778,4.365,2.627,2.627,0,0,0-1.587-.465,2.4,2.4,0,0,0-.99.2,4.648,4.648,0,0,1,2.181,1.72l-.994-.132a3.635,3.635,0,0,0-1.452.4,3.841,3.841,0,0,1,2.578,1.123.706.706,0,0,0,.465.4l1.055,1.387a6.621,6.621,0,0,0-1.652-.2,4.8,4.8,0,0,0-3.371,1.19l1.52-.132a6.854,6.854,0,0,1,3.242.729,3.317,3.317,0,0,0-1.587,2.445,1.3,1.3,0,0,1,.726-.132,3.045,3.045,0,0,1,1.784.729l-.329,1.455a4.038,4.038,0,0,1-1.587.4c-1.058,0-2.71-.529-2.71-1.852a2.472,2.472,0,0,1,1.055-1.916l-.658-.068a1.722,1.722,0,0,0-1.72,1.784l-.532.729-.132.6.068.461a2.753,2.753,0,0,0-1.255-.329,7.45,7.45,0,0,0-1.723.394,2.032,2.032,0,0,0-.858-.526,1.3,1.3,0,0,0,.265-.8c0-.594-.661-.661-1.123-.594l-.994-2.052a.626.626,0,0,0,.132-.461c0-.729-.529-1.058-.729-1.655l.729.068c1.519,0,2.778-1.058,4.365-1.058v.2l-.661.594h-.065a.847.847,0,0,0-.661.726l.132.2c-.265,0-.665.132-.665.4,0,.2.265.265.332.461a1.65,1.65,0,0,0-.861,1.455,2.707,2.707,0,0,0,.265,1.258,3.131,3.131,0,0,0,1.39-1.058,8.3,8.3,0,0,1-.329,1.19,2.321,2.321,0,0,0,1.52-1.852.531.531,0,0,0,.329-.332h.332l.2-.065a.726.726,0,0,0,.665-.729.921.921,0,0,0-.465-.794v-.065c0-.661,1.323-1.52,1.323-2.713,0-.858-.858-.99-1.523-1.123a17.862,17.862,0,0,1-2.51-.4l.265-.329a1.471,1.471,0,0,0,.858-1.258,2.524,2.524,0,0,0-.4-1.19,1.25,1.25,0,0,0,.2-.529,1.257,1.257,0,0,0-.332-.661,1.221,1.221,0,0,0-.594-1.123,3.083,3.083,0,0,0,.4-1.523,3.731,3.731,0,0,0-1.59-2.91l.794-.858c.4-.068,1.92.065,1.92-.729l-.2-.661c.526-.065.526-.329.526-.794l.132-.2-.065-.265V9.988c0-.4.529-.332.529-.661a6.917,6.917,0,0,0-.861-1.455,3.975,3.975,0,0,1-.065-1.523,1.473,1.473,0,0,0-.4-1.123V4.962a.679.679,0,0,0-.329-.529c0-.794-.132-1.652-1.126-1.784l.068.265-.2.923a4.6,4.6,0,0,0-1.587-.329,4.668,4.668,0,0,0-1.655.329l-.065-.4a1.305,1.305,0,0,1,.132-.726A2.227,2.227,0,0,0,133.791,4.7a4.035,4.035,0,0,0-1.452,3.771c-.068-.132-.332-.2-.465-.2a1.494,1.494,0,0,0-.926.4l.132.265a1.2,1.2,0,0,0-1.058.6,1.239,1.239,0,0,0,.794.529l-.265.594,1.058.265-.332.6h-.065c-1.255-1.39-3.439-1.984-5.159-2.645a25.374,25.374,0,0,1-4.433-2.252L117.457,4.1a1.925,1.925,0,0,0-.726,1.326c0,.858.99,1.452,1.716,1.584l-.2.861c0,.926.861,1.323,1.587,1.455v.2c0,.926.858,1.19,1.652,1.123a.633.633,0,0,0,.132.465,1.46,1.46,0,0,0,1.39.461c0,.332.068.6.332.729l-1.723-.729c-3.836-1.655-7.8-3.174-11.637-4.962a2.067,2.067,0,0,0-.4,1.058c0,1.126,1.584,1.39,2.378,1.523l-.065.794a2.154,2.154,0,0,0,2.313,2.316,1.756,1.756,0,0,0-.2.79c0,.845.707,1.278,1.423,1.442l.694.081M97.287,26.061h-.6c-1.455,5.552-3.571,8.2-9.062,8.2-5.82,0-6.943-.858-6.943-7.339V18.85h2.978c3.965,0,6.481.858,6.81,5.62H91l-.132-6.414L91,12.3h-.529c-.329,4.3-3.5,5.423-7.01,5.423H80.686V3.242H82.8c3.507,0,8.6.132,10.782,3.768a14.421,14.421,0,0,1,1.452,4.5h.532c-.135-1.984-.135-3.839-.135-5.82l.135-3.968a139.25,139.25,0,0,1-16.6.529L69.775,2.12v.594c3.636.2,4.891.661,4.891,4.826V30.025c0,4.1-1.319,4.565-4.891,4.829v.529c3.439-.132,6.943-.132,10.382-.132a148.726,148.726,0,0,1,16.269.529l.355-4.862.506-4.859M66.733,35.384v-.529c-3.571-.265-4.962-.729-4.962-4.829V7.539c0-4.1,1.323-4.626,4.962-4.826V2.12l-8,.132L50.86,2.12v.594c3.7.2,4.891.661,4.891,4.826v9.988l-8.594.068H40.74V7.539c0-4.1,1.323-4.626,4.959-4.826V2.12l-7.933.132L29.893,2.12v.594c3.639.2,4.894.661,4.894,4.826V30.025c0,4.1-1.323,4.565-4.894,4.829v.529l7.872-.132,7.933.132v-.529c-3.571-.265-4.959-.729-4.959-4.829V18.586l7.275-.065,7.736.065v11.44c0,4.1-1.19,4.565-4.891,4.829v.529l7.869-.132,8,.132M28.106,12.237l-.065-6.614.065-3.836a47.05,47.05,0,0,1-5.223.332L16.6,2.184h-5.03L5.159,2.12A44.388,44.388,0,0,1,0,1.787L.068,5.623,0,12.237H.465C1.587,6.746,2.578,3.174,9.856,3.174h1.058l.132,9.591v17.26c0,3.639-1.323,4.5-5.559,4.829v.529l8.6-.132,8.53.132v-.529C18.45,34.523,17,33.665,17,30.025V12.766l.132-9.591h1.187c6.614,0,8.269,3.9,9.262,9.062h.526" transform="translate(0 0)" fill="#fff"/>
  </g>
</svg>
