<svg xmlns="http://www.w3.org/2000/svg" width="242.803" height="49.463" viewBox="0 0 242.803 49.463">
  <g id="Sportstar" transform="translate(0 0)">
    <path id="Path_3289" data-name="Path 3289" d="M0,0,1.795,4.068,0,8.135H2.811l1.8-4.067L2.811,0Z" transform="translate(0 0.678)" fill="#fff"/>
    <path id="Path_3290" data-name="Path 3290" d="M-1.19-2.7-2.985-6.766h1.616L.425-2.7-1.369,1.37H-2.985Z" transform="translate(6.813 7.444)" fill="#fff"/>
    <path id="Path_3291" data-name="Path 3291" d="M0-22.906C.468-13.335,5.02-8.047,12.717-7.981c7.362.067,12.649-4.752,12.649-12.716,0-4.886-2.008-9.705-6.894-14.056L14.39-38.433c-2.744-2.476-4.15-4.15-4.15-6.693,0-2.342,1-3.681,2.677-3.681,2.142,0,2.945,2.209,3.346,5.622l8.7-.335c-.669-9.169-4.819-13.854-11.914-13.921S.8-52.623.737-44.457A16.983,16.983,0,0,0,6.894-31.205l4.082,3.681c2.945,2.543,4.485,4.752,4.485,7.362,0,2.342-1.138,3.614-2.878,3.614-2.342,0-3.48-2.409-4.016-6.76ZM28.043-8.783h9.571l-.067-4.886V-27.056h1.741c10.441,0,12.984-6.559,12.984-14.724v-.134c0-8.165-2.611-14.724-13.185-14.724H28.043l.067,4.886V-13.67Zm9.5-26.237V-48.607h1.071c3.48,0,4.283,2.811,4.283,6.559v.4c0,3.615-.8,6.626-4.283,6.626ZM66.861-7.981c3.882,0,6.626-1,8.5-2.878,2.543-2.477,3.815-6.492,3.815-15.729V-38.768c0-9.035-1.2-13.252-3.815-15.8-1.874-1.807-4.618-2.878-8.5-2.878s-6.559,1.071-8.5,2.878c-2.61,2.543-3.748,6.76-3.748,15.8v12.181c0,9.237,1.2,13.252,3.748,15.729,1.941,1.874,4.618,2.878,8.5,2.878m0-8.634c-2.744,0-2.744-2.945-2.744-8.1V-40.776c0-5.087,0-8.032,2.744-8.032,2.811,0,2.811,2.945,2.811,8.032v16.063c0,5.154,0,8.1-2.811,8.1M94.368-27.859,98.317-8.783h9.973L103.07-30.469c3.146-2.543,4.351-6.693,4.351-11.445v-.134c0-7.965-2.611-14.59-12.984-14.59H83.191l.067,4.886V-13.67l-.067,4.886h9.571L92.7-13.67V-27.859ZM92.7-48.607h1.071c3.481,0,4.284,2.811,4.284,6.359v.2c0,3.481-.8,6.359-4.351,6.359h-1Zm38.284.2v-8.232h-23.09v8.232h6.826V-13.67l-.067,4.886h9.571l-.067-4.886V-48.406Zm1,25.5C132.451-13.335,137-8.047,144.7-7.981c7.362.067,12.649-4.752,12.649-12.716,0-4.886-2.008-9.705-6.894-14.056l-4.082-3.681c-2.744-2.476-4.15-4.15-4.15-6.693,0-2.342,1-3.681,2.677-3.681,2.142,0,2.945,2.209,3.346,5.622l8.7-.335c-.669-9.169-4.819-13.854-11.914-13.921s-12.248,4.819-12.315,12.984a16.983,16.983,0,0,0,6.158,13.252l4.082,3.681c2.945,2.543,4.485,4.752,4.485,7.362,0,2.342-1.138,3.614-2.878,3.614-2.342,0-3.481-2.409-4.016-6.76Zm49.059-25.5v-8.232h-23.09v8.232h6.826V-13.67l-.067,4.886h9.571l-.067-4.886V-48.406Zm8.634,30.453h6.692l1.071,9.169h9.3l-7.228-47.855H186.6L179.436-8.783H188.6Zm2.409-19.878c.335-2.41.669-5.89.87-7.764h.268c.134,1.873.469,5.354.8,7.764l1.339,11.512h-4.685Zm28.044,9.972,3.948,19.075h9.973l-5.221-21.685c3.146-2.543,4.351-6.693,4.351-11.445v-.134c0-7.965-2.61-14.59-12.984-14.59H208.951l.067,4.886V-13.67l-.067,4.886h9.571l-.067-4.886V-27.859Zm-1.673-20.748h1.071c3.48,0,4.283,2.811,4.283,6.359v.2c0,3.481-.8,6.359-4.351,6.359h-1Z" transform="translate(8.753 57.442)" fill="#fff"/>
    <path id="Path_3292" data-name="Path 3292" d="M0-32.806H242.8V-82.268H0Z" transform="translate(0 82.268)" fill="none"/>
  </g>
</svg>
