<svg xmlns="http://www.w3.org/2000/svg" width="360.814" height="45.855" viewBox="0 0 360.814 45.855">
  <g id="BusinessLine" transform="translate(0)">
    <g id="BL_epaper" data-name="BL epaper" transform="translate(0)">
      <g id="Group_3043" data-name="Group 3043">
        <path id="Path_129" data-name="Path 129" d="M-9.576-14.152a7.4,7.4,0,0,1-7.4-7.4,7.4,7.4,0,0,1,7.4-7.4,7.4,7.4,0,0,1,7.4,7.4A7.4,7.4,0,0,1-9.576-14.152Zm0-14.2a6.81,6.81,0,0,0-6.8,6.8,6.81,6.81,0,0,0,6.8,6.8,6.81,6.81,0,0,0,6.8-6.8A6.81,6.81,0,0,0-9.576-28.351Z" transform="translate(362.994 60.008)" fill="#fff"/>
        <path id="Path_130" data-name="Path 130" d="M-2.752-5.5A4.009,4.009,0,0,0,1.257-9.513a4.009,4.009,0,0,0-4.009-4.01,4.009,4.009,0,0,0-4.009,4.01A4.009,4.009,0,0,0-2.752-5.5" transform="translate(356.17 47.973)" fill="#fff"/>
        <path id="Path_127" data-name="Path 127" d="M-16.275-41.523l-.2-.394-.788-.066c-2.3-.2-2.759-.394-2.759-.92V-85.589l-13.463,3.284-.066.263,1.445.394c2.3.591,2.692,1.116,2.692,5.056v33.559c0,.788-.328.92-2.364,1.051l-.854.066-.263.394Zm10.31-32.639A5.366,5.366,0,0,0-.383-79.547a5.29,5.29,0,0,0-5.582-5.385,5.329,5.329,0,0,0-5.582,5.385,5.408,5.408,0,0,0,5.582,5.385M3.1-41.523l-.2-.394-.525-.066c-2.955-.394-3.415-.394-3.415-.92V-70.681L-14.5-66.938l-.065.262,1.511.329c2.3.525,2.692,1.182,2.692,5.188v18.126c0,.788-.722.854-2.758,1.051l-.788.066-.2.394Zm18.848,0-.131-.394-.985-.066c-2.3-.131-2.561-.394-2.561-.92V-63.917A8.358,8.358,0,0,1,22.931-65.3c2.889,0,5.057,1.313,5.057,5.582v16.68c0,.526.131.92-2.168,1.051l-1.182.066-.2.394H41.45l-.2-.394-.591-.066c-3.087-.328-3.415-.525-3.415-.985V-60.633c0-3.152-.591-6.3-2.1-7.881a6.768,6.768,0,0,0-5.254-2.3c-4.269,0-8.341,3.415-11.559,6.042h-.065l.2-5.911L4.8-66.938l-.065.262,1.51.329c2.3.525,2.693,1.182,2.693,5.188v18.126c0,.788-.722.854-2.758,1.051l-.788.066-.2.394Zm30.734-19.7c.525-5.779,2.824-8.8,5.122-8.8,3.349,0,4.072,4.86,4.072,8.8Zm4.072,20.752c7.093,0,11.427-3.546,13.988-10.113l-.394-.2A8.125,8.125,0,0,1,62.4-45.66c-6.042,0-9.851-4.991-9.851-12.018a13.564,13.564,0,0,1,.065-2.824c1.9,0,6.239.131,10.245.2l7.487.131a8.085,8.085,0,0,0,.131-1.248c0-4.006-3.349-9.522-11.755-9.522-8.866,0-16.09,6.633-16.09,15.827,0,8.275,6.042,14.645,14.12,14.645" transform="translate(272.521 85.721)" fill="#fff"/>
        <path id="Path_128" data-name="Path 128" d="M-19-41.894c-2.167,0-4.794-2.561-6.7-5.911V-64.222c1.51-1.117,2.824-2.233,5.122-2.233,4.465,0,7.158,4.925,7.158,11.755,0,7.027-1.97,12.806-5.582,12.806m-15.564,1.182,5.32-2.561h.065a25.917,25.917,0,0,0,9.522,2.036c7.29,0,16.353-4.992,16.353-15.827,0-8.078-5.254-14.119-11.821-14.119-4.137,0-7.946,2.889-10.311,6.108l-.263-.2V-86.354l-13.4,3.284-.066.263,1.511.394c2.3.591,2.692,1.117,2.692,5.057v36.645Zm67.446-4.4.066-.263L31.308-45.7c-2.168-.46-2.561-1.248-2.561-4.991V-70.461H14.956l.2.394.919.066c2.955.2,3.415.2,3.415.92v20.949a7.409,7.409,0,0,1-4.137,1.379c-3.152,0-5.254-1.379-5.188-5.516l.2-18.192H-3.63l.2.394.92.066c3.349.263,3.612.525,3.612.788L.836-51.547c-.066,3.349.525,6.3,2.1,7.88s2.561,2.43,4.86,2.43c4.334,0,8.274-3.087,11.624-6.108h.2l-.263,6.239Zm11.887,3.875c8.669,0,12.281-4.794,12.281-9.785,0-5.516-4.86-7.552-9-9.26-3.743-1.576-7.027-2.758-7.027-5.779,0-2.955,1.773-4.728,4.6-4.728a7.027,7.027,0,0,1,3.546,1.051l6.107,8.012.263-.131-.329-9-3.021.591a21.989,21.989,0,0,0-6.436-1.117c-6.83,0-11.427,3.744-11.427,9.654,0,5.056,3.94,7.093,8.8,9.063,3.678,1.511,6.83,2.824,6.83,6.042,0,2.955-1.9,4.794-4.992,4.794-4.137,0-5.779-2.3-8.669-6.633l-1.773-2.693-.263-.131.2,8.275a28.575,28.575,0,0,0,10.311,1.773M68.085-74.8a5.367,5.367,0,0,0,5.582-5.385,5.29,5.29,0,0,0-5.582-5.385A5.328,5.328,0,0,0,62.5-80.181,5.407,5.407,0,0,0,68.085-74.8m9.063,32.639-.2-.394-.526-.065c-2.955-.394-3.415-.394-3.415-.92V-71.315L59.547-67.572l-.066.263,1.511.328c2.3.526,2.693,1.182,2.693,5.188v18.126c0,.788-.722.854-2.759,1.051l-.788.065-.2.394Zm18.848,0-.131-.394-.985-.065c-2.3-.131-2.561-.394-2.561-.92V-64.551A8.359,8.359,0,0,1,96.98-65.93c2.89,0,5.057,1.313,5.057,5.582v16.681c0,.525.131.92-2.167,1.051l-1.182.065-.2.394H115.5l-.2-.394-.591-.065c-3.087-.328-3.415-.526-3.415-.985V-61.267c0-3.153-.591-6.3-2.1-7.881a6.765,6.765,0,0,0-5.254-2.3c-4.269,0-8.34,3.415-11.558,6.042h-.066l.2-5.911-13.66,3.743-.066.263,1.511.328c2.3.526,2.692,1.182,2.692,5.188v18.126c0,.788-.722.854-2.758,1.051l-.788.065-.2.394Zm30.734-19.7c.526-5.779,2.824-8.8,5.122-8.8,3.35,0,4.072,4.86,4.072,8.8ZM130.8-41.106c7.092,0,11.427-3.546,13.988-10.114l-.394-.2a8.125,8.125,0,0,1-7.946,5.122c-6.042,0-9.851-4.991-9.851-12.018a13.527,13.527,0,0,1,.066-2.824c1.9,0,6.239.131,10.245.2l7.487.132a8.026,8.026,0,0,0,.131-1.248c0-4.006-3.349-9.522-11.755-9.522-8.866,0-16.09,6.633-16.09,15.827,0,8.275,6.042,14.645,14.12,14.645m27.385-.131c8.669,0,12.281-4.794,12.281-9.785,0-5.516-4.86-7.552-9-9.26-3.743-1.576-7.027-2.758-7.027-5.779,0-2.955,1.773-4.728,4.6-4.728a7.027,7.027,0,0,1,3.546,1.051l6.107,8.012.263-.131-.328-9-3.021.591a21.99,21.99,0,0,0-6.436-1.117c-6.83,0-11.427,3.744-11.427,9.654,0,5.056,3.94,7.093,8.8,9.063,3.678,1.511,6.83,2.824,6.83,6.042,0,2.955-1.9,4.794-4.992,4.794-4.137,0-5.779-2.3-8.669-6.633l-1.773-2.693-.263-.131.2,8.275a28.575,28.575,0,0,0,10.311,1.773m26.006,0c8.669,0,12.281-4.794,12.281-9.785,0-5.516-4.86-7.552-9-9.26-3.743-1.576-7.027-2.758-7.027-5.779,0-2.955,1.773-4.728,4.6-4.728a7.029,7.029,0,0,1,3.546,1.051l6.107,8.012.263-.131-.328-9-3.021.591a21.989,21.989,0,0,0-6.436-1.117c-6.83,0-11.427,3.744-11.427,9.654,0,5.056,3.94,7.093,8.8,9.063,3.678,1.511,6.83,2.824,6.83,6.042,0,2.955-1.9,4.794-4.991,4.794-4.137,0-5.779-2.3-8.669-6.633l-1.773-2.693-.263-.131.2,8.275a28.575,28.575,0,0,0,10.311,1.773" transform="translate(39.159 86.354)" fill="#fff"/>
        <path id="Path_131" data-name="Path 131" d="M0-43.008H358.645V-88.65H0Z" transform="translate(0 88.65)" fill="none"/>
        <path id="Path_1015" data-name="Path 1015" d="M84.435.587V.459L83.1.488,81.542.459V.587c1.16.057,1.447.5,1.447,1.733V4.97c0,1.6-.53,2.506-2.091,2.506-1.447,0-1.833-.93-1.833-2.391V1.619c0-.874.286-.988,1.06-1.031V.459L78.434.488,76.716.459V.587c.773.043,1.059.143,1.059,1.031V5.5c0,1.832,1.5,2.262,2.893,2.262A2.346,2.346,0,0,0,83.289,5.1V2.321c0-.89.055-1.505.788-1.684ZM75.026,4.182,75,4.814c-.111,1.408-.635,2.337-1.939,2.575a2.464,2.464,0,0,1-.587.043c-.716-.015-.989-.33-.989-1.117V.773A3.2,3.2,0,0,1,72.133.7C74,.7,74.909,1.948,75.015,3.8l.01.379m.237,2.7.235-.2a3.481,3.481,0,0,0,.947-2.647c0-2.607-1.876-3.58-4.038-3.58L70.888.488,69.126.459V.587c.788.043,1.06.143,1.06,1.045V6.5c0,.888-.287.988-1.06,1.046v.115l1.748-.029c.4,0,.8.029,1.2.043a5.761,5.761,0,0,0,1-.029,4.553,4.553,0,0,0,1.927-.584l.257-.176M68.754.587V.459L67.565.488,66.076.459V.587c1.174.043,1.346.773,1.346,1.9v3.78L62.568.473H60.691V.6a1.863,1.863,0,0,1,.63.1c.6.243.659,1.088.659,1.69V5.628c0,.93,0,1.847-1.045,1.919v.115c.4-.015.816-.043,1.217-.043.487,0,.96.029,1.432.043V7.547c-1.117-.072-1.318-.831-1.318-1.919V2.105l4.7,5.642h.745V2.492c0-.833.025-1.728.866-1.884l.18-.021M60.29,7.662V7.547c-.773-.057-1.074-.158-1.074-1.046V1.633c0-.888.287-1,1.074-1.045V.459l-1.7.029L56.868.459V.587c.787.043,1.06.143,1.06,1.045V6.5c0,.888-.287.988-1.06,1.046v.115l1.718-.029,1.7.029m-4.067,0V7.547c-.759-.057-1.074-.158-1.074-1.046V1.633c0-.888.3-1,1.074-1.045V.459L54.491.488,52.8.459V.587c.788.043,1.046.143,1.046,1.045V3.8L52,3.81H50.609V1.633c0-.888.272-1,1.06-1.045V.459l-1.7.029L48.247.459V.587c.787.043,1.059.143,1.059,1.045V6.5c0,.888-.286.988-1.059,1.046v.115l1.718-.029,1.7.029V7.547c-.773-.057-1.06-.158-1.06-1.046V4.024l1.575-.014,1.661.014V6.5c0,.888-.258.988-1.046,1.046v.115l1.691-.029,1.732.029M46.6,7.332l.086-.025.086-.046.057.229c-.043,0-.057.029-.1.043l-.043-.116L46.6,7.332m-.172.244H46.3c.015-.115.057-.2.173-.2.1,0,.157.1.172.186l-.215.015M46.2,4.082h.014V4.1m-.029.143-.043-.028c0-.029.014-.057.043-.057a.038.038,0,0,1,.043.043l-.011.032-.032.01m.015-.1-.057.029L46.113,4.1a.046.046,0,0,0,.043-.043h.015v.029l.029.057m-.143-.071-.014-.015.014-.029.029.029m-.057.129-.057-.029c0-.029.029-.043.057-.043s.029.015.029.043l-.029.029M46.041,4l-.015.043.015.043a.1.1,0,0,0-.072.043V4.11l-.029-.071h.015L46.013,4h.029m-.115,3.523.054-.126a.135.135,0,0,1,.118-.061c.1,0,.114.158.114.215v.014l-.286-.043M45.912,4,45.9,3.982l.014-.015.015.015m-.043-.072v.057l.015.057-.015-.014-.071.029.014-.029L45.8,3.967l.054-.018m.022.16-.032.016L45.8,4.082l.015-.029h.029c.029,0,.043.015.043.029l-.01.027m-.089-.2L45.769,3.9l.015-.015L45.8,3.9m-.065-.029.008.043-.043.015a.088.088,0,0,0,0-.086l.043-.015h.029l-.036.043m-.05,3.709.029-.029.143.029m-.172-3.623.029-.015.029.043-.029.043a.046.046,0,0,1-.043-.043V3.967l.015-.014m0-.187-.015.029-.014-.029.014-.015m.262,3.387.3.036a.9.9,0,0,0,.458-.1l.086.085a.736.736,0,0,1-.4.129c-.143,0-.687-.057-.731-.214l.015-.015.276.079m-.276.307-.029-.014c0-.057.029-.187.115-.187s.115.086.115.158l-.014.086-.086-.015c.014-.043.043-.071.043-.115l-.066.049-.077.037m-.043.215.043-.043a8.577,8.577,0,0,0,1.046.115.462.462,0,0,0,.516-.43A.3.3,0,0,0,47.1,7.06a.4.4,0,0,1,.23.057A.162.162,0,0,0,47.373,7a.32.32,0,0,0-.086-.2.5.5,0,0,1,.272.43c0,.43-.459.573-.788.573a5.5,5.5,0,0,1-.7-.1l-.224-.027-.235-.016m-.057-3.838h.029c.029,0,.043,0,.043.029a.038.038,0,0,1-.043.043l-.029-.015V3.824l-.014-.229.1.129-.014.072-.031,0m-.141,3.734.1-.129-.014.029.029.057M45.411,3.9l.031.066.011.078c0,.029-.015.157-.043.157s-.029-.129-.029-.157l0-.078.025-.066m0,1.156,0,.089-.029.143c-.029,0-.029-.129-.029-.158s0-.143.029-.143l.025.068m0-2.03,0,.04-.013.017c-.029.015-.057-.187-.057-.229l.015-.057c.014-.007.029.043.039.1l.018.131m0,1.5.044.018.013.039a.068.068,0,0,1-.071.072.079.079,0,0,1-.057-.072l.025-.039.047-.018m.023-1.1.02.045a.065.065,0,0,1-.071.057.061.061,0,0,1-.057-.057.052.052,0,0,1,.057-.057l.052.013M45.4,5.476l.025.052a.076.076,0,0,1-.071.071c-.057,0-.086-.029-.086-.071s.029-.072.086-.072l.046.02m.011-1.709-.067-.061a.353.353,0,0,1-.091-.226.4.4,0,0,1,.1-.243.307.307,0,0,0-.057.214l.03.174.085.141m-.015.558-.077.131L45.3,4.6a.4.4,0,0,0,.057.258A.425.425,0,0,1,45.24,4.6l.041-.147.116-.126M45.168,5.4l.031-.041.041-.031-.043.087m.015-3.007.052.013.02.045a.065.065,0,0,1-.071.057.062.062,0,0,1-.057-.057l.018-.045.039-.013m0,.315-.118-.129a.317.317,0,0,1-.054-.172.421.421,0,0,1,.1-.229.48.48,0,0,0-.043.215l.03.168.085.147M45.182,4l-.038.159-.092.127A.392.392,0,0,0,45.125,4a.534.534,0,0,0-.1-.286.365.365,0,0,1,.147.2l.01.083m-.043,3.122-.007-.089-.05-.068h-.057a.822.822,0,0,1,.315-.472.843.843,0,0,1,.358.5h-.086l-.124-.18-.177-.136a.978.978,0,0,1,.072.344.53.53,0,0,1-.086.3l-.063-.111-.1-.089M45.031,5.4l.065-.02a.072.072,0,0,1,0,.144c-.057,0-.087-.029-.087-.072l.022-.052m-.007-.922L45,4.6l-.015-.1a.136.136,0,0,1,.029-.1l.015.086m.054-1.575.034.075.013.083a.425.425,0,0,1-.115.258.558.558,0,0,0,.058-.258.377.377,0,0,0-.1-.272l.111.115m-.054,1.031.047.023L45.1,4a.093.093,0,0,1-.072.086c-.043,0-.057-.043-.057-.086l.018-.04.039-.017m-.057,1.346.064-.125.022-.147a.453.453,0,0,0-.072-.272A.405.405,0,0,1,45.11,5a.331.331,0,0,1-.045.159l-.1.127m.057-1.7-.011.085-.032.073-.029-.158.029-.171c.022,0,.032.039.038.08l.006.091m-.115,1.9.143-.222a.511.511,0,0,0,.1-.222c0-.157-.115-.3-.115-.472,0-.229.243-.344.243-.544s-.2-.3-.2-.5.143-.314.143-.5c0-.243-.315-.272-.315-.615,0-.129.1-.229.071-.358l.029.115-.043.244.014.105c.064.22.316.272.316.51,0,.187-.143.33-.143.5s.2.3.2.5-.229.344-.229.558c0,.158.1.3.1.458a.37.37,0,0,1-.115.244l-.2.2M44.9,2.864V2.793a.192.192,0,0,1,.029-.129l.015.071-.043.129m.072.129.047.027.025.059a.1.1,0,0,1-.072.057.076.076,0,0,1-.072-.071l.025-.047.047-.025m.1,4.2-.031.138-.085.105H44.9l-.071-.244m.1-5.083L44.9,2.15l-.034.013c-.043,0-.071-.015-.071-.057a.065.065,0,0,1,.071-.057l.034.018.023.039m.029,3.279-.034.059-.066.027a.083.083,0,0,1-.086-.087c0-.057.029-.1.086-.1l.066.029.034.071m.559.315.046-.551.025-.551-.014-.63a.068.068,0,0,0,.086.015l-.015.029a.1.1,0,0,0,.086.1L45.8,4.1l-.014.014a.107.107,0,0,0,.1.1.08.08,0,0,0,.072-.043s.043.1.1.1l.072-.029a.092.092,0,0,0,.085.086c.072,0,.1-.043.1-.086s-.015-.085-.057-.085c.029-.015.057-.057.043-.072h.187l-.029.243v.015a.693.693,0,0,1-.315.172.731.731,0,0,0,.3-.086l-.029.086a.485.485,0,0,1-.258.157.476.476,0,0,0,.229-.071l-.014.071a.6.6,0,0,1-.258.158.6.6,0,0,0,.229-.057l-.029.086a1.328,1.328,0,0,1-.272.157.687.687,0,0,0,.243-.071l-.029.071-.229.129.186-.043-.085.2a2.268,2.268,0,0,1-.258.144l.214-.058a.984.984,0,0,0-.129.358l.029.172A.468.468,0,0,1,45.8,6.1a.752.752,0,0,0,.215-.115,1.521,1.521,0,0,0,.171.244.639.639,0,0,1-.2.143.363.363,0,0,0,.228-.1l.057.058a.364.364,0,0,1-.171.157.272.272,0,0,0,.2-.1l.057.057a.3.3,0,0,1-.186.143h.014a.282.282,0,0,0,.2-.086l.029.029a.336.336,0,0,1-.186.158.476.476,0,0,0,.229-.1l.086.158s-.086.143-.172.157a.361.361,0,0,0,.215-.086l.014.015c-.057.071-.115.143-.187.158a.4.4,0,0,0,.215-.087l.029.087a.718.718,0,0,1-.43.114,1.124,1.124,0,0,1-.516-.114.3.3,0,0,0-.043-.187h.072l.172-.015a.346.346,0,0,1-.358-.2l.115.015.129-.015a.547.547,0,0,1-.386-.129l.129.014.143-.014a.629.629,0,0,1-.458-.187.637.637,0,0,0,.229.043L45.6,6.3H45.54c-.472,0-.687-.459-.831-.845l.407.1.4.143m-.917-1.618-.043-.014.057-.029.029.029m-.068.583-.032-.025c0-.057.086-.072.115-.072s.1.015.1.043c0,.057-.1.057-.129.057l-.054,0m.04-.34-.043.014a.064.064,0,0,1-.043-.057l.014-.014.041.018.031.039m.029.043.053.006.032.038c0,.043-.085.071-.114.071s-.086-.014-.086-.057c0-.021.022-.036.047-.045l.068-.013m.029.4.053.012.032.045c0,.043-.1.057-.129.057v.043c0,.015,0,.1-.057.1-.029,0-.043-.085-.043-.1,0-.075.024-.126.078-.147l.065-.01m-.172-1.189.014-.036a.175.175,0,0,1,.115-.036c.029,0,.086,0,.086.043s-.086.071-.129.071l-.054-.01-.032-.032m.1,1.661.066.022.034.064c0,.043-.057.086-.1.086a.1.1,0,0,1-.1-.086l.029-.064.071-.022M44.48,7.475l.4.015a.341.341,0,0,1-.172.043l-.115-.017-.115-.04m.115-4.181.061.01.04.032c0,.057-.1.072-.129.072s-.1-.015-.1-.057c0-.022.022-.036.048-.045l.08-.013m-.115.573h-.014c0-.043.029-.043.057-.057l-.029-.029c0-.043.1-.072.129-.072s.086.014.086.043c0,.072-.129.072-.172.072l-.013.032-.045.011m.043.629v.015l-.045-.01-.013-.033V4.454l.039.01m-.039,2.925.061-.118a.175.175,0,0,1,.125-.054c.115,0,.143.1.143.187v.014l-.329-.029m.017-4.206-.032-.032c0-.043.1-.072.129-.072s.086.015.086.057-.1.057-.129.057l-.054-.01m.054-1.107-.041.039-.073.018c-.029,0-.086-.015-.086-.057s.1-.057.129-.057l.046.013.025.045m-.244,1.661V3.709c0-.029.015-.057.043-.057l.015.015-.018.046-.04.025m.029.888-.015.029L44.28,4.6l.014-.029m.029.172.033.012a.123.123,0,0,1,.024.089c0,.029,0,.114-.057.114-.029,0-.043-.085-.043-.114l.01-.061.033-.039m.043.415.066.027.034.059a.1.1,0,0,1-.1.086.076.076,0,0,1-.086-.086l.022-.059.064-.027M44.353,3.35l.027.059a.087.087,0,0,1-.087.1c-.071,0-.115-.029-.115-.1,0-.043.043-.086.115-.086l.059.027m.041-1.516-.043.091a.114.114,0,0,1-.087.038c-.086,0-.143-.043-.143-.129l.029-.086.244.086m-.1,4.949-.2-.11a3.333,3.333,0,0,0,.358-.845.327.327,0,0,0-.043-.158l.314-.014.115.243-.071.015a.456.456,0,0,1-.214-.086.4.4,0,0,0,.329.129,1.307,1.307,0,0,0,.244.33h-.057a.85.85,0,0,1-.458-.129.885.885,0,0,0,.573.187l.1.1-.071.057a.994.994,0,0,1-.573-.129,1.08,1.08,0,0,0,.516.2l-.086.1h-.029a1.224,1.224,0,0,1-.53-.143,1.156,1.156,0,0,0,.53.215l-.058.086h-.029a.927.927,0,0,1-.543-.158.88.88,0,0,0,.543.229l-.014.057A1.523,1.523,0,0,1,44.5,6.87l-.207-.087m-.2-3.188.029.043c0,.029-.014.029-.029.043-.014-.014-.029-.014-.029-.043l.029-.043m0,1.131.027-.014c.029,0,.043.086.043.115s-.015.1-.043.1-.057-.086-.057-.1l.013-.068.017-.032m0-.1.015.029-.043.057-.014-.057.01-.015m-.01.96.029-.244.616.1.028.187-.342-.011m-.346,1.686.072-.142c.032-.048.071-.087.115-.087.115,0,.158.172.158.258v.029l-.344-.057m.072-2.191.066.024a.1.1,0,0,1,.034.077c0,.043-.057.086-.1.086a.1.1,0,0,1-.1-.086l.029-.077.072-.024m-.029-1.732-.011.056-.032.045c-.043,0-.057-.086-.057-.1s.014-.115.057-.115l.032.047.011.068m-.157,3.422V6.8a.149.149,0,0,1,.057-.115,1.809,1.809,0,0,0,1.074.344v.043l-.014.057H44.91a2.033,2.033,0,0,1-.789-.181l-.2-.134m.171-2.907.085.02a.258.258,0,0,1,.145.224.249.249,0,0,1-.23.243.238.238,0,0,1-.228-.243A.248.248,0,0,1,44,3.929l.09-.02m-.22-.245.006.045v.029l-.043-.057V3.652m.014,1h-.014V4.626a.064.064,0,0,1,.043-.057l.015.014-.011.047-.032.025m.016.071.027-.014c.043,0,.057.072.057.115,0,.015-.015.086-.057.086s-.057-.071-.057-.086l.013-.068.017-.032m-.045.86.032-.129.011-.129.129.015-.029.258m-.051-3.366.038-.051.041-.02c.129,0,.2.43.2.53,0,.129-.057.228-.2.228s-.2-.1-.2-.228l.057-.3.064-.162M43.854,6.2l-.032.017-.029-.057h.072m.052-1.025.034.066c0,.043-.057.086-.1.086a.083.083,0,0,1-.086-.086.1.1,0,0,1,.086-.1l.066.034m-.093-2.757-.073.374a.241.241,0,0,0,.243.243c.172,0,.229-.115.229-.258,0-.115-.1-.659-.229-.659-.032,0-.064.036-.092.091l-.078.208m.07,4.6.041.044a.4.4,0,0,1,.03.185v.1l-.15-.055c-.057-.023-.108-.052-.108-.088s.036-.075.077-.109l.11-.077m-.172-3.637.071-.029c.057,0,.086.043.086.1s-.029.1-.086.1a.1.1,0,0,1-.1-.1l.029-.072m.055.829.051.017.022.027c0,.028-.086.1-.115.114l.129-.029.029.029-.043.129a.254.254,0,0,1,.115-.072c.043,0,.043.129.029.158.014-.015.071-.129.1-.129s.072.1.086.115V4.5s0-.115.029-.115a.339.339,0,0,1,.129.086l-.043-.143c0-.014,0-.029.029-.029l.129.029c-.029-.014-.115-.071-.115-.114s.129-.057.143-.057c-.014,0-.143-.015-.143-.057s.086-.1.115-.115L44.323,4l-.029-.014a.275.275,0,0,1,.043-.143.192.192,0,0,1-.129.086c-.043,0-.029-.129-.029-.158-.014.029-.057.129-.086.129s-.071-.1-.086-.129v.057c0,.043,0,.1-.043.1s-.086-.043-.115-.072a.193.193,0,0,1,.043.115c0,.029-.015.029-.043.029l-.129-.014c.029.014.129.071.129.115s-.143.057-.157.057l.084.013m-.112-.356h.014c.029-.015.043.014.043.043h-.015l-.043-.043m.037.669-.037.017H43.65l-.014-.014c0-.029.043-.043.071-.043l-.006.04m.024.3.01.061c0,.029-.014.1-.043.1-.057,0-.057-.071-.057-.1s0-.1.057-.1l.032.039m-.089,1.178V5.943h.071l-.071-.029V5.9l.086.015-.072-.043.015-.014h.057l-.057-.029.014-.015.072.015h.029c-.029,0-.072-.015-.072-.043V5.772l.1.014-.072-.043.086-.015c.143,0,.186.115.214.229a.562.562,0,0,1-.2.072L43.731,6l-.095-.047m-.029-1.8.087-.047.1-.025c-.029-.029-.157-.086-.157-.129s.029-.029.043-.029l.187.043a.321.321,0,0,1-.086-.172l.014-.014V3.767c.043,0,.129.072.172.115l-.014-.115.014-.086c.071,0,.115.129.129.158.015-.015.072-.172.115-.172s.015.172.015.214c.043-.043.1-.115.158-.115l.014.043a.351.351,0,0,1-.057.157.278.278,0,0,1,.143-.043c.043,0,.057,0,.057.029a.191.191,0,0,1,.115-.043c.029,0,.086,0,.086.057,0,.029-.1.057-.115.057s-.1-.014-.1-.043a.262.262,0,0,1-.143.1.357.357,0,0,1,.186.043l.1-.029c.029,0,.085.014.085.057s-.1.057-.129.057-.071,0-.086-.029a.41.41,0,0,1-.143.043c.029.014.143.086.143.129,0,0,0,.029-.057.029a.325.325,0,0,1-.157-.043.328.328,0,0,1,.086.172l-.029.029c-.057,0-.129-.072-.158-.115v.1c0,.015,0,.1-.015.1-.057,0-.1-.129-.115-.158-.014.029-.057.158-.114.158s-.015-.158-.015-.187a.3.3,0,0,1-.172.1l-.014-.029c0-.043.057-.115.086-.172l-.187.043-.029-.014h-.014c0-.043.129-.129.157-.143l-.1-.025-.082-.046M43.592,6l.015-.015a.348.348,0,0,0,.458,0h.015V6c0,.071-.2.129-.243.129a.4.4,0,0,1-.229-.086l.057.015L43.592,6m.115-4.339L43.8,1.7l.038.092a.128.128,0,0,1-.129.129.142.142,0,0,1-.143-.129.123.123,0,0,1,.045-.092l.1-.038m-.055,3.478.027.059c0,.043-.043.1-.086.1a.122.122,0,0,1-.1-.1c0-.043.057-.086.1-.086l.059.027m0-.9-.012.034a.127.127,0,0,1-.089.024c-.029,0-.115-.014-.115-.057s.072-.057.1-.057L43.6,4.2l.047.039m-.014-.83-.038.025-.049,0a.155.155,0,0,1-.115-.029L43.42,3.38l.014-.029.072-.029a.169.169,0,0,1,.115.048l.014.038m0,.415-.038.032-.049.011a.163.163,0,0,1-.115-.043V3.9l-.014-.1.014-.014c.015-.029.057-.029.086-.029a.156.156,0,0,1,.1.037l.014.035m0,.644L43.6,4.5l-.049.01-.115-.029-.014-.029.014-.029.072-.015a.189.189,0,0,1,.115.024l.014.033m-.2-.888.036-.025.036,0c.043,0,.129.015.129.057s-.087.043-.1.043l-.1-.015-.029-.043.029-.015m0-.83.068-.04.089-.017a.3.3,0,0,1,.143.057V2.664l-.086-.029-.115.029c-.057,0-.1-.029-.1-.086a.113.113,0,0,1,.115-.115.237.237,0,0,1,.215.115l.015-.1c-.057-.143-.23-.014-.23-.157,0-.029.043-.057.087-.057a.19.19,0,0,1,.157.115l.029-.057c-.029-.129-.172-.029-.172-.158a.062.062,0,0,1,.057-.057c.072,0,.115.057.158.115l.014-.057c-.029-.086-.115-.057-.115-.129l.029-.043c.072,0,.1.072.129.115.014-.029.029-.029.043-.029l-.014-.115c0-.029.014-.057.043-.057s.043.015.043.057l-.029.1c.029.014.043.014.057.043.015-.043.057-.115.1-.115l.029.015.014.043c0,.043-.086.029-.1.115l.014.072a.166.166,0,0,1,.143-.129c.029,0,.058.043.058.072,0,.071-.129.029-.173.129l.029.072c.043-.057.115-.129.187-.129a.093.093,0,0,1,.072.072c0,.1-.187.029-.23.143l.015.086a.248.248,0,0,1,.172-.086.13.13,0,0,1,.143.115.08.08,0,0,1-.071.086l-.173-.029-.057.014.015.1a.3.3,0,0,1,.143-.057.172.172,0,0,1,.172.157c0,.057-.029.086-.071.086-.072,0-.115-.086-.2-.086h-.071l-.015.057c.086,0,.215.057.215.129s-.1.144-.158.144-.071-.144-.157-.187l-.072.029a.136.136,0,0,1,.072.115.128.128,0,0,1-.129.129.117.117,0,0,1-.115-.129.12.12,0,0,1,.086-.129l-.072-.014c-.115.029-.1.187-.172.187s-.158-.086-.158-.129c0-.086.158-.143.23-.143L43.75,2.85h-.057c-.115,0-.129.086-.215.086l-.043-.029a.079.079,0,0,1-.043-.072l.043-.085m0,1.861h.043c.043,0,.129,0,.129.057,0,.029-.058.058-.087.058L43.434,4.7a.065.065,0,0,1-.057-.043l.057-.043m0-1.489.068.02c.025.013.047.03.047.052,0,.043-.086.043-.115.043s-.1-.015-.1-.072l.039-.032.061-.01m0-.845.039.016.018.027c0,.029-.043.043-.057.057h-.043c-.029,0-.115-.015-.115-.057s.029-.05.063-.054l.094.01m0-.214.02.016.009.027-.029.057h-.057c-.029,0-.114-.015-.114-.072,0-.028.057-.043.085-.043l.086.015m0-.2.029.043-.029.015-.071.014c-.043,0-.129-.014-.129-.057s.057-.043.085-.043l.057,0,.057.025M43.42,5.2l-.029.066L43.32,5.3c-.043,0-.085-.057-.085-.1a.092.092,0,0,1,.085-.086l.072.027.029.059m0-3.523-.032.045-.054.013c-.043,0-.129-.015-.129-.072,0-.029.071-.043.085-.043a.21.21,0,0,1,.115.03l.014.027M43.177,4.64l0,.085-.025.073c-.015,0-.015-.143-.015-.158s0-.157.015-.157l.025.073,0,.084m.023-.533.02.047a.067.067,0,0,1-.071.071.065.065,0,0,1-.057-.071c0-.029.029-.072.057-.072l.052.025m.234.018.029.014h-.029c-.043.015-.071.029-.071.072a.146.146,0,0,0,.071.114l.029.015h-.029c-.043.014-.086.043-.086.071a.166.166,0,0,0,.086.129l.015.014h-.015c-.043.015-.115.015-.115.086,0,.043.057.087.086.1-.043.029-.1.057-.1.1a.087.087,0,0,0,.043.086.225.225,0,0,1,.086-.115l.057-.015.057.029c0,.057-.086.115-.115.143V5l.043.014c.071,0,.086-.057.1-.1a.14.14,0,0,0,.115.1c.057,0,.086-.043.1-.1,0,.057.043.115.086.115.072,0,.1-.057.115-.115.029.043.057.115.129.115.043,0,.086-.072.086-.115a.169.169,0,0,0,.144.129.148.148,0,0,0,.1-.071c.015.043.043.129.1.129a.106.106,0,0,0,.1-.086c.015.043.043.086.086.086a.1.1,0,0,0,.086-.1c0-.071-.086-.086-.143-.071.029-.057.157-.057.157-.129,0-.1-.086-.086-.157-.086.043-.057.157-.057.157-.143s-.129-.072-.171-.072c.043,0,.157-.071.157-.129s-.115-.086-.157-.086c.043-.029.157-.071.157-.129s-.043-.086-.1-.086a.139.139,0,0,0,.1-.129c0-.057-.072-.086-.115-.086.029-.029.1-.071.1-.129s-.057-.071-.1-.071a.182.182,0,0,0,.1-.143c0-.043-.1-.071-.129-.086.043-.014.115-.057.115-.115s-.086-.086-.115-.086c.029-.029.115-.071.115-.143,0-.043-.086-.072-.115-.072a.165.165,0,0,0,.086-.129c0-.057-.1-.086-.143-.086a.19.19,0,0,0,.086-.129c0-.057-.086-.072-.115-.086a.139.139,0,0,0,.1-.115c0-.072-.1-.086-.158-.086.043-.029.1-.072.1-.129s-.1-.071-.143-.086c.043-.015.115-.086.115-.129s-.057-.072-.086-.072l.043-.071.115.029a14.775,14.775,0,0,1,.229,2.219c0,.358,0,.745-.029,1.1a4.578,4.578,0,0,0-1.174-.172h-.272l-.228.029a5.914,5.914,0,0,0,.085-1V4a14.2,14.2,0,0,0-.243-2.449l.2.015-.08.034-.034.029-.014.038c0,.087.071.1.129.115-.043.014-.115.057-.115.1s.1.115.157.115c-.043.015-.129.057-.129.1,0,.072.1.1.143.115-.029.014-.1.043-.1.086s.085.115.129.115a.158.158,0,0,0-.1.115c0,.057.085.086.129.1-.043.015-.129.043-.129.115,0,.043.085.086.143.1-.043.015-.114.057-.114.1s.085.115.114.129c-.029.014-.086.057-.086.1s.086.086.115.1c-.029.029-.115.071-.115.115s.086.1.129.115c-.043,0-.1.043-.1.085s.057.1.115.115l.015.015h-.015c-.057.014-.1.029-.1.086l.029.073.071.041h.015l-.015.015c-.043,0-.1.043-.1.071l.034.07.066.059L43.42,4.01,43.434,4l.086-.014c.029,0,.115.014.115.057s-.072.043-.087.043a.12.12,0,0,1-.115-.043v.086m-.386,3.322.006-.045-.006-.055a1.748,1.748,0,0,1,.386-.015l.473.072.358.086a1.392,1.392,0,0,0,.416.115h.029a.367.367,0,0,0,.416-.4.441.441,0,0,1,.086.2l-.015.143a.753.753,0,0,0,.272-.645.455.455,0,0,1,.115.286.551.551,0,0,1-.186.372l.214-.043.015.014-.126.122a.756.756,0,0,1-.475.151,3.156,3.156,0,0,1-.874-.229,3.036,3.036,0,0,0-.716-.158L43.363,7.4l-.168.01-.147.032M43.177,3.9l-.085.13-.03.142a.484.484,0,0,0,.071.243.325.325,0,0,1-.1-.257.3.3,0,0,1,.078-.207l.065-.05m.014-.817-.018.052-.039.02-.071-.029a.546.546,0,0,0,.129.258.35.35,0,0,1-.172-.3.284.284,0,0,1,.1-.229.371.371,0,0,0-.057.215c0-.029.029-.043.071-.043l.034.018.023.039M43,5.161l.059-.02a.072.072,0,0,1,0,.143.08.08,0,0,1-.086-.072L43,5.161M43.019,1.9l.039.02.018.052a.062.062,0,0,1-.057.057.065.065,0,0,1-.071-.057l.02-.052.052-.02m-.014,3.136.045.018.013.039v.015L43.048,5.1c-.043,0-.086.029-.086.057L42.934,5.1l.02-.039.052-.018m.01-.18.09-.034a.508.508,0,0,0-.214.386l-.015-.129a.243.243,0,0,1,.066-.166l.073-.057m-.038,1.792-.1.064a.278.278,0,0,1,.272-.244.363.363,0,0,1,.286.172.307.307,0,0,1,.043.172.421.421,0,0,1-.043.2.924.924,0,0,1-.186.272l-.2.043a.175.175,0,0,0-.086-.143c.158-.043.344-.114.344-.286a.246.246,0,0,0-.229-.272l-.1.022m.043-4.418L42.9,2.105a.329.329,0,0,1-.048-.172.318.318,0,0,1,.086-.215.325.325,0,0,1-.043-.157V1.518a.34.34,0,0,1,.071.187l-.014.043-.015-.015a.341.341,0,0,0-.043.172.518.518,0,0,0,.072.264l.057.066M42.991,3.58l-.03.133-.085.111a.376.376,0,0,0,.072-.244.453.453,0,0,0-.1-.272l.1.115.039.157m-.1-1.088.039.157a.357.357,0,0,1-.115.258.415.415,0,0,0,.072-.258.379.379,0,0,0-.1-.272l.1.115m-.047,1.016.039.02.018.052c0,.029-.029.072-.057.072s-.057-.043-.057-.072l.013-.046.045-.025m-.043.272.025.068,0,.089c0,.015,0,.143-.029.143l-.029-.143.029-.157m.015,1.431.064.018.022.039c0,.057-.029.072-.086.072a.067.067,0,0,1-.072-.072l.025-.039.047-.018m-.072,2.32.038-.119a.1.1,0,0,1,.092-.066.121.121,0,0,1,.1.057.23.23,0,0,1-.1.08l-.126.048M42.8,3.151l-.009.084-.02.073c-.029,0-.043-.143-.043-.157s.014-.158.043-.158l.02.073.009.085m.038,1.26.034.158a.391.391,0,0,1-.1.258.442.442,0,0,0,.072-.258.394.394,0,0,0-.115-.272l.064.051.045.064m0-1.808.02.047a.077.077,0,0,1-.071.072.093.093,0,0,1-.072-.072.092.092,0,0,1,.072-.071l.052.024M42.8,4.569l-.013.047-.045.024c-.029,0-.057-.043-.057-.071a.066.066,0,0,1,.057-.072l.045.02.013.052M42.912,2.3l.113.129a.3.3,0,0,1,.052.168c0,.187-.129.329-.129.487,0,.187.186.315.186.516,0,.229-.229.344-.229.559,0,.157.129.286.129.458s-.215.316-.316.458c.057-.129.244-.329.244-.444,0-.172-.115-.3-.115-.472,0-.244.215-.358.215-.559s-.187-.3-.187-.516c0-.172.129-.3.129-.472,0-.258-.33-.272-.33-.63,0-.129.1-.229.071-.344a.131.131,0,0,1,.043.1c0,.086-.043.158-.043.244a.337.337,0,0,0,.052.184l.113.134m-.279,3.662.015-.043a.4.4,0,0,0,.229-.43,2.272,2.272,0,0,0,.558.143l.358.029v.029a.276.276,0,0,0-.2.258A.076.076,0,0,0,43.549,6c0,.086.158.157.215.157,0,.043.015.086.057.086s.072-.043.072-.086c.071,0,.228-.071.228-.157a.062.062,0,0,0-.057-.057.274.274,0,0,0-.214-.258V5.671a3.2,3.2,0,0,0,.53,0V5.7l-.039.226c-.073.237-.226.5-.291.733l-.057-.029c-.086,0-.143.115-.143.186l.043.086c-.115.029-.258.144-.258.272,0,.071.057.1.1.129l-.3-.014h-.143l.143-.158a.5.5,0,0,0,.115-.315.4.4,0,0,0-.115-.3.422.422,0,0,0-.286-.115c-.215,0-.287.157-.287.344v.071a.231.231,0,0,1,.2-.115.166.166,0,0,1,.172.172c0,.144-.172.244-.272.286V7.146c0-.086-.172-.129-.244-.143a1.506,1.506,0,0,1-.1-.616l0-.214.017-.215m0-4.181-.014.057a.314.314,0,0,1-.057-.187V1.6l.052.086.02.087m0,3.207.015.043c0,.043-.029.229-.072.229-.028,0-.028-.029-.028-.043a.609.609,0,0,1,.054-.2l.031-.03m.016.312.027.047a.081.081,0,0,1-.086.072.068.068,0,0,1-.071-.072.077.077,0,0,1,.071-.072l.059.025m-.259,2.323.05-.08a.131.131,0,0,1,.093-.048.493.493,0,0,1,.157.071l-.3.057m-.172-4.553-.007-.047-.05-.025-.015.014.029.1-.029.129.052-.075M42.3,1.69l-.071-.029-.144-.243.087.043m-.115,6h-.043l.014-.115c.23,0,.6-.029.716-.272.043.014.129.043.129.085,0,.183-.37.261-.622.288l-.194.013m.015-4.583-.013-.073c-.009-.023-.024-.041-.045-.041l-.029.015-.015.014c0,.029.057.057.057.115a1.168,1.168,0,0,1-.057.215l.072-.111.029-.133m-.04,4.765-.075-.025c.029-.086.057-.086.157-.086a.168.168,0,0,1,.158.115h-.143l-.1,0m.082-6L42,1.619l-.186-.229.157.014m-.3-.207.022.047,0,.046-.029.014a.118.118,0,0,1-.1-.143l.029-.014.044.015.038.036m-.111.221.158-.029.171.214-.143.015m-.2.043-.187-.172.115-.057.187.2M41.2,1.575l.086-.057.173.187-.087.043m-.091-.661.063-.013a.187.187,0,0,1,.187.158.175.175,0,0,1-.187.157.162.162,0,0,1-.172-.157.152.152,0,0,1,.054-.111l.055-.034m.087,2.829.153-.094a.919.919,0,0,0,.224-.27,1.223,1.223,0,0,0-.158.129,1.451,1.451,0,0,1-.416.229l-.014-.071.029-.1c.2-.1.344-.444.444-.43h.029a.864.864,0,0,1,.386.487c.086-.172.258-.215.315-.415a2.972,2.972,0,0,0,.129-.616l.2-.286.029.8v.072l-.185.284a2.78,2.78,0,0,1-.717.747,1.221,1.221,0,0,1-.53.215c-.057,0-.129-.015-.129-.086a.211.211,0,0,1,.057-.115.775.775,0,0,0,.745-.53,1.1,1.1,0,0,1-.745.458H41.2V4.3a.174.174,0,0,1,.043-.129c.3-.029.544-.1.659-.386-.086.172-.516.3-.7.344a.1.1,0,0,1-.057-.072.145.145,0,0,1,.057-.1l.168-.037m-.153-2.068-.143-.158.057-.057.172.158m-.057-.759-.034.045-.066.013c-.028,0-.1-.015-.1-.057s.072-.058.1-.058l.066.013.034.045m-.229.716.157.157c-.043.029-.071.072-.114.086l-.115-.172.071-.071M41,1.318l.111.032a.117.117,0,0,1,.046.1A.145.145,0,0,1,41,1.575a.141.141,0,0,1-.143-.129.118.118,0,0,1,.045-.1l.1-.032m-.015.745-.115.071L40.8,1.9a.1.1,0,0,0,.071-.043l.115.2m-.2,5.412.011-.1-.011-.087a.875.875,0,0,0,.6.3c.129,0,.344-.043.344-.229a.273.273,0,0,0-.057-.172c.129,0,.286.057.286.215,0,.258-.3.372-.516.372a.767.767,0,0,1-.507-.182l-.152-.119M40.843,1.6l.031.031.012.046a.13.13,0,0,1-.258,0c0-.072.072-.1.129-.1l.086.024m-.043.564-.1.057-.086-.229.1-.043m-.086-.917.08.011c.083.021.163.075.163.161,0,.115-.143.171-.244.171S40.4,1.318,40.4,1.2a.175.175,0,0,1,.156-.163l.072-.009m0,1.2-.157.014L40.4,2.02l.143-.029m.057-.157-.01.045a.112.112,0,0,1-.1.054.1.1,0,0,1-.1-.1c0-.043.057-.086.1-.086l.079.027.036.059m-.048,4.93-.166-.047a.175.175,0,0,1,.344.043v.029l-.177-.024m-.2-5.735-.039-.04c0-.043.071-.072.1-.072s.086.029.086.072-.057.057-.086.057l-.061-.017m-.039,5.76.2.047.2.025c.072,0,.173-.015.173-.1a.542.542,0,0,0-.057-.186.1.1,0,0,0,.057-.1.3.3,0,0,0-.043-.171h-.1l.033-.133c.1-.27.381-.276.669-.326l.172-.043A5.786,5.786,0,0,0,41.8,7.146h-.043a.542.542,0,0,0-.214.029c.086.029.157.071.157.157,0,.143-.214.187-.315.187-.286,0-.444-.2-.644-.372a.566.566,0,0,0-.358-.315l-.071-.043m.014-4.2L40.3,2.578l.029-.029.043.029M40.213,7.7l.126-.064a.14.14,0,0,0,.061-.108.131.131,0,0,0-.057-.115.263.263,0,0,0,.186-.272.332.332,0,0,0-.057-.2.53.53,0,0,1,.258.458c0,.2-.17.263-.344.286l-.171.015m.172-5.441h-.143l-.057-.2.129-.029m-.158.544.032-.05a.533.533,0,0,1,.2-.05l-.229.1m.143-1.26v.043c-.014.086.086.157.172.157a.256.256,0,0,0,.129-.057c.015.115-.129.2-.228.2s-.229-.071-.229-.172a.163.163,0,0,1,.046-.112l.111-.059m-.029.615-.032.045-.054.013c-.043,0-.1-.014-.1-.057s.057-.071.1-.071l.054.02.032.052m.019-.835.01.048a.11.11,0,0,1-.115.1c-.057,0-.129-.043-.129-.1a.125.125,0,0,1,.129-.115l.079.031.026.036m.038,1.58.063-.029.009-.071c.085-.029.157-.086.143-.172V2.392c-.043.072-.143.043-.214.043-.115,0-.272.086-.272.229l.043-.029.072.029.057-.015.1.029m-.214-.6.043.2-.129.015-.058-.2m0,2.651-.014-.087.072.143m-.087,1.79.029-.054a.192.192,0,0,1,.157-.061.152.152,0,0,1,.172.172V6.7l-.358-.115m-.029-.615.064-.146c.361-.685,1.266-.7,1.239-1.171l.115.014a1.272,1.272,0,0,0,.63-.286,2.494,2.494,0,0,0,.759-1.016,7.622,7.622,0,0,1-.343,2.191,2.247,2.247,0,0,1,1.059-.244h.115l.244.014-.057.244-.3-.014-.558-.086-.015-.057v.071c0,.1-.129.372-.272.386l-.015.029a.7.7,0,0,1-.257.115,1.478,1.478,0,0,0,.243-.043l-.014.129-.258.086.258-.029-.015.086a.521.521,0,0,1-.229.1l.244-.014V6.4a1.09,1.09,0,0,1-.244.1l.244-.029v.072a.48.48,0,0,1-.244.115h.043a.573.573,0,0,0,.214-.043l.014.057A.593.593,0,0,1,42.3,6.8a.645.645,0,0,0,.286-.057,2.334,2.334,0,0,0,.129.272A.878.878,0,0,1,42,7.275a.22.22,0,0,0-.186-.129c-.172-.5-.014-1.046-.2-1.6a2.623,2.623,0,0,1-.172-.63v.043a2.409,2.409,0,0,0,.129.7l-.029.014a.337.337,0,0,1-.1-.2V5.5a.375.375,0,0,0,.072.243l-.057.043A.408.408,0,0,1,41.3,5.5v.071a.445.445,0,0,0,.086.229H41.33l-.08-.055a.363.363,0,0,1-.121-.26v.043a.412.412,0,0,0,.1.286.6.6,0,0,0-.272.072.35.35,0,0,1-.172-.3l-.014.057a.409.409,0,0,0,.129.272l-.043.029c-.129-.029-.187-.187-.215-.3a.434.434,0,0,0,.158.343.477.477,0,0,0-.087.316,1.444,1.444,0,0,1-.639-.18l-.163-.15m-.022-4.7.079-.022a.086.086,0,1,1,0,.172c-.057,0-.115-.029-.115-.086l.036-.064m.022.652.045.02.013.052c0,.015-.014.043-.057.043a.064.064,0,0,1-.057-.043l.018-.052.039-.02m.057-.33-.014.043c0,.1.086.129.172.129l.086-.014c-.014.086-.115.115-.186.115s-.2-.029-.2-.129a.117.117,0,0,1,.045-.088l.1-.055m-.05,4.5.1.078a1.363,1.363,0,0,0,.78.207l.014.086c0,.057-.029.057-.086.057-.258,0-.859-.172-.931-.444,0-.029.015-.071.043-.071l.078.087m-.036-3.983.057.2-.143.029-.043-.187m.129-.615-.022.052L39.8,1.6c-.029,0-.086-.029-.086-.071s.057-.072.086-.072l.064.02.022.052M39.645,2l.052-.013a.053.053,0,0,1,.057.057.062.062,0,0,1-.057.057.065.065,0,0,1-.071-.057L39.645,2M39.611,3.91H39.6L39.64,3.9M39.6,6.373l.054-.075.075-.054a.219.219,0,0,1,.143.187l-.029.115-.133-.075-.11-.1m.057-4.74.039.018.017.039a.052.052,0,0,1-.057.058c-.029,0-.072-.015-.072-.058l.025-.039.047-.018m-.029.889-.043-.029a.046.046,0,0,1,.043-.043c.014,0,.029.015.029.043l-.029.029m.043-.358.043.187-.114.043-.043-.172m-.013-.414.013.027c0,.043-.014.071-.057.071a.065.065,0,0,1-.057-.071A.064.064,0,0,1,39.5,1.79l.045.016m-.007.269.02.044c0,.043-.029.058-.071.058a.053.053,0,0,1-.057-.058.052.052,0,0,1,.057-.057l.052.013m-.009.345-.1.043-.043-.158.086-.057m-.129-.3.052.01.02.032a.068.068,0,0,1-.071.072.066.066,0,0,1-.058-.072l.018-.032.04-.01m0,.655.018.033c0,.029-.029.029-.057.029s-.029,0-.029-.029.014-.043.029-.043l.039.01m.018-.1-.07.031-.059.041-.014-.172.1-.072m.014-.1-.018.039-.039.018a.066.066,0,0,1-.072-.057.068.068,0,0,1,.072-.072l.039.02.018.052m-.215.43-.043-.043c.014-.071.014-.115.071-.143l.015.143-.043.043M39.04,7.1l.027-.07.086-.043a1.529,1.529,0,0,1,.745-.244c.229,0,.558.086.558.372a.256.256,0,0,1-.257.258.773.773,0,0,1-.23-.057.231.231,0,0,0,.215-.215c0-.172-.2-.2-.33-.2a1.263,1.263,0,0,0-.7.215L39.01,7.2l-.029-.043L39.04,7.1m-.016-4.18-.114-.014a.537.537,0,0,1,.129-.2l-.015.214m-.029.6-.157-.014a4.832,4.832,0,0,0,.2-.487l.043.014a.066.066,0,0,0,.072-.043V2.821l-.043-.143.043-.014.1-.072-.014.072c0,.043.057.086.1.086a.094.094,0,0,0,.014-.187l.229-.1-.014.029a.1.1,0,0,0,.086.1c.057,0,.085-.043.085-.1l-.057-.072a10.492,10.492,0,0,0,1.146-.2c.458-.214.386-.5,1.045-.559l.014.043a.066.066,0,0,1-.043.072,1.122,1.122,0,0,1,.315-.029.5.5,0,0,1,.487.472l-.015.158a.361.361,0,0,0-.186-.143c-.014-.187-.129-.416-.344-.416-.415,0-.158.444-.5.7.115-.029.2-.215.229-.33a.334.334,0,0,1,.214.2.339.339,0,0,0-.187-.286l.029-.071a.918.918,0,0,1,.244.229,1.013,1.013,0,0,0-.172-.286l.071-.043a.72.72,0,0,1,.187.229,1.207,1.207,0,0,0-.1-.243s.287.171.287.358a.214.214,0,0,1,.2.143.762.762,0,0,1-.186.315V2.75a2.379,2.379,0,0,1-.115.573c-.057.172-.2.272-.244.429-.143-.572-.6-.415-.6-1.045a1.088,1.088,0,0,1,.043-.3.992.992,0,0,0-.115.4.627.627,0,0,0,.1.316.7.7,0,0,1-.158.4l.014-.114V3.337l-.057.243c-.043.029-.071.072-.129.087l.043-.172-.1.2-.086.043.029-.158a.421.421,0,0,1-.086.158l-.071.014.014-.1V3.595a.292.292,0,0,1-.057.157l-.086.015.029-.172-.072.172-.071-.015.043-.172-.086.172-.086-.014a.724.724,0,0,0,.043-.187.452.452,0,0,1-.086.187h-.115a.687.687,0,0,0,.071-.243.446.446,0,0,1-.129.243h-.043a.759.759,0,0,0-.488.272c0-.1.287-.387.287-.687l-.015-.086a2,2,0,0,1-.888.272l-.158.014m-.272.258.214.061.215.039.4.029v.029l-.186.244a.318.318,0,0,1-.158-.072.289.289,0,0,0,.129.1l-.043.071a.241.241,0,0,1-.143-.043l.115.086-.043.057-.071-.029-.086-.029.086.057.057.029-.029.086h-.029a.188.188,0,0,1-.143-.043.3.3,0,0,0,.143.086h.014l-.014.071V4.569l-.015.057a.255.255,0,0,1-.143-.057.329.329,0,0,0,.143.1v.043a.337.337,0,0,1-.171,0,.281.281,0,0,0,.157.029V4.8l.014.115a.493.493,0,0,1-.157.043h.057a.125.125,0,0,0,.1-.014l.015.029.029.043-.115.115c.029-.014.071-.029.086-.057l.057-.029.071.029a.315.315,0,0,1-.1.129.256.256,0,0,0,.129-.115l.057.014.129-.029a.1.1,0,0,1,.057.072l-.014-.086.029-.015.057.057L39.6,5.012,39.626,5l.029.071L39.64,5,39.8,4.87a.078.078,0,0,0,.043.057l-.043-.1c0-.043.029-.229.072-.244l.043.043c.015.143.086.258.244.258.029,0,.129,0,.129.029-.015.157-.4.243-.53.272h.115a.707.707,0,0,1-.573.33l-.143-.029c-.444-.1-.573-.53-.573-.96l.045-.377.1-.367m-.039-.242.152.038.174.017h.143a2.206,2.206,0,0,0,.73-.186l.043.1c0,.115-.129.229-.172.315h-.1l-.029-.072v.072H39.54l-.029-.086-.015.086h-.143l-.029-.086-.014.086h-.087l-.029-.1V3.81h-.043L39.081,3.8a.173.173,0,0,1-.029-.115.162.162,0,0,0,0,.115l-.085-.029a.163.163,0,0,1-.043-.115.123.123,0,0,0,0,.1c-.1-.014-.458-.157-.473-.257l.108.009.126.036m.1,3.755.059-.048.029-.059a1.925,1.925,0,0,1-.63.215h.057a1.468,1.468,0,0,0,.313-.043l.173-.066m-.177.18-.136.015a.9.9,0,0,1-.43-.1,1.171,1.171,0,0,0,.859-.544.24.24,0,0,1,.129.187.178.178,0,0,1-.057.115c-.015-.029-.057-.043-.086-.057a.158.158,0,0,1,.071.143c0,.093-.086.157-.19.2l-.161.045m.079-.759-.173.2a.855.855,0,0,1-.543.319l.043.014a.9.9,0,0,0,.65-.437l.024-.093m-.8.659V7.3a.479.479,0,0,0,.086-.143.894.894,0,0,0,.6-.859c.058.043.173.2.158.286a.718.718,0,0,0,.244-.143.956.956,0,0,1-.5.731l-.289.111-.3.089m.071-2.306-.183.1-.161.113a.241.241,0,0,0-.057-.158,1.013,1.013,0,0,1,.286-.057h.115m-.119-.3-.117.1a.711.711,0,0,0-.165.247l-.086-.1a2.186,2.186,0,0,1,.258-.257,1.558,1.558,0,0,0-.286.228l.057-.157a.642.642,0,0,1,.387-.143h.086l-.133.083M37.8,4.1l-.163.274a5.131,5.131,0,0,0-.249.583l-.072-.043a3.66,3.66,0,0,1,.2-.473,2.693,2.693,0,0,0-.243.444l-.072-.029.187-.487s.358-.458.615-.516l-.2.245m-.7,1.316.061.077.082.066.057-.057L37.2,5.467m-.152-.3.187.057-.057.057m-.143-2.979.014-.043.072.043m0,3.238-.082-.059c.014.057.086.1.143.143l.043-.057-.1-.027m-.082.442.187-.2a1.679,1.679,0,0,1,.386-.043.6.6,0,0,1,.358.086h-.057a1.089,1.089,0,0,0-.687.243l-.094-.053-.093-.033M37,7.29l.029-.158a.8.8,0,0,0,.33.1c.243,0,.372-.214.472-.4a.385.385,0,0,1,.043.215.286.286,0,0,1-.1.228.327.327,0,0,1,.043.158l-.014.125-.045.081-.018-.1a.383.383,0,0,0-.274-.173L37,7.29m.228-2.343.145.087a.365.365,0,0,1,.158.251.11.11,0,0,1-.115.1.407.407,0,0,1-.172-.057l.157-.186H37.32a.328.328,0,0,1-.33-.172c.015-.057.057-.057.1-.057l.142.034M37.1,2.55l-.077-.011-.066-.032.015-.043a.2.2,0,0,1,.215-.057l.043-.072-.1-.129a.33.33,0,0,1,.173-.087.355.355,0,0,1,.057.173.257.257,0,0,1-.157.238l-.1.02m-.143,1.775V3.853a6.315,6.315,0,0,1,.645-1.074,7.372,7.372,0,0,0-.645.944V3.452a2.494,2.494,0,0,1,1.046-1.06,6.029,6.029,0,0,0-.86,1.394l-.186.539m0,.43V4.511a5,5,0,0,1,.387-.788,1.744,1.744,0,0,1,.7-.7,7.879,7.879,0,0,0-.888,1.819L37.1,4.826l-.115.029a10.283,10.283,0,0,1,.645-1.317l-.353.6-.321.62m.172.9-.172-.086.129.143m-.133-3.619.147-.061-.057-.072a.329.329,0,0,0-.172.258l.031-.073.051-.052m-.082,3.548.056.077.087.066.057-.057-.105-.037m.048-3.758-.057-.071a.365.365,0,0,0-.171.257A.226.226,0,0,1,36.872,2l.147-.066m-.086-.1-.043-.072a.319.319,0,0,0-.172.258.18.18,0,0,1,.075-.119l.139-.066m-.22-.029.134-.072L36.8,1.676a.329.329,0,0,0-.172.244l.08-.115m.049-.173-.043-.057a.329.329,0,0,0-.172.258.265.265,0,0,1,.08-.127l.135-.074m-.072-.1-.057-.043a.287.287,0,0,0-.172.244.233.233,0,0,1,.082-.122l.147-.079m-.258,5.1-.041-.1a.275.275,0,0,0-.232-.175l-.043.014c.01.032.134.1.231.175l.084.082M36.36,5.315l-.084.064-.059.078-.157.015a1.008,1.008,0,0,0,.186-.244l.143-.029.158.029-.187.087m-.286,1.252.089.066.083.085c-.014-.086-.1-.258-.2-.258h-.1l.129.108M35.8,4.082l.124-.018.134,0a.124.124,0,0,0,.1,0l.015.029L35.8,4.082m.258-2.635-.029-.029-.3.229.029.029M35.687,5.8l.17-.126.16-.146.2-.015a.671.671,0,0,1,.488.157l-.215-.028a1.719,1.719,0,0,0-.407.057l-.4.1m.326-4.673L35.974,1.1a4.862,4.862,0,0,0-.372.386l.014.029c.029-.029.416-.3.416-.358l-.018-.034m-.483,5.547h-.014c0,.057.129.1.172.129l.115.129a.291.291,0,0,0-.175-.242l-.1-.016m.1-3.909.043-.138a.143.143,0,0,1,.129-.063l.057.015a.474.474,0,0,0-.115.286.3.3,0,0,0-.229.158.163.163,0,0,1-.043-.115.111.111,0,0,1,.057-.093l.1-.05m-.158,1.575.015-.029.071.014a.16.16,0,0,0,.143-.171c.015-.029.043-.029.087-.029h.386v.114l-.229.015.214.043v.043h-.687m.215-3.265-.043-.014-.214.243.043.029m.086,1.3-.022.066-.064.034c-.043,0-.085-.057-.085-.1a.1.1,0,0,1,.085-.1l.064.029.022.072M35.6,7l-.029-.089a.283.283,0,0,0-.229-.169H35.3l.129.107L35.6,7M35.816.43,35.805.4,35.773.373a6.758,6.758,0,0,0-.516.831l.029.014.27-.393.26-.394m-.731,4.21L35.1,4.6a.766.766,0,0,0,.329-.215h.73l-.029.115-.243.029.243.029L36.1,4.64H35.086M35.244.8,35.215.773l-.158.3.057.029m.533,6.415.2-.028a.8.8,0,0,0-.4-.1l-.228.015c.014.157-.143.258-.258.329l.45-.149.241-.066m-.418-1.9-.214.029.143.014-.129.057a.674.674,0,0,0-.1-.172H35.4l-.172.071m-.344-4.582V1.017l.158-.358C35.043.616,35,.6,34.971.6s-.086.228-.086.257l-.043.158.043.015M34.8,4.912v-.1c.014-.043.029-.072.086-.072l.029.015c.029-.1.143-.043.158-.087h1.016l-.029.072-.258.043.244.029-.057.1H34.8m-.015,1.16h-.014a.235.235,0,0,0,.029-.143l-.015-.086.1-.014a1.714,1.714,0,0,0,1.36-1.647c0-.3-.2-1.088-.6-1.088l-.086.029a.276.276,0,0,1,.258-.2c0-.171.029-.3.229-.372l-.015.115c0,.516.43.745.43,1.518a1.893,1.893,0,0,1-1.575,1.876l-.1.014m1.189-1.131-.057.1-.272.029.23.029-.072.1H34.771l-.015-.043c0-.029.057-.057.057-.129V4.941h1.16M34.842,6.892,34.8,6.828,34.727,6.8a.649.649,0,0,1,.115.43.423.423,0,0,0,.029-.186l-.029-.154m-.086-1.12-.043-.043.043-.129.057-.1.072.071a.289.289,0,0,1,.086.157l-.086.015-.129.029M34.713.645h-.057L34.628.96l.043.014m.057,4.955-.045.127a.136.136,0,0,1-.1.073c-.029,0-.029-.029-.043-.043a.317.317,0,0,0,.072-.172.37.37,0,0,0-.057-.143H34.6a.116.116,0,0,1,.1.052l.032.105M34.513,0l-.045.02-.013.052.029.917h.057l.015-.9L34.551.027m-.007,3.056.013.025c0,.029-.015.043-.072.043a.038.038,0,0,1-.043-.043c0-.029.029-.029.057-.029l.045,0m-.027,3.834-.032-.1a.508.508,0,0,0-.043.2,1.944,1.944,0,0,0,.043.3,1.863,1.863,0,0,0,.043-.3l-.011-.1m.048-3.739.034.045c-.014.043-.043.043-.115.043s-.1-.029-.086-.057.043-.043.1-.043l.066.013M34.5,6.042l-.046.052-.052.022-.057-.029a.215.215,0,0,0,.057-.158l-.014-.1c0-.029.029-.043.057-.043.057,0,.1.086.1.129l-.045.127m-.2-2.7.041-.037a.844.844,0,0,1,.231-.006c.043,0,.1.014.115.043,0,.057-.014.057-.057.057a.968.968,0,0,1-.282-.018L34.3,3.337m0-2.692H34.24L34.3.974,34.341.96m.143,2.463.2-.014a.106.106,0,0,1,.086.086.076.076,0,0,1-.086.085H34.3c-.043,0-.072,0-.072-.071s.029-.1.086-.1l.172.014m-.172,2.349-.158-.029h.215m-.272,1.3.029.186V7.218a.587.587,0,0,1,.1-.415c-.05,0-.082.039-.1.089l-.027.154m.057-3.386.115-.052a2.37,2.37,0,0,0,.458,0,.237.237,0,0,1,.158.1.358.358,0,0,1,.043.187l-.043.229a1.094,1.094,0,0,1-.214.286c-.115.143-.115.416-.2.488a.328.328,0,0,1-.043-.158c0-.286.215-.43.215-.615,0-.029,0-.1-.043-.1a.038.038,0,0,0-.043.043l.014.1c0,.186-.243.4-.172.731a.27.27,0,0,1-.1-.158c-.043-.115-.029-.272-.087-.358A.818.818,0,0,1,34,3.953a.332.332,0,0,1,.071-.221l.085-.072M34.1,3.647l-.093.077a.4.4,0,0,0-.07.258c0,.286.214.343.258.543.029.129.057.344.2.387l.057.071c.172-.114.158-.372.344-.573l.086-.129a.581.581,0,0,0,.086-.358.389.389,0,0,0-.086-.272.347.347,0,0,0-.129-.057.112.112,0,0,0,.043-.1c0-.057-.057-.086-.1-.1l.015-.057c0-.043-.071-.071-.115-.071l.029-.043a.062.062,0,0,0-.057-.057l.015-.043a.1.1,0,0,0-.1-.087c-.057,0-.1.043-.071.129-.029,0-.043.029-.043.057l.015.043c-.043.014-.086.014-.1.057v.014l.015.057c-.072.015-.1.043-.1.115a.087.087,0,0,0,.043.086l-.138.052M34.067.8,34.021.663,33.969.6c-.029,0-.043.029-.043.057l.157.373.029-.015L34.067.8M33.74.773,33.711.8l.129.3.043-.029m.007,1.336.191-.053a2.032,2.032,0,0,1,.4-.037,3.653,3.653,0,0,1,.4,0,1.607,1.607,0,0,1,.5.172.176.176,0,0,0-.072.143l.015.071a1.217,1.217,0,0,0-.444-.129l-.4-.043a1.51,1.51,0,0,0-.716.172l.015-.071a.176.176,0,0,0-.072-.143l.179-.082M33.812,5.6l-.1-.057h.63a.121.121,0,0,0,.1.029c.115,0,.014-.129.2-.1,0-.23.157-.043.143-.23h.975l-.087.086-.286.029.228.043-.157.1h-.573V5.485l-.1-.071-.129.286c-.186.015-.416,0-.6,0l-.115-.043.157-.014L33.812,5.6m-.1-2.964-.027.066-.059.034a.1.1,0,0,1-.086-.1c0-.057.029-.1.086-.1l.059.029.027.072m-.3-.788.2-.258a1.217,1.217,0,0,1,.874-.386,1.253,1.253,0,0,1,.4.071,1.369,1.369,0,0,1,.673.63,4.957,4.957,0,0,1-.673.086h-.4a3.926,3.926,0,0,1-.812-.073l-.263-.071m.129,5,.129-.107h-.043A.3.3,0,0,0,33.367,7l.172-.151m-.1-1.525-.055-.037-.045-.049h.816c.015.029.072.086.072.129A.125.125,0,0,0,34.3,5.5H33.64L33.5,5.4l.2-.029-.258-.043M33.31,1.06l-.043.014.215.258.043-.029m-.071,1.461.12.05a.109.109,0,0,1,.066.093.178.178,0,0,1-.057.115.3.3,0,0,0-.23-.158.469.469,0,0,0-.114-.286l.057-.015a.142.142,0,0,1,.152.127l.006.073m0,3.909h-.015a.293.293,0,0,0-.286.258c.043-.043.071-.1.129-.129l.151-.089.021-.041m0-5.9L33.282.5l-.1-.124a.076.076,0,0,0-.043.057c0,.043.487.716.53.787L33.7,1.2,33.45.772m.533,4.169L34.011,5v.029l-.029.014.158.158H33.31l-.086-.1.229-.029-.272-.029c-.015-.043-.043-.057-.043-.1h.845m-.415,2.643.444.149c-.114-.071-.272-.172-.257-.329l-.23-.015a.754.754,0,0,0-.4.1l.2.028.244.066m.347-2.794.054.122H33.11l-.057-.1.214-.029-.228-.043-.029-.072h.831m-.874-.887.072-.175c.09-.2.233-.441.415-.441.071,0,.115.057.187.086l-.029-.157a.224.224,0,0,0,.1-.187l-.029-.072a1.452,1.452,0,0,1,.8-.228l.4.043a1.762,1.762,0,0,1,.53.172l-.028.086a.224.224,0,0,0,.1.187l-.015.157c.057-.029.1-.086.172-.086.3,0,.487.616.516.845l-.029.014a.1.1,0,0,1-.085-.057v.057l-.143.015-.086-.015-.043.057h-.029a.131.131,0,0,0-.115.057l.014.029a.125.125,0,0,1-.086.1l-.071-.014-.172.157a1.053,1.053,0,0,1-.243.143c-.029.015-.029.043-.043.086-.057.015-.115.015-.143.058-.086-.015-.115.043-.158.115a.52.52,0,0,1,.043.214c0,.043-.057.057-.057.129v.129l-.086.038a.124.124,0,0,0-.043.092c-.115,0-.086.043-.129.1l-.014.015a.211.211,0,0,1-.1-.043.131.131,0,0,1-.057-.115c0-.086-.158-.272-.229-.33L34.069,5c0-.086-.142-.272-.186-.344V4.6c0-.1-.071-.215-.071-.33,0-.029.043-.043.057-.057C33.826,4.154,33.826,4,33.783,4s-.043.072-.057.086c0,.057-.086.072-.129.072a.247.247,0,0,1-.215-.129c.057,0,.158,0,.158-.071A.038.038,0,0,0,33.5,3.91l-.086.029a.121.121,0,0,1-.071-.043c-.1-.1-.129-.043-.2-.086l-.014.014h-.043l-.115-.043m0,.086V3.839l.072.029m.759.53.043.2v.057h-.845l-.029-.1.244-.043-.258-.029L32.938,4.4M32.966,1.1l-.014.015-.029.043c0,.057.386.329.415.358l.029-.029-.19-.2-.124-.125L32.966,1.1m-.043,3.122V4.154h.458V4.125h-.458l.014-.072L33.2,4.01,32.938,4l.015-.086h.329l.057.057H33.31c.057.143.129.244.286.244a.223.223,0,0,0,.172-.086L33.8,4.2l-.029.071.015.086h-.845l-.014-.071.229-.043-.229-.014M33.2,1.676l.029-.029-.3-.229-.029.029m.129,5.012h-.1c-.1,0-.2.172-.2.258l.075-.085.226-.173m-.086-3.308L33,3.007a.812.812,0,0,0,.048-.457.34.34,0,0,1,.229.372.308.308,0,0,1,.272.2l-.1-.029c-.4,0-.6.787-.6,1.088A1.717,1.717,0,0,0,34.3,5.843l.029.086a.41.41,0,0,1-.043.143,1.924,1.924,0,0,1-1.661-1.89A1.66,1.66,0,0,1,32.8,3.4l.14-.247m-.117,2.227-.084-.064-.187-.087.143-.029.158.029a1.011,1.011,0,0,0,.187.244l-.158-.015-.059-.078m.031.995-.043-.014c-.143,0-.229.143-.258.272a.63.63,0,0,1,.167-.156l.134-.1m-.267-4.761.049.054.031.068a.316.316,0,0,0-.171-.244l-.043.043.134.079m-.191,4.059.106-.079a.8.8,0,0,1,.381-.078l.2.015a2,2,0,0,0,.329.272,3.773,3.773,0,0,0-.8-.157l-.214.028M32.5,1.707l.049.057.031.07a.365.365,0,0,0-.171-.258l-.043.057.134.074m0,.213-.015-.073a.42.42,0,0,0-.157-.171l-.043.057.134.072.081.115m.114,3.766.483.079.462.122a2.631,2.631,0,0,0,.731.258l.115.043.086-.029.1.043c.057,0,.086-.043.129-.057H34.8l.086-.015a3.774,3.774,0,0,0,.673-.243,4.654,4.654,0,0,1,.931-.2.573.573,0,0,1,.344.1.573.573,0,0,0-.544-.314.544.544,0,0,1,.358-.23.322.322,0,0,0-.244-.086h-.115a1.9,1.9,0,0,0,.258-.973,1.932,1.932,0,0,0-.33-1.074.934.934,0,0,1-.114-.444l.028-.229-.2.086a.214.214,0,0,0-.129-.029c-.071,0-.143.014-.172.086-.072-.172-.587-.3-.745-.33a3.836,3.836,0,0,0-.4,0,1.419,1.419,0,0,0-.873.215.189.189,0,0,0-.144.115.2.2,0,0,0-.172-.086.213.213,0,0,0-.129.029l-.2-.086.029.229a.927.927,0,0,1-.115.444,1.934,1.934,0,0,0-.33,1.074,1.9,1.9,0,0,0,.258.973h-.115a.352.352,0,0,0-.257.086.54.54,0,0,1,.372.23.608.608,0,0,0-.558.314l.179-.071.179-.029M32.334,1.9l.054.052.034.067a.373.373,0,0,0-.186-.258l-.043.072.141.066m-.08.1.05.052.032.067a.329.329,0,0,0-.172-.257l-.057.071L32.254,2m.011,3.643-.1.048-.112.037.057.057L32.2,5.72m.054-3.5-.015-.08a.4.4,0,0,0-.157-.177l-.057.072a.324.324,0,0,1,.2.119l.032.067m-.244.086.057-.043.029.043M32.07,6.284l.076-.031.161-.023.1-.072-.1-.014a.363.363,0,0,0-.3.187l.064-.046m-.035-.57.129-.143a.557.557,0,0,1-.187.086l.057.057m-.086-.43-.057-.057.172-.057m.043.315-.1.059-.118.027.072.057m.057-.214-.1.053-.105.033.071.057m.184-3.138.074.045v.043l-.06.032-.069.011a.245.245,0,0,1-.243-.258.344.344,0,0,1,.043-.173.33.33,0,0,1,.172.087l-.1.129.043.072h.057l.084.013m-.413,3.037h.043c.2,0,.544-.258.5-.487h.014V2.506a.472.472,0,0,0-.344-.444,5.037,5.037,0,0,1,.516-.574l.086-.029a.354.354,0,0,1,.229.115,3.047,3.047,0,0,0,1.934.5l.243-.014a2.662,2.662,0,0,0,1.532-.488.323.323,0,0,1,.215-.115l.086.029a6.851,6.851,0,0,1,.53.574.485.485,0,0,0-.358.444V4.569L36.9,5a.63.63,0,0,0,.516.458L37,5.986a.754.754,0,0,0-.3-.057c-.574,0-1.118.559-1.819.645l-.372.014c-.9,0-1.432-.644-2.091-.644l-.258.029-.5-.516m.372-.544.061.007.04.05c-.086.172-.244.186-.415.172a.9.9,0,0,0,.157.186.407.407,0,0,1-.172.057.1.1,0,0,1-.115-.1c0-.129.153-.274.3-.338l.142-.034m-.558,1.661.085-.132a1.388,1.388,0,0,1,1-.455,1.018,1.018,0,0,1,.573.229,2.761,2.761,0,0,0,1.5.444h.243a2.73,2.73,0,0,0,1.132-.473,1,1,0,0,1,.53-.2c.358,0,.874.172.931.587a1.577,1.577,0,0,0-.258-.043.39.39,0,0,0-.3.129.833.833,0,0,0-.63-.372,1.034,1.034,0,0,1,.7.945l-.129-.015-.344.015a.513.513,0,0,1-.258-.043.7.7,0,0,0-.7-.615h-.014a.938.938,0,0,1,.659.859,1.368,1.368,0,0,0-.7-.2.836.836,0,0,0-.329.057V7.232a.732.732,0,0,0-.2-.487.772.772,0,0,1,.143.43.457.457,0,0,1-.229.4c-.172.129-.286.129-.4.329-.172-.329-.63-.258-.63-.73a.891.891,0,0,1,.129-.43.816.816,0,0,0-.186.544.88.88,0,0,0-.33-.057,1.33,1.33,0,0,0-.7.2.958.958,0,0,1,.659-.859H33.4a.68.68,0,0,0-.673.615.6.6,0,0,1-.272.043l-.33-.015-.143.015a1.035,1.035,0,0,1,.7-.945.859.859,0,0,0-.63.372.39.39,0,0,0-.3-.129l-.272.043m.043-1.289-.16-.113-.17-.1h.1a.586.586,0,0,1,.272.057l-.043.158m-.012-.3-.094-.116a1.141,1.141,0,0,0-.238-.182h.072a.583.583,0,0,1,.387.143l.057.157-.272-.228a1.956,1.956,0,0,1,.229.257l-.071.1-.069-.131m.018.91-.191-.047-.189-.016a.727.727,0,0,1,.387-.086,1.522,1.522,0,0,1,.358.043l.172.2-.105.038-.1.048-.156-.1-.181-.076m.183-3.056.243.309.2.307v.272a6.088,6.088,0,0,0-.63-.944,5.451,5.451,0,0,1,.63,1.074v.472l-.177-.533a5.892,5.892,0,0,0-.854-1.4,1.171,1.171,0,0,1,.31.178l.281.266m-.093,1.369.1.163.2.487-.071.029a2.694,2.694,0,0,0-.243-.444,3.662,3.662,0,0,1,.2.473l-.086.043a2.78,2.78,0,0,0-.6-1.1.78.78,0,0,1,.36.2l.138.154m.021-.688.14.206a4.957,4.957,0,0,1,.372.788v.244l-.307-.62-.338-.6c.215.43.458.873.63,1.317a.206.206,0,0,0-.158-.014,8.656,8.656,0,0,0-.916-1.819,1.2,1.2,0,0,1,.411.3l.164.2m.326,3.758-.252.066-.263.034c-.258,0-.8-.072-.8-.416a.383.383,0,0,1,.072-.214l.014.071c.015-.329.172-.344.415-.43a.509.509,0,0,0-.2.358c0,.286.329.487.587.487l.1-.012.1-.031.195-.086.029.172.014.043V7.275h.043l.2.029a2.026,2.026,0,0,1-.9.286l-.5-.043-.108.01L30.6,7.59V7.561c.043-.115.187-.172.287-.214a2.1,2.1,0,0,0,.587.1.794.794,0,0,0,.379-.09l.108-.082M30.4,5.711l.07,0-.1-.086-.029.057m.114-.358L30.4,5.285l-.071.187m.129.329-.114-.1-.029.043.066.045m.02.041-.1-.057-.014.029c.014.029.071.029.1.029H30.4m-.171-.587-.045.122-.055.122.158-.215m-.172-.415.025-.052,0-.063-.015-.086.043.014.086-.014a.327.327,0,0,1-.087.173l-.057.027m.029,1.217.131.126a.421.421,0,0,0,.184.061.1.1,0,0,1-.057.086h-.014a.335.335,0,0,1-.272-.258l.029-.015m.029-4.138V1.9l-.115.029m0,2.363.017-.057,0-.057H30.1l.072-.029.043.114c0,.029,0,.057-.029.072L30.06,4.3m.129,1.461.057.066c.052.09.1.235.243.235a.162.162,0,0,0,.115-.043l.043-.029A.149.149,0,0,1,30.7,6.1a.122.122,0,0,1-.1.115l-.057.015a.549.549,0,0,1-.486-.344l.048-.086.08-.043m-.157-4.9.014-.143-.014-.1a.232.232,0,0,1,.143.229V.917L30.031.859m0,.974.027-.064.059-.022.043.014m-.172,5.4.165-.064.165-.021a.921.921,0,0,1,.286.043v.014a.369.369,0,0,0,.129.129L30.6,7.246h-.029a.831.831,0,0,0-.372.086l-.215-.172m.134-3.009-.048.016a.18.18,0,0,0-.1-.143.153.153,0,0,0,.087-.1l.1.2-.038.027m.009,1.92-.068.011-.046.032c-.029-.029-.043-.043-.043-.072s.087-.057.087-.057l.071.086m0-1.3-.012.038a.135.135,0,0,1-.1.048.091.091,0,0,1-.1-.1.318.318,0,0,1,.072-.158.231.231,0,0,1,.131.112l.013.059m-.154-3.134.061-.032L30.1,1.59a.162.162,0,0,1,.115.043c-.014-.057-.086-.057-.143-.057a.215.215,0,0,0-.2.158l.1-.1m.167.252.088.018L30.2,1.819l.029-.086-.043.015-.071-.015a.123.123,0,0,0-.129.1.19.19,0,0,1-.115.043l.179.009h.092M29.93,3.222l.032.039.01.061h-.014l-.129-.029-.014-.072.071-.014m.088,2.2.142-.207L30.06,5.17a1.616,1.616,0,0,1-.258.4l.174-.165M29.916,3.18h-.029l-.086.029-.014-.043.086-.057m-.057.215.084.046.031.068c0,.043-.029.057-.043.057-.057,0-.086-.072-.115-.1l.043-.071m-.006.794.091-.036a.123.123,0,1,1,0,.243.128.128,0,0,1-.129-.129l.038-.079m.006.353.057-.088H29.9a.253.253,0,0,0,.143-.057.282.282,0,0,1,.187.229c0,.043-.029.057-.072.057a.2.2,0,0,1-.187-.172v.086c-.029.057-.071.143-.157.143s-.1-.014-.1-.1V4.525l.057-.02.044-.035m-.057-1.319L29.7,3.137l.086-.129.043.058M29.9,1l-.215.23a.052.052,0,0,1-.057-.057c0-.05.046-.094.1-.124L29.9,1m-.043,3.366-.068.079-.089.036a.093.093,0,0,1-.086-.086.207.207,0,0,1,.071-.158l.043-.028.038.1.091.057m-.071-1.1-.034.064-.066.022a.082.082,0,0,1-.085-.086.092.092,0,0,1,.085-.086l.066.027.034.059m.014.787-.052.061-.02.082-.086.029a.082.082,0,0,1-.086-.086A.277.277,0,0,1,29.6,4l.094.055.105,0m.258.988.121.052a2.04,2.04,0,0,0,.423.062c.1.015.258.057.258.172,0,.244-.244.258-.258.587-.014.057-.086.086-.157.086-.1,0-.172-.129-.2-.215a.333.333,0,0,0,.086-.157l.057-.057h.086l-.2-.029a6.568,6.568,0,0,0-.644.143c-.057,0-.072-.029-.072-.071l.272-.265.23-.308m-.516-1.518L29.5,3.495c0-.057.057-.1.072-.129l.086.043a.2.2,0,0,1-.075.1l-.04.012M29.578.981l.094-.048.087-.017-.229.258c-.043,0-.057-.015-.057-.043L29.5,1.05l.075-.068M29.54,2.308,29.5,2.292c-.029,0-.029.029-.029.043s0,.043.029.043.057-.015.057-.043l-.018-.027m.018.986v.043c-.014.043-.043.043-.086.043s-.086,0-.086-.043.072-.057.1-.057l.071.015m.036.24.05-.039.014.059.029.014-.017-.027-.012-.061V3.466l.028-.057h.072l.029.043-.02.08-.022.032.034-.017L29.8,3.48l.086.029a.068.068,0,0,0,.072-.071.183.183,0,0,0-.057-.1h.071v.072a.961.961,0,0,1-.143.458.715.715,0,0,1-.444-.5c.015.043.086.043.129.043a.078.078,0,0,0-.043.071.092.092,0,0,0,.072.071l.05-.017m-.032,3.6.092-.058L29.73,7a.108.108,0,0,1,.086.1c0,.143-.258.143-.372.143h-.057L29.372,7.2l.189-.073M29.587.859,29.5.947l-.061.1c-.014.029-.014.057-.057.057l-.029-.057A.161.161,0,0,1,29.44.921l.147-.061m-.029,2.378v.029l-.086-.015c-.029,0-.1.029-.1.086l-.029-.172.214.072m-.1-.285-.188-.159a.4.4,0,0,0,.187-.1.134.134,0,0,0,.129.071c.043,0,.072-.057.072-.1a.261.261,0,0,1,.186.157,1.488,1.488,0,0,1-.186.258l-.2-.127m.159.863.1.071.121.052a.907.907,0,0,0,.215-.558.374.374,0,0,1,.057.214c0,.2-.1.444-.33.444a.327.327,0,0,1-.172-.086,1.192,1.192,0,0,1-.372-.859l.086.071a.859.859,0,0,0,.2.565l.089.085M29.594,2.07l.062.054.059.024a.116.116,0,0,0,.115-.057l-.043.015a.105.105,0,0,1-.115-.115l.029-.186c0-.072-.057-.144-.057-.2l.071-.143c.043-.071.158-.086.215-.129a1.059,1.059,0,0,0,.244-.2h.115l.046.081.025.091a.107.107,0,0,0-.071.115.191.191,0,0,0,.043.115v.029a.923.923,0,0,0,.214.444c-.029.043-.1.043-.115.085l-.043.015c-.071,0-.014-.043-.057-.057l-.014.029c0,.057.071.043.114.029l-.014.086a.262.262,0,0,1-.214.072c.014.057.1.1.143.129a.067.067,0,0,0-.043.072c0,.057.057.1.057.143,0,.129-.387.129-.458.129l-.072-.014V2.693c0-.143-.057-.286-.228-.286h-.043a.289.289,0,0,1,.229.243h-.029c-.057.015-.1-.086-.1-.157-.057.043-.015.229-.086.229s-.129-.143-.129-.2a.137.137,0,0,0-.014.129l-.129.086-.014-.057a.288.288,0,0,1,.229-.272.323.323,0,0,1-.287-.3c0-.1.087-.115.158-.115l.124.024.084.054m-.437.838.086-.1a3.235,3.235,0,0,0,.4.33.192.192,0,0,0-.086.072l-.217-.135-.184-.166m.071,1.934-.018.066c-.032.059-.1.1-.1.177L29.1,5.041l.013-.057.059-.1.013-.058a.3.3,0,0,0-.057-.158l.077.065.023.108m.081,2.1.122-.05a.375.375,0,0,0,.17-.175h.029c.071,0,.143.014.143.1,0,.187-.4.344-.558.344-.086,0-.143-.029-.143-.114l.029-.1.086.014.124-.017M29.082.817,29.2.687l-.014.086a.451.451,0,0,0,.086.244c0,.086-.1.115-.158.129a.18.18,0,0,1-.086-.158L29.042.9l.039-.085m-.025,2-.043-.046a.455.455,0,0,1-.043-.212V2.191l.048.315.038.315m-.171-1.06.048-.058c.133-.112.412-.075.625-.3-.022.236-.277.247-.488.292l-.185.066m0,.229.163-.1a1.138,1.138,0,0,0,.524-.262c-.011.226-.272.25-.492.3l-.2.062m.157-.449-.129.02h-.057c.186-.1.372-.143.558-.229a.872.872,0,0,1-.235.158l-.138.052m-.2-.124.079-.067a1.442,1.442,0,0,1,.322-.119l-.184.119-.217.066m.015,2.592.014.115-.029.228a.392.392,0,0,0,.129.3C28.828,4.6,28.8,4.5,28.8,4.339l.057-.329m0-1.192.069.171a.646.646,0,0,1,.1.3l-.014.057c-.043-.258-.272-.43-.272-.745a1.072,1.072,0,0,1,.071-.358,1.246,1.246,0,0,1,.015.33l.031.24m-.094,4.509L28.727,7.2l-.014.057a.274.274,0,0,0,.1.2l.043-.043-.092-.091m.184-3.849L29,3.593l.018.116v.029L28.9,3.5a1.729,1.729,0,0,1-.357-.747.729.729,0,0,1,.087-.387l-.029.215a1.225,1.225,0,0,0,.207.657l.143.243m-.078,4.14.164-.029.165-.071a.585.585,0,0,1-.272.057.257.257,0,0,1-.286-.286.236.236,0,0,1,.129-.214.4.4,0,0,0,.4.329.407.407,0,0,0,.215-.057.326.326,0,0,0,.258.229.67.67,0,0,1-.4.129l-.286-.014a.518.518,0,0,0-.372.129.256.256,0,0,1-.057-.129.2.2,0,0,1,.115-.172.2.2,0,0,0,.1.077l.131.023m-.3-5.742.07.02.059.052.029.115v.028l-.172-.014a.212.212,0,0,1-.115-.172l.129-.029M28.47,4.6v.086c0,.143.143.072.158.2-.072-.071-.2-.043-.2-.186l.01-.056L28.47,4.6m.011-1.482.06.122c.1.172.358.444.358.644a2.592,2.592,0,0,0-.214-.33c-.158-.2-.3-.314-.3-.615a.81.81,0,0,1,.043-.258l.02.3.035.142m-.04-.838-.072-.014a.381.381,0,0,1,.316-.158.242.242,0,0,1-.161.159l-.082.013M28.369,4l-.054-.025-.032-.046v.014c0,.057.029.1.072.1s.071-.043.1-.072L28.369,4m.143-1.9-.077.02-.066.052a.267.267,0,0,1-.115-.1.189.189,0,0,1,.129-.086l.059.068.07.046M28.141,3.58l-.061-.024-.039-.047v.014c0,.057.015.115.072.115a.162.162,0,0,0,.115-.071l-.086.014m.1,2.993.123.02a.558.558,0,0,1,.278.224.747.747,0,0,0-.258-.043c-.172,0-.4.115-.4.315v.029a.37.37,0,0,1,.172-.215c.043.015.157.057.157.1,0,.086-.214.129-.214.286,0,.2.3.214.458.2-.043.043-.086.086-.086.129h-.057a.561.561,0,0,1-.616-.543.523.523,0,0,1,.356-.49l.089-.011M28.2,2.908l-.061.069-.172.1-.4-.172h.015c.143,0,.473-.086.53-.229l.115-.029c-.029.057,0,.1,0,.172l-.024.087m1.7,1.9h.014l.072.1-.129.029.115.014L29.959,5a.419.419,0,0,1-.187,0,.207.207,0,0,0,.158.071l-.015.015-.1.014-.1-.014a.3.3,0,0,0,.172.071l-.014.015h-.057a.4.4,0,0,1-.129,0l.143.071L29.8,5.27h-.043l-.115-.014a.364.364,0,0,0,.129.071l-.057.057a.285.285,0,0,1-.157,0l.115.058-.057.057h-.143c.015.029.057.043.086.057-.043.029-.186.143-.243.143L29.2,5.686l-.115-.243L29.056,5.4v.043l-.086-.015a.191.191,0,0,0-.114.043l.043-.015.172.029.014.057a.86.86,0,0,0-.2.029h.043l.172.015.014.043-.186.029h.043l.172.029v.029a.286.286,0,0,0-.157.043l.071-.014.086.014.015.043L29,5.843l.072-.014.115.014c.029.086.143.187.143.286l-.057.115a1.523,1.523,0,0,0,.258.473.315.315,0,0,1-.258.186c-.1,0-.129-.057-.143-.143a.261.261,0,0,0,.1-.086l-.115.057L29.1,6.688l.115-.1-.129.057-.014-.057a.19.19,0,0,0,.1-.086l-.115.057-.014-.029.1-.1A.185.185,0,0,1,29,6.488c-.029-.057-.1-.1-.143-.157a.2.2,0,0,0,.114-.087.236.236,0,0,1-.157.058c-.172,0-.1-.187-.157-.3-.029-.086-.258-.386-.344-.386s-.085-.015-.114-.072V5.485a.651.651,0,0,0-.115-.33.7.7,0,0,1,.057.344v.029l-.072.014a.2.2,0,0,1-.1-.172v.043a.225.225,0,0,0,.043.129l-.043.043a.438.438,0,0,1-.1-.129l.057.158L27.839,5.5l.057.129-.014.015-.072-.115a.225.225,0,0,0,.043.129h-.015l-.072-.1.043.114-.029.029-.072-.129.043.143-.129.029c-.1-.057-.214-.143-.214-.258l.029-.1.229-.184.186-.217H27.9c.143,0,.3-.171.386-.257l.129.143c.043.014.158.043.158.085s-.187.057-.187.2c0,.086.115.158.2.172a.167.167,0,0,1-.086-.143c0-.115.272-.014.272-.186,0-.129-.2-.186-.2-.286a.308.308,0,0,1,.143-.215c0,.272.358.23.358.373,0,.071-.129.143-.129.257,0,.229.415.187.415.444l-.029.1a.182.182,0,0,0,.072-.157c0-.215-.258-.2-.258-.358,0-.086.187-.157.187-.314,0-.258-.344-.187-.344-.444s.186-.272.186-.558a.832.832,0,0,0-.086-.372c.043,0,.057-.057.057-.086a.526.526,0,0,0-.1-.244.734.734,0,0,1,.1-.215.351.351,0,0,0,.086.158v.086a1.164,1.164,0,0,0,.244.745.292.292,0,0,0-.086.2.3.3,0,0,0,.1.2l-.015.115a.2.2,0,0,0,.143.172l-.014.057a.138.138,0,0,0,.107.133l.194.025-.168-.042c-.057-.023-.1-.059-.1-.116l.014-.086c-.043,0-.143-.072-.143-.129a.219.219,0,0,1,.057-.143.2.2,0,0,1-.1-.171.265.265,0,0,1,.071-.172l.029.029-.014.143c0,.071.014.114.1.114a.329.329,0,0,0-.086.172.13.13,0,0,0,.143.115l-.029.072a.132.132,0,0,0,.143.129l.071-.015.015.1M27.253,2.779,27.4,2.75a.2.2,0,0,0,.071.114l-.214-.085m-.029,3.694-.015-.014L27.2,6.416h.043M27.181,5.2V4.826h.072v.329m.386-2.033-.1.073-.112.041a.1.1,0,0,1-.086-.129l-.043.015c-.086,0-.187-.043-.187-.129l.015-.086.516.215.15.052.151.063a.354.354,0,0,0-.115.229.5.5,0,0,0,.287.4c.014.157-.043.372.2.372h.057c-.314-.1-.086-.3-.228-.444a.253.253,0,0,1-.244-.286.636.636,0,0,1,.072-.272.834.834,0,0,1,.572.687,1.047,1.047,0,0,1-.2.53.835.835,0,0,0,.215-.544.647.647,0,0,0-.1-.358c.158.072.316.172.316.358a1.06,1.06,0,0,1-.043.229c-.1.2-.587.8-.816.8-.072,0-.087-.1-.087-.143l.015-.071a.14.14,0,0,0,.129-.058l.115.043a.167.167,0,0,0,.157-.129.163.163,0,0,1-.129.086.13.13,0,0,1-.1-.043.284.284,0,0,1-.172.086.141.141,0,0,1-.143-.129l.029-.086a.226.226,0,0,0,.172-.071.151.151,0,0,0,.129.071.237.237,0,0,0,.172-.115.275.275,0,0,1-.143.072.215.215,0,0,1-.129-.057l.029-.043a.389.389,0,0,1-.229.115c-.086,0-.172-.043-.172-.143l.014-.086a.328.328,0,0,0,.158.043.166.166,0,0,0,.187-.2V4.053c0,.086-.043.186-.144.186a.321.321,0,0,1-.186-.085l.057-.057a.252.252,0,0,1-.157.086.429.429,0,0,1-.143-.2.51.51,0,0,1,.057-.158l.086.015c0,.057.029.143.1.143a.4.4,0,0,0,.243-.1.465.465,0,0,1-.186.057c-.086,0-.1-.029-.086-.1V3.824c.086-.029.1-.129.229-.129h-.043c-.1,0-.086.115-.243.115a.229.229,0,0,1-.2-.115c-.071-.014-.143-.057-.143-.115a.268.268,0,0,1,.043-.114l.071.014a.216.216,0,0,0,.215.157.375.375,0,0,0,.257-.129.414.414,0,0,1-.257.071.155.155,0,0,1-.143-.1l.186-.071-.172.014c-.086,0-.186-.014-.186-.115a.242.242,0,0,1,.043-.143H27.3a.114.114,0,0,0,.129.1.211.211,0,0,0,.123-.05l.092-.093m-.43,2.363.1-.029a.35.35,0,0,0,.186.3l-.172.015-.115-.286m0,0,.029.149.072.138h-.129l-.054-.126L27.095,5.5m-.072.715V6.2h.057l-.057-.043h.086l-.041-.01-.03-.032h.086l-.072-.029.015-.015h.086l-.072-.029.029-.029.1.029L27.138,6l.086-.015c.115,0,.172.115.186.229a.423.423,0,0,1-.186.072l-.106-.025-.1-.047m-.043-.974V4.812l.086.014v.415M27.1,6.3l.128.027a.4.4,0,0,0,.229-.087h.014l.015.015c0,.072-.2.129-.258.129a.41.41,0,0,1-.23-.085l.057.014-.071-.072L27.1,6.3m-.025-.662.052.131-.1-.015a.764.764,0,0,1-.057-.257c.029.014.057,0,.086,0l.02.141M26.894,5.5h.057l.029.257h-.086c-.029-.014-.029-.071-.029-.1l.029-.157m-.047-1.619-.025.044c0,.1.158.129.229.143,0-.043-.157-.086-.157-.143,0-.029.2-.072.229-.086h-.1l-.117.016-.059.026m-.039,1.3V4.769l.086.015v.444m-.1-2.52.1.015.172-.043c.029.057.072.072.129.1a.521.521,0,0,1,.2.1l.444.2.43.158a.192.192,0,0,0,0,.129,1.132,1.132,0,0,0-.329-.2l-1.146-.458m.071.831-.093.023a.088.088,0,0,0-.05.077c0,.072.086.144.143.187,0-.043-.086-.115-.086-.172,0-.086.157-.1.2-.1l-.115-.014m-.1,3.641.077-.084.1-.192h.029c.057,0,.086.015.086.072,0,.086-.229.344-.315.344-.043,0-.057-.043-.071-.086l.091-.054M26.651,5.1V4.7l.071.043v.4m-.057-1.953-.041.031-.017.046c0,.086.1.157.158.186a.364.364,0,0,1-.115-.186c0-.057.157-.086.2-.086l-.085-.015-.1.023m-.014-.409-.059.013-.027.044c0,.1.157.158.229.172-.029-.029-.172-.129-.172-.172l.115-.029-.086-.028m-.172,2.133V4.6l.086.057v.358m.029-2.749.107.023.108-.009.143.115a1.565,1.565,0,0,1-.372.086.2.2,0,0,1-.2-.172l.215-.043m-.21,2.515L26.35,4.74V4.5l.057.057v.272m.187,1.117.043-.057-.3-.043-.2-.014.2.043m-.115-3.823.047.039.068.018.129.014a.159.159,0,0,0,.1.129l-.23.015c-.143,0-.314-.015-.314-.187V2.034l.2.014m.2,4.067.057-.057-.144-.015L26.006,6l.329.086m-.1.157.043-.043-.314-.043m.157-2.477.087.038.127,0a.344.344,0,0,0,.173-.043.267.267,0,0,0,.2.071l.029-.014c-.1,0-.229-.043-.229-.172a.174.174,0,0,1,.043-.129c-.043-.029-.115-.086-.115-.129,0-.1.143-.172.143-.229,0-.086-.2-.172-.2-.329l.029-.115.615.243-.014.1a.178.178,0,0,0,.071.144l-.014.115a.234.234,0,0,0,.072.186.271.271,0,0,0-.043.143c0,.1.1.157.187.186l.043.043a.317.317,0,0,0-.071.158c0,.1.143.272.258.258l-.029.1a.177.177,0,0,0,.171.186l-.014.072a.191.191,0,0,0,.115.158V4.74l.014.043-.229.029c-.114,0-.257-.029-.257-.173l.029-.115H27.2c-.115,0-.215-.014-.215-.143a.336.336,0,0,1-.172.029c-.029,0-.243-.057-.243-.115s.157-.114.2-.129c.043.129.2.157.3.157V4.268h-.057c-.143,0-.243-.029-.214-.186a.151.151,0,0,1-.129-.071.369.369,0,0,1-.272.086l-.057-.015a.149.149,0,0,1-.057-.157l-.143.043a.185.185,0,0,1-.2-.229l.093-.018.093-.039m-.015-.014-.129.046-.129.025a.121.121,0,0,1-.129-.129V3.58h.029a1.321,1.321,0,0,0,.315-.085l-.014.057.012.068.045.047m-.354-2,.082.068v.015c0,.115.086.172.2.172l.129-.015.029.1c-.171-.029-.53-.1-.53-.344l.029-.086.061.09m.183,1.572.039.043a.268.268,0,0,0,.161.043h.2l.087-.015.071.1-.014.143.014.115-.158-.015c-.086,0-.257-.029-.257-.143l.028-.057h-.014a1.364,1.364,0,0,1-.286.057c-.071,0-.158,0-.158-.086l.015-.086.272-.1m-.215.988-.01.027-.033.016a.045.045,0,0,1-.043-.043.037.037,0,0,1,.043-.043l.033.01.01.032m0,1.99h-.057a.4.4,0,0,1-.1.187l.105-.082.052-.1m.006-.191.009-.195h.014c.043.057,0,.214.129.214s.1-.2.1-.272l.143-.1h.057l.157.015.3.071c.115.029.229.029.258.158a2.484,2.484,0,0,1-.415.358l-.144.129h-.172l.158.043.029.057h-.015a.341.341,0,0,1-.172,0,.221.221,0,0,0,.158.043h.057l.1.1a.3.3,0,0,0-.057.158.315.315,0,0,1,.1-.129l.029.029a.3.3,0,0,0-.057.158l.1-.115h.043a.385.385,0,0,0-.071.157l.1-.115.229.086V6.9l-.02.081c-.038.093-.124.205-.21.205a.28.28,0,0,1-.115-.043l-.057.071h-.014c-.043-.143-.015-.228-.144-.358a1.868,1.868,0,0,0-.53-.344c-.071-.029-.272-.029-.272-.115a1.861,1.861,0,0,1,.086-.258.091.091,0,0,0,.077-.035l.029-.085m.064,1.241.182.06.178.022a.4.4,0,0,0,.186-.043.229.229,0,0,0,.072-.115c.015.057.029.086.086.086.029,0,.072-.029.072-.043a.238.238,0,0,0,.1,0v.014a.091.091,0,0,0,.1.1.4.4,0,0,0,.3-.2l.1-.015.043.029s-.229.258-.315.258a.1.1,0,0,1-.072-.057.262.262,0,0,0,.072.172,1.521,1.521,0,0,0-.559-.129h-.043a1.151,1.151,0,0,0-.573.157V7.533a.266.266,0,0,1,.1-.172.837.837,0,0,0-.344-.143l-.014-.143.154.1.174.087m1.577-4.743.057.014a.715.715,0,0,0,.5-.229.853.853,0,0,1-.444.172.32.32,0,0,1-.244-.129.955.955,0,0,0,.315-.215.894.894,0,0,1-.43.187c-.072,0-.172.014-.215-.072a2.166,2.166,0,0,0,.373-.172,1.474,1.474,0,0,1-.544.143c-.072,0-.172-.029-.172-.115a1.686,1.686,0,0,0,.415-.172,1.812,1.812,0,0,1-.516.129.194.194,0,0,1-.129-.029.224.224,0,0,1-.086-.172l.086-.029.173-.086-.173.057a.81.81,0,0,1-.257.043c-.057,0-.143-.014-.143-.086V1.748h.043a1.129,1.129,0,0,0,.358-.1l.057-.043-.057.029a1.079,1.079,0,0,1-.358.086.249.249,0,0,1-.243-.186h.086a.728.728,0,0,0,.314-.057l-.2.014c-.172,0-.573-.071-.573-.314l.021-.084.064-.074.433.274.455.242.745.372c.33.129,1.1.33,1.3.6a.314.314,0,0,0-.143.129l-.143.029c-.043.129-.372.186-.487.186a.12.12,0,0,1-.129-.129l.071-.057H27.6c.229,0,.444-.029.545-.258a.481.481,0,0,1-.459.214l-.129-.014a.466.466,0,0,1-.272.115.167.167,0,0,1-.143-.057l.229-.143-.231.1a.791.791,0,0,1-.242.045.176.176,0,0,1-.186-.172.957.957,0,0,0,.257-.1l.072.015.1-.015.109.08.12.049m-1.934,1.8-.043.043c-.043,0-.057-.029-.057-.043,0-.043.014-.057.057-.057l.027.013.016.045m.115-1.246.04.067a.339.339,0,0,0,.218.091l.115-.015v.015l-.2.059-.219.027c-.057,0-.286,0-.286-.115a.271.271,0,0,1,.071-.143l.258.014m-.086,4.167.1.029a.438.438,0,0,0-.257.172l.1.029c.029.015.057.029.057.057a.08.08,0,0,1-.086.072.159.159,0,0,1-.157-.158.194.194,0,0,1,.151-.187l.092-.013m-.386-2.807-.013.045-.045.012c-.029,0-.043-.014-.043-.057a.038.038,0,0,1,.043-.043l.045.01.013.032m-.015-.071-.1.032-.032.1c0,.057.043.1.129.1a.111.111,0,0,0,.115-.1.135.135,0,0,0-.036-.1l-.079-.032m.118-.611.14,0-.172-.029c-.129,0-.33.1-.358.215a.4.4,0,0,1,.244-.158l.147-.024m-.418.01.173-.086a.862.862,0,0,1,.385-.043.28.28,0,0,0-.186-.043.643.643,0,0,0-.53.3l.158-.129m-.058.7-.018.04-.038.017a.06.06,0,0,1,0-.115l.038.018.018.039m.057.745L24.718,5.2l-.015.014c0,.043-.071.115-.129.143l.109-.055.077-.088M24.674,4.4l-.078.029L24.56,4.5a.126.126,0,0,0,.114.129A.139.139,0,0,0,24.8,4.5a.091.091,0,0,0-.043-.071L24.674,4.4m-.08.877.043-.067.023-.08-.043-.014a.683.683,0,0,1-.143.243l.119-.082m-.059-1.51.17-.116a1.272,1.272,0,0,1,.328-.154,1.07,1.07,0,0,1,.372-.072l.157.029a.2.2,0,0,0,.1.115v.029a.152.152,0,0,0,.129.143l.2.372c.129.243.186.516.343.759a.848.848,0,0,0,.645.429,1.221,1.221,0,0,0,.787-.486.178.178,0,0,0,.087.157,2.066,2.066,0,0,1-.372.329.921.921,0,0,1-.5.144.8.8,0,0,1-.645-.33,5.206,5.206,0,0,1-.386-.8c-.071-.143-.214-.415-.387-.472a.5.5,0,0,1,.129.115h-.029c-.315,0-.6.2-.917.2a.366.366,0,0,1-.358-.215l.043-.071.1-.1m-.022.374.108.043.124.014c.315,0,.644-.2.96-.229l.1.158L25.72,4.11c-.33,0-.63.243-.96.243a.468.468,0,0,1-.429-.286l.057-.115.044.11.081.075m.031-1.922.115.032a.5.5,0,0,0,.43.244.4.4,0,0,1-.286.086.5.5,0,0,1-.559-.5l.015-.071a.668.668,0,0,0,.179.159l.107.052m-.057,1.221v.029l-.062.045-.1.012c-.043,0-.187-.028-.187-.1l.057-.014.105.014.181.015m-.025.333-.089.05a.512.512,0,0,1-.2.047c-.029,0-.086,0-.086-.043s.358-.086.43-.129l.015.015-.068.061m.025-.2-.029.036a.383.383,0,0,1-.171.036c-.043,0-.229-.014-.229-.086,0-.029.014-.057.043-.057l.143.043.117.025.127,0m0,.071.015.029a1.182,1.182,0,0,1-.373.085c-.071,0-.086-.014-.086-.085l.029-.029a.345.345,0,0,0,.172.015l.244-.015m1.818-.845-.166.04-.177.017a.362.362,0,0,1-.3-.115l.244-.1a.8.8,0,0,1-.33.071.489.489,0,0,1-.386-.214.937.937,0,0,0,.343-.086,1.165,1.165,0,0,1-.3.043.5.5,0,0,1-.473-.2h.015a.578.578,0,0,0,.344-.071.834.834,0,0,1-.272.043.666.666,0,0,1-.515-.229h.415L24.5,1.965c-.3-.035-.731-.11-.731-.346l.043-.129,1.249.562,1.271.541v.043l-.025.078,0,.079.089.127.083.073.048.032.038.054c0,.057-.173.129-.143.215l-.087.014H26.25a.286.286,0,0,1-.272-.115l.2-.071a.844.844,0,0,1-.329.057c-.1,0-.2-.029-.23-.129l.173-.086a.532.532,0,0,1-.258.057.328.328,0,0,1-.3-.143l.157-.086a1.317,1.317,0,0,1-.329.057.246.246,0,0,1-.244-.186.465.465,0,0,0,.287-.172.545.545,0,0,0,.486.258.362.362,0,0,0,.33.143.456.456,0,0,0,.344.158l.148-.031.067-.027-.144.014a.408.408,0,0,1-.314-.115l.148-.039.138-.061m-2.277.53-.045.032-.013.054c-.157-.015-.444-.187-.444-.373,0-.057.072-.086.129-.057l.372.344m-.129.172-.043.085c-.143-.014-.6-.257-.6-.415a.107.107,0,0,1,.172-.086c.086.072.115.172.229.258l.244.158m-.673-1.088.1.041a1.333,1.333,0,0,1,.2.3h-.057a.12.12,0,0,0-.115.043.494.494,0,0,1-.171-.3l0-.054.038-.032m0-.1-.018.04-.039.017a.062.062,0,0,1-.057-.057.053.053,0,0,1,.057-.057l.039.013.018.045m.225,1.16.075.043a1.264,1.264,0,0,0,.316.143.089.089,0,0,0,0,.086c-.129,0-.731-.187-.731-.329,0-.029.029-.158.072-.158l.268.215m-.138.154.3.132.229.058.043.071H23.8c-.157,0-.787-.057-.787-.286,0-.029.029-.086.057-.086l.244.111M23.1,2.249l-.027.064-.059.022a.082.082,0,0,1-.086-.086.092.092,0,0,1,.086-.086l.059.027.027.059m-.187.129.105.036.1.079c.1.086.086.214.143.329-.057,0-.115.071-.157.1-.115-.1-.287-.272-.287-.429l.029-.09.072-.024m.029.888-.014-.029a.187.187,0,0,1,.172-.187.186.186,0,0,1,.228-.158.138.138,0,0,1,.143-.1.279.279,0,0,1,.2.129l-.086.015-.072-.029c-.057,0-.1.071-.115.1h-.043c-.115,0-.143.087-.157.187,0,0-.157.158-.143.258-.057.015-.129.043-.129.115a.178.178,0,0,0,.057.115c-.043.029-.029.057-.029.1-.057-.029-.144-.043-.144-.115a.1.1,0,0,1,.043-.087.17.17,0,0,1-.043-.143.186.186,0,0,1,.073-.149l.057-.022M22.9,2.235l-.01.048a.125.125,0,0,1-.119.066.115.115,0,0,1,0-.23.125.125,0,0,1,.119.067l.01.048m-.224.275.059.048a4.7,4.7,0,0,1,.337.435c-.072,0-.115.057-.129.129-.143-.1-.458-.3-.458-.473a.147.147,0,0,1,.143-.157l.049.017m-.292,4.908.267-.138a1.772,1.772,0,0,1,.75-.163,1.451,1.451,0,0,1,.945.344.88.88,0,0,0-.387-.057,1.821,1.821,0,0,0-.472.129l.229-.2h-.129a1.945,1.945,0,0,0-.673.172l.172-.2a1.078,1.078,0,0,0-.33.025l-.372.089m.272-5.112-.013.069a.164.164,0,0,1-.159.1.172.172,0,0,1,0-.344.164.164,0,0,1,.159.1l.013.069m.229.9-.056.032-.045.054c-.115-.057-.472-.215-.472-.358,0-.029.057-.186.115-.186.029,0,.125.1.224.207l.235.251m-.573-.129.444.258a.206.206,0,0,0-.014.158c-.158-.015-.472-.143-.472-.33l.01-.054.032-.032m0-.63.084.032.031.1a.1.1,0,0,1-.115.1c-.071,0-.129-.043-.129-.1a.126.126,0,0,1,.038-.1l.091-.032m.009.268.02.047c0,.057-.029.1-.086.1a.086.086,0,0,1,.015-.171l.052.024m-.023.219-.018.04-.039.017a.066.066,0,0,1-.057-.072l.043-.043.052.018.02.039m2.849.229-.136-.029a.308.308,0,0,1-.265-.3l.029-.114A.293.293,0,0,0,25,2.9l.1.011.053.063.075.052-.048.066-.038.077v.029c0,.172.3.2.415.172v.057a1.523,1.523,0,0,0-.444-.071,3.156,3.156,0,0,0-.516.057l-.029.071a.275.275,0,0,0,.072.143l-.029.029c-.057,0-.1-.086-.1-.143l.043-.1-.043.014a.63.63,0,0,1-.315-.1l-.029.057a.08.08,0,0,0-.086.071.087.087,0,0,0-.057.129.08.08,0,0,0-.043.072.105.105,0,0,0,.029.086c-.029,0-.043.029-.043.057a.1.1,0,0,0,.057.072V3.91l-.015.015a.087.087,0,0,1-.085-.1.1.1,0,0,1-.043-.086.078.078,0,0,1,.043-.071L23.9,3.609a.089.089,0,0,1,.057-.086l-.014-.028c0-.029.029-.072.057-.072V3.409a.055.055,0,0,1,.071-.043c.015-.043.043-.043.072-.043a1.9,1.9,0,0,1-.773-.931c-.029-.057-.1-.229-.186-.229h-.029a.257.257,0,0,0-.229-.057.24.24,0,0,0-.173-.071c-.043,0-.1.014-.115.043l-.171-.043a.233.233,0,0,0-.244.243v.1a.155.155,0,0,0-.1.143l.029.143c-.015,0-.043.029-.043.071l.029.086-.014.086.043.172a1.592,1.592,0,0,0,1.575.888,2.441,2.441,0,0,0,.659-.086,3.094,3.094,0,0,0-.3.7.791.791,0,0,1-.314.53,1.412,1.412,0,0,1-.645.129c-.243.029-.559.173-.559.458,0,.2.143.244.143.358,0,.143-.329.214-.329.458,0,.172.214.329.344.386a.323.323,0,0,1-.143-.214c0-.258.616-.129.616-.487,0-.229-.286-.372-.286-.6l.014-.057c.2-.129.63-.043.931-.172a.82.82,0,0,0,.423-.415l.064-.2.025-.129,0-.129c-.144.659-.4.9-1.046.917l-.286.014a.29.29,0,0,0-.229.286l.072-.143V5.6c0,.229.272.386.272.6,0,.286-.444.214-.573.372.086-.286.53-.129.53-.416a.131.131,0,0,0-.057-.115l.014.057a.145.145,0,0,1-.129.158l.014-.086c0-.215-.2-.33-.2-.473a.188.188,0,0,1,.043-.114.215.215,0,0,0-.1.157c0,.129.115.2.115.315s-.158.157-.244.214c.072-.071.187-.115.187-.214,0-.143-.143-.158-.143-.315,0-.272.286-.43.516-.458s.473.029.673-.129c.314-.214.358-.716.5-1.074a.449.449,0,0,0,.472.315,1.616,1.616,0,0,0,.574-.143.1.1,0,0,0-.057.1.11.11,0,0,0,.1.115.113.113,0,0,0,.115-.115.116.116,0,0,0-.129-.115l.272-.085a.145.145,0,0,0-.057.1c0,.057.043.086.1.086a.1.1,0,0,0,.1-.086.12.12,0,0,0-.1-.1h.1a4.543,4.543,0,0,0,.53,1.088.847.847,0,0,0,.459.244l-.015.129.015.129a1.974,1.974,0,0,1-.459-.129.2.2,0,0,1-.086-.158.343.343,0,0,1-.214.229l-.115.071.015.1c0,.043,0,.115-.043.129-.115,0-.029-.2-.143-.2s-.014.3-.115.3-.072-.258-.129-.258c-.086,0-.014.315-.115.315s-.057-.258-.157-.258-.057.229-.143.229-.057-.215-.071-.272l-.129.015a1.418,1.418,0,0,0,.759-.53h.029a.222.222,0,0,0,.187-.115.253.253,0,0,1-.143.057h-.057l.029-.043a.252.252,0,0,0,.187-.172.194.194,0,0,1-.158.1l.043-.186a1.34,1.34,0,0,1-.889.845,1.026,1.026,0,0,0-.286.129.373.373,0,0,0-.129.229.38.38,0,0,1-.2.071h.187v.043a.479.479,0,0,1-.215.072.483.483,0,0,0,.2,0v.057a.317.317,0,0,1-.2.043.492.492,0,0,0,.2.014.577.577,0,0,0,.043.215V6.7l.071-.014a.092.092,0,0,1,.086.071c0,.143-.372.33-.487.33-.057,0-.072-.014-.072-.057l.015-.072a.554.554,0,0,0,.34-.153l.047-.1-.054.086a.667.667,0,0,1-.333.129c-.015-.1-.072-.086-.143-.086-.043,0-.1-.015-.1-.072,0-.115.329-.63.329-.9,0-.1-.1-.129-.1-.2,0-.143.4-.143.4-.544a.623.623,0,0,0-.061-.276l-.054-.082.064.147.022.168c0,.444-.43.358-.43.587,0,.086.1.129.1.2,0,.258-.329.745-.329.9s.115.129.214.129l.014.014c.029,0,.029.029.043.057l-.015.087.023.073.078.041.132-.028a.819.819,0,0,0,.341-.215.093.093,0,0,1,.057.072c0,.1-.358.272-.472.272l-.043-.015L24.145,7.2V7.16l-.011.05.011.05a1.524,1.524,0,0,0-.745-.2,1.892,1.892,0,0,0-1.26.5,2.84,2.84,0,0,1,.831-.214,1.651,1.651,0,0,0-.2.272,2.059,2.059,0,0,1,.673-.214l.129-.029-.415.358A2.249,2.249,0,0,1,24,7.461a3.8,3.8,0,0,1,.416.043l-.057-.1a1.042,1.042,0,0,0,.429.071.161.161,0,0,0,.086,0,1.092,1.092,0,0,1-.157-.229l.029-.057c.057,0,.115.258.286.258l.072-.014-.33-.458a.152.152,0,0,0-.129-.072l.028-.115a.117.117,0,0,0-.114-.129l-.086.014V6.488c0-.315.057-.5.358-.6h.158c0,.071-.015.272.1.272s.1-.2.143-.243l.015.014c.014.086.029.244.142.244.086,0,.115-.158.115-.229.015.057.043.172.1.2a.624.624,0,0,0-.129.258V6.43c0,.086.1.1.172.115a1.455,1.455,0,0,1,.687.4.37.37,0,0,1,.057.214c0,.029-.029.072-.057.072a.325.325,0,0,1-.157.043,1.065,1.065,0,0,1-.831-.43,1.152,1.152,0,0,0,.071.372H25.39a.225.225,0,0,0-.257.229.241.241,0,0,0,.243.244.16.16,0,0,0,.172-.143.244.244,0,0,0-.086-.143.214.214,0,0,1,.143-.043l.115.015a.174.174,0,0,0-.086.172l.029.129a1.216,1.216,0,0,1,.673-.214h.057a1.365,1.365,0,0,1,.544.1.664.664,0,0,0,.287.043l.3-.029-.272-.2.029-.029c.1,0,.186.143.272.172l.029-.043c0-.143-.315-.415-.458-.415l.015-.1c0-.086-.058-.129-.144-.129l-.1.029c-.086-.043-.5-.344-.5-.444l.215-.172a1.085,1.085,0,0,0,.415-.43l.144.015v.115a.28.28,0,0,0-.187.258l-.057.057c0,.072.157.143.215.157a.082.082,0,0,0,.086.086c.043,0,.057-.043.071-.086.057-.014.215-.085.215-.157a.062.062,0,0,0-.057-.057.262.262,0,0,0-.215-.258V5.829c.2,0,.659-.043.759-.229h.143a.164.164,0,0,0,.157.086.877.877,0,0,1,.3.344c.057.143-.015.33.214.315a1.207,1.207,0,0,1,.286.573v.014a.185.185,0,0,0-.057.144.167.167,0,0,0,.186.157l.1-.015.043.057V7.3l-.173.029c-.143,0-.314-.071-.314-.229a.191.191,0,0,1,.029-.114h-.057a.272.272,0,0,0-.3.3l.043.172h-.115c-.086,0-.314-.029-.314-.143s.214-.158.214-.3c0-.072-.072-.115-.143-.144A.359.359,0,0,1,28.47,6.8a.394.394,0,0,1,.258.1.538.538,0,0,0-.5-.372.578.578,0,0,0-.53.573.55.55,0,0,0,.615.559h.143v.014a.328.328,0,0,0,.173.258c.143-.2.458-.172.673-.172a.635.635,0,0,0,.43-.157l.286.029.129-.015a1.027,1.027,0,0,1-.158-.214l.043-.057a1.4,1.4,0,0,1,.2.229A.068.068,0,0,0,30.3,7.5a.147.147,0,0,0-.071-.115A.682.682,0,0,1,30.6,7.3l.215.029-.215.086a.5.5,0,0,0-.129.33v.115a.965.965,0,0,1,.129-.2.58.58,0,0,1,.215-.043l.487.043.293-.036.293-.078a.443.443,0,0,0,.244.057.927.927,0,0,0,.272-.057h-.015c-.086,0-.214-.057-.214-.143a.1.1,0,0,1,.057-.086l.157.014a.669.669,0,0,0,.3-.071l-.043.415a1.171,1.171,0,0,1,.859-.358.661.661,0,0,1,.3.057c.129.4.558.358.673.573.072-.129.272-.172.4-.258a.559.559,0,0,0,.258-.315.812.812,0,0,1,.315-.057,1.114,1.114,0,0,1,.845.358,2.1,2.1,0,0,0-.029-.415.713.713,0,0,0,.287.071,1.113,1.113,0,0,0,.3-.057.252.252,0,0,1,.057.172.2.2,0,0,1-.243.215l.186.014c.172,0,.43-.029.416-.258.172,0,.4.057.4.258a.6.6,0,0,1-.057.215.494.494,0,0,0,.258-.487l.129-.015a1.128,1.128,0,0,0,.53.143c.158,0,.43-.057.473-.243l.143-.029h.029a.156.156,0,0,1,.187.186.265.265,0,0,0,.071-.172.2.2,0,0,0-.129-.186,1.446,1.446,0,0,1,.558-.115c.1,0,.229.015.229.143s-.258.129-.358.115a.528.528,0,0,0,.559.2l.029.1c0,.129-.229.158-.33.172a.979.979,0,0,0,.287.029c.143,0,.458-.043.5-.229a.791.791,0,0,0,.673.344.479.479,0,0,0,.444-.186.5.5,0,0,0,.286.071c.172,0,.745-.1.845-.258l.4.015a2.376,2.376,0,0,1,.6.129,3.055,3.055,0,0,0,1,.258.754.754,0,0,0,.544-.2,8.4,8.4,0,0,0,1.175.2c.386,0,.873-.172.873-.644,0-.33-.243-.473-.544-.516a.323.323,0,0,1,.215.3,1.027,1.027,0,0,0-.3-.029h-.2c.157.043.329.143.329.329,0,.243-.186.344-.4.344l-.272-.015c.143,0,.458-.029.458-.229a.363.363,0,0,0-.086-.2l.015-.057a.281.281,0,0,0-.143-.186l-.029.015-.043-.1a1.423,1.423,0,0,0-.187-.4c-.129-.215-.4-.473-.4-.716a4.036,4.036,0,0,1,.329-.859l.086-.344a2.161,2.161,0,0,0,.043-.415L46.485,4v.057a1.613,1.613,0,0,1-.945-.5L45.5,3.237c.2.2.574.659.874.659h.043a3.088,3.088,0,0,1-.93-.687c-.029-.316-.1-.63-.143-.96a2.8,2.8,0,0,1,1.045.96,3.149,3.149,0,0,1,.5,1.761v.2c0,.244.2.372.2.573,0,.057-.029.071-.072.071-.086-.272-.2-.257-.214-.615l-.014.1c0,.3.186.444.186.573,0,.043-.015.057-.057.057-.115-.258-.243-.258-.243-.6,0-.2.043-.4.043-.6a1.324,1.324,0,0,0-.121-.578L46.485,4l.089.16a1.341,1.341,0,0,1,.1.527c0,.215-.057.4-.057.615,0,.4.3.587.3.845a.437.437,0,0,1-.071.187l.043.014a.716.716,0,0,0,.315-.53c0-.228-.158-.3-.244-.487a1.462,1.462,0,0,1-.014-.5,1.652,1.652,0,0,0-.043-.372,3.156,3.156,0,0,0-.6-1.489,4.626,4.626,0,0,0-2.864-1.4,8.292,8.292,0,0,0-1.188-.086.962.962,0,0,0-.4-.143A.748.748,0,0,0,41.2.917a.709.709,0,0,0-.3.072.974.974,0,0,0-.458-.1.814.814,0,0,0-.645.43c-.214.314-.486.43-.644.8a1.955,1.955,0,0,0-.1.488c-.071.057-.243.214-.243.314,0,.072.1.072.143.086a1.614,1.614,0,0,0-.157.488c-.115,0-.244-.086-.358-.086-.043,0-.086.014-.086.071,0,.115.244.243.33.272a2.512,2.512,0,0,0-.173.788c0,.458.144.917.645,1.031l.143.015a.781.781,0,0,0,.63-.358c.129-.072.43-.129.43-.315,0-.115-.157-.1-.229-.1h-.071c-.015-.072-.087-.3-.173-.3-.129,0-.143.229-.143.315a.682.682,0,0,1-.372.2c-.144,0-.173-.115-.173-.229a1.33,1.33,0,0,1,.516-.888l-.028.172.028.072c.057,0,.316-.358.574-.358.157,0,.3.043.458.043a.97.97,0,0,0,.344-.057v.043a.162.162,0,0,0,.043.115.215.215,0,0,0-.057.129c0,.029.029.057.057.086l-.029.085a.114.114,0,0,0,.043.1A.332.332,0,0,0,41.1,4.5a.149.149,0,0,0,.1.143c-.143.516-1.188.516-1.318,1.3L39.869,5.9c-.072.015-.143.057-.143.143l.029.1c-.086.029-.214.1-.214.215,0,.171.343.286.472.329L39.9,6.673a1.139,1.139,0,0,0-.745.272L39.081,7V6.989a.2.2,0,0,0-.143-.2,1.05,1.05,0,0,0,.1-.415l-.015-.1a.625.625,0,0,1-.257.215,1.245,1.245,0,0,0-.287-.43l.015.172a.878.878,0,0,1-.272.687,1.126,1.126,0,0,1-.258.2V7.075a.806.806,0,0,0-.144-.43c-.071.258-.229.516-.53.516a.52.52,0,0,1-.258-.057V7.075a.841.841,0,0,0-.072-.33.663.663,0,0,1,.387-.158.285.285,0,0,1,.158.029l.014-.1a.53.53,0,0,0-.243-.416,1.282,1.282,0,0,1,.687-.157l.358.014a.984.984,0,0,0-.716-.258,1.413,1.413,0,0,0-.344.043l.229-.3c.057-.015.057-.043.1-.087a1.222,1.222,0,0,1,.444-.243h.115a.787.787,0,0,0-.315-.086l-.2.029a.853.853,0,0,1,.458-.372.52.52,0,0,0-.214-.043.567.567,0,0,0-.344.1,2.263,2.263,0,0,1,.6-.945h-.072a.888.888,0,0,0-.587.358,7.854,7.854,0,0,1,.7-1.218A1.9,1.9,0,0,0,37.091,4.1a5.757,5.757,0,0,1,1.046-1.79,2.152,2.152,0,0,0-1.175,1.046V2.592l.143.029a.313.313,0,0,0,.316-.329.433.433,0,0,0-.143-.315c-.158-.172-.316-.373-.487-.53a.3.3,0,0,0-.158-.057.393.393,0,0,0-.258.143,1.824,1.824,0,0,1-.516.286l-.215.057a1.425,1.425,0,0,0-.759-.687,1.253,1.253,0,0,0-.4-.071,1.368,1.368,0,0,0-1.174.716l-.043-.015a1.659,1.659,0,0,1-.516-.286.391.391,0,0,0-.272-.143.256.256,0,0,0-.129.057c-.187.157-.33.358-.5.53a.433.433,0,0,0-.143.315.312.312,0,0,0,.315.329l.129-.029v.759a2.059,2.059,0,0,0-1.174-1.046A5.285,5.285,0,0,1,32.035,4.1a1.977,1.977,0,0,0-1.088-1.16,6.841,6.841,0,0,1,.687,1.218A.74.74,0,0,0,30.99,3.8a2.14,2.14,0,0,1,.6.945.569.569,0,0,0-.344-.1.521.521,0,0,0-.214.043,1.006,1.006,0,0,1,.472.372l-.215-.029a.787.787,0,0,0-.314.086.832.832,0,0,1,.558.243.153.153,0,0,0,.1.087l.228.3a1.434,1.434,0,0,0-.358-.043,1.04,1.04,0,0,0-.73.258l.329-.029a1.484,1.484,0,0,1,.7.158.718.718,0,0,0-.344.53.281.281,0,0,1,.157-.029.659.659,0,0,1,.386.158l-.071.315a.874.874,0,0,1-.344.086c-.229,0-.587-.115-.587-.4a.535.535,0,0,1,.228-.415l-.143-.015a.373.373,0,0,0-.372.386L30.6,6.86l-.029.129.015.1a.6.6,0,0,0-.272-.071,1.613,1.613,0,0,0-.373.085.44.44,0,0,0-.186-.114.281.281,0,0,0,.057-.173c0-.129-.143-.143-.243-.129l-.215-.444a.135.135,0,0,0,.029-.1c0-.158-.115-.229-.158-.358l.158.015c.329,0,.6-.229.945-.229v.043l-.143.129h-.014a.183.183,0,0,0-.143.157l.029.043c-.057,0-.144.029-.144.086s.057.057.072.1a.357.357,0,0,0-.187.315.586.586,0,0,0,.057.272.678.678,0,0,0,.3-.229,1.8,1.8,0,0,1-.071.258.5.5,0,0,0,.329-.4.115.115,0,0,0,.071-.072h.072l.043-.014a.157.157,0,0,0,.144-.158.2.2,0,0,0-.1-.172V5.915c0-.143.286-.329.286-.587,0-.186-.186-.214-.33-.243A3.869,3.869,0,0,1,30.06,5l.057-.071a.318.318,0,0,0,.186-.272.547.547,0,0,0-.086-.258.271.271,0,0,0,.043-.115.272.272,0,0,0-.072-.143A.264.264,0,0,0,30.06,3.9a.667.667,0,0,0,.086-.33.808.808,0,0,0-.344-.63l.172-.186c.087-.015.416.014.416-.158l-.043-.143c.114-.014.114-.071.114-.172l.029-.043-.014-.057V2.163c0-.086.115-.072.115-.143A1.5,1.5,0,0,0,30.4,1.7a.861.861,0,0,1-.014-.33.319.319,0,0,0-.086-.243V1.074A.147.147,0,0,0,30.231.96c0-.172-.029-.358-.244-.386L30,.631l-.043.2a1,1,0,0,0-.344-.071,1.011,1.011,0,0,0-.358.071L29.243.745a.283.283,0,0,1,.029-.157.482.482,0,0,0-.3.43.874.874,0,0,0-.314.817c-.015-.029-.072-.043-.1-.043a.323.323,0,0,0-.2.086l.029.057a.259.259,0,0,0-.229.129.268.268,0,0,0,.172.115l-.057.129.229.057-.072.129h-.014A2.853,2.853,0,0,0,27.3,1.92a5.494,5.494,0,0,1-.96-.488l-.9-.544a.417.417,0,0,0-.157.287c0,.186.214.314.372.343l-.043.187c0,.2.187.286.344.315v.043c0,.2.186.258.358.243a.137.137,0,0,0,.029.1.316.316,0,0,0,.3.1c0,.072.015.129.072.158l-.373-.158c-.831-.358-1.689-.687-2.52-1.074a.448.448,0,0,0-.086.229c0,.244.343.3.515.33l-.014.172a.466.466,0,0,0,.5.5.38.38,0,0,0-.043.171c0,.183.153.277.308.312l.15.017M21.066,5.643h-.129c-.315,1.2-.773,1.775-1.962,1.775-1.26,0-1.5-.186-1.5-1.589V4.082h.645c.859,0,1.4.186,1.475,1.217h.115L19.677,3.91l.029-1.246h-.115c-.071.93-.759,1.174-1.518,1.174h-.6V.7h.458c.759,0,1.862.029,2.335.816a3.123,3.123,0,0,1,.314.974h.115c-.029-.43-.029-.831-.029-1.26l.029-.859A30.153,30.153,0,0,1,17.1.488L15.109.459V.587c.787.043,1.059.143,1.059,1.045V6.5c0,.888-.286.988-1.059,1.046v.115c.745-.029,1.5-.029,2.248-.029a32.2,32.2,0,0,1,3.523.115L20.956,6.7l.11-1.052M14.45,7.662V7.547c-.773-.057-1.074-.158-1.074-1.046V1.633c0-.888.286-1,1.074-1.045V.459L12.717.488l-1.7-.029V.587c.8.043,1.059.143,1.059,1.045V3.8l-1.861.015H8.822V1.633c0-.888.286-1,1.074-1.045V.459L8.177.488,6.473.459V.587c.788.043,1.06.143,1.06,1.045V6.5c0,.888-.286.988-1.06,1.046v.115l1.7-.029L9.9,7.662V7.547C9.122,7.49,8.822,7.389,8.822,6.5V4.024L10.4,4.01l1.675.014V6.5c0,.888-.258.988-1.059,1.046v.115l1.7-.029,1.733.029M6.086,2.65,6.072,1.218,6.086.387A10.188,10.188,0,0,1,4.955.459L3.595.473H2.506L1.117.459A9.612,9.612,0,0,1,0,.387l.015.831L0,2.65H.1C.344,1.461.558.687,2.134.687h.229l.029,2.077V6.5c0,.788-.286.974-1.2,1.046v.115l1.862-.029L4.9,7.662V7.547C4,7.475,3.681,7.29,3.681,6.5V2.764L3.709.687h.257c1.432,0,1.79.845,2.006,1.962h.114" transform="translate(16.038 1.746)" fill="#fff"/>
      </g>
    </g>
  </g>
</svg>
