<svg xmlns="http://www.w3.org/2000/svg" width="307.813" height="40.362" viewBox="0 0 307.813 40.362">
  <g id="Frontline" transform="translate(0 0)">
    <path id="Path_831" data-name="Path 831" d="M-567.228,36.79a4.388,4.388,0,0,0-.112-1.092,1.028,1.028,0,0,0-.5-.645,3.4,3.4,0,0,0-1.149-.337q-.757-.111-2.046-.223v-.561h29.094l.28,9.475h-.561a24.543,24.543,0,0,0-1.121-3.42,10.056,10.056,0,0,0-1.739-2.831,8.273,8.273,0,0,0-2.522-1.934,7.445,7.445,0,0,0-3.364-.728H-559.1V53.945h5.158a5.342,5.342,0,0,0,4.008-1.654,8.448,8.448,0,0,0,1.989-5.017h.561v13.9h-.561a8.45,8.45,0,0,0-1.989-5.017,5.345,5.345,0,0,0-4.008-1.654H-559.1V70.313a4.339,4.339,0,0,0,.113,1.094,1.018,1.018,0,0,0,.5.645,3.381,3.381,0,0,0,1.149.336c.5.074,1.185.15,2.047.223v.561H-571.04v-.561q1.288-.111,2.046-.223a3.385,3.385,0,0,0,1.149-.336,1.026,1.026,0,0,0,.5-.645,4.4,4.4,0,0,0,.112-1.094Z" transform="translate(571.04 -33.37)" fill="#fff"/>
    <path id="Path_832" data-name="Path 832" d="M-508.486,33.931a18.485,18.485,0,0,1,5.607.785,11.894,11.894,0,0,1,4.148,2.214,9.715,9.715,0,0,1,2.579,3.392,10.135,10.135,0,0,1,.9,4.26,9.706,9.706,0,0,1-.813,3.9,9,9,0,0,1-2.551,3.335,13.826,13.826,0,0,1-4.4,2.383,21.673,21.673,0,0,1-6.42,1.037,25.225,25.225,0,0,1,5.018,1.289,15.624,15.624,0,0,1,3.223,1.653A7.783,7.783,0,0,1-499.293,60a17.147,17.147,0,0,1,1.122,1.793l3.868,6.9a9.343,9.343,0,0,0,2.215,2.915,5.283,5.283,0,0,0,2.326,1.009v.561h-10.875q-.9-1.345-1.85-3.026a29.787,29.787,0,0,1-1.626-3.308l-2.971-6.11q-.841-1.681-1.794-3.223a6.369,6.369,0,0,0-2.242-2.27h-3.14V70.313a4.336,4.336,0,0,0,.113,1.094,1.018,1.018,0,0,0,.5.645,3.385,3.385,0,0,0,1.15.336q.756.112,2.046.223v.561H-526.2v-.561q1.289-.111,2.046-.223A3.4,3.4,0,0,0-523,72.051a1.025,1.025,0,0,0,.5-.645,4.329,4.329,0,0,0,.113-1.094V36.79A4.321,4.321,0,0,0-522.5,35.7a1.027,1.027,0,0,0-.5-.645,3.413,3.413,0,0,0-1.149-.337q-.757-.111-2.046-.223v-.561Zm-5.774.561v20.18h2.748a8.47,8.47,0,0,0,3.84-.756,5.833,5.833,0,0,0,2.326-2.075,8.675,8.675,0,0,0,1.178-3.111,21.328,21.328,0,0,0,.336-3.924,21.446,21.446,0,0,0-.336-3.784,11.292,11.292,0,0,0-1.093-3.307,6.479,6.479,0,0,0-2.046-2.326,5.466,5.466,0,0,0-3.2-.9Z" transform="translate(559.274 -33.37)" fill="#fff"/>
    <path id="Path_833" data-name="Path 833" d="M-457.169,73.533a20.157,20.157,0,0,1-7.68-1.486,19.266,19.266,0,0,1-6.363-4.176,20.444,20.444,0,0,1-4.345-6.391,19.989,19.989,0,0,1-1.626-8.128,20,20,0,0,1,1.626-8.129,20.469,20.469,0,0,1,4.345-6.391,19.3,19.3,0,0,1,6.363-4.176,20.144,20.144,0,0,1,7.68-1.486,20.142,20.142,0,0,1,7.68,1.486,19.313,19.313,0,0,1,6.362,4.176,20.51,20.51,0,0,1,4.345,6.391,20,20,0,0,1,1.626,8.129,19.985,19.985,0,0,1-1.626,8.128,20.484,20.484,0,0,1-4.345,6.391,19.28,19.28,0,0,1-6.362,4.176A20.156,20.156,0,0,1-457.169,73.533Zm0-39.8a8.294,8.294,0,0,0-4.932,1.514,11.979,11.979,0,0,0-3.56,4.148,22.917,22.917,0,0,0-2.186,6.222,37.428,37.428,0,0,0-.757,7.737,37.41,37.41,0,0,0,.757,7.736,22.9,22.9,0,0,0,2.186,6.222,11.972,11.972,0,0,0,3.56,4.148,8.289,8.289,0,0,0,4.932,1.514,8.334,8.334,0,0,0,4.906-1.514,11.852,11.852,0,0,0,3.588-4.148,22.953,22.953,0,0,0,2.186-6.222,37.5,37.5,0,0,0,.756-7.736,37.522,37.522,0,0,0-.756-7.737,22.97,22.97,0,0,0-2.186-6.222,11.859,11.859,0,0,0-3.588-4.148A8.339,8.339,0,0,0-457.169,33.732Z" transform="translate(546.413 -33.171)" fill="#fff"/>
    <path id="Path_834" data-name="Path 834" d="M-389.809,73.452l-26.179-35.2V70.313a1.934,1.934,0,0,0,.28,1.094,1.807,1.807,0,0,0,1.037.645,10.977,10.977,0,0,0,2.1.336q1.345.112,3.476.223v.561h-12.838v-.561q1.683-.111,2.72-.223a6.809,6.809,0,0,0,1.626-.336,1.456,1.456,0,0,0,.813-.645,2.326,2.326,0,0,0,.223-1.094v-31.5a6.229,6.229,0,0,0-.167-1.4,3,3,0,0,0-.729-1.345,4.278,4.278,0,0,0-1.626-1.038,9.638,9.638,0,0,0-2.859-.532v-.561h12.614l19.509,26.8V36.79a1.936,1.936,0,0,0-.281-1.092,1.81,1.81,0,0,0-1.036-.645,11.045,11.045,0,0,0-2.1-.337q-1.344-.111-3.475-.223v-.561h12.837v.561q-1.683.112-2.72.223a6.816,6.816,0,0,0-1.625.337,1.456,1.456,0,0,0-.813.645,2.312,2.312,0,0,0-.224,1.092V73.452Z" transform="translate(531.915 -33.37)" fill="#fff"/>
    <path id="Path_835" data-name="Path 835" d="M-366.93,33.931H-336.6l.281,9.475h-.561a13.237,13.237,0,0,0-3.054-6.532,7.048,7.048,0,0,0-5.354-2.382H-347.7V70.313a4.307,4.307,0,0,0,.113,1.094,1.019,1.019,0,0,0,.5.645,3.389,3.389,0,0,0,1.15.336q.756.112,2.045.223v.561h-15.752v-.561q1.289-.111,2.045-.223a3.393,3.393,0,0,0,1.15-.336,1.025,1.025,0,0,0,.5-.645,4.337,4.337,0,0,0,.113-1.094V34.492h-2.411a7.046,7.046,0,0,0-5.354,2.382,13.239,13.239,0,0,0-3.054,6.532h-.56Z" transform="translate(517.557 -33.37)" fill="#fff"/>
    <path id="Path_836" data-name="Path 836" d="M-316.887,36.79A4.364,4.364,0,0,0-317,35.7a1.028,1.028,0,0,0-.5-.645,3.405,3.405,0,0,0-1.149-.337q-.756-.111-2.046-.223v-.561h15.752v.561q-1.29.112-2.046.223a3.4,3.4,0,0,0-1.149.337,1.019,1.019,0,0,0-.5.645,4.3,4.3,0,0,0-.113,1.092V72.611h7.344a8.121,8.121,0,0,0,6.167-2.41,15.9,15.9,0,0,0,3.531-6.5h.561l-.561,9.474H-320.7v-.561q1.289-.111,2.046-.223a3.389,3.389,0,0,0,1.149-.336,1.026,1.026,0,0,0,.5-.645,4.373,4.373,0,0,0,.113-1.094Z" transform="translate(505.354 -33.37)" fill="#fff"/>
    <path id="Path_837" data-name="Path 837" d="M-272.807,36.79a4.359,4.359,0,0,0-.113-1.092,1.026,1.026,0,0,0-.5-.645,3.4,3.4,0,0,0-1.149-.337q-.756-.111-2.046-.223v-.561h15.752v.561q-1.29.112-2.046.223a3.4,3.4,0,0,0-1.149.337,1.018,1.018,0,0,0-.5.645,4.294,4.294,0,0,0-.113,1.092V70.313a4.3,4.3,0,0,0,.113,1.094,1.017,1.017,0,0,0,.5.645,3.384,3.384,0,0,0,1.149.336q.757.112,2.046.223v.561H-276.62v-.561q1.289-.111,2.046-.223a3.388,3.388,0,0,0,1.149-.336,1.024,1.024,0,0,0,.5-.645,4.368,4.368,0,0,0,.113-1.094Z" transform="translate(493.787 -33.37)" fill="#fff"/>
    <path id="Path_838" data-name="Path 838" d="M-218.431,73.452l-26.179-35.2V70.313a1.934,1.934,0,0,0,.28,1.094,1.8,1.8,0,0,0,1.037.645,10.977,10.977,0,0,0,2.1.336q1.344.112,3.476.223v.561h-12.838v-.561q1.683-.111,2.72-.223a6.809,6.809,0,0,0,1.626-.336,1.452,1.452,0,0,0,.812-.645,2.316,2.316,0,0,0,.224-1.094v-31.5a6.225,6.225,0,0,0-.168-1.4,3,3,0,0,0-.73-1.345,4.277,4.277,0,0,0-1.626-1.038,9.639,9.639,0,0,0-2.859-.532v-.561h12.614l19.508,26.8V36.79a1.935,1.935,0,0,0-.281-1.092,1.81,1.81,0,0,0-1.036-.645,11.048,11.048,0,0,0-2.1-.337q-1.344-.111-3.476-.223v-.561h12.838v.561q-1.683.112-2.72.223a6.818,6.818,0,0,0-1.625.337,1.454,1.454,0,0,0-.813.645,2.3,2.3,0,0,0-.224,1.092V73.452Z" transform="translate(486.948 -33.37)" fill="#fff"/>
    <path id="Path_839" data-name="Path 839" d="M-165.166,43.406h-.561a24.56,24.56,0,0,0-1.121-3.42,10.049,10.049,0,0,0-1.739-2.831,8.268,8.268,0,0,0-2.522-1.934,7.444,7.444,0,0,0-3.364-.728H-182.6v18.33h5.158a5.342,5.342,0,0,0,4.008-1.654,8.449,8.449,0,0,0,1.99-5.017h.56v13.9h-.56a8.453,8.453,0,0,0-1.99-5.017,5.345,5.345,0,0,0-4.008-1.654H-182.6V72.611h7.9a8.119,8.119,0,0,0,6.167-2.41A15.9,15.9,0,0,0-165,63.7h.561L-165,73.172h-29.543v-.561q1.289-.111,2.046-.223a3.39,3.39,0,0,0,1.149-.336,1.025,1.025,0,0,0,.5-.645,4.379,4.379,0,0,0,.112-1.094V36.79a4.371,4.371,0,0,0-.112-1.092,1.027,1.027,0,0,0-.5-.645,3.406,3.406,0,0,0-1.149-.337q-.757-.111-2.046-.223v-.561h29.094Z" transform="translate(472.251 -33.37)" fill="#fff"/>
  </g>
</svg>
