<svg xmlns="http://www.w3.org/2000/svg" width="108.762" height="22.156" viewBox="0 0 108.762 22.156">
  <g id="Sportstar" transform="translate(0 0.001)">
    <path id="Path_3289" data-name="Path 3289" d="M0,0,.8,1.822,0,3.644H1.259l.8-1.822L1.259,0Z" transform="translate(0 0.303)" fill="#2b2e34"/>
    <path id="Path_3290" data-name="Path 3290" d="M-2.181-4.944l-.8-1.822h.724l.8,1.822-.8,1.822h-.724Z" transform="translate(4.7 7.069)" fill="#2b2e34"/>
    <path id="Path_3291" data-name="Path 3291" d="M0-41.972c.21,4.287,2.249,6.656,5.7,6.686a5.326,5.326,0,0,0,5.666-5.7,8.258,8.258,0,0,0-3.088-6.3L6.446-48.927c-1.229-1.109-1.859-1.859-1.859-3,0-1.049.45-1.649,1.2-1.649.959,0,1.319.989,1.5,2.518l3.9-.15c-.3-4.107-2.159-6.206-5.337-6.236S.36-55.283.33-51.626A7.607,7.607,0,0,0,3.088-45.69l1.829,1.649c1.319,1.139,2.009,2.129,2.009,3.3,0,1.049-.51,1.619-1.289,1.619-1.049,0-1.559-1.079-1.8-3.028Zm12.562,6.326h4.287l-.03-2.189v-6h.78c4.677,0,5.816-2.938,5.816-6.6v-.06c0-3.658-1.169-6.6-5.906-6.6H12.562l.03,2.188v17.059ZM16.819-47.4v-6.086h.48c1.559,0,1.919,1.259,1.919,2.938v.18c0,1.619-.36,2.968-1.919,2.968ZM29.95-35.286a5.12,5.12,0,0,0,3.808-1.289c1.139-1.109,1.709-2.908,1.709-7.046v-5.456c0-4.047-.54-5.936-1.709-7.075a5.245,5.245,0,0,0-3.808-1.289,5.3,5.3,0,0,0-3.808,1.289c-1.169,1.139-1.679,3.028-1.679,7.075v5.456c0,4.138.54,5.936,1.679,7.046a5.168,5.168,0,0,0,3.808,1.289m0-3.867c-1.229,0-1.229-1.319-1.229-3.628v-7.2c0-2.279,0-3.6,1.229-3.6,1.259,0,1.259,1.319,1.259,3.6v7.2c0,2.309,0,3.628-1.259,3.628m12.322-5.037,1.769,8.545h4.467L46.169-45.36c1.409-1.139,1.949-3,1.949-5.127v-.06c0-3.568-1.169-6.536-5.816-6.536H37.265l.03,2.188v17.059l-.03,2.189h4.287l-.03-2.189v-6.356Zm-.75-9.294H42c1.559,0,1.919,1.259,1.919,2.848v.09c0,1.559-.36,2.848-1.949,2.848h-.45Zm17.149.09v-3.688H48.328v3.688h3.058v15.56l-.03,2.189h4.287l-.03-2.189v-15.56Zm.449,11.423c.21,4.287,2.249,6.656,5.7,6.686a5.326,5.326,0,0,0,5.666-5.7,8.258,8.258,0,0,0-3.088-6.3l-1.829-1.649c-1.229-1.109-1.859-1.859-1.859-3,0-1.049.45-1.649,1.2-1.649.959,0,1.319.989,1.5,2.518l3.9-.15c-.3-4.107-2.159-6.206-5.337-6.236s-5.486,2.159-5.516,5.816a7.608,7.608,0,0,0,2.758,5.936l1.829,1.649c1.319,1.139,2.009,2.129,2.009,3.3,0,1.049-.51,1.619-1.289,1.619-1.049,0-1.559-1.079-1.8-3.028ZM81.1-53.395v-3.688H70.753v3.688h3.058v15.56l-.03,2.189h4.287l-.03-2.189v-15.56Zm3.868,13.641h3l.48,4.107h4.167L89.371-57.082H83.585L80.377-35.646h4.107Zm1.079-8.9c.15-1.079.3-2.639.39-3.478h.12c.06.839.21,2.4.36,3.478l.6,5.157h-2.1ZM98.6-44.191l1.769,8.545h4.467L102.5-45.36c1.409-1.139,1.949-3,1.949-5.127v-.06c0-3.568-1.169-6.536-5.816-6.536H93.6l.03,2.188v17.059l-.03,2.189h4.287l-.03-2.189v-6.356Zm-.75-9.294h.48c1.559,0,1.919,1.259,1.919,2.848v.09c0,1.559-.36,2.848-1.949,2.848h-.449Z" transform="translate(3.921 57.442)" fill="#d10a10"/>
    <path id="Path_3292" data-name="Path 3292" d="M0-60.112H108.761V-82.268H0Z" transform="translate(0 82.268)" fill="none"/>
  </g>
</svg>
