<svg xmlns="http://www.w3.org/2000/svg" width="190" height="108" viewBox="0 0 190 108">
  <g id="Group_49515" data-name="Group 49515" transform="translate(-329 -421)">
    <rect id="Rectangle_3371" data-name="Rectangle 3371" width="190" height="108" transform="translate(329 421)" fill="#fff"/>
    <g id="The_Hindu" data-name="The Hindu" transform="translate(344 467)">
      <path id="Path_8138" data-name="Path 8138" d="M160.4,1.116V.872l-2.529.054L154.9.872v.244c2.2.109,2.748.953,2.748,3.292V9.441c0,3.047-1.007,4.76-3.972,4.76-2.748,0-3.482-1.768-3.482-4.542V3.075c0-1.66.543-1.876,2.013-1.959V.872L149,.926,145.734.872v.244c1.469.082,2.012.272,2.012,1.959v7.373c0,3.481,2.857,4.3,5.5,4.3,3.1,0,4.979-1.523,4.979-5.06V4.408c0-1.691.1-2.86,1.5-3.2ZM142.523,7.945l-.044,1.2c-.211,2.675-1.206,4.439-3.683,4.891a4.682,4.682,0,0,1-1.115.082c-1.36-.028-1.878-.626-1.878-2.122V1.469a6.073,6.073,0,0,1,1.224-.135c3.546,0,5.274,2.367,5.475,5.891l.02.721m.45,5.138.446-.382a6.613,6.613,0,0,0,1.8-5.028c0-4.953-3.563-6.8-7.672-6.8l-2.884.054L131.314.872v.244c1.5.082,2.014.272,2.014,1.985v9.249c0,1.687-.545,1.878-2.014,1.987v.218l3.32-.054c.76,0,1.523.054,2.284.081a10.944,10.944,0,0,0,1.906-.054,8.648,8.648,0,0,0,3.66-1.109l.488-.334M130.608,1.116V.872L128.35.926,125.521.872v.244c2.231.082,2.557,1.469,2.557,3.619v7.181L118.856.9h-3.564v.246a3.539,3.539,0,0,1,1.2.19c1.143.462,1.251,2.068,1.251,3.21v6.148c0,1.768,0,3.509-1.985,3.645v.218c.76-.028,1.55-.082,2.312-.082.925,0,1.823.054,2.72.082v-.218c-2.122-.137-2.5-1.578-2.5-3.645V4l8.923,10.718h1.415V4.735c0-1.582.048-3.283,1.646-3.579l.341-.04M114.53,14.555v-.218c-1.469-.109-2.041-.3-2.041-1.987V3.1c0-1.687.545-1.9,2.041-1.985V.872l-3.238.054L108.029.872v.244c1.5.082,2.013.272,2.013,1.985v9.249c0,1.687-.545,1.878-2.013,1.987v.218l3.263-.054,3.238.054m-7.726,0v-.218c-1.442-.109-2.04-.3-2.04-1.987V3.1c0-1.687.571-1.9,2.04-1.985V.872l-3.291.054L100.3.872v.244c1.5.082,1.987.272,1.987,1.985V7.21l-3.51.028H96.14V3.1c0-1.687.518-1.9,2.013-1.985V.872L94.915.926,91.652.872v.244c1.5.082,2.012.272,2.012,1.985v9.249c0,1.687-.544,1.878-2.012,1.987v.218l3.263-.054,3.238.054v-.218c-1.469-.109-2.013-.3-2.013-1.987V7.645l2.992-.027,3.156.027v4.706c0,1.687-.49,1.878-1.987,1.987v.218l3.211-.054,3.291.054m-18.281-.626.163-.048.163-.088.109.435c-.081,0-.109.054-.19.081l-.082-.22-.163-.161m-.326.463h-.246c.028-.218.109-.381.328-.381.19,0,.3.19.326.353l-.409.028m-.435-6.638h.027v.028m-.054.271L87.652,8c0-.054.027-.109.081-.109a.072.072,0,0,1,.082.081l-.021.061-.061.02m.028-.19-.109.054L87.6,7.782a.087.087,0,0,0,.081-.082h.028v.054l.054.109m-.272-.135L87.462,7.7l.027-.054.054.054m-.109.246-.109-.054c0-.054.054-.082.109-.082.028,0,.054.028.054.082l-.054.054m.028-.354-.028.082.028.081a.188.188,0,0,0-.137.082V7.808l-.054-.135H87.3l.109-.082h.054m-.218,6.692.1-.239a.256.256,0,0,1,.224-.115c.19,0,.216.3.216.409v.027l-.543-.081m-.028-6.692-.027-.027.027-.028.028.028m-.082-.137v.109l.028.109-.028-.027-.135.054.027-.054L87,7.536l.1-.035m.041.3-.061.031L87,7.754l.028-.054h.054c.054,0,.081.028.081.054l-.02.052m-.17-.378L86.945,7.4l.028-.028L87,7.4m-.123-.054.015.081-.082.028a.168.168,0,0,0,0-.163l.082-.028h.054l-.069.082m-.094,7.045.054-.054.272.054M86.782,7.51l.054-.028.054.082-.054.081a.087.087,0,0,1-.082-.081V7.536l.028-.027m0-.354-.028.054-.027-.054.027-.028m.5,6.435.564.068a1.7,1.7,0,0,0,.871-.19l.163.162a1.4,1.4,0,0,1-.762.245c-.272,0-1.306-.109-1.388-.407l.028-.028.524.15m-.524.584-.054-.027c0-.109.054-.354.218-.354s.218.163.218.3l-.027.163-.163-.028c.027-.081.081-.135.081-.218l-.126.093-.146.07m-.082.409.082-.082a16.293,16.293,0,0,0,1.987.218.878.878,0,0,0,.979-.816.578.578,0,0,0-.219-.462.751.751,0,0,1,.437.109.307.307,0,0,0,.081-.218.607.607,0,0,0-.163-.381.944.944,0,0,1,.518.816c0,.816-.872,1.088-1.5,1.088a10.455,10.455,0,0,1-1.332-.191l-.426-.05-.446-.031m-.109-7.291h.054c.054,0,.082,0,.082.054a.073.073,0,0,1-.082.082l-.054-.028V7.264l-.027-.435.19.244-.027.137-.058.007m-.268,7.093.19-.244-.027.054.054.109m-.3-6.828.06.125.021.147c0,.054-.028.3-.081.3s-.054-.244-.054-.3l.007-.147.048-.125m-.007,2.2.007.17-.054.272c-.054,0-.054-.246-.054-.3,0-.027,0-.272.054-.272l.048.13m.007-3.856,0,.076-.024.033c-.054.028-.109-.354-.109-.435l.028-.109c.027-.013.054.082.074.187l.034.248m0,2.856.084.035.024.074a.129.129,0,0,1-.135.137.15.15,0,0,1-.109-.137l.048-.074.089-.035m.044-2.1.037.085a.123.123,0,0,1-.135.107.116.116,0,0,1-.109-.107.1.1,0,0,1,.109-.109l.1.024m-.065,3.9.048.1a.145.145,0,0,1-.135.135c-.109,0-.163-.054-.163-.135s.054-.137.163-.137l.088.037m.021-3.247-.127-.115a.67.67,0,0,1-.172-.429.769.769,0,0,1,.191-.462.582.582,0,0,0-.109.407l.057.33.161.268m-.028,1.06-.146.249-.044.268a.768.768,0,0,0,.109.49.807.807,0,0,1-.218-.49l.078-.279.22-.239M85.8,10.257l.058-.078.078-.058-.082.165m.028-5.713.1.024.037.085a.124.124,0,0,1-.135.109.117.117,0,0,1-.109-.109L85.81,4.6l.074-.024m0,.6-.224-.246a.6.6,0,0,1-.1-.326.8.8,0,0,1,.19-.435.912.912,0,0,0-.081.409l.057.318.161.28M85.83,7.591l-.072.3-.174.242a.745.745,0,0,0,.137-.544,1.015,1.015,0,0,0-.191-.544.694.694,0,0,1,.28.386l.02.158m-.082,5.931-.013-.17-.1-.13H85.53a1.561,1.561,0,0,1,.6-.9,1.6,1.6,0,0,1,.679.953h-.163l-.235-.341-.336-.259a1.857,1.857,0,0,1,.137.654,1.006,1.006,0,0,1-.163.571l-.119-.211-.18-.17m-.2-3.254.123-.038a.137.137,0,0,1,0,.273c-.109,0-.165-.054-.165-.137l.041-.1M85.53,8.516l-.054.218-.028-.191a.257.257,0,0,1,.054-.19l.028.163m.1-2.992.065.142.024.158a.808.808,0,0,1-.219.49,1.06,1.06,0,0,0,.11-.49.715.715,0,0,0-.191-.518l.211.218m-.1,1.959.089.044.048.065a.176.176,0,0,1-.137.163c-.082,0-.109-.081-.109-.163l.035-.076.074-.033m-.109,2.557.122-.238.041-.28a.86.86,0,0,0-.137-.516.769.769,0,0,1,.245.49.628.628,0,0,1-.085.3l-.187.242M85.53,6.8l-.021.161-.061.139-.054-.3.054-.325c.041,0,.061.074.072.153l.011.173m-.218,3.619L85.585,10a.97.97,0,0,0,.191-.422c0-.3-.218-.571-.218-.9,0-.435.462-.653.462-1.034,0-.353-.381-.572-.381-.953,0-.353.272-.6.272-.951,0-.462-.6-.516-.6-1.169,0-.246.19-.435.135-.681l.054.218-.081.463.027.2c.121.418.6.516.6.969,0,.354-.272.626-.272.951s.381.572.381.953c0,.407-.435.653-.435,1.06,0,.3.19.572.19.871a.7.7,0,0,1-.218.463l-.381.381m-.028-4.979V5.305a.365.365,0,0,1,.054-.244l.028.135-.082.244m.137.246.089.052.048.111a.191.191,0,0,1-.137.109.145.145,0,0,1-.137-.135l.048-.089.089-.048m.191,7.97-.058.263-.161.2h-.109l-.135-.463M85.339,4l-.044.085-.065.024c-.081,0-.135-.028-.135-.109a.124.124,0,0,1,.135-.109l.065.035L85.339,4m.054,6.229-.065.113-.125.052a.157.157,0,0,1-.163-.165c0-.109.054-.19.163-.19l.125.054.065.135m1.062.6.088-1.047.048-1.047-.027-1.2a.129.129,0,0,0,.163.028l-.028.054a.182.182,0,0,0,.163.19L87,7.782l-.027.027a.2.2,0,0,0,.19.191.152.152,0,0,0,.137-.082s.081.19.19.19l.137-.054a.174.174,0,0,0,.162.163c.137,0,.191-.081.191-.163s-.028-.162-.109-.162c.054-.028.109-.109.081-.137h.354l-.054.462v.028a1.316,1.316,0,0,1-.6.326,1.389,1.389,0,0,0,.571-.163l-.054.163a.922.922,0,0,1-.49.3.9.9,0,0,0,.435-.135l-.027.135a1.141,1.141,0,0,1-.49.3,1.144,1.144,0,0,0,.435-.109l-.054.163a2.522,2.522,0,0,1-.516.3,1.3,1.3,0,0,0,.462-.135l-.054.135-.435.246.353-.082-.162.381a4.311,4.311,0,0,1-.49.273l.407-.11a1.869,1.869,0,0,0-.244.681l.054.326a.889.889,0,0,1-.354.353,1.429,1.429,0,0,0,.409-.218,2.894,2.894,0,0,0,.325.463,1.213,1.213,0,0,1-.38.272.689.689,0,0,0,.434-.191l.109.11a.691.691,0,0,1-.325.3.518.518,0,0,0,.38-.191l.109.109a.571.571,0,0,1-.353.272h.027a.536.536,0,0,0,.381-.163l.054.054a.638.638,0,0,1-.353.3.9.9,0,0,0,.435-.191l.163.3s-.163.272-.326.3a.686.686,0,0,0,.409-.163l.027.028c-.109.135-.218.272-.354.3a.758.758,0,0,0,.409-.165l.054.165a1.363,1.363,0,0,1-.816.216,2.136,2.136,0,0,1-.979-.216.563.563,0,0,0-.082-.354h.137l.326-.028a.658.658,0,0,1-.681-.381l.218.028L87,12.514a1.04,1.04,0,0,1-.734-.244l.244.027.272-.027a1.2,1.2,0,0,1-.871-.354,1.21,1.21,0,0,0,.435.082l.272-.027H86.51c-.9,0-1.306-.872-1.578-1.606l.772.19.751.272M84.714,7.754l-.081-.027.109-.054.054.054m-.13,1.108-.061-.048c0-.109.163-.137.218-.137.082,0,.19.028.19.082,0,.109-.19.109-.244.109l-.1-.007m.076-.646-.082.027a.122.122,0,0,1-.081-.109l.027-.027.078.035.058.074m.054.081.1.011.061.072c0,.081-.162.135-.216.135s-.163-.027-.163-.109c0-.04.041-.068.089-.085L84.8,8.27m.054.763.1.023.061.086c0,.081-.19.109-.244.109v.081c0,.028,0,.19-.109.19-.054,0-.081-.162-.081-.19,0-.143.045-.24.149-.279l.123-.02m-.326-2.259.027-.068a.332.332,0,0,1,.218-.068c.054,0,.163,0,.163.081s-.163.135-.244.135l-.1-.02-.061-.061m.19,3.156.126.041.065.122c0,.081-.109.163-.191.163a.182.182,0,0,1-.19-.163l.054-.122.135-.041M84.5,14.2l.762.028a.648.648,0,0,1-.326.081l-.218-.033L84.5,14.2m.218-7.942.115.02.076.061c0,.109-.191.137-.245.137s-.19-.028-.19-.109c0-.041.041-.069.092-.085l.153-.024M84.5,7.346H84.47c0-.082.054-.082.109-.109l-.054-.054c0-.082.19-.137.244-.137s.163.027.163.081c0,.137-.244.137-.326.137l-.024.061-.085.021m.082,1.2V8.57l-.085-.02-.024-.062V8.461l.074.02m-.074,5.556.115-.224a.333.333,0,0,1,.238-.1c.218,0,.272.191.272.354v.027l-.625-.054m.033-7.99-.061-.061c0-.082.191-.137.246-.137s.163.028.163.109-.191.109-.245.109l-.1-.02m.1-2.1-.078.074-.139.035c-.054,0-.163-.028-.163-.109s.191-.109.246-.109l.088.024.048.085M84.142,7.1V7.047c0-.054.028-.109.082-.109l.028.028-.035.088-.076.048M84.2,8.788l-.028.054-.054-.109.027-.054m.056.326.062.023a.234.234,0,0,1,.046.169c0,.054,0,.216-.109.216-.056,0-.082-.162-.082-.216l.02-.117.062-.074m.081.788.126.052.065.111a.18.18,0,0,1-.191.163.144.144,0,0,1-.163-.163l.041-.111.122-.052m-.024-3.43.052.113a.166.166,0,0,1-.165.19c-.135,0-.218-.054-.218-.19,0-.082.082-.163.218-.163l.113.05m.078-2.88-.081.173a.216.216,0,0,1-.165.072c-.163,0-.272-.081-.272-.244l.054-.163.463.163m-.194,9.4-.378-.208a6.331,6.331,0,0,0,.681-1.6.622.622,0,0,0-.081-.3l.6-.027.218.462-.135.028a.866.866,0,0,1-.407-.163.761.761,0,0,0,.625.244,2.483,2.483,0,0,0,.463.626h-.109a1.616,1.616,0,0,1-.871-.246,1.681,1.681,0,0,0,1.088.354l.19.19-.135.109a1.888,1.888,0,0,1-1.088-.244,2.051,2.051,0,0,0,.979.381l-.163.19h-.054a2.325,2.325,0,0,1-1.007-.272,2.2,2.2,0,0,0,1.007.409l-.11.163h-.054a1.761,1.761,0,0,1-1.032-.3,1.672,1.672,0,0,0,1.032.435l-.027.109a2.893,2.893,0,0,1-.833-.17l-.394-.166m-.378-6.057.054.081c0,.056-.027.056-.054.082-.027-.027-.054-.027-.054-.082l.054-.081m0,2.148.052-.027c.054,0,.082.163.082.218,0,.028-.028.191-.082.191-.081,0-.109-.163-.109-.191l.024-.13.033-.061m0-.19.028.054-.082.109-.027-.109.02-.028m-.02,1.823.054-.463,1.17.191.053.354-.649-.021m-.657,3.2.137-.269c.061-.092.135-.166.218-.166.218,0,.3.326.3.49v.054l-.654-.109m.137-4.163.125.045a.181.181,0,0,1,.065.146c0,.081-.109.163-.19.163A.183.183,0,0,1,83.6,9.93l.054-.146.137-.045m-.054-3.291-.021.106-.061.085c-.081,0-.107-.163-.107-.191,0-.054.027-.218.107-.218l.061.089.021.129m-.3,6.5v-.027a.283.283,0,0,1,.109-.218,3.437,3.437,0,0,0,2.04.653v.082l-.027.107h-.245a3.862,3.862,0,0,1-1.5-.344l-.377-.255m.325-5.522.161.037a.49.49,0,0,1,.276.426.474.474,0,0,1-.437.462.452.452,0,0,1-.434-.462.471.471,0,0,1,.263-.426l.171-.037m-.418-.466.011.085V7.1l-.081-.109V6.938m.027,1.9h-.027V8.788a.122.122,0,0,1,.081-.109l.028.027-.021.089-.061.048m.031.135.052-.027c.081,0,.109.137.109.218,0,.028-.028.163-.109.163s-.109-.135-.109-.163l.024-.13.033-.061m-.085,1.634.061-.246.021-.246.244.028-.054.49m-.1-6.395.073-.1.078-.037c.244,0,.381.816.381,1.007,0,.244-.109.434-.381.434s-.381-.19-.381-.434L83.3,4.55l.121-.308m-.114,7.531-.061.033-.054-.109h.137m.1-1.948.065.126c0,.081-.109.163-.191.163a.157.157,0,0,1-.163-.163.18.18,0,0,1,.163-.191l.126.065m-.176-5.236-.139.711a.459.459,0,0,0,.462.462c.326,0,.435-.218.435-.49,0-.218-.191-1.251-.435-1.251-.061,0-.121.068-.175.173l-.147.4m.133,8.736.078.084a.762.762,0,0,1,.057.352v.19l-.285-.1c-.109-.044-.2-.1-.2-.167s.068-.142.146-.207l.208-.146m-.326-6.91.135-.054c.109,0,.163.082.163.191s-.054.19-.163.19a.185.185,0,0,1-.19-.19l.054-.137m.1,1.575.1.033L83.3,8c0,.053-.163.19-.218.216l.246-.054.054.054-.082.246a.483.483,0,0,1,.218-.137c.081,0,.081.246.054.3.027-.028.135-.246.19-.246s.137.191.163.218V8.542s0-.218.054-.218a.644.644,0,0,1,.246.163l-.082-.272c0-.027,0-.054.056-.054l.244.054c-.054-.027-.218-.135-.218-.216s.246-.109.272-.109c-.027,0-.272-.028-.272-.109s.163-.191.218-.218l-.244.027-.056-.027a.522.522,0,0,1,.082-.272.364.364,0,0,1-.246.163c-.081,0-.054-.246-.054-.3-.027.054-.109.246-.163.246-.081,0-.135-.191-.163-.246v.109c0,.082,0,.191-.081.191s-.163-.082-.218-.137a.366.366,0,0,1,.082.218c0,.054-.028.054-.082.054l-.244-.027c.054.027.244.135.244.218s-.272.109-.3.109l.159.024m-.214-.677h.027c.054-.028.082.027.082.081h-.028l-.081-.081m.07,1.271-.07.033h-.028l-.027-.027c0-.054.081-.082.135-.082l-.011.076m.045.571.02.117c0,.054-.027.19-.081.19-.109,0-.109-.135-.109-.19s0-.191.109-.191l.061.074m-.17,2.237V11.29h.135l-.135-.054v-.028l.163.028-.137-.082.028-.027h.109l-.109-.054.027-.028.137.028h.054c-.054,0-.137-.028-.137-.082v-.027l.191.027-.137-.081.163-.028c.272,0,.353.218.407.435a1.068,1.068,0,0,1-.38.137l-.2-.048-.18-.089m-.054-3.426L83,7.8l.187-.048c-.054-.054-.3-.163-.3-.244,0-.054.054-.054.081-.054l.354.081a.609.609,0,0,1-.163-.326l.027-.027V7.155c.082,0,.246.137.326.218l-.027-.218.027-.163c.135,0,.218.246.244.3.028-.028.137-.326.218-.326.054,0,.028.326.028.407.081-.081.191-.218.3-.218l.027.082a.667.667,0,0,1-.109.3.527.527,0,0,1,.272-.081c.082,0,.109,0,.109.054a.363.363,0,0,1,.218-.082c.054,0,.163,0,.163.109,0,.054-.19.109-.218.109-.054,0-.19-.027-.19-.081a.5.5,0,0,1-.272.19.678.678,0,0,1,.353.082l.191-.054c.054,0,.162.027.162.109S84.823,8,84.769,8s-.135,0-.163-.054a.779.779,0,0,1-.272.081c.054.027.272.163.272.244,0,0,0,.054-.109.054a.617.617,0,0,1-.3-.081.624.624,0,0,1,.163.326l-.054.054c-.109,0-.245-.137-.3-.218V8.6c0,.028,0,.191-.028.191-.109,0-.19-.246-.218-.3-.027.054-.109.3-.216.3-.082,0-.028-.3-.028-.354a.576.576,0,0,1-.326.191l-.027-.054c0-.082.109-.218.163-.326l-.354.081L82.919,8.3h-.027c0-.082.244-.246.3-.272l-.2-.048-.157-.088M82.81,11.4l.028-.028a.66.66,0,0,0,.869,0h.028V11.4c0,.135-.381.244-.462.244a.766.766,0,0,1-.435-.163l.109.028L82.81,11.4m.218-8.244.174.072.072.174a.244.244,0,0,1-.246.246.269.269,0,0,1-.272-.246.234.234,0,0,1,.085-.174l.187-.072m-.1,6.607.05.113c0,.081-.081.19-.163.19a.231.231,0,0,1-.191-.19c0-.082.109-.163.191-.163l.113.05m0-1.711-.023.064a.24.24,0,0,1-.169.045c-.054,0-.218-.027-.218-.109s.137-.107.191-.107l.129.033.089.074m-.027-1.577-.072.048-.093.007a.294.294,0,0,1-.218-.054l-.027-.054.027-.054.137-.054a.322.322,0,0,1,.219.092l.027.072m0,.788-.072.061-.093.021a.311.311,0,0,1-.218-.082V7.4l-.027-.191.027-.027c.028-.056.109-.056.163-.056a.3.3,0,0,1,.192.07l.027.066m0,1.224-.072.062-.093.02-.218-.054-.027-.054.027-.054.137-.028a.36.36,0,0,1,.219.046l.027.062M82.51,6.8l.068-.048.069-.007c.081,0,.245.028.245.109s-.165.082-.191.082L82.51,6.91l-.054-.081L82.51,6.8m0-1.577.13-.076.17-.033a.569.569,0,0,1,.272.109V5.061l-.163-.054-.218.054c-.109,0-.191-.054-.191-.163a.214.214,0,0,1,.218-.218.451.451,0,0,1,.409.218l.028-.191c-.109-.272-.437-.027-.437-.3,0-.054.082-.109.165-.109a.361.361,0,0,1,.3.218l.054-.109c-.054-.246-.326-.054-.326-.3A.117.117,0,0,1,83.028,4c.137,0,.218.109.3.218l.027-.109c-.054-.163-.218-.109-.218-.244l.054-.082c.137,0,.191.137.246.218.027-.054.054-.054.081-.054l-.027-.218c0-.054.027-.109.081-.109s.081.028.081.109l-.054.191c.054.027.082.027.109.081.028-.081.109-.218.191-.218l.054.028.027.081c0,.081-.163.054-.19.218l.027.137A.316.316,0,0,1,84.088,4c.054,0,.11.081.11.137,0,.135-.246.054-.328.244l.054.137c.082-.109.218-.246.354-.246a.176.176,0,0,1,.137.137c0,.19-.354.054-.437.272l.028.163a.47.47,0,0,1,.326-.163.246.246,0,0,1,.272.218.153.153,0,0,1-.135.163l-.328-.054-.109.027.028.191a.574.574,0,0,1,.272-.109.326.326,0,0,1,.326.3c0,.109-.054.163-.135.163-.137,0-.218-.163-.382-.163h-.135l-.028.109c.163,0,.409.109.409.244,0,.11-.19.273-.3.273s-.135-.273-.3-.354l-.137.054a.259.259,0,0,1,.137.218.244.244,0,0,1-.244.246.222.222,0,0,1-.218-.246.227.227,0,0,1,.163-.246l-.137-.027c-.218.054-.19.354-.326.354-.109,0-.3-.163-.3-.246,0-.163.3-.272.437-.272l-.054-.109H83c-.219,0-.245.163-.409.163l-.082-.054a.151.151,0,0,1-.081-.137l.081-.162m0,3.535h.082c.081,0,.245,0,.245.109,0,.056-.11.11-.165.11l-.163-.054a.123.123,0,0,1-.109-.082l.109-.082m0-2.828.129.037c.048.024.089.057.089.1,0,.082-.163.082-.218.082-.081,0-.19-.028-.19-.137l.074-.061.115-.02m0-1.606.074.031.035.052c0,.054-.081.081-.109.109h-.081c-.054,0-.218-.028-.218-.109s.054-.1.119-.1l.179.02m0-.407.037.031.017.05-.054.109H82.4c-.054,0-.216-.028-.216-.137,0-.053.107-.081.162-.081l.163.028m0-.381.054.081-.054.028-.135.027c-.082,0-.244-.027-.244-.109s.108-.081.162-.081l.109.007.109.048m-.027,6.338L82.429,10l-.137.064c-.081,0-.162-.109-.162-.19a.174.174,0,0,1,.162-.163l.137.05.054.113m0-6.692-.061.085-.1.024c-.082,0-.244-.028-.244-.137,0-.054.135-.081.162-.081a.4.4,0,0,1,.219.057l.027.052m-.462,5.631-.007.161-.048.139c-.028,0-.028-.272-.028-.3s0-.3.028-.3l.048.139.007.159M82.065,7.8l.037.089a.128.128,0,0,1-.135.135.124.124,0,0,1-.109-.135c0-.054.054-.137.109-.137l.1.048m.445.035.054.027H82.51c-.081.028-.135.054-.135.137a.277.277,0,0,0,.135.216l.054.028H82.51c-.081.027-.163.081-.163.135a.315.315,0,0,0,.163.246l.028.027H82.51c-.081.028-.218.028-.218.163,0,.082.109.165.163.191-.081.054-.19.109-.19.191a.165.165,0,0,0,.081.163.428.428,0,0,1,.163-.218l.109-.028.109.054c0,.109-.163.218-.218.272v.054l.082.027c.135,0,.163-.109.19-.19a.266.266,0,0,0,.219.19c.109,0,.163-.081.19-.19,0,.109.082.218.163.218.137,0,.191-.109.218-.218.054.081.109.218.244.218.082,0,.163-.137.163-.218a.32.32,0,0,0,.273.244.281.281,0,0,0,.19-.135c.028.081.082.244.191.244a.2.2,0,0,0,.19-.163c.028.082.082.163.163.163a.18.18,0,0,0,.163-.19c0-.135-.163-.163-.272-.135.054-.109.3-.109.3-.246,0-.19-.163-.163-.3-.163.081-.109.3-.109.3-.272,0-.137-.244-.137-.325-.137.081,0,.3-.135.3-.244,0-.082-.218-.163-.3-.163.081-.054.3-.135.3-.244,0-.137-.082-.163-.191-.163a.263.263,0,0,0,.191-.246c0-.109-.137-.163-.218-.163.054-.054.19-.135.19-.246s-.109-.135-.19-.135a.346.346,0,0,0,.19-.272c0-.081-.19-.135-.244-.163.081-.027.218-.109.218-.218s-.163-.163-.218-.163c.054-.054.218-.135.218-.272,0-.082-.163-.137-.218-.137a.313.313,0,0,0,.163-.244c0-.109-.19-.163-.272-.163a.36.36,0,0,0,.163-.244c0-.109-.163-.137-.218-.163a.264.264,0,0,0,.191-.218c0-.137-.191-.163-.3-.163.082-.054.191-.137.191-.246,0-.081-.191-.135-.272-.163.081-.028.218-.163.218-.244s-.109-.137-.163-.137l.081-.135.218.054a28.07,28.07,0,0,1,.435,4.216c0,.679,0,1.415-.054,2.094a8.7,8.7,0,0,0-2.231-.326H82.51l-.434.054a11.234,11.234,0,0,0,.162-1.9V7.591a26.981,26.981,0,0,0-.462-4.653l.381.028L82,3.03l-.065.054-.027.072c0,.165.135.191.244.219-.081.027-.218.109-.218.19,0,.109.191.218.3.218-.081.028-.244.109-.244.19,0,.137.191.191.272.219-.054.027-.19.081-.19.163s.162.218.244.218a.3.3,0,0,0-.19.218c0,.109.162.163.244.19-.082.028-.244.082-.244.218,0,.082.162.163.271.19-.081.028-.216.109-.216.191,0,.109.162.218.216.246-.054.027-.163.109-.163.19s.163.163.218.191c-.054.054-.218.135-.218.218s.163.19.245.218c-.082,0-.191.081-.191.162,0,.109.109.191.218.218l.028.028H82.51c-.109.027-.19.054-.19.163l.054.139.135.078h.028l-.028.028c-.081,0-.19.081-.19.135l.065.133.125.113-.027-.218.027-.028.163-.027c.054,0,.219.027.219.109s-.137.081-.165.081a.227.227,0,0,1-.218-.081v.163m-.734,6.31.011-.085-.011-.1a3.32,3.32,0,0,1,.734-.028l.9.137.679.163a2.644,2.644,0,0,0,.79.218h.054a.7.7,0,0,0,.79-.762.838.838,0,0,1,.163.381l-.028.272a1.429,1.429,0,0,0,.516-1.225.865.865,0,0,1,.218.544,1.047,1.047,0,0,1-.353.707l.407-.081.028.027-.24.231a1.436,1.436,0,0,1-.9.287,6,6,0,0,1-1.66-.435,5.767,5.767,0,0,0-1.36-.3l-.135-.027-.32.02-.279.061M82.022,7.4l-.161.247-.057.269a.918.918,0,0,0,.135.462.617.617,0,0,1-.19-.488A.561.561,0,0,1,81.9,7.5l.123-.1m.027-1.551-.034.1-.074.038L81.8,5.932a1.038,1.038,0,0,0,.244.49.665.665,0,0,1-.326-.572.54.54,0,0,1,.191-.435.7.7,0,0,0-.109.409c0-.056.054-.082.135-.082L82,5.775l.044.074M81.691,9.8l.113-.037a.136.136,0,0,1,0,.272.152.152,0,0,1-.163-.137l.05-.1m.031-6.185.074.037.035.1a.117.117,0,0,1-.109.109.124.124,0,0,1-.135-.109l.037-.1.1-.037M81.7,9.576l.085.035.024.074v.028l-.028-.028c-.081,0-.163.054-.163.109l-.054-.109L81.6,9.61l.1-.035m.019-.342.171-.065a.965.965,0,0,0-.407.734l-.028-.244a.462.462,0,0,1,.126-.316l.138-.109m-.073,3.4-.191.122a.527.527,0,0,1,.518-.463.69.69,0,0,1,.543.326.583.583,0,0,1,.082.326.8.8,0,0,1-.082.382,1.754,1.754,0,0,1-.353.516l-.381.081a.332.332,0,0,0-.163-.272c.3-.081.653-.216.653-.544a.468.468,0,0,0-.435-.516l-.19.041m.081-8.392L81.487,4a.625.625,0,0,1-.092-.326.605.605,0,0,1,.163-.409.617.617,0,0,1-.081-.3V2.884a.646.646,0,0,1,.135.354l-.027.082-.028-.028a.648.648,0,0,0-.081.326.984.984,0,0,0,.137.5l.107.125M81.667,6.8l-.057.252-.161.211a.713.713,0,0,0,.137-.463.861.861,0,0,0-.191-.516l.2.218.074.3m-.183-2.066.074.3a.679.679,0,0,1-.218.49.788.788,0,0,0,.137-.49.72.72,0,0,0-.191-.516l.2.218M81.4,6.666l.074.037.035.1c0,.054-.054.137-.109.137-.082,0-.109-.082-.109-.137l.024-.088.085-.048m-.082.518.048.129.007.17c0,.028,0,.272-.054.272l-.054-.272.054-.3M81.341,9.9l.122.035.041.074c0,.109-.054.137-.163.137a.128.128,0,0,1-.137-.137l.048-.074.089-.035M81.2,14.309l.072-.227a.2.2,0,0,1,.174-.126.23.23,0,0,1,.191.109.437.437,0,0,1-.2.153l-.239.092m.109-8.323-.017.159-.037.139c-.054,0-.081-.272-.081-.3s.027-.3.081-.3l.037.139.017.161m.072,2.393.065.3a.744.744,0,0,1-.191.49.84.84,0,0,0,.137-.49.748.748,0,0,0-.218-.518l.122.1.085.121m0-3.434.037.089a.146.146,0,0,1-.135.137.176.176,0,0,1-.137-.137.175.175,0,0,1,.137-.135l.1.046m-.072,3.734-.024.089-.085.046c-.054,0-.109-.081-.109-.135a.125.125,0,0,1,.109-.137l.085.038.024.1m.2-4.318.215.244a.564.564,0,0,1,.1.32c0,.354-.244.625-.244.925,0,.354.353.6.353.979,0,.435-.435.653-.435,1.062,0,.3.245.543.245.869,0,.354-.409.6-.6.871.109-.244.463-.625.463-.843,0-.326-.218-.572-.218-.9,0-.463.409-.681.409-1.062,0-.353-.354-.571-.354-.979,0-.326.246-.571.246-.9,0-.49-.626-.518-.626-1.2,0-.246.19-.435.135-.654a.248.248,0,0,1,.082.191c0,.163-.082.3-.082.463a.641.641,0,0,0,.1.35l.215.255m-.531,6.956.028-.081a.75.75,0,0,0,.435-.816,4.316,4.316,0,0,0,1.06.272l.681.054V10.8a.524.524,0,0,0-.381.49.145.145,0,0,0-.082.109c0,.163.3.3.409.3,0,.082.028.163.109.163.109,0,.137-.081.137-.163.135,0,.434-.135.434-.3a.117.117,0,0,0-.109-.109.52.52,0,0,0-.407-.49v-.028a6.076,6.076,0,0,0,1.007,0v.054l-.074.43c-.138.45-.43.945-.552,1.393l-.109-.054c-.163,0-.272.218-.272.353l.082.163c-.218.054-.49.273-.49.518,0,.135.109.19.19.244l-.572-.027h-.272l.272-.3a.944.944,0,0,0,.218-.6.755.755,0,0,0-.218-.571.8.8,0,0,0-.543-.218c-.409,0-.545.3-.545.653v.135a.438.438,0,0,1,.382-.218.315.315,0,0,1,.326.326c0,.273-.326.463-.518.544v-.027c0-.163-.326-.244-.463-.272a2.861,2.861,0,0,1-.19-1.17l-.007-.407.033-.409m0-7.942-.027.109a.6.6,0,0,1-.109-.354V3.047l.1.163.037.165m0,6.092.028.082c0,.081-.054.435-.137.435-.053,0-.053-.054-.053-.082a1.157,1.157,0,0,1,.1-.378l.06-.057m.031.592.052.089a.154.154,0,0,1-.163.137.129.129,0,0,1-.135-.137.146.146,0,0,1,.135-.137l.111.048m-.492,4.414.1-.153a.249.249,0,0,1,.176-.092.937.937,0,0,1,.3.135l-.571.109M80.2,5.823l-.013-.089-.1-.048-.028.027.056.191-.056.246.1-.143m.2-2.8-.135-.054-.273-.462.165.081m-.219,11.4h-.081l.027-.218c.437,0,1.143-.054,1.36-.516.082.027.245.081.245.162,0,.348-.7.495-1.182.547l-.369.025m.028-8.705L79.9,5.329c-.017-.044-.045-.078-.085-.078l-.054.028-.028.027c0,.054.109.109.109.218a2.22,2.22,0,0,1-.109.409l.137-.211.054-.252m-.076,9.052-.142-.048c.054-.163.109-.163.3-.163a.319.319,0,0,1,.3.218h-.272l-.184-.007m.157-11.391-.218-.054-.353-.435.3.027m-.577-.393.042.089-.008.088-.054.027a.225.225,0,0,1-.191-.272L79,2.178l.084.028.073.068m-.211.421.3-.054.325.407-.271.028m-.381.081-.354-.326.218-.109.354.381m-.872-.109.163-.109.328.354-.165.082m-.174-1.255.119-.024a.355.355,0,0,1,.354.3.333.333,0,0,1-.354.3.308.308,0,0,1-.326-.3.288.288,0,0,1,.1-.211l.1-.065m.166,5.375.291-.179a1.746,1.746,0,0,0,.426-.514,2.324,2.324,0,0,0-.3.246,2.756,2.756,0,0,1-.79.435l-.027-.135L78.24,7.1c.381-.191.653-.843.844-.816h.054a1.642,1.642,0,0,1,.734.925c.163-.326.49-.409.6-.788a5.646,5.646,0,0,0,.246-1.17l.38-.544L81.15,6.23v.137l-.352.539a5.281,5.281,0,0,1-1.362,1.419,2.319,2.319,0,0,1-1.007.409c-.109,0-.244-.028-.244-.163a.4.4,0,0,1,.109-.218,1.471,1.471,0,0,0,1.415-1.006,2.079,2.079,0,0,1-1.415.869h-.028V8.161a.331.331,0,0,1,.082-.244c.572-.054,1.034-.19,1.251-.734-.163.326-.979.571-1.334.653a.183.183,0,0,1-.109-.137.275.275,0,0,1,.109-.19l.318-.07M78.294,3.51l-.272-.3.109-.109.326.3M78.348,1.96l-.065.085-.126.024c-.053,0-.19-.028-.19-.109s.137-.11.19-.11l.126.024.065.086m-.435,1.36.3.3c-.081.054-.135.137-.216.163l-.218-.326.135-.135M77.887,2.5l.211.061a.223.223,0,0,1,.088.183.276.276,0,0,1-.3.244.268.268,0,0,1-.272-.244.225.225,0,0,1,.085-.183l.187-.061m-.028,1.415-.218.135-.135-.435a.183.183,0,0,0,.135-.081l.218.381M77.478,14.2l.021-.187-.021-.166a1.663,1.663,0,0,0,1.143.571c.246,0,.653-.081.653-.435a.519.519,0,0,0-.109-.326c.245,0,.544.109.544.409,0,.49-.571.707-.979.707a1.457,1.457,0,0,1-.963-.345l-.288-.227m.109-11.163.06.058.023.088a.247.247,0,0,1-.491,0c0-.137.137-.191.246-.191l.163.045m-.081,1.071-.191.109-.163-.435.19-.081M77.178,1.96l.153.021c.158.04.311.142.311.305,0,.218-.272.325-.463.325-.163,0-.434-.107-.434-.325a.332.332,0,0,1,.3-.309l.137-.017m0,2.285-.3.027-.135-.435.271-.054m.109-.3L77.1,3.57a.212.212,0,0,1-.2.1.184.184,0,0,1-.19-.19c0-.082.109-.163.19-.163l.15.05.068.113m-.092,9.365-.316-.089a.332.332,0,0,1,.653.081v.054l-.337-.046M76.655,1.953l-.074-.076c0-.082.135-.137.19-.137s.163.054.163.137c0,.054-.109.109-.163.109l-.115-.033m-.074,10.941.38.089.381.048c.137,0,.328-.028.328-.191a1.031,1.031,0,0,0-.109-.353.184.184,0,0,0,.109-.191.575.575,0,0,0-.082-.325H77.4l.062-.252c.2-.512.723-.524,1.27-.62l.326-.081a10.991,10.991,0,0,0,.354,2.557h-.082a1.029,1.029,0,0,0-.407.054c.163.054.3.135.3.3,0,.272-.407.354-.6.354-.544,0-.843-.381-1.224-.707a1.076,1.076,0,0,0-.681-.6l-.135-.082m.027-7.97L76.553,4.9l.054-.054.082.054m-.3,9.738.239-.122a.266.266,0,0,0,.115-.2.25.25,0,0,0-.109-.218.5.5,0,0,0,.353-.516.63.63,0,0,0-.109-.381,1.007,1.007,0,0,1,.49.871c0,.387-.322.5-.654.543l-.325.028M76.716,4.3h-.272l-.109-.381.245-.054m-.3,1.034.061-.1a1.013,1.013,0,0,1,.374-.1l-.435.191M76.553,2.5v.081c-.027.163.163.3.326.3a.487.487,0,0,0,.244-.109c.028.218-.244.381-.434.381s-.435-.135-.435-.326a.31.31,0,0,1,.088-.214l.211-.111M76.5,3.673l-.061.085-.1.024c-.081,0-.19-.027-.19-.109s.109-.135.19-.135l.1.037.061.1m.036-1.587.019.092a.21.21,0,0,1-.218.19c-.109,0-.244-.081-.244-.19a.237.237,0,0,1,.244-.218l.15.058.049.068m.073,3,.119-.054.017-.135c.162-.054.3-.163.271-.326V4.544c-.081.137-.271.082-.407.082-.218,0-.516.163-.516.435l.081-.054.137.054.109-.028.19.054M76.2,3.945l.081.381-.244.028-.11-.382m0,5.036L75.9,8.842l.137.272m-.165,3.4.056-.1a.365.365,0,0,1,.3-.115.288.288,0,0,1,.326.326v.109l-.681-.218m-.054-1.169.122-.277c.686-1.3,2.4-1.334,2.354-2.225l.218.027a2.415,2.415,0,0,0,1.2-.544A4.738,4.738,0,0,0,81.15,6.394a14.48,14.48,0,0,1-.652,4.163,4.268,4.268,0,0,1,2.012-.463h.218l.463.027-.109.463-.572-.027-1.06-.163-.028-.109v.135c0,.191-.244.707-.516.734l-.028.054a1.338,1.338,0,0,1-.488.218,2.808,2.808,0,0,0,.462-.081l-.027.244-.49.163.49-.054-.028.163a.989.989,0,0,1-.435.191l.463-.027v.135a2.071,2.071,0,0,1-.463.19l.463-.054v.137a.912.912,0,0,1-.463.218h.082a1.089,1.089,0,0,0,.407-.082l.027.109a1.127,1.127,0,0,1-.516.246,1.225,1.225,0,0,0,.544-.109,4.432,4.432,0,0,0,.244.518,1.668,1.668,0,0,1-1.36.488.417.417,0,0,0-.353-.244c-.326-.953-.027-1.987-.381-3.047a4.982,4.982,0,0,1-.326-1.2v.081a4.576,4.576,0,0,0,.246,1.334l-.054.027a.64.64,0,0,1-.191-.38v.054a.712.712,0,0,0,.137.462l-.109.081a.776.776,0,0,1-.3-.543v.135a.846.846,0,0,0,.163.435h-.109l-.151-.1a.69.69,0,0,1-.23-.494V10.5a.783.783,0,0,0,.19.543,1.133,1.133,0,0,0-.516.137.664.664,0,0,1-.326-.571l-.027.109a.776.776,0,0,0,.244.516l-.081.054c-.246-.054-.354-.354-.409-.571a.824.824,0,0,0,.3.652.907.907,0,0,0-.165.6,2.742,2.742,0,0,1-1.213-.341l-.311-.285m-.041-8.936.15-.041a.163.163,0,1,1,0,.326c-.109,0-.218-.054-.218-.163l.068-.122m.041,1.238.085.037.024.1c0,.028-.027.082-.109.082a.121.121,0,0,1-.109-.082l.034-.1.074-.037m.109-.626L75.9,3.1c0,.191.163.246.326.246l.163-.027c-.027.163-.218.218-.353.218s-.382-.054-.382-.246a.223.223,0,0,1,.085-.167l.187-.1m-.1,8.545.194.147a2.59,2.59,0,0,0,1.481.394l.027.163c0,.109-.054.109-.163.109-.49,0-1.632-.326-1.769-.844,0-.054.028-.135.082-.135l.149.166M75.763,4l.109.381-.272.054-.081-.354m.244-1.169-.041.1-.122.037c-.054,0-.163-.054-.163-.135s.109-.137.163-.137l.122.037.041.1m-.451.894.1-.024a.1.1,0,0,1,.109.109A.117.117,0,0,1,75.41,4a.124.124,0,0,1-.135-.109l.037-.085m-.065,3.621h-.027L75.3,7.4m-.081,4.706.1-.143.142-.1a.416.416,0,0,1,.272.354l-.054.218-.252-.143-.21-.183M75.329,3.1l.074.035.033.074a.1.1,0,0,1-.107.11c-.054,0-.137-.028-.137-.11l.048-.074.089-.035m-.054,1.688-.082-.054a.088.088,0,0,1,.082-.082c.027,0,.054.028.054.082l-.054.054m.081-.681.081.354-.216.081-.082-.326m-.024-.786.024.052c0,.081-.027.135-.109.135a.124.124,0,0,1-.109-.135.121.121,0,0,1,.109-.082l.085.031m-.013.511.037.084c0,.082-.054.11-.135.11a.1.1,0,0,1-.109-.11A.1.1,0,0,1,75,3.919l.1.024m-.017.656-.19.082-.082-.3.163-.109M74.731,3.7l.1.02.037.061a.129.129,0,0,1-.135.137.126.126,0,0,1-.11-.137l.035-.061.076-.02m-.008,1.243.035.062c0,.054-.054.054-.109.054-.028,0-.054,0-.054-.054s.027-.082.054-.082l.074.02m.035-.183-.133.058-.113.078-.027-.326.191-.137m.027-.19-.035.074-.074.035a.125.125,0,0,1-.137-.109.129.129,0,0,1,.137-.137l.074.037.035.1m-.409.816-.081-.082c.027-.135.027-.218.135-.272l.028.272-.082.082m-.133,8.429.052-.133.163-.081a2.905,2.905,0,0,1,1.415-.463c.435,0,1.06.163,1.06.707a.487.487,0,0,1-.488.49,1.468,1.468,0,0,1-.437-.109.439.439,0,0,0,.409-.409c0-.326-.381-.381-.626-.381a2.4,2.4,0,0,0-1.332.409l-.272.163L74.05,13.6l.111-.111M74.131,5.55l-.216-.027a1.021,1.021,0,0,1,.244-.381l-.028.407m-.054,1.143-.3-.027a9.168,9.168,0,0,0,.381-.925l.081.027a.126.126,0,0,0,.137-.081V5.36l-.082-.272.082-.027.19-.137-.027.137c0,.081.109.163.191.163a.178.178,0,0,0,.027-.354l.435-.19-.027.054a.181.181,0,0,0,.163.19c.107,0,.162-.081.162-.19L75.384,4.6a19.929,19.929,0,0,0,2.176-.381c.869-.407.734-.953,1.985-1.062l.027.082a.126.126,0,0,1-.081.137,2.132,2.132,0,0,1,.6-.054.949.949,0,0,1,.925.9l-.028.3a.686.686,0,0,0-.353-.272c-.027-.354-.244-.79-.653-.79-.788,0-.3.844-.951,1.334.218-.054.381-.409.435-.626a.634.634,0,0,1,.407.381A.644.644,0,0,0,79.517,4l.054-.135a1.744,1.744,0,0,1,.463.435,1.923,1.923,0,0,0-.326-.544l.135-.082a1.368,1.368,0,0,1,.354.435,2.291,2.291,0,0,0-.191-.462s.545.325.545.679a.407.407,0,0,1,.38.272,1.448,1.448,0,0,1-.353.6v.028a4.521,4.521,0,0,1-.218,1.088c-.109.326-.381.516-.463.815-.272-1.087-1.141-.788-1.141-1.985a2.065,2.065,0,0,1,.081-.571,1.884,1.884,0,0,0-.218.76,1.19,1.19,0,0,0,.191.6,1.334,1.334,0,0,1-.3.76l.027-.216V6.339l-.109.462c-.081.054-.135.137-.244.165l.081-.326-.19.38-.163.082.054-.3a.8.8,0,0,1-.163.3l-.135.027.027-.19V6.829a.555.555,0,0,1-.109.3l-.163.028.054-.326-.137.326-.135-.028.081-.326-.163.326L76.96,7.1a1.375,1.375,0,0,0,.082-.354.859.859,0,0,1-.163.354h-.218a1.3,1.3,0,0,0,.135-.462.848.848,0,0,1-.244.462h-.081a1.442,1.442,0,0,0-.926.518c0-.191.545-.735.545-1.306l-.028-.163a3.808,3.808,0,0,1-1.687.516l-.3.027m-.516.491.407.115.409.074.762.054v.054l-.353.463a.6.6,0,0,1-.3-.137A.548.548,0,0,0,74.731,8l-.082.135a.459.459,0,0,1-.272-.082l.218.163-.082.109-.135-.054-.163-.054.163.109.109.054-.054.163h-.054a.358.358,0,0,1-.272-.081.572.572,0,0,0,.272.163H74.4l-.027.135V8.679l-.028.109a.485.485,0,0,1-.272-.109.624.624,0,0,0,.272.19v.082a.64.64,0,0,1-.325,0,.535.535,0,0,0,.3.054v.109l.027.218a.937.937,0,0,1-.3.081h.109a.237.237,0,0,0,.19-.027l.028.054.054.081-.218.218c.054-.027.135-.054.163-.109l.109-.054.135.054a.6.6,0,0,1-.19.246.487.487,0,0,0,.245-.218l.109.027.244-.054a.183.183,0,0,1,.109.137L75.112,9.6l.054-.028.109.109-.054-.163.054-.027.054.135L75.3,9.495l.3-.244a.149.149,0,0,0,.082.109L75.6,9.168c0-.081.054-.435.137-.463l.081.082c.028.272.163.49.463.49.054,0,.246,0,.246.054-.028.3-.763.462-1.007.516h.218a1.342,1.342,0,0,1-1.088.626l-.272-.054c-.843-.191-1.088-1.007-1.088-1.823l.085-.717.187-.7m-.074-.459.288.072.33.033h.272a4.19,4.19,0,0,0,1.387-.353l.082.19c0,.218-.245.435-.326.6h-.19l-.054-.137v.137h-.163L75.057,7.1l-.028.163h-.272L74.7,7.1l-.027.163h-.165l-.054-.191v.165h-.081L74.24,7.21a.329.329,0,0,1-.054-.218.307.307,0,0,0,0,.218l-.162-.054a.31.31,0,0,1-.082-.218.234.234,0,0,0,0,.19c-.19-.027-.871-.3-.9-.488l.2.017.239.068m.18,7.134.111-.09.054-.111a3.657,3.657,0,0,1-1.2.409h.109a2.788,2.788,0,0,0,.595-.082l.328-.125m-.337.342-.259.028a1.709,1.709,0,0,1-.816-.191A2.225,2.225,0,0,0,73.887,13a.456.456,0,0,1,.244.354.339.339,0,0,1-.107.218c-.028-.054-.109-.082-.163-.109a.3.3,0,0,1,.135.272c0,.176-.163.3-.361.377l-.305.085m.15-1.441-.328.374a1.624,1.624,0,0,1-1.032.605l.081.027a1.706,1.706,0,0,0,1.234-.829l.045-.176m-1.523,1.251v-.137a.911.911,0,0,0,.163-.272,1.7,1.7,0,0,0,1.141-1.631c.11.081.328.38.3.543a1.364,1.364,0,0,0,.463-.272,1.816,1.816,0,0,1-.953,1.388l-.548.211-.567.17m.135-4.381-.348.194-.305.215a.458.458,0,0,0-.109-.3,1.924,1.924,0,0,1,.544-.109h.218m-.226-.576-.223.188a1.351,1.351,0,0,0-.313.47l-.163-.191a4.152,4.152,0,0,1,.49-.488,2.96,2.96,0,0,0-.544.434l.109-.3a1.22,1.22,0,0,1,.735-.272h.163l-.253.158m-.052-1.27L71.5,8.3a9.744,9.744,0,0,0-.472,1.108l-.137-.081a6.952,6.952,0,0,1,.381-.9,5.113,5.113,0,0,0-.462.844l-.137-.054.354-.925s.679-.871,1.169-.979l-.386.466m-1.328,2.5.117.146.157.126.109-.109-.2-.062m-.289-.564.354.109-.109.109M70.35,4.381l.027-.081.137.081m-.007,6.151-.157-.111c.027.109.163.191.272.272l.082-.109-.2-.052m-.157.84.354-.381a3.189,3.189,0,0,1,.734-.081,1.149,1.149,0,0,1,.681.163H72.01a2.069,2.069,0,0,0-1.306.462l-.178-.1-.176-.062M70.3,13.848l.054-.3a1.521,1.521,0,0,0,.626.191c.462,0,.706-.407.9-.762a.731.731,0,0,1,.082.409.543.543,0,0,1-.191.434.621.621,0,0,1,.081.3l-.027.238-.085.154-.034-.188a.728.728,0,0,0-.52-.329l-.884-.146M70.729,9.4,71,9.563a.694.694,0,0,1,.3.476.21.21,0,0,1-.218.19.773.773,0,0,1-.326-.109l.3-.353h-.163a.624.624,0,0,1-.626-.326c.028-.109.109-.109.191-.109l.269.065m-.243-4.553-.146-.021-.126-.061.028-.081a.379.379,0,0,1,.409-.109l.081-.137-.191-.244a.626.626,0,0,1,.328-.165.674.674,0,0,1,.109.328.488.488,0,0,1-.3.451l-.192.038m-.272,3.372v-.9a12,12,0,0,1,1.225-2.04,14.005,14.005,0,0,0-1.225,1.794V6.557A4.737,4.737,0,0,1,72.2,4.544a11.454,11.454,0,0,0-1.634,2.647l-.353,1.024m0,.817V8.57a9.506,9.506,0,0,1,.735-1.5,3.314,3.314,0,0,1,1.334-1.332A14.967,14.967,0,0,0,70.6,9.2l-.11-.028-.218.054a19.537,19.537,0,0,1,1.225-2.5l-.67,1.136-.609,1.177m.326,1.713-.326-.163.246.272M70.207,3.98l.279-.115-.109-.137a.625.625,0,0,0-.326.49l.06-.139.1-.1m-.157,6.74.106.146.166.125.109-.109-.2-.07m.092-7.138-.109-.135a.694.694,0,0,0-.325.488.428.428,0,0,1,.155-.227l.279-.126m-.163-.19-.081-.137a.606.606,0,0,0-.326.49A.341.341,0,0,1,69.9,3.61l.264-.126m-.418-.054L70,3.292l-.081-.109a.625.625,0,0,0-.326.463l.153-.218m.093-.328-.082-.109a.625.625,0,0,0-.326.491.5.5,0,0,1,.153-.242l.256-.141m-.137-.19-.109-.082a.546.546,0,0,0-.326.463.444.444,0,0,1,.157-.231l.279-.15m-.49,9.685-.077-.184a.523.523,0,0,0-.441-.332l-.081.027c.02.061.255.183.439.333l.159.157m-.137-2.5-.159.121-.113.149-.3.028a1.915,1.915,0,0,0,.353-.463l.272-.054.3.054-.354.166m-.544,2.378.169.125.158.161c-.027-.163-.19-.49-.38-.49h-.191l.244.2m-.516-4.72.235-.035.255.008a.236.236,0,0,0,.19,0l.028.054-.707-.028m.49-5.006-.054-.054-.571.435.054.054m-.137,7.835.322-.239.3-.277.38-.028a1.276,1.276,0,0,1,.926.3l-.409-.053a3.266,3.266,0,0,0-.772.109l-.751.19m.618-8.878L68.337,2.1a9.235,9.235,0,0,0-.707.734l.027.054c.054-.054.79-.571.79-.679l-.035-.064m-.918,10.537h-.027c0,.109.244.191.326.246l.218.244a.553.553,0,0,0-.333-.459l-.184-.031m.191-7.426.081-.261a.271.271,0,0,1,.245-.119l.109.028a.9.9,0,0,0-.218.543.568.568,0,0,0-.435.3.311.311,0,0,1-.082-.218.21.21,0,0,1,.109-.176l.191-.1m-.3,2.992.028-.054.135.027a.3.3,0,0,0,.272-.325c.028-.054.082-.054.165-.054h.734v.216l-.435.028.407.081v.082H67.384m.409-6.2-.082-.027-.407.462.081.054m.163,2.476-.041.125-.122.065c-.081,0-.162-.109-.162-.19a.182.182,0,0,1,.162-.191l.122.054.041.137m.082,8.3-.054-.169a.537.537,0,0,0-.435-.321h-.081l.244.2.326.287M68.039.817,68.017.752,67.956.709a12.844,12.844,0,0,0-.979,1.578l.054.027.514-.747.494-.748m-1.388,8,.028-.081a1.455,1.455,0,0,0,.625-.409H68.69l-.054.218-.462.054.462.054-.053.163H66.651m.3-7.291L66.9,1.469l-.3.572L66.7,2.1m1.013,12.186.376-.053a1.509,1.509,0,0,0-.763-.191l-.434.028c.027.3-.272.49-.491.625l.855-.283.458-.126m-.795-3.618-.407.056.272.027-.246.109a1.28,1.28,0,0,0-.191-.326h.9l-.326.135m-.653-8.7V1.932l.3-.681c0-.081-.082-.107-.137-.107-.082,0-.163.434-.163.488l-.082.3.082.028m-.163,7.372v-.19c.027-.082.054-.137.163-.137l.054.028c.054-.191.272-.082.3-.165h1.931l-.054.137-.49.082.463.054-.109.19H66.106m-.028,2.2h-.027a.446.446,0,0,0,.054-.272l-.028-.163.191-.027a3.257,3.257,0,0,0,2.584-3.128c0-.572-.38-2.068-1.143-2.068l-.163.054a.524.524,0,0,1,.491-.382c0-.325.054-.571.435-.706l-.028.218c0,.979.816,1.415.816,2.884a3.6,3.6,0,0,1-2.992,3.563l-.191.027m2.259-2.148-.109.19-.518.054.437.054-.137.191H66.052l-.028-.082c0-.054.109-.109.109-.244V9.386h2.2m-2.15,3.706-.084-.121-.134-.049a1.232,1.232,0,0,1,.218.816.8.8,0,0,0,.054-.353l-.054-.293m-.163-2.129-.081-.082.081-.244.109-.19.137.135a.548.548,0,0,1,.163.3l-.163.028-.246.054m-.081-9.739h-.109l-.054.6.082.027m.107,9.413-.085.242a.258.258,0,0,1-.186.139c-.054,0-.054-.054-.082-.081a.6.6,0,0,0,.137-.326.7.7,0,0,0-.109-.272h.081a.221.221,0,0,1,.183.1l.061.2M65.562,0l-.085.037-.024.1.054,1.741h.109L65.645.163,65.634.052m-.013,5.8.024.048c0,.054-.028.082-.137.082a.072.072,0,0,1-.081-.082c0-.054.054-.054.109-.054l.085.007m-.052,7.284-.061-.191a.965.965,0,0,0-.081.382,3.692,3.692,0,0,0,.081.571,3.537,3.537,0,0,0,.082-.571l-.021-.191m.092-7.1.065.085c-.027.082-.081.082-.218.082-.163,0-.19-.054-.163-.109.028-.082.082-.082.191-.082l.125.024m-.129,5.441-.088.1-.1.041-.109-.054a.409.409,0,0,0,.109-.3l-.027-.19c0-.054.054-.082.109-.082.109,0,.19.163.19.246l-.085.242m-.377-5.138.077-.07a1.6,1.6,0,0,1,.439-.011c.082,0,.191.027.218.081,0,.109-.027.109-.109.109a1.838,1.838,0,0,1-.535-.035l-.09-.074m0-5.114h-.11l.11.625.081-.027M65.508,6.5l.381-.027a.2.2,0,0,1,.163.163.144.144,0,0,1-.163.162h-.734c-.082,0-.137,0-.137-.135,0-.109.054-.19.163-.19l.326.027m-.326,4.461-.3-.054h.409m-.518,2.476.054.353v-.028a1.115,1.115,0,0,1,.191-.788c-.1,0-.157.074-.2.17l-.05.293m.107-6.432.219-.1a4.5,4.5,0,0,0,.871,0,.451.451,0,0,1,.3.191.68.68,0,0,1,.081.354l-.081.435a2.079,2.079,0,0,1-.407.543c-.218.272-.218.79-.381.926a.624.624,0,0,1-.082-.3c0-.544.409-.816.409-1.169,0-.054,0-.191-.082-.191a.072.072,0,0,0-.081.082l.027.19c0,.353-.462.762-.326,1.388a.512.512,0,0,1-.19-.3c-.082-.218-.056-.518-.165-.681a1.554,1.554,0,0,1-.407-.815.631.631,0,0,1,.135-.419l.162-.137m-.1-.025-.176.146a.758.758,0,0,0-.133.49c0,.543.407.652.49,1.032.054.246.109.654.381.735l.109.135c.326-.216.3-.707.653-1.088l.163-.244a1.1,1.1,0,0,0,.163-.679.74.74,0,0,0-.163-.518.66.66,0,0,0-.246-.109.212.212,0,0,0,.082-.19c0-.109-.109-.163-.191-.191l.028-.109c0-.081-.135-.135-.218-.135l.054-.082a.117.117,0,0,0-.109-.109l.028-.081a.183.183,0,0,0-.191-.165c-.109,0-.19.082-.135.246-.054,0-.082.054-.082.109l.028.082c-.082.027-.163.027-.191.109v.027l.028.109c-.137.028-.191.082-.191.218a.165.165,0,0,0,.081.163l-.261.1m-.068-5.41-.088-.259-.1-.115c-.054,0-.081.054-.081.107l.3.709.054-.028-.085-.414m-.622-.049-.054.054.246.572.081-.054m.013,2.539.364-.1a3.86,3.86,0,0,1,.766-.07,6.94,6.94,0,0,1,.762,0,3.052,3.052,0,0,1,.953.326.334.334,0,0,0-.137.272l.028.135A2.313,2.313,0,0,0,66.27,4.9l-.762-.082a2.868,2.868,0,0,0-1.36.326l.028-.135a.334.334,0,0,0-.137-.272l.34-.155m-.149,6.058-.191-.109h1.2a.23.23,0,0,0,.191.054c.218,0,.027-.244.381-.19,0-.437.3-.082.271-.437H67.93l-.165.163-.543.054.434.082-.3.191H66.27V10.42l-.191-.135-.244.543c-.353.028-.79,0-1.143,0l-.218-.081.3-.027-.543-.082m-.191-5.631-.05.125-.113.065a.18.18,0,0,1-.163-.19c0-.109.054-.191.163-.191l.113.054.05.137m-.572-1.5.381-.49a2.311,2.311,0,0,1,1.66-.734,2.381,2.381,0,0,1,.762.135,2.6,2.6,0,0,1,1.278,1.2,9.416,9.416,0,0,1-1.278.163h-.762a7.458,7.458,0,0,1-1.542-.138l-.5-.134m.246,9.507.245-.2h-.082a.576.576,0,0,0-.49.49l.326-.287m-.191-2.9-.1-.07-.085-.093h1.55c.028.054.137.163.137.246a.237.237,0,0,0,.137.246H63.9l-.273-.191.382-.054-.491-.082m-.244-8.106-.082.027.409.49.081-.054m-.135,2.775.228.1a.208.208,0,0,1,.126.176.337.337,0,0,1-.109.218.572.572,0,0,0-.437-.3.891.891,0,0,0-.216-.543l.107-.028a.269.269,0,0,1,.288.242l.012.139m0,7.426h-.028a.557.557,0,0,0-.543.49c.081-.081.135-.19.244-.244l.287-.169.04-.077M63.543,1.466,63.224.944,63.033.709a.145.145,0,0,0-.082.109c0,.081.925,1.36,1.007,1.5l.054-.027-.47-.82m1.013,7.92.054.109v.054l-.054.027.3.3H63.277l-.163-.191.435-.054-.516-.054c-.028-.081-.082-.109-.082-.19h1.6m-.788,5.022.843.283c-.216-.135-.516-.326-.488-.625l-.437-.028a1.432,1.432,0,0,0-.76.191l.378.053.464.126m.66-5.307.1.231H62.9l-.109-.19.407-.054-.434-.082-.054-.137h1.578m-1.66-1.685.137-.333c.171-.378.442-.837.788-.837.135,0,.218.109.354.163l-.054-.3a.426.426,0,0,0,.19-.354l-.054-.137a2.759,2.759,0,0,1,1.523-.434l.762.081a3.347,3.347,0,0,1,1.006.326l-.053.163a.426.426,0,0,0,.19.354l-.028.3c.109-.054.191-.163.326-.163.572,0,.925,1.17.979,1.606l-.054.027a.182.182,0,0,1-.162-.109v.109l-.272.028-.163-.028-.082.109H67.9a.248.248,0,0,0-.218.109l.027.054a.237.237,0,0,1-.163.19l-.135-.027-.326.3a2,2,0,0,1-.462.272c-.054.028-.054.082-.082.163-.109.028-.218.028-.272.11-.163-.028-.218.081-.3.218a.989.989,0,0,1,.082.407c0,.081-.109.109-.109.244v.246l-.163.072a.235.235,0,0,0-.081.174c-.218,0-.163.081-.245.19l-.027.028a.4.4,0,0,1-.191-.082.248.248,0,0,1-.109-.218c0-.163-.3-.518-.435-.626l.027-.081c0-.163-.271-.516-.353-.653V8.733c0-.191-.135-.409-.135-.626,0-.054.081-.081.109-.107-.082-.109-.082-.409-.163-.409s-.082.137-.109.163c0,.109-.163.137-.246.137a.469.469,0,0,1-.409-.246c.109,0,.3,0,.3-.135a.073.073,0,0,0-.082-.082l-.163.054a.23.23,0,0,1-.135-.081c-.19-.191-.244-.082-.381-.163l-.027.027h-.082l-.218-.081m0,.163V7.292l.137.054M64.2,8.352l.082.381v.109H62.679l-.054-.191.463-.081-.49-.054-.028-.163M62.624,2.1l-.027.028-.054.081c0,.109.734.625.788.679l.054-.054-.361-.377-.236-.238L62.624,2.1m-.081,5.931V7.891h.869V7.836h-.869L62.57,7.7l.49-.081-.49-.028.028-.163h.625l.109.109h-.054c.109.272.244.463.544.463a.424.424,0,0,0,.326-.163l.054.135-.054.135.028.163H62.57l-.027-.135.435-.082-.435-.027m.516-4.842.054-.054-.571-.435-.054.054m.244,9.521h-.19c-.191,0-.382.326-.382.49L62.3,12.6l.429-.329M62.57,5.986l.126-.275a1.542,1.542,0,0,0,.092-.868.647.647,0,0,1,.435.706.584.584,0,0,1,.516.382l-.19-.054c-.762,0-1.143,1.5-1.143,2.068A3.261,3.261,0,0,0,65.155,11.1l.054.163a.78.78,0,0,1-.082.272,3.655,3.655,0,0,1-3.156-3.59A3.153,3.153,0,0,1,62.3,6.456l.267-.47m-.222,4.231-.159-.121-.354-.166.272-.054.3.054a1.921,1.921,0,0,0,.354.463l-.3-.028-.113-.149m.058,1.89-.082-.027c-.272,0-.435.271-.49.516a1.2,1.2,0,0,1,.317-.3l.255-.194M61.9,3.061l.093.1.06.129a.6.6,0,0,0-.325-.463l-.082.082.255.15m-.364,7.711.2-.15a1.524,1.524,0,0,1,.723-.149l.381.028a3.8,3.8,0,0,0,.625.516,7.168,7.168,0,0,0-1.523-.3l-.407.053m.2-7.531.093.109.06.133a.694.694,0,0,0-.325-.491l-.082.109.255.141m-.009.4L61.7,3.509a.8.8,0,0,0-.3-.325l-.082.109.255.137.154.218m.216,7.154.918.15.877.231a5,5,0,0,0,1.388.49l.218.081.163-.054.191.082c.109,0,.163-.082.244-.109h.163l.163-.028a7.169,7.169,0,0,0,1.278-.462,8.841,8.841,0,0,1,1.769-.381,1.088,1.088,0,0,1,.653.19,1.088,1.088,0,0,0-1.034-.6,1.034,1.034,0,0,1,.681-.437.612.612,0,0,0-.463-.163h-.218a3.613,3.613,0,0,0,.49-1.849A3.671,3.671,0,0,0,68.8,5.9a1.775,1.775,0,0,1-.216-.843l.053-.435-.38.163a.406.406,0,0,0-.245-.054c-.135,0-.272.027-.326.163-.137-.326-1.115-.572-1.415-.626a7.287,7.287,0,0,0-.762,0,2.7,2.7,0,0,0-1.659.409.358.358,0,0,0-.273.218.386.386,0,0,0-.326-.163.4.4,0,0,0-.244.054l-.381-.163.054.435a1.761,1.761,0,0,1-.218.843,3.674,3.674,0,0,0-.626,2.041,3.614,3.614,0,0,0,.49,1.849h-.218a.67.67,0,0,0-.488.163,1.026,1.026,0,0,1,.706.437,1.156,1.156,0,0,0-1.06.6l.34-.135.34-.054m-.52-7.191.1.1.064.127a.709.709,0,0,0-.353-.49l-.082.137.268.126m-.153.19.1.1.061.127a.625.625,0,0,0-.326-.488l-.109.135.279.126m.021,6.92-.2.092-.214.07.109.109.17-.125m.1-6.648-.028-.153a.759.759,0,0,0-.3-.337l-.109.137a.616.616,0,0,1,.374.226l.061.127m-.463.163L60.91,4.3l.054.081m-.042,7.557.145-.06.307-.044.191-.137-.191-.027a.689.689,0,0,0-.572.354l.121-.088m-.066-1.083.245-.272a1.059,1.059,0,0,1-.354.163l.109.109m-.163-.816-.109-.109.326-.109m.082.6-.184.111-.224.052.137.109m.109-.407-.18.1-.2.062.135.109m.35-5.961.141.085v.081l-.114.061-.131.021a.465.465,0,0,1-.462-.49.653.653,0,0,1,.081-.328.627.627,0,0,1,.326.165l-.191.244.082.137h.109l.159.024m-.784,5.77h.081c.381,0,1.034-.49.953-.925h.027V4.761a.9.9,0,0,0-.653-.843,9.567,9.567,0,0,1,.979-1.089l.163-.054a.672.672,0,0,1,.435.218c.844.817,2.584.953,3.673.953l.462-.027a5.057,5.057,0,0,0,2.91-.926.613.613,0,0,1,.409-.218l.163.054a13.019,13.019,0,0,1,1.007,1.089.922.922,0,0,0-.681.843V8.679l.027.816a1.2,1.2,0,0,0,.981.871l-.79,1.006a1.433,1.433,0,0,0-.571-.109c-1.09,0-2.123,1.062-3.456,1.225l-.707.027c-1.713,0-2.72-1.224-3.972-1.224l-.49.054-.951-.979m.706-1.034.115.013.076.1c-.163.326-.463.353-.788.326a1.717,1.717,0,0,0,.3.353.773.773,0,0,1-.326.109.194.194,0,0,1-.218-.19c0-.244.291-.52.573-.642l.269-.065M59.8,12.487l.162-.251a2.636,2.636,0,0,1,1.906-.865,1.933,1.933,0,0,1,1.088.435,5.245,5.245,0,0,0,2.857.844h.462a5.187,5.187,0,0,0,2.15-.9,1.905,1.905,0,0,1,1.006-.381c.679,0,1.66.326,1.769,1.116a3,3,0,0,0-.49-.082.74.74,0,0,0-.572.246,1.583,1.583,0,0,0-1.2-.707,1.964,1.964,0,0,1,1.332,1.8l-.244-.028-.653.028a.974.974,0,0,1-.49-.082,1.324,1.324,0,0,0-1.334-1.169h-.027a1.782,1.782,0,0,1,1.251,1.632,2.6,2.6,0,0,0-1.334-.381,1.587,1.587,0,0,0-.625.109v-.109a1.391,1.391,0,0,0-.381-.925,1.466,1.466,0,0,1,.272.816.868.868,0,0,1-.435.762c-.326.244-.544.244-.762.625-.326-.625-1.2-.49-1.2-1.387a1.692,1.692,0,0,1,.244-.816,1.55,1.55,0,0,0-.353,1.034,1.672,1.672,0,0,0-.626-.109,2.526,2.526,0,0,0-1.332.381,1.82,1.82,0,0,1,1.251-1.632H63.44a1.292,1.292,0,0,0-1.279,1.169,1.136,1.136,0,0,1-.516.082l-.626-.028-.272.028a1.967,1.967,0,0,1,1.334-1.8,1.632,1.632,0,0,0-1.2.707.741.741,0,0,0-.571-.246l-.518.082m.082-2.448-.3-.215-.322-.194h.19a1.113,1.113,0,0,1,.518.109l-.081.3m-.023-.576-.179-.22a2.167,2.167,0,0,0-.453-.346h.137a1.107,1.107,0,0,1,.735.272l.109.3-.518-.434a3.718,3.718,0,0,1,.435.488l-.135.191-.131-.249m.035,1.729-.362-.089-.358-.031a1.381,1.381,0,0,1,.735-.163,2.89,2.89,0,0,1,.679.081l.326.381-.2.072-.18.092-.3-.2-.344-.145m.348-5.8.462.587.376.583v.516a11.567,11.567,0,0,0-1.2-1.794,10.357,10.357,0,0,1,1.2,2.04v.9L60.737,7.2a11.193,11.193,0,0,0-1.623-2.659,2.224,2.224,0,0,1,.589.338l.533.506m-.176,2.6.2.309.38.925-.135.054a5.114,5.114,0,0,0-.462-.844,6.953,6.953,0,0,1,.381.9l-.163.081a5.281,5.281,0,0,0-1.144-2.094A1.481,1.481,0,0,1,59.8,7.7l.261.293m.04-1.307.267.391a9.416,9.416,0,0,1,.707,1.5v.463l-.583-1.177L59.849,6.72c.409.816.871,1.659,1.2,2.5a.392.392,0,0,0-.3-.027,16.445,16.445,0,0,0-1.74-3.456,2.284,2.284,0,0,1,.782.564l.312.377m.62,7.138-.479.126-.5.065c-.49,0-1.523-.137-1.523-.79a.728.728,0,0,1,.137-.407l.027.135c.028-.625.326-.653.788-.816a.967.967,0,0,0-.38.681c0,.544.625.925,1.115.925l.2-.023.192-.06.37-.163.054.326.027.082V13.82h.082l.381.054a3.849,3.849,0,0,1-1.715.544l-.951-.081-.2.02-.2.061v-.054c.082-.218.354-.326.545-.407a3.993,3.993,0,0,0,1.115.19,1.507,1.507,0,0,0,.719-.171l.206-.155m-2.962-2.971.133.007-.19-.163-.054.109m.216-.681-.109-.081-.135.354m.244.625-.216-.191-.054.082.125.085m.037.078-.19-.109-.027.054c.027.054.135.054.19.054h.027m-.325-1.116-.086.232-.1.231.3-.409m-.326-.788.048-.1.007-.119-.028-.163.082.027.163-.027a.622.622,0,0,1-.165.329l-.108.052m.054,2.312.248.239a.8.8,0,0,0,.349.115.182.182,0,0,1-.109.163h-.027a.636.636,0,0,1-.516-.49l.054-.028m.054-7.861V3.619l-.218.054m0,4.488.033-.109-.007-.107h.054l.137-.054.081.216c0,.054,0,.109-.054.137L57.1,8.161m.244,2.775.109.125c.1.171.2.447.462.447a.308.308,0,0,0,.218-.082l.082-.054a.283.283,0,0,1,.109.218.231.231,0,0,1-.191.218l-.109.028a1.043,1.043,0,0,1-.924-.653l.092-.163.153-.082m-.3-9.3.027-.272-.027-.19a.442.442,0,0,1,.272.435v.135l-.272-.109m0,1.851.05-.122.113-.041.081.027M56.966,13.6l.313-.122.313-.04a1.749,1.749,0,0,1,.543.081v.027a.7.7,0,0,0,.246.246l-.246-.028h-.054a1.58,1.58,0,0,0-.706.163l-.409-.326m.255-5.716-.092.031a.342.342,0,0,0-.191-.272.29.29,0,0,0,.165-.19l.19.381-.072.05m.017,3.648-.13.021-.088.061c-.054-.054-.082-.082-.082-.137s.165-.109.165-.109l.135.163m0-2.475-.023.072a.257.257,0,0,1-.2.092.172.172,0,0,1-.191-.19.6.6,0,0,1,.137-.3.439.439,0,0,1,.248.214l.024.113m-.293-5.954.117-.061.122-.024A.307.307,0,0,1,57.4,3.1c-.027-.109-.163-.109-.272-.109a.408.408,0,0,0-.381.3l.2-.187m.317.479.167.035-.054-.163.054-.163-.082.028-.135-.028a.234.234,0,0,0-.245.191.361.361,0,0,1-.218.081l.34.017.174,0m-.4,2.537.061.074.02.117h-.027l-.246-.054-.027-.137.135-.027m.167,4.175.269-.394L57.1,9.821a3.069,3.069,0,0,1-.491.762l.33-.313m-.113-4.229h-.054l-.163.054-.027-.082.163-.109m-.109.409L56.8,6.4l.058.13c0,.081-.054.109-.082.109-.109,0-.163-.137-.218-.191l.082-.135m-.011,1.509.174-.068a.234.234,0,1,1,0,.462.244.244,0,0,1-.246-.244l.072-.15m.011.67.109-.167H56.8a.481.481,0,0,0,.272-.109.535.535,0,0,1,.354.435c0,.082-.054.109-.137.109a.38.38,0,0,1-.354-.326V8.6c-.054.109-.135.272-.3.272-.137,0-.191-.027-.191-.19V8.6l.107-.038.084-.066m-.109-2.505-.109-.028.163-.246.081.11M56.8,1.9l-.409.437a.1.1,0,0,1-.107-.109c0-.1.088-.178.2-.235L56.8,1.9M56.72,8.3l-.129.15-.17.068a.177.177,0,0,1-.163-.163.393.393,0,0,1,.135-.3L56.476,8l.072.19.173.109M56.585,6.2l-.065.122-.126.041a.156.156,0,0,1-.162-.163.174.174,0,0,1,.162-.163l.126.05.065.113m.027,1.5-.1.115-.037.157-.163.054a.156.156,0,0,1-.163-.163.526.526,0,0,1,.082-.272l.179.1.2,0M57.1,9.576l.23.1a3.875,3.875,0,0,0,.8.118c.191.028.491.109.491.326,0,.463-.463.491-.491,1.116-.027.109-.163.163-.3.163-.19,0-.326-.246-.381-.409a.632.632,0,0,0,.163-.3l.109-.109h.163l-.381-.054a12.477,12.477,0,0,0-1.224.272c-.109,0-.137-.054-.137-.135l.516-.5.437-.585m-.979-2.884-.082-.053c0-.109.109-.191.137-.246l.163.082a.383.383,0,0,1-.142.194l-.076.023m.064-4.828.178-.09.166-.033-.435.491c-.081,0-.109-.028-.109-.082l.058-.155.142-.13m-.072,2.52-.074-.031c-.054,0-.054.054-.054.081,0,.054,0,.082.054.082s.109-.028.109-.082l-.035-.05m.035,1.874v.081c-.027.082-.081.082-.163.082-.054,0-.163,0-.163-.082s.137-.109.191-.109l.135.028m.068.455.1-.074.027.111.056.027-.032-.05-.023-.115V6.585l.053-.109h.137l.054.081-.037.153-.041.061.064-.033.041-.126.163.054a.129.129,0,0,0,.137-.135.347.347,0,0,0-.109-.191h.135v.137a1.825,1.825,0,0,1-.272.871,1.358,1.358,0,0,1-.843-.953c.028.082.163.082.245.082a.149.149,0,0,0-.082.135.175.175,0,0,0,.137.135l.094-.033m-.061,6.832.175-.11.145-.131a.206.206,0,0,1,.163.19c0,.272-.49.272-.707.272h-.109l-.027-.081.36-.139M56.2,1.632l-.157.167-.115.187c-.027.054-.027.109-.109.109l-.054-.109a.306.306,0,0,1,.157-.238l.279-.117M56.15,6.149V6.2l-.163-.028c-.054,0-.19.054-.19.163l-.054-.326.407.137m-.187-.541-.357-.3a.752.752,0,0,0,.354-.19.254.254,0,0,0,.244.135c.082,0,.137-.109.137-.19a.5.5,0,0,1,.353.3,2.825,2.825,0,0,1-.353.49l-.378-.242m.3,1.64.2.134.23.1a1.723,1.723,0,0,0,.409-1.06.71.71,0,0,1,.109.407c0,.381-.191.844-.626.844a.62.62,0,0,1-.326-.163,2.264,2.264,0,0,1-.707-1.632l.163.135A1.632,1.632,0,0,0,56.1,7.086l.169.162m-.048-3.316.118.1.113.046a.22.22,0,0,0,.218-.109L56.585,4a.2.2,0,0,1-.218-.218l.054-.353c0-.137-.109-.273-.109-.382l.135-.272c.082-.135.3-.163.409-.244a2.011,2.011,0,0,0,.463-.381h.218l.088.154.048.173a.2.2,0,0,0-.135.218.364.364,0,0,0,.081.218v.054a1.753,1.753,0,0,0,.407.844c-.054.081-.19.081-.218.162L57.728,4c-.135,0-.027-.081-.109-.109l-.027.054c0,.109.135.081.216.054l-.027.163a.5.5,0,0,1-.407.137c.027.109.19.19.272.244a.127.127,0,0,0-.082.137c0,.109.109.19.109.272,0,.244-.735.244-.871.244l-.137-.027V5.116c0-.272-.109-.544-.434-.544H56.15a.549.549,0,0,1,.435.462h-.054c-.109.028-.19-.163-.19-.3-.109.081-.028.435-.163.435s-.245-.272-.245-.381a.261.261,0,0,0-.027.244L55.66,5.2l-.027-.109a.547.547,0,0,1,.435-.516A.613.613,0,0,1,55.523,4c0-.19.165-.218.3-.218l.235.046.159.1m-.829,1.591.163-.191a6.145,6.145,0,0,0,.762.626.365.365,0,0,0-.163.137l-.411-.256-.35-.316M55.523,9.2l-.035.125c-.061.113-.183.194-.183.337l-.027-.082.025-.109.113-.188.025-.11a.575.575,0,0,0-.109-.3l.146.123.044.2m.154,3.992.231-.1a.712.712,0,0,0,.324-.333h.054c.135,0,.271.027.271.19,0,.354-.76.653-1.06.653-.163,0-.272-.054-.272-.216l.054-.191.163.027.235-.033M55.245,1.551l.224-.246-.027.163a.857.857,0,0,0,.163.463c0,.163-.191.218-.3.246a.342.342,0,0,1-.163-.3l.028-.166.074-.161M55.2,5.36l-.082-.088a.864.864,0,0,1-.081-.4V4.163l.092.6.072.6m-.325-2.013.09-.11c.253-.214.783-.142,1.188-.571-.041.449-.526.47-.926.555l-.352.126m0,.435.311-.183a2.161,2.161,0,0,0,1-.5c-.021.429-.516.475-.934.563l-.372.118m.3-.853-.244.037h-.109c.353-.191.706-.272,1.06-.435a1.657,1.657,0,0,1-.446.3l-.261.1m-.381-.235.15-.127a2.738,2.738,0,0,1,.612-.226l-.35.227-.411.126m.028,4.925.027.218-.054.434a.745.745,0,0,0,.244.572c-.271-.109-.325-.3-.325-.6l.109-.625m0-2.264.131.325a1.227,1.227,0,0,1,.19.579l-.027.109c-.082-.49-.516-.817-.516-1.415a2.037,2.037,0,0,1,.135-.681,2.368,2.368,0,0,1,.028.626l.058.457m-.178,8.565-.072-.235-.027.109a.521.521,0,0,0,.19.381l.082-.082-.174-.173m.349-7.312.089.219.035.22V7.1l-.22-.458a3.285,3.285,0,0,1-.678-1.419,1.385,1.385,0,0,1,.165-.735l-.054.409a2.326,2.326,0,0,0,.394,1.247l.271.462m-.149,7.865.312-.054.313-.135a1.111,1.111,0,0,1-.516.109.488.488,0,0,1-.544-.544.448.448,0,0,1,.245-.407.758.758,0,0,0,.76.625.773.773,0,0,0,.409-.109.619.619,0,0,0,.49.435,1.272,1.272,0,0,1-.762.244l-.544-.027a.984.984,0,0,0-.707.244.487.487,0,0,1-.109-.244.383.383,0,0,1,.218-.326.37.37,0,0,0,.187.146l.248.044M54.273,3.564l.133.037.111.1.054.218v.053l-.326-.027a.4.4,0,0,1-.218-.326l.246-.054m-.191,5.169V8.9c0,.272.272.137.3.381C54.245,9.142,54,9.2,54,8.924l.02-.106.062-.085M54.1,5.919l.114.231c.191.326.681.843.681,1.224a4.926,4.926,0,0,0-.407-.626c-.3-.38-.572-.6-.572-1.169A1.539,1.539,0,0,1,54,5.088l.037.561.066.269m-.076-1.592L53.891,4.3a.724.724,0,0,1,.6-.3.46.46,0,0,1-.307.3l-.157.024m-.137,3.265-.1-.048-.061-.088v.027c0,.109.054.191.137.191.054,0,.135-.082.19-.137l-.163.054m.272-3.619-.146.038-.126.1a.507.507,0,0,1-.218-.19.36.36,0,0,1,.246-.163l.111.129.133.088M53.457,6.8l-.117-.046-.074-.089v.027c0,.109.028.218.137.218a.308.308,0,0,0,.218-.135l-.163.027m.19,5.686.234.037a1.061,1.061,0,0,1,.528.425,1.42,1.42,0,0,0-.49-.081c-.326,0-.762.218-.762.6v.054a.7.7,0,0,1,.326-.409c.082.028.3.109.3.191,0,.163-.407.244-.407.544,0,.381.571.407.871.381-.082.081-.163.163-.163.244h-.109A1.067,1.067,0,0,1,52.8,13.44a.993.993,0,0,1,.675-.932l.169-.021m-.073-6.963-.117.131-.326.194-.763-.326H52.4c.272,0,.9-.163,1.007-.435l.218-.054c-.054.109,0,.191,0,.326l-.046.165M56.8,9.142h.027l.137.19-.246.054.218.027-.027.082a.8.8,0,0,1-.354,0,.393.393,0,0,0,.3.135l-.028.028-.19.027-.191-.027a.569.569,0,0,0,.326.135l-.027.028h-.109a.762.762,0,0,1-.246,0l.272.135-.054.054h-.081l-.218-.027a.692.692,0,0,0,.244.135l-.109.109a.541.541,0,0,1-.3,0l.218.11-.109.109h-.272c.028.054.109.081.163.109-.081.054-.353.271-.462.271l-.219-.027-.218-.462-.054-.082v.082l-.163-.028a.362.362,0,0,0-.216.082l.081-.028.326.054.027.109a1.634,1.634,0,0,0-.38.054h.081l.326.028.027.081-.353.054h.081l.326.054v.054a.544.544,0,0,0-.3.081l.135-.027.163.027.028.082-.3.081.137-.027.218.027c.054.163.272.354.272.544l-.109.218a2.893,2.893,0,0,0,.49.9.6.6,0,0,1-.49.353c-.191,0-.246-.109-.272-.272a.5.5,0,0,0,.19-.163l-.218.109-.027-.081.218-.191-.246.109-.027-.109a.361.361,0,0,0,.19-.163l-.218.109-.027-.054.19-.19a.351.351,0,0,1-.272.109c-.054-.109-.19-.191-.271-.3a.378.378,0,0,0,.216-.165.448.448,0,0,1-.3.11c-.326,0-.19-.354-.3-.572-.054-.163-.491-.734-.654-.734-.135,0-.162-.028-.216-.137V10.42a1.237,1.237,0,0,0-.218-.626,1.331,1.331,0,0,1,.109.654V10.5l-.137.027a.376.376,0,0,1-.19-.326v.082a.428.428,0,0,0,.081.244l-.081.082a.832.832,0,0,1-.191-.246l.109.3-.163-.218.109.244-.027.028-.137-.218a.428.428,0,0,0,.082.244h-.028l-.137-.19.082.216-.054.054-.137-.244.082.272-.246.054c-.19-.109-.407-.272-.407-.49l.054-.191.435-.349.354-.413h.081c.272,0,.572-.325.734-.488l.245.272c.081.027.3.081.3.162s-.354.109-.354.381c0,.163.218.3.381.326a.317.317,0,0,1-.163-.272c0-.218.518-.027.518-.353,0-.244-.381-.353-.381-.544a.584.584,0,0,1,.272-.409c0,.518.679.437.679.709,0,.135-.244.271-.244.488,0,.435.788.354.788.844l-.054.19a.345.345,0,0,0,.137-.3c0-.409-.491-.381-.491-.681,0-.163.354-.3.354-.6,0-.491-.653-.354-.653-.844,0-.462.353-.516.353-1.06a1.581,1.581,0,0,0-.163-.707c.082,0,.109-.109.109-.163a1,1,0,0,0-.19-.463,1.394,1.394,0,0,1,.19-.409.666.666,0,0,0,.163.3v.163a2.211,2.211,0,0,0,.463,1.415.555.555,0,0,0-.163.381.571.571,0,0,0,.191.381l-.028.218a.379.379,0,0,0,.272.326l-.027.109a.262.262,0,0,0,.2.252l.368.048-.32-.08c-.109-.044-.2-.111-.2-.22l.027-.163c-.081,0-.272-.137-.272-.246a.416.416,0,0,1,.109-.272.375.375,0,0,1-.19-.325A.5.5,0,0,1,56.1,7.51l.054.054-.027.272c0,.135.027.216.19.216a.626.626,0,0,0-.163.326.247.247,0,0,0,.272.218l-.054.137a.25.25,0,0,0,.272.246l.135-.028.028.191M51.77,5.279l.272-.054a.372.372,0,0,0,.135.216l-.407-.162M51.716,12.3l-.028-.027-.027-.082h.081m-.109-2.312V9.168h.137v.625M52.5,5.932l-.194.139-.214.078a.184.184,0,0,1-.163-.246l-.082.028c-.163,0-.354-.082-.354-.246l.028-.163.979.409.285.1.287.119a.673.673,0,0,0-.219.435.946.946,0,0,0,.545.762c.027.3-.082.706.38.706h.109c-.6-.19-.163-.571-.434-.843a.481.481,0,0,1-.463-.544,1.209,1.209,0,0,1,.137-.516,1.585,1.585,0,0,1,1.087,1.306,1.989,1.989,0,0,1-.381,1.006,1.585,1.585,0,0,0,.409-1.034,1.23,1.23,0,0,0-.191-.681c.3.137.6.326.6.681a2.012,2.012,0,0,1-.082.435c-.19.381-1.115,1.523-1.55,1.523-.137,0-.165-.19-.165-.272l.028-.135a.266.266,0,0,0,.246-.11l.218.082a.318.318,0,0,0,.3-.246.31.31,0,0,1-.244.163.247.247,0,0,1-.191-.081.539.539,0,0,1-.326.163.268.268,0,0,1-.272-.246l.054-.163a.43.43,0,0,0,.326-.135.288.288,0,0,0,.246.135.45.45,0,0,0,.326-.218.522.522,0,0,1-.272.137.409.409,0,0,1-.246-.109L53.1,8.27a.739.739,0,0,1-.435.218c-.163,0-.326-.081-.326-.272l.027-.163a.624.624,0,0,0,.3.082.315.315,0,0,0,.354-.381V7.7c0,.163-.082.353-.273.353a.61.61,0,0,1-.353-.162l.109-.109a.479.479,0,0,1-.3.163.814.814,0,0,1-.272-.381.968.968,0,0,1,.109-.3l.163.028c0,.109.054.272.19.272a.769.769,0,0,0,.462-.191.884.884,0,0,1-.353.109c-.163,0-.191-.054-.163-.19V7.264c.163-.054.19-.246.435-.246h-.082c-.19,0-.163.219-.462.219a.435.435,0,0,1-.381-.219c-.135-.027-.272-.109-.272-.218a.509.509,0,0,1,.082-.216l.135.027a.41.41,0,0,0,.409.3.713.713,0,0,0,.488-.244.786.786,0,0,1-.488.135.3.3,0,0,1-.272-.19l.353-.135L51.96,6.5c-.163,0-.353-.027-.353-.218a.461.461,0,0,1,.081-.272h.163A.217.217,0,0,0,52.1,6.2a.4.4,0,0,0,.234-.1l.174-.176m-.816,4.488.191-.054a.664.664,0,0,0,.353.571l-.326.028-.218-.544m0,0,.054.283.137.261h-.246l-.1-.239-.061-.277m-.137,1.359V11.78h.109l-.109-.082H51.5l-.078-.02-.057-.061h.163l-.137-.054.028-.028h.163l-.137-.054.054-.054.191.054-.135-.081.163-.028c.218,0,.326.218.353.435a.8.8,0,0,1-.353.137l-.2-.048-.18-.089m-.081-1.85V9.142l.163.027v.788m.057,2.017.243.052a.767.767,0,0,0,.435-.165h.027l.028.028c0,.137-.381.244-.49.244a.779.779,0,0,1-.437-.162l.109.027-.135-.137.22.113m-.048-1.258.1.248-.191-.028a1.452,1.452,0,0,1-.109-.488c.054.027.109,0,.163,0l.037.268m-.336-.268H51.2l.054.488H51.09c-.054-.027-.054-.135-.054-.19l.054-.3M51,7.372l-.048.084c0,.19.3.244.435.272,0-.082-.3-.163-.3-.272,0-.054.381-.137.435-.163h-.191l-.222.031L51,7.372m-.074,2.476V9.06l.163.028V9.93M50.9,5.142l.19.028.326-.082c.054.109.137.137.245.191a.989.989,0,0,1,.381.19l.843.381.816.3a.365.365,0,0,0,0,.244,2.15,2.15,0,0,0-.625-.381L50.9,5.142m.135,1.578-.176.044a.166.166,0,0,0-.1.146c0,.137.163.273.272.354,0-.081-.163-.218-.163-.326,0-.163.3-.191.381-.191l-.218-.027m-.18,6.917L51,13.477l.2-.365h.054c.109,0,.163.028.163.137,0,.163-.435.653-.6.653-.081,0-.109-.082-.135-.163l.173-.1m-.227-3.952v-.76l.135.081v.762m-.109-3.71-.077.06-.032.088c0,.163.191.3.3.353a.692.692,0,0,1-.218-.353c0-.109.3-.163.38-.163l-.162-.028-.191.044m-.027-.778-.113.024-.05.084c0,.191.3.3.435.326-.054-.054-.326-.244-.326-.326l.218-.054-.163-.053M50.3,9.332v-.6l.163.109v.679M50.519,4.3l.2.044.2-.017.272.218a2.973,2.973,0,0,1-.707.163.381.381,0,0,1-.381-.326l.409-.081m-.4,4.777-.064-.072V8.542l.109.109v.518m.354,2.122.081-.109-.572-.082-.381-.027.381.081M49.81,3.891l.089.074L50.028,4l.246.027a.3.3,0,0,0,.191.246l-.437.028c-.272,0-.6-.028-.6-.354V3.864l.38.027m.382,7.726.109-.109-.273-.028L49.4,11.4l.625.163m-.19.3.081-.081-.6-.082m.3-4.706.166.072.242.009a.653.653,0,0,0,.328-.081.508.508,0,0,0,.381.135l.054-.027c-.191,0-.435-.082-.435-.326a.331.331,0,0,1,.081-.244c-.081-.054-.218-.163-.218-.246,0-.19.272-.326.272-.435,0-.163-.381-.326-.381-.625l.054-.218,1.169.462-.027.19a.339.339,0,0,0,.135.273l-.027.218a.444.444,0,0,0,.137.353.514.514,0,0,0-.082.272c0,.191.191.3.354.353l.081.082a.6.6,0,0,0-.135.3c0,.19.272.516.49.49l-.054.19a.337.337,0,0,0,.325.353l-.027.137a.363.363,0,0,0,.218.3v.027l.027.082-.435.054c-.216,0-.488-.054-.488-.328l.054-.218h-.218c-.219,0-.409-.027-.409-.272a.639.639,0,0,1-.326.054c-.054,0-.462-.109-.462-.218s.3-.216.381-.244c.081.244.38.3.571.3V8.107h-.109c-.272,0-.462-.054-.407-.353a.288.288,0,0,1-.246-.135.7.7,0,0,1-.518.163l-.109-.028a.284.284,0,0,1-.109-.3l-.272.081a.351.351,0,0,1-.38-.435l.176-.035.177-.074m-.028-.027-.244.088L49.1,7.1a.229.229,0,0,1-.246-.246V6.8h.054a2.51,2.51,0,0,0,.6-.162l-.027.107.023.13.085.089m-.673-3.8.157.129V3.32c0,.218.163.326.381.326l.244-.028.054.191c-.325-.054-1.006-.191-1.006-.654l.054-.163.115.171m.348,2.986.074.082a.509.509,0,0,0,.305.081h.381l.165-.028.135.191-.027.271.027.219-.3-.028c-.163,0-.488-.054-.488-.272l.053-.109h-.027a2.591,2.591,0,0,1-.544.109c-.135,0-.3,0-.3-.163l.028-.163.518-.19m-.409,1.876-.02.05-.062.031a.086.086,0,0,1-.081-.081.071.071,0,0,1,.081-.081l.062.02.02.061m0,3.781H48.75a.768.768,0,0,1-.191.354l.2-.157.1-.2m.011-.364.017-.37h.027c.082.109,0,.407.246.407.218,0,.19-.381.19-.516l.272-.191h.109l.3.028.572.135c.218.054.435.054.49.3a4.719,4.719,0,0,1-.788.679l-.273.245H49.7l.3.081.054.109h-.028a.648.648,0,0,1-.326,0,.42.42,0,0,0,.3.082h.109l.191.19a.575.575,0,0,0-.109.3.6.6,0,0,1,.19-.246l.054.054a.575.575,0,0,0-.109.3l.191-.218H50.6a.73.73,0,0,0-.135.3l.19-.218.435.163v.054l-.037.154c-.072.176-.235.39-.4.39a.532.532,0,0,1-.218-.081l-.109.135H50.3c-.082-.271-.028-.434-.273-.679a3.548,3.548,0,0,0-1.006-.653c-.135-.054-.518-.054-.518-.218a3.532,3.532,0,0,1,.163-.49.173.173,0,0,0,.146-.066l.056-.162m.122,2.357.345.114.338.042a.753.753,0,0,0,.353-.082.434.434,0,0,0,.137-.218c.028.109.054.163.163.163.054,0,.137-.054.137-.081a.452.452,0,0,0,.19,0v.027a.173.173,0,0,0,.191.191.762.762,0,0,0,.571-.381l.191-.028.081.054s-.435.49-.6.49a.183.183,0,0,1-.137-.109.5.5,0,0,0,.137.326,2.889,2.889,0,0,0-1.062-.244h-.081a2.187,2.187,0,0,0-1.088.3v-.054a.506.506,0,0,1,.191-.326,1.59,1.59,0,0,0-.654-.272l-.027-.271.292.2.33.165m3-9.011.109.027a1.358,1.358,0,0,0,.951-.435,1.62,1.62,0,0,1-.843.326.607.607,0,0,1-.463-.244,1.813,1.813,0,0,0,.6-.409,1.7,1.7,0,0,1-.816.354c-.137,0-.326.027-.409-.137a4.113,4.113,0,0,0,.709-.326,2.8,2.8,0,0,1-1.034.272c-.137,0-.326-.054-.326-.218a3.2,3.2,0,0,0,.788-.326,3.442,3.442,0,0,1-.979.246.369.369,0,0,1-.246-.054.426.426,0,0,1-.163-.326l.163-.054.328-.163-.328.109a1.538,1.538,0,0,1-.488.081c-.109,0-.272-.027-.272-.163V3.32h.081a2.144,2.144,0,0,0,.679-.191l.109-.082-.109.054a2.049,2.049,0,0,1-.679.163.473.473,0,0,1-.462-.353h.163a1.384,1.384,0,0,0,.6-.109l-.38.027c-.326,0-1.088-.135-1.088-.6l.04-.159.122-.141.823.52.864.459,1.415.707c.626.246,2.1.626,2.476,1.143a.6.6,0,0,0-.272.246l-.272.054c-.081.244-.707.353-.925.353a.228.228,0,0,1-.244-.244l.135-.109h.081c.435,0,.844-.054,1.035-.49a.914.914,0,0,1-.872.407l-.244-.027a.884.884,0,0,1-.516.218.317.317,0,0,1-.272-.109l.435-.272-.439.187a1.5,1.5,0,0,1-.459.085.335.335,0,0,1-.353-.326,1.817,1.817,0,0,0,.488-.191l.137.028.191-.028.207.153.228.093M48.315,8.216l-.082.082c-.081,0-.107-.054-.107-.082,0-.081.027-.109.107-.109l.052.024.031.085m.218-2.366.076.127a.644.644,0,0,0,.414.173l.218-.028v.028l-.374.111-.415.052c-.109,0-.543,0-.543-.218a.515.515,0,0,1,.135-.272l.49.027m-.163,7.916.19.054a.831.831,0,0,0-.488.326l.19.054c.054.028.109.054.109.109a.153.153,0,0,1-.163.137.3.3,0,0,1-.3-.3.369.369,0,0,1,.287-.356l.175-.025m-.734-5.332-.024.086-.085.023c-.054,0-.082-.027-.082-.109a.072.072,0,0,1,.082-.081l.085.02.024.061M47.608,8.3l-.184.061-.061.183c0,.109.082.191.245.191a.211.211,0,0,0,.218-.191.256.256,0,0,0-.068-.183l-.15-.061m.224-1.161.265-.009-.326-.054c-.244,0-.626.191-.681.409a.761.761,0,0,1,.463-.3l.279-.045m-.795.019.329-.163A1.638,1.638,0,0,1,48.1,6.91a.531.531,0,0,0-.353-.081,1.221,1.221,0,0,0-1.007.572l.3-.246m-.11,1.332-.034.076-.073.033a.113.113,0,0,1,0-.218l.073.035.034.074M47.036,9.9l-.081-.027-.028.027c0,.082-.135.218-.244.272l.207-.1.146-.167m-.163-1.55-.149.054-.068.135a.24.24,0,0,0,.216.246.264.264,0,0,0,.246-.246.173.173,0,0,0-.082-.135l-.163-.054m-.153,1.667.082-.127.044-.153-.081-.027a1.3,1.3,0,0,1-.272.462l.227-.155m-.111-2.868.322-.22a2.417,2.417,0,0,1,.622-.292A2.032,2.032,0,0,1,48.26,6.5l.3.054a.378.378,0,0,0,.191.218v.054A.289.289,0,0,0,49,7.1l.381.707c.244.462.353.979.652,1.442a1.611,1.611,0,0,0,1.225.815,2.32,2.32,0,0,0,1.5-.924.339.339,0,0,0,.165.3,3.926,3.926,0,0,1-.707.625,1.75,1.75,0,0,1-.953.273,1.524,1.524,0,0,1-1.225-.626,9.89,9.89,0,0,1-.734-1.523c-.135-.272-.407-.788-.735-.9a.94.94,0,0,1,.245.218H48.75c-.6,0-1.143.381-1.741.381a.7.7,0,0,1-.679-.409l.081-.135.2-.2m-.041.711.206.082.236.027c.6,0,1.224-.381,1.823-.435l.19.3-.163-.028c-.626,0-1.2.462-1.823.462a.89.89,0,0,1-.815-.543l.109-.218.084.21.154.143m.06-3.652.219.061a.949.949,0,0,0,.816.463.767.767,0,0,1-.544.163.946.946,0,0,1-1.062-.953l.028-.135a1.27,1.27,0,0,0,.34.3l.2.1m-.107,2.32v.054L46.4,6.67l-.18.023c-.082,0-.354-.053-.354-.19l.109-.027.2.027.344.028m-.048.632-.17.1a.972.972,0,0,1-.381.089c-.054,0-.163,0-.163-.082s.681-.163.816-.246l.028.028-.13.115m.048-.387-.056.068a.727.727,0,0,1-.325.068c-.082,0-.435-.027-.435-.163,0-.054.027-.107.081-.107l.272.081.222.048.242.007m0,.135.028.056a2.246,2.246,0,0,1-.709.162c-.135,0-.163-.027-.163-.162l.054-.056a.655.655,0,0,0,.326.028l.463-.028m3.454-1.6-.316.076-.336.033A.687.687,0,0,1,48.75,5.2l.463-.19a1.525,1.525,0,0,1-.626.135.929.929,0,0,1-.734-.407,1.779,1.779,0,0,0,.652-.163,2.213,2.213,0,0,1-.571.081.941.941,0,0,1-.9-.381h.028a1.1,1.1,0,0,0,.653-.135,1.585,1.585,0,0,1-.518.081,1.266,1.266,0,0,1-.978-.435h.788l-.462-.049c-.577-.066-1.388-.21-1.388-.658l.082-.246L47.614,3.9l2.414,1.027v.082l-.048.149-.007.15.17.242.158.139.092.061.072.1c0,.109-.328.246-.272.409l-.165.027h-.163a.543.543,0,0,1-.516-.218l.381-.135a1.6,1.6,0,0,1-.625.109c-.191,0-.382-.054-.437-.246L49,5.632a1.01,1.01,0,0,1-.491.109.622.622,0,0,1-.571-.272l.3-.163a2.5,2.5,0,0,1-.625.109.467.467,0,0,1-.463-.353.884.884,0,0,0,.545-.326,1.035,1.035,0,0,0,.924.49.687.687,0,0,0,.626.271.866.866,0,0,0,.653.3l.281-.058.127-.05-.273.027a.775.775,0,0,1-.6-.218l.281-.074.261-.115M45.649,6.313l-.085.061-.024.1c-.3-.028-.844-.354-.844-.709,0-.109.137-.163.246-.109l.707.654m-.244.326-.082.162c-.272-.027-1.143-.488-1.143-.788a.2.2,0,0,1,.326-.163c.163.137.218.326.435.49l.463.3M44.125,4.572l.188.078a2.532,2.532,0,0,1,.382.575h-.109a.227.227,0,0,0-.218.081.938.938,0,0,1-.325-.571l.009-.1.072-.061m0-.191-.034.076-.074.033a.117.117,0,0,1-.109-.109.1.1,0,0,1,.109-.109l.074.024.034.085m.427,2.2.143.081a2.4,2.4,0,0,0,.6.272.17.17,0,0,0,0,.163c-.245,0-1.388-.354-1.388-.625,0-.054.054-.3.137-.3l.508.409m-.261.292.569.251.435.11.081.135h-.163c-.3,0-1.5-.109-1.5-.544,0-.054.054-.163.109-.163l.464.211m-.41-2.6-.052.122-.111.041a.156.156,0,0,1-.163-.163.176.176,0,0,1,.163-.163l.111.052.052.111m-.354.246.2.068.18.15c.191.163.163.407.272.625-.109,0-.218.135-.3.19-.218-.19-.545-.516-.545-.815l.054-.171.137-.046M43.581,6.2l-.027-.054a.355.355,0,0,1,.326-.354.353.353,0,0,1,.434-.3.262.262,0,0,1,.272-.19.529.529,0,0,1,.382.244l-.163.028-.137-.054c-.109,0-.191.135-.218.19H44.37c-.218,0-.271.165-.3.354,0,0-.3.3-.272.49-.109.028-.244.082-.244.218a.337.337,0,0,0,.109.218c-.082.054-.054.109-.054.191-.109-.056-.273-.082-.273-.218a.2.2,0,0,1,.082-.165.324.324,0,0,1-.082-.271.354.354,0,0,1,.138-.284l.107-.042M43.5,4.245l-.02.092a.238.238,0,0,1-.226.126.218.218,0,0,1,0-.437.237.237,0,0,1,.226.127l.02.092m-.425.523.111.092a8.93,8.93,0,0,1,.64.827c-.137,0-.218.109-.246.246-.272-.191-.871-.572-.871-.9a.279.279,0,0,1,.272-.3l.093.033m-.555,9.324.507-.261a3.366,3.366,0,0,1,1.424-.309,2.757,2.757,0,0,1,1.8.653,1.671,1.671,0,0,0-.735-.109,3.459,3.459,0,0,0-.9.244l.435-.381h-.244a3.694,3.694,0,0,0-1.279.326l.326-.381a2.049,2.049,0,0,0-.626.048l-.706.17m.516-9.711-.025.131a.312.312,0,0,1-.3.2.326.326,0,0,1,0-.653.312.312,0,0,1,.3.2l.025.131M43.472,6.1l-.106.061-.085.1c-.218-.109-.9-.409-.9-.681,0-.054.109-.353.218-.353.054,0,.238.19.425.394l.446.476M42.384,5.85l.843.49a.392.392,0,0,0-.027.3c-.3-.028-.9-.272-.9-.626l.02-.1.061-.061m0-1.2.159.061L42.6,4.9a.193.193,0,0,1-.218.19c-.135,0-.244-.081-.244-.19a.238.238,0,0,1,.072-.184l.173-.061m.017.51.037.089c0,.109-.054.19-.163.19a.164.164,0,0,1,.028-.325l.1.046m-.044.415-.035.076-.074.033a.125.125,0,0,1-.109-.137l.081-.081.1.035.037.074m5.413.435-.257-.056a.584.584,0,0,1-.5-.571l.054-.216A.556.556,0,0,0,47.5,5.5l.19.021.1.119.143.1-.092.126-.072.146v.054c0,.326.571.381.788.326V6.5a2.894,2.894,0,0,0-.843-.135,6,6,0,0,0-.979.109l-.054.135a.522.522,0,0,0,.137.272l-.054.054c-.109,0-.191-.163-.191-.272l.082-.19-.082.027a1.2,1.2,0,0,1-.6-.19l-.054.109a.152.152,0,0,0-.163.135.165.165,0,0,0-.109.244.152.152,0,0,0-.082.137.2.2,0,0,0,.054.163c-.054,0-.081.054-.081.109a.183.183,0,0,0,.109.137v.081l-.028.028a.165.165,0,0,1-.162-.191.194.194,0,0,1-.082-.163.149.149,0,0,1,.082-.135l-.054-.11a.169.169,0,0,1,.107-.163l-.027-.053c0-.054.054-.137.109-.137V6.476a.1.1,0,0,1,.135-.082c.028-.081.082-.081.137-.081A3.608,3.608,0,0,1,44.4,4.544c-.054-.109-.191-.435-.353-.435H43.99A.488.488,0,0,0,43.555,4a.456.456,0,0,0-.328-.135c-.081,0-.19.027-.218.081l-.325-.081a.443.443,0,0,0-.463.462v.191a.3.3,0,0,0-.19.272l.054.272c-.028,0-.082.054-.082.135l.054.163-.027.163.081.326A3.025,3.025,0,0,0,45.1,7.536a4.638,4.638,0,0,0,1.251-.163,5.876,5.876,0,0,0-.572,1.332,1.5,1.5,0,0,1-.6,1.007,2.683,2.683,0,0,1-1.225.244c-.462.054-1.062.328-1.062.871,0,.381.272.463.272.681,0,.272-.625.407-.625.871,0,.326.407.625.653.734a.613.613,0,0,1-.272-.407c0-.49,1.17-.246,1.17-.925,0-.435-.544-.707-.544-1.143l.027-.109c.381-.244,1.2-.081,1.769-.326a1.557,1.557,0,0,0,.8-.788l.122-.381.048-.246.007-.246c-.273,1.251-.763,1.715-1.987,1.742l-.544.027a.551.551,0,0,0-.435.544l.137-.272v.054c0,.435.516.734.516,1.143,0,.544-.844.407-1.088.707.163-.544,1.007-.246,1.007-.79a.25.25,0,0,0-.109-.218l.027.109a.275.275,0,0,1-.244.3l.027-.163c0-.409-.381-.626-.381-.9a.357.357,0,0,1,.081-.216.409.409,0,0,0-.19.3c0,.244.218.381.218.6,0,.244-.3.3-.463.407.137-.135.354-.218.354-.407,0-.272-.272-.3-.272-.6,0-.516.544-.816.979-.871.435-.082.9.054,1.279-.246.6-.407.679-1.36.951-2.04a.853.853,0,0,0,.9.6,3.07,3.07,0,0,0,1.09-.272.18.18,0,0,0-.109.19.21.21,0,0,0,.19.218.215.215,0,0,0,.218-.218.221.221,0,0,0-.246-.218l.518-.162a.275.275,0,0,0-.109.19c0,.109.081.163.191.163a.18.18,0,0,0,.19-.163.228.228,0,0,0-.19-.19h.19a8.631,8.631,0,0,0,1.006,2.066,1.61,1.61,0,0,0,.872.463l-.028.245.028.244a3.749,3.749,0,0,1-.872-.244.378.378,0,0,1-.163-.3.652.652,0,0,1-.407.435l-.218.135.028.191c0,.081,0,.218-.082.244-.218,0-.054-.381-.272-.381s-.027.572-.218.572c-.163,0-.137-.49-.245-.49-.163,0-.027.6-.218.6-.216,0-.107-.49-.3-.49s-.109.435-.272.435c-.135,0-.109-.409-.135-.518l-.245.028a2.694,2.694,0,0,0,1.441-1.007h.054a.422.422,0,0,0,.354-.218.481.481,0,0,1-.272.109H48.75L48.8,9.93a.479.479,0,0,0,.354-.326.369.369,0,0,1-.3.19l.082-.353a2.545,2.545,0,0,1-1.688,1.6,1.948,1.948,0,0,0-.543.246.708.708,0,0,0-.246.435.723.723,0,0,1-.381.135h.354v.082a.909.909,0,0,1-.409.137.918.918,0,0,0,.381,0v.107a.6.6,0,0,1-.381.082.935.935,0,0,0,.381.027,1.1,1.1,0,0,0,.082.409v.027l.135-.027a.175.175,0,0,1,.163.135c0,.272-.707.626-.925.626-.109,0-.137-.027-.137-.109l.028-.137a1.052,1.052,0,0,0,.646-.291l.089-.2-.1.163a1.268,1.268,0,0,1-.632.246c-.028-.191-.137-.163-.272-.163-.081,0-.19-.028-.19-.137,0-.218.625-1.2.625-1.713,0-.191-.191-.246-.191-.381,0-.272.763-.272.763-1.034a1.184,1.184,0,0,0-.115-.524l-.1-.155.122.279.041.318c0,.844-.817.681-.817,1.116,0,.163.191.244.191.381,0,.49-.625,1.415-.625,1.713,0,.272.218.246.407.246l.027.027c.054,0,.054.054.082.109l-.028.165.044.138.147.078.251-.053a1.557,1.557,0,0,0,.648-.409.177.177,0,0,1,.107.137c0,.19-.679.516-.9.516l-.082-.028-.027-.081V13.6l-.021.1.021.1a2.9,2.9,0,0,0-1.415-.381,3.594,3.594,0,0,0-2.394.951,5.4,5.4,0,0,1,1.578-.407,3.137,3.137,0,0,0-.381.516,3.911,3.911,0,0,1,1.278-.407l.245-.054-.788.679a4.272,4.272,0,0,1,1.6-.516,7.216,7.216,0,0,1,.79.081l-.109-.19a1.98,1.98,0,0,0,.815.135.306.306,0,0,0,.163,0,2.074,2.074,0,0,1-.3-.435l.054-.109c.109,0,.218.49.544.49l.137-.027-.626-.871a.289.289,0,0,0-.244-.137l.053-.218a.221.221,0,0,0-.216-.244l-.163.027v-.353c0-.6.109-.953.679-1.143h.3c0,.135-.028.516.19.516.246,0,.191-.381.272-.462l.028.027c.027.163.054.463.271.463.163,0,.218-.3.218-.435.028.109.082.326.191.381a1.186,1.186,0,0,0-.246.49v.054c0,.163.191.19.326.218a2.764,2.764,0,0,1,1.306.762.7.7,0,0,1,.109.407c0,.054-.054.137-.109.137a.617.617,0,0,1-.3.081A2.023,2.023,0,0,1,48.152,13a2.189,2.189,0,0,0,.135.707h-.054a.428.428,0,0,0-.488.435.458.458,0,0,0,.462.463.3.3,0,0,0,.326-.272.463.463,0,0,0-.163-.272.406.406,0,0,1,.272-.082l.218.028a.33.33,0,0,0-.163.326l.054.244a2.31,2.31,0,0,1,1.278-.407h.109a2.593,2.593,0,0,1,1.034.19,1.262,1.262,0,0,0,.545.082l.571-.054-.516-.381.054-.054c.19,0,.353.272.516.326L52.4,14.2c0-.272-.6-.788-.871-.788l.028-.191c0-.163-.11-.244-.273-.244l-.19.054c-.163-.082-.953-.653-.953-.844l.409-.326a2.06,2.06,0,0,0,.788-.816l.273.028v.218a.531.531,0,0,0-.354.49l-.109.109c0,.137.3.272.409.3a.156.156,0,0,0,.163.163c.081,0,.109-.081.135-.163.109-.027.409-.162.409-.3a.117.117,0,0,0-.109-.109.5.5,0,0,0-.409-.49v-.218c.381,0,1.251-.082,1.442-.435h.272a.312.312,0,0,0,.3.163,1.665,1.665,0,0,1,.572.653c.109.272-.028.626.407.6a2.292,2.292,0,0,1,.544,1.088v.027a.351.351,0,0,0-.109.273.316.316,0,0,0,.353.3l.191-.028.082.109v.054l-.328.054c-.272,0-.6-.135-.6-.435a.363.363,0,0,1,.054-.216h-.109a.516.516,0,0,0-.572.571l.082.326h-.219c-.163,0-.6-.054-.6-.272,0-.246.407-.3.407-.571,0-.137-.137-.219-.272-.273a.682.682,0,0,1,.435-.135.749.749,0,0,1,.49.19,1.022,1.022,0,0,0-.951-.707,1.1,1.1,0,0,0-1.007,1.088,1.045,1.045,0,0,0,1.169,1.062h.272v.027a.624.624,0,0,0,.328.49c.272-.381.869-.326,1.278-.326a1.207,1.207,0,0,0,.816-.3l.544.054.246-.028a1.95,1.95,0,0,1-.3-.407l.082-.109a2.669,2.669,0,0,1,.381.435.129.129,0,0,0,.135-.137.279.279,0,0,0-.135-.218,1.3,1.3,0,0,1,.706-.163l.409.054-.409.163a.958.958,0,0,0-.244.626v.218a1.831,1.831,0,0,1,.244-.381,1.1,1.1,0,0,1,.409-.082l.925.082.557-.069.557-.149a.842.842,0,0,0,.463.109,1.76,1.76,0,0,0,.518-.109h-.028c-.163,0-.407-.109-.407-.272a.182.182,0,0,1,.109-.163l.3.027a1.27,1.27,0,0,0,.571-.135l-.081.788a2.224,2.224,0,0,1,1.632-.679,1.256,1.256,0,0,1,.572.109c.244.762,1.06.679,1.278,1.088.137-.246.516-.326.762-.49a1.061,1.061,0,0,0,.49-.6,1.543,1.543,0,0,1,.6-.109,2.116,2.116,0,0,1,1.6.679,3.98,3.98,0,0,0-.054-.788,1.354,1.354,0,0,0,.545.135,2.114,2.114,0,0,0,.571-.109.479.479,0,0,1,.109.326.389.389,0,0,1-.462.409l.353.027c.326,0,.816-.054.79-.49.326,0,.76.109.76.49a1.144,1.144,0,0,1-.109.409.939.939,0,0,0,.491-.925l.244-.028a2.143,2.143,0,0,0,1.006.272c.3,0,.817-.109.9-.462l.272-.054h.054a.3.3,0,0,1,.354.353.5.5,0,0,0,.135-.326.387.387,0,0,0-.244-.353,2.747,2.747,0,0,1,1.06-.218c.19,0,.435.028.435.272,0,.272-.49.244-.681.218a1,1,0,0,0,1.062.381l.054.19c0,.246-.435.3-.626.326a1.86,1.86,0,0,0,.545.054c.271,0,.871-.081.951-.435a1.5,1.5,0,0,0,1.279.653.909.909,0,0,0,.843-.353.954.954,0,0,0,.544.135c.326,0,1.415-.19,1.606-.49l.76.028a4.514,4.514,0,0,1,1.143.244,5.8,5.8,0,0,0,1.906.49,1.433,1.433,0,0,0,1.032-.381,15.953,15.953,0,0,0,2.232.381c.734,0,1.659-.326,1.659-1.224,0-.626-.462-.9-1.034-.979a.613.613,0,0,1,.409.572,1.95,1.95,0,0,0-.572-.054H88.9c.3.081.625.271.625.625,0,.462-.353.653-.76.653l-.518-.028c.272,0,.871-.054.871-.435a.69.69,0,0,0-.163-.381l.028-.109a.533.533,0,0,0-.272-.353l-.054.028-.082-.191a2.7,2.7,0,0,0-.354-.762c-.244-.409-.76-.9-.76-1.36a7.666,7.666,0,0,1,.625-1.632l.163-.653a4.1,4.1,0,0,0,.082-.788l-.028-.3V7.7a3.065,3.065,0,0,1-1.8-.953l-.082-.6c.381.381,1.09,1.251,1.66,1.251h.081A5.866,5.866,0,0,1,86.4,6.1c-.054-.6-.19-1.2-.272-1.823A5.327,5.327,0,0,1,88.114,6.1a5.981,5.981,0,0,1,.953,3.345v.381c0,.463.381.707.381,1.088,0,.109-.054.135-.137.135-.163-.516-.38-.488-.407-1.169l-.027.19c0,.572.353.844.353,1.088,0,.082-.028.109-.109.109-.218-.49-.462-.49-.462-1.143,0-.381.081-.76.081-1.141a2.516,2.516,0,0,0-.23-1.1l-.206-.289.17.3a2.547,2.547,0,0,1,.184,1c0,.409-.109.762-.109,1.169,0,.762.571,1.116.571,1.606a.829.829,0,0,1-.135.354l.081.027a1.36,1.36,0,0,0,.6-1.007c0-.434-.3-.571-.463-.925a2.778,2.778,0,0,1-.027-.951,3.138,3.138,0,0,0-.082-.707,6,6,0,0,0-1.143-2.829A8.787,8.787,0,0,0,82.51,2.966,15.751,15.751,0,0,0,80.253,2.8a1.828,1.828,0,0,0-.762-.272,1.42,1.42,0,0,0-1.225-.79,1.347,1.347,0,0,0-.571.137,1.851,1.851,0,0,0-.871-.191A1.545,1.545,0,0,0,75.6,2.5c-.407.6-.924.816-1.224,1.522a3.714,3.714,0,0,0-.191.926c-.135.109-.462.407-.462.6,0,.137.191.137.272.163a3.066,3.066,0,0,0-.3.926c-.218,0-.463-.163-.681-.163-.082,0-.163.027-.163.135,0,.218.463.462.626.516a4.771,4.771,0,0,0-.328,1.5c0,.871.273,1.741,1.225,1.959l.272.028a1.484,1.484,0,0,0,1.2-.681c.246-.137.816-.246.816-.6,0-.218-.3-.19-.435-.19h-.135c-.028-.137-.165-.572-.328-.572-.244,0-.272.435-.272.6a1.3,1.3,0,0,1-.706.381c-.273,0-.328-.218-.328-.435a2.527,2.527,0,0,1,.979-1.687l-.053.326.053.137c.109,0,.6-.681,1.09-.681.3,0,.571.082.871.082a1.843,1.843,0,0,0,.653-.109v.081a.307.307,0,0,0,.081.218.409.409,0,0,0-.109.246c0,.054.054.109.109.163l-.054.162a.216.216,0,0,0,.081.191.632.632,0,0,0-.081.3.284.284,0,0,0,.19.272c-.271.979-2.257.979-2.5,2.476l-.027-.082c-.137.028-.272.109-.272.272l.054.191c-.163.054-.407.19-.407.409,0,.325.652.543.9.625l-.218-.028a2.164,2.164,0,0,0-1.415.518l-.137.109v-.027a.386.386,0,0,0-.271-.382,1.994,1.994,0,0,0,.19-.788l-.028-.191a1.188,1.188,0,0,1-.488.409,2.365,2.365,0,0,0-.545-.816l.028.326a1.669,1.669,0,0,1-.516,1.306,2.139,2.139,0,0,1-.49.381V13.44a1.532,1.532,0,0,0-.273-.817c-.135.49-.435.979-1.006.979a.987.987,0,0,1-.49-.109V13.44a1.6,1.6,0,0,0-.137-.626,1.26,1.26,0,0,1,.735-.3.541.541,0,0,1,.3.054l.027-.19a1.006,1.006,0,0,0-.462-.79,2.435,2.435,0,0,1,1.306-.3l.679.027a1.868,1.868,0,0,0-1.36-.49,2.684,2.684,0,0,0-.653.082l.435-.571c.109-.028.109-.082.19-.165a2.322,2.322,0,0,1,.844-.462h.218a1.5,1.5,0,0,0-.6-.163l-.381.054a1.621,1.621,0,0,1,.871-.707.989.989,0,0,0-.407-.082,1.078,1.078,0,0,0-.653.191,4.3,4.3,0,0,1,1.143-1.8h-.137a1.687,1.687,0,0,0-1.115.681,14.919,14.919,0,0,1,1.332-2.313,3.608,3.608,0,0,0-2.068,2.2,10.937,10.937,0,0,1,1.987-3.4,4.088,4.088,0,0,0-2.232,1.987V4.925l.272.054a.594.594,0,0,0,.6-.625.823.823,0,0,0-.272-.6c-.3-.326-.6-.709-.925-1.007a.571.571,0,0,0-.3-.109.747.747,0,0,0-.49.272,3.465,3.465,0,0,1-.979.544l-.409.109A2.707,2.707,0,0,0,66.27,2.259a2.381,2.381,0,0,0-.762-.135,2.6,2.6,0,0,0-2.231,1.36l-.082-.028a3.152,3.152,0,0,1-.979-.544.742.742,0,0,0-.516-.272.487.487,0,0,0-.244.109c-.354.3-.626.681-.953,1.007a.823.823,0,0,0-.272.6.593.593,0,0,0,.6.625l.245-.054V6.367a3.912,3.912,0,0,0-2.231-1.987,10.039,10.039,0,0,1,2.012,3.4,3.756,3.756,0,0,0-2.066-2.2,13,13,0,0,1,1.306,2.313A1.405,1.405,0,0,0,58.87,7.21a4.065,4.065,0,0,1,1.143,1.8,1.081,1.081,0,0,0-.653-.191.989.989,0,0,0-.407.082,1.912,1.912,0,0,1,.9.707l-.409-.054a1.5,1.5,0,0,0-.6.163,1.58,1.58,0,0,1,1.06.462.291.291,0,0,0,.191.165l.434.571a2.724,2.724,0,0,0-.679-.082,1.976,1.976,0,0,0-1.387.49l.625-.054a2.819,2.819,0,0,1,1.334.3,1.365,1.365,0,0,0-.653,1.006.535.535,0,0,1,.3-.054,1.252,1.252,0,0,1,.734.3l-.135.6a1.661,1.661,0,0,1-.653.163c-.435,0-1.115-.218-1.115-.762a1.017,1.017,0,0,1,.434-.788L59.061,12a.708.708,0,0,0-.707.734l-.219.3-.054.246.028.19a1.132,1.132,0,0,0-.516-.135,3.065,3.065,0,0,0-.709.162.836.836,0,0,0-.353-.216.533.533,0,0,0,.109-.328c0-.244-.272-.272-.462-.244l-.409-.844a.257.257,0,0,0,.054-.19c0-.3-.218-.435-.3-.681l.3.028c.625,0,1.143-.435,1.8-.435v.082l-.272.244H57.32a.348.348,0,0,0-.272.3l.054.082c-.109,0-.273.054-.273.163,0,.081.109.109.137.19a.679.679,0,0,0-.354.6,1.113,1.113,0,0,0,.109.518,1.288,1.288,0,0,0,.572-.435,3.414,3.414,0,0,1-.135.49.955.955,0,0,0,.625-.762.219.219,0,0,0,.135-.137h.137l.081-.027a.3.3,0,0,0,.273-.3.379.379,0,0,0-.191-.326v-.027c0-.272.544-.625.544-1.116,0-.353-.353-.407-.626-.462A7.348,7.348,0,0,1,57.1,9.495l.109-.135a.605.605,0,0,0,.353-.518,1.038,1.038,0,0,0-.163-.49.514.514,0,0,0,.082-.218.517.517,0,0,0-.137-.272A.5.5,0,0,0,57.1,7.4a1.268,1.268,0,0,0,.163-.626,1.535,1.535,0,0,0-.654-1.2l.326-.353c.165-.028.79.027.79-.3l-.081-.272c.216-.027.216-.135.216-.326l.054-.081-.027-.109V4.109c0-.163.218-.137.218-.272a2.845,2.845,0,0,0-.354-.6,1.635,1.635,0,0,1-.027-.626.606.606,0,0,0-.163-.462V2.041a.279.279,0,0,0-.135-.218c0-.326-.054-.679-.463-.734l.028.109-.082.38a1.89,1.89,0,0,0-.653-.135,1.92,1.92,0,0,0-.681.135l-.027-.163a.537.537,0,0,1,.054-.3.916.916,0,0,0-.572.816,1.66,1.66,0,0,0-.6,1.551c-.028-.054-.137-.082-.191-.082a.614.614,0,0,0-.381.163l.054.109a.492.492,0,0,0-.435.246.51.51,0,0,0,.326.218l-.109.244.435.109L54,4.735h-.027a5.42,5.42,0,0,0-2.122-1.088,10.437,10.437,0,0,1-1.823-.926L48.315,1.687a.792.792,0,0,0-.3.545c0,.353.407.6.706.652l-.081.354c0,.381.354.544.653.6v.082c0,.381.353.49.679.462a.261.261,0,0,0,.054.191.6.6,0,0,0,.572.19c0,.137.028.246.137.3l-.709-.3c-1.578-.681-3.209-1.306-4.787-2.041a.85.85,0,0,0-.163.435c0,.463.652.572.978.626l-.027.326a.886.886,0,0,0,.951.953.722.722,0,0,0-.081.325c0,.348.291.526.585.593l.285.033M40.018,10.72h-.246c-.6,2.284-1.469,3.372-3.728,3.372-2.394,0-2.856-.353-2.856-3.019V7.754h1.225c1.631,0,2.666.353,2.8,2.312h.218l-.054-2.638.054-2.366h-.218c-.135,1.768-1.441,2.231-2.884,2.231H33.189V1.334h.871c1.442,0,3.537.054,4.435,1.55a5.932,5.932,0,0,1,.6,1.851h.219c-.056-.816-.056-1.579-.056-2.394L39.311.709a57.279,57.279,0,0,1-6.829.218L28.7.872v.244c1.5.082,2.012.272,2.012,1.985v9.249c0,1.687-.543,1.878-2.012,1.987v.218c1.415-.054,2.856-.054,4.27-.054a61.177,61.177,0,0,1,6.692.218l.146-2,.208-2M27.45,14.555v-.218c-1.469-.109-2.041-.3-2.041-1.987V3.1c0-1.687.544-1.9,2.041-1.985V.872L24.157.926,20.921.872v.244c1.522.082,2.012.272,2.012,1.985V7.21L19.4,7.238H16.758V3.1c0-1.687.544-1.9,2.04-1.985V.872L15.534.926,12.3.872v.244c1.5.082,2.013.272,2.013,1.985v9.249c0,1.687-.544,1.878-2.013,1.987v.218l3.238-.054,3.263.054v-.218c-1.469-.109-2.04-.3-2.04-1.987V7.645l2.992-.027,3.182.027v4.706c0,1.687-.49,1.878-2.012,1.987v.218l3.237-.054,3.292.054M11.561,5.033l-.027-2.72L11.561.735A19.353,19.353,0,0,1,9.413.872L6.829.9H4.76L2.122.872A18.258,18.258,0,0,1,0,.735L.028,2.313,0,5.033H.191c.462-2.259.869-3.728,3.863-3.728h.435l.054,3.945v7.1c0,1.5-.544,1.85-2.286,1.987v.218L5.8,14.5l3.509.054v-.218c-1.715-.137-2.312-.49-2.312-1.987v-7.1l.054-3.945h.488c2.72,0,3.4,1.606,3.81,3.728h.216" transform="translate(0 0)" fill="#161615"/>
    </g>
  </g>
</svg>
