<svg xmlns="http://www.w3.org/2000/svg" width="166.72" height="30.39" viewBox="0 0 166.72 30.39">
  <g id="The_Hindu_epaper" data-name="The Hindu epaper" transform="translate(0 0.001)">
    <path id="Path_8146" data-name="Path 8146" d="M166.72,1.16V.906l-2.629.057L161.008.906V1.16c2.29.113,2.857.99,2.857,3.422V9.813c0,3.167-1.047,4.948-4.128,4.948-2.857,0-3.619-1.837-3.619-4.722V3.2c0-1.726.564-1.95,2.093-2.036V.906l-3.338.057L151.48.906V1.16c1.527.086,2.091.283,2.091,2.036V10.86c0,3.618,2.97,4.466,5.712,4.466,3.225,0,5.175-1.584,5.175-5.26V4.582c0-1.757.109-2.973,1.556-3.324Zm-18.579,7.1L148.1,9.507c-.219,2.781-1.254,4.614-3.828,5.084a4.867,4.867,0,0,1-1.159.086c-1.414-.029-1.952-.651-1.952-2.206V1.527a6.313,6.313,0,0,1,1.272-.141c3.686,0,5.482,2.461,5.691,6.123l.021.749m.468,5.341.463-.4a6.874,6.874,0,0,0,1.869-5.226c0-5.148-3.7-7.069-7.974-7.069l-3,.057L136.492.906V1.16c1.556.086,2.094.283,2.094,2.064v9.614c0,1.753-.567,1.952-2.094,2.065v.226l3.451-.057c.79,0,1.583.057,2.374.084A11.375,11.375,0,0,0,144.3,15.1a8.989,8.989,0,0,0,3.8-1.153l.508-.348M135.758,1.16V.906L133.41.963,130.469.906V1.16c2.319.086,2.658,1.527,2.658,3.762v7.464L123.542.934h-3.7v.255a3.678,3.678,0,0,1,1.244.2c1.188.48,1.3,2.149,1.3,3.337v6.391c0,1.837,0,3.647-2.064,3.789v.226c.79-.029,1.611-.086,2.4-.086.961,0,1.9.057,2.828.086V14.9c-2.206-.142-2.6-1.64-2.6-3.789V4.157L132.222,15.3h1.47V4.922c0-1.644.05-3.413,1.71-3.72l.354-.041M119.045,15.129V14.9c-1.527-.113-2.121-.312-2.121-2.065V3.224c0-1.753.567-1.978,2.121-2.064V.906L115.68.963,112.288.906V1.16c1.555.086,2.092.283,2.092,2.064v9.614c0,1.753-.567,1.952-2.092,2.065v.226l3.392-.057,3.366.057m-8.031,0V14.9c-1.5-.113-2.12-.312-2.12-2.065V3.224c0-1.753.593-1.978,2.12-2.064V.906l-3.421.057L104.256.906V1.16c1.556.086,2.065.283,2.065,2.064V7.494l-3.648.029H99.93v-4.3c0-1.753.538-1.978,2.092-2.064V.906L98.657.963,95.265.906V1.16c1.555.086,2.091.283,2.091,2.064v9.614c0,1.753-.566,1.952-2.091,2.065v.226l3.392-.057,3.366.057V14.9c-1.527-.113-2.092-.312-2.092-2.065V7.947l3.11-.028,3.28.028v4.891c0,1.753-.509,1.952-2.065,2.065v.226l3.338-.057,3.421.057m-19-.651.17-.05.17-.091.113.452c-.084,0-.113.057-.2.084l-.086-.229-.17-.167m-.339.481h-.255c.029-.226.113-.4.341-.4.2,0,.31.2.339.367l-.425.029m-.452-6.9h.028v.029m-.057.281-.084-.055c0-.057.028-.113.084-.113a.075.075,0,0,1,.086.084l-.022.063-.063.021m.029-.2-.113.057-.057-.141A.09.09,0,0,0,91.136,8h.029V8.06l.057.113m-.283-.141L90.911,8l.028-.057L90.995,8m-.113.255L90.769,8.2c0-.057.057-.086.113-.086.029,0,.057.029.057.086l-.057.057m.029-.368-.029.086.029.084a.2.2,0,0,0-.142.086V8.116l-.057-.141h.029l.113-.086h.057m-.226,6.956.106-.248a.266.266,0,0,1,.233-.12c.2,0,.225.312.225.425v.028l-.564-.084M90.655,7.89l-.028-.028.028-.029.029.029M90.6,7.72v.113l.029.113L90.6,7.919l-.141.057.028-.057-.057-.086.106-.036m.043.316-.063.032-.086-.086L90.458,8h.057c.057,0,.084.029.084.057l-.021.054M90.4,7.72l-.029-.028.029-.029.028.029M90.3,7.636l.015.084-.086.029a.174.174,0,0,0,0-.17l.086-.029h.057l-.072.086m-.1,7.323.057-.057.283.057M90.2,7.806l.057-.029.057.086-.057.084a.091.091,0,0,1-.086-.084V7.833l.029-.028m0-.368-.029.057-.028-.057.028-.029m.517,6.689.586.07a1.768,1.768,0,0,0,.9-.2l.17.168a1.452,1.452,0,0,1-.792.255c-.283,0-1.357-.113-1.443-.423l.029-.029.545.156m-.545.607-.057-.028c0-.113.057-.368.226-.368s.226.17.226.312l-.028.17-.17-.029c.028-.084.084-.141.084-.226l-.131.1-.152.073m-.086.425.086-.086a16.935,16.935,0,0,0,2.065.226.913.913,0,0,0,1.018-.848.6.6,0,0,0-.228-.48.781.781,0,0,1,.454.113.319.319,0,0,0,.084-.226.631.631,0,0,0-.17-.4.981.981,0,0,1,.538.848c0,.848-.906,1.131-1.556,1.131a10.867,10.867,0,0,1-1.385-.2l-.443-.052-.463-.032m-.113-7.578H90c.057,0,.086,0,.086.057A.076.076,0,0,1,90,7.693l-.057-.029V7.551L89.92,7.1l.2.254-.028.142-.061.007m-.279,7.373.2-.254-.028.057.057.113m-.31-7.1.062.13.022.153c0,.057-.029.31-.084.31s-.057-.254-.057-.31l.007-.153.05-.13M89.66,9.976l.007.177-.057.283c-.057,0-.057-.255-.057-.312,0-.028,0-.283.057-.283l.05.135m.007-4.008,0,.079-.025.034c-.057.029-.113-.368-.113-.452l.029-.113c.028-.014.057.086.077.194l.036.258m0,2.968.087.036.025.077a.134.134,0,0,1-.141.142.156.156,0,0,1-.113-.142l.05-.077.092-.036m.046-2.179.039.088a.128.128,0,0,1-.141.112.12.12,0,0,1-.113-.112.1.1,0,0,1,.113-.113l.1.025m-.068,4.057.05.1a.151.151,0,0,1-.141.141c-.113,0-.17-.057-.17-.141s.057-.142.17-.142l.091.039m.022-3.375-.132-.12a.7.7,0,0,1-.179-.446.8.8,0,0,1,.2-.48.605.605,0,0,0-.113.423l.059.343.167.279m-.029,1.1-.152.259-.046.279a.8.8,0,0,0,.113.509.839.839,0,0,1-.226-.509l.081-.29.229-.248m-.452,2.121.061-.081.081-.061-.086.171m.029-5.938.1.025.039.088a.129.129,0,0,1-.141.113.122.122,0,0,1-.113-.113l.036-.088.077-.025m0,.622-.233-.255a.625.625,0,0,1-.106-.339.832.832,0,0,1,.2-.452.948.948,0,0,0-.084.425l.059.331.167.291M89.214,7.89,89.14,8.2l-.181.251A.774.774,0,0,0,89.1,7.89a1.055,1.055,0,0,0-.2-.566.721.721,0,0,1,.291.4l.021.164m-.086,6.164-.014-.177-.1-.135H88.9a1.623,1.623,0,0,1,.622-.932,1.664,1.664,0,0,1,.706.99h-.17l-.244-.354-.349-.269a1.93,1.93,0,0,1,.142.68,1.046,1.046,0,0,1-.17.593l-.124-.219-.188-.177m-.212-3.382.128-.04a.142.142,0,0,1,0,.284c-.113,0-.171-.057-.171-.142l.043-.1M88.9,8.851l-.057.226-.029-.2a.268.268,0,0,1,.057-.2l.029.17m.106-3.11.068.148.025.164a.839.839,0,0,1-.228.509,1.1,1.1,0,0,0,.114-.509.744.744,0,0,0-.2-.538l.219.226M88.9,7.777l.092.046.05.068a.183.183,0,0,1-.142.17c-.086,0-.113-.084-.113-.17l.036-.079.077-.034m-.113,2.658.127-.247.043-.291a.894.894,0,0,0-.142-.537.8.8,0,0,1,.255.509.653.653,0,0,1-.088.314l-.194.251M88.9,7.069l-.022.167-.063.145-.057-.312.057-.338c.043,0,.063.077.074.159l.011.179m-.226,3.762.283-.439a1.008,1.008,0,0,0,.2-.439c0-.31-.226-.593-.226-.932,0-.452.48-.679.48-1.075,0-.367-.4-.595-.4-.99,0-.367.283-.621.283-.989,0-.48-.622-.537-.622-1.215,0-.255.2-.452.141-.708l.057.226-.084.481.028.208c.126.435.623.537.623,1.007,0,.368-.283.651-.283.989s.4.595.4.99c0,.423-.452.679-.452,1.1,0,.312.2.595.2.9a.731.731,0,0,1-.226.481l-.4.4m-.029-5.175V5.515a.379.379,0,0,1,.057-.254l.029.141-.086.254m.142.255.092.054.05.116a.2.2,0,0,1-.142.113.151.151,0,0,1-.142-.141l.05-.092.092-.05m.2,8.284-.061.273-.167.208h-.113l-.141-.481m.2-10.038-.046.088-.068.025c-.084,0-.141-.029-.141-.113a.129.129,0,0,1,.141-.113l.068.036.046.077m.057,6.475-.068.117-.13.054a.164.164,0,0,1-.17-.171c0-.113.057-.2.17-.2l.13.057.068.141m1.1.622.091-1.088L90,9.078l-.028-1.244a.134.134,0,0,0,.17.029l-.029.057a.189.189,0,0,0,.17.2l.142-.028-.028.028a.212.212,0,0,0,.2.2.158.158,0,0,0,.142-.086s.084.2.2.2l.142-.057a.181.181,0,0,0,.168.17c.142,0,.2-.084.2-.17s-.029-.168-.113-.168c.057-.029.113-.113.084-.142h.368l-.057.48v.029a1.368,1.368,0,0,1-.622.339,1.444,1.444,0,0,0,.593-.17l-.057.17a.958.958,0,0,1-.509.31.941.941,0,0,0,.452-.141l-.028.141a1.186,1.186,0,0,1-.509.312,1.189,1.189,0,0,0,.452-.113l-.057.17a2.622,2.622,0,0,1-.537.31,1.356,1.356,0,0,0,.48-.141l-.057.141-.452.255.367-.086-.168.4a4.481,4.481,0,0,1-.509.284l.423-.114a1.943,1.943,0,0,0-.254.708l.057.339a.924.924,0,0,1-.368.367,1.486,1.486,0,0,0,.425-.226,3.007,3.007,0,0,0,.338.481,1.261,1.261,0,0,1-.395.283.717.717,0,0,0,.451-.2l.113.114a.719.719,0,0,1-.338.31.538.538,0,0,0,.394-.2l.113.113a.594.594,0,0,1-.367.283h.028a.557.557,0,0,0,.4-.17l.057.057a.664.664,0,0,1-.367.312.94.94,0,0,0,.452-.2l.17.312s-.17.283-.339.31a.713.713,0,0,0,.425-.17l.028.029c-.113.141-.226.283-.368.312a.788.788,0,0,0,.425-.171l.057.171a1.417,1.417,0,0,1-.848.225A2.22,2.22,0,0,1,90.26,13.8a.585.585,0,0,0-.086-.368h.142l.339-.029a.684.684,0,0,1-.708-.4l.226.029.255-.029a1.081,1.081,0,0,1-.763-.254l.254.028.283-.028a1.242,1.242,0,0,1-.9-.368,1.257,1.257,0,0,0,.452.086l.283-.028H89.92c-.932,0-1.357-.906-1.64-1.669l.8.2.781.283M88.054,8.06l-.084-.028.113-.057.057.057M88,9.184l-.063-.05c0-.113.17-.142.226-.142.086,0,.2.029.2.086,0,.113-.2.113-.254.113L88,9.184m.079-.672L88,8.54a.127.127,0,0,1-.084-.113l.028-.028.081.036.061.077m.057.084.1.011.063.074c0,.084-.168.141-.225.141s-.17-.028-.17-.113c0-.041.043-.07.092-.088L88.14,8.6m.057.793.1.023.063.09c0,.084-.2.113-.254.113V9.7c0,.029,0,.2-.113.2-.057,0-.084-.168-.084-.2,0-.149.047-.25.154-.29l.128-.021m-.339-2.348.028-.07a.345.345,0,0,1,.226-.07c.057,0,.17,0,.17.084s-.17.141-.254.141l-.106-.021-.063-.063m.2,3.28.131.043.068.127c0,.084-.113.17-.2.17a.189.189,0,0,1-.2-.17l.057-.127.141-.043m-.226,4.439.792.029a.673.673,0,0,1-.339.084l-.226-.034-.226-.079m.226-8.256.12.021.079.063c0,.113-.2.142-.255.142s-.2-.029-.2-.113c0-.043.043-.072.1-.088l.159-.025m-.226,1.131H87.8c0-.086.057-.086.113-.113l-.057-.057c0-.086.2-.142.254-.142s.17.028.17.084c0,.142-.254.142-.339.142l-.025.063-.088.022m.086,1.243v.029l-.088-.021L87.8,8.822V8.795l.077.021M87.8,14.591l.12-.233a.346.346,0,0,1,.247-.106c.226,0,.283.2.283.368v.028l-.65-.057m.034-8.305-.063-.063c0-.086.2-.142.255-.142s.17.029.17.113-.2.113-.255.113l-.106-.021M87.941,4.1l-.081.077-.145.036c-.057,0-.17-.029-.17-.113s.2-.113.255-.113l.091.025.05.088m-.481,3.28V7.324c0-.057.029-.113.086-.113l.029.029-.036.091-.079.05m.058,1.753-.029.057-.057-.113.028-.057m.058.339.065.023a.243.243,0,0,1,.048.175c0,.057,0,.225-.113.225-.058,0-.086-.168-.086-.225l.021-.121.065-.077m.084.819.131.054.068.116a.187.187,0,0,1-.2.17.15.15,0,0,1-.17-.17l.043-.116.127-.054m-.025-3.566.054.117a.172.172,0,0,1-.171.2c-.141,0-.226-.057-.226-.2,0-.086.086-.17.226-.17l.117.052m.081-2.993-.084.179a.225.225,0,0,1-.171.074c-.17,0-.283-.084-.283-.254l.057-.17.481.17m-.2,9.773-.393-.217a6.581,6.581,0,0,0,.708-1.668.646.646,0,0,0-.084-.312l.621-.028.226.48-.141.029a.9.9,0,0,1-.423-.17.791.791,0,0,0,.65.254,2.58,2.58,0,0,0,.481.651h-.113a1.679,1.679,0,0,1-.9-.255,1.748,1.748,0,0,0,1.131.368l.2.2-.141.113a1.963,1.963,0,0,1-1.131-.254,2.132,2.132,0,0,0,1.018.4l-.17.2h-.057a2.417,2.417,0,0,1-1.047-.283,2.282,2.282,0,0,0,1.047.425l-.114.17H88.76a1.83,1.83,0,0,1-1.073-.312,1.738,1.738,0,0,0,1.073.452l-.028.113a3.007,3.007,0,0,1-.866-.177l-.41-.172m-.393-6.3.057.084c0,.058-.028.058-.057.086-.028-.028-.057-.028-.057-.086l.057-.084m0,2.233L87.12,9.3c.057,0,.086.17.086.226,0,.029-.029.2-.086.2-.084,0-.113-.17-.113-.2l.025-.135.034-.063m0-.2.029.057-.086.113-.028-.113L87,9.162m-.021,1.9.057-.481,1.217.2.055.368-.675-.022m-.683,3.33.142-.28c.063-.1.141-.172.226-.172.226,0,.312.339.312.509v.057l-.68-.113m.142-4.327.13.047a.189.189,0,0,1,.068.152c0,.084-.113.17-.2.17a.19.19,0,0,1-.2-.17l.057-.152.142-.047M87.036,6.7l-.022.11-.063.088c-.084,0-.112-.17-.112-.2,0-.057.028-.226.112-.226l.063.092.022.134m-.31,6.758v-.028a.294.294,0,0,1,.113-.226,3.572,3.572,0,0,0,2.12.679v.086l-.028.112h-.255a4.014,4.014,0,0,1-1.559-.357l-.392-.265m.338-5.74.167.039a.51.51,0,0,1,.287.443.493.493,0,0,1-.454.48.47.47,0,0,1-.451-.48.49.49,0,0,1,.273-.443l.178-.039m-.434-.484.011.088v.057l-.084-.113V7.211m.028,1.979h-.028V9.134a.127.127,0,0,1,.084-.113l.029.028-.022.092-.063.05m.032.141.054-.028c.084,0,.113.142.113.226,0,.029-.029.17-.113.17s-.113-.141-.113-.17l.025-.135.034-.063m-.088,1.7.063-.255.022-.255.254.029-.057.509m-.1-6.647.076-.1.081-.039c.254,0,.4.848.4,1.047,0,.254-.113.451-.4.451s-.4-.2-.4-.451l.113-.588.126-.32m-.119,7.828-.063.034-.057-.113h.142m.1-2.025.068.131c0,.084-.113.17-.2.17a.163.163,0,0,1-.17-.17.187.187,0,0,1,.17-.2l.131.068m-.183-5.443-.145.739a.477.477,0,0,0,.48.48c.339,0,.452-.226.452-.509,0-.226-.2-1.3-.452-1.3-.063,0-.126.07-.182.179l-.153.411m.138,9.08.081.087a.791.791,0,0,1,.059.366v.2l-.3-.109c-.113-.046-.212-.1-.212-.174s.07-.148.152-.215l.217-.152M86.33,6.589l.141-.057c.113,0,.17.086.17.2s-.057.2-.17.2a.192.192,0,0,1-.2-.2l.057-.142m.109,1.637.1.034.044.054c0,.055-.17.2-.226.225l.255-.057.057.057-.086.255a.5.5,0,0,1,.226-.142c.084,0,.084.255.057.312.028-.029.141-.255.2-.255s.142.2.17.226V8.879s0-.226.057-.226a.67.67,0,0,1,.255.17L87.46,8.54c0-.028,0-.057.058-.057l.254.057c-.057-.028-.226-.141-.226-.225s.255-.113.283-.113c-.028,0-.283-.029-.283-.113s.17-.2.226-.226l-.254.028-.058-.028a.543.543,0,0,1,.086-.283.379.379,0,0,1-.255.17c-.084,0-.057-.255-.057-.312-.028.057-.113.255-.17.255-.084,0-.141-.2-.17-.255v.113c0,.086,0,.2-.084.2s-.17-.086-.226-.142a.38.38,0,0,1,.086.226c0,.057-.029.057-.086.057l-.254-.028c.057.028.254.141.254.226s-.283.113-.31.113l.166.025m-.222-.7h.028c.057-.029.086.028.086.084H86.3l-.084-.084m.073,1.321-.073.034h-.029l-.028-.028c0-.057.084-.086.141-.086l-.011.079m.047.593.021.121c0,.057-.028.2-.084.2-.113,0-.113-.141-.113-.2s0-.2.113-.2l.063.077m-.177,2.326v-.028H86.3l-.141-.057V11.65l.17.029-.142-.086.029-.028h.113l-.113-.057.028-.029.142.029h.057c-.057,0-.142-.029-.142-.086V11.4l.2.028-.142-.084.17-.029c.283,0,.367.226.423.452a1.11,1.11,0,0,1-.395.142l-.208-.05-.188-.092M86.1,8.2l.172-.092.194-.05c-.057-.057-.31-.17-.31-.254,0-.057.057-.057.084-.057l.368.084a.634.634,0,0,1-.17-.339l.028-.028V7.438c.086,0,.255.142.339.226l-.028-.226.028-.17c.141,0,.226.255.254.312.029-.029.142-.339.226-.339.057,0,.029.339.029.423.084-.084.2-.226.312-.226l.028.086a.693.693,0,0,1-.113.31.548.548,0,0,1,.283-.084c.086,0,.113,0,.113.057a.377.377,0,0,1,.226-.086c.057,0,.17,0,.17.113,0,.057-.2.113-.226.113-.057,0-.2-.028-.2-.084a.518.518,0,0,1-.283.2A.7.7,0,0,1,88,8.145l.2-.057c.057,0,.168.028.168.113s-.2.113-.254.113-.141,0-.17-.057a.81.81,0,0,1-.283.084c.057.028.283.17.283.254,0,0,0,.057-.113.057a.641.641,0,0,1-.31-.084.648.648,0,0,1,.17.339l-.057.057c-.113,0-.255-.142-.312-.226v.2c0,.029,0,.2-.029.2-.113,0-.2-.255-.226-.312-.028.057-.113.312-.225.312-.086,0-.029-.312-.029-.368a.6.6,0,0,1-.339.2l-.028-.057c0-.086.113-.226.17-.339l-.368.084-.057-.028H86.16c0-.086.254-.255.31-.283l-.2-.05L86.1,8.2m-.029,3.647.029-.029a.686.686,0,0,0,.9,0h.029v.029c0,.141-.4.254-.48.254a.8.8,0,0,1-.452-.17l.113.029-.142-.113M86.3,3.28l.181.074.074.181a.254.254,0,0,1-.255.255.279.279,0,0,1-.283-.255.243.243,0,0,1,.088-.181L86.3,3.28m-.109,6.868.052.117c0,.084-.084.2-.17.2a.24.24,0,0,1-.2-.2c0-.086.113-.17.2-.17l.117.052m0-1.778-.023.066a.25.25,0,0,1-.175.047c-.057,0-.226-.028-.226-.113s.142-.112.2-.112l.134.034.092.077M86.16,6.731l-.074.05-.1.007a.306.306,0,0,1-.226-.057l-.028-.057.028-.057.142-.057a.334.334,0,0,1,.228.1l.028.074m0,.819-.074.063-.1.022a.323.323,0,0,1-.226-.086v.142l-.028-.2.028-.028c.029-.058.113-.058.17-.058a.307.307,0,0,1,.2.073l.028.069m0,1.272-.074.065-.1.021-.226-.057-.028-.057.028-.057.142-.029a.374.374,0,0,1,.228.048l.028.065m-.4-1.753.07-.05.072-.007c.084,0,.255.029.255.113s-.171.086-.2.086l-.2-.029L85.706,7.1l.057-.029m0-1.639.135-.079.177-.034a.592.592,0,0,1,.283.113v-.17l-.17-.057-.226.057c-.113,0-.2-.057-.2-.17a.223.223,0,0,1,.226-.226.469.469,0,0,1,.425.226l.029-.2c-.113-.283-.454-.028-.454-.31,0-.057.085-.113.171-.113a.375.375,0,0,1,.31.226l.057-.113c-.057-.255-.339-.057-.339-.312a.122.122,0,0,1,.113-.113c.142,0,.226.113.312.226l.028-.113c-.057-.17-.226-.113-.226-.254l.057-.086c.142,0,.2.142.255.226.028-.057.057-.057.084-.057l-.028-.226c0-.057.028-.113.084-.113s.084.029.084.113l-.057.2c.057.028.086.028.113.084.029-.084.113-.226.2-.226l.057.029.028.084c0,.084-.17.057-.2.226l.028.142a.328.328,0,0,1,.283-.255c.057,0,.114.084.114.142,0,.141-.255.057-.341.254l.057.142c.086-.113.226-.255.368-.255a.183.183,0,0,1,.142.142c0,.2-.368.057-.454.283l.029.17a.489.489,0,0,1,.339-.17.256.256,0,0,1,.283.226.159.159,0,0,1-.141.17L87.46,5.2l-.113.028.029.2a.6.6,0,0,1,.283-.113.339.339,0,0,1,.339.31c0,.113-.057.17-.141.17-.142,0-.226-.17-.4-.17h-.141l-.029.113c.17,0,.425.113.425.254,0,.114-.2.284-.312.284s-.141-.284-.31-.368l-.142.057a.269.269,0,0,1,.142.226.253.253,0,0,1-.254.255.231.231,0,0,1-.226-.255.236.236,0,0,1,.17-.255l-.142-.028c-.226.057-.2.368-.339.368-.113,0-.312-.17-.312-.255,0-.17.312-.283.454-.283l-.057-.113h-.113c-.228,0-.255.17-.425.17l-.086-.057a.157.157,0,0,1-.084-.142l.084-.168m0,3.675h.086c.084,0,.255,0,.255.113,0,.058-.114.114-.171.114l-.17-.057a.128.128,0,0,1-.113-.086l.113-.086m0-2.939L85.9,6.2c.05.025.092.059.092.1,0,.086-.17.086-.226.086-.084,0-.2-.029-.2-.142l.077-.063.12-.021m0-1.669.077.032.036.054c0,.057-.084.084-.113.113h-.084c-.057,0-.226-.029-.226-.113s.057-.1.124-.106l.186.021m0-.423L85.8,4.1l.018.052-.057.113H85.65c-.057,0-.225-.029-.225-.142,0-.055.112-.084.168-.084l.17.029m0-.4.057.084-.057.029-.141.028c-.086,0-.254-.028-.254-.113s.112-.084.168-.084l.113.007.113.05m-.028,6.588-.057.131-.142.066c-.084,0-.168-.113-.168-.2a.181.181,0,0,1,.168-.17l.142.052.057.117m0-6.956-.063.088-.106.025c-.086,0-.254-.029-.254-.142,0-.057.141-.084.168-.084a.414.414,0,0,1,.228.059l.028.054m-.48,5.853-.007.167-.05.145c-.029,0-.029-.283-.029-.312s0-.31.029-.31l.05.145.007.166M85.3,8.109l.039.092a.133.133,0,0,1-.141.141.129.129,0,0,1-.113-.141c0-.057.057-.142.113-.142l.1.05m.462.036.057.028h-.057c-.084.029-.141.057-.141.142a.288.288,0,0,0,.141.225l.057.029h-.057c-.084.028-.17.084-.17.141a.328.328,0,0,0,.17.255l.029.028h-.029c-.084.029-.226.029-.226.17,0,.086.113.171.17.2-.084.057-.2.113-.2.2a.172.172,0,0,0,.084.17.444.444,0,0,1,.17-.226l.113-.029.113.057c0,.113-.17.226-.226.283v.057l.086.028c.141,0,.17-.113.2-.2a.277.277,0,0,0,.228.2c.113,0,.17-.084.2-.2,0,.113.086.226.17.226.142,0,.2-.113.226-.226.057.084.113.226.254.226.086,0,.17-.142.17-.226a.333.333,0,0,0,.284.254.293.293,0,0,0,.2-.141c.029.084.086.254.2.254a.21.21,0,0,0,.2-.17c.029.086.086.17.17.17a.187.187,0,0,0,.17-.2c0-.141-.17-.17-.283-.141.057-.113.31-.113.31-.255,0-.2-.17-.17-.31-.17.084-.113.31-.113.31-.283,0-.142-.254-.142-.338-.142.084,0,.31-.141.31-.254,0-.086-.226-.17-.31-.17.084-.057.31-.141.31-.254,0-.142-.086-.17-.2-.17a.274.274,0,0,0,.2-.255c0-.113-.142-.17-.226-.17.057-.057.2-.141.2-.255s-.113-.141-.2-.141a.36.36,0,0,0,.2-.283c0-.084-.2-.141-.254-.17.084-.028.226-.113.226-.226s-.17-.17-.226-.17c.057-.057.226-.141.226-.283,0-.086-.17-.142-.226-.142a.325.325,0,0,0,.17-.254c0-.113-.2-.17-.283-.17a.374.374,0,0,0,.17-.254c0-.113-.17-.142-.226-.17a.275.275,0,0,0,.2-.226c0-.142-.2-.17-.312-.17.086-.057.2-.142.2-.255,0-.084-.2-.141-.283-.17.084-.029.226-.17.226-.254s-.113-.142-.17-.142L88,3.734l.226.057a29.173,29.173,0,0,1,.452,4.382c0,.706,0,1.47-.057,2.177A9.039,9.039,0,0,0,86.3,10.01h-.538l-.451.057a11.677,11.677,0,0,0,.168-1.978v-.2A28.043,28.043,0,0,0,85,3.054l.4.029-.159.066-.068.057-.028.074c0,.171.141.2.254.228-.084.028-.226.113-.226.2,0,.113.2.226.31.226-.084.029-.254.113-.254.2,0,.142.2.2.283.228-.057.028-.2.084-.2.17s.168.226.254.226a.312.312,0,0,0-.2.226c0,.113.168.17.254.2-.086.029-.254.086-.254.226,0,.086.168.17.281.2-.084.029-.225.113-.225.2,0,.113.168.226.225.255-.057.028-.17.113-.17.2s.17.17.226.2c-.057.057-.226.141-.226.226s.17.2.255.226c-.086,0-.2.084-.2.168,0,.113.113.2.226.226l.029.029h-.029c-.113.028-.2.057-.2.17l.057.145.141.081h.029l-.029.029c-.084,0-.2.084-.2.141l.068.138.13.117-.028-.226.028-.029.17-.028c.057,0,.228.028.228.113s-.142.084-.171.084a.236.236,0,0,1-.226-.084v.17M85,14.7l.011-.088L85,14.507a3.451,3.451,0,0,1,.763-.029l.934.142.706.17a2.748,2.748,0,0,0,.821.226h.057a.725.725,0,0,0,.821-.792.872.872,0,0,1,.17.4l-.029.283a1.486,1.486,0,0,0,.537-1.273A.9.9,0,0,1,90,14.2a1.089,1.089,0,0,1-.367.735l.423-.084.029.028-.25.24a1.492,1.492,0,0,1-.938.3,6.231,6.231,0,0,1-1.726-.452,5.994,5.994,0,0,0-1.414-.312l-.141-.028-.332.021L85,14.7m.255-7.011-.167.257-.059.28a.955.955,0,0,0,.141.48.641.641,0,0,1-.2-.508.583.583,0,0,1,.154-.41l.128-.1m.028-1.612-.036.1-.077.04-.141-.057a1.078,1.078,0,0,0,.254.509.691.691,0,0,1-.339-.595.561.561,0,0,1,.2-.452.732.732,0,0,0-.113.425c0-.058.057-.086.141-.086L85.237,6l.046.077m-.371,4.111.117-.039a.141.141,0,0,1,0,.283.158.158,0,0,1-.17-.142l.052-.1m.032-6.429.077.039.036.1a.122.122,0,0,1-.113.113A.129.129,0,0,1,84.8,3.9l.039-.1.1-.039m-.028,6.192L85,9.989l.025.077V10.1L85,10.067c-.084,0-.17.057-.17.113l-.057-.113.039-.077.1-.036m.019-.356.178-.068a1,1,0,0,0-.423.763l-.029-.254a.48.48,0,0,1,.131-.328l.143-.113m-.076,3.538-.2.127a.548.548,0,0,1,.538-.481.717.717,0,0,1,.564.339.606.606,0,0,1,.086.339.83.83,0,0,1-.086.4,1.823,1.823,0,0,1-.367.537l-.4.084a.345.345,0,0,0-.17-.283c.312-.084.679-.225.679-.566a.486.486,0,0,0-.452-.537l-.2.043m.084-8.723L84.7,4.157a.649.649,0,0,1-.1-.339.629.629,0,0,1,.17-.425.641.641,0,0,1-.084-.31V3a.672.672,0,0,1,.141.368l-.028.086-.029-.029a.673.673,0,0,0-.084.339,1.023,1.023,0,0,0,.142.521l.112.13m-.057,2.657-.059.262-.167.219a.742.742,0,0,0,.142-.481.9.9,0,0,0-.2-.537l.206.226.077.31M84.7,4.922l.077.31a.705.705,0,0,1-.226.509.819.819,0,0,0,.142-.509.748.748,0,0,0-.2-.537l.206.226M84.6,6.929l.077.039.036.1c0,.057-.057.142-.113.142-.086,0-.113-.086-.113-.142l.025-.091.088-.05m-.086.538.05.134.007.177c0,.029,0,.283-.057.283l-.057-.283.057-.31m.029,2.826.127.036.043.077c0,.113-.057.142-.17.142a.133.133,0,0,1-.142-.142l.05-.077.092-.036m-.142,4.581.074-.236a.205.205,0,0,1,.181-.131.239.239,0,0,1,.2.113.455.455,0,0,1-.206.159l-.248.1m.113-8.651-.018.166-.039.145c-.057,0-.084-.283-.084-.31s.028-.312.084-.312l.039.145.018.167m.074,2.487.068.312a.773.773,0,0,1-.2.509.873.873,0,0,0,.142-.509.777.777,0,0,0-.226-.538l.127.1.088.126m0-3.57.039.092a.152.152,0,0,1-.141.142.183.183,0,0,1-.142-.142.182.182,0,0,1,.142-.141l.1.048m-.074,3.882-.025.092-.088.048c-.057,0-.113-.084-.113-.141a.13.13,0,0,1,.113-.142l.088.04.025.1m.212-4.488.223.254a.587.587,0,0,1,.1.332c0,.368-.254.65-.254.961,0,.368.367.622.367,1.018,0,.452-.452.679-.452,1.1,0,.31.255.564.255.9,0,.368-.425.623-.623.9.113-.254.481-.65.481-.876,0-.339-.226-.595-.226-.932,0-.481.425-.708.425-1.1,0-.367-.368-.593-.368-1.018,0-.339.255-.593.255-.932,0-.509-.651-.538-.651-1.244,0-.255.2-.452.141-.68a.258.258,0,0,1,.086.2c0,.17-.086.312-.086.481a.666.666,0,0,0,.1.364l.223.265m-.552,7.231.029-.084a.78.78,0,0,0,.452-.848,4.486,4.486,0,0,0,1.1.283l.708.057v.057a.545.545,0,0,0-.4.509.151.151,0,0,0-.085.113c0,.17.312.31.425.31,0,.086.029.17.113.17.113,0,.142-.084.142-.17.141,0,.451-.141.451-.31a.122.122,0,0,0-.113-.113.54.54,0,0,0-.423-.509V11.2a6.316,6.316,0,0,0,1.047,0v.057l-.077.447c-.143.468-.447.982-.574,1.448l-.113-.057c-.17,0-.283.226-.283.367l.086.17c-.226.057-.509.284-.509.538,0,.141.113.2.2.254l-.595-.028H85.48l.283-.312a.981.981,0,0,0,.226-.622.785.785,0,0,0-.226-.593.834.834,0,0,0-.564-.226c-.425,0-.567.31-.567.679v.141a.456.456,0,0,1,.4-.226.327.327,0,0,1,.339.339c0,.284-.339.481-.538.566v-.028c0-.17-.339-.254-.481-.283a2.974,2.974,0,0,1-.2-1.217l-.007-.423.034-.425m0-8.256-.028.113a.619.619,0,0,1-.113-.368V3.167l.1.17.039.171m0,6.333.029.086c0,.084-.057.452-.142.452-.055,0-.055-.057-.055-.086a1.2,1.2,0,0,1,.106-.393l.062-.059m.032.615.054.092a.16.16,0,0,1-.17.142.134.134,0,0,1-.141-.142.152.152,0,0,1,.141-.142l.116.05M83.7,15.043l.1-.159a.259.259,0,0,1,.183-.1.974.974,0,0,1,.31.141l-.593.113M83.36,6.053l-.014-.092-.1-.05-.029.028.058.2-.058.255.1-.149m.208-2.906-.141-.057L83.1,2.8l.171.084m-.228,11.849h-.084l.028-.226c.454,0,1.188-.057,1.414-.537.086.028.255.084.255.168,0,.361-.731.515-1.229.568l-.383.026m.029-9.049-.025-.145c-.018-.046-.047-.081-.088-.081l-.057.029-.029.028c0,.057.113.113.113.226a2.309,2.309,0,0,1-.113.425l.142-.219.057-.262M83,15.093l-.148-.05c.057-.17.113-.17.31-.17a.332.332,0,0,1,.312.226H83.19L83,15.093m.163-11.84L82.935,3.2l-.367-.452.31.028m-.6-.408.044.092-.008.091-.057.028a.233.233,0,0,1-.2-.283l.057-.028.087.029.076.07m-.219.437.312-.057.338.423-.281.029m-.4.084-.368-.339.226-.113.368.4m-.906-.113L81.521,3l.341.368-.171.086m-.181-1.3.124-.025A.369.369,0,0,1,82,2.433a.346.346,0,0,1-.368.31.32.32,0,0,1-.339-.31.3.3,0,0,1,.106-.219l.109-.068m.172,5.586.3-.186a1.815,1.815,0,0,0,.443-.534,2.414,2.414,0,0,0-.312.255,2.865,2.865,0,0,1-.821.452l-.028-.141.057-.2c.4-.2.679-.876.877-.848h.057a1.707,1.707,0,0,1,.763.961c.17-.339.509-.425.622-.819A5.869,5.869,0,0,0,83.9,5.458l.394-.566.057,1.584v.142l-.366.56a5.489,5.489,0,0,1-1.415,1.475,2.411,2.411,0,0,1-1.047.425c-.113,0-.254-.029-.254-.17a.416.416,0,0,1,.113-.226,1.53,1.53,0,0,0,1.47-1.046,2.161,2.161,0,0,1-1.47.9h-.029V8.483a.344.344,0,0,1,.086-.254c.594-.057,1.075-.2,1.3-.763-.17.339-1.018.593-1.386.679A.19.19,0,0,1,81.239,8a.286.286,0,0,1,.113-.2l.331-.073m-.3-4.084L81.1,3.337l.113-.113.339.312m-.113-1.5-.068.088-.131.025c-.055,0-.2-.029-.2-.113s.142-.114.2-.114l.131.025.068.09m-.452,1.414.31.31c-.084.057-.141.142-.225.17l-.226-.339.141-.141M80.957,2.6l.219.063a.232.232,0,0,1,.091.19.287.287,0,0,1-.31.254.278.278,0,0,1-.283-.254.233.233,0,0,1,.088-.19l.194-.063m-.029,1.47-.226.141-.141-.452a.191.191,0,0,0,.141-.084l.226.4m-.4,10.687.022-.194-.022-.172a1.728,1.728,0,0,0,1.188.593c.255,0,.679-.084.679-.452a.539.539,0,0,0-.113-.339c.255,0,.566.113.566.425,0,.509-.593.735-1.018.735a1.514,1.514,0,0,1-1-.359l-.3-.236m.113-11.6.062.061.023.091a.257.257,0,0,1-.51,0c0-.142.142-.2.255-.2l.17.047m-.084,1.113-.2.113-.17-.452.2-.084m-.17-1.81.159.022c.164.041.323.148.323.317,0,.226-.283.338-.481.338-.17,0-.451-.112-.451-.338a.345.345,0,0,1,.309-.321l.142-.018m0,2.375-.31.028-.141-.452.281-.057m.113-.31-.019.09a.22.22,0,0,1-.207.108.192.192,0,0,1-.2-.2c0-.086.113-.17.2-.17l.156.052.07.117m-.1,9.734-.328-.092a.345.345,0,0,1,.679.084V13.4l-.35-.048M79.677,2.03,79.6,1.952c0-.086.141-.142.2-.142s.17.057.17.142c0,.057-.113.113-.17.113l-.12-.034M79.6,13.4l.394.092.4.05c.142,0,.341-.029.341-.2a1.071,1.071,0,0,0-.113-.367.191.191,0,0,0,.113-.2.6.6,0,0,0-.086-.338h-.2l.065-.262c.2-.532.752-.545,1.32-.644l.339-.084a11.424,11.424,0,0,0,.368,2.658h-.086a1.07,1.07,0,0,0-.423.057c.17.057.31.141.31.31,0,.283-.423.368-.622.368-.566,0-.876-.4-1.272-.735a1.118,1.118,0,0,0-.708-.622L79.6,13.4m.028-8.284-.057-.028.057-.057.086.057M79.4,15.213l.248-.127a.277.277,0,0,0,.12-.212.26.26,0,0,0-.113-.226.519.519,0,0,0,.367-.537.655.655,0,0,0-.113-.4,1.047,1.047,0,0,1,.509.9c0,.4-.335.519-.68.564l-.338.029m.339-10.744h-.283l-.113-.4.255-.057m-.312,1.075.063-.1a1.053,1.053,0,0,1,.389-.1l-.452.2M79.571,2.6v.084c-.028.17.17.31.339.31a.506.506,0,0,0,.254-.113c.029.226-.254.4-.451.4s-.452-.141-.452-.339a.322.322,0,0,1,.091-.222l.219-.116m-.057,1.215-.063.088-.106.025c-.084,0-.2-.028-.2-.113s.113-.141.2-.141l.106.039.063.1m.037-1.65.019.1a.218.218,0,0,1-.226.2c-.113,0-.254-.084-.254-.2a.246.246,0,0,1,.254-.226L79.5,2.1l.051.07m.076,3.12.124-.057.018-.141c.168-.057.31-.17.281-.339V4.723c-.084.142-.281.086-.423.086-.226,0-.537.17-.537.452l.084-.057.142.057.113-.029.2.057M79.2,4.1l.084.4-.254.029-.114-.4m0,5.235-.028-.172.142.283m-.171,3.534.058-.106a.38.38,0,0,1,.31-.12.3.3,0,0,1,.339.339v.113l-.708-.226m-.057-1.215.127-.288c.713-1.352,2.5-1.386,2.447-2.313l.226.028a2.511,2.511,0,0,0,1.244-.566,4.925,4.925,0,0,0,1.5-2.007,15.05,15.05,0,0,1-.677,4.327,4.436,4.436,0,0,1,2.091-.481h.226l.481.028L86.357,11l-.595-.028-1.1-.17-.029-.113v.141c0,.2-.254.735-.537.763l-.029.057a1.391,1.391,0,0,1-.508.226,2.918,2.918,0,0,0,.48-.084l-.028.254-.509.17.509-.057-.029.17a1.028,1.028,0,0,1-.452.2l.481-.028v.141a2.153,2.153,0,0,1-.481.2l.481-.057v.142a.948.948,0,0,1-.481.226h.086a1.132,1.132,0,0,0,.423-.086l.028.113a1.171,1.171,0,0,1-.537.255,1.274,1.274,0,0,0,.566-.113,4.61,4.61,0,0,0,.254.538,1.734,1.734,0,0,1-1.414.508.434.434,0,0,0-.367-.254c-.339-.99-.028-2.065-.4-3.167A5.178,5.178,0,0,1,81.833,9.7v.084a4.757,4.757,0,0,0,.255,1.386l-.057.028a.665.665,0,0,1-.2-.394v.057a.74.74,0,0,0,.142.48l-.113.084a.806.806,0,0,1-.312-.564V11a.879.879,0,0,0,.17.452h-.113l-.157-.109a.717.717,0,0,1-.239-.513v.086a.814.814,0,0,0,.2.564,1.178,1.178,0,0,0-.537.142.69.69,0,0,1-.339-.593l-.028.113a.807.807,0,0,0,.254.537l-.084.057c-.255-.057-.368-.368-.425-.593a.856.856,0,0,0,.312.677.943.943,0,0,0-.171.623,2.85,2.85,0,0,1-1.261-.354l-.323-.3M78.764,2.5l.156-.043a.17.17,0,1,1,0,.339c-.113,0-.226-.057-.226-.17l.07-.127m.043,1.287.088.039.025.1c0,.029-.028.086-.113.086a.126.126,0,0,1-.113-.086l.036-.1.077-.039m.113-.651-.028.084c0,.2.17.255.339.255l.17-.028c-.028.17-.226.226-.367.226s-.4-.057-.4-.255a.232.232,0,0,1,.088-.174l.195-.109m-.1,8.882.2.153a2.692,2.692,0,0,0,1.539.41l.028.17c0,.113-.057.113-.17.113-.509,0-1.7-.339-1.839-.877,0-.057.029-.141.086-.141l.154.172m-.07-7.864.113.4-.283.057L78.5,4.242m.254-1.215-.043.1-.127.039c-.057,0-.17-.057-.17-.141s.113-.142.17-.142l.127.039.043.1m-.469.93.1-.025a.1.1,0,0,1,.113.113.122.122,0,0,1-.113.113.129.129,0,0,1-.141-.113l.039-.088M78.214,7.72h-.028l.084-.028m-.084,4.891.106-.149.148-.106a.432.432,0,0,1,.283.368l-.057.226-.262-.149-.218-.19m.113-9.36.077.036.034.077a.1.1,0,0,1-.112.114c-.057,0-.142-.029-.142-.114l.05-.077.092-.036m-.057,1.755-.086-.057a.091.091,0,0,1,.086-.086c.028,0,.057.029.057.086l-.057.057m.084-.708.084.368-.225.084L78.1,4.384m-.025-.817.025.054c0,.084-.028.141-.113.141a.129.129,0,0,1-.113-.141.126.126,0,0,1,.113-.086l.088.032m-.014.531.039.087c0,.086-.057.114-.141.114a.1.1,0,0,1-.113-.114.1.1,0,0,1,.113-.112l.1.025m-.018.681-.2.086-.086-.312.17-.113m-.254-.593.1.021.039.063a.134.134,0,0,1-.141.142.131.131,0,0,1-.114-.142l.036-.063.079-.021M77.669,5.14,77.7,5.2c0,.057-.057.057-.113.057-.029,0-.057,0-.057-.057s.028-.086.057-.086l.077.021m.036-.19-.138.061-.117.081-.028-.339.2-.142m.028-.2-.036.077-.077.036a.13.13,0,0,1-.142-.113.134.134,0,0,1,.142-.142l.077.039.036.1m-.425.848-.084-.086c.028-.141.028-.226.141-.283l.029.283-.086.086m-.138,8.762.054-.138.17-.084a3.02,3.02,0,0,1,1.47-.481c.452,0,1.1.17,1.1.735a.506.506,0,0,1-.508.509,1.525,1.525,0,0,1-.454-.113.457.457,0,0,0,.425-.425c0-.339-.4-.4-.651-.4a2.494,2.494,0,0,0-1.385.425l-.283.17-.057-.086.116-.116m-.032-8.254-.225-.028a1.061,1.061,0,0,1,.254-.4l-.029.423M77,6.956l-.31-.028a9.53,9.53,0,0,0,.4-.961l.084.028a.131.131,0,0,0,.142-.084V5.571l-.086-.283.086-.028.2-.142-.028.142c0,.084.113.17.2.17a.185.185,0,0,0,.028-.368l.452-.2-.028.057a.188.188,0,0,0,.17.2c.112,0,.168-.084.168-.2l-.112-.142a20.714,20.714,0,0,0,2.262-.4c.9-.423.763-.99,2.064-1.1l.028.086a.131.131,0,0,1-.084.142,2.216,2.216,0,0,1,.622-.057.986.986,0,0,1,.961.932l-.029.312a.713.713,0,0,0-.367-.283c-.028-.368-.254-.821-.679-.821-.819,0-.312.877-.989,1.386.226-.057.4-.425.452-.651a.659.659,0,0,1,.423.4.67.67,0,0,0-.368-.566l.057-.141a1.813,1.813,0,0,1,.481.452,2,2,0,0,0-.339-.566l.141-.086a1.422,1.422,0,0,1,.368.452,2.382,2.382,0,0,0-.2-.48s.567.338.567.706a.424.424,0,0,1,.395.283,1.505,1.505,0,0,1-.367.622v.029a4.7,4.7,0,0,1-.226,1.131c-.113.339-.4.537-.481.847-.283-1.13-1.186-.819-1.186-2.064a2.146,2.146,0,0,1,.084-.593,1.958,1.958,0,0,0-.226.79,1.237,1.237,0,0,0,.2.623,1.387,1.387,0,0,1-.312.79l.028-.225V6.589l-.113.48c-.084.057-.141.142-.254.171l.084-.339-.2.394-.17.086.057-.312a.832.832,0,0,1-.17.312l-.141.028.028-.2V7.1a.577.577,0,0,1-.113.31l-.17.029.057-.339-.142.339-.141-.029.084-.339-.17.339-.17-.028a1.429,1.429,0,0,0,.086-.368.892.892,0,0,1-.17.368h-.226a1.356,1.356,0,0,0,.141-.48.881.881,0,0,1-.254.48h-.084a1.5,1.5,0,0,0-.963.538c0-.2.567-.764.567-1.357l-.029-.17a3.958,3.958,0,0,1-1.753.537L77,6.956m-.537.51.423.12.425.077.792.057v.057l-.367.481a.628.628,0,0,1-.312-.142.57.57,0,0,0,.255.2l-.086.141a.477.477,0,0,1-.283-.086l.226.17-.086.113L77.309,8.6l-.17-.057.17.113.113.057-.057.17h-.057a.372.372,0,0,1-.283-.084.594.594,0,0,0,.283.17h.028l-.028.141V9.021l-.029.113A.5.5,0,0,1,77,9.021a.649.649,0,0,0,.283.2V9.3a.665.665,0,0,1-.338,0,.556.556,0,0,0,.31.057v.113l.028.226a.975.975,0,0,1-.31.084h.113a.246.246,0,0,0,.2-.028l.029.057.057.084-.226.226c.057-.028.141-.057.17-.113l.113-.057.141.057a.623.623,0,0,1-.2.255.506.506,0,0,0,.255-.226l.113.028.254-.057a.19.19,0,0,1,.113.142l-.028-.17.057-.029.113.113-.057-.17.057-.028.057.141-.029-.141.31-.254a.155.155,0,0,0,.086.113l-.086-.2c0-.084.057-.452.142-.481l.084.086c.029.283.17.509.481.509.057,0,.255,0,.255.057-.029.31-.793.48-1.047.537h.226a1.4,1.4,0,0,1-1.131.651l-.283-.057c-.876-.2-1.131-1.047-1.131-1.9l.088-.745.194-.724m-.077-.477.3.074.343.034h.283a4.355,4.355,0,0,0,1.441-.367l.086.2c0,.226-.255.452-.339.622h-.2l-.057-.142v.142h-.17l-.057-.17-.029.17H77.7l-.057-.17-.028.17H77.45l-.057-.2v.171h-.084l-.142-.029a.342.342,0,0,1-.057-.226.319.319,0,0,0,0,.226l-.168-.057a.323.323,0,0,1-.086-.226.243.243,0,0,0,0,.2c-.2-.028-.9-.31-.934-.508l.212.018.248.07m.188,7.415.116-.094.057-.116a3.8,3.8,0,0,1-1.244.425h.113a2.9,2.9,0,0,0,.618-.086l.341-.13m-.35.356-.269.029a1.777,1.777,0,0,1-.848-.2,2.313,2.313,0,0,0,1.7-1.075.474.474,0,0,1,.254.368.352.352,0,0,1-.112.226c-.029-.057-.113-.086-.17-.113a.312.312,0,0,1,.141.283c0,.183-.17.31-.375.392l-.317.088m.156-1.5-.341.389a1.688,1.688,0,0,1-1.073.629l.084.028a1.773,1.773,0,0,0,1.283-.862l.047-.183m-1.583,1.3v-.142a.947.947,0,0,0,.17-.283,1.765,1.765,0,0,0,1.186-1.7c.114.084.341.394.312.564a1.418,1.418,0,0,0,.481-.283,1.888,1.888,0,0,1-.99,1.443l-.57.219-.589.177m.141-4.553-.361.2-.317.223a.476.476,0,0,0-.113-.312,2,2,0,0,1,.566-.113h.226m-.234-.6-.232.2a1.4,1.4,0,0,0-.326.488l-.17-.2a4.315,4.315,0,0,1,.509-.508,3.078,3.078,0,0,0-.566.451l.113-.31a1.268,1.268,0,0,1,.764-.283h.17l-.263.164m-.054-1.32-.323.541a10.124,10.124,0,0,0-.491,1.152L73.689,9.7a7.228,7.228,0,0,1,.4-.934,5.314,5.314,0,0,0-.48.877l-.142-.057.368-.961s.706-.9,1.215-1.018l-.4.484m-1.381,2.6.121.152.163.131.113-.113-.21-.065m-.3-.586.368.113-.113.113m-.283-5.882.028-.084.142.084m-.007,6.393-.163-.116c.028.113.17.2.283.283L73.492,11l-.206-.054m-.163.873.368-.4a3.315,3.315,0,0,1,.763-.084,1.194,1.194,0,0,1,.708.17h-.113a2.151,2.151,0,0,0-1.357.48l-.185-.1-.183-.065m-.057,2.574.057-.312a1.581,1.581,0,0,0,.651.2c.48,0,.734-.423.932-.792a.759.759,0,0,1,.086.425.564.564,0,0,1-.2.451.646.646,0,0,1,.084.312l-.028.247-.088.16-.036-.2a.756.756,0,0,0-.541-.342l-.919-.152m.45-4.626.286.172a.721.721,0,0,1,.312.5.218.218,0,0,1-.226.2.8.8,0,0,1-.339-.113l.31-.367h-.17a.648.648,0,0,1-.651-.339c.029-.113.113-.113.2-.113l.28.068m-.252-4.733-.152-.022-.131-.063.029-.084a.394.394,0,0,1,.425-.113l.084-.142-.2-.254a.651.651,0,0,1,.341-.171.7.7,0,0,1,.113.341.507.507,0,0,1-.31.469l-.2.04m-.283,3.5V7.607a12.466,12.466,0,0,1,1.273-2.12,14.555,14.555,0,0,0-1.273,1.865V6.815a4.924,4.924,0,0,1,2.065-2.092,11.906,11.906,0,0,0-1.7,2.752L72.982,8.54m0,.85V8.908a9.88,9.88,0,0,1,.764-1.556,3.444,3.444,0,0,1,1.386-1.385,15.558,15.558,0,0,0-1.753,3.592l-.114-.029-.226.057a20.306,20.306,0,0,1,1.273-2.6l-.7,1.181-.633,1.223m.339,1.781L72.982,11l.255.283m-.262-7.146.29-.12-.113-.142a.65.65,0,0,0-.339.509l.062-.145.1-.1m-.163,7.006.11.152.172.13.113-.113L73,11.238m.1-7.42-.113-.141a.722.722,0,0,0-.338.508.445.445,0,0,1,.161-.236l.29-.131m-.17-.2-.084-.142a.63.63,0,0,0-.339.509.355.355,0,0,1,.149-.236l.274-.131m-.434-.057.265-.142-.084-.113a.65.65,0,0,0-.339.481l.159-.226m.1-.341L72.5,3.11a.65.65,0,0,0-.339.51.523.523,0,0,1,.159-.251l.266-.146m-.142-.2-.113-.086a.567.567,0,0,0-.339.481.461.461,0,0,1,.163-.24l.29-.156m-.509,10.067-.08-.192a.544.544,0,0,0-.458-.345l-.084.028c.021.063.265.19.457.346l.166.163m-.142-2.6-.166.126-.117.154-.31.029a1.99,1.99,0,0,0,.367-.481l.283-.057.312.057-.368.172m-.566,2.472.175.13.164.167c-.028-.17-.2-.509-.395-.509h-.2l.254.212M70.692,8.06l.244-.036.265.008a.245.245,0,0,0,.2,0l.029.057-.735-.029m.509-5.2L71.144,2.8l-.593.452.057.057m-.142,8.144L70.8,11.2l.316-.288.394-.029a1.326,1.326,0,0,1,.963.31l-.425-.055a3.394,3.394,0,0,0-.8.113l-.781.2m.643-9.228-.077-.047a9.6,9.6,0,0,0-.735.763L70.324,3c.057-.057.821-.593.821-.706l-.036-.066m-.955,10.952h-.028c0,.113.254.2.339.255l.226.254a.575.575,0,0,0-.346-.477l-.192-.032m.2-7.719.084-.272a.281.281,0,0,1,.255-.124l.113.029a.936.936,0,0,0-.226.564.59.59,0,0,0-.452.312.323.323,0,0,1-.086-.226.219.219,0,0,1,.113-.183l.2-.1m-.312,3.11.029-.057.141.028a.315.315,0,0,0,.283-.338c.029-.057.086-.057.171-.057h.763V8.37l-.452.029.423.084v.086H70.041m.425-6.447-.086-.028-.423.48.084.057m.17,2.574-.043.13-.127.068c-.084,0-.168-.113-.168-.2a.189.189,0,0,1,.168-.2l.127.057.043.142m.086,8.624-.057-.175a.558.558,0,0,0-.452-.334H69.7l.254.211.339.3M70.721.85,70.7.782,70.635.737a13.35,13.35,0,0,0-1.018,1.64l.057.028.534-.777L70.721.85M69.278,9.162l.029-.084a1.512,1.512,0,0,0,.65-.425H71.4l-.057.226-.48.057.48.057-.055.17H69.278m.312-7.578-.057-.057-.312.595.113.057m1.052,12.667.39-.055a1.569,1.569,0,0,0-.793-.2l-.451.029c.028.31-.283.509-.51.65l.888-.294.476-.131m-.826-3.76-.423.058.283.028-.255.113a1.331,1.331,0,0,0-.2-.339H69.9l-.339.141m-.679-9.047V2.008l.312-.708c0-.084-.086-.112-.142-.112-.086,0-.17.451-.17.508l-.086.312.086.029M68.713,9.7V9.5c.028-.086.057-.142.17-.142l.057.029c.057-.2.283-.086.312-.171h2.007L71.2,9.36l-.509.086.481.057-.113.2H68.713m-.029,2.29h-.028a.464.464,0,0,0,.057-.283l-.029-.17.2-.028a3.385,3.385,0,0,0,2.686-3.251c0-.595-.395-2.149-1.188-2.149l-.17.057a.545.545,0,0,1,.51-.4c0-.338.057-.593.452-.734l-.029.226c0,1.018.848,1.47.848,3a3.738,3.738,0,0,1-3.11,3.7l-.2.028m2.348-2.233-.113.2-.538.057.454.057-.142.2H68.656l-.029-.086c0-.057.113-.113.113-.254v-.17h2.291M68.8,13.609l-.087-.126-.139-.051a1.281,1.281,0,0,1,.226.848.835.835,0,0,0,.057-.367l-.057-.3m-.17-2.213-.084-.086.084-.254.113-.2.142.141a.57.57,0,0,1,.17.31l-.17.029-.255.057M68.543,1.273H68.43l-.057.622.086.028m.112,9.784-.088.251a.268.268,0,0,1-.193.145c-.057,0-.057-.057-.086-.084a.626.626,0,0,0,.142-.339.73.73,0,0,0-.113-.283h.084a.23.23,0,0,1,.19.1l.063.208M68.147,0l-.088.039-.025.1.057,1.81H68.2L68.233.17,68.222.054m-.014,6.033.025.05c0,.057-.029.086-.142.086a.075.075,0,0,1-.084-.086c0-.057.057-.057.113-.057l.088.007m-.054,7.571-.063-.2a1,1,0,0,0-.084.4,3.839,3.839,0,0,0,.084.593,3.675,3.675,0,0,0,.086-.593l-.022-.2m.1-7.384.068.088c-.028.086-.084.086-.226.086-.17,0-.2-.057-.17-.113.029-.086.086-.086.2-.086l.13.025m-.134,5.655-.091.1-.1.043-.113-.057a.425.425,0,0,0,.113-.312l-.028-.2c0-.057.057-.086.113-.086.113,0,.2.17.2.255l-.088.251m-.392-5.341.08-.073a1.666,1.666,0,0,1,.457-.011c.086,0,.2.028.226.084,0,.113-.028.113-.113.113a1.911,1.911,0,0,1-.556-.036l-.094-.077m0-5.316h-.114l.114.65.084-.028m.283,4.864.4-.028a.209.209,0,0,1,.17.17.15.15,0,0,1-.17.168h-.763c-.086,0-.142,0-.142-.141,0-.113.057-.2.17-.2l.339.028M67.751,11.4l-.312-.057h.425m-.538,2.574.057.367v-.029a1.159,1.159,0,0,1,.2-.819c-.1,0-.163.077-.2.177l-.052.3m.112-6.686.228-.1a4.68,4.68,0,0,0,.9,0,.468.468,0,0,1,.312.2.707.707,0,0,1,.084.368l-.084.452a2.162,2.162,0,0,1-.423.564c-.226.283-.226.821-.4.963a.648.648,0,0,1-.086-.312c0-.566.425-.848.425-1.215,0-.057,0-.2-.086-.2a.075.075,0,0,0-.084.086l.028.2c0,.367-.48.792-.339,1.443a.532.532,0,0,1-.2-.312c-.086-.226-.058-.538-.171-.708a1.615,1.615,0,0,1-.423-.847.656.656,0,0,1,.141-.436l.168-.142m-.1-.026-.183.152a.788.788,0,0,0-.138.509c0,.564.423.677.509,1.073.057.255.113.68.4.764l.113.141c.339-.225.312-.735.679-1.131l.17-.254a1.148,1.148,0,0,0,.17-.706.769.769,0,0,0-.17-.538.686.686,0,0,0-.255-.113.221.221,0,0,0,.086-.2c0-.113-.113-.17-.2-.2l.029-.113c0-.084-.141-.141-.226-.141l.057-.086a.122.122,0,0,0-.113-.113l.029-.084a.19.19,0,0,0-.2-.171c-.113,0-.2.086-.141.255-.057,0-.086.057-.086.113l.029.086c-.086.028-.17.028-.2.113v.028l.029.113c-.142.029-.2.086-.2.226a.172.172,0,0,0,.084.17l-.272.1m-.07-5.624-.091-.269-.1-.12c-.057,0-.084.057-.084.112l.31.737.057-.029-.088-.43m-.647-.051-.057.057.255.595.084-.057m.014,2.639.378-.1a4.012,4.012,0,0,1,.8-.073,7.214,7.214,0,0,1,.792,0,3.173,3.173,0,0,1,.99.339.347.347,0,0,0-.142.283l.029.141a2.4,2.4,0,0,0-.877-.254l-.792-.086a2.981,2.981,0,0,0-1.414.339l.029-.141a.347.347,0,0,0-.142-.283l.353-.161m-.154,6.3-.2-.113h1.244a.239.239,0,0,0,.2.057c.226,0,.028-.254.4-.2,0-.454.31-.086.281-.454h1.924l-.171.17-.564.057.451.086-.31.2H68.882v-.029l-.2-.141-.254.564c-.367.029-.821,0-1.188,0l-.226-.084.31-.028-.564-.086m-.2-5.853-.052.13-.117.068a.187.187,0,0,1-.17-.2c0-.113.057-.2.17-.2l.117.057.052.142m-.595-1.556.4-.509a2.4,2.4,0,0,1,1.726-.763,2.475,2.475,0,0,1,.792.141,2.7,2.7,0,0,1,1.328,1.244,9.788,9.788,0,0,1-1.328.17h-.792a7.752,7.752,0,0,1-1.6-.143l-.519-.139m.255,9.882.255-.211h-.086a.6.6,0,0,0-.509.509l.339-.3m-.2-3.011-.109-.073-.088-.1H67.44c.029.057.142.17.142.255a.247.247,0,0,0,.142.255h-1.3l-.284-.2.4-.057-.51-.086m-.254-8.425-.086.028.425.509.084-.057m-.141,2.884.237.1a.216.216,0,0,1,.131.183.351.351,0,0,1-.113.226.6.6,0,0,0-.454-.312.926.926,0,0,0-.225-.564l.112-.029a.28.28,0,0,1,.3.251l.012.145m0,7.719h-.029a.579.579,0,0,0-.564.509c.084-.084.141-.2.254-.254l.3-.175.041-.08M66.048,1.524,65.717.981l-.2-.244a.151.151,0,0,0-.086.113c0,.084.961,1.414,1.047,1.555l.057-.028-.488-.852M67.1,9.756l.057.113v.057l-.057.028.312.312h-1.64l-.17-.2.452-.057-.537-.057c-.029-.084-.086-.113-.086-.2H67.1m-.819,5.22.876.294c-.225-.141-.537-.339-.508-.65l-.454-.029a1.488,1.488,0,0,0-.79.2l.393.055.483.131m.686-5.516.106.24h-1.7l-.113-.2.423-.057-.451-.086-.057-.142h1.64M65.093,7.467l.142-.346c.178-.393.459-.87.819-.87.141,0,.226.113.368.17l-.057-.31a.443.443,0,0,0,.2-.368L66.507,5.6a2.867,2.867,0,0,1,1.584-.451l.792.084a3.478,3.478,0,0,1,1.046.339l-.055.17a.443.443,0,0,0,.2.368l-.029.31c.113-.057.2-.17.339-.17.595,0,.961,1.217,1.018,1.669l-.057.028a.189.189,0,0,1-.168-.113v.113l-.283.029-.17-.029-.086.113h-.057a.258.258,0,0,0-.226.113l.028.057a.246.246,0,0,1-.17.2L70.07,8.4l-.339.31a2.079,2.079,0,0,1-.48.283c-.057.029-.057.086-.086.17-.113.029-.226.029-.283.114-.17-.029-.226.084-.312.226a1.028,1.028,0,0,1,.086.423c0,.084-.113.113-.113.254v.255l-.17.074a.244.244,0,0,0-.084.181c-.226,0-.17.084-.255.2l-.028.029a.416.416,0,0,1-.2-.086.258.258,0,0,1-.113-.226c0-.17-.312-.538-.452-.651l.028-.084c0-.17-.281-.537-.367-.679V9.078c0-.2-.141-.425-.141-.651,0-.057.084-.084.113-.112-.086-.113-.086-.425-.17-.425s-.086.142-.113.17c0,.113-.17.142-.255.142a.488.488,0,0,1-.425-.255c.113,0,.312,0,.312-.141a.076.076,0,0,0-.086-.086l-.17.057a.239.239,0,0,1-.141-.084c-.2-.2-.254-.086-.4-.17l-.028.028h-.086l-.226-.084m0,.17V7.58l.142.057m1.5,1.046.086.4v.113H65.15l-.057-.2.481-.084-.509-.057-.029-.17m.057-6.5-.028.029-.057.084c0,.113.763.65.819.706l.057-.057-.375-.392L65.264,2.3l-.171-.124m-.084,6.164V8.2h.9V8.145h-.9L65.037,8l.509-.084-.509-.029.029-.17h.65l.113.113h-.057c.113.283.254.481.566.481a.441.441,0,0,0,.339-.17l.057.141-.057.141.029.17H65.037l-.028-.141.452-.086-.452-.028m.537-5.033.057-.057L65.009,2.8l-.057.057m.254,9.9h-.2c-.2,0-.4.339-.4.509l.149-.167.446-.342m-.17-6.531.131-.286a1.6,1.6,0,0,0,.1-.9.672.672,0,0,1,.452.734.608.608,0,0,1,.537.4l-.2-.057c-.792,0-1.188,1.555-1.188,2.149a3.39,3.39,0,0,0,2.857,3.279l.057.17a.81.81,0,0,1-.086.283,3.8,3.8,0,0,1-3.28-3.731,3.277,3.277,0,0,1,.345-1.548l.277-.488m-.23,4.4-.166-.126-.368-.172.283-.057.312.057a2,2,0,0,0,.368.481l-.312-.029-.117-.154m.061,1.964-.086-.028c-.283,0-.452.281-.509.537a1.244,1.244,0,0,1,.33-.308l.265-.2m-.527-9.4.1.106.062.134a.624.624,0,0,0-.338-.481l-.086.086.265.156M63.962,11.2l.21-.156a1.584,1.584,0,0,1,.752-.154l.4.029a3.949,3.949,0,0,0,.65.537,7.451,7.451,0,0,0-1.583-.31l-.423.055M64.17,3.37l.1.113.062.138a.721.721,0,0,0-.338-.51l-.085.113.265.146m-.01.421-.029-.143a.829.829,0,0,0-.31-.338l-.086.113L64,3.564l.16.226m.225,7.436.955.156.912.24a5.194,5.194,0,0,0,1.443.509l.226.084.17-.057.2.086c.113,0,.17-.086.254-.113h.17l.17-.029a7.451,7.451,0,0,0,1.328-.48,9.19,9.19,0,0,1,1.839-.4,1.131,1.131,0,0,1,.679.2,1.131,1.131,0,0,0-1.075-.621,1.075,1.075,0,0,1,.708-.454.636.636,0,0,0-.481-.17h-.226a3.756,3.756,0,0,0,.509-1.921,3.815,3.815,0,0,0-.651-2.121,1.845,1.845,0,0,1-.225-.876l.055-.452-.394.17a.422.422,0,0,0-.255-.057c-.141,0-.283.028-.339.17-.142-.339-1.159-.595-1.47-.651a7.574,7.574,0,0,0-.792,0,2.8,2.8,0,0,0-1.724.425.373.373,0,0,0-.284.226.4.4,0,0,0-.339-.17.42.42,0,0,0-.254.057l-.4-.17.057.452a1.83,1.83,0,0,1-.226.876,3.819,3.819,0,0,0-.651,2.121,3.756,3.756,0,0,0,.509,1.921h-.226a.7.7,0,0,0-.508.17,1.067,1.067,0,0,1,.734.454,1.2,1.2,0,0,0-1.1.621l.353-.141.353-.057m-.541-7.475.108.1.066.132a.737.737,0,0,0-.367-.509l-.086.142.279.131m-.159.2.1.1.063.132a.65.65,0,0,0-.339-.508l-.113.141.29.131m.022,7.193-.2.1-.222.073.113.113.177-.13m.106-6.911-.029-.159a.789.789,0,0,0-.31-.35l-.113.142a.641.641,0,0,1,.389.234l.063.132m-.481.17.113-.084.057.084m-.044,7.855.15-.062.319-.046.2-.142-.2-.028a.716.716,0,0,0-.595.368l.126-.091m-.069-1.126L63.51,11a1.1,1.1,0,0,1-.368.17l.113.113m-.17-.848-.113-.113.339-.113m.086.622-.192.116L62.972,11l.142.113m.113-.423-.188.1-.208.065.141.113m.364-6.2.146.088v.084l-.119.063-.137.022a.483.483,0,0,1-.48-.509.678.678,0,0,1,.084-.341.652.652,0,0,1,.339.171l-.2.254.086.142h.113l.166.025m-.815,6H62.6c.4,0,1.075-.509.99-.961h.028V4.949a.932.932,0,0,0-.679-.876,9.947,9.947,0,0,1,1.018-1.132l.17-.057a.7.7,0,0,1,.452.226c.877.85,2.686.99,3.818.99l.48-.028a5.256,5.256,0,0,0,3.025-.963.638.638,0,0,1,.425-.226l.17.057a13.528,13.528,0,0,1,1.047,1.132.958.958,0,0,0-.708.876V9.021l.028.848a1.244,1.244,0,0,0,1.019.9l-.821,1.046a1.49,1.49,0,0,0-.593-.113c-1.132,0-2.207,1.1-3.592,1.273l-.735.028c-1.781,0-2.828-1.272-4.128-1.272l-.509.057-.989-1.018M63.255,9.7l.12.014.079.1c-.17.339-.481.367-.819.339a1.786,1.786,0,0,0,.31.367.8.8,0,0,1-.339.113.2.2,0,0,1-.226-.2c0-.254.3-.541.6-.668l.28-.068m-1.1,3.28.168-.261a2.74,2.74,0,0,1,1.981-.9,2.01,2.01,0,0,1,1.131.452,5.451,5.451,0,0,0,2.97.877h.48a5.391,5.391,0,0,0,2.235-.934,1.98,1.98,0,0,1,1.046-.4c.706,0,1.726.339,1.839,1.16a3.114,3.114,0,0,0-.509-.086.769.769,0,0,0-.594.255,1.645,1.645,0,0,0-1.244-.735,2.041,2.041,0,0,1,1.385,1.866l-.254-.029-.679.029A1.012,1.012,0,0,1,71.6,14.2a1.376,1.376,0,0,0-1.386-1.215h-.028a1.852,1.852,0,0,1,1.3,1.7,2.7,2.7,0,0,0-1.386-.4,1.65,1.65,0,0,0-.65.113v-.113a1.446,1.446,0,0,0-.4-.961,1.524,1.524,0,0,1,.283.848.9.9,0,0,1-.452.792c-.339.254-.566.254-.792.65-.339-.65-1.244-.509-1.244-1.441a1.759,1.759,0,0,1,.254-.848,1.612,1.612,0,0,0-.367,1.075,1.738,1.738,0,0,0-.651-.113,2.626,2.626,0,0,0-1.385.4,1.891,1.891,0,0,1,1.3-1.7h-.057a1.343,1.343,0,0,0-1.33,1.215,1.181,1.181,0,0,1-.537.086l-.651-.029-.283.029a2.045,2.045,0,0,1,1.386-1.866,1.7,1.7,0,0,0-1.244.735.77.77,0,0,0-.593-.255l-.538.086m.086-2.545-.316-.223-.335-.2h.2a1.157,1.157,0,0,1,.538.113l-.084.312m-.023-.6-.186-.229a2.253,2.253,0,0,0-.47-.36H61.7a1.151,1.151,0,0,1,.764.283l.113.31-.538-.451a3.863,3.863,0,0,1,.452.508l-.141.2-.137-.259m.036,1.8-.377-.092-.372-.032a1.436,1.436,0,0,1,.764-.17,3,3,0,0,1,.706.084l.339.4-.208.074-.188.1-.308-.206-.357-.15M62.612,5.6l.48.61.39.606v.537a12.023,12.023,0,0,0-1.244-1.865,10.764,10.764,0,0,1,1.244,2.12V8.54l-.35-1.052a11.635,11.635,0,0,0-1.687-2.764,2.311,2.311,0,0,1,.612.352l.554.526m-.183,2.7.206.321.395.961-.141.057a5.316,5.316,0,0,0-.48-.877,7.226,7.226,0,0,1,.4.934l-.17.084a5.489,5.489,0,0,0-1.189-2.177A1.539,1.539,0,0,1,62.157,8l.272.3m.041-1.359.277.407a9.787,9.787,0,0,1,.735,1.556v.481l-.606-1.223-.668-1.181c.425.848.9,1.724,1.244,2.6a.407.407,0,0,0-.312-.028,17.093,17.093,0,0,0-1.808-3.592,2.374,2.374,0,0,1,.812.586l.324.392m.644,7.42-.5.131-.52.068c-.509,0-1.584-.142-1.584-.821a.757.757,0,0,1,.142-.423l.028.141c.029-.65.339-.679.819-.848a1,1,0,0,0-.395.708c0,.566.65.961,1.159.961l.207-.023.2-.062.385-.17.057.339.028.086v-.086h.086l.4.057a4,4,0,0,1-1.782.566l-.989-.084-.212.021-.212.063V14.93c.086-.226.368-.339.567-.423a4.15,4.15,0,0,0,1.159.2,1.567,1.567,0,0,0,.748-.178l.214-.161m-3.079-3.088.138.007-.2-.17-.057.113m.225-.708-.113-.084-.141.368m.254.65-.225-.2-.057.086.13.088m.039.081-.2-.113-.028.057c.028.057.141.057.2.057h.028m-.338-1.16-.09.241-.109.24.312-.425m-.339-.819.05-.1.007-.124-.029-.17.086.028.17-.028a.646.646,0,0,1-.171.342l-.112.054m.057,2.4.258.248a.831.831,0,0,0,.363.12.189.189,0,0,1-.113.17H60a.661.661,0,0,1-.537-.509l.057-.029m.057-8.171V3.762l-.226.057m0,4.665.034-.113-.007-.112h.057L59.58,8.2l.084.225c0,.057,0,.113-.057.142l-.254-.086m.254,2.884.113.13c.1.178.2.465.48.465a.32.32,0,0,0,.226-.086l.086-.057a.294.294,0,0,1,.113.226.24.24,0,0,1-.2.226l-.113.029a1.084,1.084,0,0,1-.96-.679l.1-.17.159-.086M59.3,1.7l.028-.283-.028-.2a.459.459,0,0,1,.283.452V1.81L59.3,1.7m0,1.924.052-.127.117-.043.084.028m-.339,10.66.326-.127.326-.041a1.818,1.818,0,0,1,.564.084v.028a.728.728,0,0,0,.255.255l-.255-.029H60.37a1.642,1.642,0,0,0-.734.17l-.425-.339M59.476,8.2l-.1.032a.355.355,0,0,0-.2-.283.3.3,0,0,0,.171-.2l.2.4-.074.052m.018,3.792-.135.022-.091.063c-.057-.057-.086-.086-.086-.142s.171-.113.171-.113l.141.17m0-2.573-.023.074a.267.267,0,0,1-.2.1.179.179,0,0,1-.2-.2.628.628,0,0,1,.142-.312.457.457,0,0,1,.258.222l.025.117m-.3-6.189.121-.063.127-.025a.319.319,0,0,1,.226.084c-.028-.113-.17-.113-.283-.113a.424.424,0,0,0-.4.312l.2-.194m.33.5.174.036-.057-.17.057-.17-.086.029-.141-.029a.243.243,0,0,0-.255.2.375.375,0,0,1-.226.084l.353.018.181,0M59.1,6.363l.063.077.021.121h-.028L58.9,6.505l-.028-.142.141-.028m.174,4.339.28-.41-.113-.057a3.191,3.191,0,0,1-.51.792l.343-.326m-.117-4.4h-.057l-.17.057-.028-.086.17-.113m-.113.425.166.091.061.135c0,.084-.057.113-.086.113-.113,0-.17-.142-.226-.2l.086-.141M58.861,8.13l.181-.07a.243.243,0,1,1,0,.48.253.253,0,0,1-.255-.254l.074-.156m.011.7.113-.174h.057a.5.5,0,0,0,.283-.113.556.556,0,0,1,.368.452c0,.086-.057.113-.142.113a.4.4,0,0,1-.368-.339v.17c-.057.113-.141.283-.31.283-.142,0-.2-.028-.2-.2V8.936l.112-.04.087-.069m-.113-2.6-.113-.029.17-.255.084.114m.142-4.073-.425.454a.1.1,0,0,1-.112-.113c0-.1.091-.185.2-.244l.332-.1m-.086,6.646-.134.156-.177.07a.184.184,0,0,1-.17-.17.408.408,0,0,1,.141-.312l.086-.055.074.2.179.113m-.141-2.177-.068.127-.131.043a.162.162,0,0,1-.168-.17.181.181,0,0,1,.168-.17l.131.052.068.117M58.843,8l-.1.12-.039.163-.17.057a.163.163,0,0,1-.17-.17.547.547,0,0,1,.086-.283L58.635,8l.208,0m.51,1.95.239.1a4.027,4.027,0,0,0,.835.123c.2.029.51.113.51.339,0,.481-.481.51-.51,1.16-.028.113-.17.17-.31.17-.2,0-.339-.255-.4-.425a.656.656,0,0,0,.17-.31L60,11h.17l-.4-.057a12.968,12.968,0,0,0-1.272.283c-.113,0-.142-.057-.142-.141l.537-.524.454-.608m-1.018-3L58.25,6.9c0-.113.113-.2.142-.255l.17.086a.4.4,0,0,1-.148.2l-.079.023M58.4,1.938l.185-.094.172-.034-.452.51c-.084,0-.113-.029-.113-.086l.061-.161.148-.135m-.074,2.619-.077-.032c-.057,0-.057.057-.057.084,0,.057,0,.086.057.086s.113-.029.113-.086l-.036-.052m.036,1.948v.084c-.028.086-.084.086-.17.086-.057,0-.17,0-.17-.086s.142-.113.2-.113l.141.029m.07.473.1-.077.028.116.058.028-.033-.052-.023-.12V6.844l.055-.113h.142l.057.084-.039.159-.043.063L58.8,7l.043-.131.17.057a.134.134,0,0,0,.142-.141.361.361,0,0,0-.113-.2h.141v.142a1.9,1.9,0,0,1-.283.9,1.412,1.412,0,0,1-.876-.99c.029.086.17.086.255.086a.154.154,0,0,0-.086.141.182.182,0,0,0,.142.141l.1-.034m-.063,7.1.182-.114.15-.137a.214.214,0,0,1,.17.2c0,.283-.509.283-.735.283h-.113L58,14.224l.374-.145M58.42,1.7l-.163.174-.12.194c-.028.057-.028.113-.113.113l-.057-.113a.318.318,0,0,1,.163-.247l.29-.121m-.057,4.7v.057l-.17-.029c-.057,0-.2.057-.2.17L57.94,6.25l.423.142m-.194-.563L57.8,5.515a.782.782,0,0,0,.368-.2.264.264,0,0,0,.254.141c.086,0,.142-.113.142-.2a.515.515,0,0,1,.367.31,2.937,2.937,0,0,1-.367.509l-.393-.251m.314,1.7.207.139.239.1a1.791,1.791,0,0,0,.425-1.1.738.738,0,0,1,.113.423c0,.4-.2.877-.651.877a.645.645,0,0,1-.339-.17,2.353,2.353,0,0,1-.735-1.7l.17.141a1.7,1.7,0,0,0,.4,1.116l.175.168m-.05-3.447.123.106.117.048a.228.228,0,0,0,.226-.113l-.084.029a.207.207,0,0,1-.226-.226l.057-.367c0-.142-.113-.284-.113-.4l.141-.283c.086-.141.312-.17.425-.254a2.09,2.09,0,0,0,.481-.4h.226l.091.16.05.179a.211.211,0,0,0-.141.226.378.378,0,0,0,.084.226v.057a1.822,1.822,0,0,0,.423.877c-.057.084-.2.084-.226.168L60,4.157c-.141,0-.028-.084-.113-.113l-.028.057c0,.113.141.084.225.057l-.028.17a.517.517,0,0,1-.423.142c.028.113.2.2.283.254a.132.132,0,0,0-.086.142c0,.113.113.2.113.283,0,.254-.764.254-.9.254L58.9,5.374V5.317c0-.283-.113-.566-.451-.566h-.086a.571.571,0,0,1,.452.48h-.057c-.113.029-.2-.17-.2-.31-.113.084-.029.452-.17.452s-.255-.283-.255-.4a.271.271,0,0,0-.028.254l-.255.17-.028-.113a.569.569,0,0,1,.452-.537.638.638,0,0,1-.567-.595c0-.2.171-.226.312-.226l.244.048.166.108m-.862,1.654.17-.2a6.388,6.388,0,0,0,.792.651.379.379,0,0,0-.17.142l-.428-.266-.364-.328m.141,3.818-.036.13c-.063.117-.19.2-.19.35l-.028-.086.026-.113.117-.2.026-.114a.6.6,0,0,0-.113-.312l.152.128.046.212m.16,4.149.24-.1a.74.74,0,0,0,.337-.346h.057c.141,0,.281.028.281.2,0,.368-.79.679-1.1.679-.17,0-.283-.057-.283-.225l.057-.2.17.028.244-.034m-.45-12.1.233-.255-.028.17a.891.891,0,0,0,.17.481c0,.17-.2.226-.312.255a.356.356,0,0,1-.17-.312l.029-.172.077-.167m-.05,3.959-.086-.091a.9.9,0,0,1-.084-.418V4.327l.1.622.074.622m-.338-2.092.094-.114c.263-.222.814-.148,1.235-.593-.043.466-.546.488-.963.577l-.366.131m0,.452.323-.19a2.247,2.247,0,0,0,1.035-.517c-.022.446-.537.494-.971.585l-.386.123m.31-.887-.254.039h-.113c.367-.2.734-.283,1.1-.452a1.722,1.722,0,0,1-.463.312l-.272.1m-.4-.244.156-.132a2.847,2.847,0,0,1,.636-.234l-.364.236L56.95,2.8m.029,5.119.028.226L56.95,8.6a.775.775,0,0,0,.254.595c-.281-.113-.338-.312-.338-.622l.113-.65m0-2.353.137.338a1.275,1.275,0,0,1,.2.6l-.028.113c-.086-.509-.537-.85-.537-1.47a2.117,2.117,0,0,1,.141-.708,2.461,2.461,0,0,1,.029.651l.061.475m-.185,8.9-.074-.244-.028.113a.542.542,0,0,0,.2.4l.086-.086-.181-.179m.363-7.6.092.228.036.229v.057l-.229-.476a3.415,3.415,0,0,1-.7-1.475,1.44,1.44,0,0,1,.171-.764l-.057.425a2.418,2.418,0,0,0,.41,1.3l.281.48m-.154,8.176.324-.057.326-.141a1.155,1.155,0,0,1-.537.113.507.507,0,0,1-.566-.566.465.465,0,0,1,.255-.423.788.788,0,0,0,.79.65.8.8,0,0,0,.425-.113.643.643,0,0,0,.509.452,1.322,1.322,0,0,1-.792.254l-.566-.028a1.022,1.022,0,0,0-.735.254.506.506,0,0,1-.113-.254.4.4,0,0,1,.226-.339.384.384,0,0,0,.194.152l.258.046M56.413,3.7l.138.039.116.1.057.226v.055L56.384,4.1a.418.418,0,0,1-.226-.339l.255-.057m-.2,5.373v.17c0,.283.283.142.312.4-.142-.141-.4-.084-.4-.367l.021-.11.065-.088m.022-2.926.119.24c.2.339.708.876.708,1.272a5.122,5.122,0,0,0-.423-.651c-.312-.394-.595-.621-.595-1.215a1.6,1.6,0,0,1,.084-.509l.039.583.069.28M56.158,4.5l-.142-.028a.752.752,0,0,1,.623-.312.479.479,0,0,1-.319.314l-.163.025M56.016,7.89l-.106-.05-.063-.091v.028c0,.113.057.2.142.2.057,0,.141-.086.2-.142l-.17.057M56.3,4.128l-.152.04-.131.1a.527.527,0,0,1-.226-.2.374.374,0,0,1,.255-.17l.116.134.138.091m-.734,2.941-.121-.048-.077-.092v.028c0,.113.029.226.142.226a.32.32,0,0,0,.226-.141l-.17.028m.2,5.911.243.039a1.1,1.1,0,0,1,.549.441,1.476,1.476,0,0,0-.509-.084c-.339,0-.792.226-.792.622v.057a.731.731,0,0,1,.339-.425c.086.029.31.113.31.2,0,.17-.423.254-.423.566,0,.4.593.423.9.4-.086.084-.17.17-.17.254H56.1a1.109,1.109,0,0,1-1.217-1.073,1.032,1.032,0,0,1,.7-.968l.175-.022m-.076-7.238-.121.137-.339.2-.793-.339h.029c.283,0,.934-.17,1.047-.452l.226-.057c-.057.113,0,.2,0,.339l-.048.171M59.042,9.5h.028l.142.2-.255.057.226.028-.028.086a.827.827,0,0,1-.368,0,.408.408,0,0,0,.312.141l-.029.029-.2.028-.2-.028a.591.591,0,0,0,.339.141l-.028.029h-.113a.792.792,0,0,1-.255,0l.283.141-.057.057h-.084l-.226-.028a.719.719,0,0,0,.254.141l-.113.113a.562.562,0,0,1-.31,0l.226.114-.113.113h-.283c.029.057.113.084.17.113-.084.057-.367.281-.48.281l-.228-.028-.226-.48-.057-.086v.086l-.17-.029a.377.377,0,0,0-.225.086l.084-.029.339.057.028.113a1.7,1.7,0,0,0-.394.057h.084l.339.029.028.084-.367.057H57.2l.339.057v.057a.566.566,0,0,0-.31.084l.141-.028.17.028.029.086-.312.084.142-.028.226.028c.057.17.283.368.283.566l-.113.226a3.007,3.007,0,0,0,.509.934.622.622,0,0,1-.509.367c-.2,0-.255-.113-.283-.283a.516.516,0,0,0,.2-.17l-.226.113-.028-.084.226-.2-.255.113-.028-.113a.375.375,0,0,0,.2-.17l-.226.113-.028-.057.2-.2a.365.365,0,0,1-.283.113c-.057-.113-.2-.2-.281-.31a.392.392,0,0,0,.225-.171.465.465,0,0,1-.31.114c-.339,0-.2-.368-.31-.595-.057-.17-.51-.763-.68-.763-.141,0-.168-.029-.225-.142v-.113a1.286,1.286,0,0,0-.226-.651,1.383,1.383,0,0,1,.113.68v.057l-.142.028a.391.391,0,0,1-.2-.339v.086a.445.445,0,0,0,.084.254l-.084.086a.865.865,0,0,1-.2-.255l.113.312-.17-.226.113.254-.028.029-.142-.226A.445.445,0,0,0,55,11.17H54.97l-.142-.2.086.225-.057.057L54.715,11l.086.283-.255.057c-.2-.113-.423-.283-.423-.509l.057-.2.452-.363L55,9.84h.084c.283,0,.595-.338.763-.508l.255.283c.084.028.312.084.312.168s-.368.113-.368.4c0,.17.226.312.4.339a.33.33,0,0,1-.17-.283c0-.226.538-.028.538-.367,0-.254-.4-.367-.4-.566a.607.607,0,0,1,.283-.425c0,.538.706.454.706.737,0,.141-.254.281-.254.508,0,.452.819.368.819.877l-.057.2a.359.359,0,0,0,.142-.31c0-.425-.51-.4-.51-.708,0-.17.368-.31.368-.621,0-.51-.679-.368-.679-.877,0-.48.367-.537.367-1.1a1.643,1.643,0,0,0-.17-.735c.086,0,.113-.113.113-.17a1.038,1.038,0,0,0-.2-.481,1.449,1.449,0,0,1,.2-.425.693.693,0,0,0,.17.312v.17a2.3,2.3,0,0,0,.481,1.47.577.577,0,0,0-.17.4.594.594,0,0,0,.2.4l-.029.226a.394.394,0,0,0,.283.339l-.028.113a.273.273,0,0,0,.211.262l.382.05L58.71,9.42c-.113-.046-.2-.116-.2-.229l.028-.17c-.084,0-.283-.142-.283-.255a.432.432,0,0,1,.113-.283.39.39,0,0,1-.2-.338.523.523,0,0,1,.141-.339l.057.057-.028.283c0,.141.028.225.2.225a.65.65,0,0,0-.17.339.257.257,0,0,0,.283.226l-.057.142a.26.26,0,0,0,.283.255l.141-.029.029.2M53.811,5.487l.283-.057a.386.386,0,0,0,.141.225l-.423-.168m-.057,7.294-.029-.028-.028-.086h.084m-.113-2.4V9.53h.142v.65m.763-4.014-.2.145-.222.081a.191.191,0,0,1-.17-.255l-.086.029c-.17,0-.368-.086-.368-.255l.029-.17,1.018.425.3.1.3.124a.7.7,0,0,0-.228.452.983.983,0,0,0,.567.792c.028.31-.086.734.394.734h.113c-.621-.2-.17-.593-.451-.876a.5.5,0,0,1-.481-.566,1.257,1.257,0,0,1,.142-.537,1.648,1.648,0,0,1,1.13,1.357,2.068,2.068,0,0,1-.4,1.046,1.648,1.648,0,0,0,.425-1.075,1.278,1.278,0,0,0-.2-.708c.312.142.623.339.623.708a2.092,2.092,0,0,1-.086.452c-.2.4-1.159,1.584-1.611,1.584-.142,0-.171-.2-.171-.283l.029-.141a.276.276,0,0,0,.255-.114l.226.086a.33.33,0,0,0,.31-.255.322.322,0,0,1-.254.17.257.257,0,0,1-.2-.084.56.56,0,0,1-.339.17.279.279,0,0,1-.283-.255l.057-.17a.447.447,0,0,0,.339-.141.3.3,0,0,0,.255.141.468.468,0,0,0,.339-.226.542.542,0,0,1-.283.142.425.425,0,0,1-.255-.113L55.2,8.6a.768.768,0,0,1-.452.226c-.17,0-.339-.084-.339-.283l.028-.17a.648.648,0,0,0,.312.086.327.327,0,0,0,.368-.4V8c0,.17-.086.367-.284.367a.634.634,0,0,1-.367-.168l.113-.113a.5.5,0,0,1-.31.17.846.846,0,0,1-.283-.4,1.006,1.006,0,0,1,.113-.312l.17.029c0,.113.057.283.2.283a.8.8,0,0,0,.48-.2.918.918,0,0,1-.367.113c-.17,0-.2-.057-.17-.2V7.551c.17-.057.2-.255.452-.255h-.086c-.2,0-.17.228-.48.228a.452.452,0,0,1-.4-.228c-.141-.028-.283-.113-.283-.226a.529.529,0,0,1,.086-.225l.141.028a.426.426,0,0,0,.425.31.741.741,0,0,0,.508-.254.817.817,0,0,1-.508.141.306.306,0,0,1-.283-.2l.367-.141-.339.028c-.17,0-.367-.028-.367-.226a.479.479,0,0,1,.084-.283h.17a.226.226,0,0,0,.255.2.416.416,0,0,0,.243-.1l.181-.183m-.848,4.665.2-.057a.691.691,0,0,0,.367.593l-.339.029-.226-.566m0,0,.057.294.142.272h-.255l-.106-.248L53.5,10.86m-.142,1.412v-.028h.113l-.113-.086h.17l-.081-.021-.059-.063h.17l-.142-.057.029-.029h.17l-.142-.057.057-.057.2.057-.141-.084.17-.029c.226,0,.339.226.367.452a.835.835,0,0,1-.367.142l-.21-.05-.188-.092m-.084-1.923V9.5l.17.028v.819m.059,2.1.252.054a.8.8,0,0,0,.452-.171h.028l.029.029c0,.142-.4.254-.509.254a.81.81,0,0,1-.454-.168l.113.028-.141-.142.229.117m-.05-1.308.1.258-.2-.029a1.51,1.51,0,0,1-.113-.508c.057.028.113,0,.17,0l.039.279M53.1,10.86h.113l.057.508H53.1c-.057-.028-.057-.141-.057-.2l.057-.31m-.092-3.2-.05.087c0,.2.312.254.452.283,0-.086-.31-.17-.31-.283,0-.057.4-.142.452-.17h-.2l-.23.032-.116.051m-.077,2.574V9.417l.17.029v.876m-.2-4.977.2.029.339-.086c.057.113.142.142.255.2a1.028,1.028,0,0,1,.4.2l.876.4.848.312a.379.379,0,0,0,0,.254,2.235,2.235,0,0,0-.65-.4l-2.262-.9m.141,1.64-.183.046a.173.173,0,0,0-.1.152c0,.142.17.284.283.368,0-.084-.17-.226-.17-.339,0-.17.31-.2.4-.2l-.226-.028m-.188,7.189.152-.166.206-.379h.057c.113,0,.17.029.17.142,0,.17-.452.679-.622.679-.084,0-.113-.086-.141-.17l.179-.106m-.236-4.108v-.79l.141.084v.792M52.651,6.3l-.08.062-.033.091c0,.17.2.31.312.367a.719.719,0,0,1-.226-.367c0-.113.31-.17.394-.17L52.85,6.25l-.2.046m-.028-.808-.117.025-.052.087c0,.2.31.312.452.339-.057-.057-.339-.254-.339-.339l.226-.057-.17-.055M52.285,9.7V9.078l.17.113V9.9m.057-5.428.211.046.212-.018.283.226a3.09,3.09,0,0,1-.735.17.4.4,0,0,1-.4-.339l.425-.084M52.1,9.435l-.066-.074V8.879l.113.113V9.53m.368,2.206.084-.113L52,11.537l-.4-.028.4.084m-.226-7.549.092.077L52,4.157l.255.028a.313.313,0,0,0,.2.255L52,4.469c-.283,0-.621-.029-.621-.368V4.017l.394.028m.4,8.031.113-.113L52,11.933l-.65-.084.65.17m-.2.31.084-.084-.621-.086m.31-4.891.172.074.251.01a.678.678,0,0,0,.341-.084.528.528,0,0,0,.4.141l.057-.028c-.2,0-.452-.086-.452-.339a.344.344,0,0,1,.084-.254c-.084-.057-.226-.17-.226-.255,0-.2.283-.339.283-.452,0-.17-.4-.339-.4-.65l.057-.226,1.215.48-.028.2a.352.352,0,0,0,.141.284l-.028.226a.462.462,0,0,0,.142.367.534.534,0,0,0-.086.283c0,.2.2.31.368.367l.084.086a.626.626,0,0,0-.141.312c0,.2.283.537.509.509l-.057.2a.35.35,0,0,0,.338.367l-.028.142a.377.377,0,0,0,.226.312V9.36l.028.086-.452.057c-.225,0-.508-.057-.508-.341l.057-.226H53.7c-.228,0-.425-.028-.425-.283a.664.664,0,0,1-.339.057c-.057,0-.48-.113-.48-.226s.31-.225.4-.254c.084.254.394.31.593.31V8.427H53.33c-.283,0-.48-.057-.423-.367a.3.3,0,0,1-.255-.141.728.728,0,0,1-.538.17L52,8.06a.3.3,0,0,1-.113-.31l-.283.084a.365.365,0,0,1-.394-.452l.183-.036.183-.077m-.029-.028-.254.091-.254.05a.238.238,0,0,1-.255-.255V7.069h.057a2.609,2.609,0,0,0,.622-.168l-.028.112.023.135.088.092m-.7-3.952.163.134v.029c0,.226.17.339.4.339l.254-.029.057.2c-.338-.057-1.046-.2-1.046-.68l.057-.17.12.178m.361,3.1.077.086a.529.529,0,0,0,.317.084H52l.171-.029.141.2-.028.281.028.228L52,7.211c-.17,0-.508-.057-.508-.283l.055-.113H51.52a2.694,2.694,0,0,1-.566.113c-.141,0-.312,0-.312-.17l.029-.17.538-.2m-.425,1.95-.021.052-.065.032a.089.089,0,0,1-.084-.084.074.074,0,0,1,.084-.084l.065.021.021.063m0,3.93h-.113a.8.8,0,0,1-.2.368l.208-.163.1-.206m.011-.378.018-.385h.028c.086.113,0,.423.255.423.226,0,.2-.4.2-.537l.283-.2h.113l.31.029.595.141c.226.057.452.057.509.312a4.905,4.905,0,0,1-.819.706L52,12.641h-.339l.312.084.057.113H52a.673.673,0,0,1-.339,0,.437.437,0,0,0,.312.086h.113l.2.2a.6.6,0,0,0-.113.312.623.623,0,0,1,.2-.255l.057.057a.6.6,0,0,0-.113.312l.2-.226h.084a.759.759,0,0,0-.141.31l.2-.226.452.17v.057l-.039.16c-.074.183-.244.406-.414.406a.553.553,0,0,1-.226-.084l-.113.141h-.028c-.086-.281-.029-.451-.284-.706a3.688,3.688,0,0,0-1.046-.679c-.141-.057-.538-.057-.538-.226a3.67,3.67,0,0,1,.17-.509.18.18,0,0,0,.152-.069l.058-.168m.127,2.45.359.119.352.044A.782.782,0,0,0,52,14.421a.452.452,0,0,0,.142-.226c.029.113.057.17.17.17.057,0,.142-.057.142-.084a.47.47,0,0,0,.2,0v.028a.179.179,0,0,0,.2.2.792.792,0,0,0,.593-.4l.2-.029.084.057s-.452.509-.622.509a.19.19,0,0,1-.142-.113.518.518,0,0,0,.142.339A3,3,0,0,0,52,14.62h-.084a2.273,2.273,0,0,0-1.131.31v-.057a.526.526,0,0,1,.2-.339,1.653,1.653,0,0,0-.68-.283l-.028-.281.3.2.343.171m3.115-9.366.113.028a1.411,1.411,0,0,0,.989-.452,1.684,1.684,0,0,1-.876.339.631.631,0,0,1-.481-.254,1.885,1.885,0,0,0,.622-.425,1.765,1.765,0,0,1-.848.368c-.142,0-.339.028-.425-.142a4.276,4.276,0,0,0,.737-.339,2.91,2.91,0,0,1-1.075.283c-.142,0-.339-.057-.339-.226a3.33,3.33,0,0,0,.819-.339,3.578,3.578,0,0,1-1.018.255A.383.383,0,0,1,52,4.017a.443.443,0,0,1-.17-.339L52,3.621l.341-.17L52,3.564a1.6,1.6,0,0,1-.508.084c-.113,0-.283-.028-.283-.17V3.451h.084a2.229,2.229,0,0,0,.706-.2l.113-.086L52,3.224a2.129,2.129,0,0,1-.706.17.491.491,0,0,1-.48-.367h.17a1.438,1.438,0,0,0,.621-.113l-.394.028c-.339,0-1.131-.141-1.131-.621l.041-.166.127-.146.855.541.9.477,1.47.735c.651.255,2.178.651,2.574,1.188a.62.62,0,0,0-.283.255l-.283.057c-.084.254-.735.367-.961.367a.237.237,0,0,1-.254-.254l.141-.113h.084c.452,0,.877-.057,1.076-.509a.951.951,0,0,1-.906.423L54.4,5.148a.919.919,0,0,1-.537.226.33.33,0,0,1-.283-.113l.452-.283-.457.194a1.562,1.562,0,0,1-.477.088.348.348,0,0,1-.367-.339,1.889,1.889,0,0,0,.508-.2l.142.029.2-.029.215.159.237.1M50.22,8.54l-.086.086c-.084,0-.112-.057-.112-.086,0-.084.028-.113.112-.113l.054.025.032.088m.226-2.459.079.132a.669.669,0,0,0,.43.179l.226-.029v.029l-.389.116-.432.054c-.113,0-.564,0-.564-.226a.535.535,0,0,1,.141-.283l.509.028m-.17,8.228.2.057a.864.864,0,0,0-.508.339l.2.057c.057.029.113.057.113.113a.159.159,0,0,1-.17.142.314.314,0,0,1-.31-.312.383.383,0,0,1,.3-.37l.182-.026m-.763-5.542-.025.09-.088.023c-.057,0-.086-.028-.086-.113a.075.075,0,0,1,.086-.084l.088.021.025.063m-.029-.141-.192.063-.063.19c0,.113.086.2.255.2a.219.219,0,0,0,.226-.2.266.266,0,0,0-.07-.19l-.156-.063m.233-1.207.276-.01-.339-.057c-.254,0-.651.2-.708.425a.791.791,0,0,1,.481-.312l.29-.047m-.826.019.342-.17a1.7,1.7,0,0,1,.76-.086.552.552,0,0,0-.367-.084,1.269,1.269,0,0,0-1.047.595l.312-.255m-.114,1.385-.036.079-.076.034a.118.118,0,0,1,0-.226l.076.036.036.077m.113,1.47-.084-.028-.029.028c0,.086-.141.226-.254.283l.215-.109.152-.174m-.17-1.611-.154.057-.07.141a.249.249,0,0,0,.225.255.274.274,0,0,0,.255-.255.18.18,0,0,0-.086-.141l-.17-.057m-.159,1.732.086-.132.046-.159-.084-.028a1.35,1.35,0,0,1-.283.48l.236-.161m-.116-2.981.335-.229a2.512,2.512,0,0,1,.647-.3,2.112,2.112,0,0,1,.735-.142l.31.057a.393.393,0,0,0,.2.226V7.1a.3.3,0,0,0,.255.283l.4.735c.254.48.367,1.018.677,1.5a1.675,1.675,0,0,0,1.273.847,2.412,2.412,0,0,0,1.555-.96.352.352,0,0,0,.171.31,4.081,4.081,0,0,1-.735.65,1.819,1.819,0,0,1-.99.284A1.584,1.584,0,0,1,52,10.1a10.281,10.281,0,0,1-.763-1.584c-.141-.283-.423-.819-.764-.932a.977.977,0,0,1,.255.226h-.057c-.622,0-1.188.4-1.81.4a.722.722,0,0,1-.706-.425l.084-.141.206-.2m-.043.739.214.086.246.028c.622,0,1.272-.4,1.9-.452l.2.312-.17-.029c-.651,0-1.244.48-1.9.48a.925.925,0,0,1-.847-.564l.113-.226.087.218.16.149m.062-3.8.228.063a.986.986,0,0,0,.848.481.8.8,0,0,1-.566.17.983.983,0,0,1-1.1-.99L47.9,3.96a1.32,1.32,0,0,0,.353.314l.211.1m-.112,2.411v.057l-.123.088-.188.023c-.086,0-.368-.055-.368-.2l.113-.028L48,6.759l.357.029m-.05.657-.177.1a1.01,1.01,0,0,1-.4.092c-.057,0-.17,0-.17-.086s.708-.17.848-.255l.029.029-.135.12m.05-.4-.058.07a.756.756,0,0,1-.338.07c-.086,0-.452-.028-.452-.17,0-.057.028-.112.084-.112l.283.084.23.05.251.007m0,.141.029.058a2.334,2.334,0,0,1-.737.168c-.141,0-.17-.028-.17-.168l.057-.058a.68.68,0,0,0,.339.029l.481-.029m3.59-1.668-.328.079-.349.034a.714.714,0,0,1-.595-.226l.481-.2a1.585,1.585,0,0,1-.651.141.966.966,0,0,1-.763-.423,1.849,1.849,0,0,0,.677-.17,2.3,2.3,0,0,1-.593.084.978.978,0,0,1-.934-.4h.029A1.142,1.142,0,0,0,49.6,4.3a1.648,1.648,0,0,1-.538.084,1.316,1.316,0,0,1-1.017-.452h.819l-.48-.051c-.6-.069-1.443-.218-1.443-.684l.086-.255,2.466,1.11L52,5.119V5.2l-.05.154-.007.156.177.251.164.145.1.063.074.106c0,.113-.341.255-.283.425L52,6.533h-.17a.564.564,0,0,1-.537-.226l.4-.141a1.666,1.666,0,0,1-.65.113c-.2,0-.4-.057-.454-.255l.341-.17a1.05,1.05,0,0,1-.51.113.647.647,0,0,1-.593-.283l.31-.17a2.6,2.6,0,0,1-.65.113A.485.485,0,0,1,49,5.261a.918.918,0,0,0,.567-.339,1.075,1.075,0,0,0,.96.509.714.714,0,0,0,.651.281.9.9,0,0,0,.679.312l.292-.061.132-.052L52,5.938a.806.806,0,0,1-.621-.226l.292-.077.272-.12m-4.5,1.047-.088.063-.025.106c-.31-.029-.877-.368-.877-.737,0-.113.142-.17.255-.113l.735.68m-.254.339-.086.168c-.283-.028-1.188-.508-1.188-.819a.211.211,0,0,1,.339-.17c.17.142.226.339.452.509l.481.312m-1.33-2.149.2.081a2.632,2.632,0,0,1,.4.6h-.113a.236.236,0,0,0-.226.084.975.975,0,0,1-.338-.593l.01-.106.074-.063m0-.2-.036.079-.077.034a.122.122,0,0,1-.113-.113.1.1,0,0,1,.113-.113l.077.025.036.088m.444,2.291.149.084a2.5,2.5,0,0,0,.623.283.176.176,0,0,0,0,.17c-.255,0-1.443-.368-1.443-.65,0-.057.057-.312.142-.312l.528.425m-.272.3.592.261.452.114.084.141H47c-.31,0-1.555-.113-1.555-.566,0-.057.057-.17.113-.17l.483.219M45.611,4.44l-.054.127-.116.043a.163.163,0,0,1-.17-.17.182.182,0,0,1,.17-.17l.116.054.054.116m-.368.255.208.07.188.156c.2.17.17.423.283.65-.113,0-.226.141-.31.2-.226-.2-.567-.537-.567-.847l.057-.178.142-.048M45.3,6.449l-.028-.057a.369.369,0,0,1,.339-.368.367.367,0,0,1,.451-.312.273.273,0,0,1,.283-.2.55.55,0,0,1,.4.254l-.17.029-.142-.057c-.113,0-.2.141-.226.2h-.086c-.226,0-.281.171-.31.368,0,0-.31.312-.283.509-.113.029-.254.086-.254.226a.351.351,0,0,0,.113.226c-.086.057-.057.113-.057.2-.113-.058-.284-.086-.284-.226a.2.2,0,0,1,.086-.171.336.336,0,0,1-.086-.281.368.368,0,0,1,.143-.3l.112-.044m-.084-2.036-.021.1a.248.248,0,0,1-.234.131.227.227,0,0,1,0-.454.247.247,0,0,1,.234.132l.021.1m-.441.543.116.1a9.282,9.282,0,0,1,.665.859c-.142,0-.226.113-.255.255-.283-.2-.9-.595-.9-.934a.29.29,0,0,1,.283-.31l.1.034M44.2,14.647l.527-.272a3.5,3.5,0,0,1,1.48-.321,2.866,2.866,0,0,1,1.866.679,1.737,1.737,0,0,0-.764-.113,3.6,3.6,0,0,0-.932.254l.452-.4h-.254a3.84,3.84,0,0,0-1.33.339l.339-.4a2.129,2.129,0,0,0-.651.05l-.734.177m.537-10.094-.026.137a.325.325,0,0,1-.313.2.339.339,0,1,1,0-.679.325.325,0,0,1,.313.2l.026.137m.452,1.782-.11.063-.088.106c-.226-.113-.932-.425-.932-.708,0-.057.113-.367.226-.367.057,0,.247.2.441.41l.463.5M44.055,6.08l.876.509A.407.407,0,0,0,44.9,6.9c-.312-.029-.932-.283-.932-.651l.021-.106.063-.063m0-1.244.166.063.061.192a.2.2,0,0,1-.226.2c-.141,0-.254-.084-.254-.2a.248.248,0,0,1,.074-.192l.179-.063m.018.53.039.092c0,.113-.057.2-.17.2a.17.17,0,0,1,.029-.338l.1.048m-.046.432-.036.079-.077.034a.13.13,0,0,1-.113-.142l.084-.084.1.036.039.077m5.626.452-.268-.058a.607.607,0,0,1-.524-.593l.057-.225a.578.578,0,0,0,.454.345l.2.022.1.124.149.1-.1.131-.074.152v.057c0,.339.593.4.819.339v.113a3.008,3.008,0,0,0-.876-.141,6.232,6.232,0,0,0-1.018.113l-.057.141a.542.542,0,0,0,.142.283l-.057.057c-.113,0-.2-.17-.2-.283l.086-.2-.086.028a1.244,1.244,0,0,1-.622-.2l-.057.113a.158.158,0,0,0-.17.141.171.171,0,0,0-.113.254.158.158,0,0,0-.086.142.208.208,0,0,0,.057.17c-.057,0-.084.057-.084.113a.19.19,0,0,0,.113.142V7.72l-.029.029a.171.171,0,0,1-.168-.2.2.2,0,0,1-.086-.17.154.154,0,0,1,.086-.141l-.057-.114a.176.176,0,0,1,.112-.17L47.279,6.9c0-.057.057-.142.113-.142V6.731a.108.108,0,0,1,.141-.086c.029-.084.086-.084.142-.084a3.75,3.75,0,0,1-1.527-1.839c-.057-.113-.2-.452-.367-.452h-.057a.507.507,0,0,0-.452-.113.474.474,0,0,0-.341-.141c-.084,0-.2.028-.226.084l-.338-.084a.46.46,0,0,0-.481.48v.2a.306.306,0,0,0-.2.283l.057.283c-.029,0-.086.057-.086.141l.057.17-.028.17.084.339a3.144,3.144,0,0,0,3.11,1.753,4.82,4.82,0,0,0,1.3-.17,6.108,6.108,0,0,0-.594,1.385,1.561,1.561,0,0,1-.621,1.047,2.789,2.789,0,0,1-1.273.254c-.48.057-1.1.341-1.1.9,0,.4.283.481.283.708,0,.283-.65.423-.65.9,0,.339.423.65.679.763a.637.637,0,0,1-.283-.423c0-.509,1.217-.255,1.217-.961,0-.452-.566-.735-.566-1.188l.028-.113c.4-.254,1.244-.084,1.839-.339a1.618,1.618,0,0,0,.835-.819l.127-.4.05-.255.007-.255c-.284,1.3-.793,1.782-2.065,1.811l-.566.028a.573.573,0,0,0-.452.566L45.215,11v.057c0,.452.537.763.537,1.188,0,.566-.877.423-1.131.735.17-.566,1.047-.255,1.047-.821a.26.26,0,0,0-.113-.226l.028.113a.286.286,0,0,1-.254.312l.028-.17c0-.425-.4-.651-.4-.934a.371.371,0,0,1,.084-.225.425.425,0,0,0-.2.31c0,.254.226.4.226.622,0,.254-.312.31-.481.423.142-.141.368-.226.368-.423,0-.283-.283-.312-.283-.622,0-.537.566-.848,1.018-.9.452-.086.934.057,1.33-.255.621-.423.706-1.414.989-2.12a.886.886,0,0,0,.932.622A3.191,3.191,0,0,0,50.079,8.4a.188.188,0,0,0-.113.2.218.218,0,0,0,.2.226.223.223,0,0,0,.226-.226.229.229,0,0,0-.255-.226l.538-.168a.286.286,0,0,0-.113.2c0,.113.084.17.2.17a.187.187,0,0,0,.2-.17.237.237,0,0,0-.2-.2h.2A8.972,8.972,0,0,0,52,10.349a1.673,1.673,0,0,0,.906.481l-.029.255.029.254A3.9,3.9,0,0,1,52,11.086a.393.393,0,0,1-.17-.312.678.678,0,0,1-.423.452l-.226.141.029.2c0,.084,0,.226-.086.254-.226,0-.057-.4-.283-.4s-.028.595-.226.595c-.17,0-.142-.509-.255-.509-.17,0-.028.622-.226.622-.225,0-.112-.509-.31-.509s-.113.452-.283.452c-.141,0-.113-.425-.141-.538l-.255.029a2.8,2.8,0,0,0,1.5-1.047H50.7a.439.439,0,0,0,.368-.226.5.5,0,0,1-.283.113h-.113l.057-.084a.5.5,0,0,0,.368-.339.384.384,0,0,1-.312.2l.086-.367a2.646,2.646,0,0,1-1.755,1.668,2.025,2.025,0,0,0-.564.255.736.736,0,0,0-.255.452.751.751,0,0,1-.4.141h.368v.086a.945.945,0,0,1-.425.142.954.954,0,0,0,.4,0v.112a.626.626,0,0,1-.4.086.971.971,0,0,0,.4.028,1.139,1.139,0,0,0,.086.425v.028l.141-.028a.182.182,0,0,1,.17.141c0,.283-.735.651-.961.651-.113,0-.142-.028-.142-.113l.029-.142a1.094,1.094,0,0,0,.672-.3l.092-.207-.108.17a1.318,1.318,0,0,1-.657.255c-.029-.2-.142-.17-.283-.17-.084,0-.2-.029-.2-.142,0-.226.65-1.244.65-1.781,0-.2-.2-.255-.2-.4,0-.283.793-.283.793-1.075a1.231,1.231,0,0,0-.12-.545L48.1,9.389l.127.29.043.331c0,.877-.85.708-.85,1.16,0,.17.2.254.2.4,0,.509-.65,1.47-.65,1.781,0,.283.226.255.423.255l.028.028c.057,0,.057.057.086.113l-.029.171.046.143.153.081.261-.055a1.618,1.618,0,0,0,.673-.425.184.184,0,0,1,.112.142c0,.2-.706.537-.932.537l-.086-.029-.028-.084v-.086l-.022.1.022.1a3.009,3.009,0,0,0-1.47-.4,3.736,3.736,0,0,0-2.488.989,5.608,5.608,0,0,1,1.64-.423,3.261,3.261,0,0,0-.4.537,4.065,4.065,0,0,1,1.328-.423l.255-.057-.819.706a4.44,4.44,0,0,1,1.668-.537,7.5,7.5,0,0,1,.821.084l-.113-.2a2.058,2.058,0,0,0,.847.141.318.318,0,0,0,.17,0,2.156,2.156,0,0,1-.31-.452l.057-.113c.113,0,.226.509.566.509l.142-.028-.651-.9a.3.3,0,0,0-.254-.142l.055-.226a.23.23,0,0,0-.225-.254l-.17.028V12.81c0-.622.113-.99.706-1.188h.312c0,.141-.029.537.2.537.255,0,.2-.4.283-.48l.029.028c.028.17.057.481.281.481.17,0,.226-.312.226-.452.029.113.086.339.2.4a1.233,1.233,0,0,0-.255.509V12.7c0,.17.2.2.339.226A2.873,2.873,0,0,1,52,13.715a.73.73,0,0,1,.113.423c0,.057-.057.142-.113.142a.641.641,0,0,1-.31.084,2.1,2.1,0,0,1-1.64-.848,2.275,2.275,0,0,0,.141.735h-.057a.445.445,0,0,0-.508.452.476.476,0,0,0,.48.481.317.317,0,0,0,.339-.283.481.481,0,0,0-.17-.283.422.422,0,0,1,.283-.086l.226.029a.343.343,0,0,0-.17.339l.057.254A2.4,2.4,0,0,1,52,14.733h.113a2.7,2.7,0,0,1,1.075.2,1.311,1.311,0,0,0,.567.086l.593-.057-.537-.4.057-.057c.2,0,.367.283.537.339l.057-.086c0-.283-.622-.819-.9-.819l.029-.2c0-.17-.114-.254-.284-.254l-.2.057c-.17-.086-.99-.679-.99-.877l.425-.339a2.142,2.142,0,0,0,.819-.848l.284.029v.226a.552.552,0,0,0-.368.509l-.113.113c0,.142.31.283.425.31a.163.163,0,0,0,.17.17c.084,0,.113-.084.141-.17.113-.028.425-.168.425-.31a.122.122,0,0,0-.113-.113.518.518,0,0,0-.425-.509v-.226c.4,0,1.3-.086,1.5-.452h.283a.324.324,0,0,0,.31.17,1.731,1.731,0,0,1,.595.679c.113.283-.029.651.423.622a2.382,2.382,0,0,1,.566,1.131v.028a.365.365,0,0,0-.113.284.329.329,0,0,0,.367.31l.2-.029.086.113v.057l-.341.057c-.283,0-.621-.141-.621-.452a.377.377,0,0,1,.057-.225h-.113a.536.536,0,0,0-.595.593l.086.339h-.228c-.17,0-.621-.057-.621-.283,0-.255.423-.312.423-.593,0-.142-.142-.228-.283-.284a.709.709,0,0,1,.452-.141.778.778,0,0,1,.509.2,1.063,1.063,0,0,0-.989-.735,1.14,1.14,0,0,0-1.047,1.131,1.086,1.086,0,0,0,1.215,1.1h.283v.028a.648.648,0,0,0,.341.509c.283-.4.9-.339,1.328-.339a1.254,1.254,0,0,0,.848-.31l.566.057.255-.029a2.028,2.028,0,0,1-.312-.423l.086-.113a2.774,2.774,0,0,1,.4.452.134.134,0,0,0,.141-.142.29.29,0,0,0-.141-.226,1.346,1.346,0,0,1,.734-.17l.425.057-.425.17a1,1,0,0,0-.254.651v.226a1.9,1.9,0,0,1,.254-.4,1.145,1.145,0,0,1,.425-.086l.961.086.579-.072.579-.154a.875.875,0,0,0,.481.113,1.83,1.83,0,0,0,.538-.113h-.029c-.17,0-.423-.113-.423-.283a.189.189,0,0,1,.113-.17l.31.028a1.32,1.32,0,0,0,.593-.141l-.084.819a2.312,2.312,0,0,1,1.7-.706,1.305,1.305,0,0,1,.595.113c.254.792,1.1.706,1.328,1.131.142-.255.537-.339.792-.509a1.1,1.1,0,0,0,.509-.622,1.6,1.6,0,0,1,.622-.113,2.2,2.2,0,0,1,1.668.706,4.137,4.137,0,0,0-.057-.819,1.407,1.407,0,0,0,.567.141,2.2,2.2,0,0,0,.593-.113.5.5,0,0,1,.113.339.4.4,0,0,1-.48.425l.367.028c.339,0,.848-.057.821-.509.339,0,.79.113.79.509a1.189,1.189,0,0,1-.113.425.976.976,0,0,0,.51-.961l.254-.029a2.228,2.228,0,0,0,1.046.283c.312,0,.85-.113.934-.48l.283-.057h.057a.308.308,0,0,1,.368.367.523.523,0,0,0,.141-.339A.4.4,0,0,0,77.621,14a2.855,2.855,0,0,1,1.1-.226c.2,0,.452.029.452.283,0,.283-.509.254-.708.226a1.042,1.042,0,0,0,1.1.4l.057.2c0,.255-.452.312-.651.339a1.933,1.933,0,0,0,.567.057c.281,0,.9-.084.989-.452a1.562,1.562,0,0,0,1.33.679.945.945,0,0,0,.876-.367.991.991,0,0,0,.566.141c.339,0,1.47-.2,1.669-.509l.79.029a4.692,4.692,0,0,1,1.188.254,6.031,6.031,0,0,0,1.981.509,1.49,1.49,0,0,0,1.073-.4,16.581,16.581,0,0,0,2.32.4c.763,0,1.724-.339,1.724-1.272,0-.651-.48-.934-1.075-1.018a.637.637,0,0,1,.425.595A2.027,2.027,0,0,0,92.8,13.8h-.4c.31.084.65.281.65.65,0,.48-.367.679-.79.679L91.73,15.1c.283,0,.9-.057.9-.452a.717.717,0,0,0-.17-.4l.029-.113a.554.554,0,0,0-.283-.367l-.057.029-.086-.2a2.81,2.81,0,0,0-.368-.792c-.254-.425-.79-.934-.79-1.414a7.969,7.969,0,0,1,.65-1.7l.17-.679a4.266,4.266,0,0,0,.086-.819l-.029-.312V8a3.186,3.186,0,0,1-1.866-.99l-.086-.621c.4.4,1.132,1.3,1.726,1.3h.084a6.1,6.1,0,0,1-1.837-1.357c-.057-.623-.2-1.244-.283-1.9a5.537,5.537,0,0,1,2.064,1.9,6.217,6.217,0,0,1,.99,3.477v.4c0,.481.4.735.4,1.131,0,.113-.057.141-.142.141-.17-.537-.395-.508-.423-1.215l-.028.2c0,.595.367.877.367,1.131,0,.086-.029.113-.113.113-.226-.509-.48-.509-.48-1.188,0-.4.084-.79.084-1.186A2.616,2.616,0,0,0,92,8.191l-.214-.3.177.316a2.648,2.648,0,0,1,.192,1.041c0,.425-.113.792-.113,1.215,0,.792.593,1.16.593,1.669a.862.862,0,0,1-.141.368l.084.028A1.414,1.414,0,0,0,93.2,11.48c0-.451-.312-.593-.481-.961a2.887,2.887,0,0,1-.028-.989,3.262,3.262,0,0,0-.085-.735,6.231,6.231,0,0,0-1.188-2.941,9.133,9.133,0,0,0-5.655-2.771,16.372,16.372,0,0,0-2.346-.17,1.9,1.9,0,0,0-.792-.283,1.476,1.476,0,0,0-1.273-.821,1.4,1.4,0,0,0-.593.142,1.923,1.923,0,0,0-.9-.2,1.606,1.606,0,0,0-1.273.85c-.423.621-.96.848-1.272,1.582a3.861,3.861,0,0,0-.2.963c-.141.113-.48.423-.48.621,0,.142.2.142.283.17a3.187,3.187,0,0,0-.31.963c-.226,0-.481-.17-.708-.17-.086,0-.17.028-.17.141,0,.226.481.48.651.537a4.959,4.959,0,0,0-.341,1.556c0,.9.284,1.81,1.273,2.036l.283.029a1.542,1.542,0,0,0,1.244-.708c.255-.142.848-.255.848-.622,0-.226-.31-.2-.452-.2h-.141c-.029-.142-.171-.595-.341-.595-.254,0-.283.452-.283.622a1.347,1.347,0,0,1-.734.4c-.284,0-.341-.226-.341-.452A2.627,2.627,0,0,1,78.411,7.72l-.055.339.055.142c.113,0,.623-.708,1.132-.708.31,0,.593.086.9.086a1.916,1.916,0,0,0,.679-.113v.084a.319.319,0,0,0,.084.226.425.425,0,0,0-.113.255c0,.057.057.113.113.17l-.057.168a.224.224,0,0,0,.084.2.656.656,0,0,0-.084.31.3.3,0,0,0,.2.283c-.281,1.018-2.346,1.018-2.6,2.574l-.028-.086c-.142.029-.283.113-.283.283l.057.2c-.17.057-.423.2-.423.425,0,.338.677.564.932.65l-.226-.029a2.25,2.25,0,0,0-1.47.538l-.142.113V13.8a.4.4,0,0,0-.281-.4,2.073,2.073,0,0,0,.2-.819l-.029-.2a1.235,1.235,0,0,1-.508.425,2.458,2.458,0,0,0-.567-.848l.029.339a1.735,1.735,0,0,1-.537,1.357,2.223,2.223,0,0,1-.509.4V13.97a1.592,1.592,0,0,0-.284-.85c-.141.509-.452,1.018-1.046,1.018a1.026,1.026,0,0,1-.509-.113V13.97a1.661,1.661,0,0,0-.142-.651,1.309,1.309,0,0,1,.764-.312.563.563,0,0,1,.312.057l.028-.2a1.046,1.046,0,0,0-.48-.821,2.531,2.531,0,0,1,1.357-.31l.706.028a1.942,1.942,0,0,0-1.414-.509,2.79,2.79,0,0,0-.679.086l.452-.593c.113-.029.113-.086.2-.171a2.413,2.413,0,0,1,.877-.48h.226a1.555,1.555,0,0,0-.622-.17l-.4.057a1.684,1.684,0,0,1,.9-.735,1.028,1.028,0,0,0-.423-.086,1.12,1.12,0,0,0-.679.2A4.469,4.469,0,0,1,75.3,7.494H75.16A1.753,1.753,0,0,0,74,8.2a15.507,15.507,0,0,1,1.385-2.4,3.75,3.75,0,0,0-2.149,2.291A11.368,11.368,0,0,1,75.3,4.553a4.249,4.249,0,0,0-2.32,2.065v-1.5l.283.057a.617.617,0,0,0,.623-.65.855.855,0,0,0-.283-.622c-.312-.339-.623-.737-.961-1.047a.593.593,0,0,0-.312-.113.776.776,0,0,0-.509.283,3.6,3.6,0,0,1-1.018.566L70.38,3.7a2.814,2.814,0,0,0-1.5-1.357,2.475,2.475,0,0,0-.792-.141,2.7,2.7,0,0,0-2.319,1.414l-.086-.029a3.276,3.276,0,0,1-1.018-.566.772.772,0,0,0-.537-.283.506.506,0,0,0-.254.113c-.368.31-.651.708-.99,1.047a.855.855,0,0,0-.283.622.616.616,0,0,0,.622.65l.255-.057v1.5a4.066,4.066,0,0,0-2.319-2.065,10.435,10.435,0,0,1,2.091,3.535A3.9,3.9,0,0,0,61.107,5.8a13.509,13.509,0,0,1,1.357,2.4,1.461,1.461,0,0,0-1.273-.708A4.225,4.225,0,0,1,62.379,9.36a1.123,1.123,0,0,0-.679-.2,1.028,1.028,0,0,0-.423.086,1.987,1.987,0,0,1,.932.735l-.425-.057a1.554,1.554,0,0,0-.621.17,1.642,1.642,0,0,1,1.1.48.3.3,0,0,0,.2.171l.451.593a2.831,2.831,0,0,0-.706-.086,2.054,2.054,0,0,0-1.441.509l.65-.057a2.931,2.931,0,0,1,1.386.312,1.418,1.418,0,0,0-.679,1.046.556.556,0,0,1,.31-.057,1.3,1.3,0,0,1,.763.312l-.141.622a1.726,1.726,0,0,1-.679.17c-.452,0-1.159-.226-1.159-.792a1.057,1.057,0,0,1,.451-.819l-.281-.029a.736.736,0,0,0-.735.763l-.228.312-.057.255.029.2a1.177,1.177,0,0,0-.537-.141,3.186,3.186,0,0,0-.737.168.869.869,0,0,0-.367-.225.554.554,0,0,0,.113-.341c0-.254-.283-.283-.48-.254l-.425-.877a.268.268,0,0,0,.057-.2c0-.312-.226-.452-.312-.708l.312.029c.65,0,1.188-.452,1.866-.452v.086l-.283.254H59.58a.362.362,0,0,0-.283.31l.057.086c-.113,0-.284.057-.284.17,0,.084.113.113.142.2a.706.706,0,0,0-.368.622,1.157,1.157,0,0,0,.113.538,1.339,1.339,0,0,0,.595-.452,3.548,3.548,0,0,1-.141.509.992.992,0,0,0,.65-.792.227.227,0,0,0,.141-.142h.142l.084-.028a.311.311,0,0,0,.284-.312.394.394,0,0,0-.2-.339v-.028c0-.283.566-.65.566-1.16,0-.367-.367-.423-.651-.48a7.637,7.637,0,0,1-1.073-.17l.113-.141a.629.629,0,0,0,.367-.538,1.08,1.08,0,0,0-.17-.509.535.535,0,0,0,.086-.226.537.537,0,0,0-.142-.283.522.522,0,0,0-.254-.48,1.318,1.318,0,0,0,.17-.651,1.6,1.6,0,0,0-.68-1.244l.339-.367c.171-.029.821.028.821-.312l-.084-.283c.225-.028.225-.141.225-.339l.057-.084L60.173,4.3V4.271c0-.17.226-.142.226-.283a2.957,2.957,0,0,0-.368-.622A1.7,1.7,0,0,1,60,2.715a.63.63,0,0,0-.17-.48V2.121a.29.29,0,0,0-.141-.226c0-.339-.057-.706-.481-.763l.029.113-.086.394a1.965,1.965,0,0,0-.679-.141,2,2,0,0,0-.708.141l-.028-.17a.558.558,0,0,1,.057-.31.952.952,0,0,0-.595.848,1.725,1.725,0,0,0-.621,1.612c-.029-.057-.142-.086-.2-.086a.639.639,0,0,0-.4.17l.057.113a.511.511,0,0,0-.452.255.53.53,0,0,0,.339.226l-.113.254.452.113-.142.255H56.1A5.633,5.633,0,0,0,53.9,3.79,10.848,10.848,0,0,1,52,2.828L50.22,1.753a.823.823,0,0,0-.31.567c0,.367.423.621.734.677l-.084.368c0,.4.368.566.679.622v.086c0,.4.367.509.706.48a.271.271,0,0,0,.057.2.624.624,0,0,0,.595.2c0,.142.029.255.142.312L52,4.949c-1.64-.708-3.335-1.357-4.975-2.121a.884.884,0,0,0-.17.452c0,.481.677.595,1.017.651l-.028.339a.921.921,0,0,0,.989.99.751.751,0,0,0-.084.338c0,.361.3.546.608.617l.3.034M41.6,11.143h-.255c-.622,2.374-1.527,3.5-3.875,3.5-2.488,0-2.968-.367-2.968-3.138V8.06h1.273c1.7,0,2.771.367,2.912,2.4h.226L38.852,7.72l.057-2.459h-.226c-.141,1.837-1.5,2.319-3,2.319H34.5V1.386h.9c1.5,0,3.676.057,4.61,1.611a6.165,6.165,0,0,1,.621,1.924h.228C40.8,4.073,40.8,3.28,40.8,2.433l.058-1.7a59.537,59.537,0,0,1-7.1.226L29.833.906V1.16c1.555.086,2.091.283,2.091,2.064v9.614c0,1.753-.564,1.952-2.091,2.065v.226c1.47-.057,2.968-.057,4.439-.057a63.588,63.588,0,0,1,6.956.226l.152-2.079.217-2.077M28.532,15.129V14.9c-1.527-.113-2.121-.312-2.121-2.065V3.224c0-1.753.566-1.978,2.121-2.064V.906L25.11.963,21.746.906V1.16c1.582.086,2.091.283,2.091,2.064V7.494l-3.675.029H17.419v-4.3c0-1.753.566-1.978,2.12-2.064V.906L16.147.963,12.781.906V1.16c1.556.086,2.092.283,2.092,2.064v9.614c0,1.753-.566,1.952-2.092,2.065v.226l3.366-.057,3.392.057V14.9c-1.527-.113-2.12-.312-2.12-2.065V7.947l3.11-.028,3.308.028v4.891c0,1.753-.509,1.952-2.091,2.065v.226l3.364-.057,3.422.057m-16.515-9.9L11.989,2.4l.028-1.64A20.116,20.116,0,0,1,9.784.906L7.1.934H4.948L2.206.906A18.978,18.978,0,0,1,0,.764L.029,2.4,0,5.232H.2c.48-2.348.9-3.875,4.015-3.875h.452l.057,4.1v7.38c0,1.556-.566,1.923-2.377,2.065v.226l3.677-.057,3.647.057V14.9c-1.782-.142-2.4-.509-2.4-2.065V5.458l.057-4.1h.508c2.828,0,3.535,1.669,3.96,3.875h.225" transform="translate(0 -0.001)" fill="#161615"/>
    <path id="Path_8147" data-name="Path 8147" d="M57.28-2.292a2.757,2.757,0,0,1-2.011-.758,2.694,2.694,0,0,1-.776-2.019v-.145a3.393,3.393,0,0,1,.327-1.513,2.4,2.4,0,0,1,.927-1.028,2.6,2.6,0,0,1,1.368-.361,2.331,2.331,0,0,1,1.814.727,2.953,2.953,0,0,1,.662,2.061v.612H56.013a1.394,1.394,0,0,0,.439.882,1.326,1.326,0,0,0,.927.332,1.619,1.619,0,0,0,1.355-.628l.737.825a2.252,2.252,0,0,1-.914.745A3,3,0,0,1,57.28-2.292Zm-.171-4.614a.937.937,0,0,0-.724.3,1.566,1.566,0,0,0-.356.865h2.087v-.12a1.117,1.117,0,0,0-.27-.774A.967.967,0,0,0,57.108-6.906Zm5.829,1.848V-2.4H61.38V-9.953h2.948a3.411,3.411,0,0,1,1.5.311,2.3,2.3,0,0,1,.994.885,2.468,2.468,0,0,1,.348,1.305,2.17,2.17,0,0,1-.76,1.752,3.167,3.167,0,0,1-2.1.641Zm0-1.261h1.391a1.368,1.368,0,0,0,.942-.291,1.057,1.057,0,0,0,.324-.831,1.247,1.247,0,0,0-.327-.9,1.222,1.222,0,0,0-.9-.353H62.937Zm8.4,3.924a1.666,1.666,0,0,1-.151-.5,1.815,1.815,0,0,1-1.417.607A1.994,1.994,0,0,1,68.4-2.769a1.536,1.536,0,0,1-.542-1.2,1.587,1.587,0,0,1,.662-1.37,3.266,3.266,0,0,1,1.913-.483h.69v-.322a.926.926,0,0,0-.2-.623A.786.786,0,0,0,70.292-7a.894.894,0,0,0-.594.182.617.617,0,0,0-.215.5h-1.5a1.507,1.507,0,0,1,.3-.9,1.99,1.99,0,0,1,.851-.651,3.1,3.1,0,0,1,1.235-.236,2.451,2.451,0,0,1,1.648.522,1.825,1.825,0,0,1,.61,1.466v2.434a2.685,2.685,0,0,0,.223,1.209V-2.4ZM70.095-3.439a1.292,1.292,0,0,0,.612-.148.972.972,0,0,0,.415-.4v-.965h-.561q-1.126,0-1.2.779l-.005.088a.6.6,0,0,0,.2.462A.766.766,0,0,0,70.095-3.439Zm8.741-1.713a3.368,3.368,0,0,1-.589,2.079,1.889,1.889,0,0,1-1.591.781,1.75,1.75,0,0,1-1.376-.592V-.236h-1.5V-8.012h1.391l.052.55a1.763,1.763,0,0,1,1.422-.654,1.9,1.9,0,0,1,1.614.768,3.46,3.46,0,0,1,.576,2.118Zm-1.5-.109a2.21,2.21,0,0,0-.278-1.209.9.9,0,0,0-.807-.426.982.982,0,0,0-.971.54v2.3a1,1,0,0,0,.981.555Q77.336-3.5,77.336-5.261ZM82.35-2.292a2.757,2.757,0,0,1-2.011-.758,2.694,2.694,0,0,1-.776-2.019v-.145a3.393,3.393,0,0,1,.327-1.513,2.4,2.4,0,0,1,.927-1.028,2.6,2.6,0,0,1,1.368-.361A2.331,2.331,0,0,1,84-7.389a2.953,2.953,0,0,1,.662,2.061v.612H81.083a1.394,1.394,0,0,0,.439.882,1.326,1.326,0,0,0,.927.332A1.619,1.619,0,0,0,83.8-4.129l.737.825a2.252,2.252,0,0,1-.914.745A3,3,0,0,1,82.35-2.292Zm-.171-4.614a.937.937,0,0,0-.724.3,1.566,1.566,0,0,0-.356.865h2.087v-.12a1.117,1.117,0,0,0-.27-.774A.967.967,0,0,0,82.178-6.906Zm6.488.3a4.075,4.075,0,0,0-.54-.042,1.1,1.1,0,0,0-1.116.576V-2.4h-1.5V-8.012h1.417l.042.67a1.39,1.39,0,0,1,1.251-.773,1.572,1.572,0,0,1,.467.067Z" transform="translate(11.068 30.625)"/>
  </g>
</svg>
