<svg xmlns="http://www.w3.org/2000/svg" width="507.5" height="225.515" viewBox="0 0 507.5 225.515">
  <g id="THG_Logo" transform="translate(-975.5 -2701.719)">
    <path id="Path_8585" data-name="Path 8585" d="M635.9,138.648l1.625-.476,1.625-.872,1.083,4.333c-.806,0-1.083.542-1.889.806l-.819-2.193-1.625-1.6m-3.249,4.61H630.2c.277-2.166,1.083-3.791,3.263-3.791,1.889,0,2.972,1.889,3.25,3.514l-4.068.277m-4.333-66.074h.264v.277m-.542,2.695-.806-.528c0-.542.264-1.083.806-1.083a.718.718,0,0,1,.819.806l-.211.608-.608.2m.277-1.889-1.083.542-.542-1.347a.861.861,0,0,0,.806-.819h.277v.542l.542,1.083m-2.708-1.347-.264-.277.264-.542.542.542m-1.083,2.444-1.083-.542c0-.542.542-.819,1.083-.819.277,0,.542.277.542.819l-.542.542m.277-3.527-.277.819.277.806a1.87,1.87,0,0,0-1.361.819v-.277l-.542-1.347h.277l1.083-.819h.542m-2.166,66.616,1.017-2.378a2.551,2.551,0,0,1,2.232-1.149c1.889,0,2.153,2.985,2.153,4.069v.264l-5.4-.806M622.9,75.559l-.264-.264.264-.277.278.277m-.819-1.361v1.083l.277,1.083-.277-.264-1.347.542.264-.542-.542-.819,1.017-.343m.409,3.025-.607.3-.819-.819.278-.542h.542c.542,0,.806.277.806.542l-.2.515m-1.691-3.765-.277-.264.277-.277.264.277m-1.228-.542.145.806-.819.277a1.67,1.67,0,0,0,0-1.625l.819-.277h.542l-.687.819m-.938,70.13.541-.542,2.708.542m-3.25-68.5.541-.277.542.819-.542.806a.871.871,0,0,1-.819-.806v-.277l.277-.264m0-3.527-.277.542-.264-.542.264-.277M623.242,135l5.614.674c2.708,0,5.957-.277,8.665-1.889l1.625,1.612a13.907,13.907,0,0,1-7.582,2.444c-2.708,0-13-1.083-13.817-4.055l.277-.277L623.242,135m-5.218,5.812-.542-.264c0-1.083.542-3.527,2.166-3.527s2.166,1.625,2.166,2.985l-.264,1.625-1.625-.277c.264-.806.806-1.347.806-2.166l-1.255.925-1.453.7m-.819,4.069.819-.819c6.235.819,13.54,2.166,19.775,2.166,4.861,0,9.749-2.708,9.749-8.124,0-1.625-.819-3.791-2.18-4.6,1.361,0,3.527.277,4.346,1.083a3.059,3.059,0,0,0,.806-2.166,6.045,6.045,0,0,0-1.625-3.791c2.985,1.083,5.152,5.152,5.152,8.124,0,8.124-8.679,10.832-14.9,10.832-4.6,0-8.943-1.361-13.263-1.9l-4.24-.5-4.438-.3m-1.083-72.573h.542c.542,0,.819,0,.819.542a.727.727,0,0,1-.819.819l-.542-.277V72.309l-.264-4.333,1.889,2.431-.264,1.361-.581.066m-2.668,70.605,1.889-2.431-.264.542.542,1.083M613.428,73.67l.594,1.242.211,1.466c0,.542-.277,2.972-.806,2.972s-.542-2.431-.542-2.972l.066-1.466.475-1.242m-.066,21.862.066,1.691-.542,2.708c-.542,0-.542-2.444-.542-2.985,0-.264,0-2.708.542-2.708l.476,1.295m.066-38.387-.04.753-.238.33c-.541.277-1.083-3.527-1.083-4.333l.277-1.083c.264-.132.542.819.74,1.863l.343,2.47m0,28.427.832.343.238.74a1.279,1.279,0,0,1-1.347,1.361,1.492,1.492,0,0,1-1.083-1.361l.476-.74.885-.343m.436-20.871.37.845a1.227,1.227,0,0,1-1.347,1.07,1.153,1.153,0,0,1-1.083-1.07.989.989,0,0,1,1.083-1.083l.978.238m-.647,38.849.476.991a1.444,1.444,0,0,1-1.347,1.347c-1.083,0-1.625-.542-1.625-1.347s.542-1.361,1.625-1.361l.872.37m.211-32.324-1.268-1.149a6.67,6.67,0,0,1-1.717-4.267,7.656,7.656,0,0,1,1.9-4.6,5.8,5.8,0,0,0-1.083,4.055l.568,3.289,1.6,2.668M613.15,81.78,611.7,84.264l-.436,2.668c0,1.625,0,3.527,1.083,4.874a8.032,8.032,0,0,1-2.166-4.874l.779-2.774,2.193-2.378M608.818,102.1l.581-.779.779-.581-.819,1.638m.278-56.867.977.238.37.845a1.236,1.236,0,0,1-1.347,1.083,1.165,1.165,0,0,1-1.083-1.083l.344-.845.74-.238m0,5.958L607.4,49.021a5.987,5.987,0,0,1-1.017-3.25,7.971,7.971,0,0,1,1.889-4.333,9.077,9.077,0,0,0-.806,4.069l.568,3.17,1.6,2.787m-.542,24.094-.713,3.012-1.731,2.4c1.361-1.347,1.361-3.514,1.361-5.416a10.108,10.108,0,0,0-1.9-5.416,6.908,6.908,0,0,1,2.787,3.844l.2,1.572m-.819,59.034-.132-1.691-.951-1.295H606.11c.541-3.514,3.249-6.763,5.957-8.93,3.25,2.708,5.957,5.139,6.763,9.484h-1.625l-2.338-3.395-3.342-2.576a18.485,18.485,0,0,1,1.361,6.512,10.019,10.019,0,0,1-1.625,5.68l-1.189-2.1-1.8-1.691m-2.034-32.39,1.229-.383a1.361,1.361,0,0,1,0,2.721c-1.083,0-1.638-.542-1.638-1.361l.409-.978m-.132-17.437-.542,2.166-.277-1.9a2.562,2.562,0,0,1,.542-1.889l.277,1.625m1.017-29.788.647,1.413.238,1.572a8.04,8.04,0,0,1-2.18,4.874,10.558,10.558,0,0,0,1.1-4.874c0-1.638-.542-4.069-1.9-5.152l2.1,2.166m-1.017,19.5.885.436.476.647a1.755,1.755,0,0,1-1.36,1.625c-.819,0-1.083-.806-1.083-1.625l.344-.753.74-.33M605.026,99.93l1.215-2.365.409-2.787a8.564,8.564,0,0,0-1.36-5.139,7.658,7.658,0,0,1,2.444,4.874,6.257,6.257,0,0,1-.845,3.012l-1.862,2.4M606.11,67.7l-.212,1.6-.608,1.387-.542-2.985.542-3.236c.41,0,.608.74.713,1.519l.106,1.717m-2.167,36.022,2.708-4.2c1.017-1.559,1.9-3.117,1.9-4.2,0-2.972-2.166-5.68-2.166-8.93,0-4.333,4.6-6.5,4.6-10.29,0-3.514-3.791-5.693-3.791-9.484,0-3.514,2.708-5.944,2.708-9.471,0-4.6-5.957-5.139-5.957-11.638,0-2.444,1.889-4.333,1.347-6.777l.542,2.166-.806,4.61.264,1.995c1.2,4.161,5.971,5.139,5.971,9.643,0,3.527-2.708,6.235-2.708,9.471s3.791,5.693,3.791,9.484c0,4.055-4.333,6.5-4.333,10.554,0,2.985,1.889,5.693,1.889,8.665a7,7,0,0,1-2.166,4.61l-3.791,3.791m-.278-49.562V52.812a3.63,3.63,0,0,1,.542-2.431l.277,1.347-.819,2.431m1.361,2.444.885.515.476,1.11a1.9,1.9,0,0,1-1.361,1.083,1.446,1.446,0,0,1-1.361-1.347l.476-.885.885-.476m1.9,79.337-.581,2.615-1.6,1.995h-1.083l-1.347-4.61m1.889-96.126-.436.845-.647.238c-.806,0-1.347-.277-1.347-1.083a1.236,1.236,0,0,1,1.347-1.083l.647.343.436.74m.542,62.006-.647,1.123-1.242.515a1.568,1.568,0,0,1-1.625-1.638c0-1.083.541-1.889,1.625-1.889l1.242.542.647,1.347m10.568,5.958.872-10.422.476-10.422L616.4,75.017a1.286,1.286,0,0,0,1.625.277l-.277.542a1.809,1.809,0,0,0,1.625,1.889l1.36-.264-.264.264a2.029,2.029,0,0,0,1.889,1.9,1.512,1.512,0,0,0,1.361-.819s.806,1.889,1.889,1.889l1.36-.542a1.735,1.735,0,0,0,1.612,1.625c1.36,0,1.9-.806,1.9-1.625s-.277-1.612-1.083-1.612c.542-.277,1.083-1.083.806-1.361h3.527l-.542,4.6v.277c-1.9,1.347-3.527,2.972-5.958,3.25,2.166,0,3.791-.819,5.68-1.625l-.542,1.625c-1.347,1.347-2.972,2.708-4.874,2.972a9.007,9.007,0,0,0,4.333-1.347l-.264,1.347a11.359,11.359,0,0,1-4.874,2.985,11.384,11.384,0,0,0,4.333-1.083l-.542,1.625a25.113,25.113,0,0,1-5.138,2.972,12.984,12.984,0,0,0,4.6-1.347l-.542,1.347-4.333,2.444,3.514-.819-1.612,3.791c-1.625.819-3.249,2.18-4.874,2.721l4.055-1.1c-.806,1.9-2.431,4.346-2.431,6.777l.542,3.25a8.846,8.846,0,0,1-3.527,3.514,14.226,14.226,0,0,0,4.069-2.166,28.8,28.8,0,0,0,3.236,4.61,12.079,12.079,0,0,1-3.778,2.708,6.863,6.863,0,0,0,4.32-1.9l1.083,1.1a6.881,6.881,0,0,1-3.236,2.972,5.151,5.151,0,0,0,3.778-1.9l1.083,1.083a5.688,5.688,0,0,1-3.514,2.708h.264a5.335,5.335,0,0,0,3.791-1.625l.542.542a6.354,6.354,0,0,1-3.514,2.985,9,9,0,0,0,4.333-1.9l1.625,2.985s-1.625,2.708-3.25,2.972a6.827,6.827,0,0,0,4.068-1.625l.264.277c-1.083,1.347-2.166,2.708-3.527,2.985,1.638,0,2.721-.819,4.069-1.638l.542,1.638c-2.166,1.625-5.152,2.153-8.124,2.153a21.262,21.262,0,0,1-9.749-2.153,5.6,5.6,0,0,0-.819-3.527h1.361l3.25-.277c-3.25,0-5.152-.806-6.776-3.791l2.166.277,2.444-.277c-2.708-.264-5.152-.264-7.3-2.431l2.431.264,2.708-.264c-3.791-.277-5.68-.819-8.666-3.527a12.039,12.039,0,0,0,4.333.819l2.708-.264h-1.083c-8.93,0-13-8.679-15.706-15.984l7.688,1.889,7.477,2.708M597.986,77.183l-.806-.264,1.083-.542.542.542m-1.295,11.03-.607-.476c0-1.083,1.625-1.361,2.166-1.361.819,0,1.889.277,1.889.819,0,1.083-1.889,1.083-2.431,1.083l-1.017-.066m.753-6.433-.819.264a1.213,1.213,0,0,1-.806-1.083l.264-.264.779.343.581.74m.542.806,1,.106.608.713c0,.806-1.612,1.347-2.153,1.347s-1.625-.264-1.625-1.083c0-.4.41-.674.885-.845l1.281-.238m.542,7.6,1,.225.608.859c0,.806-1.889,1.083-2.431,1.083v.806c0,.277,0,1.889-1.083,1.889-.542,0-.806-1.612-.806-1.889,0-1.427.449-2.391,1.48-2.774l1.228-.2M596.1,67.435l.264-.674a3.3,3.3,0,0,1,2.166-.674c.542,0,1.625,0,1.625.806s-1.625,1.347-2.43,1.347l-1.017-.2-.608-.608m1.889,31.412,1.255.41.647,1.215c0,.806-1.083,1.625-1.9,1.625a1.809,1.809,0,0,1-1.889-1.625l.541-1.215,1.347-.41m-2.166,42.508,7.582.277a6.446,6.446,0,0,1-3.25.806l-2.166-.33-2.166-.753M597.986,62.3l1.149.2.753.608c0,1.083-1.9,1.361-2.444,1.361s-1.889-.277-1.889-1.083c0-.409.409-.687.911-.845l1.519-.238m-2.166,10.832h-.264c0-.819.542-.819,1.083-1.083L596.1,71.5c0-.819,1.889-1.361,2.43-1.361s1.625.264,1.625.806c0,1.361-2.43,1.361-3.249,1.361l-.238.608-.845.211m.819,11.9v.277l-.845-.2-.238-.621v-.264l.74.2m-.74,55.308L596.7,137.5a3.311,3.311,0,0,1,2.364-1.017c2.167,0,2.708,1.9,2.708,3.527v.264l-6.222-.542m.33-79.535-.608-.608c0-.819,1.9-1.361,2.444-1.361s1.625.277,1.625,1.083-1.9,1.083-2.444,1.083l-1.017-.2M596.9,39.272l-.779.74-1.387.343c-.542,0-1.625-.277-1.625-1.083s1.9-1.083,2.444-1.083l.872.238.476.845m-4.61,31.412v-.542c0-.542.278-1.083.819-1.083l.277.277-.343.872-.753.476m.555,16.789-.277.542-.542-1.083.264-.542m.555,3.25.621.225a2.326,2.326,0,0,1,.462,1.678c0,.542,0,2.153-1.083,2.153-.555,0-.819-1.612-.819-2.153l.2-1.162.621-.74m.806,7.846,1.255.515.647,1.11a1.792,1.792,0,0,1-1.9,1.625,1.436,1.436,0,0,1-1.625-1.625l.409-1.11,1.215-.515m-.237-34.147.515,1.123a1.65,1.65,0,0,1-1.638,1.889c-1.347,0-2.166-.542-2.166-1.889,0-.819.819-1.625,2.166-1.625l1.123.5m.779-28.665-.806,1.717a2.152,2.152,0,0,1-1.638.713c-1.625,0-2.708-.806-2.708-2.431l.542-1.625,4.61,1.625m-1.929,93.59-3.765-2.074c1.625-2.166,6.776-13.54,6.776-15.97a6.186,6.186,0,0,0-.806-2.985l5.944-.264,2.166,4.6-1.347.277a8.624,8.624,0,0,1-4.055-1.625,7.573,7.573,0,0,0,6.222,2.431,24.717,24.717,0,0,0,4.61,6.235h-1.083a16.082,16.082,0,0,1-8.666-2.444,16.737,16.737,0,0,0,10.832,3.527l1.889,1.889-1.347,1.083c-3.527,0-7.86-.264-10.832-2.431,2.153,2.166,6.763,3.25,9.749,3.791l-1.625,1.889h-.542a23.145,23.145,0,0,1-10.026-2.708,21.857,21.857,0,0,0,10.026,4.069l-1.1,1.625h-.542c-2.972,0-7.846-.819-10.277-2.985,2.166,2.708,7.3,4.069,10.277,4.333l-.264,1.083a28.8,28.8,0,0,1-8.3-1.691l-3.923-1.651M588.5,67.976l.542.806c0,.555-.264.555-.542.819-.264-.264-.542-.264-.542-.819l.542-.806m.026,21.386.515-.264c.542,0,.819,1.625.819,2.166,0,.277-.278,1.9-.819,1.9-.806,0-1.083-1.625-1.083-1.9l.238-1.295.33-.608m-.026-1.889.277.542L587.96,89.1l-.264-1.083.2-.277m-.2,18.15.542-4.61,11.651,1.9.528,3.527-6.46-.211m-6.539,31.888,1.361-2.682c.608-.911,1.347-1.651,2.166-1.651,2.166,0,2.985,3.25,2.985,4.874v.542l-6.512-1.083m1.361-41.438,1.242.449a1.806,1.806,0,0,1,.647,1.453c0,.806-1.083,1.625-1.889,1.625a1.822,1.822,0,0,1-1.9-1.625l.542-1.453,1.361-.449m-.542-32.76-.211,1.057-.608.845c-.806,0-1.07-1.625-1.07-1.9,0-.542.264-2.166,1.07-2.166l.608.885.211,1.281M585.265,128.9v-.264a2.814,2.814,0,0,1,1.083-2.166c5.944,4.874,13,5.958,20.3,6.5v.819l-.264,1.07h-2.444a38.442,38.442,0,0,1-14.927-3.421l-3.752-2.536M588.5,73.934l1.6.37a4.882,4.882,0,0,1,2.748,4.24,4.717,4.717,0,0,1-4.346,4.6,4.5,4.5,0,0,1-4.32-4.6A4.69,4.69,0,0,1,586.8,74.3l1.7-.37M584.34,69.3l.106.845v.542L583.64,69.6V69.06m.264,18.956h-.264v-.542a1.213,1.213,0,0,1,.806-1.083l.277.264-.211.885-.608.476m.3,1.347.515-.264c.806,0,1.083,1.361,1.083,2.166,0,.277-.277,1.625-1.083,1.625s-1.083-1.347-1.083-1.625l.238-1.295.33-.608m-.845,16.261.608-2.444.211-2.444,2.43.277-.542,4.874m-.964-63.657.727-.964.779-.37c2.431,0,3.791,8.124,3.791,10.026,0,2.431-1.083,4.32-3.791,4.32s-3.791-1.889-3.791-4.32L583.9,45.3l1.2-3.065M583.97,117.2l-.608.33-.542-1.083h1.361m.978-19.392.647,1.255c0,.806-1.083,1.625-1.9,1.625a1.564,1.564,0,0,1-1.625-1.625,1.792,1.792,0,0,1,1.625-1.9l1.255.647M583.4,44.926l-1.387,7.08a4.565,4.565,0,0,0,4.6,4.6c3.25,0,4.333-2.166,4.333-4.874,0-2.166-1.9-12.457-4.333-12.457-.607,0-1.2.674-1.744,1.717L583.4,44.926m1.321,86.959.779.832a7.58,7.58,0,0,1,.568,3.5v1.889l-2.84-1.044c-1.083-.436-2.034-.978-2.034-1.664s.674-1.413,1.453-2.061l2.074-1.453M581.474,63.1l1.347-.542c1.083,0,1.625.819,1.625,1.9s-.542,1.889-1.625,1.889a1.84,1.84,0,0,1-1.889-1.889l.542-1.361m1.043,15.68.964.33.423.515c0,.528-1.625,1.889-2.166,2.153l2.444-.542.542.542-.819,2.444a4.81,4.81,0,0,1,2.166-1.361c.806,0,.806,2.444.542,2.985.264-.277,1.347-2.444,1.889-2.444s1.361,1.9,1.625,2.166V85.03s0-2.166.541-2.166a6.412,6.412,0,0,1,2.444,1.625l-.819-2.708c0-.264,0-.542.555-.542l2.43.542c-.542-.264-2.166-1.347-2.166-2.153s2.444-1.083,2.708-1.083c-.264,0-2.708-.277-2.708-1.083s1.625-1.9,2.166-2.166l-2.43.264-.555-.264a5.2,5.2,0,0,1,.819-2.708,3.626,3.626,0,0,1-2.444,1.625c-.806,0-.541-2.444-.541-2.985-.264.542-1.083,2.444-1.625,2.444-.806,0-1.347-1.9-1.625-2.444v1.083c0,.819,0,1.9-.806,1.9s-1.625-.819-2.166-1.361a3.642,3.642,0,0,1,.819,2.166c0,.542-.277.542-.819.542l-2.43-.264c.542.264,2.43,1.347,2.43,2.166s-2.708,1.083-2.972,1.083l1.585.238m-2.127-6.737h.264c.542-.277.819.264.819.806H581.2l-.806-.806m.7,12.655-.7.33h-.277l-.264-.264c0-.542.806-.819,1.347-.819l-.106.753m.449,5.68.2,1.162c0,.542-.264,1.889-.806,1.889-1.083,0-1.083-1.347-1.083-1.889s0-1.9,1.083-1.9l.608.74m-1.691,22.271v-.264H581.2l-1.347-.542v-.277l1.625.277-1.361-.819.277-.264h1.083l-1.083-.542.264-.277,1.361.277h.542c-.542,0-1.36-.277-1.36-.819v-.264l1.9.264-1.361-.806,1.625-.277c2.708,0,3.514,2.166,4.055,4.333-1.347.542-2.43,1.361-3.778,1.361l-1.995-.476-1.8-.885m-.542-34.107,1.651-.885,1.863-.476c-.542-.542-2.972-1.625-2.972-2.431,0-.542.542-.542.806-.542l3.527.806a6.066,6.066,0,0,1-1.625-3.25l.264-.264v-.277c.819,0,2.444,1.361,3.249,2.166l-.264-2.166.264-1.625c1.347,0,2.166,2.444,2.431,2.985.277-.277,1.361-3.25,2.166-3.25.542,0,.278,3.25.278,4.055.806-.806,1.9-2.166,2.985-2.166l.264.819a6.64,6.64,0,0,1-1.083,2.972,5.25,5.25,0,0,1,2.708-.806c.819,0,1.083,0,1.083.542a3.611,3.611,0,0,1,2.166-.819c.542,0,1.625,0,1.625,1.083,0,.542-1.889,1.083-2.166,1.083-.542,0-1.889-.264-1.889-.806a4.955,4.955,0,0,1-2.708,1.889c1.083,0,2.972.277,3.514.819l1.9-.542c.542,0,1.612.264,1.612,1.083s-1.889,1.083-2.431,1.083-1.347,0-1.625-.542a7.76,7.76,0,0,1-2.708.806c.542.264,2.708,1.625,2.708,2.431,0,0,0,.542-1.083.542a6.138,6.138,0,0,1-2.972-.806c.806,1.083,1.625,2.166,1.625,3.25l-.542.542c-1.083,0-2.444-1.361-2.985-2.166v1.889c0,.277,0,1.9-.278,1.9-1.083,0-1.889-2.444-2.166-2.985-.264.542-1.083,2.985-2.153,2.985-.819,0-.278-2.985-.278-3.527-.806.819-2.166,1.9-3.249,1.9l-.264-.542c0-.819,1.083-2.166,1.625-3.25l-3.527.806-.542-.264h-.264c0-.819,2.431-2.444,2.972-2.708l-1.955-.476-1.559-.872m-.277,34.926.277-.277a6.572,6.572,0,0,0,8.652,0h.277v.277c0,1.347-3.791,2.431-4.6,2.431a7.629,7.629,0,0,1-4.333-1.625l1.083.277-1.361-1.083M581.2,31.412l1.73.713.713,1.73A2.43,2.43,0,0,1,581.2,36.3a2.677,2.677,0,0,1-2.708-2.444,2.33,2.33,0,0,1,.845-1.73l1.863-.713m-1.044,65.77.5,1.123c0,.806-.806,1.889-1.625,1.889a2.3,2.3,0,0,1-1.9-1.889c0-.819,1.083-1.625,1.9-1.625l1.123.5m-.04-17.027-.225.634a2.393,2.393,0,0,1-1.678.449c-.542,0-2.166-.264-2.166-1.083s1.361-1.07,1.9-1.07l1.281.33.885.74m-.264-15.693-.713.476-.925.066a2.926,2.926,0,0,1-2.166-.542l-.264-.542.264-.542,1.361-.542a3.2,3.2,0,0,1,2.18.911l.264.713m0,7.846-.713.608-.925.211a3.092,3.092,0,0,1-2.166-.819V73.67l-.264-1.9.264-.264c.278-.555,1.083-.555,1.625-.555a2.945,2.945,0,0,1,1.915.7l.264.66m0,12.179-.713.621-.925.2-2.166-.542-.264-.542.264-.542,1.361-.277a3.579,3.579,0,0,1,2.18.462l.264.621m-3.8-16.789.674-.476.687-.066c.806,0,2.444.277,2.444,1.083s-1.638.819-1.9.819l-1.9-.277-.542-.806.542-.277m0-15.693,1.294-.753,1.691-.33a5.667,5.667,0,0,1,2.708,1.083V50.381l-1.625-.542-2.166.542c-1.083,0-1.9-.542-1.9-1.625a2.132,2.132,0,0,1,2.166-2.166,4.489,4.489,0,0,1,4.069,2.166l.277-1.9c-1.083-2.708-4.346-.264-4.346-2.972,0-.542.819-1.083,1.638-1.083a3.593,3.593,0,0,1,2.972,2.166l.542-1.083c-.542-2.444-3.25-.542-3.25-2.985a1.165,1.165,0,0,1,1.083-1.083c1.36,0,2.166,1.083,2.985,2.166l.264-1.083c-.542-1.625-2.166-1.083-2.166-2.431l.542-.819c1.361,0,1.9,1.361,2.444,2.166.264-.542.542-.542.806-.542l-.264-2.166c0-.542.264-1.083.806-1.083s.806.277.806,1.083l-.542,1.9c.542.264.819.264,1.083.806.277-.806,1.083-2.166,1.9-2.166l.542.277.264.806c0,.806-1.625.542-1.889,2.166l.264,1.361a3.142,3.142,0,0,1,2.708-2.444c.542,0,1.1.806,1.1,1.361,0,1.347-2.444.542-3.263,2.431l.542,1.361c.819-1.083,2.166-2.444,3.527-2.444a1.755,1.755,0,0,1,1.361,1.361c0,1.889-3.527.542-4.346,2.708l.278,1.625a4.681,4.681,0,0,1,3.25-1.625c1.361,0,2.708.806,2.708,2.166a1.519,1.519,0,0,1-1.347,1.625l-3.263-.542-1.083.264.277,1.9a5.718,5.718,0,0,1,2.708-1.083,3.246,3.246,0,0,1,3.25,2.972c0,1.083-.542,1.625-1.347,1.625-1.361,0-2.166-1.625-3.8-1.625h-1.347l-.278,1.083c1.625,0,4.069,1.083,4.069,2.431,0,1.1-1.889,2.721-2.985,2.721s-1.347-2.721-2.972-3.527l-1.361.542a2.577,2.577,0,0,1,1.361,2.166,2.427,2.427,0,0,1-2.43,2.444,2.21,2.21,0,0,1-2.166-2.444,2.263,2.263,0,0,1,1.625-2.444l-1.361-.264c-2.166.542-1.889,3.527-3.25,3.527-1.083,0-2.985-1.625-2.985-2.444,0-1.625,2.985-2.708,4.346-2.708l-.542-1.083h-1.083c-2.18,0-2.444,1.625-4.068,1.625l-.819-.542a1.5,1.5,0,0,1-.806-1.361l.806-1.612m0,35.19h.819c.806,0,2.444,0,2.444,1.083,0,.555-1.1,1.1-1.638,1.1l-1.625-.542a1.223,1.223,0,0,1-1.083-.819l1.083-.819m0-28.15,1.281.37c.476.238.885.568.885.978,0,.819-1.625.819-2.166.819-.806,0-1.889-.277-1.889-1.361l.74-.608,1.149-.2m0-15.984.74.3.343.515c0,.542-.806.806-1.083,1.083h-.806c-.542,0-2.167-.277-2.167-1.083,0-.687.542-.951,1.189-1.017l1.783.2m0-4.055.37.3.172.5-.542,1.083h-1.083c-.542,0-2.153-.277-2.153-1.361,0-.528,1.07-.806,1.612-.806l1.625.277m0-3.791.542.806-.542.277-1.347.264c-.819,0-2.431-.264-2.431-1.083s1.07-.806,1.612-.806l1.083.066,1.083.476m-.264,63.089-.541,1.255-1.361.634c-.806,0-1.612-1.083-1.612-1.889a1.735,1.735,0,0,1,1.612-1.625l1.361.5.541,1.123m0-66.616-.608.845-1.017.238c-.819,0-2.431-.277-2.431-1.361,0-.542,1.347-.806,1.612-.806a3.964,3.964,0,0,1,2.18.568l.264.515m-4.6,56.048-.066,1.6-.476,1.387c-.277,0-.277-2.708-.277-2.985s0-2.972.277-2.972l.476,1.387.066,1.585m.436-10.079.37.885a1.276,1.276,0,0,1-1.347,1.347,1.236,1.236,0,0,1-1.083-1.347c0-.542.542-1.361,1.083-1.361l.977.476m4.425.343.542.264h-.542c-.806.277-1.347.542-1.347,1.361a2.759,2.759,0,0,0,1.347,2.153l.542.277h-.542c-.806.264-1.625.806-1.625,1.347a3.139,3.139,0,0,0,1.625,2.444l.278.264h-.278c-.806.277-2.166.277-2.166,1.625,0,.819,1.083,1.638,1.625,1.9-.806.542-1.889,1.083-1.889,1.9a1.646,1.646,0,0,0,.806,1.625A4.257,4.257,0,0,1,576.045,91l1.083-.277,1.083.542c0,1.083-1.625,2.166-2.166,2.708v.542l.819.264c1.347,0,1.625-1.083,1.889-1.889a2.652,2.652,0,0,0,2.18,1.889c1.083,0,1.625-.806,1.889-1.889,0,1.083.819,2.166,1.625,2.166,1.361,0,1.9-1.083,2.166-2.166.542.806,1.083,2.166,2.431,2.166.819,0,1.625-1.361,1.625-2.166a3.188,3.188,0,0,0,2.721,2.431,2.8,2.8,0,0,0,1.889-1.347c.277.806.819,2.431,1.9,2.431a2.007,2.007,0,0,0,1.889-1.625c.277.819.819,1.625,1.625,1.625a1.788,1.788,0,0,0,1.625-1.889c0-1.347-1.625-1.625-2.708-1.347.542-1.083,2.972-1.083,2.972-2.444,0-1.889-1.625-1.625-2.972-1.625.806-1.083,2.972-1.083,2.972-2.708,0-1.361-2.43-1.361-3.236-1.361.806,0,2.972-1.347,2.972-2.431,0-.819-2.166-1.625-2.972-1.625.806-.542,2.972-1.347,2.972-2.431,0-1.361-.819-1.625-1.9-1.625a2.622,2.622,0,0,0,1.9-2.444c0-1.083-1.36-1.625-2.166-1.625.542-.542,1.889-1.347,1.889-2.444,0-1.07-1.083-1.347-1.889-1.347a3.443,3.443,0,0,0,1.889-2.708c0-.806-1.889-1.347-2.43-1.625.806-.264,2.166-1.083,2.166-2.166s-1.625-1.625-2.166-1.625c.542-.542,2.166-1.347,2.166-2.708,0-.819-1.625-1.361-2.166-1.361a3.117,3.117,0,0,0,1.625-2.431c0-1.083-1.889-1.625-2.708-1.625a3.586,3.586,0,0,0,1.625-2.431c0-1.083-1.625-1.361-2.166-1.625a2.63,2.63,0,0,0,1.9-2.166c0-1.361-1.9-1.625-2.985-1.625.819-.542,1.9-1.361,1.9-2.444,0-.806-1.9-1.347-2.708-1.625.806-.277,2.166-1.625,2.166-2.431s-1.083-1.361-1.625-1.361l.806-1.347,2.166.542c2.166,14.081,4.333,28.163,4.333,41.967,0,6.763,0,14.081-.542,20.845a86.56,86.56,0,0,0-22.205-3.25h-5.152l-4.319.542a111.835,111.835,0,0,0,1.612-18.943v-1.9c0-15.429-1.889-30.871-4.6-46.313l3.791.277-1.519.634-.647.542-.264.713c0,1.638,1.347,1.9,2.43,2.18-.806.264-2.166,1.083-2.166,1.889,0,1.083,1.9,2.166,2.972,2.166-.806.277-2.431,1.083-2.431,1.889,0,1.361,1.9,1.9,2.708,2.18-.542.264-1.889.806-1.889,1.625s1.612,2.166,2.431,2.166a2.986,2.986,0,0,0-1.889,2.166c0,1.083,1.612,1.625,2.431,1.889-.819.277-2.431.819-2.431,2.166,0,.819,1.612,1.625,2.695,1.889-.806.277-2.153,1.083-2.153,1.9,0,1.083,1.612,2.166,2.153,2.444-.542.264-1.625,1.083-1.625,1.889s1.625,1.625,2.166,1.9c-.542.542-2.166,1.347-2.166,2.166s1.625,1.889,2.444,2.166c-.819,0-1.9.806-1.9,1.612,0,1.083,1.083,1.9,2.166,2.166l.278.277h-.278c-1.083.264-1.889.542-1.889,1.625l.542,1.387,1.347.779h.278l-.278.277c-.806,0-1.889.806-1.889,1.347l.647,1.321L576.045,78l-.264-2.166.264-.277,1.625-.264c.542,0,2.18.264,2.18,1.083s-1.361.806-1.638.806a2.261,2.261,0,0,1-2.166-.806V78m-7.3,62.811.106-.845-.106-1.044c2.444-.542,4.875-.277,7.3-.277l8.943,1.361,6.763,1.625c2.444.806,5.152,2.166,7.86,2.166h.542c4.874,0,7.86-2.444,7.86-7.582,0,0,1.625,2.166,1.625,3.791l-.278,2.708a14.229,14.229,0,0,0,5.139-12.192,8.606,8.606,0,0,1,2.166,5.416c0,2.708-1.625,5.152-3.514,7.041l4.055-.806.277.264-2.391,2.3a14.289,14.289,0,0,1-8.982,2.853c-5.958,0-10.832-2.708-16.525-4.333a57.406,57.406,0,0,0-13.54-2.985l-1.347-.264-3.184.2-2.774.608m2.444-67.144-1.6,2.457-.568,2.682a9.144,9.144,0,0,0,1.348,4.6,6.14,6.14,0,0,1-1.889-4.861,5.581,5.581,0,0,1,1.479-3.923l1.228-.951m.264-15.442-.343.978-.74.383-1.348-.542a10.33,10.33,0,0,0,2.431,4.874,6.618,6.618,0,0,1-3.25-5.693,5.374,5.374,0,0,1,1.9-4.333,7.011,7.011,0,0,0-1.083,4.069c0-.555.542-.819,1.348-.819l.647.343.436.74m-3.553,39.364,1.123-.37a1.354,1.354,0,0,1,0,2.708,1.513,1.513,0,0,1-1.625-1.361l.5-.978m.3-61.57.74.37.344.991a1.165,1.165,0,0,1-1.083,1.083,1.236,1.236,0,0,1-1.347-1.083l.37-.991.977-.37m-.264,59.3.845.343.238.74v.277l-.277-.277c-.806,0-1.625.542-1.625,1.083l-.541-1.083.37-.74.991-.343m.185-3.408,1.7-.647c-2.431,1.361-3.791,4.6-4.055,7.3l-.277-2.431A4.6,4.6,0,0,1,566.745,93l1.374-1.083m-.727,33.883-1.9,1.215a5.249,5.249,0,0,1,5.152-4.61,6.869,6.869,0,0,1,5.4,3.25,5.8,5.8,0,0,1,.819,3.25,7.953,7.953,0,0,1-.819,3.8,17.462,17.462,0,0,1-3.514,5.139l-3.791.806a3.3,3.3,0,0,0-1.625-2.708c2.985-.806,6.5-2.153,6.5-5.416,0-2.708-1.625-5.139-4.333-5.139l-1.889.41m.806-83.537-2.338-2.444a6.218,6.218,0,0,1-.912-3.25,6.023,6.023,0,0,1,1.625-4.069,6.136,6.136,0,0,1-.806-2.972V28.7a6.434,6.434,0,0,1,1.347,3.527l-.264.819-.277-.277a6.445,6.445,0,0,0-.806,3.25,9.793,9.793,0,0,0,1.361,4.993l1.07,1.242M567.656,67.7l-.568,2.51-1.6,2.1a7.1,7.1,0,0,0,1.361-4.61,8.568,8.568,0,0,0-1.9-5.139l1.968,2.166.74,2.972m-1.823-20.567.74,2.972a6.755,6.755,0,0,1-2.166,4.874,7.846,7.846,0,0,0,1.361-4.874c0-1.625-.555-4.055-1.9-5.139l1.968,2.166m-.885,19.22.74.37.343.978c0,.542-.541,1.361-1.083,1.361-.819,0-1.083-.819-1.083-1.361l.238-.872.845-.476M564.13,71.5l.476,1.281.066,1.691c0,.277,0,2.708-.542,2.708l-.542-2.708.542-2.972m.278,27.066,1.215.343.409.74c0,1.083-.541,1.361-1.625,1.361a1.274,1.274,0,0,1-1.361-1.361l.476-.74.885-.343m-1.361,43.869.713-2.259a1.968,1.968,0,0,1,1.73-1.255,2.292,2.292,0,0,1,1.9,1.083,4.355,4.355,0,0,1-1.968,1.519l-2.378.911m1.083-82.85-.172,1.585-.37,1.387c-.542,0-.806-2.708-.806-2.972s.264-2.985.806-2.985l.37,1.387.172,1.6m.713,23.817.647,2.985a7.4,7.4,0,0,1-1.9,4.874,8.363,8.363,0,0,0,1.36-4.874,7.443,7.443,0,0,0-2.166-5.152L564,82.2l.845,1.2m0-34.186.37.885a1.455,1.455,0,0,1-1.347,1.361A1.755,1.755,0,0,1,562.5,50.1a1.739,1.739,0,0,1,1.361-1.347l.977.462m-.713,37.172-.238.885-.845.462c-.541,0-1.083-.806-1.083-1.347a1.242,1.242,0,0,1,1.083-1.361l.845.383.238.977m2.034-42.984,2.14,2.431a5.616,5.616,0,0,1,.978,3.183c0,3.527-2.431,6.222-2.431,9.207,0,3.527,3.514,5.958,3.514,9.749,0,4.333-4.333,6.5-4.333,10.568,0,2.972,2.444,5.4,2.444,8.652,0,3.527-4.068,5.971-5.971,8.665,1.083-2.431,4.61-6.222,4.61-8.388,0-3.25-2.166-5.693-2.166-8.93,0-4.61,4.069-6.776,4.069-10.568,0-3.514-3.527-5.68-3.527-9.749,0-3.25,2.444-5.68,2.444-8.93,0-4.874-6.235-5.152-6.235-11.915,0-2.444,1.889-4.333,1.347-6.512a2.468,2.468,0,0,1,.819,1.9c0,1.625-.819,2.985-.819,4.61a6.383,6.383,0,0,0,.978,3.487l2.14,2.536m-5.284,69.245.277-.806a7.467,7.467,0,0,0,4.333-8.124,42.956,42.956,0,0,0,10.554,2.708l6.777.542v.542c-2.431.542-3.514,2.708-3.791,4.874a1.442,1.442,0,0,0-.819,1.083c0,1.625,2.985,2.972,4.069,2.972,0,.819.277,1.625,1.083,1.625,1.083,0,1.361-.806,1.361-1.625,1.347,0,4.32-1.347,4.32-2.972a1.165,1.165,0,0,0-1.083-1.083c-.264-2.166-1.611-4.61-4.055-4.874v-.277a60.479,60.479,0,0,0,10.026,0v.542l-.74,4.28c-1.374,4.478-4.28,9.405-5.5,13.87l-1.083-.542c-1.625,0-2.708,2.166-2.708,3.514l.819,1.625c-2.166.542-4.874,2.721-4.874,5.152,0,1.347,1.083,1.889,1.889,2.431l-5.693-.264h-2.708l2.708-2.985a9.4,9.4,0,0,0,2.166-5.958,7.519,7.519,0,0,0-2.166-5.68,7.987,7.987,0,0,0-5.4-2.166c-4.069,0-5.429,2.972-5.429,6.5V128.9a4.364,4.364,0,0,1,3.8-2.166,3.136,3.136,0,0,1,3.25,3.25c0,2.721-3.25,4.61-5.152,5.416v-.264c0-1.625-3.249-2.431-4.61-2.708-1.625-3.25-1.889-8.124-1.889-11.651l-.066-4.055.33-4.069m0-79.059-.264,1.083a5.929,5.929,0,0,1-1.083-3.527v-.819l.978,1.625.37,1.638m0,60.645.277.819c0,.806-.542,4.333-1.361,4.333-.528,0-.528-.542-.528-.819a11.519,11.519,0,0,1,1.017-3.765l.594-.568m.3,5.891.515.885a1.531,1.531,0,0,1-1.625,1.361,1.286,1.286,0,0,1-1.347-1.361,1.456,1.456,0,0,1,1.347-1.361l1.11.476m-4.9,43.935.951-1.519a2.482,2.482,0,0,1,1.757-.911c.806,0,1.889.806,2.972,1.347l-5.68,1.083m-3.25-86.1-.132-.885-.951-.476-.277.264.555,1.9-.555,2.444.991-1.427m1.995-27.833-1.347-.542-2.721-4.6,1.638.806m-2.18,113.47h-.806l.264-2.166c4.346,0,11.373-.542,13.54-5.139.819.264,2.444.806,2.444,1.612,0,3.461-7,4.927-11.77,5.442l-3.672.251m.277-86.655-.238-1.387c-.172-.436-.449-.779-.845-.779l-.542.277-.277.264c0,.542,1.083,1.083,1.083,2.166a22.089,22.089,0,0,1-1.083,4.069l1.361-2.1.541-2.51m-.753,90.1-1.413-.476c.541-1.625,1.083-1.625,2.972-1.625a3.179,3.179,0,0,1,2.985,2.166h-2.708l-1.836-.066m1.559-113.391-2.166-.542-3.514-4.333,2.972.264m-5.746-3.91.423.885-.079.872-.542.264a2.236,2.236,0,0,1-1.9-2.708l.542-.264.832.277.727.674m-2.1,4.187,2.985-.542,3.236,4.055-2.695.277m-3.791.806-3.527-3.25,2.166-1.083,3.527,3.791M533.8,29.788l1.625-1.083,3.263,3.527-1.638.819m-1.731-12.5,1.189-.238c1.625,0,3.527,1.361,3.527,2.985,0,1.889-1.9,2.972-3.527,2.972a3.062,3.062,0,0,1-3.249-2.972,2.866,2.866,0,0,1,1.017-2.1l1.044-.647m1.651,53.5,2.893-1.783a17.377,17.377,0,0,0,4.24-5.112,23.127,23.127,0,0,0-2.985,2.444,27.44,27.44,0,0,1-7.86,4.333l-.264-1.347.542-1.9c3.791-1.9,6.5-8.388,8.4-8.124h.542c3.25,2.444,6.486,5.139,7.3,9.207,1.625-3.25,4.874-4.069,5.957-7.846a56.205,56.205,0,0,0,2.444-11.651l3.778-5.416.542,15.165v1.361L559,68.743c-3.751,5.39-8.269,10.673-13.553,14.121-2.708,1.625-6.763,4.069-10.026,4.069-1.083,0-2.431-.277-2.431-1.625a3.984,3.984,0,0,1,1.083-2.166c7.582-.819,11.109-3.25,14.081-10.013-2.708,4.055-9.207,8.652-14.081,8.652H533.8v-.542a3.3,3.3,0,0,1,.819-2.431c5.693-.542,10.29-1.889,12.457-7.3-1.625,3.25-9.749,5.68-13.276,6.5a1.82,1.82,0,0,1-1.083-1.361,2.741,2.741,0,0,1,1.083-1.889l3.17-.7m-2.893-39.114-2.708-2.985,1.083-1.083,3.25,2.985m-1.083-14.346-.647.845-1.255.238c-.528,0-1.889-.277-1.889-1.083s1.36-1.1,1.889-1.1l1.255.238.647.859m-4.333,13.54,2.972,2.972c-.806.542-1.348,1.361-2.153,1.625L528.94,34.4l1.347-1.347m-.264-8.124,2.1.608a2.219,2.219,0,0,1,.872,1.823,2.75,2.75,0,0,1-2.972,2.431,2.666,2.666,0,0,1-2.708-2.431,2.236,2.236,0,0,1,.845-1.823l1.863-.608m-.278,14.081-2.166,1.347-1.347-4.333a1.826,1.826,0,0,0,1.347-.806l2.166,3.791m-3.791,102.348.211-1.863-.211-1.651c3.25,2.972,6.5,5.68,11.373,5.68,2.444,0,6.5-.806,6.5-4.333a5.164,5.164,0,0,0-1.083-3.25c2.444,0,5.416,1.083,5.416,4.069,0,4.874-5.68,7.041-9.749,7.041a14.5,14.5,0,0,1-9.59-3.435l-2.866-2.259m1.083-111.119.594.581.225.872a2.462,2.462,0,0,1-4.888,0c0-1.361,1.361-1.9,2.444-1.9l1.625.449m-.806,10.66-1.9,1.083L522.7,37.647l1.889-.806m-1.625-17.331,1.519.211c1.572.4,3.091,1.413,3.091,3.038,0,2.166-2.708,3.236-4.61,3.236-1.625,0-4.319-1.07-4.319-3.236,0-1.836,1.519-2.748,2.959-3.078l1.36-.172m0,22.747L520,42.522l-1.347-4.333,2.695-.542m1.083-2.972-.185.859a2.111,2.111,0,0,1-1.981,1.03,1.835,1.835,0,0,1-1.889-1.889c0-.819,1.083-1.625,1.889-1.625l1.493.5.674,1.123m-.911,93.22-3.144-.885a3.306,3.306,0,0,1,6.5.806v.542l-3.355-.462M517.764,19.444l-.74-.753c0-.819,1.347-1.361,1.889-1.361s1.625.542,1.625,1.361c0,.542-1.083,1.083-1.625,1.083l-1.149-.33m-.74,108.913,3.778.885,3.791.476c1.361,0,3.263-.277,3.263-1.9a10.257,10.257,0,0,0-1.083-3.514,1.83,1.83,0,0,0,1.083-1.9,5.727,5.727,0,0,0-.819-3.236h-1.889l.621-2.51c1.955-5.1,7.2-5.218,12.642-6.169l3.25-.806c1.361,6.763.277,19.761,3.527,25.455h-.819c-1.347-.277-2.708.264-4.055.542,1.625.542,2.972,1.347,2.972,2.972,0,2.708-4.055,3.527-5.958,3.527-5.416,0-8.388-3.791-12.179-7.041-1.1-2.972-3.8-4.874-6.777-5.957l-1.347-.819m.264-79.337-.542-.264.542-.542.819.542m-2.985,96.932,2.378-1.215a2.651,2.651,0,0,0,1.149-2.034,2.485,2.485,0,0,0-1.083-2.166c2.43-.542,3.514-2.972,3.514-5.139A6.274,6.274,0,0,0,520,131.343c2.972,1.361,4.874,5.416,4.874,8.665,0,3.857-3.21,4.967-6.512,5.4l-3.236.277M518.372,42.8h-2.708l-1.083-3.791,2.444-.542m-2.985,10.29.608-.951c.938-.7,2.708-.74,3.725-.951l-4.333,1.9m2.708-23.83v.806c-.264,1.625,1.625,2.972,3.25,2.972a4.846,4.846,0,0,0,2.431-1.083c.277,2.166-2.431,3.791-4.319,3.791s-4.333-1.347-4.333-3.25a3.089,3.089,0,0,1,.872-2.127l2.1-1.11m-.542,11.638-.608.845-1.017.238c-.806,0-1.889-.264-1.889-1.083s1.083-1.347,1.889-1.347l1.017.37.608.978m.357-15.8.185.911a2.087,2.087,0,0,1-2.166,1.889c-1.083,0-2.431-.806-2.431-1.889a2.36,2.36,0,0,1,2.431-2.166l1.493.581.489.674m.727,29.88,1.189-.542.172-1.347c1.611-.542,2.972-1.625,2.695-3.25V45.23c-.806,1.361-2.695.819-4.055.819-2.167,0-5.139,1.625-5.139,4.333l.806-.542,1.361.542L515.4,50.1l1.889.542m-4.055-11.373.806,3.791-2.431.277-1.1-3.8m0,50.13-.264-1.651,1.36,2.708m-1.638,33.843.555-1.017A3.635,3.635,0,0,1,513.5,122.4c1.9,0,3.25.819,3.25,3.25v1.083l-6.776-2.166m-.542-11.638,1.215-2.761c6.829-12.945,23.936-13.276,23.434-22.152l2.166.264c3.791,0,9.207-3.25,11.915-5.416,6.776-5.139,11.109-11.915,14.346-19.22-.264,13.817-2.167,28.163-6.486,41.438,5.944-3.263,13.263-4.61,20.026-4.61h2.166l4.61.264-1.083,4.61-5.693-.264-10.554-1.625-.277-1.083v1.347c0,1.9-2.431,7.041-5.139,7.3l-.277.542a13.315,13.315,0,0,1-4.861,2.166,27.947,27.947,0,0,0,4.6-.806l-.264,2.431-4.874,1.625,4.874-.542-.277,1.625a9.847,9.847,0,0,1-4.333,1.9l4.61-.264v1.347a20.619,20.619,0,0,1-4.61,1.889l4.61-.542v1.361a9.075,9.075,0,0,1-4.61,2.166h.819a10.842,10.842,0,0,0,4.055-.819l.264,1.083c-1.347,1.361-3.236,1.9-5.138,2.444a12.2,12.2,0,0,0,5.416-1.083A44.147,44.147,0,0,0,562.5,132.7c-2.708,4.055-9.194,4.861-13.54,4.861-.542-1.625-2.166-2.166-3.514-2.431-3.25-9.484-.264-19.775-3.791-30.329-1.347-4.069-2.972-7.86-3.25-11.915V93.7c0,4.61,1.083,8.679,2.444,13.276l-.542.264a6.369,6.369,0,0,1-1.9-3.778V104a7.088,7.088,0,0,0,1.361,4.6l-1.083.806c-1.361-1.083-2.985-3.236-2.985-5.4v1.347a8.42,8.42,0,0,0,1.625,4.333h-1.083l-1.506-1.044a6.869,6.869,0,0,1-2.285-4.914v.819a7.8,7.8,0,0,0,1.889,5.4c-1.889.277-3.514.277-5.139,1.361a6.612,6.612,0,0,1-3.25-5.68l-.264,1.083a7.729,7.729,0,0,0,2.431,5.139l-.806.542c-2.444-.542-3.527-3.527-4.069-5.68a8.2,8.2,0,0,0,2.985,6.486c-1.361,1.625-1.638,3.791-1.638,5.971-4.069-.41-8.573-1.123-12.074-3.395l-3.091-2.84m-.409-88.953,1.493-.409a1.625,1.625,0,1,1,0,3.25c-1.083,0-2.166-.542-2.166-1.625l.674-1.215m.409,12.325.845.37.238.978c0,.277-.264.819-1.083.819a1.2,1.2,0,0,1-1.083-.819l.343-.978.74-.37m1.083-6.235-.264.806c0,1.9,1.625,2.444,3.25,2.444l1.625-.264c-.264,1.625-2.166,2.166-3.514,2.166s-3.8-.542-3.8-2.444a2.218,2.218,0,0,1,.845-1.664l1.862-1.044m-.951,85.056,1.929,1.466c4.227,2.761,10.475,4.333,14.742,3.923l.264,1.625c0,1.083-.542,1.083-1.625,1.083-4.874,0-16.248-3.25-17.608-8.4,0-.542.277-1.347.819-1.347l1.48,1.651m-.674-75.308L509.97,43.6l-2.708.542-.806-3.527m2.43-11.638-.409.978-1.215.37c-.542,0-1.625-.542-1.625-1.347s1.083-1.361,1.625-1.361l1.215.37.409.991m-4.491,8.9.977-.238a1,1,0,0,1,1.083,1.083,1.165,1.165,0,0,1-1.083,1.083,1.236,1.236,0,0,1-1.347-1.083l.37-.845m-.647,36.049h-.264l.806-.264m-.806,46.841,1.017-1.427,1.413-1.017a4.137,4.137,0,0,1,2.708,3.527l-.542,2.166-2.51-1.427-2.087-1.823m1.083-89.64.74.343.33.74a.99.99,0,0,1-1.07,1.1c-.542,0-1.361-.277-1.361-1.1l.476-.74.885-.343m-.542,16.8-.819-.542a.872.872,0,0,1,.819-.819c.264,0,.542.277.542.819l-.542.542m.806-6.777.806,3.527-2.153.806-.819-3.25m-.238-7.82.238.515c0,.806-.264,1.347-1.083,1.347a1.236,1.236,0,0,1-1.083-1.347,1.2,1.2,0,0,1,1.083-.819l.845.3m-.132,5.086.37.832c0,.819-.542,1.1-1.347,1.1a1,1,0,0,1-1.083-1.1.985.985,0,0,1,1.083-1.07l.977.238m-.172,6.526-1.889.819-.819-2.985,1.625-1.083m-2.431-5.68.977.2.37.608a1.279,1.279,0,0,1-1.347,1.361,1.251,1.251,0,0,1-1.1-1.361l.344-.608.753-.2m-.079,12.377.344.621c0,.542-.542.542-1.083.542-.278,0-.542,0-.542-.542s.264-.819.542-.819l.74.2m.344-1.823-1.321.581-1.123.779-.264-3.25,1.9-1.361m.264-1.889-.344.74-.74.343a1.241,1.241,0,0,1-1.361-1.083A1.283,1.283,0,0,1,497.25,40.9l.74.37.344.991m-4.069,8.124-.806-.819c.264-1.347.264-2.166,1.347-2.708l.278,2.708-.819.819m-1.321,83.907.515-1.321,1.625-.806c4.068-2.444,9.207-4.61,14.081-4.61,4.333,0,10.554,1.625,10.554,7.041a4.843,4.843,0,0,1-4.861,4.874,14.608,14.608,0,0,1-4.346-1.083,4.373,4.373,0,0,0,4.069-4.069c0-3.25-3.791-3.791-6.235-3.791a23.888,23.888,0,0,0-13.262,4.069l-2.708,1.625-.541-.819,1.109-1.11m-.3-79.046-2.153-.264c.806-1.625,1.348-2.972,2.431-3.791l-.277,4.055M492.1,66.616l-2.972-.264c1.625-2.708,2.444-6.222,3.791-9.207l.806.264a1.256,1.256,0,0,0,1.361-.806v-3.25l-.819-2.708.819-.264,1.889-1.361-.264,1.361c0,.806,1.083,1.625,1.9,1.625a1.768,1.768,0,0,0,.264-3.527l4.333-1.889-.264.542a1.8,1.8,0,0,0,1.625,1.889c1.07,0,1.612-.806,1.612-1.889l-1.07-1.361c7.3-2.166,15.97-1.083,21.664-3.791,8.652-4.055,7.305-9.484,19.762-10.568l.264.819a1.255,1.255,0,0,1-.806,1.361,21.22,21.22,0,0,1,5.957-.542c4.874,0,9.207,4.333,9.207,8.93l-.277,2.985a6.829,6.829,0,0,0-3.514-2.708c-.264-3.527-2.431-7.86-6.5-7.86-7.847,0-2.985,8.4-9.471,13.276,2.166-.542,3.791-4.069,4.333-6.235a6.311,6.311,0,0,1,4.055,3.791,6.414,6.414,0,0,0-3.527-5.416l.542-1.347c1.625,1.347,3.527,2.431,4.61,4.333-.542-1.9-1.9-3.527-3.25-5.416l1.347-.819a13.617,13.617,0,0,1,3.527,4.333c-.264-1.625-1.361-3.25-1.9-4.6,0,0,5.429,3.236,5.429,6.763a4.056,4.056,0,0,1,3.778,2.708c-.806,2.166-1.889,4.61-3.514,5.958v.277c0,3.778-1.347,7.582-2.166,10.832-1.083,3.25-3.791,5.139-4.61,8.111-2.708-10.819-11.36-7.846-11.36-19.762a20.559,20.559,0,0,1,.806-5.68c-1.083,2.431-2.166,4.874-2.166,7.569a11.846,11.846,0,0,0,1.9,5.971,13.279,13.279,0,0,1-2.985,7.569l.264-2.153V63.1l-1.083,4.6c-.806.542-1.347,1.361-2.431,1.638l.806-3.25-1.889,3.778-1.625.819.542-2.985a7.966,7.966,0,0,1-1.625,2.985l-1.347.264.264-1.889V67.976c-.264,1.083-.264,2.166-1.083,2.972l-1.625.277.542-3.25-1.361,3.25-1.347-.277.806-3.25-1.625,3.25-1.625-.264a13.681,13.681,0,0,0,.819-3.527A8.546,8.546,0,0,1,520,70.684H517.83a12.985,12.985,0,0,0,1.347-4.6,8.439,8.439,0,0,1-2.431,4.6h-.806c-3.791,0-7.054,2.985-9.22,5.152,0-1.9,5.429-7.318,5.429-13l-.277-1.625c-5.693,2.972-10.554,4.874-16.789,5.139l-2.985.264M486.959,71.5l4.055,1.149,4.069.74,7.582.542v.542l-3.514,4.61a6.016,6.016,0,0,1-2.985-1.361,5.456,5.456,0,0,0,2.444,1.9l-.819,1.347a4.565,4.565,0,0,1-2.708-.819l2.166,1.625-.819,1.083-1.347-.542-1.625-.542,1.625,1.083,1.083.542-.542,1.625h-.542a3.564,3.564,0,0,1-2.708-.806,5.691,5.691,0,0,0,2.708,1.625h.264l-.264,1.347v-.806l-.278,1.083a4.83,4.83,0,0,1-2.708-1.083,6.213,6.213,0,0,0,2.708,1.889V89.1a6.372,6.372,0,0,1-3.236,0,5.322,5.322,0,0,0,2.972.542v1.083l.264,2.166a9.33,9.33,0,0,1-2.972.806h1.083a2.36,2.36,0,0,0,1.889-.264l.278.542.542.806-2.166,2.166c.542-.264,1.347-.542,1.625-1.083l1.083-.542,1.347.542a5.963,5.963,0,0,1-1.889,2.444,4.845,4.845,0,0,0,2.444-2.166l1.083.264,2.431-.542a1.819,1.819,0,0,1,1.083,1.361L502.4,95.6l.542-.277,1.083,1.083-.542-1.625.542-.264.542,1.347-.277-1.347,2.972-2.431a1.484,1.484,0,0,0,.819,1.083l-.819-1.9c0-.806.542-4.333,1.361-4.61l.806.819c.277,2.708,1.625,4.874,4.61,4.874.542,0,2.444,0,2.444.542-.277,2.972-7.6,4.6-10.026,5.139h2.166c-2.444,3.527-6.222,6.235-10.832,6.235l-2.708-.542c-8.388-1.9-10.832-10.026-10.832-18.15l.845-7.133,1.863-6.935m-.74-4.571,2.866.713,3.289.33h2.708a41.708,41.708,0,0,0,13.8-3.514l.819,1.889c0,2.166-2.444,4.333-3.249,5.958h-1.889l-.542-1.361v1.361H502.4l-.541-1.625-.278,1.625h-2.708l-.542-1.625-.264,1.625h-1.638l-.542-1.9v1.638h-.806l-1.361-.277a3.273,3.273,0,0,1-.542-2.166,3.061,3.061,0,0,0,0,2.166l-1.612-.542a3.091,3.091,0,0,1-.819-2.166,2.326,2.326,0,0,0,0,1.889c-1.889-.264-8.666-2.972-8.943-4.861l2.034.172,2.378.674m1.8,71.015,1.11-.9.542-1.11a36.4,36.4,0,0,1-11.915,4.069h1.083a27.751,27.751,0,0,0,5.918-.819l3.263-1.242m-3.355,3.408-2.576.277a17.015,17.015,0,0,1-8.124-1.9,22.149,22.149,0,0,0,16.248-10.29,4.539,4.539,0,0,1,2.431,3.527,3.374,3.374,0,0,1-1.07,2.166c-.277-.542-1.083-.819-1.625-1.083a2.99,2.99,0,0,1,1.347,2.708c0,1.757-1.625,2.972-3.593,3.752l-3.038.845m1.493-14.346-3.263,3.725c-2.668,3.078-4.2,4.4-10.277,6.024l.806.264c3.791,0,10.488-4.148,12.285-8.256l.449-1.757m-15.165,12.457v-1.361a9.066,9.066,0,0,0,1.625-2.708c6.222-1.083,12.179-10.29,11.36-16.235,1.1.806,3.263,3.778,2.985,5.4,1.361-.264,3.249-1.625,4.61-2.708,0,5.152-4.874,11.651-9.484,13.817l-5.456,2.1-5.641,1.691m1.347-43.6-3.461,1.929-3.038,2.14a4.563,4.563,0,0,0-1.083-2.985,19.151,19.151,0,0,1,5.416-1.083h2.166m-2.246-5.733L467.871,92a13.454,13.454,0,0,0-3.117,4.676l-1.625-1.9c1.625-1.612,2.972-3.514,4.874-4.861a29.463,29.463,0,0,0-5.416,4.32l1.083-2.972a12.147,12.147,0,0,1,7.318-2.708h1.625l-2.523,1.572m-.515-12.642-3.091,5.178a97.005,97.005,0,0,0-4.7,11.03l-1.361-.806a69.219,69.219,0,0,1,3.791-8.943c-1.625,2.708-3.514,5.429-4.6,8.4l-1.361-.542,3.527-9.207s6.763-8.665,11.638-9.749l-3.844,4.637m-13.223,24.887,1.162,1.453,1.559,1.255L460.157,104l-2.008-.621m-2.88-5.614,3.527,1.083-1.083,1.083M455.006,43.6l.264-.806,1.361.806m-.066,61.226-1.559-1.11c.264,1.083,1.625,1.9,2.708,2.708l.819-1.083-1.968-.515m-1.559,8.362,3.527-3.791a31.747,31.747,0,0,1,7.3-.806c2.166,0,5.152.264,6.777,1.625h-1.083a20.6,20.6,0,0,0-13,4.6l-1.77-1-1.757-.621m-.542,24.649.542-2.985c1.889.819,3.791,1.9,6.235,1.9,4.6,0,7.027-4.055,8.93-7.582a7.273,7.273,0,0,1,.819,4.069,5.405,5.405,0,0,1-1.9,4.32,6.186,6.186,0,0,1,.806,2.985l-.264,2.365-.845,1.532-.343-1.876c-.806-1.744-2.84-2.695-5.178-3.276l-8.8-1.453m4.307-44.3,2.734,1.651c1.691,1.361,2.985,3.117,2.985,4.742a2.088,2.088,0,0,1-2.167,1.889,7.7,7.7,0,0,1-3.25-1.083l2.972-3.514h-1.625c-2.708,0-5.152-.819-6.235-3.25.277-1.083,1.083-1.083,1.9-1.083l2.682.647m-2.417-45.322L454.9,48l-1.255-.608.277-.806a3.77,3.77,0,0,1,4.069-1.083l.806-1.361-1.9-2.431a6.233,6.233,0,0,1,3.263-1.638,6.707,6.707,0,0,1,1.083,3.263,4.858,4.858,0,0,1-2.972,4.491l-1.915.383M453.645,81.78v-8.93c3.25-7.3,7.6-13.8,12.192-20.3-4.333,5.68-8.666,11.373-12.192,17.859V65.268c4.61-7.3,11.373-17.054,19.775-20.039-6.908,8.943-12.285,16.8-16.261,26.353l-3.514,10.2m0,8.137v-4.61c0-1.9,6.235-13,7.318-14.9,3.249-5.139,7.582-10.819,13.276-13.262a148.985,148.985,0,0,0-16.789,34.4l-1.1-.277-2.166.542a194.455,194.455,0,0,1,12.193-24.913L459.708,78.2l-6.063,11.717m3.25,17.054-3.25-1.625,2.444,2.708m-2.51-68.439,2.774-1.149-1.083-1.361c-1.625,1.083-3.25,2.708-3.25,4.874l.594-1.387.964-.978m-1.559,67.091,1.057,1.453,1.651,1.242,1.083-1.083-1.995-.7m.911-71.054-1.083-1.347a6.91,6.91,0,0,0-3.237,4.861,4.265,4.265,0,0,1,1.546-2.259l2.774-1.255M453.1,34.675l-.806-1.361c-1.889,1.361-3.25,2.708-3.25,4.874a3.4,3.4,0,0,1,1.427-2.259l2.629-1.255m-4.161-.542,2.536-1.361-.806-1.083c-1.625,1.083-3.25,2.708-3.25,4.61l1.519-2.166m.925-3.263-.819-1.083c-1.625,1.083-3.249,2.708-3.249,4.888a5.011,5.011,0,0,1,1.519-2.4l2.549-1.4m-1.361-1.889-1.083-.819a5.432,5.432,0,0,0-3.25,4.61,4.417,4.417,0,0,1,1.559-2.3l2.774-1.493m-4.874,96.4-.766-1.836c-.938-1.783-2.351-3.3-4.386-3.3l-.806.264c.2.608,2.536,1.823,4.372,3.316l1.585,1.559m-1.36-24.887-1.585,1.2-1.123,1.479-2.972.277a19.063,19.063,0,0,0,3.514-4.61l2.708-.542,2.985.542-3.527,1.651m-5.416,23.672,1.678,1.242,1.572,1.6c-.264-1.625-1.889-4.874-3.778-4.874h-1.9l2.43,2.034m-5.138-46.986,2.338-.343,2.536.079a2.35,2.35,0,0,0,1.889,0l.277.542-7.041-.277m4.874-49.826-.542-.542-5.68,4.333.542.542m-1.361,77.989,3.21-2.378,3.025-2.761,3.778-.277c3.25,0,6.776.542,9.22,2.972l-4.069-.528a32.508,32.508,0,0,0-7.688,1.083l-7.477,1.889m6.156-88.372-.74-.449c-.806,0-6.5,7.041-7.041,7.3l.264.542c.542-.542,7.86-5.68,7.86-6.763l-.344-.634m-9.141,104.884H426.3c0,1.083,2.431,1.9,3.25,2.444l2.166,2.431a5.509,5.509,0,0,0-3.316-4.571l-1.836-.3m1.9-73.921.806-2.6a2.7,2.7,0,0,1,2.444-1.189l1.083.277a8.96,8.96,0,0,0-2.166,5.4,5.652,5.652,0,0,0-4.333,2.985,3.091,3.091,0,0,1-.819-2.166,2.094,2.094,0,0,1,1.083-1.757l1.9-.951m-2.985,29.788.277-.542,1.347.264a3.019,3.019,0,0,0,2.708-3.236c.278-.542.819-.542,1.638-.542h7.3v2.153l-4.333.277,4.055.806v.819h-13m4.068-61.741-.819-.264-4.055,4.6.806.542m1.625,24.649-.41,1.242-1.215.647c-.806,0-1.612-1.083-1.612-1.889a1.812,1.812,0,0,1,1.612-1.9l1.215.542.41,1.361m.819,82.586-.542-1.678c-.832-1.678-2.51-3.2-4.333-3.2h-.806l2.431,2.021,3.25,2.853M431.994,8.137l-.211-.647-.607-.436c-1.083,0-9.207,14.887-9.749,15.706l.542.264,5.112-7.437,4.914-7.45m-13.817,79.6.277-.806a14.479,14.479,0,0,0,6.222-4.069h13.8l-.542,2.166-4.6.542,4.6.542-.528,1.625H418.177m2.985-72.573-.542-.542-2.985,5.693,1.083.542m10.079,121.3,3.738-.528a15.025,15.025,0,0,0-7.6-1.9l-4.319.277c.264,2.972-2.708,4.874-4.888,6.222l8.507-2.814,4.557-1.255m-7.913-36.009-4.055.555,2.708.264-2.444,1.083a12.745,12.745,0,0,0-1.9-3.25h8.943l-3.25,1.347m-6.5-86.642v-.277l2.985-6.777c0-.806-.819-1.07-1.361-1.07-.819,0-1.625,4.32-1.625,4.861l-.819,2.985.819.277M412.761,92.89V91c.264-.819.541-1.361,1.625-1.361l.542.277c.542-1.9,2.708-.819,2.985-1.638h19.22l-.542,1.361-4.874.819,4.61.542-1.083,1.889H412.761m-.277,21.928h-.264a4.442,4.442,0,0,0,.542-2.708l-.277-1.625,1.9-.264c14.346-3.25,25.719-15.706,25.719-31.135,0-5.693-3.778-20.581-11.373-20.581l-1.625.542c.542-2.444,2.708-3.527,4.888-3.8,0-3.236.542-5.68,4.333-7.027l-.277,2.166c0,9.749,8.124,14.081,8.124,28.7,0,18.137-12.457,31.941-29.788,35.468l-1.9.264m22.483-21.386-1.083,1.889-5.152.542,4.346.542-1.361,1.9h-19.5l-.277-.819c0-.542,1.083-1.083,1.083-2.431V93.431h21.941m-21.4,36.894-.832-1.2-1.334-.489c1.625,1.889,2.444,5.68,2.166,8.124a8,8,0,0,0,.541-3.514l-.541-2.919m-1.625-21.188-.806-.819.806-2.431L413.025,104l1.361,1.347a5.456,5.456,0,0,1,1.625,2.972l-1.625.277-2.444.542m-.806-96.945h-1.083l-.542,5.958.819.264m1.07,93.7-.845,2.4a2.563,2.563,0,0,1-1.849,1.387c-.542,0-.542-.542-.819-.806a5.991,5.991,0,0,0,1.361-3.25,6.992,6.992,0,0,0-1.083-2.708h.806a2.2,2.2,0,0,1,1.823.978l.608,1.995M407.345,0,406.5.37l-.238.991.542,17.331h1.083l.277-17.067-.106-1.11m-.132,57.779.238.476c0,.542-.277.819-1.361.819a.718.718,0,0,1-.806-.819c0-.542.542-.542,1.083-.542l.846.066m-.515,72.507-.608-1.9a9.609,9.609,0,0,0-.806,3.8,36.775,36.775,0,0,0,.806,5.68,35.2,35.2,0,0,0,.819-5.68l-.211-1.9m.911-70.711.647.845c-.264.819-.806.819-2.166.819-1.625,0-1.889-.542-1.625-1.083.278-.819.819-.819,1.9-.819l1.242.238m-1.281,54.159-.872.978-.991.409-1.083-.542a4.07,4.07,0,0,0,1.083-2.985l-.264-1.889c0-.542.542-.819,1.083-.819,1.083,0,1.889,1.625,1.889,2.444l-.845,2.4M403.29,63.1l.766-.7c1.229-.41,3.553-.106,4.372-.106s1.9.264,2.166.806c0,1.083-.264,1.083-1.083,1.083-1.625,0-4,.159-5.323-.343l-.9-.74m0-50.91h-1.1l1.1,6.222.806-.264M406.8,64.727l3.791-.264a2,2,0,0,1,1.625,1.625,1.432,1.432,0,0,1-1.625,1.612h-7.3c-.819,0-1.361,0-1.361-1.347,0-1.083.542-1.889,1.625-1.889l3.25.264m-3.25,44.411-2.985-.542h4.069m-5.152,24.649.542,3.514v-.277c-.264-2.695.277-5.958,1.9-7.846-.951,0-1.559.74-1.942,1.691l-.5,2.919m1.07-64.027,2.18-.978c1.361.277,8.4.277,8.665,0a4.485,4.485,0,0,1,2.985,1.9,6.77,6.77,0,0,1,.806,3.527L414.386,78c-.819,2.153-2.708,3.778-4.055,5.4-2.166,2.708-2.166,7.86-3.791,9.22a6.205,6.205,0,0,1-.819-2.985c0-5.416,4.068-8.124,4.068-11.638,0-.542,0-1.9-.819-1.9a.718.718,0,0,0-.806.819l.264,1.889c0,3.514-4.6,7.582-3.25,13.817-1.083-.542-1.625-2.166-1.889-2.985-.819-2.166-.555-5.152-1.638-6.777-1.889-2.708-4.055-5.139-4.055-8.111a6.283,6.283,0,0,1,1.347-4.174l1.611-1.361m-.964-.251-1.757,1.453a7.549,7.549,0,0,0-1.321,4.874c0,5.4,4.055,6.486,4.874,10.277.542,2.444,1.083,6.512,3.791,7.318l1.083,1.347c3.25-2.153,2.985-7.041,6.5-10.832l1.625-2.431c1.347-1.889,1.625-4.055,1.625-6.763a7.362,7.362,0,0,0-1.625-5.152,6.565,6.565,0,0,0-2.444-1.083,2.114,2.114,0,0,0,.819-1.889c0-1.083-1.083-1.625-1.9-1.9l.277-1.083c0-.806-1.347-1.347-2.166-1.347l.542-.819a1.165,1.165,0,0,0-1.083-1.083l.277-.806a1.823,1.823,0,0,0-1.9-1.638c-1.083,0-1.889.819-1.347,2.444-.542,0-.819.542-.819,1.083l.277.819c-.819.264-1.625.264-1.9,1.083V63.1l.277,1.083c-1.361.277-1.9.819-1.9,2.166a1.646,1.646,0,0,0,.806,1.625l-2.6.991m-.674-53.855-.872-2.576-.991-1.149c-.542,0-.806.542-.806,1.07l2.972,7.054.542-.277-.845-4.121m-6.2-.489-.542.542,2.444,5.693.806-.542m.132,25.27,3.619-1a38.42,38.42,0,0,1,7.622-.7,69.087,69.087,0,0,1,7.582,0,30.382,30.382,0,0,1,9.484,3.25,3.321,3.321,0,0,0-1.361,2.708l.277,1.347a23.022,23.022,0,0,0-8.4-2.431l-7.582-.819a28.552,28.552,0,0,0-13.54,3.25l.277-1.347a3.321,3.321,0,0,0-1.361-2.708l3.382-1.546m-1.479,60.3-1.9-1.083H404.1a2.292,2.292,0,0,0,1.9.542c2.166,0,.264-2.431,3.791-1.889,0-4.346,2.972-.819,2.695-4.346h18.427l-1.638,1.625-5.4.542,4.32.819-2.972,1.9H414.386v-.277l-1.9-1.347-2.431,5.4c-3.514.277-7.86,0-11.373,0l-2.166-.806,2.972-.264-5.4-.819m-1.9-56.048-.5,1.242-1.123.647a1.788,1.788,0,0,1-1.625-1.889c0-1.083.542-1.9,1.625-1.9l1.123.542.5,1.361m-5.693-14.9,3.791-4.874a23.007,23.007,0,0,1,16.525-7.3,23.7,23.7,0,0,1,7.582,1.347,25.882,25.882,0,0,1,12.721,11.915,93.73,93.73,0,0,1-12.721,1.625H406.8a74.236,74.236,0,0,1-15.349-1.374l-4.967-1.334m2.444,94.633,2.444-2.021h-.819c-2.444,0-4.61,2.708-4.874,4.874l3.25-2.853m-1.9-28.836-1.044-.7-.845-.925h15.429c.277.542,1.361,1.625,1.361,2.444A2.364,2.364,0,0,0,403.29,104H390.833l-2.721-1.9,3.8-.542-4.888-.819M384.6,20.052l-.819.264,4.069,4.874.806-.542M387.306,52.27l2.272.951a2.067,2.067,0,0,1,1.255,1.757,3.359,3.359,0,0,1-1.083,2.166,5.7,5.7,0,0,0-4.346-2.985,8.871,8.871,0,0,0-2.153-5.4l1.07-.277a2.677,2.677,0,0,1,2.867,2.4l.119,1.387m0,73.921h-.277c-2.431-.264-5.4,2.444-5.4,4.874.806-.806,1.347-1.889,2.43-2.431l2.853-1.678.4-.766M387.24,14.6l-3.17-5.2-1.9-2.338a1.442,1.442,0,0,0-.819,1.083c0,.806,9.207,13.54,10.026,14.887l.542-.264L387.24,14.6m10.079,78.835.542,1.083v.542l-.542.264,2.985,2.985H384.6l-1.625-1.9,4.333-.542-5.138-.542c-.277-.806-.819-1.083-.819-1.889h15.97m-7.846,49.985,8.388,2.814c-2.153-1.347-5.139-3.25-4.861-6.222l-4.346-.277a14.255,14.255,0,0,0-7.569,1.9l3.765.528,4.623,1.255m6.565-52.825,1.017,2.3H380.807L379.724,91l4.055-.542-4.32-.819-.541-1.361h15.706M378.1,71.5l1.36-3.316c1.7-3.765,4.4-8.335,7.847-8.335,1.347,0,2.166,1.083,3.527,1.625l-.542-2.972a4.242,4.242,0,0,0,1.889-3.527l-.542-1.361A27.461,27.461,0,0,1,406.8,49.3l7.582.806a33.31,33.31,0,0,1,10.013,3.25l-.528,1.625a4.242,4.242,0,0,0,1.889,3.527l-.277,2.972c1.083-.542,1.9-1.625,3.25-1.625,5.693,0,9.207,11.651,9.749,15.984l-.542.264a1.808,1.808,0,0,1-1.612-1.083V76.1l-2.708.277-1.625-.277-.819,1.083h-.542a2.47,2.47,0,0,0-2.166,1.083l.264.542a2.356,2.356,0,0,1-1.625,1.889l-1.347-.264-3.25,2.972c-1.347,1.361-3.25,1.9-4.6,2.708-.542.277-.542.819-.819,1.625-1.083.277-2.166.277-2.708,1.1-1.625-.277-2.166.806-2.985,2.166.542.542.819,3.236.819,4.055s-1.083,1.083-1.083,2.431V99.93l-1.625.713a2.341,2.341,0,0,0-.806,1.73c-2.166,0-1.625.806-2.444,1.889l-.264.277a3.98,3.98,0,0,1-1.9-.819,2.471,2.471,0,0,1-1.083-2.166c0-1.625-2.985-5.152-4.333-6.235l.264-.806c0-1.625-2.695-5.139-3.514-6.5V86.932c0-1.9-1.347-4.069-1.347-6.235,0-.542.806-.806,1.083-1.07-.819-1.083-.819-4.069-1.625-4.069s-.819,1.361-1.083,1.625c0,1.083-1.625,1.361-2.444,1.361a4.673,4.673,0,0,1-4.069-2.444c1.083,0,2.985,0,2.985-1.347a.727.727,0,0,0-.819-.819l-1.625.542a2.289,2.289,0,0,1-1.347-.806c-1.889-1.9-2.431-.819-3.791-1.625l-.264.264h-.819L378.1,71.5m0,1.625v-.542l1.36.542m14.346,10.013.819,3.791v1.083H378.641l-.541-1.9,4.61-.806-4.874-.542-.277-1.625m.542-62.283-.264.277-.541.806c0,1.083,7.3,6.222,7.846,6.763l.542-.542-3.593-3.752-2.351-2.365L378.1,20.858m-.806,59.034V78.544h8.652V78h-8.652l.264-1.361,4.874-.806-4.874-.277.277-1.625h6.222l1.083,1.083H384.6c1.083,2.708,2.431,4.61,5.416,4.61A4.222,4.222,0,0,0,393.264,78l.542,1.347-.542,1.347.277,1.625H377.558l-.264-1.347,4.333-.819-4.333-.264m5.138-48.2.542-.542-5.68-4.333-.542.542m2.431,94.779h-1.889c-1.9,0-3.8,3.25-3.8,4.874l1.427-1.6,4.267-3.276m-1.625-62.547,1.255-2.734a15.351,15.351,0,0,0,.911-8.639c3.527,1.347,4.333,3.791,4.333,7.027a5.818,5.818,0,0,1,5.138,3.8l-1.889-.542c-7.582,0-11.373,14.887-11.373,20.581,0,15.693,12.179,28.969,27.357,31.4l.542,1.625a7.762,7.762,0,0,1-.819,2.708C385.14,111.845,371.6,97.487,371.6,79.086a31.384,31.384,0,0,1,3.3-14.821l2.655-4.676M375.352,101.7l-1.585-1.2-3.527-1.651,2.708-.542,2.985.542a19.126,19.126,0,0,0,3.527,4.61l-2.985-.277-1.123-1.479m.581,18.81-.819-.264c-2.708,0-4.333,2.695-4.874,5.139a11.913,11.913,0,0,1,3.157-2.946l2.536-1.929m-5.046-90.036.925,1.017.594,1.281a5.977,5.977,0,0,0-3.236-4.61l-.819.819,2.536,1.493m-3.619,76.761,2.008-1.493a15.171,15.171,0,0,1,7.2-1.479l3.791.277a37.815,37.815,0,0,0,6.222,5.139c-4.861-1.083-10.013-2.972-15.164-2.972l-4.055.528m1.995-74.964.925,1.083.594,1.321a6.907,6.907,0,0,0-3.236-4.888l-.819,1.083,2.536,1.4M369.17,36.3l-.278-1.374a7.937,7.937,0,0,0-2.972-3.236l-.819,1.083,2.536,1.361L369.17,36.3m2.153,71.213,9.141,1.493,8.731,2.3a49.747,49.747,0,0,0,13.817,4.874l2.166.806,1.625-.542,1.9.819c1.083,0,1.625-.819,2.431-1.083h1.625l1.625-.277a71.357,71.357,0,0,0,12.721-4.6c2.166-1.083,14.623-3.791,17.608-3.791a10.835,10.835,0,0,1,6.5,1.889c-2.43-4.32-5.416-5.68-10.29-5.944,1.083-2.444,4.61-3.8,6.776-4.346a6.094,6.094,0,0,0-4.61-1.625h-2.166a35.971,35.971,0,0,0,4.874-18.4c0-8.137-2.167-13.276-6.235-20.316a17.667,17.667,0,0,1-2.153-8.388l.528-4.333-3.778,1.625a4.044,4.044,0,0,0-2.444-.542c-1.347,0-2.708.264-3.25,1.625-1.361-3.25-11.1-5.693-14.081-6.235a72.535,72.535,0,0,0-7.582,0c-5.152,0-12.457.542-16.512,4.069a3.568,3.568,0,0,0-2.721,2.166,3.844,3.844,0,0,0-3.25-1.625,4.024,4.024,0,0,0-2.43.542L378.1,46.049l.541,4.333a17.528,17.528,0,0,1-2.166,8.388c-4.069,6.777-6.235,12.457-6.235,20.316a35.97,35.97,0,0,0,4.874,18.4h-2.166a6.664,6.664,0,0,0-4.861,1.625c2.431.542,5.944,1.9,7.027,4.346-4.874.264-7.846,1.625-10.554,5.944l3.382-1.347,3.382-.542M366.145,35.93l1.03.991.634,1.268c-.264-2.166-1.625-3.514-3.514-4.874l-.819,1.361,2.668,1.255m-1.519,1.889.951.991.608,1.268c0-2.153-1.625-3.778-3.25-4.861l-1.083,1.347,2.774,1.255m.211,68.888-1.942.911-2.127.7,1.083,1.083,1.691-1.242m1.017-66.18-.277-1.519a7.553,7.553,0,0,0-2.972-3.355l-1.083,1.361a6.135,6.135,0,0,1,3.725,2.246l.608,1.268m-4.61,1.625,1.083-.806.542.806m-.423,75.228,1.44-.594,3.051-.436,1.9-1.361-1.9-.264a6.861,6.861,0,0,0-5.693,3.527l1.2-.872m-.661-10.779,2.444-2.708a10.538,10.538,0,0,1-3.527,1.625l1.083,1.083m-1.625-8.124-1.083-1.083,3.25-1.083m.819,5.958-1.836,1.11-2.232.515,1.361,1.083m1.083-4.055-1.8,1-1.995.621,1.347,1.083m3.487-59.337,1.4.845V47.4L361.534,48l-1.308.211a4.626,4.626,0,0,1-4.6-4.874,6.5,6.5,0,0,1,.806-3.263,6.242,6.242,0,0,1,3.25,1.638l-1.9,2.431.819,1.361h1.083l1.585.238m-7.807,57.435h.806c3.791,0,10.29-4.874,9.485-9.207h.264V47.4a8.922,8.922,0,0,0-6.5-8.388,95.25,95.25,0,0,1,9.749-10.845l1.625-.542a6.686,6.686,0,0,1,4.333,2.166c8.4,8.137,25.719,9.484,36.564,9.484l4.6-.264c8.665-.542,22.205-2.708,28.969-9.22a6.106,6.106,0,0,1,4.068-2.166l1.625.542c2.166,1.625,8.124,8.679,10.026,10.845-3.8,1.07-6.777,4.6-6.777,8.388V86.391l.264,8.124c.542,4.055,5.971,8.665,9.762,8.665l-7.86,10.013a14.267,14.267,0,0,0-5.68-1.083c-10.845,0-21.135,10.568-34.4,12.192l-7.041.264c-17.054,0-27.08-12.179-39.536-12.179l-4.874.542-9.471-9.749m7.028-10.29,1.149.132.753.951c-1.625,3.25-4.61,3.514-7.847,3.25a17.1,17.1,0,0,0,2.972,3.514,7.7,7.7,0,0,1-3.25,1.083A1.93,1.93,0,0,1,352.1,99.93c0-2.431,2.893-5.178,5.707-6.393l2.682-.647M349.936,124.3l1.612-2.5c4.373-5.5,12.8-8.613,18.969-8.613,4.333,0,7.582,2.166,10.832,4.333a52.205,52.205,0,0,0,28.44,8.4h4.6c7.86-1.083,14.887-4.61,21.4-8.943,2.972-1.889,6.222-3.791,10.013-3.791,6.763,0,16.525,3.25,17.608,11.109a29.818,29.818,0,0,0-4.874-.819,7.366,7.366,0,0,0-5.693,2.444c-2.431-4.333-7.04-6.222-11.915-7.041,7.86,1.889,12.721,10.29,13.262,17.873l-2.431-.277-6.5.277c-1.625,0-3.527,0-4.874-.819-1.9-7.041-5.68-11.638-13.276-11.638h-.264c7.318,1.625,11.915,9.207,12.457,16.248a25.861,25.861,0,0,0-13.276-3.791,15.8,15.8,0,0,0-6.222,1.083v-1.083a13.851,13.851,0,0,0-3.791-9.207,14.593,14.593,0,0,1,2.708,8.124,8.643,8.643,0,0,1-4.333,7.582c-3.249,2.431-5.416,2.431-7.582,6.222-3.25-6.222-11.915-4.874-11.915-13.8a16.844,16.844,0,0,1,2.431-8.124,15.433,15.433,0,0,0-3.514,10.29,16.645,16.645,0,0,0-6.235-1.083,25.149,25.149,0,0,0-13.262,3.791c.806-7.041,5.152-14.623,12.457-16.248h-.542c-7.041,0-11.109,4.6-12.734,11.638a11.307,11.307,0,0,1-5.139.819l-6.235-.277-2.708.277c.542-7.582,5.429-15.984,13.276-17.873-4.874.819-9.207,2.708-11.915,7.041a7.377,7.377,0,0,0-5.68-2.444l-5.152.819m.819-24.372-3.025-2.14-3.21-1.929h1.889a11.082,11.082,0,0,1,5.152,1.083l-.806,2.985m-.224-5.733L348.748,92a21.577,21.577,0,0,0-4.5-3.448H345.6a11.021,11.021,0,0,1,7.318,2.708l1.083,2.972-5.152-4.32a37.005,37.005,0,0,1,4.333,4.861l-1.347,1.9L350.531,94.2m.344,17.212-3.606-.885-3.567-.3a13.752,13.752,0,0,1,7.318-1.625,28.77,28.77,0,0,1,6.763.806l3.25,3.791-1.995.713-1.8.911-2.946-1.968-3.421-1.44m3.461-57.779,4.6,5.839,3.738,5.8v5.139c-3.263-6.486-7.582-12.179-11.915-17.859,4.6,6.5,8.93,13,11.915,20.3v8.93L359.315,71.7c-3.871-9.511-9.247-17.529-16.155-26.472a22.135,22.135,0,0,1,5.865,3.368l5.31,5.033m-1.757,25.891,1.968,3.078,3.778,9.207-1.347.542c-1.083-2.972-2.972-5.693-4.6-8.4a69.185,69.185,0,0,1,3.791,8.943l-1.625.806c-2.444-7.3-5.693-15.151-11.387-20.845a14.741,14.741,0,0,1,6.816,3.752l2.6,2.919m.4-13.011,2.655,3.9c1.07,1.9,7.041,13,7.041,14.9v4.61l-5.8-11.717-6.394-11.307c4.069,8.124,8.666,16.512,11.915,24.913a3.9,3.9,0,0,0-2.985-.264c-4.6-11.915-10.013-23.843-17.318-34.4a22.738,22.738,0,0,1,7.78,5.614l3.1,3.752m6.169,71.054-4.769,1.255-4.98.647c-4.874,0-15.165-1.361-15.165-7.86a7.249,7.249,0,0,1,1.361-4.055l.264,1.347c.277-6.222,3.25-6.5,7.846-8.124-1.889,1.625-3.778,4.069-3.778,6.777,0,5.416,6.222,9.207,11.1,9.207l1.981-.225,1.915-.594,3.685-1.625.542,3.25.264.819v-.819h.819l3.791.542c-5.152,2.708-11.1,5.416-17.067,5.416l-9.471-.806-2.034.2-2.034.608v-.542c.819-2.166,3.527-3.25,5.429-4.055a39.742,39.742,0,0,0,11.1,1.889,15.005,15.005,0,0,0,7.16-1.7l2.047-1.546M329.66,107.988l1.321.066-1.889-1.625-.542,1.083m2.153-6.777-1.083-.806-1.347,3.527m2.431,6.222-2.153-1.9-.542.819,1.242.845m.37.779-1.889-1.083-.264.542c.264.542,1.347.542,1.889.542h.264m-3.236-11.109-.859,2.312-1.044,2.3,2.985-4.069m-3.25-7.846.476-.978.066-1.189-.277-1.625.819.264,1.625-.264a6.191,6.191,0,0,1-1.638,3.276l-1.07.515m.542,23.011,2.47,2.378a7.957,7.957,0,0,0,3.474,1.149,1.813,1.813,0,0,1-1.083,1.625h-.264c-2.166,0-4.6-2.444-5.139-4.874l.542-.277m.542-78.253v-.542l-2.166.542m0,44.675.33-1.083-.066-1.07h.542l1.361-.542.806,2.153c0,.542,0,1.083-.542,1.361l-2.431-.819m2.431,27.621,1.083,1.242c.991,1.7,1.955,4.452,4.6,4.452a3.069,3.069,0,0,0,2.166-.819l.819-.542a2.818,2.818,0,0,1,1.083,2.166,2.3,2.3,0,0,1-1.9,2.166l-1.083.277c-4.32,0-7.569-2.985-9.194-6.5l.911-1.625,1.519-.819m-2.972-92.612.264-2.708-.264-1.889a4.4,4.4,0,0,1,2.708,4.333v1.347l-2.708-1.083m0,18.427.5-1.215,1.123-.409.806.264M321.774,135.4l3.117-1.215,3.118-.4a17.405,17.405,0,0,1,5.4.806v.264a6.972,6.972,0,0,0,2.444,2.444l-2.444-.277h-.542a15.723,15.723,0,0,0-7.027,1.625l-4.069-3.25M324.31,78.5l-.911.3a3.4,3.4,0,0,0-1.9-2.708,2.889,2.889,0,0,0,1.638-1.889L325.023,78l-.713.5m.172,36.313-1.294.211-.872.608c-.542-.542-.819-.819-.819-1.361s1.638-1.083,1.638-1.083l1.347,1.625m0-24.636-.225.713a2.555,2.555,0,0,1-1.942.911,1.713,1.713,0,0,1-1.9-1.889,6.017,6.017,0,0,1,1.361-2.985,4.374,4.374,0,0,1,2.47,2.127l.238,1.123M321.562,30.91l1.163-.608,1.215-.238a3.058,3.058,0,0,1,2.166.806c-.264-1.083-1.625-1.083-2.708-1.083a4.061,4.061,0,0,0-3.791,2.985l1.955-1.863m3.157,4.769,1.664.343-.542-1.625.542-1.625-.819.277-1.347-.277a2.329,2.329,0,0,0-2.444,1.9,3.591,3.591,0,0,1-2.166.806l3.382.172,1.73.026M320.69,60.936l.608.74.2,1.162h-.264l-2.444-.542-.264-1.361,1.347-.264m1.664,41.557,2.682-3.923-1.083-.542a30.554,30.554,0,0,1-4.888,7.582l3.289-3.117m-1.123-42.1h-.542l-1.625.542-.264-.819,1.625-1.083m-1.083,4.069,1.585.872L320.69,65c0,.806-.542,1.083-.819,1.083-1.083,0-1.625-1.361-2.166-1.9l.819-1.347m-.106,15.019,1.73-.674c1.347,0,2.708,1.083,2.708,2.166a2.676,2.676,0,0,1-2.708,2.431,2.427,2.427,0,0,1-2.444-2.431l.713-1.493m.106,6.671,1.083-1.664h.542a4.792,4.792,0,0,0,2.708-1.083c1.625.542,3.527,2.444,3.527,4.333,0,.819-.542,1.083-1.361,1.083a3.781,3.781,0,0,1-3.527-3.25v1.625c-.542,1.083-1.347,2.708-2.972,2.708-1.361,0-1.9-.264-1.9-1.889v-.819l1.07-.383.832-.66m-1.083-24.94-1.083-.277,1.625-2.444.806,1.1m1.361-39.008L316.08,23.3a.992.992,0,0,1-1.07-1.083c0-.951.872-1.77,1.955-2.338l3.183-.925M319.33,82.6l-1.281,1.493-1.691.674a1.758,1.758,0,0,1-1.625-1.625,3.911,3.911,0,0,1,1.347-2.985l.819-.528.713,1.889L319.33,82.6m-1.347-20.845-.647,1.215-1.255.409a1.554,1.554,0,0,1-1.612-1.625,1.735,1.735,0,0,1,1.612-1.625l1.255.5.647,1.123m.264,14.887-.977,1.149-.37,1.559-1.625.542a1.557,1.557,0,0,1-1.625-1.625,5.236,5.236,0,0,1,.819-2.708l1.783,1.044,1.995.04m4.888,18.678,2.285.991a38.566,38.566,0,0,0,7.992,1.176c1.9.277,4.888,1.083,4.888,3.25,0,4.61-4.61,4.888-4.888,11.109-.264,1.083-1.625,1.625-2.972,1.625-1.889,0-3.249-2.444-3.791-4.069a6.286,6.286,0,0,0,1.625-2.972l1.083-1.083h1.625l-3.791-.542c-4.6,0-9.484,2.708-12.179,2.708-1.083,0-1.361-.542-1.361-1.347l5.139-5.02,4.346-5.825m-9.749-28.7-.819-.528c0-1.083,1.083-1.9,1.361-2.444l1.625.819a3.818,3.818,0,0,1-1.413,1.929l-.753.225m.634-48.056,1.77-.9,1.651-.33-4.333,4.888c-.806,0-1.083-.277-1.083-.819l.581-1.546,1.414-1.295m-.713,25.085-.74-.3c-.542,0-.542.542-.542.806,0,.542,0,.819.542.819s1.083-.277,1.083-.819l-.343-.5M313.65,62.3V63.1c-.264.819-.806.819-1.625.819-.542,0-1.625,0-1.625-.819s1.361-1.083,1.9-1.083l1.347.277m.674,4.531.951-.74.264,1.11.555.264-.317-.5-.224-1.149v-.264l.528-1.083h1.361l.542.806-.37,1.519-.409.608.634-.33.409-1.255,1.625.542A1.279,1.279,0,0,0,321.232,65a3.455,3.455,0,0,0-1.083-1.9H321.5v1.361a18.172,18.172,0,0,1-2.708,8.665c-3.514-.819-7.847-5.693-8.388-9.484.277.819,1.625.819,2.444.819a1.479,1.479,0,0,0-.819,1.347,1.739,1.739,0,0,0,1.361,1.347l.938-.33m-.607,68,1.744-1.1,1.44-1.308a2.046,2.046,0,0,1,1.625,1.889c0,2.708-4.874,2.708-7.041,2.708H310.4l-.264-.806,3.58-1.387m.475-118.582-1.559,1.664-1.149,1.863c-.264.542-.264,1.083-1.083,1.083l-.542-1.083a3.048,3.048,0,0,1,1.559-2.365l2.774-1.162m-.542,44.965v.542l-1.625-.277c-.542,0-1.889.542-1.889,1.625l-.542-3.25,4.055,1.361m-1.863-5.39-3.553-3.012a7.488,7.488,0,0,0,3.527-1.889,2.528,2.528,0,0,0,2.431,1.347c.819,0,1.361-1.083,1.361-1.889a4.934,4.934,0,0,1,3.514,2.972,28.13,28.13,0,0,1-3.514,4.874l-3.765-2.4M314.8,72.151l1.981,1.334,2.285.991c2.43-2.166,4.068-7.582,4.068-10.554a7.067,7.067,0,0,1,1.083,4.055c0,3.791-1.9,8.4-6.235,8.4-1.361,0-2.431-1.083-3.25-1.625-4.874-3.527-6.5-10.568-7.041-16.248l1.625,1.347a16.245,16.245,0,0,0,3.8,10.687l1.678,1.612m-.476-33.011,1.176,1.017,1.123.462a2.187,2.187,0,0,0,2.166-1.083l-.806.277a1.987,1.987,0,0,1-2.166-2.166l.542-3.514c0-1.361-1.083-2.721-1.083-3.8l1.347-2.708c.819-1.347,2.985-1.625,4.069-2.431A20.017,20.017,0,0,0,325.3,21.4h2.166l.872,1.532.476,1.717a2.024,2.024,0,0,0-1.347,2.166,3.62,3.62,0,0,0,.806,2.166v.542c0,2.972,2.431,5.958,4.055,8.4-.542.806-1.889.806-2.166,1.612l-.806.277c-1.347,0-.264-.806-1.083-1.083l-.264.542c0,1.083,1.347.806,2.153.542l-.264,1.625c-.806,1.083-2.431,1.361-4.055,1.361.264,1.083,1.889,1.889,2.708,2.431a1.264,1.264,0,0,0-.819,1.361c0,1.083,1.083,1.889,1.083,2.708,0,2.431-7.318,2.431-8.665,2.431l-1.361-.264v-.542c0-2.708-1.083-5.416-4.32-5.416h-.819c2.431.264,3.791,2.431,4.333,4.6h-.542c-1.083.277-1.889-1.625-1.889-2.972-1.083.806-.277,4.333-1.625,4.333s-2.444-2.708-2.444-3.791a2.6,2.6,0,0,0-.264,2.431l-2.444,1.625-.264-1.083c0-2.708,1.889-4.333,4.333-5.139-2.708,0-5.429-2.985-5.429-5.693,0-1.889,1.638-2.166,2.985-2.166l2.338.462,1.585,1.03m-8.256,15.838,1.625-1.9s5.152,4.888,7.582,6.235a3.631,3.631,0,0,0-1.625,1.361l-4.095-2.549-3.487-3.144m1.347,36.564-.344,1.242c-.608,1.123-1.823,1.929-1.823,3.355l-.264-.819.251-1.083,1.123-1.876.251-1.1a5.722,5.722,0,0,0-1.083-2.985l1.453,1.228.436,2.034m1.532,39.734,2.3-.951a7.092,7.092,0,0,0,3.223-3.316h.542c1.347,0,2.695.264,2.695,1.889,0,3.527-7.569,6.5-10.554,6.5-1.625,0-2.708-.542-2.708-2.153l.542-1.9,1.625.264,2.338-.33M304.641,15.442,306.873,13l-.264,1.625a8.53,8.53,0,0,0,1.625,4.61c0,1.625-1.9,2.166-2.985,2.444a3.408,3.408,0,0,1-1.625-2.985l.277-1.651.74-1.6m-.476,37.911-.819-.872a8.6,8.6,0,0,1-.806-4V41.438l.911,5.958.713,5.958m-3.236-20.039.9-1.1c2.523-2.127,7.794-1.413,11.823-5.68-.409,4.465-5.231,4.676-9.22,5.522l-3.5,1.255m0,4.333,3.091-1.823c3.3-1.334,7.067-1.691,9.907-4.954-.211,4.267-5.139,4.729-9.3,5.6l-3.7,1.176m2.972-8.494-2.431.37h-1.083c3.514-1.9,7.028-2.708,10.554-4.333a16.489,16.489,0,0,1-4.438,2.985l-2.6.978m-3.791-2.338,1.493-1.268a27.261,27.261,0,0,1,6.09-2.246L304.2,25.561l-4.095,1.255m.277,49.021L300.652,78l-.542,4.32a7.419,7.419,0,0,0,2.431,5.693c-2.695-1.083-3.236-2.985-3.236-5.958l1.083-6.222m.04-22.536,1.308,3.236c.938,1.9,1.889,3.448,1.889,5.759l-.264,1.083c-.819-4.874-5.139-8.137-5.139-14.081a20.279,20.279,0,0,1,1.347-6.777c.542,1.361.277,4.61.277,6.235l.581,4.544m-1.77,85.255-.713-2.338-.264,1.083a5.188,5.188,0,0,0,1.889,3.791l.819-.819-1.73-1.717m3.474-72.785.885,2.18.344,2.193v.542l-2.193-4.557c-2.787-4.637-6.75-9.458-6.75-14.121a13.79,13.79,0,0,1,1.638-7.318l-.542,4.069c0,5.271,1.955,9.141,3.923,12.417l2.695,4.6m-1.479,78.293,3.1-.542,3.117-1.347a11.061,11.061,0,0,1-5.138,1.083c-3.25,0-5.416-1.625-5.416-5.416a4.457,4.457,0,0,1,2.444-4.055,7.549,7.549,0,0,0,7.569,6.222,7.693,7.693,0,0,0,4.069-1.083c.542,2.431,2.708,3.791,4.874,4.333a12.661,12.661,0,0,1-7.582,2.431l-5.416-.264a9.791,9.791,0,0,0-7.041,2.431,4.847,4.847,0,0,1-1.083-2.431,3.817,3.817,0,0,1,2.166-3.25,3.679,3.679,0,0,0,1.863,1.453l2.47.436m-5.68-108.583,1.321.37,1.11.991.542,2.166v.528l-3.25-.264a4,4,0,0,1-2.166-3.25l2.444-.542m-1.9,51.451v1.625c0,2.708,2.708,1.361,2.985,3.791-1.361-1.347-3.8-.806-3.8-3.514l.2-1.057.621-.845m.211-28.017,1.136,2.3c1.9,3.25,6.776,8.388,6.776,12.179a49.026,49.026,0,0,0-4.055-6.235c-2.985-3.778-5.693-5.944-5.693-11.638a15.325,15.325,0,0,1,.806-4.874l.37,5.588.66,2.682m-.753-15.851-1.361-.264c1.083-1.9,3.8-2.985,5.971-2.985a4.583,4.583,0,0,1-3.052,3.012l-1.559.238m-1.361,32.5-1.017-.476-.608-.872v.264c0,1.083.542,1.9,1.361,1.9.542,0,1.347-.819,1.889-1.361l-1.625.542m2.708-36.022-1.453.383-1.255.978A5.048,5.048,0,0,1,289,39.008a3.582,3.582,0,0,1,2.444-1.625l1.11,1.281,1.321.872M286.848,67.7l-1.162-.462-.74-.885v.264c0,1.083.277,2.166,1.361,2.166a3.068,3.068,0,0,0,2.166-1.347l-1.625.264m1.889,56.6,2.325.37a10.558,10.558,0,0,1,5.257,4.227,14.135,14.135,0,0,0-4.874-.806c-3.25,0-7.582,2.166-7.582,5.958v.542c.277-1.625,1.9-3.25,3.25-4.069.819.277,2.972,1.083,2.972,1.9,0,1.625-4.055,2.431-4.055,5.416,0,3.791,5.68,4.055,8.665,3.791-.819.806-1.625,1.625-1.625,2.431h-1.083c-5.958,0-11.651-3.514-11.651-10.277,0-4.042,2.906-8.269,6.724-9.273l1.678-.211m-.727-69.311L286.848,56.3l-3.25,1.929-7.6-3.25h.277c2.708,0,8.943-1.625,10.026-4.333l2.166-.542c-.542,1.083,0,1.9,0,3.25l-.462,1.638M320.149,91h.264l1.361,1.889-2.444.542,2.166.264-.264.819a7.92,7.92,0,0,1-3.527,0,3.91,3.91,0,0,0,2.985,1.347l-.277.277-1.889.264-1.9-.264a5.659,5.659,0,0,0,3.25,1.347l-.264.277h-1.083a7.584,7.584,0,0,1-2.444,0l2.708,1.347-.542.542h-.806l-2.166-.264a6.89,6.89,0,0,0,2.431,1.347l-1.083,1.083a5.386,5.386,0,0,1-2.972,0l2.166,1.1L314.733,104h-2.708c.277.542,1.083.806,1.625,1.083-.806.542-3.514,2.695-4.6,2.695l-2.18-.264-2.167-4.6-.541-.819v.819l-1.625-.277a3.607,3.607,0,0,0-2.153.819l.806-.277,3.25.542.264,1.083c-1.347.277-2.695,0-3.778.542h.806l3.249.277.264.806-3.514.542h.806l3.25.542v.542a5.416,5.416,0,0,0-2.972.806l1.347-.264,1.625.264.277.819-2.985.806,1.361-.264,2.166.264c.542,1.625,2.708,3.527,2.708,5.416l-1.083,2.166a28.8,28.8,0,0,0,4.874,8.943c-1.083,1.889-2.708,3.514-4.874,3.514-1.9,0-2.444-1.083-2.708-2.708a4.942,4.942,0,0,0,1.889-1.625l-2.166,1.083-.264-.806,2.166-1.9-2.444,1.083-.264-1.083a3.594,3.594,0,0,0,1.889-1.625l-2.166,1.083-.264-.542,1.889-1.889a3.49,3.49,0,0,1-2.708,1.083c-.542-1.083-1.889-1.9-2.695-2.972a3.759,3.759,0,0,0,2.153-1.638,4.456,4.456,0,0,1-2.972,1.1c-3.25,0-1.889-3.527-2.972-5.693-.542-1.625-4.887-7.3-6.512-7.3-1.347,0-1.612-.277-2.153-1.361v-1.083a12.314,12.314,0,0,0-2.166-6.235c1.083,1.9,1.083,4.333,1.083,6.512v.542l-1.361.264a3.743,3.743,0,0,1-1.889-3.25v.819a4.263,4.263,0,0,0,.806,2.431l-.806.819a8.282,8.282,0,0,1-1.9-2.444l1.083,2.985L281.154,104l1.083,2.431-.264.277-1.361-2.166a4.259,4.259,0,0,0,.819,2.431h-.277l-1.361-1.889.819,2.153-.542.542-1.361-2.431.819,2.708-2.444.542c-1.889-1.083-4.055-2.708-4.055-4.874l.542-1.9,4.333-3.474,3.527-4.108h.806c2.708,0,5.693-3.236,7.3-4.861l2.444,2.708c.806.264,2.985.806,2.985,1.612s-3.527,1.083-3.527,3.791c0,1.625,2.166,2.985,3.791,3.25a3.158,3.158,0,0,1-1.625-2.708c0-2.166,5.152-.264,5.152-3.514,0-2.431-3.791-3.514-3.791-5.416,0-1.625,1.347-2.985,2.708-4.069,0,5.152,6.763,4.346,6.763,7.054,0,1.347-2.431,2.695-2.431,4.861,0,4.333,7.846,3.527,7.846,8.4l-.542,1.889a3.437,3.437,0,0,0,1.361-2.972c0-4.069-4.888-3.791-4.888-6.777,0-1.625,3.527-2.972,3.527-5.944,0-4.888-6.5-3.527-6.5-8.4,0-4.6,3.514-5.139,3.514-10.554a15.737,15.737,0,0,0-1.625-7.041c.819,0,1.083-1.083,1.083-1.625,0-1.625-1.083-3.25-1.889-4.61a13.88,13.88,0,0,1,1.889-4.069,6.632,6.632,0,0,0,1.625,2.985v1.625c0,4.874,1.361,10.29,4.61,14.081a5.528,5.528,0,0,0-1.625,3.791,5.685,5.685,0,0,0,1.9,3.791l-.277,2.166c0,1.625,1.361,2.708,2.708,3.25l-.264,1.083a2.612,2.612,0,0,0,2.021,2.51l3.659.476-3.183-.793c-1.083-.436-1.955-1.11-1.955-2.193l.264-1.625c-.806,0-2.708-1.361-2.708-2.444a4.137,4.137,0,0,1,1.083-2.708A3.738,3.738,0,0,1,311.761,78a5.009,5.009,0,0,1,1.347-3.25l.542.542L313.386,78c0,1.347.264,2.153,1.889,2.153-.542.819-1.625,1.9-1.625,3.25s1.361,2.166,2.708,2.166l-.542,1.361a2.491,2.491,0,0,0,2.708,2.444l1.347-.277.277,1.9M270.058,52.548l2.708-.542a3.7,3.7,0,0,0,1.348,2.153l-4.055-1.612m-.542,69.852-.277-.264-.264-.819h.806M268.7,98.306V91.265h1.361v6.222m7.3-38.44-1.929,1.387-2.127.779a1.83,1.83,0,0,1-1.625-2.444l-.819.277c-1.625,0-3.527-.819-3.527-2.444l.277-1.625,9.749,4.069,2.84.978,2.853,1.189a6.7,6.7,0,0,0-2.18,4.333c0,3.236,2.721,6.222,5.429,7.582.264,2.972-.819,7.027,3.778,7.027h1.083c-5.944-1.889-1.625-5.68-4.32-8.388-2.985,0-4.61-2.431-4.61-5.416a12.035,12.035,0,0,1,1.361-5.139c5.139,2.166,10.819,6.763,10.819,13,0,3.514-1.889,7.027-3.791,10.013a15.781,15.781,0,0,0,4.069-10.29,12.241,12.241,0,0,0-1.9-6.777c2.985,1.361,5.971,3.25,5.971,6.777a20.03,20.03,0,0,1-.819,4.333c-1.889,3.791-11.1,15.165-15.429,15.165-1.361,0-1.638-1.889-1.638-2.708l.277-1.347a2.646,2.646,0,0,0,2.444-1.1l2.166.819a3.164,3.164,0,0,0,2.972-2.444,3.086,3.086,0,0,1-2.431,1.625,2.457,2.457,0,0,1-1.9-.806,5.364,5.364,0,0,1-3.25,1.625,2.668,2.668,0,0,1-2.708-2.444l.542-1.625a4.281,4.281,0,0,0,3.249-1.347,2.864,2.864,0,0,0,2.444,1.347c1.347,0,2.431-1.083,3.25-2.166-.819.542-1.625,1.361-2.708,1.361a4.068,4.068,0,0,1-2.444-1.083l.542-.819c-1.347,1.083-2.708,2.166-4.333,2.166s-3.25-.806-3.25-2.708L276,80.156a6.207,6.207,0,0,0,2.985.819c2.444,0,3.791-1.347,3.527-3.791v-.542c0,1.625-.819,3.514-2.721,3.514a6.068,6.068,0,0,1-3.514-1.612l1.083-1.083a4.771,4.771,0,0,1-2.972,1.625c-.542,0-2.708-2.985-2.708-3.791,0-1.083.806-2.166,1.083-2.985l1.625.277c0,1.083.542,2.708,1.889,2.708a7.656,7.656,0,0,0,4.6-1.9,8.8,8.8,0,0,1-3.514,1.083c-1.625,0-1.9-.542-1.625-1.889v-.277c1.625-.542,1.889-2.444,4.333-2.444h-.819c-1.889,0-1.625,2.18-4.6,2.18-1.347,0-3.25-.819-3.791-2.18-1.347-.264-2.708-1.083-2.708-2.166a5.062,5.062,0,0,1,.819-2.153l1.347.264c.277,1.889,2.444,2.972,4.068,2.972a7.1,7.1,0,0,0,4.861-2.431,7.82,7.82,0,0,1-4.861,1.347,2.932,2.932,0,0,1-2.708-1.889l3.514-1.347-3.25.264c-1.625,0-3.514-.264-3.514-2.166a4.584,4.584,0,0,1,.806-2.708h1.625a2.164,2.164,0,0,0,2.444,1.9,3.983,3.983,0,0,0,2.325-.951l1.73-1.757m-8.124,44.675,1.9-.542a6.614,6.614,0,0,0,3.514,5.68l-3.25.277-2.166-5.416m0,0,.542,2.814,1.361,2.6H268.7l-1.017-2.378L267.073,104m-1.361,13.527v-.264H266.8l-1.083-.819h1.625l-.779-.2-.568-.608h1.625l-1.361-.542.277-.277h1.625l-1.361-.542.542-.542,1.9.542-1.347-.806,1.625-.277c2.166,0,3.249,2.166,3.514,4.333-1.083.542-2.166,1.361-3.514,1.361l-2.008-.476-1.8-.885m-.806-18.414V91l1.625.264v7.846m.568,20.079,2.417.515a7.639,7.639,0,0,0,4.333-1.638h.264l.277.277c0,1.361-3.791,2.431-4.874,2.431a7.755,7.755,0,0,1-4.346-1.612l1.083.264-1.347-1.361,2.193,1.123m-.476-12.523.991,2.47-1.9-.277c-.806-1.347-.806-3.236-1.083-4.861.542.264,1.083,0,1.625,0l.37,2.668M263.282,104h1.083l.542,4.861h-1.625c-.542-.264-.542-1.347-.542-1.889l.542-2.972m-.885-30.62-.476.832c0,1.889,2.985,2.431,4.333,2.708,0-.819-2.972-1.625-2.972-2.708,0-.542,3.791-1.361,4.333-1.625h-1.9l-2.206.3-1.11.489m-.74,24.649V90.182l1.625.277v8.388m-1.889-47.66,1.889.277,3.25-.819c.542,1.083,1.361,1.361,2.444,1.9a9.848,9.848,0,0,1,3.791,1.889l8.388,3.791,8.124,2.985a3.631,3.631,0,0,0,0,2.431,21.4,21.4,0,0,0-6.222-3.791l-21.664-8.665m1.347,15.706-1.757.436a1.656,1.656,0,0,0-.951,1.453c0,1.361,1.625,2.721,2.708,3.527,0-.806-1.625-2.166-1.625-3.25,0-1.625,2.972-1.9,3.791-1.9l-2.166-.264m-1.8,68.848,1.453-1.585,1.968-3.633h.542c1.083,0,1.625.277,1.625,1.361,0,1.625-4.333,6.5-5.957,6.5-.806,0-1.083-.819-1.347-1.625l1.717-1.017M258.685,96.4V88.834l1.347.806v7.582m-1.083-36.934-.766.594-.317.872c0,1.625,1.9,2.972,2.985,3.514-.819-.806-2.166-2.431-2.166-3.514s2.972-1.625,3.778-1.625l-1.612-.277-1.9.436m-.264-7.741-1.123.238-.5.832c0,1.9,2.972,2.985,4.333,3.25-.542-.542-3.25-2.431-3.25-3.25l2.166-.542-1.625-.528m-3.25,40.342V86.932l1.625,1.083v6.763M257.6,42.8l2.021.436,2.034-.172,2.708,2.166c-2.166.542-4.6,1.625-7.041,1.625a3.791,3.791,0,0,1-3.791-3.25L257.6,42.8m-3.976,47.554-.634-.713V85.03l1.083,1.083v5.152m3.527,21.122.806-1.083-5.693-.819-3.791-.264,3.791.806m-2.166-72.3.885.74,1.281.343,2.444.264a3,3,0,0,0,1.9,2.444l-4.346.277c-2.708,0-5.944-.277-5.944-3.527v-.806l3.778.264m3.8,76.906,1.083-1.083-2.721-.277-6.222-.806,6.222,1.625m-1.889,2.972.806-.806-5.944-.819M248.659,69.6l1.651.713,2.4.092a6.5,6.5,0,0,0,3.263-.806,5.053,5.053,0,0,0,3.791,1.347l.542-.264c-1.9,0-4.333-.819-4.333-3.25A3.291,3.291,0,0,1,256.783,65c-.806-.542-2.166-1.625-2.166-2.444,0-1.889,2.708-3.25,2.708-4.333,0-1.625-3.791-3.25-3.791-6.222l.542-2.166,11.638,4.6-.264,1.889a3.371,3.371,0,0,0,1.347,2.721l-.264,2.166a4.423,4.423,0,0,0,1.361,3.514,5.115,5.115,0,0,0-.819,2.708c0,1.9,1.9,2.972,3.527,3.514l.806.819a6,6,0,0,0-1.347,2.985c0,1.889,2.708,5.139,4.874,4.874l-.542,1.889a3.35,3.35,0,0,0,3.236,3.514l-.264,1.361a3.613,3.613,0,0,0,2.166,2.985v.264l.264.819L275.461,91c-2.153,0-4.861-.542-4.861-3.263l.542-2.166h-2.166c-2.18,0-4.069-.264-4.069-2.708a6.362,6.362,0,0,1-3.25.542c-.542,0-4.6-1.083-4.6-2.166s2.972-2.153,3.791-2.431c.806,2.431,3.778,2.972,5.68,2.972V80.7h-1.083c-2.708,0-4.6-.542-4.055-3.514a2.864,2.864,0,0,1-2.444-1.347c-1.347,1.347-3.25,1.625-5.152,1.625l-1.083-.277a2.825,2.825,0,0,1-1.083-2.972l-2.708.806c-2.695,0-4.055-1.625-3.778-4.333l1.757-.343,1.757-.74m-.277-.264-2.431.872-2.431.476a2.28,2.28,0,0,1-2.444-2.444V67.7h.542c1.625,0,4.333-1.083,5.958-1.612l-.264,1.07.225,1.295.845.885m-6.7-37.845,1.559,1.281v.277c0,2.166,1.625,3.25,3.791,3.25l2.431-.277.542,1.9c-3.236-.542-10.013-1.9-10.013-6.512l.542-1.625,1.149,1.7m3.461,29.722.74.819a5.068,5.068,0,0,0,3.038.806h3.791l1.638-.277,1.347,1.9-.264,2.695.264,2.18-2.985-.277c-1.625,0-4.861-.542-4.861-2.708l.528-1.083h-.264a25.792,25.792,0,0,1-5.416,1.083c-1.347,0-2.985,0-2.985-1.625l.277-1.625,5.152-1.889m-4.069,18.678-.2.5-.621.3a.857.857,0,0,1-.806-.806.709.709,0,0,1,.806-.806l.621.2.2.608m0,37.634h-1.083a7.643,7.643,0,0,1-1.9,3.527l1.995-1.559.991-1.968m.106-3.619.172-3.685h.264c.819,1.083,0,4.055,2.444,4.055,2.166,0,1.889-3.791,1.889-5.139l2.708-1.9h1.083l2.972.277,5.693,1.347c2.166.542,4.333.542,4.874,2.985a46.971,46.971,0,0,1-7.847,6.763l-2.721,2.444h-3.25l2.985.806.542,1.083h-.277a6.448,6.448,0,0,1-3.25,0,4.182,4.182,0,0,0,2.985.819h1.083l1.9,1.889a5.723,5.723,0,0,0-1.083,2.985,5.964,5.964,0,0,1,1.889-2.444l.542.542a5.721,5.721,0,0,0-1.083,2.985l1.9-2.166h.806a7.271,7.271,0,0,0-1.347,2.972l1.889-2.166,4.333,1.625v.542l-.37,1.532c-.713,1.757-2.338,3.884-3.963,3.884a5.293,5.293,0,0,1-2.166-.806l-1.083,1.347h-.264c-.819-2.695-.277-4.32-2.721-6.763-2.431-2.166-6.763-5.416-10.013-6.5-1.347-.542-5.152-.542-5.152-2.166,0-1.083,1.361-3.791,1.625-4.874a1.722,1.722,0,0,0,1.453-.66l.555-1.612m1.215,23.46,3.434,1.136,3.368.423a7.491,7.491,0,0,0,3.514-.819,4.323,4.323,0,0,0,1.361-2.166c.277,1.083.542,1.625,1.625,1.625.542,0,1.361-.542,1.361-.806a4.5,4.5,0,0,0,1.889,0v.264a1.717,1.717,0,0,0,1.9,1.9c2.431,0,4.32-1.9,5.68-3.791l1.9-.277.806.542s-4.333,4.874-5.958,4.874a1.819,1.819,0,0,1-1.361-1.083,4.957,4.957,0,0,0,1.361,3.25,28.757,28.757,0,0,0-10.568-2.431h-.806a21.77,21.77,0,0,0-10.832,2.972v-.542c0-1.347,1.083-2.431,1.9-3.25a15.829,15.829,0,0,0-6.512-2.708l-.264-2.695,2.906,1.942,3.289,1.638m29.827-89.693,1.083.264c4.055,0,6.763-1.889,9.471-4.333-2.444,1.625-5.416,3.25-8.388,3.25a6.047,6.047,0,0,1-4.61-2.431,18.051,18.051,0,0,0,5.958-4.069c-1.625,1.361-5.68,3.527-8.124,3.527-1.361,0-3.25.264-4.069-1.361a40.949,40.949,0,0,0,7.054-3.25c-2.985,1.347-7.054,2.708-10.29,2.708-1.361,0-3.25-.542-3.25-2.166,2.708-.542,5.139-1.889,7.846-3.25-3.25,1.083-6.763,2.444-9.749,2.444a3.668,3.668,0,0,1-2.444-.542,4.242,4.242,0,0,1-1.625-3.25l1.625-.542,3.263-1.625-3.263,1.083a15.306,15.306,0,0,1-4.861.806c-1.083,0-2.708-.264-2.708-1.625V33.05h.806c2.166,0,4.6-1.1,6.763-1.9l1.083-.819-1.083.542a20.393,20.393,0,0,1-6.763,1.625,4.7,4.7,0,0,1-4.6-3.514h1.625a13.774,13.774,0,0,0,5.944-1.083l-3.778.264c-3.25,0-10.832-1.347-10.832-5.944l.4-1.585,1.215-1.4,8.19,5.178,8.6,4.571L266.8,36.022c6.235,2.444,20.858,6.235,24.649,11.373a5.941,5.941,0,0,0-2.708,2.444l-2.708.542c-.806,2.431-7.041,3.514-9.207,3.514a2.266,2.266,0,0,1-2.431-2.431l1.347-1.083h.806c4.333,0,8.4-.542,10.3-4.874-1.9,3.25-5.152,4.055-8.679,4.055l-2.431-.264a8.8,8.8,0,0,1-5.139,2.166,3.158,3.158,0,0,1-2.708-1.083l4.333-2.708-4.372,1.863a14.963,14.963,0,0,1-4.571.845,3.336,3.336,0,0,1-3.514-3.25,18.089,18.089,0,0,0,4.861-1.9l1.361.277,1.9-.277,2.061,1.519,2.272.925M235.661,81.78l-.819.819c-.806,0-1.07-.542-1.07-.819,0-.806.264-1.083,1.07-1.083l.515.238.3.845m2.166-23.553.753,1.268a6.409,6.409,0,0,0,4.121,1.717l2.166-.277v.277l-3.725,1.11-4.135.515c-1.083,0-5.4,0-5.4-2.166a5.126,5.126,0,0,1,1.347-2.708l4.874.264m-1.625,78.8,1.889.542a8.275,8.275,0,0,0-4.861,3.25l1.889.542c.542.277,1.083.542,1.083,1.083a1.521,1.521,0,0,1-1.625,1.361,3.005,3.005,0,0,1-2.972-2.985,3.67,3.67,0,0,1,2.853-3.54l1.744-.251m-7.3-53.076-.238.859-.845.225c-.542,0-.819-.264-.819-1.083a.718.718,0,0,1,.819-.806l.845.2.238.608M228.62,82.6l-1.836.608-.608,1.823c0,1.083.819,1.9,2.444,1.9a2.1,2.1,0,0,0,2.166-1.9,2.55,2.55,0,0,0-.674-1.823L228.62,82.6m2.232-11.558,2.642-.092-3.25-.542c-2.431,0-6.235,1.9-6.777,4.069a7.577,7.577,0,0,1,4.61-2.985l2.774-.449m-7.912.185,3.276-1.625a16.307,16.307,0,0,1,7.278-.819,5.287,5.287,0,0,0-3.514-.806,12.155,12.155,0,0,0-10.026,5.693l2.985-2.444m-1.1,13.262-.343.753-.727.33a1.126,1.126,0,0,1,0-2.166l.727.343.343.74m1.083,14.081-.806-.264-.277.264c0,.819-1.347,2.166-2.431,2.708l2.061-1.044,1.453-1.664M221.3,83.141l-1.479.542-.674,1.347a2.389,2.389,0,0,0,2.153,2.444,2.625,2.625,0,0,0,2.444-2.444,1.721,1.721,0,0,0-.819-1.347l-1.625-.542m-1.519,16.591.819-1.268.436-1.519-.806-.264a12.926,12.926,0,0,1-2.708,4.6l2.259-1.545m-1.11-28.546,3.21-2.193a24.06,24.06,0,0,1,6.2-2.906,20.225,20.225,0,0,1,7.041-1.361l2.972.542a3.767,3.767,0,0,0,1.9,2.166v.542a2.88,2.88,0,0,0,2.444,2.708l3.791,7.041c2.431,4.6,3.514,9.749,6.486,14.359,2.721,4.055,7.054,8.111,12.192,8.111,5.958,0,11.1-5.139,14.887-9.194a3.371,3.371,0,0,0,1.638,2.972c-2.444,2.166-4.069,4.6-7.041,6.222a17.419,17.419,0,0,1-9.484,2.721,15.166,15.166,0,0,1-12.192-6.235c-3.25-4.6-4.861-10.026-7.3-15.165-1.347-2.708-4.055-7.846-7.318-8.93a9.358,9.358,0,0,1,2.444,2.166h-.542c-5.957,0-11.373,3.791-17.331,3.791-2.972,0-5.68-1.361-6.763-4.069l.806-1.347,1.968-1.942m-.409,7.08,2.047.819,2.351.264c5.958,0,12.179-3.791,18.15-4.333L242.7,78l-1.625-.277c-6.235,0-11.915,4.6-18.15,4.6a8.859,8.859,0,0,1-8.111-5.4l1.083-2.166.832,2.087,1.532,1.427m.594-36.353,2.18.608c1.347,2.985,4.874,4.333,8.124,4.61-1.347,1.347-3.527,1.625-5.416,1.625-5.958,0-10.568-3.25-10.568-9.484l.277-1.347a12.639,12.639,0,0,0,3.382,3.012l2.021.978M217.788,65v.542l-1.176.845-1.8.225c-.819,0-3.527-.528-3.527-1.889l1.083-.264,1.995.264,3.421.277m-.475,6.288-1.691.951a9.673,9.673,0,0,1-3.791.885c-.542,0-1.625,0-1.625-.819s6.777-1.625,8.124-2.444l.277.277-1.294,1.149m.475-3.857-.555.674a7.241,7.241,0,0,1-3.236.674c-.819,0-4.333-.264-4.333-1.625,0-.542.264-1.07.806-1.07l2.708.806,2.206.476,2.4.066m0,1.347.277.555a22.356,22.356,0,0,1-7.054,1.612c-1.347,0-1.625-.264-1.625-1.612l.542-.555c1.083.555,2.166.277,3.25.277l4.61-.277m34.385-15.97-3.144.753-3.342.33c-2.166,0-4.61-.542-5.693-2.166l4.61-1.889a15.179,15.179,0,0,1-6.235,1.347c-2.985,0-5.416-1.625-7.3-4.055a17.71,17.71,0,0,0,6.486-1.625,22.032,22.032,0,0,1-5.68.806c-3.514,0-7.041-.542-8.943-3.791h.277c2.166,0,4.61,0,6.5-1.347a15.779,15.779,0,0,1-5.152.806,12.6,12.6,0,0,1-9.735-4.333h7.846l-4.6-.489c-5.746-.66-13.817-2.087-13.817-6.552l.819-2.444L228.686,38.8l24.028,10.224v.819l-.476,1.479-.066,1.493,1.691,2.4,1.572,1.387.912.608.713,1.017c0,1.083-3.263,2.444-2.708,4.069l-1.638.264h-1.625c-1.889,0-4.055-.264-5.138-2.166l3.791-1.347a15.954,15.954,0,0,1-6.222,1.083c-1.9,0-3.8-.542-4.346-2.444l3.263-1.625a10.056,10.056,0,0,1-4.887,1.083c-2.431,0-4.6-.819-5.68-2.708l2.972-1.625A24.908,24.908,0,0,1,228.62,53.9a4.644,4.644,0,0,1-4.61-3.514,8.8,8.8,0,0,0,5.429-3.25,10.3,10.3,0,0,0,9.194,4.874c1.083,2.153,4.069,2.695,6.235,2.695a8.623,8.623,0,0,0,6.5,2.985l2.8-.581,1.268-.5-2.721.264c-2.166,0-4.6-.542-5.944-2.166l2.8-.74,2.6-1.149m-43.05,10.026-.845.608-.238,1.017c-2.972-.277-8.4-3.527-8.4-7.054,0-1.083,1.361-1.625,2.444-1.083l7.041,6.512m-2.431,3.25-.819,1.612c-2.708-.264-11.373-4.861-11.373-7.846a2.02,2.02,0,0,1,3.25-1.625c1.625,1.361,2.166,3.25,4.333,4.874l4.61,2.985m-12.734-20.58,1.876.779c1.717,1.453,2.985,4.491,3.8,5.72h-1.083a2.26,2.26,0,0,0-2.166.806,9.333,9.333,0,0,1-3.236-5.68l.092-1.017.713-.608m0-1.9-.343.753-.74.33a1.165,1.165,0,0,1-1.083-1.083,1,1,0,0,1,1.083-1.083l.74.238.343.845m4.254,21.941,1.427.806a23.9,23.9,0,0,0,5.971,2.708,1.69,1.69,0,0,0,0,1.625c-2.444,0-13.817-3.527-13.817-6.222,0-.542.542-2.985,1.361-2.985l5.059,4.069m-2.6,2.906,5.667,2.5,4.333,1.1.806,1.347H204.79c-2.972,0-14.887-1.083-14.887-5.416,0-.542.542-1.625,1.083-1.625l4.623,2.1m-4.082-25.93-.515,1.215-1.11.409a1.557,1.557,0,0,1-1.625-1.625A1.747,1.747,0,0,1,189.9,40.9l1.11.515.515,1.11M188,44.965l1.995.674,1.8,1.493c1.9,1.625,1.625,4.055,2.708,6.222-1.083,0-2.166,1.347-2.972,1.889-2.166-1.889-5.429-5.139-5.429-8.111l.542-1.7L188,44.965m.542,16.789-.264-.542a3.535,3.535,0,0,1,3.25-3.527c.542-2.444,2.166-3.25,4.32-2.985a2.613,2.613,0,0,1,2.708-1.889,5.271,5.271,0,0,1,3.8,2.431l-1.625.277-1.361-.542c-1.083,0-1.9,1.347-2.166,1.889h-.819c-2.166,0-2.695,1.638-2.972,3.527,0,0-2.972,2.985-2.708,4.874-1.083.277-2.431.819-2.431,2.166a3.358,3.358,0,0,0,1.083,2.166c-.819.542-.542,1.083-.542,1.9-1.083-.555-2.721-.819-2.721-2.166a1.951,1.951,0,0,1,.819-1.638A3.221,3.221,0,0,1,186.1,65a3.52,3.52,0,0,1,1.374-2.827l1.07-.423m-.806-19.5-.2.911a2.373,2.373,0,0,1-2.246,1.255,2.173,2.173,0,0,1,0-4.346,2.361,2.361,0,0,1,2.246,1.268l.2.911m-4.227,5.2,1.11.911c2.351,2.285,5.35,7.014,6.367,8.23-1.361,0-2.166,1.083-2.444,2.444-2.708-1.9-8.665-5.693-8.665-8.943a2.777,2.777,0,0,1,2.708-2.972l.925.33m-5.522,92.81,5.046-2.6a33.5,33.5,0,0,1,14.174-3.078,27.447,27.447,0,0,1,17.872,6.5c-2.444-1.083-4.61-1.083-7.318-1.083-2.153,0-5.944,1.347-8.93,2.431l4.333-3.791h-2.431c-3.8,0-8.943,1.625-12.734,3.25l3.25-3.791c-1.083-.264-3.593,0-6.235.476l-7.027,1.691M183.126,43.6l-.251,1.308a3.108,3.108,0,0,1-3,1.942,3.25,3.25,0,1,1,0-6.5,3.108,3.108,0,0,1,3,1.942l.251,1.308m4.333,17.067-1.057.608-.845,1.017c-2.166-1.083-8.93-4.069-8.93-6.777,0-.542,1.083-3.514,2.166-3.514.542,0,2.365,1.889,4.227,3.923l4.438,4.742m-10.832-2.444,8.388,4.874a3.9,3.9,0,0,0-.264,2.985c-2.985-.277-8.93-2.708-8.93-6.235l.2-1.017.608-.608m0-11.915,1.585.608.581,1.836a1.923,1.923,0,0,1-2.166,1.889c-1.347,0-2.431-.806-2.431-1.889a2.373,2.373,0,0,1,.713-1.836l1.717-.608m.172,5.072.37.885c0,1.083-.542,1.889-1.625,1.889a1.631,1.631,0,0,1,.277-3.236l.978.462m-.436,4.135-.343.753-.74.33a1.241,1.241,0,0,1-1.083-1.361l.806-.806.991.343.37.74m53.882,4.333-2.563-.555c-2.589-.74-5.02-2.219-5.02-5.68l.542-2.153a5.538,5.538,0,0,0,4.346,3.3l1.889.211,1,1.189,1.427.978-.911,1.255-.713,1.453v.542c0,3.25,5.68,3.791,7.846,3.25v1.083a28.808,28.808,0,0,0-8.388-1.347,59.679,59.679,0,0,0-9.749,1.083l-.542,1.347c0,1.083.819,1.889,1.361,2.708l-.542.542c-1.083,0-1.9-1.625-1.9-2.708l.819-1.889-.819.264a11.912,11.912,0,0,1-5.958-1.889l-.542,1.083a1.512,1.512,0,0,0-1.625,1.347,1.642,1.642,0,0,0-1.083,2.431,1.512,1.512,0,0,0-.819,1.361,1.99,1.99,0,0,0,.542,1.625c-.542,0-.806.542-.806,1.083a1.819,1.819,0,0,0,1.083,1.361v.806l-.277.277a1.642,1.642,0,0,1-1.611-1.9,1.927,1.927,0,0,1-.819-1.625,1.479,1.479,0,0,1,.819-1.347l-.542-1.1a1.686,1.686,0,0,1,1.07-1.625l-.264-.528c0-.542.542-1.361,1.083-1.361v-.264a1.036,1.036,0,0,1,1.347-.819c.277-.806.819-.806,1.361-.806-6.763-3.527-11.651-10.832-14.623-17.608-.542-1.083-1.9-4.333-3.514-4.333h-.542a4.859,4.859,0,0,0-4.333-1.083,4.537,4.537,0,0,0-3.263-1.347c-.806,0-1.889.264-2.166.806l-3.236-.806a4.407,4.407,0,0,0-4.61,4.6v1.9a2.932,2.932,0,0,0-1.889,2.708l.542,2.708c-.277,0-.819.542-.819,1.347l.542,1.625-.264,1.625.806,3.25c4.333,12.179,18.15,16.789,29.788,16.789a46.164,46.164,0,0,0,12.457-1.625,58.489,58.489,0,0,0-5.693,13.262c-1.083,4.346-2.166,7.318-5.944,10.026-3.527,2.431-8.137,1.889-12.192,2.431-4.6.542-10.568,3.263-10.568,8.665,0,3.791,2.708,4.61,2.708,6.776,0,2.708-6.222,4.055-6.222,8.666,0,3.25,4.055,6.222,6.5,7.3-1.083-.806-2.708-2.431-2.708-4.055,0-4.874,11.651-2.444,11.651-9.207,0-4.333-5.416-7.041-5.416-11.373l.264-1.083c3.791-2.431,11.915-.806,17.608-3.25a15.5,15.5,0,0,0,7.992-7.846l1.215-3.791.476-2.444.066-2.444c-2.721,12.457-7.6,17.067-19.775,17.344l-5.416.264c-2.431.819-4.61,2.708-4.333,5.416l1.361-2.708v.542c0,4.333,5.139,7.3,5.139,11.373,0,5.416-8.4,4.055-10.832,7.041,1.625-5.416,10.026-2.444,10.026-7.86a2.485,2.485,0,0,0-1.083-2.166l.264,1.083a2.736,2.736,0,0,1-2.431,2.985l.264-1.625c0-4.069-3.791-6.235-3.791-8.943a3.556,3.556,0,0,1,.806-2.153,4.069,4.069,0,0,0-1.889,2.972c0,2.431,2.166,3.791,2.166,5.958,0,2.431-2.985,2.972-4.61,4.055,1.361-1.347,3.527-2.166,3.527-4.055,0-2.708-2.708-2.985-2.708-5.958,0-5.139,5.416-8.124,9.749-8.665,4.333-.819,8.943.542,12.734-2.444,5.944-4.055,6.763-13.54,9.471-20.3.819,4.333,5.416,5.958,8.93,5.958,3.8,0,7.318-1.361,10.845-2.708a1.8,1.8,0,0,0-1.083,1.889,2.087,2.087,0,0,0,1.889,2.166,2.14,2.14,0,0,0,2.166-2.166,2.2,2.2,0,0,0-2.444-2.166l5.152-1.612a2.741,2.741,0,0,0-1.083,1.889c0,1.083.806,1.625,1.9,1.625a1.788,1.788,0,0,0,1.889-1.625,2.267,2.267,0,0,0-1.889-1.889H242.7c3.527,6.486,4.61,14.887,10.013,20.567a16.026,16.026,0,0,0,8.679,4.61l-.277,2.444.277,2.431c-2.166-.277-7.318-1.625-8.679-2.431a3.763,3.763,0,0,1-1.625-2.985,6.493,6.493,0,0,1-4.055,4.333l-2.166,1.347.277,1.9c0,.806,0,2.166-.819,2.431-2.166,0-.542-3.791-2.708-3.791s-.264,5.693-2.166,5.693c-1.625,0-1.361-4.874-2.444-4.874-1.625,0-.264,5.957-2.166,5.957-2.153,0-1.07-4.874-2.972-4.874s-1.083,4.333-2.708,4.333c-1.347,0-1.083-4.069-1.347-5.152l-2.444.277c4.874-1.083,11.638-5.68,14.346-10.026h.542a4.2,4.2,0,0,0,3.527-2.166,4.792,4.792,0,0,1-2.708,1.083h-1.083l.542-.806a4.767,4.767,0,0,0,3.527-3.25c-.819,1.083-1.625,1.889-2.985,1.889l.819-3.514c-2.985,8.4-8.665,13-16.8,15.97a19.4,19.4,0,0,0-5.4,2.444,7.046,7.046,0,0,0-2.444,4.333,7.193,7.193,0,0,1-3.791,1.347h3.527v.819a9.048,9.048,0,0,1-4.069,1.361,9.14,9.14,0,0,0,3.791,0v1.07a6,6,0,0,1-3.791.819,9.3,9.3,0,0,0,3.791.264,10.91,10.91,0,0,0,.819,4.069v.264l1.347-.264a1.744,1.744,0,0,1,1.625,1.347c0,2.708-7.041,6.235-9.207,6.235-1.083,0-1.361-.264-1.361-1.083l.277-1.361c2.034-.2,4.967-1.162,6.433-2.893l.885-1.981-1.03,1.625a12.62,12.62,0,0,1-6.288,2.444c-.277-1.9-1.361-1.625-2.708-1.625-.806,0-1.889-.277-1.889-1.361,0-2.166,6.222-11.915,6.222-17.054,0-1.9-1.9-2.444-1.9-3.791,0-2.708,7.6-2.708,7.6-10.29a11.786,11.786,0,0,0-1.149-5.218l-1.017-1.545,1.215,2.774.41,3.17c0,8.4-8.137,6.777-8.137,11.109,0,1.625,1.9,2.431,1.9,3.791,0,4.874-6.222,14.081-6.222,17.054,0,2.708,2.166,2.444,4.055,2.444l.264.264c.542,0,.542.542.819,1.083l-.277,1.638.436,1.374,1.466.779,2.5-.528a15.5,15.5,0,0,0,6.446-4.069,1.76,1.76,0,0,1,1.07,1.361c0,1.889-6.763,5.139-8.93,5.139l-.819-.277-.264-.806V135.4l-.211.951.211.951c-4.874-2.444-8.665-3.791-14.081-3.791a35.779,35.779,0,0,0-23.83,9.471c4.333-1.625,11.1-4.055,15.706-4.055a31.218,31.218,0,0,0-3.791,5.139,38.934,38.934,0,0,1,12.721-4.055l2.444-.542-7.846,6.763c4.6-2.166,10.832-5.139,15.97-5.139a71.826,71.826,0,0,1,7.86.806l-1.083-1.889c2.166,1.083,5.416,1.347,8.111,1.347a3.042,3.042,0,0,0,1.625,0c-.542-.542-2.972-3.791-2.972-4.333l.542-1.083c1.083,0,2.166,4.874,5.416,4.874l1.361-.264-6.235-8.665a2.88,2.88,0,0,0-2.431-1.361l.528-2.166a2.2,2.2,0,0,0-2.153-2.431l-1.625.264v-3.514c0-5.957,1.083-9.484,6.763-11.373h2.985c0,1.347-.277,5.139,1.889,5.139,2.444,0,1.9-3.791,2.708-4.6l.277.264c.264,1.625.542,4.61,2.695,4.61,1.625,0,2.166-2.985,2.166-4.333.277,1.083.819,3.25,1.9,3.791-.819,1.083-2.444,3.527-2.444,4.874v.542c0,1.625,1.9,1.889,3.25,2.166,4.069.806,10.29,4.333,13,7.582A6.994,6.994,0,0,1,253.8,135.4c0,.542-.542,1.361-1.083,1.361a6.139,6.139,0,0,1-2.972.806c-6.5,0-11.651-3.25-15.706-8.124a21.787,21.787,0,0,0,1.347,7.041h-.542a4.257,4.257,0,0,0-4.861,4.333,4.56,4.56,0,0,0,4.6,4.61c1.625,0,3.249-1.083,3.249-2.708,0-1.083-1.083-2.166-1.625-2.708a4.044,4.044,0,0,1,2.708-.819l2.166.277c-1.361.542-1.625,2.166-1.625,3.25l.542,2.431c2.444-2.431,9.207-4.055,12.721-4.055H253.8c3.263,0,7.6.542,10.29,1.889a12.558,12.558,0,0,0,5.429.819l5.68-.542-5.139-3.791.542-.542c1.889,0,3.514,2.708,5.139,3.25l.542-.819c0-2.708-5.957-7.846-8.665-7.846l.277-1.9c0-1.625-1.1-2.431-2.721-2.431l-1.889.542c-1.625-.819-9.484-6.5-9.484-8.4l4.069-3.25c2.708-1.889,6.763-4.874,7.846-8.124l2.721.277v2.166c-2.18.542-3.263,2.708-3.527,4.874l-1.083,1.083c0,1.361,2.972,2.708,4.069,2.972a1.557,1.557,0,0,0,1.625,1.625c.806,0,1.083-.806,1.347-1.625,1.083-.264,4.069-1.612,4.069-2.972a1.165,1.165,0,0,0-1.083-1.083c-.277-2.444-1.625-4.61-4.069-4.874v-2.166c3.791,0,12.457-.819,14.359-4.333h2.708a3.107,3.107,0,0,0,2.972,1.625c1.889,1.347,4.874,4.055,5.693,6.5,1.083,2.708-.277,6.235,4.055,5.958,2.167,2.708,5.416,7.582,5.416,10.832v.264a3.491,3.491,0,0,0-1.083,2.721c0,1.889,1.625,2.972,3.514,2.972l1.9-.277.819,1.083v.542l-3.263.542c-2.708,0-5.944-1.347-5.944-4.333a3.615,3.615,0,0,1,.542-2.153h-1.083c-3.527,0-5.693,1.889-5.693,5.68l.819,3.25h-2.18c-1.625,0-5.944-.542-5.944-2.708,0-2.444,4.055-2.985,4.055-5.68,0-1.361-1.361-2.18-2.708-2.721a6.788,6.788,0,0,1,4.333-1.347,7.453,7.453,0,0,1,4.874,1.889c-1.889-4.055-4.61-7.041-9.471-7.041-5.416,0-10.026,5.416-10.026,10.832,0,6.777,4.874,10.568,11.638,10.568h2.708v.264c0,2.166,1.625,3.791,3.263,4.874,2.708-3.791,8.652-3.25,12.721-3.25A12.013,12.013,0,0,0,316.9,143.8l5.416.542,2.444-.277a19.415,19.415,0,0,1-2.985-4.055l.819-1.083a26.566,26.566,0,0,1,3.791,4.333,1.279,1.279,0,0,0,1.347-1.361,2.78,2.78,0,0,0-1.347-2.166,12.894,12.894,0,0,1,7.027-1.625l4.069.542-4.069,1.625a9.537,9.537,0,0,0-2.431,6.235v2.166a18.235,18.235,0,0,1,2.431-3.791,10.961,10.961,0,0,1,4.069-.819l9.207.819,5.548-.687,5.548-1.479a8.378,8.378,0,0,0,4.61,1.083,17.524,17.524,0,0,0,5.152-1.083h-.277c-1.625,0-4.055-1.083-4.055-2.708a1.813,1.813,0,0,1,1.083-1.625l2.972.264a12.643,12.643,0,0,0,5.68-1.347l-.806,7.846c4.068-4.6,10.568-6.763,16.248-6.763a12.5,12.5,0,0,1,5.693,1.083c2.431,7.582,10.555,6.763,12.721,10.832,1.361-2.444,5.138-3.25,7.582-4.874,2.166-1.361,4.333-3.527,4.874-5.958a15.357,15.357,0,0,1,5.957-1.083c5.693,0,12.193,2.166,15.97,6.763a39.627,39.627,0,0,0-.542-7.846,13.476,13.476,0,0,0,5.429,1.347,21.046,21.046,0,0,0,5.68-1.083,4.771,4.771,0,0,1,1.083,3.25c0,2.444-1.889,4.61-4.6,4.069l3.514.264c3.25,0,8.124-.542,7.86-4.874,3.249,0,7.569,1.083,7.569,4.874a11.38,11.38,0,0,1-1.083,4.069c3.527-1.625,5.152-5.693,4.888-9.207l2.431-.277c2.444,1.625,7.041,2.708,10.013,2.708s8.137-1.083,8.943-4.6l2.708-.542h.542a2.954,2.954,0,0,1,3.527,3.514,5.009,5.009,0,0,0,1.347-3.25,3.851,3.851,0,0,0-2.431-3.514,27.344,27.344,0,0,1,10.555-2.166c1.889,0,4.333.277,4.333,2.708,0,2.708-4.874,2.431-6.776,2.166,1.9,3.514,7.054,4.6,10.568,3.791l.542,1.889c0,2.444-4.333,2.985-6.235,3.25a18.513,18.513,0,0,0,5.429.542c2.695,0,8.666-.806,9.471-4.333,2.708,4.333,7.846,6.5,12.734,6.5,3.25,0,6.5-.542,8.388-3.514a9.495,9.495,0,0,0,5.416,1.347c3.25,0,14.081-1.889,15.984-4.874l7.569.277a44.931,44.931,0,0,1,11.373,2.431c5.971,2.166,12.47,4.874,18.969,4.874a14.265,14.265,0,0,0,10.277-3.791c7.318,1.083,14.9,3.791,22.219,3.791s16.512-3.25,16.512-12.179c0-6.235-4.6-8.943-10.29-9.749,2.444,1.083,4.068,2.972,4.068,5.693a19.416,19.416,0,0,0-5.693-.542h-3.791c2.972.806,6.222,2.695,6.222,6.222,0,4.6-3.514,6.5-7.569,6.5l-5.152-.277c2.708,0,8.666-.542,8.666-4.333a6.87,6.87,0,0,0-1.625-3.791l.277-1.083c0-1.347-1.9-3.236-2.708-3.514l-.542.277-.819-1.9a26.91,26.91,0,0,0-3.527-7.582c-2.431-4.069-7.569-8.943-7.569-13.54,0-4.055,4.6-11.651,6.222-16.248l1.625-6.5a40.852,40.852,0,0,0,.819-7.846l-.277-2.985v1.083c-7.3-.542-12.721-4.874-17.872-9.484l-.819-5.944C618.83,65,625.884,73.67,631.564,73.67h.806c-5.68-1.625-13.263-8.943-17.6-13-.542-5.971-1.889-11.915-2.708-18.15,7.86,4.61,15.165,10.29,19.761,18.15a59.538,59.538,0,0,1,9.484,33.3v3.791c0,4.61,3.791,7.041,3.791,10.832,0,1.083-.542,1.347-1.361,1.347-1.625-5.139-3.778-4.861-4.055-11.638l-.264,1.889c0,5.693,3.514,8.4,3.514,10.832,0,.819-.277,1.083-1.083,1.083-2.166-4.874-4.6-4.874-4.6-11.373,0-3.791.806-7.569.806-11.36a25.046,25.046,0,0,0-2.286-10.938l-2.047-2.88,1.691,3.025a25.357,25.357,0,0,1,1.836,9.973c0,4.069-1.083,7.582-1.083,11.638,0,7.582,5.68,11.109,5.68,15.984,0,1.347-.819,2.431-1.347,3.527l.806.264c2.972-2.444,5.958-5.693,5.958-10.026s-2.985-5.68-4.61-9.207c-1.083-2.708-.264-6.5-.264-9.471a31.235,31.235,0,0,0-.819-7.041c-1.347-9.471-5.139-20.581-11.374-28.163-13-15.442-34.649-23.83-54.159-26.538A156.789,156.789,0,0,0,553.575,27.9c-2.166-1.625-4.874-2.166-7.582-2.708a14.14,14.14,0,0,0-12.192-7.86,13.413,13.413,0,0,0-5.68,1.361c-1.889-1.361-6.235-1.9-8.666-1.9-5.416,0-9.207,3.8-12.192,8.137-4.055,5.944-9.194,8.124-12.179,15.151a36.973,36.973,0,0,0-1.9,9.22c-1.347,1.083-4.6,4.055-4.6,5.944,0,1.361,1.9,1.361,2.708,1.625-1.083,2.444-2.972,6.777-2.972,9.22-2.166,0-4.61-1.625-6.777-1.625-.819,0-1.625.264-1.625,1.347,0,2.166,4.61,4.6,6.235,5.139-1.625,4.61-3.263,10.026-3.263,14.9,0,8.665,2.721,17.331,12.193,19.5l2.708.277a14.768,14.768,0,0,0,11.915-6.777c2.444-1.361,8.124-2.444,8.124-5.958,0-2.166-2.972-1.889-4.333-1.889H512.15c-.277-1.361-1.638-5.693-3.263-5.693-2.43,0-2.708,4.333-2.708,5.957-1.889,1.625-4.6,3.791-7.028,3.791-2.721,0-3.263-2.166-3.263-4.333,0-6.5,5.152-12.721,9.749-16.789l-.528,3.25.528,1.361c1.083,0,5.971-6.776,10.845-6.776,2.972,0,5.68.819,8.666.819a18.351,18.351,0,0,0,6.5-1.083v.806a3.058,3.058,0,0,0,.806,2.166,4.067,4.067,0,0,0-1.083,2.444c0,.542.541,1.083,1.083,1.625l-.542,1.612a2.149,2.149,0,0,0,.806,1.9,6.287,6.287,0,0,0-.806,2.972,2.822,2.822,0,0,0,1.889,2.708c-2.695,9.749-22.47,9.749-24.913,24.649l-.264-.819c-1.361.277-2.708,1.083-2.708,2.708l.542,1.9c-1.625.542-4.055,1.889-4.055,4.069,0,3.236,6.486,5.4,8.93,6.222l-2.166-.277a21.543,21.543,0,0,0-14.081,5.152l-1.361,1.083v-.264a3.839,3.839,0,0,0-2.695-3.8,19.853,19.853,0,0,0,1.889-7.846l-.277-1.9a11.824,11.824,0,0,1-4.861,4.069,23.543,23.543,0,0,0-5.429-8.124l.278,3.25c0,4.874-1.361,9.749-5.139,13a21.288,21.288,0,0,1-4.874,3.791v-.806a15.248,15.248,0,0,0-2.721-8.137c-1.347,4.874-4.333,9.749-10.013,9.749a9.826,9.826,0,0,1-4.874-1.083v-.528a15.908,15.908,0,0,0-1.361-6.235,12.537,12.537,0,0,1,7.318-2.985,5.391,5.391,0,0,1,2.985.542l.264-1.889a10.015,10.015,0,0,0-4.6-7.86c3.514-2.431,8.929-2.972,13-2.972l6.763.264c-3.514-3.514-8.388-4.874-13.54-4.874a26.719,26.719,0,0,0-6.5.819l4.333-5.68c1.083-.277,1.083-.819,1.889-1.638.819-1.083,6.776-4.6,8.4-4.6h2.166c-2.166-.819-3.514-1.625-5.958-1.625l-3.791.542c1.625-3.25,5.152-5.68,8.665-7.041a9.84,9.84,0,0,0-4.055-.819,10.729,10.729,0,0,0-6.5,1.9c2.695-6.777,5.68-13,11.373-17.873H474.5c-4.068,0-8.4,3.527-11.1,6.776A148.515,148.515,0,0,1,476.669,55.52c-10.29,2.708-16.512,13-20.58,21.941C460.157,64.727,467.726,53.9,475.863,43.6c-10.026,2.444-16.789,11.373-22.218,19.775V49.021l2.708.542a5.913,5.913,0,0,0,5.971-6.222,8.192,8.192,0,0,0-2.708-5.958c-2.985-3.25-5.971-7.054-9.207-10.026-1.083-.542-1.625-1.083-2.985-1.083-1.889,0-3.514,1.347-4.874,2.708-2.708,2.431-6.5,4.069-9.749,5.416l-4.069,1.083a26.947,26.947,0,0,0-14.346-13,23.7,23.7,0,0,0-7.582-1.347c-9.207,0-17.608,5.4-22.205,13.54l-.819-.277c-3.236-1.347-7.3-2.985-9.749-5.416-1.347-1.361-2.972-2.708-5.139-2.708a4.846,4.846,0,0,0-2.431,1.083c-3.527,2.972-6.235,6.777-9.484,10.026a8.192,8.192,0,0,0-2.708,5.958,5.9,5.9,0,0,0,5.957,6.222l2.444-.542V63.379c-5.152-8.4-11.915-17.331-22.205-19.775,8.666,10.29,15.97,21.122,20.026,33.856-4.32-8.943-10.555-19.233-20.567-21.941a129.365,129.365,0,0,1,13,23.024c-2.986-4.333-6.776-6.776-12.192-6.776,5.957,4.874,8.666,11.1,11.373,17.873a10.755,10.755,0,0,0-6.5-1.9,9.842,9.842,0,0,0-4.055.819,19.031,19.031,0,0,1,8.93,7.041l-4.068-.542c-2.43,0-3.778.806-5.944,1.625,4.6,0,7.027,1.889,10.554,4.6a2.892,2.892,0,0,0,1.9,1.638l4.32,5.68a27.111,27.111,0,0,0-6.763-.819c-5.152,0-10.013,1.361-13.8,4.874l6.222-.542c3.791,0,10.026.819,13.276,2.985-3.25,1.889-6.235,5.958-6.5,10.013a5.322,5.322,0,0,1,2.972-.542c2.708,0,5.138,1.361,7.3,2.985l-1.347,5.958a16.534,16.534,0,0,1-6.5,1.625c-4.333,0-11.1-2.166-11.1-7.582a10.123,10.123,0,0,1,4.32-7.847l-2.695-.277a7.05,7.05,0,0,0-7.041,7.3l-2.18,2.985-.542,2.444.277,1.889a11.271,11.271,0,0,0-5.138-1.347c-2.444,0-4.874,1.083-7.054,1.612a8.322,8.322,0,0,0-3.514-2.153,5.307,5.307,0,0,0,1.083-3.263c0-2.431-2.708-2.708-4.6-2.431l-4.069-8.4a2.563,2.563,0,0,0,.542-1.889c0-2.985-2.166-4.333-2.985-6.777l2.985.277c6.222,0,11.373-4.333,17.873-4.333v.819l-2.708,2.431H325.3a3.469,3.469,0,0,0-2.708,2.972l.542.819c-1.083,0-2.721.542-2.721,1.625,0,.806,1.083,1.083,1.361,1.889a6.758,6.758,0,0,0-3.527,5.958,11.081,11.081,0,0,0,1.083,5.152c2.166-.542,4.346-2.708,5.693-4.333,0,1.347-1.083,3.514-1.347,4.874,3.791-1.361,5.139-3.791,6.222-7.582a2.176,2.176,0,0,0,1.347-1.361h1.361l.806-.264a2.974,2.974,0,0,0,2.721-2.985,3.771,3.771,0,0,0-1.9-3.25v-.264c0-2.708,5.416-6.222,5.416-11.109,0-3.514-3.514-4.055-6.235-4.6-3.25-.542-6.763-.542-10.277-1.625l1.083-1.347a6.023,6.023,0,0,0,3.514-5.152,10.338,10.338,0,0,0-1.625-4.874,5.12,5.12,0,0,0,.819-2.166,5.146,5.146,0,0,0-1.361-2.708,5,5,0,0,0-2.431-4.6,12.622,12.622,0,0,0,1.625-6.235,15.275,15.275,0,0,0-6.512-11.915l3.25-3.514c1.638-.277,7.86.264,7.86-2.985l-.806-2.708c2.153-.264,2.153-1.347,2.153-3.25l.542-.806-.264-1.083V40.9c0-1.625,2.166-1.361,2.166-2.708,0-1.083-2.708-4.6-3.527-5.958-.806-2.166-.264-4.069-.264-6.235,0-1.347-.264-3.514-1.625-4.6V20.316a2.78,2.78,0,0,0-1.347-2.166c0-3.25-.542-6.763-4.61-7.3l.277,1.083-.819,3.778a18.816,18.816,0,0,0-6.5-1.347,19.115,19.115,0,0,0-6.777,1.347l-.264-1.625a5.344,5.344,0,0,1,.542-2.972,9.119,9.119,0,0,0-5.693,8.124c-4.861,3.791-6.486,9.207-5.944,15.442-.277-.542-1.361-.819-1.9-.819a6.117,6.117,0,0,0-3.791,1.625l.542,1.083a4.893,4.893,0,0,0-4.333,2.444,5.075,5.075,0,0,0,3.25,2.166L289.278,43.6l4.333,1.083-1.361,2.444h-.264c-5.139-5.693-14.081-8.124-21.122-10.832-6.235-2.166-12.179-5.693-18.15-9.22l-17.054-10.29a7.884,7.884,0,0,0-2.972,5.429c0,3.514,4.055,5.944,7.027,6.486l-.806,3.527c0,3.791,3.527,5.416,6.5,5.958v.819c0,3.791,3.514,4.874,6.763,4.6a2.593,2.593,0,0,0,.542,1.9c1.083,1.625,3.527,2.166,5.693,1.889,0,1.361.277,2.444,1.361,2.985L252.714,47.4c-15.706-6.776-31.941-13-47.647-20.316a8.464,8.464,0,0,0-1.625,4.333c0,4.61,6.486,5.693,9.736,6.235l-.264,3.25c0,5.693,3.527,9.484,9.471,9.484a7.188,7.188,0,0,0-.806,3.236c0,3.461,2.893,5.231,5.825,5.9l2.84.33" transform="translate(812.814 2701.719)"/>
    <path id="Path_8587" data-name="Path 8587" d="M507.5,1.5H0v-3H507.5Z" transform="translate(975.5 2865.881)"/>
    <path id="Path_8586" data-name="Path 8586" d="M31.029-16.518v5.1H18.3V26.3H13.112V-11.417H.387v-5.1Zm4.807,0H41V1.175h19.64V-16.518h5.167V26.3H60.644V6.276H41V26.3H35.837Zm38.381,0h27.532v5.247H79.2v13h20.848V6.684H79.2V21.2h22.931v5.1H74.217Zm48.444,0h5.167V1.175h19.64V-16.518h5.167V26.3h-5.167V6.276h-19.64V26.3h-5.167Zm39.049,0h5.167V26.3H161.71Zm13.47,0h6.041L200.3,18.169V-16.518h4.859V26.3h-5.733L180.065-8.356V26.3h-4.884ZM227.7,21.346a12.58,12.58,0,0,0,4.267-.612,9.675,9.675,0,0,0,4.884-4.372,19.44,19.44,0,0,0,2.185-6.646,28.642,28.642,0,0,0,.386-4.489q0-7.958-2.789-12.359t-8.985-4.4h-9.075V21.346ZM213.433-16.518h15.3a13.81,13.81,0,0,1,12.082,6.267q3.83,5.655,3.83,14.487a32.185,32.185,0,0,1-2.262,12.33q-3.985,9.736-13.7,9.736H213.433Zm43.342,0V9.949a17.294,17.294,0,0,0,1.542,7.753,7.935,7.935,0,0,0,7.712,4.664q6.5,0,8.843-5.043a17.912,17.912,0,0,0,1.26-7.375V-16.518h5.193V7.53q0,7.9-1.877,12.155Q276,27.438,266.441,27.438t-12.982-7.753q-1.877-4.256-1.877-12.155V-16.518Zm62.48-1.108a17.536,17.536,0,0,1,9.2,2.332q5.63,3.352,6.889,11.747h-5.064q-.926-4.693-3.83-6.835a12.013,12.013,0,0,0-7.326-2.142,10.933,10.933,0,0,0-8.83,4.46Q306.71-3.6,306.71,5.227q0,7.637,2.956,12.432t9.64,4.795a11.46,11.46,0,0,0,8.47-3.367q3.355-3.367,3.432-10.887H319.384V3.391h16.581V26.3h-3.29l-1.234-5.509a20.264,20.264,0,0,1-4.6,4.489,16.761,16.761,0,0,1-20.1-2.769q-5.27-6.179-5.27-16.964,0-10.756,5.141-17.11A15.494,15.494,0,0,1,319.255-17.625ZM361.44,3.1a9.033,9.033,0,0,0,5.694-1.632q2.1-1.632,2.1-5.888,0-4.576-2.931-6.238a8.6,8.6,0,0,0-4.19-.874H349.615V3.1ZM344.5-16.518H361.98a15.634,15.634,0,0,1,7.121,1.428q5.321,2.74,5.321,10.114a12.572,12.572,0,0,1-1.4,6.3,10.669,10.669,0,0,1-3.92,3.935,7.84,7.84,0,0,1,3.329,2.682,10.615,10.615,0,0,1,1.247,5.392l.18,5.742a19.914,19.914,0,0,0,.36,3.644,3.578,3.578,0,0,0,1.645,2.623V26.3H369.59a5.862,5.862,0,0,1-.411-1.428,30.985,30.985,0,0,1-.257-3.381l-.308-7.141q-.18-4.2-2.751-5.626a10.173,10.173,0,0,0-4.6-.787H349.615V26.3H344.5Zm53.7-1.166q10,0,14.807,7.287,3.753,5.684,3.753,14.545,0,9.59-4.293,15.944-5.039,7.462-14.37,7.462a16.3,16.3,0,0,1-13.7-6.529q-4.447-6.3-4.447-15.915a27.81,27.81,0,0,1,3.8-14.866Q388.639-17.684,398.2-17.684Zm.514,40.05q6.761,0,9.782-5.494a25.8,25.8,0,0,0,3.021-12.636q0-7.549-3.483-12.155a11.3,11.3,0,0,0-9.524-4.605,11.752,11.752,0,0,0-9.563,4.562q-3.7,4.562-3.7,13.452a21.544,21.544,0,0,0,3.175,11.995Q391.595,22.366,398.716,22.366Zm29.692-38.884V9.949A17.294,17.294,0,0,0,429.95,17.7a7.935,7.935,0,0,0,7.712,4.664q6.5,0,8.843-5.043a17.912,17.912,0,0,0,1.26-7.375V-16.518h5.193V7.53q0,7.9-1.877,12.155-3.445,7.753-13.008,7.753t-12.982-7.753q-1.877-4.256-1.877-12.155V-16.518Zm32.956,0h16.992a10.732,10.732,0,0,1,8.123,3.221q3.085,3.221,3.085,9.051a14.271,14.271,0,0,1-2.751,8.73Q484.063,8.2,478.356,8.2H466.479V26.3h-5.116ZM484.4-4.217q0-4.722-3.085-6.413a9.985,9.985,0,0,0-4.653-.9h-10.18V3.3h10.18a8.878,8.878,0,0,0,5.591-1.661Q484.4-.02,484.4-4.217Z" transform="translate(985.263 2899.679)"/>
  </g>
</svg>
